<svg xmlns="http://www.w3.org/2000/svg" width="48.894" height="79.387" viewBox="0 0 48.894 79.387">
  <path id="_24" data-name="24" d="M230.908,41.113c0-1.156,1.156-1.472,1.787-1.472h21.345a1.377,1.377,0,0,1,1.367,1.261V52.995c0,.421-.105.841-.42.841H253.2c-.631,0-.736.526-.736,1.262,0,10.2-6.1,24.289-22.291,24.289-15.457,0-23.658-10.935-23.658-34.278v-12.3C206.514,13.248,212.928,0,230.593,0c4.1,0,21.871,0,21.871,29.442,0,.736-.315,1.367-1.051,1.367l-19.032.841a1.664,1.664,0,0,1-1.472-1.787V23.869c0-.946-.841-1.156-1.682-1.156-.946,0-1.683.736-1.683,2.418V54.046c0,3.259,1.052,4.626,2.419,4.626,1.156,0,2.313-.631,2.313-3.154V53.941c0-.315-.105-.631-.421-.631h-.526c-.21,0-.42-.21-.42-.631Z" transform="translate(-206.514)" fill="#e95800"/>
</svg>
