<svg xmlns="http://www.w3.org/2000/svg" xmlns:xlink="http://www.w3.org/1999/xlink" width="122.843" height="121.739" viewBox="0 0 122.843 121.739">
  <defs>
    <clipPath id="clip-path">
      <path id="doctor-hombre-adulto-pie-derecho-oficina-hospital" d="M31.767-19.778c15.842,0,29.365,17.692,42.056,33.67,8.9,11.2,17.006,20.761,17.006,32.139,0,11.024-3.113,17.22-6.083,23.081-4.106,8.109-9.782,13.922-20.662,21.211C45.8,102.574,28.592,86.78,14.578,80.268,3.56,75.148-9.573,72.71-18.519,67.285c-3.311-2.008-14.057-8.5-11.311-21.07C-27.307,34.7-10.787,21.79-4.778,14.421,7.252-.331,17.449-19.778,31.767-19.778Z" transform="translate(30.274 19.778)" fill="#3c1c74"/>
    </clipPath>
  </defs>
  <g id="Grupo_1075478" data-name="Grupo 1075478" transform="translate(0)">
    <g id="Grupo_1072178" data-name="Grupo 1072178" transform="translate(0)">
      <path id="doctor-hombre-adulto-pie-derecho-oficina-hospital-2" data-name="doctor-hombre-adulto-pie-derecho-oficina-hospital" d="M31.767-19.778c15.842,0,29.365,17.692,42.056,33.67,8.9,11.2,17.006,20.761,17.006,32.139,0,11.024-3.113,17.22-6.083,23.081-4.106,8.109-9.782,13.922-20.662,21.211C45.8,102.574,28.592,86.78,14.578,80.268,3.56,75.148-9.573,72.71-18.519,67.285c-3.311-2.008-14.057-8.5-11.311-21.07C-27.307,34.7-10.787,21.79-4.778,14.421,7.252-.331,17.449-19.778,31.767-19.778Z" transform="translate(32.014 21.795)" fill="#3c1c74"/>
      <g id="Elipse_4857" data-name="Elipse 4857" transform="translate(0)" fill="none" stroke="#3c1c74" stroke-width="1">
        <ellipse cx="11.273" cy="10.736" rx="11.273" ry="10.736" stroke="none"/>
        <ellipse cx="11.273" cy="10.736" rx="10.773" ry="10.236" fill="none"/>
      </g>
      <ellipse id="Elipse_4858" data-name="Elipse 4858" cx="5.368" cy="4.831" rx="5.368" ry="4.831" transform="translate(109.512 8.589)" fill="#3c1c74"/>
      <path id="Trazado_115346" data-name="Trazado 115346" d="M7.936,0c4.383,0,7.936,3.179,7.936,7.1,0,2.1-.505,3.936-2.342,5.038-1.186.72-3.556.842-5.594.842C3.553,12.98,0,11.022,0,7.1S3.553,0,7.936,0Z" transform="translate(22.854 108.759)" fill="#3c1c74"/>
    </g>
    <g id="corazon_3_" data-name="corazon (3)" transform="translate(5.481 7.766)">
      <path id="Trazado_868852" data-name="Trazado 868852" d="M351.656,259.075l5.545-17.055a3.037,3.037,0,0,1,5.787,1.844l-1.835,5.92Z" transform="translate(-273.376 -186.513)" fill="#fdad7c"/>
      <path id="Trazado_868853" data-name="Trazado 868853" d="M396.264,233.654a3.256,3.256,0,0,1,4.609.054l2.671-8.272A2.909,2.909,0,1,0,398,223.676l-3.685,11.886Z" transform="translate(-306.539 -172.291)" fill="#fdad7c"/>
      <path id="Trazado_868854" data-name="Trazado 868854" d="M415.084,234.352l2.671-8.272A2.915,2.915,0,0,0,416,222.453l-3.408,10.923A3.244,3.244,0,0,1,415.084,234.352Z" transform="translate(-320.75 -172.934)" fill="#f3a26f"/>
      <path id="Trazado_868855" data-name="Trazado 868855" d="M380.143,216.759a3.269,3.269,0,0,1,.22,4.312L367.649,237.1l6.885-5.285a38.528,38.528,0,0,0,13.454-19.543l2.585-8.659a2.943,2.943,0,0,0-5.619-1.751Z" transform="translate(-285.809 -155.341)" fill="#fdad7c"/>
      <path id="Trazado_868856" data-name="Trazado 868856" d="M327.977,192.14a3.377,3.377,0,0,0-3.719,2.3l-3.53,11.827a38.528,38.528,0,0,1-13.454,19.543L300.39,231.1l12.715-16.031a3.262,3.262,0,0,0-4.829-4.367l-11.445,11.2a25.086,25.086,0,0,0-10.65,8.462,32.7,32.7,0,0,0-5.049,13.871V261.64H300.39V248.851l12.92-10.569c6.964-5.7,9.46-16.025,12.108-24.631l5.282-17.17a3.383,3.383,0,0,0-2.723-4.341Z" transform="translate(-218.55 -149.339)" fill="#ffc89f"/>
      <path id="Trazado_868857" data-name="Trazado 868857" d="M375.447,272.155c-.076-.057-.155-.111-.234-.161-.031-.019-.062-.039-.093-.057a3.241,3.241,0,0,0-.305-.156l-.028-.014a3.232,3.232,0,0,0-.373-.133l-.028-.007a3.285,3.285,0,0,0-.354-.078l-.046-.007a3.284,3.284,0,0,0-1.187.039,3.27,3.27,0,0,1-.175,3.818L362.93,287.62a3.841,3.841,0,0,0,.4,5.209L376.049,276.8a3.249,3.249,0,0,0-.512-4.575c-.029-.024-.06-.045-.09-.068Z" transform="translate(-281.495 -211.068)" fill="#f7bc94"/>
      <path id="Trazado_868858" data-name="Trazado 868858" d="M380.935,192.142a3.36,3.36,0,0,0-1.156.027,3.37,3.37,0,0,1,.452,2.916l-5.282,17.17c-2.648,8.606-5.144,18.265-12.108,23.961l-13.159,10.234a1.113,1.113,0,0,0-.43.879v14.312h4.1V248.854l12.92-10.569c6.964-5.7,9.46-16.025,12.108-24.631l5.282-17.17a3.383,3.383,0,0,0-2.723-4.341Z" transform="translate(-271.508 -149.342)" fill="#f7bc94"/>
      <path id="Trazado_868859" data-name="Trazado 868859" d="M378.4,250.305l1.835-5.92a3.041,3.041,0,0,0-1.971-3.794l-4.422,14.173Z" transform="translate(-290.623 -187.035)" fill="#f3a26f"/>
      <path id="Trazado_868860" data-name="Trazado 868860" d="M437.181,204.609a2.948,2.948,0,0,0-1.564-3.507L427.6,226.518a38.547,38.547,0,0,0,6.992-13.25Z" transform="translate(-332.418 -156.336)" fill="#f3a26f"/>
      <g id="Grupo_1093988" data-name="Grupo 1093988" transform="translate(9.082 44.481)">
        <path id="Trazado_868861" data-name="Trazado 868861" d="M120.275,259.075l-5.545-17.055a3.037,3.037,0,0,0-5.787,1.844l1.835,5.92Z" transform="translate(-93.667 -230.994)" fill="#fdad7c"/>
        <path id="Trazado_868862" data-name="Trazado 868862" d="M82.992,233.654a3.256,3.256,0,0,0-4.609.054l-2.671-8.272a2.909,2.909,0,1,1,5.545-1.761l3.685,11.886Z" transform="translate(-67.83 -216.772)" fill="#fdad7c"/>
        <path id="Trazado_868863" data-name="Trazado 868863" d="M51.352,216.759a3.269,3.269,0,0,0-.22,4.312L63.847,237.1l-6.885-5.285a38.526,38.526,0,0,1-13.454-19.543l-2.585-8.659a2.943,2.943,0,0,1,5.619-1.751Z" transform="translate(-40.799 -199.822)" fill="#fdad7c"/>
      </g>
      <path id="Trazado_868864" data-name="Trazado 868864" d="M10.369,192.14a3.377,3.377,0,0,1,3.719,2.3l3.53,11.827a38.527,38.527,0,0,0,13.454,19.543l6.885,5.285L25.242,215.069a3.262,3.262,0,0,1,4.83-4.367l11.445,11.2a25.086,25.086,0,0,1,10.65,8.462,32.7,32.7,0,0,1,5.049,13.871V261.64H37.957V248.851l-12.92-10.569c-6.964-5.7-9.46-16.025-12.108-24.631l-5.282-17.17A3.383,3.383,0,0,1,10.369,192.14Z" transform="translate(-5.827 -149.339)" fill="#ffc89f"/>
      <path id="Trazado_868865" data-name="Trazado 868865" d="M112.653,292.077A25.088,25.088,0,0,0,102,283.615l-11.445-11.2a3.256,3.256,0,0,0-5.256,1.012,3.241,3.241,0,0,1,1.294.774L98.04,285.4a25.086,25.086,0,0,1,10.65,8.462,32.7,32.7,0,0,1,5.049,13.871v15.619H117.7V305.948a32.7,32.7,0,0,0-5.049-13.871Z" transform="translate(-66.313 -211.053)" fill="#f7bc94"/>
      <path id="Trazado_868866" data-name="Trazado 868866" d="M122.881,253.767l4.963,4.856h.315l-5.4-16.6a3.036,3.036,0,0,0-3.378-2.06c-.084.014-.165.034-.246.055Z" transform="translate(-92.617 -186.513)" fill="#f3a26f"/>
      <path id="Trazado_868867" data-name="Trazado 868867" d="M88.83,232.745a3.244,3.244,0,0,1,2.016.918L92.8,235.57l-3.685-11.886a2.906,2.906,0,0,0-3.438-1.971Z" transform="translate(-66.602 -172.3)" fill="#f3a26f"/>
      <path id="Trazado_868868" data-name="Trazado 868868" d="M71.356,237.1,58.641,221.069a3.269,3.269,0,0,1,.22-4.312l-4.81-14.9a2.942,2.942,0,0,0-3.315-1.995c-.1.017-.187.04-.278.065l7.548,25.587a38.5,38.5,0,0,0,6.464,6.3Z" transform="translate(-39.226 -155.34)" fill="#f3a26f"/>
      <path id="Trazado_868882" data-name="Trazado 868882" d="M325.9,186.947a5.045,5.045,0,0,0-8.645.164,4.611,4.611,0,0,0-7,2.39l-.783,2.426a4.563,4.563,0,0,0-6.907,2.456l-.513,1.654a4.706,4.706,0,0,0-7.116,2.446l-5.307,16.326a26.894,26.894,0,0,0-10.666,8.747c-.379.539-.746,1.109-1.09,1.7a1.673,1.673,0,1,0,2.884,1.7c.3-.509.617-1,.943-1.468a23.637,23.637,0,0,1,9.86-7.854,1.673,1.673,0,0,0,.592-.374l11.445-11.2a1.589,1.589,0,0,1,2.349,2.132l-12.715,16.031a1.673,1.673,0,0,0,2.329,2.366l6.885-5.286A39.958,39.958,0,0,0,316.488,200.9l3.524-11.806a1.7,1.7,0,0,1,1.871-1.15,1.725,1.725,0,0,1,1.374,2.2l-5.282,17.17q-.408,1.327-.817,2.7c-2.3,7.658-4.9,16.338-10.751,21.127l-12.92,10.568a1.673,1.673,0,0,0-.614,1.295v11.115H276.96V238.478a32.607,32.607,0,0,1,1.27-5.726,1.673,1.673,0,1,0-3.191-1.006,34.764,34.764,0,0,0-1.417,6.482q-.008.08-.008.16v17.405a1.673,1.673,0,0,0,1.673,1.673h19.26a1.673,1.673,0,0,0,1.673-1.673v-12l12.307-10.066c6.647-5.437,9.4-14.638,11.838-22.756.272-.906.54-1.8.81-2.678l5.282-17.17a5.057,5.057,0,0,0-.552-4.18Zm-25.184,13.4-1.71,5.517-4.328,4.235,3.44-10.582a1.364,1.364,0,0,1,2.6.831Zm7.4-4.223v0l-2.042,6.325a4.942,4.942,0,0,0-2.487-.064l.324-1.047h0v0l1.849-5.964a1.236,1.236,0,1,1,2.355.751Zm7.747-4.837h0l-2.584,8.658a36.948,36.948,0,0,1-3.854,8.677,4.965,4.965,0,0,0-.527-4.031l4.542-14.065a1.27,1.27,0,0,1,2.424.759Z" transform="translate(-212.707 -143.494)"/>
      <path id="Trazado_868883" data-name="Trazado 868883" d="M47.709,223.556a26.891,26.891,0,0,0-10.666-8.747l-5.307-16.326a4.706,4.706,0,0,0-7.116-2.446l-.513-1.654a4.562,4.562,0,0,0-6.906-2.456l-.783-2.426a4.611,4.611,0,0,0-7-2.39,5.022,5.022,0,0,0-5.126-2.471,5.056,5.056,0,0,0-4.071,6.487L5.5,208.3c.27.877.538,1.772.81,2.678,2.433,8.118,5.19,17.319,11.838,22.756L30.457,243.8v12a1.673,1.673,0,0,0,1.673,1.673h19.26a1.673,1.673,0,0,0,1.673-1.673V238.388c0-.053,0-.107-.008-.16a34.15,34.15,0,0,0-5.346-14.672ZM26.1,199.221a1.361,1.361,0,0,1,2.454.3l3.44,10.582-4.328-4.235-1.71-5.516h0A1.357,1.357,0,0,1,26.1,199.221Zm-7.45-4.078a1.244,1.244,0,0,1,2.261.231l1.849,5.965h0l.326,1.05a4.928,4.928,0,0,0-2.488.061l-2.043-6.327a1.234,1.234,0,0,1,.094-.982Zm-7.7-4.891a1.28,1.28,0,0,1,2.288.278l4.541,14.065a4.966,4.966,0,0,0-.527,4.03,36.946,36.946,0,0,1-3.854-8.677l-2.584-8.658A1.246,1.246,0,0,1,10.946,190.252Zm38.771,63.87H33.8V243.006a1.673,1.673,0,0,0-.614-1.295l-12.92-10.569c-5.855-4.789-8.456-13.469-10.751-21.127q-.411-1.371-.817-2.7l-5.282-17.17A1.705,1.705,0,0,1,6.664,189.1L10.188,200.9A39.959,39.959,0,0,0,24.226,221.3l6.885,5.286a1.673,1.673,0,0,0,2.329-2.366L20.725,208.184a1.6,1.6,0,0,1,.107-2.1,1.575,1.575,0,0,1,1.115-.479h.019a1.574,1.574,0,0,1,1.107.452l11.445,11.2a1.689,1.689,0,0,0,.589.373,23.635,23.635,0,0,1,9.863,7.855c3.778,5.377,4.657,12.234,4.745,13v15.643Z" transform="translate(0 -143.494)"/>
      <g id="grupo_1_" data-name="grupo (1)" transform="translate(23.886 -10.03)">
        <path id="Trazado_916510" data-name="Trazado 916510" d="M36.655,308.433a7.649,7.649,0,0,0-3.734-2.137l-5.293-1.268,0,0,0,0V301.8H21.166v3.241h0L15.887,306.3A7.669,7.669,0,0,0,10,313.758v8.647H21.7Z" transform="translate(-8.714 -264.339)" fill="#78d2fa"/>
        <path id="Trazado_916511" data-name="Trazado 916511" d="M102.7,301.8v3.318l-3.354,8.034L96,305.127V301.8Z" transform="translate(-83.651 -264.339)" fill="#ffb487"/>
        <path id="Trazado_916512" data-name="Trazado 916512" d="M80.359,215.261v4.475a7.2,7.2,0,0,1-7.2,7.2h0a7.2,7.2,0,0,1-7.2-7.2v-4.475Z" transform="translate(-57.467 -188.935)" fill="#ffcdac"/>
        <path id="Trazado_916513" data-name="Trazado 916513" d="M80.359,165.723v-1.734a7.2,7.2,0,0,0-7.2-7.2h0a7.2,7.2,0,0,0-7.2,7.2v1.734h4.966a17.177,17.177,0,0,0,8.829-2.443h0" transform="translate(-57.467 -137.982)" fill="#878791"/>
        <path id="Trazado_916514" data-name="Trazado 916514" d="M294.79,308.433a7.649,7.649,0,0,1,3.734-2.137l5.293-1.268,0,0,0,0V301.8h6.463v3.241h0l5.279,1.261a7.669,7.669,0,0,1,5.887,7.459v8.647h-11.7Z" transform="translate(-256.868 -264.339)" fill="#a5dc69"/>
        <path id="Trazado_916515" data-name="Trazado 916515" d="M115.526,352.4l-7.372,1.766a10.681,10.681,0,0,0-8.192,10.387v7.09h40.119v-7.084a10.681,10.681,0,0,0-8.2-10.389l-7.353-1.756Z" transform="translate(-87.103 -308.436)" fill="#ff5a5a"/>
        <g id="Grupo_1104784" data-name="Grupo 1104784" transform="translate(28.13 37.458)">
          <path id="Trazado_916516" data-name="Trazado 916516" d="M370.585,301.8v3.33l-3.351,8.023-3.354-8.034V301.8Z" transform="translate(-345.201 -301.797)" fill="#ffb487"/>
          <path id="Trazado_916517" data-name="Trazado 916517" d="M223.477,338.072l4.8-10.9a3.962,3.962,0,0,1-.559-2.031V324.1h-8.486v1.047a3.961,3.961,0,0,1-.557,2.029Z" transform="translate(-218.674 -321.228)" fill="#ffb487"/>
        </g>
        <path id="Trazado_916518" data-name="Trazado 916518" d="M198.069,191.525v6.923a10.034,10.034,0,0,1-10.034,10.034h0A10.034,10.034,0,0,1,178,198.448v-6.923Z" transform="translate(-155.103 -168.253)" fill="#ffcdac"/>
        <path id="Trazado_916519" data-name="Trazado 916519" d="M188.033,115.437h0A10.034,10.034,0,0,0,178,125.471v2.415H182.9a11.024,11.024,0,0,0,8.45-3.944h0l6.712,3.944v-2.415A10.034,10.034,0,0,0,188.033,115.437Z" transform="translate(-155.101 -101.953)" fill="#f5b955"/>
        <path id="Trazado_916520" data-name="Trazado 916520" d="M334.045,215.261v4.475a7.2,7.2,0,0,0,7.2,7.2h0a7.2,7.2,0,0,0,7.2-7.2v-4.475Z" transform="translate(-291.074 -188.935)" fill="#ffcdac"/>
        <path id="Trazado_916521" data-name="Trazado 916521" d="M334.045,165.723v-1.734a7.2,7.2,0,0,1,7.2-7.2h0a7.2,7.2,0,0,1,7.2,7.2v1.734h-4.966a17.177,17.177,0,0,1-8.829-2.443h0" transform="translate(-291.074 -137.982)" fill="#878791"/>
        <path id="Trazado_916522" data-name="Trazado 916522" d="M247.026,492a1.287,1.287,0,1,0,.909.377A1.3,1.3,0,0,0,247.026,492Z" transform="translate(-214.128 -430.075)"/>
        <path id="Trazado_916523" data-name="Trazado 916523" d="M58.989,133.948,54.7,132.923v-1.7a8.49,8.49,0,0,0,3.968-7.18v-4.794a8.485,8.485,0,0,0-14.843-5.625,11.341,11.341,0,0,0-10.878-8.184h0a11.341,11.341,0,0,0-10.885,8.207,8.485,8.485,0,0,0-14.862,5.6v4.794a8.49,8.49,0,0,0,3.968,7.18v1.7l-4.291,1.025A8.926,8.926,0,0,0,0,142.658V151.3a1.286,1.286,0,0,0,1.286,1.286H11.573v3.859a1.286,1.286,0,0,0,1.286,1.286H26.971a1.286,1.286,0,1,0,0-2.573H21.229V149.5a1.286,1.286,0,1,0-2.573,0v5.662h-4.51v-5.8a9.366,9.366,0,0,1,7.206-9.136l6.327-1.516,4.071,9.261a1.286,1.286,0,0,0,1.177.769h0a1.286,1.286,0,0,0,1.178-.769l4.067-9.248,6.308,1.507a9.364,9.364,0,0,1,7.212,9.138V150.8a1.289,1.289,0,0,0,0,1.006v3.356H47.207V149.5a1.286,1.286,0,1,0-2.573,0v5.662h-6.3a1.286,1.286,0,1,0,0,2.573H52.978a1.286,1.286,0,0,0,1.286-1.286v-3.859H64.577a1.286,1.286,0,0,0,1.286-1.286v-8.647A8.926,8.926,0,0,0,58.989,133.948Zm-6.861.06-1.964,4.7-1.938-4.641a1.285,1.285,0,0,0,.009-.141c0-.012,0-.024,0-.036V132.3a8.432,8.432,0,0,0,3.89,0v1.636C52.125,133.961,52.126,133.984,52.128,134.007Zm-24.991,1.033a8.932,8.932,0,0,0-2.629-1.1L20.2,132.913v-1.687a8.551,8.551,0,0,0,2.659-2.651,11.4,11.4,0,0,0,4.277,4.573ZM24.2,123.435v-2.975h3.62a12.277,12.277,0,0,0,8.694-3.594l5.174,3.04v3.832a8.747,8.747,0,0,1-17.488-.3Zm14.515,9.737a11.4,11.4,0,0,0,4.306-4.574,8.556,8.556,0,0,0,2.644,2.628v1.687l-4.306,1.032a8.935,8.935,0,0,0-2.644,1.105v-1.878Zm11.463-3.215a5.924,5.924,0,0,1-5.918-5.917v-.21c0-.131.008-3.459.008-3.459a18.468,18.468,0,0,0,8.148,1.9h3.679v1.773A5.924,5.924,0,0,1,50.175,129.958Zm0-16.629a5.924,5.924,0,0,1,5.918,5.917v.448H52.413a15.894,15.894,0,0,1-7.917-2.113A5.929,5.929,0,0,1,50.175,113.329ZM24.2,116.757a8.748,8.748,0,0,1,17.5,0v.168l-4.774-2.8a1.286,1.286,0,0,0-1.638.283,9.715,9.715,0,0,1-7.464,3.483H24.2ZM9.77,119.246a5.918,5.918,0,0,1,11.6-1.665,15.9,15.9,0,0,1-7.917,2.113H9.77v-.448Zm0,3.021H13.45a18.467,18.467,0,0,0,8.156-1.9v3.673a5.918,5.918,0,0,1-11.835,0S9.77,122.267,9.77,122.267Zm5.918,10.264a8.484,8.484,0,0,0,1.941-.226v1.553c0,.024,0,.048,0,.073,0,.041,0,.081.008.121l-1.946,4.66-1.954-4.68c0-.031,0-.062,0-.093V132.3A8.484,8.484,0,0,0,15.688,132.53Zm-4.115,16.83v.658H7.718V144.3a1.286,1.286,0,0,0-2.573,0v5.715H2.573v-7.361a6.362,6.362,0,0,1,4.9-6.207l4.078-.974,2.661,6.375A11.942,11.942,0,0,0,11.573,149.36Zm9.179-11.638a12.1,12.1,0,0,0-2.175.748l1.253-3,4.078.977a6.375,6.375,0,0,1,.923.3Zm12.175,6.533-3.217-7.319v-2.653a11.329,11.329,0,0,0,6.429.012v2.655Zm8.082-7.5a6.387,6.387,0,0,1,.946-.307l4.068-.975,1.258,3.013a12.094,12.094,0,0,0-2.2-.759ZM63.29,150.019H60.718V144.3a1.286,1.286,0,0,0-2.573,0v5.715H54.264v-.652a11.942,11.942,0,0,0-2.63-7.5l2.67-6.392,4.087.977a6.362,6.362,0,0,1,4.9,6.207Z" transform="translate(0 -93.239)"/>
      </g>
    </g>
  </g>
</svg>
