<svg xmlns="http://www.w3.org/2000/svg" xmlns:xlink="http://www.w3.org/1999/xlink" width="142.748" height="121.739" viewBox="0 0 142.748 121.739">
  <defs>
    <clipPath id="clip-path">
      <path id="doctor-hombre-adulto-pie-derecho-oficina-hospital" d="M31.767-19.778c15.842,0,29.365,17.692,42.056,33.67,8.9,11.2,17.006,20.761,17.006,32.139,0,11.024-3.113,17.22-6.083,23.081-4.106,8.109-9.782,13.922-20.662,21.211C45.8,102.574,28.592,86.78,14.578,80.268,3.56,75.148-9.573,72.71-18.519,67.285c-3.311-2.008-14.057-8.5-11.311-21.07C-27.307,34.7-10.787,21.79-4.778,14.421,7.252-.331,17.449-19.778,31.767-19.778Z" transform="translate(30.274 19.778)" fill="#3c1c74"/>
    </clipPath>
  </defs>
  <g id="_25" data-name="25" transform="translate(0)">
    <g id="Grupo_1072178" data-name="Grupo 1072178" transform="translate(0)">
      <path id="doctor-hombre-adulto-pie-derecho-oficina-hospital-2" data-name="doctor-hombre-adulto-pie-derecho-oficina-hospital" d="M31.767-19.778c15.842,0,29.365,17.692,42.056,33.67,8.9,11.2,17.006,20.761,17.006,32.139,0,11.024-3.113,17.22-6.083,23.081-4.106,8.109-9.782,13.922-20.662,21.211C45.8,102.574,28.592,86.78,14.578,80.268,3.56,75.148-9.573,72.71-18.519,67.285c-3.311-2.008-14.057-8.5-11.311-21.07C-27.307,34.7-10.787,21.79-4.778,14.421,7.252-.331,17.449-19.778,31.767-19.778Z" transform="translate(32.014 21.795)" fill="#3c1c74"/>
      <g id="Elipse_4857" data-name="Elipse 4857" transform="translate(0)" fill="none" stroke="#3c1c74" stroke-width="1">
        <ellipse cx="11.273" cy="10.736" rx="11.273" ry="10.736" stroke="none"/>
        <ellipse cx="11.273" cy="10.736" rx="10.773" ry="10.236" fill="none"/>
      </g>
      <ellipse id="Elipse_4858" data-name="Elipse 4858" cx="5.368" cy="4.831" rx="5.368" ry="4.831" transform="translate(109.512 8.589)" fill="#3c1c74"/>
      <path id="Trazado_115346" data-name="Trazado 115346" d="M7.936,0c4.383,0,7.936,3.179,7.936,7.1,0,2.1-.505,3.936-2.342,5.038-1.186.72-3.556.842-5.594.842C3.553,12.98,0,11.022,0,7.1S3.553,0,7.936,0Z" transform="translate(22.854 108.759)" fill="#3c1c74"/>
    </g>
    <g id="escuchando-a-escondidas" transform="translate(13.691 16.309)">
      <g id="Grupo_1093990" data-name="Grupo 1093990" transform="translate(63.744 33.276)">
        <path id="Trazado_868895" data-name="Trazado 868895" d="M291.356,205.921A3.932,3.932,0,0,0,287,209.461l.446-4.764a4.072,4.072,0,0,0-3.463-4.4,3.932,3.932,0,0,0-4.355,3.541l.446-4.764a4.072,4.072,0,0,0-3.463-4.4,3.932,3.932,0,0,0-4.355,3.541L271.8,203.1a3.932,3.932,0,0,0-3.622-4.288,4.072,4.072,0,0,0-4.22,3.684l-1.821,19.444a3.932,3.932,0,0,0-3.622-4.288,4.072,4.072,0,0,0-4.22,3.684l-1.323,14.127a19.66,19.66,0,1,0,39.148,3.666l2.7-28.807a4.071,4.071,0,0,0-3.462-4.4Z" transform="translate(-252.886 -194.642)" fill="#fed2a4"/>
      </g>
      <g id="Grupo_1093992" data-name="Grupo 1093992" transform="translate(1.89 1.89)">
        <path id="Trazado_868896" data-name="Trazado 868896" d="M66.126,202.935v34.916a24.763,24.763,0,0,0,49.525,0V202.935Z" transform="translate(-51.348 -169.459)" fill="#fed2a4"/>
        <path id="Trazado_868897" data-name="Trazado 868897" d="M158.605,202.935v34.916a24.773,24.773,0,0,1-18.584,23.985,24.745,24.745,0,0,0,30.9-23.985V202.935Z" transform="translate(-106.617 -169.459)" fill="#ffbd86"/>
        <path id="Trazado_868898" data-name="Trazado 868898" d="M28.7,127.91h9.433v-9.433s28.162-.313,38.122-11.792c0,0,2.332,9,11.4,11.792v9.433h9.433V104.326a34.2,34.2,0,0,0-68.392,0V127.91Z" transform="translate(-23.358 -70.13)" fill="#528fd8"/>
        <path id="Trazado_868899" data-name="Trazado 868899" d="M150.434,70.13a33.97,33.97,0,0,0-4.695.328A34.2,34.2,0,0,1,175.2,104.326V127.91h9.433V104.326a34.2,34.2,0,0,0-34.2-34.2Z" transform="translate(-110.894 -70.13)" fill="#0573ce"/>
        <g id="Grupo_1093991" data-name="Grupo 1093991" transform="translate(0 48.346)">
          <path id="Trazado_868900" data-name="Trazado 868900" d="M268.146,280.4H262.6V261.93h5.542a9.236,9.236,0,1,1,0,18.472Z" transform="translate(-198.301 -261.93)" fill="#f6a96c"/>
          <path id="Trazado_868901" data-name="Trazado 868901" d="M16.736,280.4h5.542V261.93H16.736a9.236,9.236,0,1,0,0,18.472Z" transform="translate(-7.5 -261.93)" fill="#f6a96c"/>
        </g>
      </g>
      <g id="Grupo_1093993" data-name="Grupo 1093993" transform="translate(0 0)">
        <path id="Trazado_868902" data-name="Trazado 868902" d="M102.427,105.307a5.828,5.828,0,0,0-2.215.173,5.989,5.989,0,0,0-5.156-5.8,5.8,5.8,0,0,0-2.215.173,5.985,5.985,0,0,0-5.158-5.8,5.818,5.818,0,0,0-6.375,4.713,5.815,5.815,0,0,0-2.127-.576,5.552,5.552,0,0,0-1.669.128,36.1,36.1,0,0,0-50.943-32.5,1.891,1.891,0,0,0,1.559,3.445A32.323,32.323,0,0,1,73.737,98.716V111.16a11.123,11.123,0,0,0-2-.184H66.5c-7.7-2.515-9.795-10.058-9.879-10.375a1.891,1.891,0,0,0-3.258-.765c-9.285,10.7-36.442,11.137-36.716,11.14h-5.52a11.147,11.147,0,0,0-2,.184V98.716A32.192,32.192,0,0,1,21.051,73.65a1.891,1.891,0,0,0-2.387-2.933,35.96,35.96,0,0,0-13.321,28V112.6a11.124,11.124,0,0,0,5.783,20.629h3.657A26.6,26.6,0,0,0,18.5,146.505a1.89,1.89,0,1,0,3.25-1.932,22.829,22.829,0,0,1-3.193-11.66V114.7c6.137-.271,25.561-1.792,35.511-10.267A19.241,19.241,0,0,0,64.3,114.207v18.707a22.9,22.9,0,0,1-22.872,22.87,22.605,22.605,0,0,1-14.347-5.06,1.891,1.891,0,0,0-2.375,2.942,26.641,26.641,0,0,0,39.055-6.221A21.456,21.456,0,0,0,81.4,160.02c.672.062,1.356.094,2.032.094a21.551,21.551,0,0,0,21.432-19.542l.449-4.782a1.89,1.89,0,0,0-3.764-.353l-.449,4.782a17.771,17.771,0,0,1-17.668,16.114c-.561,0-1.127-.026-1.681-.077a17.693,17.693,0,0,1-15.588-13.406,26.5,26.5,0,0,0,1.918-9.62h2.583a1.881,1.881,0,0,0,.341.345l4.659,3.624a7.326,7.326,0,0,1,2.812,6.5l-.225,2.386a1.89,1.89,0,0,0,1.7,2.059c.06.006.12.009.179.009a1.891,1.891,0,0,0,1.88-1.714l.225-2.387a11.09,11.09,0,0,0-4.256-9.839l-2.233-1.737a11.146,11.146,0,0,0,7.1-9.865L85,99.645a2.035,2.035,0,0,1,2.262-1.834,2.172,2.172,0,0,1,1.79,2.346L86.913,123a1.891,1.891,0,0,0,1.706,2.059c.06.005.119.008.178.008a1.891,1.891,0,0,0,1.88-1.715l1.692-18.068s0-.01,0-.014v0a2.042,2.042,0,0,1,2.262-1.836,2.2,2.2,0,0,1,1.79,2.351l-1.681,17.951a1.891,1.891,0,0,0,1.706,2.059c.06.005.119.008.178.008a1.891,1.891,0,0,0,1.88-1.715s1.235-13.193,1.235-13.2A2.04,2.04,0,0,1,102,109.064a2.175,2.175,0,0,1,1.792,2.346l-1.429,15.243a1.89,1.89,0,0,0,1.706,2.059c.06.006.12.009.179.009a1.891,1.891,0,0,0,1.88-1.714l1.429-15.244a5.993,5.993,0,0,0-5.135-6.454ZM14.778,129.448H11.127a7.346,7.346,0,0,1,0-14.691h3.651Zm62.74-27.014a1.973,1.973,0,0,1,1.377-.472,2.045,2.045,0,0,1,1.883,2.216l-.964,10.286a11.207,11.207,0,0,0-2.3-1.864Zm-5.783,27.014H68.084V114.757h3.651a7.346,7.346,0,1,1,0,14.691Z" transform="translate(0 -62.63)"/>
        <path id="Trazado_868903" data-name="Trazado 868903" d="M423.127,150.674a1.89,1.89,0,0,0,0,3.781,17.226,17.226,0,0,1,17.207,17.207,1.89,1.89,0,1,0,3.781,0,21.011,21.011,0,0,0-20.988-20.988Z" transform="translate(-315.057 -128.481)"/>
        <path id="Trazado_868904" data-name="Trazado 868904" d="M423.127,180.979a1.891,1.891,0,0,0,0,3.781,9.579,9.579,0,0,1,9.568,9.568,1.891,1.891,0,1,0,3.781,0A13.364,13.364,0,0,0,423.127,180.979Z" transform="translate(-315.057 -151.147)"/>
        <path id="Trazado_868905" data-name="Trazado 868905" d="M423.127,211.283a1.89,1.89,0,0,0,0,3.781,1.931,1.931,0,0,1,1.929,1.929,1.891,1.891,0,1,0,3.781,0A5.716,5.716,0,0,0,423.127,211.283Z" transform="translate(-315.057 -173.813)"/>
      </g>
    </g>
  </g>
</svg>
