<svg xmlns="http://www.w3.org/2000/svg" width="42.48" height="78.861" viewBox="0 0 42.48 78.861">
  <path id="_25" data-name="25" d="M453.327,2.269a1.134,1.134,0,0,1,1.157-1.262h19.558c13.669,0,21.45,10.2,21.45,18.927,0,6.309-.105,15.982-10.725,19.242v.21c6.625,2.419,11.041,9.463,11.041,17.665,0,5.363-.1,22.817-21.871,22.817H454.379a1.022,1.022,0,0,1-1.052-1.157Zm18.822,28.39a.719.719,0,0,0,.736.736,2.916,2.916,0,0,0,3.049-3.049V19.3a2.9,2.9,0,0,0-3.049-2.734c-.421,0-.736.21-.736.631Zm0,32.7a.664.664,0,0,0,.736.736,3.074,3.074,0,0,0,3.154-3.049V50.006a3,3,0,0,0-3.26-2.839c-.421,0-.631.315-.631.841Z" transform="translate(-453.327 -1.007)" fill="#ffb000"/>
</svg>
