<svg id="_26" data-name="26" xmlns="http://www.w3.org/2000/svg" xmlns:xlink="http://www.w3.org/1999/xlink" width="122.843" height="121.739" viewBox="0 0 122.843 121.739">
  <defs>
    <clipPath id="clip-path">
      <path id="doctor-hombre-adulto-pie-derecho-oficina-hospital" d="M31.767-19.778c15.842,0,29.365,17.692,42.056,33.67,8.9,11.2,17.006,20.761,17.006,32.139,0,11.024-3.113,17.22-6.083,23.081-4.106,8.109-9.782,13.922-20.662,21.211C45.8,102.574,28.592,86.78,14.578,80.268,3.56,75.148-9.573,72.71-18.519,67.285c-3.311-2.008-14.057-8.5-11.311-21.07C-27.307,34.7-10.787,21.79-4.778,14.421,7.252-.331,17.449-19.778,31.767-19.778Z" transform="translate(30.274 19.778)" fill="#3c1c74"/>
    </clipPath>
  </defs>
  <g id="Grupo_1072178" data-name="Grupo 1072178" transform="translate(0)">
    <path id="doctor-hombre-adulto-pie-derecho-oficina-hospital-2" data-name="doctor-hombre-adulto-pie-derecho-oficina-hospital" d="M31.767-19.778c15.842,0,29.365,17.692,42.056,33.67,8.9,11.2,17.006,20.761,17.006,32.139,0,11.024-3.113,17.22-6.083,23.081-4.106,8.109-9.782,13.922-20.662,21.211C45.8,102.574,28.592,86.78,14.578,80.268,3.56,75.148-9.573,72.71-18.519,67.285c-3.311-2.008-14.057-8.5-11.311-21.07C-27.307,34.7-10.787,21.79-4.778,14.421,7.252-.331,17.449-19.778,31.767-19.778Z" transform="translate(32.014 21.795)" fill="#3c1c74"/>
    <g id="Elipse_4857" data-name="Elipse 4857" transform="translate(0)" fill="none" stroke="#3c1c74" stroke-width="1">
      <ellipse cx="11.273" cy="10.736" rx="11.273" ry="10.736" stroke="none"/>
      <ellipse cx="11.273" cy="10.736" rx="10.773" ry="10.236" fill="none"/>
    </g>
    <ellipse id="Elipse_4858" data-name="Elipse 4858" cx="5.368" cy="4.831" rx="5.368" ry="4.831" transform="translate(109.512 8.589)" fill="#3c1c74"/>
    <path id="Trazado_115346" data-name="Trazado 115346" d="M7.936,0c4.383,0,7.936,3.179,7.936,7.1,0,2.1-.505,3.936-2.342,5.038-1.186.72-3.556.842-5.594.842C3.553,12.98,0,11.022,0,7.1S3.553,0,7.936,0Z" transform="translate(22.854 108.759)" fill="#3c1c74"/>
  </g>
  <g id="salud-publica_1_" data-name="salud-publica (1)" transform="translate(12.708 13.108)">
    <path id="Trazado_868884" data-name="Trazado 868884" d="M214.694,192.562a9.078,9.078,0,0,0-5.861-8.011,6.172,6.172,0,0,0-6.823,1.942h0l-2.028,2.306a1.523,1.523,0,0,1-2.286,0l-2.028-2.306a6.29,6.29,0,0,0-4.765-2.286,6.494,6.494,0,0,0-2.058.345,9.079,9.079,0,0,0-5.861,8.011c-.523,6.717,5.245,13.772,15.855,19.431,10.61-5.658,16.379-12.713,15.855-19.431Z" transform="translate(-144.898 -147.879)" fill="#e94444"/>
    <path id="Trazado_868885" data-name="Trazado 868885" d="M115.881,35.8V69.535a1.517,1.517,0,0,1-.081.489,200.4,200.4,0,0,1-18.562,39.3l1.317,10.024a1.523,1.523,0,1,1-3.019.4l-1.387-10.555a1.523,1.523,0,0,1,.21-.991,197.841,197.841,0,0,0,18.477-38.918V35.8a.169.169,0,0,0-.167-.167,5.977,5.977,0,0,0-5.823,5.906l-1.307,22.727a1.521,1.521,0,0,1-.291.812L94.505,79.758,92.183,90.39a1.523,1.523,0,0,1-2.975-.649L94.067,67.49c.422-1.943-.264-3.588-1.748-4.189s-3.639-.2-4.9,2.893L76.779,92.311c-1.495,3.666-1.982,7.383-1.63,12.427l1.036,14.7a1.523,1.523,0,1,1-3.038.214l-1.036-14.7c-.387-5.54.166-9.664,1.848-13.789L84.6,65.045c1.96-4.816,5.969-5.743,8.864-4.566s4.32,4.246,3.578,7.659l-.932,4.27,6.415-8.768,1.281-22.277a8.983,8.983,0,0,1,8.863-8.778,3.216,3.216,0,0,1,3.212,3.212Zm-76.6,29.248c-1.96-4.816-5.969-5.743-8.862-4.567S26.1,64.725,26.839,68.14l.932,4.269-6.415-8.768L20.075,41.365a8.984,8.984,0,0,0-8.863-8.779A3.216,3.216,0,0,0,8,35.8V69.535a1.521,1.521,0,0,0,.081.489,200.08,200.08,0,0,0,18.562,39.3L25.325,119.35a1.523,1.523,0,1,0,3.019.4l1.387-10.555a1.523,1.523,0,0,0-.21-.991A197.518,197.518,0,0,1,11.045,69.283V35.8a.169.169,0,0,1,.167-.167,5.977,5.977,0,0,1,5.823,5.908l1.307,22.726a1.521,1.521,0,0,0,.291.812L29.376,79.758,31.7,90.39a1.523,1.523,0,0,0,2.975-.649L29.815,67.491c-.423-1.944.263-3.589,1.749-4.191s3.638-.2,4.9,2.894L47.1,92.311c1.494,3.666,1.982,7.382,1.63,12.426l-1.036,14.7a1.523,1.523,0,0,0,3.038.214L51.77,104.95c.387-5.539-.166-9.663-1.847-13.788L39.281,65.046ZM62.64,84.371a1.522,1.522,0,0,1-1.4,0C54.685,80.98,49.8,77.13,46.711,72.927a16.96,16.96,0,0,1-3.662-11.3,12.863,12.863,0,0,1,.84-3.669H28.629a1.523,1.523,0,0,1-1.523-1.523v-13.1a8.633,8.633,0,0,1,8.4-8.37,12.3,12.3,0,0,1-2.266-7.265,8.126,8.126,0,1,1,16.251,0,12.3,12.3,0,0,1-2.267,7.267,9.383,9.383,0,0,1,3.057.691,9.778,9.778,0,0,1,5.585-1.944A13.021,13.021,0,0,1,53.321,25.8a8.619,8.619,0,0,1,17.238,0,13.021,13.021,0,0,1-2.546,7.918A9.779,9.779,0,0,1,73.6,35.668a9.319,9.319,0,0,1,3.055-.692,12.3,12.3,0,0,1-2.267-7.267,8.126,8.126,0,1,1,16.251,0,12.3,12.3,0,0,1-2.266,7.265,8.633,8.633,0,0,1,8.4,8.37v13.1a1.523,1.523,0,0,1-1.523,1.523H79.991a12.864,12.864,0,0,1,.84,3.669,16.96,16.96,0,0,1-3.662,11.3c-3.085,4.2-7.974,8.053-14.53,11.444ZM87.866,38h-10.7a6.313,6.313,0,0,0-1.293.136,8.438,8.438,0,0,1,1.286,4.47V53.618a12.1,12.1,0,0,1,1.137,1.3h8.556V46.606a1.523,1.523,0,1,1,3.045,0v8.311h3.835V43.344A5.626,5.626,0,0,0,87.866,38Zm-10.432-10.3c0,3.011,1.576,7.251,5.08,7.251s5.081-4.24,5.081-7.251a5.081,5.081,0,1,0-10.161,0ZM56.367,25.8c0,3.285,1.729,7.911,5.574,7.911s5.574-4.626,5.574-7.911a5.574,5.574,0,0,0-11.147,0Zm-6.6,16.807V51.46a10.5,10.5,0,0,1,1.213-.491,9.736,9.736,0,0,1,2.036-.447v-6.6a1.523,1.523,0,1,1,3.045,0v6.79a9.6,9.6,0,0,1,4.991,3.08l.885,1.006.885-1.006a9.6,9.6,0,0,1,4.991-3.08v-6.79a1.523,1.523,0,1,1,3.045,0v6.6a9.74,9.74,0,0,1,2.036.447,10.5,10.5,0,0,1,1.213.491V42.61a6.162,6.162,0,0,0-6.419-5.851h-11.5a6.162,6.162,0,0,0-6.418,5.851Zm-13.484-14.9c0,3.011,1.576,7.251,5.081,7.251s5.081-4.24,5.081-7.251a5.081,5.081,0,1,0-10.161,0Zm9.3,27.208a12.121,12.121,0,0,1,1.137-1.3V42.611a8.439,8.439,0,0,1,1.287-4.47A6.34,6.34,0,0,0,46.718,38h-10.7a5.626,5.626,0,0,0-5.863,5.339V54.917h3.835V46.606a1.523,1.523,0,1,1,3.045,0v8.311h8.556ZM77.8,61.868a9.078,9.078,0,0,0-5.861-8.011A6.172,6.172,0,0,0,65.112,55.8h0L63.084,58.1a1.523,1.523,0,0,1-2.286,0L58.769,55.8A6.29,6.29,0,0,0,54,53.513a6.494,6.494,0,0,0-2.058.345,9.079,9.079,0,0,0-5.861,8.011C45.561,68.585,51.33,75.641,61.94,81.3,72.55,75.641,78.319,68.585,77.8,61.868Zm-7.409,3.141V70a1.523,1.523,0,0,1-1.523,1.523h-2.91v2.9a1.523,1.523,0,0,1-1.523,1.523H59.45a1.523,1.523,0,0,1-1.523-1.523v-2.9h-2.91A1.523,1.523,0,0,1,53.494,70V65.009a1.523,1.523,0,0,1,1.523-1.523h2.91v-2.9A1.523,1.523,0,0,1,59.45,59.06h4.981a1.523,1.523,0,0,1,1.523,1.523v2.9h2.91A1.523,1.523,0,0,1,70.387,65.009Zm-3.045,1.523h-2.91a1.523,1.523,0,0,1-1.523-1.523v-2.9H60.972v2.9a1.523,1.523,0,0,1-1.523,1.523h-2.91v1.943h2.91A1.523,1.523,0,0,1,60.972,70v2.9h1.936V70a1.523,1.523,0,0,1,1.523-1.523h2.91Z" transform="translate(-8 -17.185)"/>
    <path id="Trazado_868886" data-name="Trazado 868886" d="M237.537,226.616v-2.9H235.6v2.9a1.522,1.522,0,0,1-1.523,1.522h-2.91v1.943h2.91A1.523,1.523,0,0,1,235.6,231.6v2.9h1.936v-2.9a1.523,1.523,0,0,1,1.523-1.523h2.91v-1.943h-2.91A1.522,1.522,0,0,1,237.537,226.616Z" transform="translate(-182.628 -178.792)" fill="#ebebeb"/>
    <path id="Trazado_868887" data-name="Trazado 868887" d="M126.419,117.513a8.439,8.439,0,0,1,1.287-4.47,6.34,6.34,0,0,0-1.293-.136h-10.7a5.626,5.626,0,0,0-5.863,5.339v11.573h3.835v-8.311a1.523,1.523,0,1,1,3.045,0v8.311h8.556a12.118,12.118,0,0,1,1.137-1.3V117.513Z" transform="translate(-87.694 -92.087)" fill="#fec165"/>
    <path id="Trazado_868888" data-name="Trazado 868888" d="M143.131,54.543c3.5,0,5.081-4.24,5.081-7.251a5.081,5.081,0,1,0-10.161,0C138.05,50.3,139.626,54.543,143.131,54.543Z" transform="translate(-109.764 -36.768)" fill="#fdd7ad"/>
    <path id="Trazado_868889" data-name="Trazado 868889" d="M203.291,120.942v-6.6a1.523,1.523,0,1,1,3.045,0v6.79a9.6,9.6,0,0,1,4.991,3.08l.885,1.006.885-1.006a9.6,9.6,0,0,1,4.991-3.08v-6.79a1.523,1.523,0,1,1,3.045,0v6.6a9.74,9.74,0,0,1,2.036.447,10.5,10.5,0,0,1,1.213.491v-8.849a6.162,6.162,0,0,0-6.419-5.851h-11.5a6.162,6.162,0,0,0-6.419,5.851v8.849a10.5,10.5,0,0,1,1.213-.491,9.737,9.737,0,0,1,2.036-.447Z" transform="translate(-158.272 -87.606)" fill="#0473ce"/>
    <path id="Trazado_868890" data-name="Trazado 868890" d="M332.313,54.543c3.5,0,5.081-4.24,5.081-7.251a5.081,5.081,0,1,0-10.161,0C327.233,50.3,328.809,54.543,332.313,54.543Z" transform="translate(-257.799 -36.768)" fill="#fdd7ad"/>
    <path id="Trazado_868891" data-name="Trazado 868891" d="M235.948,44.669c3.845,0,5.574-4.626,5.574-7.911a5.574,5.574,0,1,0-11.147,0C230.374,40.043,232.1,44.669,235.948,44.669Z" transform="translate(-182.007 -28.14)" fill="#fdd7ad"/>
    <path id="Trazado_868892" data-name="Trazado 868892" d="M332.039,112.907h-10.7a6.313,6.313,0,0,0-1.293.136,8.438,8.438,0,0,1,1.286,4.47V128.52a12.1,12.1,0,0,1,1.137,1.3h8.556v-8.311a1.523,1.523,0,1,1,3.045,0v8.311H337.9V118.246a5.626,5.626,0,0,0-5.863-5.339Z" transform="translate(-252.173 -92.087)" fill="#22b27f"/>
    <g id="Grupo_1093989" data-name="Grupo 1093989" transform="translate(3.045 18.446)">
      <path id="Trazado_868893" data-name="Trazado 868893" d="M60.063,187.428a1.523,1.523,0,0,1-1.412-1.626l1.036-14.7c.352-5.043-.135-8.76-1.63-12.426L47.416,132.555c-1.259-3.094-3.425-3.492-4.9-2.894s-2.172,2.247-1.749,4.191L45.628,156.1a1.523,1.523,0,1,1-2.975.649l-2.322-10.633L29.588,131.437a1.521,1.521,0,0,1-.291-.812L27.99,107.9a5.977,5.977,0,0,0-5.823-5.908.169.169,0,0,0-.167.167v33.485a197.518,197.518,0,0,0,18.477,38.917,1.523,1.523,0,0,1,.21.991L39.3,186.108a1.523,1.523,0,0,1-1.508,1.324H60.063Z" transform="translate(-22 -101.992)" fill="#fdd7ad"/>
      <path id="Trazado_868894" data-name="Trazado 868894" d="M335.763,186.109l-1.387-10.555a1.523,1.523,0,0,1,.21-.991,197.842,197.842,0,0,0,18.477-38.918V102.16a.169.169,0,0,0-.167-.167,5.977,5.977,0,0,0-5.823,5.906l-1.307,22.727a1.522,1.522,0,0,1-.291.812L334.731,146.12l-2.322,10.633a1.523,1.523,0,0,1-2.975-.649l4.858-22.251c.422-1.943-.264-3.588-1.748-4.189s-3.639-.2-4.9,2.893L317,158.673c-1.495,3.666-1.982,7.383-1.63,12.427l1.036,14.7A1.523,1.523,0,0,1,315,187.429v0H337.27A1.523,1.523,0,0,1,335.763,186.109Z" transform="translate(-251.271 -101.993)" fill="#fdd7ad"/>
    </g>
  </g>
</svg>
