<svg xmlns="http://www.w3.org/2000/svg" width="45.845" height="83.698" viewBox="0 0 45.845 83.698">
  <path id="_28" data-name="28" d="M956.339,55.2c0,7.466-2.313,12.618-4.732,15.247a.546.546,0,0,0-.21.421c0,1.367,7.15,5.152,7.15,5.468,0,.946-3.785,5.152-8.937,6.94a9.831,9.831,0,0,1-2.313.42c-2.734,0-5.363-1.787-7.15-4.837,0-.1-.21-.21-.315-.21-1.577,0-3.891.736-5.363.736C922.9,79.387,912.7,71.5,912.7,55.2V24.079C912.7,7.781,922.8,0,934.468,0s21.871,7.781,21.871,24.079Zm-23.658-.21c0,1.577.421,2.734,1.682,2.734,1.157,0,1.682-1.156,1.682-2.839V24.394c0-1.367-.526-2.734-1.682-2.734-1.051,0-1.682,1.262-1.682,2.734Z" transform="translate(-912.702)" fill="#853c89"/>
</svg>
