<svg xmlns="http://www.w3.org/2000/svg" xmlns:xlink="http://www.w3.org/1999/xlink" width="103" height="103" viewBox="0 0 103 103">
  <defs>
    <filter id="Trazado_842289" x="0" y="0" width="103" height="103" filterUnits="userSpaceOnUse">
      <feOffset dy="3" input="SourceAlpha"/>
      <feGaussianBlur stdDeviation="3" result="blur"/>
      <feFlood flood-opacity="0.161"/>
      <feComposite operator="in" in2="blur"/>
      <feComposite in="SourceGraphic"/>
    </filter>
  </defs>
  <g id="_35" data-name="35" transform="translate(-275.5 -20433.543)">
    <g transform="matrix(1, 0, 0, 1, 275.5, 20433.54)" filter="url(#Trazado_842289)">
      <path id="Trazado_842289-2" data-name="Trazado 842289" d="M42.5,0A42.5,42.5,0,1,1,0,42.5,42.5,42.5,0,0,1,42.5,0Z" transform="translate(9 6)" fill="#3c1c74"/>
    </g>
    <g id="magia" transform="translate(301.918 20456.961)">
      <path id="Trazado_842082" data-name="Trazado 842082" d="M66.11,358.624v6.359H46.429a1.943,1.943,0,0,1-1.942,1.944h-2.7a1.943,1.943,0,0,1-1.942-1.944H20.16v-6.359c6.687-.66,20.035-6.872,22.975-2.281C46.075,351.753,59.424,357.964,66.11,358.624Z" transform="translate(-18.053 -317.6)" fill="#ffebd2"/>
      <path id="Trazado_842083" data-name="Trazado 842083" d="M257.857,356.253c-2.306-.488-5.625-1.038-7.608.085-1.644.931-2.2-.487-4.739-.637C248,353.56,254.4,355.326,257.857,356.253Z" transform="translate(-219.852 -317.618)" fill="#fff3e4"/>
      <path id="Trazado_842084" data-name="Trazado 842084" d="M42.552,355.669c-5.354.216-13.461,3.58-18.211,4.063v5.244H20.16v-6.359C26.468,357.994,38.755,352.415,42.552,355.669Z" transform="translate(-18.053 -317.593)" fill="#fff3e4"/>
      <path id="Trazado_842085" data-name="Trazado 842085" d="M86.493,20c.8,18.567-33.381,7.855-30.857,23.364a3.679,3.679,0,0,0-2.593-2.333,4.135,4.135,0,0,1-2.033-6.694c4.584-5.147,18.267-4.98,18.021-12.774-.271-8.582-23.98,5.918-26.321-6.079-.695-3.562,2.864-6.625,6.8-7.483a3.427,3.427,0,0,0-1.667,3.161C49.47,18.112,85.449-4.294,86.493,20Z" transform="translate(-38.169 -7.165)" fill="#f7df3f"/>
      <g id="Grupo_1077094" data-name="Grupo 1077094" transform="translate(4.454 0.836)">
        <path id="Trazado_842086" data-name="Trazado 842086" d="M135.975,151.393c-2.132,5.649-13.568,5.989-17.68,10.607a4.049,4.049,0,0,0-.312,4.986,4.877,4.877,0,0,1,.757,1.95,3.679,3.679,0,0,0-2.593-2.333,4.135,4.135,0,0,1-2.033-6.694c4.039-4.535,15.142-4.944,17.557-10.309A2.332,2.332,0,0,1,135.975,151.393Z" transform="translate(-105.727 -133.574)" fill="#d6bc09"/>
        <path id="Trazado_842087" data-name="Trazado 842087" d="M163.062,14.018c-10.956-2.783-29.718,7.28-30.884,2.306a1.882,1.882,0,0,1,0-.787C139.844,14.616,155.881,7.806,163.062,14.018Z" transform="translate(-122.783 -11.073)" fill="#d6bc09"/>
        <path id="Trazado_842088" data-name="Trazado 842088" d="M49.032,12.37a5.5,5.5,0,0,0-2.14,5.2,6.113,6.113,0,0,0,1.229,2.77c-2.729-.4-4.8-1.726-5.409-4.861-.695-3.562,2.864-6.625,6.8-7.483C47.8,9.1,46.934,11.683,49.032,12.37Z" transform="translate(-42.624 -8.001)" fill="#d6bc09"/>
      </g>
      <path id="Trazado_842089" data-name="Trazado 842089" d="M374.352,171.861a11.252,11.252,0,0,0,4.473,4.473,11.25,11.25,0,0,0-4.473,4.472,11.254,11.254,0,0,0-4.472-4.472A11.257,11.257,0,0,0,374.352,171.861Z" transform="translate(-331.225 -153.901)" fill="#fff0a6"/>
      <path id="Trazado_842090" data-name="Trazado 842090" d="M156.013,78.9a11.254,11.254,0,0,0,4.472,4.472,11.25,11.25,0,0,0-4.472,4.473,11.246,11.246,0,0,0-4.473-4.473A11.25,11.25,0,0,0,156.013,78.9Z" transform="translate(-135.703 -70.656)" fill="#fff0a6"/>
      <g id="Grupo_1077095" data-name="Grupo 1077095" transform="translate(0 0)">
        <path id="Trazado_842091" data-name="Trazado 842091" d="M47.1,13.849a10.393,10.393,0,0,1,3.473,3.742.837.837,0,0,0,1.467,0,10.4,10.4,0,0,1,4.14-4.14.837.837,0,0,0,0-1.467,10.4,10.4,0,0,1-4.14-4.14.837.837,0,0,0-1.467,0,10.4,10.4,0,0,1-4.14,4.14.832.832,0,0,0-.313.3c-6.2.7-9.057-.521-9.761-4.126-.47-2.411,1.434-4.455,3.614-5.589A2.531,2.531,0,0,0,40.947,5.7c4.74,2.893,25.235-8.043,33.8-1.642,4.142,3.1,5.173,11.6,1.571,15.536a10.415,10.415,0,0,1-1.459-2.039.837.837,0,0,0-1.467,0,10.4,10.4,0,0,1-4.14,4.14.837.837,0,0,0,0,1.467,10.4,10.4,0,0,1,4.14,4.14.837.837,0,0,0,1.467,0A10.4,10.4,0,0,1,79,23.166.837.837,0,0,0,79,21.7a10.431,10.431,0,0,1-1.454-.963c4.327-4.7,3.087-14.365-1.8-18.014-9.239-6.9-30.2,3.83-33.929,1.555a.691.691,0,0,1-.338-.471,2.687,2.687,0,0,1,1.309-2.269A.836.836,0,0,0,42.156.019c-4.285.935-8.239,4.355-7.438,8.46,1.129,5.786,6.589,6.142,12.382,5.37Zm4.207-4.027A12.051,12.051,0,0,0,54.2,12.717a12.054,12.054,0,0,0-2.895,2.895,12.054,12.054,0,0,0-2.895-2.895A12.051,12.051,0,0,0,51.306,9.822ZM74.124,25.328a12.054,12.054,0,0,0-2.895-2.895,12.054,12.054,0,0,0,2.895-2.895,12.156,12.156,0,0,0,2.895,2.895A12.054,12.054,0,0,0,74.124,25.328Z" transform="translate(-30.996 0)"/>
        <path id="Trazado_842092" data-name="Trazado 842092" d="M270.382,264.721a.836.836,0,0,0,.836-.836v-.742h.742a.836.836,0,1,0,0-1.672h-.742v-.742a.836.836,0,1,0-1.672,0v.742H268.8a.836.836,0,1,0,0,1.672h.742v.742A.836.836,0,0,0,270.382,264.721Z" transform="translate(-239.963 -232.732)" fill="#f7df3f"/>
        <path id="Trazado_842093" data-name="Trazado 842093" d="M430.524,289.417v-.742a.836.836,0,0,0-1.672,0v.742h-.742a.836.836,0,0,0,0,1.672h.742v.742a.836.836,0,1,0,1.672,0v-.742h.742a.836.836,0,0,0,0-1.672Z" transform="translate(-382.621 -257.758)" fill="#f7df3f"/>
        <path id="Trazado_842094" data-name="Trazado 842094" d="M345.22,56.721a.836.836,0,0,0,.836-.836v-.742h.742a.836.836,0,1,0,0-1.672h-.742v-.742a.836.836,0,1,0-1.672,0v.742h-.742a.836.836,0,1,0,0,1.672h.742v.742A.836.836,0,0,0,345.22,56.721Z" transform="translate(-306.98 -46.47)"/>
        <path id="Trazado_842095" data-name="Trazado 842095" d="M72.768,163.56a.836.836,0,0,0,.836-.836v-.742h.742a.836.836,0,1,0,0-1.672H73.6v-.742a.836.836,0,0,0-1.672,0v.742H71.19a.836.836,0,1,0,0,1.672h.742v.742A.836.836,0,0,0,72.768,163.56Z" transform="translate(-63.001 -142.143)" fill="#f7df3f"/>
        <path id="Trazado_842096" data-name="Trazado 842096" d="M13,243.864h.742v.742a.836.836,0,0,0,1.672,0v-.742h.742a.836.836,0,0,0,0-1.672h-.742v-.742a.836.836,0,0,0-1.672,0v.742H13a.836.836,0,0,0,0,1.672Z" transform="translate(-10.89 -215.468)" fill="#f7df3f"/>
        <path id="Trazado_842097" data-name="Trazado 842097" d="M49.328,146.754h-.435v-5.523a.836.836,0,0,0-.754-.832c-4.413-.436-12-3.423-17.429-3.9a.836.836,0,0,0-.146,1.666c4.964.435,12.016,3.138,16.657,3.8v4.783H28.376a.836.836,0,0,0-.836.836,1.108,1.108,0,0,1-1.106,1.108h-2.7a1.108,1.108,0,0,1-1.106-1.108.836.836,0,0,0-.836-.836H2.943v-4.783c6.379-.917,18.607-6.1,21.3-2.752V141.3c-3.261-1.68-9.666.193-13.379,1.21a.836.836,0,0,0,.442,1.613c4.432-1.214,11.072-3.032,12.937-.719v2.441a.836.836,0,0,0,1.672,0V143.4c1.864-2.313,8.505-.5,12.937.719a.836.836,0,0,0,.442-1.613c-3.906-1.07-10.16-2.869-13.378-1.21,0-2.494,0-2.36,0-2.421a.841.841,0,0,0-.144-.4c-1.316-2.022-4.068-2.313-7.414-1.853-1.568-7.988,7.241-8.449,16.505-10.429a.836.836,0,1,0-.349-1.635c-7.736,1.653-17.2,2.349-17.968,9.366a5.222,5.222,0,0,0-1.437-.655,3.3,3.3,0,0,1-1.642-5.335c4.4-4.939,18.5-4.794,18.233-13.356a3.579,3.579,0,0,0-.9-2.413.836.836,0,0,0-1.221,1.142,1.948,1.948,0,0,1,.452,1.323c.22,6.985-13.083,6.883-17.81,12.191a4.971,4.971,0,0,0,2.424,8.052,2.682,2.682,0,0,1,2.065,2.023c-4.988.959-10.972,3.134-14.682,3.5a.836.836,0,0,0-.754.832v5.523H.836a.836.836,0,1,0,0,1.672H21.08a2.783,2.783,0,0,0,2.65,1.944h2.7a2.783,2.783,0,0,0,2.65-1.944H49.328a.836.836,0,0,0,0-1.672Z" transform="translate(0 -100.206)"/>
      </g>
    </g>
  </g>
</svg>
