<svg xmlns="http://www.w3.org/2000/svg" xmlns:xlink="http://www.w3.org/1999/xlink" width="103" height="103" viewBox="0 0 103 103">
  <defs>
    <filter id="Elipse_4743" x="0" y="0" width="103" height="103" filterUnits="userSpaceOnUse">
      <feOffset dy="3" input="SourceAlpha"/>
      <feGaussianBlur stdDeviation="3" result="blur"/>
      <feFlood flood-opacity="0.161"/>
      <feComposite operator="in" in2="blur"/>
      <feComposite in="SourceGraphic"/>
    </filter>
  </defs>
  <g id="_36" data-name="36" transform="translate(-800.5 -20433.543)">
    <g transform="matrix(1, 0, 0, 1, 800.5, 20433.54)" filter="url(#Elipse_4743)">
      <circle id="Elipse_4743-2" data-name="Elipse 4743" cx="42.5" cy="42.5" r="42.5" transform="translate(9 6)" fill="#3c1c74"/>
    </g>
    <g id="presion" transform="translate(827.616 20458.658)">
      <g id="Grupo_1077166" data-name="Grupo 1077166" transform="translate(0.597 0.715)">
        <g id="Grupo_1077163" data-name="Grupo 1077163" transform="translate(6.946 2.034)">
          <path id="Trazado_842231" data-name="Trazado 842231" d="M82.126,65.92A81.12,81.12,0,0,1,79.186,45.69a16.827,16.827,0,0,1,15.44-16.827c.456-.037,1.173.083,1.639.083,9.321,0,15.707,8.629,15.679,17.94-.019,6.37-1.226,11.827-3.157,19.427L96.008,71.095,82.163,66.549Z" transform="translate(-79.186 -28.857)" fill="#796e79"/>
        </g>
        <g id="Grupo_1077164" data-name="Grupo 1077164" transform="translate(22.261 1.985)">
          <path id="Trazado_842232" data-name="Trazado 842232" d="M258.307,45.224a81.065,81.065,0,0,1-2.939,20.21l-.564.648-2.579.527a94.466,94.466,0,0,0,3.067-21.386A16.828,16.828,0,0,0,239.98,28.408q.744-.066,1.506-.067a16.823,16.823,0,0,1,16.821,16.883Z" transform="translate(-239.98 -28.341)" fill="#665e67"/>
        </g>
        <path id="Trazado_842233" data-name="Trazado 842233" d="M132.947,203.966H118.1a6.338,6.338,0,0,1-6.338-6.338v-.008a1.833,1.833,0,0,1,1.833-1.833h23.859a1.833,1.833,0,0,1,1.833,1.833v.008A6.338,6.338,0,0,1,132.947,203.966Z" transform="translate(-101.712 -177.852)" fill="#ffc2ab"/>
        <g id="Grupo_1077165" data-name="Grupo 1077165" transform="translate(3.645 30.942)">
          <path id="Trazado_842234" data-name="Trazado 842234" d="M219.581,337.149c-2.525,2.991-5.821,3.287-8.581.021a2.806,2.806,0,0,0,1.481-1.915l.568-2.915,4.519.189.572,2.726A2.8,2.8,0,0,0,219.581,337.149Z" transform="translate(-195.144 -332.341)" fill="#ffc2ab"/>
          <path id="Trazado_842235" data-name="Trazado 842235" d="M85.484,391.81l-5.989,2.6H44.53l.451-2.01,4.46-2.579s2.587-2.557,2.959-4.165l7.651-2.673a2.72,2.72,0,0,0,.334-.142h0c2.909,2.306,5.771,2.379,8.581-.021.119.063,3.213,2,3.343,2.05l4.683.786a37.511,37.511,0,0,0,2.959,4.165Z" transform="translate(-44.53 -378.013)" fill="#f7df3f"/>
        </g>
        <path id="Trazado_842236" data-name="Trazado 842236" d="M152.127,135.984h.124a9.675,9.675,0,0,0,9.229-6.559,29.15,29.15,0,0,0,1.666-9.047.286.286,0,0,0-.282-.29l-2.268-.037c-6.3,0-12.3-2.385-13.2-5.814-.077-.291-.16-.284-.241.008-.421,1.509-1.849,2.758-3.442,3.725a5.11,5.11,0,0,0-2.45,4.785,23.266,23.266,0,0,0,2.244,7.625A9.634,9.634,0,0,0,152.127,135.984Z" transform="translate(-128.384 -103.877)" fill="#ffd9c4"/>
        <path id="Trazado_842237" data-name="Trazado 842237" d="M316.566,391.247l-.787,2.6h-5.2a5.575,5.575,0,0,1-3.4-2.409,77.042,77.042,0,0,0-7.128-9.181c.382-.234-.38.324,0,0,.3.17,2.913,1.037,3.267,1.173l4.759,1.662a37.494,37.494,0,0,0,2.959,4.165Z" transform="translate(-271.968 -346.508)" fill="#dac013"/>
        <path id="Trazado_842238" data-name="Trazado 842238" d="M343.474,379.666l-.994-1.014a1.894,1.894,0,0,0-.954-.526l-2.657-.571a3.427,3.427,0,0,1-2.158-1.488,24.637,24.637,0,0,0-3.28-4.053l-2.507-2.5a1.275,1.275,0,0,1,1.8-1.8l4.045,4.038a1.7,1.7,0,0,1,.277-2.626l3.4-2.2a2.473,2.473,0,0,1,3.091.326,13.586,13.586,0,0,1,3.021,4.581l.534,1.339a.286.286,0,0,1,.02.106A8.989,8.989,0,0,1,343.474,379.666Z" transform="translate(-299.662 -332.327)" fill="#d98556"/>
        <path id="Trazado_842239" data-name="Trazado 842239" d="M349.328,44.734l-1.722.166h-9.533a1.9,1.9,0,0,1-1.9-1.9V36.6a1.9,1.9,0,0,1,1.9-1.9h9.48l1.776.252a1.9,1.9,0,0,1,1.9,1.9v5.982A1.9,1.9,0,0,1,349.328,44.734Z" transform="translate(-304.747 -32.105)" fill="#a9f099"/>
        <path id="Trazado_842240" data-name="Trazado 842240" d="M456.209,36.593v6.4a1.9,1.9,0,0,1-1.9,1.9H451.95a1.9,1.9,0,0,0,1.9-1.9v-6.4a1.9,1.9,0,0,0-1.9-1.9h2.357A1.9,1.9,0,0,1,456.209,36.593Z" transform="translate(-409.498 -32.101)" fill="#8cdca3"/>
        <path id="Trazado_842241" data-name="Trazado 842241" d="M9.911,379.666l.994-1.014a1.894,1.894,0,0,1,.954-.526l2.657-.571a3.427,3.427,0,0,0,2.158-1.488,24.637,24.637,0,0,1,3.28-4.053l2.507-2.5a1.275,1.275,0,0,0-1.8-1.8l-4.045,4.038a1.7,1.7,0,0,0-.277-2.626l-3.4-2.2a2.473,2.473,0,0,0-3.091.326,13.586,13.586,0,0,0-3.021,4.581l-.534,1.339a.286.286,0,0,0-.02.106,8.114,8.114,0,0,0,3.645,6.393Z" transform="translate(-6.266 -332.327)" fill="#ffd9c4"/>
        <path id="Trazado_842242" data-name="Trazado 842242" d="M20.657,17.541l-1.722.166H9.4a1.9,1.9,0,0,1-1.9-1.9v-6.4A1.9,1.9,0,0,1,9.4,7.5h9.48l1.776.252a1.9,1.9,0,0,1,1.9,1.9v5.982A1.9,1.9,0,0,1,20.657,17.541Z" transform="translate(-7.382 -7.503)" fill="#f7df3f"/>
        <path id="Trazado_842243" data-name="Trazado 842243" d="M127.537,9.4v6.4a1.9,1.9,0,0,1-1.9,1.9h-2.357a1.9,1.9,0,0,0,1.9-1.9V9.4a1.9,1.9,0,0,0-1.9-1.9h2.357A1.9,1.9,0,0,1,127.537,9.4Z" transform="translate(-112.133 -7.498)" fill="#e3c80f"/>
      </g>
      <g id="Grupo_1077167" data-name="Grupo 1077167" transform="translate(0 0.001)">
        <path id="Trazado_842244" data-name="Trazado 842244" d="M280.973,190.486a.713.713,0,0,0-.733-.7,5.99,5.99,0,0,1-2.834-.572.714.714,0,0,0-.65,1.273,7.36,7.36,0,0,0,3.3.731c.075,0,.15,0,.225,0A.714.714,0,0,0,280.973,190.486Z" transform="translate(-250.042 -171.124)"/>
        <path id="Trazado_842245" data-name="Trazado 842245" d="M282.708,219.378a.714.714,0,1,0-.993-1.027,1.442,1.442,0,0,1-1.726,0,.714.714,0,0,0-.993,1.027,2.834,2.834,0,0,0,3.713,0Z" transform="translate(-252.224 -197.371)"/>
        <path id="Trazado_842246" data-name="Trazado 842246" d="M188.377,191.221a7.36,7.36,0,0,0,3.3-.731.714.714,0,0,0-.65-1.273,5.994,5.994,0,0,1-2.834.572.714.714,0,1,0-.038,1.428Q188.265,191.221,188.377,191.221Z" transform="translate(-169.602 -171.124)"/>
        <path id="Trazado_842247" data-name="Trazado 842247" d="M191.94,220.07a2.676,2.676,0,0,0,1.856-.693.714.714,0,1,0-.993-1.027,1.442,1.442,0,0,1-1.726,0,.714.714,0,1,0-.993,1.027A2.675,2.675,0,0,0,191.94,220.07Z" transform="translate(-171.781 -197.371)"/>
        <path id="Trazado_842248" data-name="Trazado 842248" d="M220.973,275.015a3.81,3.81,0,0,1,4.76,0,.714.714,0,0,0,.855-1.145,5.24,5.24,0,0,0-6.469,0,.714.714,0,0,0,.855,1.145Z" transform="translate(-198.892 -246.773)"/>
        <path id="Trazado_842249" data-name="Trazado 842249" d="M48.151,438.177a.714.714,0,0,0-1,.111,25.483,25.483,0,0,0-1.5,2.078,2.711,2.711,0,0,1-1.708,1.178l-2.658.572a2.6,2.6,0,0,0-1.313.723l-.994,1.014a.714.714,0,1,0,1.02,1l.995-1.015a1.174,1.174,0,0,1,.593-.326l2.657-.571a4.139,4.139,0,0,0,2.607-1.8,24.1,24.1,0,0,1,1.414-1.961A.714.714,0,0,0,48.151,438.177Z" transform="translate(-35.077 -396.298)"/>
        <path id="Trazado_842250" data-name="Trazado 842250" d="M48.718,41.342l-.555-1.39a14.218,14.218,0,0,0-3.18-4.822A3.2,3.2,0,0,0,41,34.71l-.965.625c.375-1.732.685-3.36.942-4.94a.714.714,0,1,0-1.41-.229c-.32,1.975-.727,4.03-1.242,6.275l-.725.469a2.4,2.4,0,0,0-.943,1.164l-2.486-2.482a2,2,0,0,0-2.814,0,1.974,1.974,0,0,0-.517.9l-1.548-.541a2.1,2.1,0,0,1-1.354-1.533l-.291-1.356a10.365,10.365,0,0,0,6.469-5.9,7.1,7.1,0,0,0,4.772-6.684,2.55,2.55,0,0,0-2.547-2.547h-.287c.014-.332.024-.664.026-1a.715.715,0,0,0-.7-.719l-2.554-.041h-.011a23.962,23.962,0,0,1-4.318-.388.714.714,0,0,0-.258,1.405A25.4,25.4,0,0,0,32.8,17.6l1.831.029a28.532,28.532,0,0,1-1.617,8.4,8.991,8.991,0,0,1-16.652.887,22.424,22.424,0,0,1-2.181-7.387,4.42,4.42,0,0,1,2.109-4.114,9.518,9.518,0,0,0,3.184-2.871,10.2,10.2,0,0,0,5.4,3.758.714.714,0,0,0,.48-1.346c-2.8-1-4.644-2.481-5.06-4.065-.169-.647-.576-.747-.8-.748h-.006c-.229,0-.632.1-.812.745-.314,1.126-1.366,2.238-3.125,3.306a5.883,5.883,0,0,0-2.673,3.737h-.4a2.552,2.552,0,0,0-2.547,2.556,7.049,7.049,0,0,0,5.012,6.752A10.4,10.4,0,0,0,21.186,33l-.305,1.422a2.1,2.1,0,0,1-1.354,1.533l-1.548.541a1.988,1.988,0,0,0-3.331-.9l-2.487,2.483a2.4,2.4,0,0,0-.943-1.164l-.833-.539A74.183,74.183,0,0,1,8.257,19.581a16.121,16.121,0,0,1,2.066-7.947H14.1a2.62,2.62,0,0,0,2.617-2.617V5.345a16.117,16.117,0,0,1,7.649-1.93A15.939,15.939,0,0,1,31.316,4.99c-.006.072-.01.145-.01.218v6.4a2.62,2.62,0,0,0,2.617,2.617h5.655a16.063,16.063,0,0,1,.894,5.357,63.507,63.507,0,0,1-.436,7.22.714.714,0,0,0,.627.792.722.722,0,0,0,.083,0,.714.714,0,0,0,.709-.632,64.94,64.94,0,0,0,.446-7.38,17.5,17.5,0,0,0-.817-5.362h4.322a2.62,2.62,0,0,0,2.617-2.617v-6.4a2.62,2.62,0,0,0-2.617-2.617H33.923a2.614,2.614,0,0,0-2.1,1.057,17.354,17.354,0,0,0-7.459-1.662A17.568,17.568,0,0,0,16.716,3.74V2.617A2.62,2.62,0,0,0,14.1,0H2.617A2.62,2.62,0,0,0,0,2.617v6.4a2.62,2.62,0,0,0,2.617,2.617H3.665a.714.714,0,0,0,0-1.429H2.617A1.189,1.189,0,0,1,1.429,9.017v-6.4A1.189,1.189,0,0,1,2.617,1.43H14.1a1.189,1.189,0,0,1,1.188,1.188v6.4A1.189,1.189,0,0,1,14.1,10.205H7a.714.714,0,0,0,0,1.429H8.7a17.566,17.566,0,0,0-1.873,7.951,73.38,73.38,0,0,0,1.847,15.68l-.858-.555a3.186,3.186,0,0,0-3.984.42,14.228,14.228,0,0,0-3.18,4.822L.1,41.342a.714.714,0,1,0,1.327.529l.554-1.39a12.806,12.806,0,0,1,2.862-4.341,1.757,1.757,0,0,1,2.2-.232l3.4,2.2a.982.982,0,0,1,.166,1.513l-.008.008-.316.315a.714.714,0,0,0,1.009,1.012l.318-.317.009-.01L15.658,36.6a.563.563,0,0,1,.795,0,.558.558,0,0,1,0,.79l-2.08,2.076a.714.714,0,0,0,1.009,1.011L17.463,38.4a2.006,2.006,0,0,0,.249-.3c.15-.057,2.318-.8,2.435-.856a6.935,6.935,0,0,0,4.294,1.7,6.433,6.433,0,0,0,4.181-1.72c-.094-.02,2.454.863,2.481.874a2.007,2.007,0,0,0,.25.3l2.507,2.5a23.962,23.962,0,0,1,3.185,3.935,4.115,4.115,0,0,0,2.607,1.8l2.657.571a1.177,1.177,0,0,1,.594.327l.994,1.014a.714.714,0,0,0,1.02-1l-.994-1.014a2.6,2.6,0,0,0-1.314-.724l-2.657-.571a2.7,2.7,0,0,1-1.708-1.178,25.391,25.391,0,0,0-3.375-4.17l-2.507-2.5a.558.558,0,0,1,0-.79.564.564,0,0,1,.8,0l4.032,4.025.013.013.318.317a.714.714,0,0,0,1.009-1.011l-.326-.326a.983.983,0,0,1,.169-1.512l3.4-2.2a1.768,1.768,0,0,1,2.2.232,12.8,12.8,0,0,1,2.863,4.34l.555,1.39a.715.715,0,0,0,1.327-.53ZM36.338,19.364a1.122,1.122,0,0,1,1.119,1.127,5.663,5.663,0,0,1-2.7,4.8,29.892,29.892,0,0,0,1.2-5.929ZM11.36,20.483a1.12,1.12,0,0,1,1.119-1.119h.265c0,.1.008.193.016.29a21.027,21.027,0,0,0,1.394,5.7A5.629,5.629,0,0,1,11.36,20.483ZM32.735,5.208A1.189,1.189,0,0,1,33.923,4.02H45.405a1.189,1.189,0,0,1,1.188,1.188v6.4A1.189,1.189,0,0,1,45.405,12.8H33.923a1.189,1.189,0,0,1-1.188-1.188ZM21.391,36.4a3.519,3.519,0,0,0,.887-1.674l.292-1.361a10.719,10.719,0,0,0,3.684.036l.285,1.325a3.519,3.519,0,0,0,.868,1.654,4.519,4.519,0,0,1-6.016.02Z" transform="translate(0 -0.001)"/>
        <path id="Trazado_842251" data-name="Trazado 842251" d="M92.059,35.549l.249-.653h1.748l.246.651a.714.714,0,1,0,1.337-.5l-1.653-4.379a.852.852,0,0,0-1.593,0l-1.668,4.379a.714.714,0,1,0,1.335.508Zm1.457-2.081h-.664l.334-.876Z" transform="translate(-82.04 -27.245)"/>
        <path id="Trazado_842252" data-name="Trazado 842252" d="M32.96,30.112a.714.714,0,0,0-.714.714v4.468a.714.714,0,1,0,1.429,0V33.7h1.663v1.6a.714.714,0,1,0,1.429,0V30.826a.714.714,0,1,0-1.429,0v1.443H33.675V30.826A.714.714,0,0,0,32.96,30.112Z" transform="translate(-29.175 -27.244)"/>
        <path id="Trazado_842253" data-name="Trazado 842253" d="M419.81,63.158a.714.714,0,0,0,.922-.413l.249-.653h1.748l.246.651a.714.714,0,1,0,1.337-.5l-1.652-4.378a.852.852,0,0,0-1.593,0L419.4,62.236A.714.714,0,0,0,419.81,63.158Zm2.379-2.495h-.664l.334-.876Z" transform="translate(-379.406 -51.849)"/>
        <path id="Trazado_842254" data-name="Trazado 842254" d="M361.632,63.2a.714.714,0,0,0,.714-.714v-1.6h1.663v1.6a.714.714,0,1,0,1.429,0V58.022a.714.714,0,1,0-1.429,0v1.443h-1.663V58.022a.714.714,0,0,0-1.429,0V62.49A.714.714,0,0,0,361.632,63.2Z" transform="translate(-326.54 -51.849)"/>
      </g>
    </g>
  </g>
</svg>
