<svg xmlns="http://www.w3.org/2000/svg" xmlns:xlink="http://www.w3.org/1999/xlink" width="103" height="103" viewBox="0 0 103 103">
  <defs>
    <filter id="Elipse_5246" x="0" y="0" width="103" height="103" filterUnits="userSpaceOnUse">
      <feOffset dy="3" input="SourceAlpha"/>
      <feGaussianBlur stdDeviation="3" result="blur"/>
      <feFlood flood-opacity="0.161"/>
      <feComposite operator="in" in2="blur"/>
      <feComposite in="SourceGraphic"/>
    </filter>
  </defs>
  <g id="_37" data-name="37" transform="translate(-275.5 -20579.359)">
    <g transform="matrix(1, 0, 0, 1, 275.5, 20579.36)" filter="url(#Elipse_5246)">
      <circle id="Elipse_5246-2" data-name="Elipse 5246" cx="42.5" cy="42.5" r="42.5" transform="translate(9 6)" fill="#3c1c74"/>
    </g>
    <g id="apoyo_1_" data-name="apoyo (1)" transform="translate(302.625 20600.559)">
      <path id="Trazado_842268" data-name="Trazado 842268" d="M339.318,8.533h-11.51a3.542,3.542,0,0,0-3.542,3.541v8.854a3.542,3.542,0,0,0,3.542,3.541h2.656V28.9l4.427-4.427h4.427a3.542,3.542,0,0,0,3.542-3.541V12.075A3.542,3.542,0,0,0,339.318,8.533Z" transform="translate(-290.622 -7.648)" fill="#f0e4d6"/>
      <path id="Trazado_842269" data-name="Trazado 842269" d="M351.7,13.466a26.644,26.644,0,0,1-15.637,14.54,3.508,3.508,0,0,0,2.318.885h2.656v4.427l4.427-4.427h4.427a3.542,3.542,0,0,0,3.542-3.541V16.5A3.528,3.528,0,0,0,351.7,13.466Z" transform="translate(-301.192 -12.069)" fill="#ebdcca"/>
      <path id="Trazado_842270" data-name="Trazado 842270" d="M44.833,274.914l8.854-16.822H46.6l-4.427,7.968v-7.083a5.312,5.312,0,0,0-5.312-5.312H31.552a2.656,2.656,0,0,1-2.656-2.656v-3.542H21.813v3.542a2.656,2.656,0,0,1-2.656,2.656H13.844a5.312,5.312,0,0,0-5.312,5.312v15.937Z" transform="translate(-7.647 -221.791)" fill="#fec9a3"/>
      <g id="Grupo_1077170" data-name="Grupo 1077170" transform="translate(4.427 39.759)">
        <path id="Trazado_842271" data-name="Trazado 842271" d="M46.179,396.562H44.408v-2.354a8.825,8.825,0,0,1-.366-9.99l.647-1.02,1.5.949-.647,1.019a7.054,7.054,0,0,0,.447,8.186.884.884,0,0,1,.194.553v2.656Z" transform="translate(-42.669 -383.198)" fill="#f5b789"/>
        <path id="Trazado_842272" data-name="Trazado 842272" d="M266.549,396.562h-1.771v-2.656a.885.885,0,0,1,.194-.553,7.052,7.052,0,0,0,.447-8.185l-.647-1.02,1.5-.949.647,1.02a8.825,8.825,0,0,1-.366,9.99Z" transform="translate(-241.728 -383.198)" fill="#f5b789"/>
      </g>
      <path id="Trazado_842273" data-name="Trazado 842273" d="M75.991,29.782V20.928a12.4,12.4,0,0,0-12.4-12.4h0a12.4,12.4,0,0,0-12.4,12.4v8.854a5.312,5.312,0,0,0,5.312,5.312H70.678A5.312,5.312,0,0,0,75.991,29.782Z" transform="translate(-45.888 -7.648)" fill="#f7df3f"/>
      <path id="Trazado_842274" data-name="Trazado 842274" d="M140.075,8.533a12.4,12.4,0,0,0-3.541.52,12.4,12.4,0,0,1,8.854,11.876v8.854a5.312,5.312,0,0,1-5.312,5.312h7.083a5.312,5.312,0,0,0,5.312-5.312V20.928A12.4,12.4,0,0,0,140.075,8.533Z" transform="translate(-122.368 -7.648)" fill="#c3ab0f"/>
      <path id="Trazado_842275" data-name="Trazado 842275" d="M383.435,303.979h-7.968a5.312,5.312,0,0,1,5.312-5.312h7.968A5.312,5.312,0,0,1,383.435,303.979Z" transform="translate(-336.51 -267.679)" fill="#fec9a3"/>
      <path id="Trazado_842276" data-name="Trazado 842276" d="M143.621,251.054v-3.587h-7.087v3.587a7.9,7.9,0,0,0,7.092,0Z" transform="translate(-122.368 -221.791)" fill="#f7c097"/>
      <path id="Trazado_842277" data-name="Trazado 842277" d="M93.867,90.081v3.812a7.968,7.968,0,1,0,15.937,0V86.811a7.925,7.925,0,0,0-.954-3.781Z" transform="translate(-84.128 -74.415)" fill="#fec9a3"/>
      <path id="Trazado_864314" data-name="Trazado 864314" d="M0,0H12.4V9.739H0Z" transform="translate(11.51 37.186)" fill="#fff"/>
      <path id="Trazado_842278" data-name="Trazado 842278" d="M46.6,311.627,42.177,319.6v-7.083a5.312,5.312,0,0,0-5.312-5.312H34.032l-8.677,11.51L17.121,307.2H13.845a5.312,5.312,0,0,0-5.312,5.312v15.937h36.3l8.854-16.822Z" transform="translate(-7.648 -275.326)" fill="#ee21e0"/>
      <path id="Trazado_842279" data-name="Trazado 842279" d="M168.858,311.917h-7.083l-4.427,7.968V312.8a5.312,5.312,0,0,0-4.729-5.279c-1.594,12.368-9.023,18.345-15.583,21.215H160Z" transform="translate(-122.819 -275.617)" fill="#e608d7"/>
      <g id="Grupo_1077172" data-name="Grupo 1077172" transform="translate(4.427 39.759)">
        <path id="Trazado_842280" data-name="Trazado 842280" d="M46.179,396.562H44.408v-2.354a8.825,8.825,0,0,1-.366-9.99l.647-1.02,1.5.949-.647,1.019a7.054,7.054,0,0,0,.447,8.186.884.884,0,0,1,.194.553v2.656Z" transform="translate(-42.669 -383.198)" fill="#3685ba"/>
        <path id="Trazado_842281" data-name="Trazado 842281" d="M266.549,396.562h-1.771v-2.656a.885.885,0,0,1,.194-.553,7.052,7.052,0,0,0,.447-8.185l-.647-1.02,1.5-.949.647,1.02a8.825,8.825,0,0,1-.366,9.99Z" transform="translate(-241.728 -383.198)" fill="#3685ba"/>
      </g>
      <path id="Trazado_842282" data-name="Trazado 842282" d="M178.635,93.893V86.81a7.925,7.925,0,0,0-.954-3.781l-2.247,1.057a12.34,12.34,0,0,1,.544,3.609v8.854a5.312,5.312,0,0,1-5.312,5.312,7.968,7.968,0,0,0,7.968-7.968Z" transform="translate(-152.959 -74.414)" fill="#f7c097"/>
      <path id="Trazado_842283" data-name="Trazado 842283" d="M63.03,27.447h-.885v1.771h.885a6.2,6.2,0,0,0,6.2-6.2V13.281a13.281,13.281,0,1,0-26.561,0V23.02a6.2,6.2,0,0,0,6.2,6.2h.885V27.447h-.885a4.432,4.432,0,0,1-4.427-4.427V13.281a11.51,11.51,0,0,1,23.02,0V23.02A4.432,4.432,0,0,1,63.03,27.447Z" transform="translate(-38.239)"/>
      <path id="Trazado_842284" data-name="Trazado 842284" d="M46.184,384.147l-1.5-.949-.647,1.02a8.825,8.825,0,0,0,.366,9.99v2.354h1.771v-2.656a.885.885,0,0,0-.194-.553,7.053,7.053,0,0,1-.447-8.186Z" transform="translate(-38.241 -343.439)"/>
      <path id="Trazado_842285" data-name="Trazado 842285" d="M331.67,0H320.16a4.432,4.432,0,0,0-4.427,4.427v8.854a4.432,4.432,0,0,0,4.427,4.427h1.771v3.541a.886.886,0,0,0,.546.818.886.886,0,0,0,.965-.192l4.167-4.167h4.06a4.432,4.432,0,0,0,4.427-4.427V4.427A4.432,4.432,0,0,0,331.67,0Zm2.656,13.281a2.656,2.656,0,0,1-2.656,2.656h-4.427a.883.883,0,0,0-.626.259L323.7,19.112v-2.29a.886.886,0,0,0-.885-.885H320.16a2.656,2.656,0,0,1-2.656-2.656V4.427a2.656,2.656,0,0,1,2.656-2.656h11.51a2.656,2.656,0,0,1,2.656,2.656Z" transform="translate(-282.974)"/>
      <path id="Trazado_842286" data-name="Trazado 842286" d="M264.778,393.906v2.656h1.771v-2.354a8.825,8.825,0,0,0,.366-9.99l-.647-1.02-1.5.949.647,1.02a7.052,7.052,0,0,1-.447,8.185A.885.885,0,0,0,264.778,393.906Z" transform="translate(-237.3 -343.439)"/>
      <path id="Trazado_842287" data-name="Trazado 842287" d="M1.771,103.96A4.432,4.432,0,0,1,6.2,99.533H9.015l7.973,11.14a.884.884,0,0,0,.708.37h.012a.885.885,0,0,0,.708-.354l8.411-11.156h2.391a4.432,4.432,0,0,1,4.427,4.427v7.083a.885.885,0,0,0,1.659.429l4.174-7.512h5.076L35.921,119.9h2.014l8.636-15.937h.354a6.2,6.2,0,0,0,6.2-6.2.886.886,0,0,0-.885-.885H44.269a6.2,6.2,0,0,0-6.185,5.945l-2.668,4.8V103.96a6.2,6.2,0,0,0-6.2-6.2H25.982l-.024-.019-.016.019H23.905a1.77,1.77,0,0,1-1.771-1.771V93.908a8.854,8.854,0,0,0,4.427-7.656V79.169a8.868,8.868,0,0,0-1.062-4.2.886.886,0,0,0-1.151-.381L9.362,81.638a.887.887,0,0,0-.508.8v3.813a8.854,8.854,0,0,0,4.427,7.656v2.083a1.77,1.77,0,0,1-1.771,1.771H6.2a6.2,6.2,0,0,0-6.2,6.2V119.9H1.771Zm42.5-5.312h6.994a4.434,4.434,0,0,1-4.338,3.541H39.931A4.434,4.434,0,0,1,44.269,98.648ZM17.726,108.663l-2.732-3.818H20.6Zm-7.1-22.411V83L24.3,76.568a7.087,7.087,0,0,1,.495,2.6v7.083a7.083,7.083,0,1,1-14.166,0Zm.885,13.281a3.542,3.542,0,0,0,3.541-3.541V94.7a8.842,8.842,0,0,0,5.312,0v1.294a3.542,3.542,0,0,0,3.541,3.541h.708l-2.67,3.541h-8.22l-2.535-3.541Z" transform="translate(0 -66.774)"/>
      <path id="Trazado_842288" data-name="Trazado 842288" d="M51.9,36.722l2.607-2.607,2.607,2.607,1.608-1.608-2.607-2.607L58.722,29.9l-1.608-1.608L54.507,30.9,51.9,28.293,50.293,29.9,52.9,32.507l-2.607,2.607Z" transform="translate(-11.337 -23.221)"/>
    </g>
  </g>
</svg>
