<svg xmlns="http://www.w3.org/2000/svg" xmlns:xlink="http://www.w3.org/1999/xlink" width="103" height="103" viewBox="0 0 103 103">
  <defs>
    <filter id="Elipse_5247" x="0" y="0" width="103" height="103" filterUnits="userSpaceOnUse">
      <feOffset dy="3" input="SourceAlpha"/>
      <feGaussianBlur stdDeviation="3" result="blur"/>
      <feFlood flood-opacity="0.161"/>
      <feComposite operator="in" in2="blur"/>
      <feComposite in="SourceGraphic"/>
    </filter>
  </defs>
  <g id="_39" data-name="39" transform="translate(-276 -20726)">
    <g transform="matrix(1, 0, 0, 1, 276, 20726)" filter="url(#Elipse_5247)">
      <circle id="Elipse_5247-2" data-name="Elipse 5247" cx="42.5" cy="42.5" r="42.5" transform="translate(9 6)" fill="#3c1c74"/>
    </g>
    <g id="orgullo_3_" data-name="orgullo (3)" transform="translate(301.99 20726.266)">
      <g id="Grupo_1088348" data-name="Grupo 1088348" transform="translate(0.748 27.099)">
        <path id="Trazado_862566" data-name="Trazado 862566" d="M235.469,37.223a3.377,3.377,0,0,1-3.376,3.376H207.33a4.114,4.114,0,0,1-1.629-3.127c.112-1.884,2.15-3.694,4.881-3.626h21.511A3.377,3.377,0,0,1,235.469,37.223Z" transform="translate(-185.944 -33.845)" fill="#7a8fa5"/>
        <path id="Trazado_862567" data-name="Trazado 862567" d="M32.139,33.863a3.253,3.253,0,0,0-3.252,3.252v3.5H10.877a3.377,3.377,0,0,1,0-6.753Z" transform="translate(-7.501 -33.861)" fill="#5b778f"/>
        <path id="Trazado_862568" data-name="Trazado 862568" d="M93.543,71.5a175.244,175.244,0,0,1,0,38.881l-6.754,1.448a56.441,56.441,0,0,1,0-40.329Z" transform="translate(-75.534 -67.75)" fill="#07c2f7"/>
        <path id="Trazado_862569" data-name="Trazado 862569" d="M238.066,71.5h6.753a48.851,48.851,0,0,1,0,38.881c-5.917-1.267-5.916-1.312-6.753-1.312A90.011,90.011,0,0,1,238.066,71.5Z" transform="translate(-213.304 -67.75)" fill="#f9b21f"/>
        <path id="Trazado_862570" data-name="Trazado 862570" d="M378.985,74.493v31.55a5.98,5.98,0,0,1-7.232,5.847l-.271-.058a92.852,92.852,0,0,1,0-40.329H376A2.99,2.99,0,0,1,378.985,74.493Z" transform="translate(-333.212 -67.75)" fill="#fa1e39"/>
        <path id="Trazado_862571" data-name="Trazado 862571" d="M206.367,71.5v37.569a8.341,8.341,0,0,0-1.975.288,3.858,3.858,0,0,1-2.5-.844c-2.023-1.787-.5-5.5.154-10.57,1.119-8.675-1.7-10.535-.309-20.369A48.862,48.862,0,0,1,202.99,71.5Z" transform="translate(-181.604 -67.75)" fill="#8ce09f"/>
        <path id="Trazado_862572" data-name="Trazado 862572" d="M192.989,109.36l-4.778,1.024V71.5h3.376v33.821a6.463,6.463,0,0,0,1.4,4.036Z" transform="translate(-170.201 -67.75)" fill="#17ec67"/>
        <path id="Trazado_862573" data-name="Trazado 862573" d="M52.654,71.5v40.329a5.985,5.985,0,0,1-7.5-5.789V74.493a2.99,2.99,0,0,1,2.99-2.99Z" transform="translate(-41.399 -67.75)" fill="#d7b2ff"/>
        <path id="Trazado_862574" data-name="Trazado 862574" d="M330.485,71.5v40.329l-6.754-1.448V71.5Z" transform="translate(-292.215 -67.75)" fill="#f96d17"/>
        <path id="Trazado_862575" data-name="Trazado 862575" d="M205.811,199.626a5,5,0,0,1-4.2,0q-.67-.309-1.275-.635a13.445,13.445,0,0,1,0-15.357,11.863,11.863,0,0,1,2.214.738,2.451,2.451,0,0,0,2.324,0C212.444,180.287,220.171,193,205.811,199.626Z" transform="translate(-178.947 -168.657)" fill="#fbf0ee"/>
        <path id="Trazado_862576" data-name="Trazado 862576" d="M160.818,183.643V199C149.487,192.911,154.387,182.768,160.818,183.643Z" transform="translate(-139.431 -168.666)" fill="#ebd5d3"/>
      </g>
      <g id="Grupo_1088349" data-name="Grupo 1088349" transform="translate(0 26.352)">
        <path id="Trazado_862577" data-name="Trazado 862577" d="M51.02,30.476A4.129,4.129,0,0,0,46.9,26.352H4.124a4.124,4.124,0,0,0-.372,8.231V65.39a6.727,6.727,0,0,0,8.137,6.578c13.523-2.9,12.831-2.8,13.611-2.8,1.069.056.035-.115,13.632,2.8a6.727,6.727,0,0,0,8.137-6.578V34.583A4.129,4.129,0,0,0,51.02,30.476ZM5.247,65.39V33.841A2.245,2.245,0,0,1,7.489,31.6h3.767V63.868a.747.747,0,1,0,1.495,0V31.6h5.259V42.217a7.269,7.269,0,0,0-3.386,6.761,9.772,9.772,0,0,0,3.386,6.475V69.128l-5.259,1.127V66.87a.747.747,0,0,0-1.495,0v3.694A5.231,5.231,0,0,1,5.247,65.39ZM24.763,31.6V42.185l-.06-.03a6.712,6.712,0,0,0-5.2-.611V31.6Zm6.753,0v9.946a6.713,6.713,0,0,0-5.2.611l-.06.03V31.6ZM27.3,57.388a4.255,4.255,0,0,1-3.576,0c-3.659-1.691-7.328-4.527-7.608-8.514-.3-4.281,3.8-7.6,7.879-5.4a3.187,3.187,0,0,0,3.034,0C33.728,39.856,40.684,51.2,27.3,57.388ZM19.5,68.807V56.677A21.514,21.514,0,0,0,23.1,58.745a5.759,5.759,0,0,0,1.668.481v8.489C24.293,67.768,24.576,67.72,19.5,68.807Zm6.754-1.092V59.226a5.757,5.757,0,0,0,1.668-.481,21.51,21.51,0,0,0,3.591-2.068v12.13C26.466,67.725,26.72,67.767,26.258,67.715ZM45.774,65.39a5.231,5.231,0,0,1-6.009,5.174V36.854a.747.747,0,1,0-1.495,0v33.4l-5.259-1.127V55.454A9.771,9.771,0,0,0,36.4,48.979a7.269,7.269,0,0,0-3.386-6.761V31.6H38.27v2.254a.747.747,0,0,0,1.495,0V31.6h3.767a2.245,2.245,0,0,1,2.242,2.242Zm1.419-32.3A3.744,3.744,0,0,0,43.531,30.1H7.489a3.744,3.744,0,0,0-3.661,2.984,2.629,2.629,0,0,1,.3-5.241H46.9a2.629,2.629,0,0,1,.3,5.241Z" transform="translate(0 -26.352)"/>
      </g>
    </g>
  </g>
</svg>
