<svg xmlns="http://www.w3.org/2000/svg" width="172.453" height="121.996" viewBox="0 0 172.453 121.996">
  <g id="Grupo_1104376" data-name="Grupo 1104376" transform="translate(10627.686 5508.139)">
    <g id="Grupo_1104372" data-name="Grupo 1104372">
      <path id="Trazado_906654" data-name="Trazado 906654" d="M166.51,104.666c6.482-7.681,10.251-17.965,8.777-27.906s-8.744-19.158-18.493-21.6c-6.647-1.667-13.627-.227-20.48-.228s-14.577-2.11-17.718-8.2c-2.467-4.786-1.367-10.569-2.267-15.878-1.432-8.443-7.878-15.21-14.992-19.978A64.348,64.348,0,0,0,14.5,25.106C6.278,35.8,1.508,49.61,3.673,62.917s12.1,25.6,25.271,28.5c7.376,1.625,15.032.353,22.558-.29s15.719-.751,21.99,3.46c29.25,19.644,88.36,15.6,93.018,10.08" transform="translate(-10630.838 -5501.742)" fill="#f9d673"/>
      <path id="Trazado_906655" data-name="Trazado 906655" d="M318.637,60.524A22.88,22.88,0,0,0,330.472,43.6a22.031,22.031,0,0,0-7.3-19.247,18.655,18.655,0,0,0-14.921-4.478,19.775,19.775,0,0,0-12.466,8.275A33.277,33.277,0,0,0,290.425,42.4a25.754,25.754,0,0,0,.284,11.038c3.353,11.714,18.754,11.946,27.928,7.091" transform="translate(-10799.908 -5513.332)" fill="#f9d673"/>
    </g>
    <g id="obediente_5_" data-name="obediente (5)" transform="translate(-10604.831 -5508.139)">
      <g id="Grupo_1104362" data-name="Grupo 1104362" transform="translate(13.974 1.787)">
        <g id="Grupo_1104360" data-name="Grupo 1104360">
          <g id="Grupo_1104357" data-name="Grupo 1104357" transform="translate(0 46.687)">
            <g id="Grupo_1104350" data-name="Grupo 1104350" transform="translate(0 0)">
              <path id="Trazado_906633" data-name="Trazado 906633" d="M39.257,204.512l4.292,7.434a.715.715,0,0,0,.619.357H73.577a.715.715,0,0,0,.619-.357l4.292-7.434a.715.715,0,0,0-.619-1.072H39.876A.715.715,0,0,0,39.257,204.512Z" transform="translate(-39.16 -203.44)" fill="#fed402"/>
            </g>
            <g id="Grupo_1104356" data-name="Grupo 1104356">
              <g id="Grupo_1104351" data-name="Grupo 1104351" transform="translate(63.91 0)">
                <path id="Trazado_906634" data-name="Trazado 906634" d="M307.479,204.512l4.292,7.434a.715.715,0,0,0,.619.357H341.8a.715.715,0,0,0,.619-.357l4.292-7.434a.715.715,0,0,0-.619-1.072H308.1A.715.715,0,0,0,307.479,204.512Z" transform="translate(-307.382 -203.44)" fill="#fed402"/>
              </g>
              <g id="Grupo_1104352" data-name="Grupo 1104352" transform="translate(0 0)">
                <path id="Trazado_906635" data-name="Trazado 906635" d="M39.257,204.512l4.292,7.434a.715.715,0,0,0,.619.357H73.577a.715.715,0,0,0,.619-.357l4.292-7.434a.715.715,0,0,0-.619-1.072H39.876A.715.715,0,0,0,39.257,204.512Z" transform="translate(-39.16 -203.44)" fill="#ca6e59"/>
              </g>
              <g id="Grupo_1104353" data-name="Grupo 1104353" transform="translate(0)">
                <path id="Trazado_906636" data-name="Trazado 906636" d="M53.648,211.945l-4.292-7.434a.715.715,0,0,1,.619-1.072h-10.1a.715.715,0,0,0-.619,1.072l4.292,7.434a.715.715,0,0,0,.619.357h10.1A.715.715,0,0,1,53.648,211.945Z" transform="translate(-39.161 -203.439)" fill="#bb5d4c"/>
              </g>
              <g id="Grupo_1104354" data-name="Grupo 1104354" transform="translate(63.91 0)">
                <path id="Trazado_906637" data-name="Trazado 906637" d="M307.479,204.512l4.292,7.434a.715.715,0,0,0,.619.357H341.8a.715.715,0,0,0,.619-.357l4.292-7.434a.715.715,0,0,0-.619-1.072H308.1A.715.715,0,0,0,307.479,204.512Z" transform="translate(-307.382 -203.44)" fill="#ca6e59"/>
              </g>
              <g id="Grupo_1104355" data-name="Grupo 1104355" transform="translate(63.911)">
                <path id="Trazado_906638" data-name="Trazado 906638" d="M323.118,211.945l-4.292-7.434a.715.715,0,0,1,.619-1.072H308.1a.715.715,0,0,0-.619,1.072l4.292,7.434a.715.715,0,0,0,.619.357h11.346A.715.715,0,0,1,323.118,211.945Z" transform="translate(-307.382 -203.439)" fill="#bb5d4c"/>
              </g>
            </g>
          </g>
          <path id="Trazado_906639" data-name="Trazado 906639" d="M245.513,148v-43.69a1.191,1.191,0,0,0-1.191-1.191h-7.164a1.191,1.191,0,0,0-1.191,1.191V148h9.547Z" transform="translate(-189.072 -80.338)" fill="#bb5d4c"/>
          <path id="Trazado_906640" data-name="Trazado 906640" d="M240.009,148v-43.69a1.192,1.192,0,0,1,1.191-1.191h-4.043a1.191,1.191,0,0,0-1.191,1.191V148h4.043Z" transform="translate(-189.072 -80.338)" fill="#a44f3e"/>
          <g id="Grupo_1104358" data-name="Grupo 1104358" transform="translate(44.997 0)">
            <circle id="Elipse_5714" data-name="Elipse 5714" cx="6.67" cy="6.67" r="6.67" fill="#883f2e"/>
          </g>
          <g id="Grupo_1104359" data-name="Grupo 1104359" transform="translate(44.997)">
            <path id="Trazado_906641" data-name="Trazado 906641" d="M233.963,14.17A6.669,6.669,0,0,1,237.655,8.2a6.671,6.671,0,1,0,0,11.936,6.669,6.669,0,0,1-3.691-5.968Z" transform="translate(-228.005 -7.5)" fill="#6d3326"/>
          </g>
        </g>
        <g id="Grupo_1104361" data-name="Grupo 1104361" transform="translate(9.184 67.666)">
          <path id="Trazado_906642" data-name="Trazado 906642" d="M231.532,301.724V296.25a4.765,4.765,0,0,0-4.766-4.765H214.021a4.765,4.765,0,0,0-4.766,4.765v5.474Z" transform="translate(-177.91 -291.485)" fill="#883f2e"/>
          <path id="Trazado_906643" data-name="Trazado 906643" d="M217.3,301.724V296.25a4.765,4.765,0,0,1,4.766-4.765H214.02a4.765,4.765,0,0,0-4.765,4.765v5.474Z" transform="translate(-177.91 -291.485)" fill="#6d3326"/>
          <path id="Trazado_906644" data-name="Trazado 906644" d="M211.6,345.31v-6.769a4.084,4.084,0,0,0-4.084-4.084H175.256a4.084,4.084,0,0,0-4.084,4.084v6.769Z" transform="translate(-148.901 -324.218)" fill="#bb5d4c"/>
          <path id="Trazado_906645" data-name="Trazado 906645" d="M181.222,345.31v-6.769a4.084,4.084,0,0,1,4.084-4.084H175.257a4.084,4.084,0,0,0-4.084,4.084v6.769Z" transform="translate(-148.901 -324.218)" fill="#a44f3e"/>
          <path id="Trazado_906646" data-name="Trazado 906646" d="M84.068,379.006a6.365,6.365,0,0,0-6.365,6.365v12.093a6.365,6.365,0,0,0,6.365,6.365h2.58V386.962H99.661v16.866h72.875V379.006Z" transform="translate(-77.703 -358.152)" fill="#fff3de"/>
        </g>
      </g>
      <g id="Grupo_1104371" data-name="Grupo 1104371" transform="translate(7.883 90.307)">
        <g id="Grupo_1104366" data-name="Grupo 1104366" transform="translate(0)">
          <g id="Grupo_1104363" data-name="Grupo 1104363">
            <path id="Trazado_906647" data-name="Trazado 906647" d="M35.236,403.828a6.365,6.365,0,0,1-6.365-6.365V385.371a6.365,6.365,0,0,1,6.365-6.365H26.007a12.411,12.411,0,0,0,0,24.822h9.229Z" transform="translate(-13.596 -379.006)" fill="#3675bb"/>
          </g>
          <g id="Grupo_1104364" data-name="Grupo 1104364">
            <path id="Trazado_906648" data-name="Trazado 906648" d="M19.625,391.417a12.411,12.411,0,0,1,12.411-12.411H26.007a12.411,12.411,0,0,0,0,24.822h6.029A12.411,12.411,0,0,1,19.625,391.417Z" transform="translate(-13.596 -379.006)" fill="#2b68b6"/>
          </g>
          <g id="Grupo_1104365" data-name="Grupo 1104365" transform="translate(15.275 0.008)">
            <path id="Trazado_906649" data-name="Trazado 906649" d="M86.647,396.88a6.358,6.358,0,0,1-2.916-5.348V379.439c0-.134.005-.266.014-.4A6.365,6.365,0,0,0,77.7,385.4V397.49a6.365,6.365,0,0,0,6.365,6.365h2.58Z" transform="translate(-77.703 -379.041)" fill="#ffe5c2"/>
            <path id="Trazado_906650" data-name="Trazado 906650" d="M169.857,458.174h72.875v5.958H169.857Z" transform="translate(-147.899 -439.319)" fill="#ffe5c2"/>
          </g>
        </g>
        <g id="Grupo_1104370" data-name="Grupo 1104370" transform="translate(24.219 7.956)">
          <g id="Grupo_1104367" data-name="Grupo 1104367">
            <path id="Trazado_906651" data-name="Trazado 906651" d="M128.254,433.625v-21.23H115.24v21.23a.715.715,0,0,0,1.122.588l5.385-3.727,5.385,3.727A.715.715,0,0,0,128.254,433.625Z" transform="translate(-115.24 -412.395)" fill="#fb2b3a"/>
          </g>
          <g id="Grupo_1104369" data-name="Grupo 1104369" transform="translate(0)">
            <g id="Grupo_1104368" data-name="Grupo 1104368">
              <path id="Trazado_906652" data-name="Trazado 906652" d="M121.231,412.395H115.24v21.23a.715.715,0,0,0,1.122.588l4.869-3.37Z" transform="translate(-115.24 -412.395)" fill="#e41f2d"/>
            </g>
          </g>
        </g>
      </g>
      <path id="Trazado_906653" data-name="Trazado 906653" d="M123.4,113.342h-3.623V92.095H123.4a1.787,1.787,0,0,0,0-3.574H87.641V83.777a5.878,5.878,0,0,0-5.871-5.871h-3.2V74.219A6.559,6.559,0,0,0,72.2,67.671V38.839a1.787,1.787,0,1,0-3.574,0V67.666H62.656V26.359h5.973V30.5a1.787,1.787,0,1,0,3.574,0V25.763a2.982,2.982,0,0,0-2.978-2.978h-1.8V16.724a8.482,8.482,0,0,0,6.479-6.479h21.9V13.5l-17.474,33.2a2.5,2.5,0,0,0-1.9,3.735l4.292,7.434a2.509,2.509,0,0,0,2.167,1.251H99.715a1.787,1.787,0,0,0,0-3.574h-16.2l-3.054-5.29h34.278l-3.054,5.29h-3.628a1.787,1.787,0,1,0,0,3.574H112.3a2.509,2.509,0,0,0,2.167-1.251l4.292-7.434a2.5,2.5,0,0,0-1.9-3.735L99.384,13.5v-3.26h6.689a1.787,1.787,0,1,0,0-3.574H73.908a8.457,8.457,0,0,0-16.532,0H25.21a1.787,1.787,0,1,0,0,3.574H31.9V13.5l-17.473,33.2a2.5,2.5,0,0,0-1.9,3.735h0l4.292,7.434a2.509,2.509,0,0,0,2.167,1.251H48.391a2.509,2.509,0,0,0,2.167-1.251L54.85,50.44a2.5,2.5,0,0,0-1.9-3.735L35.474,13.5v-3.26h21.9a8.482,8.482,0,0,0,6.479,6.479v6.061H62.06a2.982,2.982,0,0,0-2.978,2.978V67.671a6.559,6.559,0,0,0-6.365,6.548v3.687h-3.2a5.878,5.878,0,0,0-5.871,5.871V88.52H20.294a14.2,14.2,0,1,0,0,28.4H30.315v2.577a2.5,2.5,0,0,0,3.926,2.057l4.369-3.023,4.368,3.023a2.5,2.5,0,0,0,3.926-2.057v-2.577h76.5a1.787,1.787,0,1,0,0-3.574ZM95.81,46.687H82.385L95.81,21.178Zm3.574-25.509,13.425,25.509H99.384Zm-67.485,0V46.687H18.474ZM47.772,55.551H19.6l-3.054-5.29H50.826ZM48.9,46.687H35.474V21.178ZM60.758,8.458a4.883,4.883,0,1,1,4.883,4.883A4.889,4.889,0,0,1,60.758,8.458ZM56.291,74.219a2.982,2.982,0,0,1,2.978-2.978H72.014a2.982,2.982,0,0,1,2.978,2.978v3.687h-18.7Zm-36,39.123a10.624,10.624,0,1,1,0-21.248h2.488a8.1,8.1,0,0,0-1.41,4.577v12.093a8.1,8.1,0,0,0,1.411,4.577Zm23.035,4.105-3.7-2.562a1.787,1.787,0,0,0-2.034,0l-3.7,2.562v-17.4h9.44ZM116.2,96.476H77.575a1.787,1.787,0,1,0,0,3.574H116.2v5.336H77.575a1.787,1.787,0,1,0,0,3.574H116.2v4.382H46.9V100.05H61.982a1.787,1.787,0,1,0,0-3.574H29.523a1.787,1.787,0,0,0,0,3.574h.793v13.292h-.793a4.583,4.583,0,0,1-4.577-4.577V96.672a4.583,4.583,0,0,1,4.577-4.577H58.255a1.787,1.787,0,1,0,0-3.574H47.216V83.777a2.3,2.3,0,0,1,2.3-2.3H81.77a2.3,2.3,0,0,1,2.3,2.3v4.744H66.595a1.787,1.787,0,1,0,0,3.574H116.2Z" transform="translate(0 0)" fill="#12263f"/>
    </g>
  </g>
</svg>
