<svg xmlns="http://www.w3.org/2000/svg" xmlns:xlink="http://www.w3.org/1999/xlink" width="505" height="226.945" viewBox="0 0 505 226.945">
  <defs>
    <clipPath id="clip-path">
      <path id="intersexualidad-social" d="M24,0H481a24,24,0,0,1,24,24V226.945a0,0,0,0,1,0,0H0a0,0,0,0,1,0,0V24A24,24,0,0,1,24,0Z" transform="translate(811 3530)" fill="#12263f"/>
    </clipPath>
  </defs>
  <g id="Grupo_1104377" data-name="Grupo 1104377" transform="translate(-286 -3530)">
    <g id="Enmascarar_grupo_1078972" data-name="Enmascarar grupo 1078972" transform="translate(-525)" clip-path="url(#clip-path)">
      <g id="Grupo_1097941" data-name="Grupo 1097941" transform="translate(811 3530.39)">
        <path id="intersexualidad-social-2" data-name="intersexualidad-social" d="M0,0H229a24,24,0,0,1,24,24V226.944a0,0,0,0,1,0,0H0a0,0,0,0,1,0,0V0A0,0,0,0,1,0,0Z" transform="translate(251)" fill="#ffbedc"/>
        <path id="intersexualidad-social-3" data-name="intersexualidad-social" d="M24,0H253a0,0,0,0,1,0,0V226.944a0,0,0,0,1,0,0H0a0,0,0,0,1,0,0V24A24,24,0,0,1,24,0Z" fill="#bedaf7"/>
        <g id="Grupo_1104339" data-name="Grupo 1104339" transform="translate(101.369 -1.071)">
          <g id="Grupo_1075964" data-name="Grupo 1075964" transform="translate(21.557 12.793)">
            <path id="Trazado_830478" data-name="Trazado 830478" d="M259.583,259.583Z" transform="translate(1.893 3.473)" fill="#1666ba"/>
            <g id="Grupo_1104339-2" data-name="Grupo 1104339" transform="translate(-620.895 -1401.204)">
              <path id="Trazado_906158" data-name="Trazado 906158" d="M894.5,1607.313H785.54c.365-1.362.719-2.736,1.094-4.1,2.146-7.82,5.385-18.19,8.957-25.442.493-1.008.976-2.027,1.405-3.068a6.423,6.423,0,0,0,.193-1.3c.032-.182.1-.44.236-.526.976-.6,1.963-1.18,2.971-1.727,7.359-3.969,14.75-7.863,22.077-11.9,12.433-6.833,25.113-13.152,38.147-18.741a35.311,35.311,0,0,1,7.22-2.36,3.4,3.4,0,0,1,3.433.976c.354.386.751.729,1.1,1.116a54.409,54.409,0,0,1,8.721,13.087,118.865,118.865,0,0,1,9.279,27.913c1.362,6.4,2.435,15.884,3.6,22.331C894.22,1604.8,894.327,1606.058,894.5,1607.313Z" transform="translate(2.301 9.564)" fill="#0077b8"/>
              <path id="Trazado_906159" data-name="Trazado 906159" d="M811.377,1406.57c.8.075,1.62.139,2.424.225,4.677.536,9.365,1.051,14.042,1.62,2.768.343,5.557.644,8.282,1.212,5.192,1.094,10.427,2.092,15.372,4.066a67.587,67.587,0,0,1,10.255,4.806,33.2,33.2,0,0,1,10.878,11.06c.4.633.7,1.319,1.126,2.135a15.665,15.665,0,0,0-.418-1.555,8.532,8.532,0,0,1-.2-4.806c.2-1.062.923-1.3,1.716-.569a10.3,10.3,0,0,1,1.727,1.952,22.819,22.819,0,0,1,3.776,11.039.873.873,0,0,0,.257.536,21.174,21.174,0,0,1,3.958,5.235c2.188,3.98,4.355,7.971,5.482,12.422,1.609,6.34,2.778,12.755,2.371,19.331a71,71,0,0,1-1.041,7.949,100.075,100.075,0,0,1-2.06,9.9,64.046,64.046,0,0,1-6.619,14.707c-1.706,2.928-3.508,5.814-5.246,8.732a13.585,13.585,0,0,0-2.038,4.656,10.244,10.244,0,0,0,.043,2.36c.032.418.322.568.7.279.633-.483,1.255-.965,1.877-1.47a1.767,1.767,0,0,1,2.478-.225,4.34,4.34,0,0,1,2.145,3.83,8,8,0,0,1-1.523,5.031c-.1.15-.2.279-.3.429-.011.011-.011.032-.021.086,1.395.987,1.405,2.371.955,3.83a8.67,8.67,0,0,1-7.831,5.793H872.77c.429.794.837,1.555,1.234,2.317.086.172.161.354.257.526a1.121,1.121,0,0,1-.075,1.437,6.138,6.138,0,0,0-.536.89c4.506,2.982,7.531,7.219,10.288,11.671a92.775,92.775,0,0,1,9.1,20.607c2.6,8.078,4.452,20.349,5.943,28.695.633,3.519,1.169,7.037,1.759,10.567h-3.958c-.161-1.245-.279-2.5-.5-3.744-1.18-6.447-2.242-16.916-3.6-23.331a118.535,118.535,0,0,0-9.279-27.913,54.616,54.616,0,0,0-8.721-13.087c-.354-.386-.751-.74-1.1-1.116a3.444,3.444,0,0,0-3.433-.976,35.31,35.31,0,0,0-7.22,2.36c-13.034,5.589-25.724,11.907-38.147,18.741-7.327,4.034-14.718,7.928-22.077,11.9-1.008.547-2,1.126-2.971,1.727-.139.086-.2.343-.236.526a7.284,7.284,0,0,1-.193,1.3c-.418,1.041-.912,2.06-1.405,3.068-3.572,7.252-6.812,18.621-8.957,26.442-.375,1.362-.729,2.736-1.094,4.1H784.1c.29-1.18.547-2.371.88-3.54,2.575-9.011,6.361-21.486,11.285-29.456a.535.535,0,0,0,.1-.4c-.322.236-.654.472-.976.719-.418.311-.8.676-1.244.944a.843.843,0,0,1-1.191-.214.813.813,0,0,1,.29-1.169,4.026,4.026,0,0,0,1.18-1.47q2.832-4.505,5.75-8.957a24.391,24.391,0,0,1,2.135-2.682,2.588,2.588,0,0,1,1.116-.676,6.667,6.667,0,0,0,4.237-3.7,30.57,30.57,0,0,0,2.049-6.833,6.129,6.129,0,0,1,.386-1.33,31.521,31.521,0,0,0,2.424-8.947c.333-2.4.6-4.806.88-7.219a15.277,15.277,0,0,0,.032-1.566c.011-.461-.182-.6-.644-.526-1.384.214-2.757.418-4.152.558a44.846,44.846,0,0,1-8.485.011c-3.422-.322-6.844-.515-10.255-.89-2.811-.3-5.6-.783-8.4-1.191-1.931-.279-3.873-.547-5.8-.9a16.257,16.257,0,0,1-3-.858c-1.845-.719-2.6-2.371-3.143-4.1a8.492,8.492,0,0,1,.4-5.75,24.482,24.482,0,0,1,1.266-2.682,4.492,4.492,0,0,0,.408-3.261c-.129-.568-.2-1.137-.333-1.706a.762.762,0,0,0-.236-.343c-.526-.461-1.094-.869-1.588-1.352a2.592,2.592,0,0,1-.654-3.036c.3-.751.729-1.437,1.116-2.188-1.137-.429-1.577-1.609-2.3-2.532a1.726,1.726,0,0,1,.075-2.027c.3-.494.676-.944,1.019-1.416a2.9,2.9,0,0,0,.075-3.98,8.087,8.087,0,0,0-1.438-1.588,37.49,37.49,0,0,1-4.967-5.224,4.219,4.219,0,0,1,.032-5.589,44.932,44.932,0,0,1,5.45-5.235c2.3-1.749,4.473-3.658,6.651-5.557a4.893,4.893,0,0,0,1.416-5.814c-1.609-4.184-1.126-8.314.247-12.4,1.416-4.205,2.489-8.507,3.594-12.8a10.517,10.517,0,0,1,.515-1.48c.772-1.888,1.148-3.9,1.8-5.825a2.989,2.989,0,0,0-.043-1.008c-.333.118-.6.2-.869.3a25.811,25.811,0,0,1-10.974,1.513,24.3,24.3,0,0,1-3.765-.29c-3.122-.719-6.329-1.255-9.108-3.025a15.356,15.356,0,0,1-1.877-1.448,3.537,3.537,0,0,1-.6-.912c-.322-.558-.633-1.126-.944-1.684v-.236c.579-.729.815-.751,1.545-.118a.637.637,0,0,0,.2.118,14.022,14.022,0,0,0,9.869.858,15.144,15.144,0,0,0,6.994-5.128c1.083-1.3,2.07-2.671,3.165-3.958a87.231,87.231,0,0,1,8.131-8.646,51.087,51.087,0,0,1,12.54-7.842,35.711,35.711,0,0,1,10.373-3.3c.8-.107,1.609-.193,2.414-.3C809.907,1406.57,810.647,1406.57,811.377,1406.57Zm11.049,49.743a7.038,7.038,0,0,0,.2,3.165,20.528,20.528,0,0,0,3.851,7.123,39.946,39.946,0,0,0,6.029,6.383c.3.247.515.6.247.89a1.176,1.176,0,0,1-.9.257,1.909,1.909,0,0,1-.88-.418c-1.073-.8-2.113-1.631-3.186-2.435-.461-.354-.955-.654-1.437-.987-.032.043-.075.086-.107.129a42.609,42.609,0,0,0,4.237,7.531c.772,1.008.59,1.62-.547,2.006a38.776,38.776,0,0,1-6.05,16.8,11.462,11.462,0,0,0,3.6-1.792,33.218,33.218,0,0,0,9.547-11.264c.225-.429.429-.88.633-1.309a.544.544,0,0,1,.021.365c-.021.107-.054.2-.075.311a.976.976,0,0,0,.268-.375,12.057,12.057,0,0,1,7.026-6.576,6.528,6.528,0,0,1,4.43-.429,11.116,11.116,0,0,1,7.348,7.659,17.683,17.683,0,0,1,.4,7.391,9.508,9.508,0,0,1-6.125,8.3,3.023,3.023,0,0,0-1.974,2.328,30.948,30.948,0,0,0-.74,12.068,20.629,20.629,0,0,0,2.156,6.962,15.727,15.727,0,0,0,5.16,5.9,7.384,7.384,0,0,1,2.467,2.349,1.75,1.75,0,0,1-.193,2.3c-.579.7-.654,1.008-.193,1.781.451.74,1.019,1.416,1.5,2.135a.567.567,0,0,0,.772.236c1.373-.429,2.735-.848,4.13-1.2a29.34,29.34,0,0,1,3.186-.633c.869-.118,1.244.311,1.277,1.169a1.229,1.229,0,0,0,.215.569c.74,1.094,1.491,2.178,2.231,3.272.1.139.2.268.322.429.375-.515.826-.182,1.2-.129a8.429,8.429,0,0,0,4.634-.418,6.184,6.184,0,0,0,3.883-4.119,2.091,2.091,0,0,0-.129-1.169c-.2-.515-.665-.579-1.116-.257a3.527,3.527,0,0,1-.751.44.97.97,0,0,1-1.362-.494c-.15-.472.139-.912.74-1.137a1.914,1.914,0,0,0,.708-.354,7.231,7.231,0,0,0,2.274-5.01,3.313,3.313,0,0,0-1.008-2.693c-.665-.6-.858-.568-1.416.107a6.108,6.108,0,0,1-2.854,2.21,1.961,1.961,0,0,1-2.285-.687,4.094,4.094,0,0,1-.9-3.98,27.129,27.129,0,0,1,2.081-5.106c1.631-2.972,3.465-5.836,5.214-8.743a61.724,61.724,0,0,0,6.833-14.857c.858-2.993,1.352-6.093,1.91-9.161a54.645,54.645,0,0,0,1.094-10.406,60.98,60.98,0,0,0-2.542-16.692,46.1,46.1,0,0,0-8.26-16.413,3.311,3.311,0,0,1-.687-1.437c-.225-1.212-.279-2.467-.515-3.68a23.989,23.989,0,0,0-3.422-8.646c-.15-.225-.343-.418-.515-.633a1.2,1.2,0,0,0-.172.075c.075.74.15,1.48.225,2.231a13.479,13.479,0,0,1,.182,1.952c-.043.9-.225,1.8-.354,2.7,0,.032-.043.064-.064.1-.043-.064-.086-.129-.129-.2-.139.118-.279.236-.461.375a5.7,5.7,0,0,1-.429-.5l-3.54-5.053a24.649,24.649,0,0,0-10.642-8.324,80.461,80.461,0,0,0-16.542-5.407c-3.186-.644-6.34-1.523-9.547-2.017-5.4-.837-10.835-1.47-16.252-2.178a30.926,30.926,0,0,0-13.57,1.148,74.755,74.755,0,0,0-9.29,3.991,35.531,35.531,0,0,0-10.792,7.9c-2.671,2.875-5.16,5.911-7.745,8.85a47.983,47.983,0,0,1-3.5,3.733,13.159,13.159,0,0,1-10.792,3.776c-.5-.054-1.008-.15-1.566-.225.075.075.1.118.129.129.118.064.247.118.365.172a20.915,20.915,0,0,0,13.238.9,99.511,99.511,0,0,0,11.9-4.162c2.457-.944,4.849-2.113,7.37-2.832,4.076-1.159,8.239-2.006,12.358-3.025a122.156,122.156,0,0,1,24.609-3.4,84.362,84.362,0,0,1,15.158.794,14.367,14.367,0,0,1,4.205,1.674c-.622.011-1.234-.011-1.845-.054-1.287-.086-2.585-.182-3.873-.29-2.725-.236-5.439-.654-8.174-.708-3.8-.075-7.616-.032-11.4.236a76.28,76.28,0,0,0-10.363,1.362c-5.3,1.116-10.534,2.553-15.791,3.883-1.534.386-3.036.9-4.409,1.319,0,.461-.011.815.011,1.158a.652.652,0,0,0,.15.375,5.658,5.658,0,0,0,.665.569,61.765,61.765,0,0,0,16.81,8.882,57.308,57.308,0,0,0,13.774,2.714,38.729,38.729,0,0,0,10.384-.429,56.815,56.815,0,0,0,12.412-4.066c.333-.14.644-.3.976-.451-.011-.032-.021-.064-.032-.107q-3.814.837-7.627,1.663c1.791-.579,3.615-1.019,5.417-1.545a53.614,53.614,0,0,0,6.9-2.07c1.931-.848,3.937-1.523,5.911-2.263.44-.161.88-.14,1.094.343.225.5-.129.783-.536,1.008-3.4,1.834-6.769,3.712-10.191,5.492a46.7,46.7,0,0,1-12.283,4.409,39.46,39.46,0,0,1-11.94.558c-.88-.086-1.77-.182-2.66-.279a7.885,7.885,0,0,0,2.424,3.873,23.363,23.363,0,0,0,8.013,4.634c2.07.751,4.216,1.319,6.318,2.017a7.457,7.457,0,0,1,1.759.869,1.079,1.079,0,0,1,.4,1.395,1.154,1.154,0,0,1-1.2.74,2.155,2.155,0,0,1-.579-.075c-.89-.214-1.759-.461-2.65-.644a8.011,8.011,0,0,0-1.137-.043c-.225-.011-.569,0-.633-.118-.257-.493-.74-.5-1.169-.654-.976-.333-1.963-.622-2.918-1.008A23.6,23.6,0,0,1,822.426,1456.313ZM810.8,1566.28c.182-.129.29-.193.386-.268,2.735-2.146,5.46-4.3,8.2-6.436a177.961,177.961,0,0,1,23.954-16.284c4.473-2.446,8.85-5.074,13.56-7.08.268-.118.547-.236.815-.354-.536-.762-1.062-1.448-1.523-2.188a3.3,3.3,0,0,1-.526-2.553c.086-.375.333-.837.2-1.094-.172-.333-.654-.515-1.008-.751a4.673,4.673,0,0,0-.493-.3,17.245,17.245,0,0,1-8.228-10.427,29.337,29.337,0,0,1-.418-14.461c.215-1.116.547-2.2.815-3.3-.032-.054-.075-.1-.107-.15-1.137.676-2.285,1.341-3.411,2.049a2.121,2.121,0,0,0-.9,1.792,17.117,17.117,0,0,1-.354,2.875,5.285,5.285,0,0,1-6.49,4.237c-1.1-.193-1.48-.944-1.867-1.759.955.075,1.877.193,2.821.225a3.75,3.75,0,0,0,4.055-2.95,9.143,9.143,0,0,0,.343-2.349,4.248,4.248,0,0,1,1.834-3.637,21.817,21.817,0,0,1,4.709-2.51,2.826,2.826,0,0,0,.837-.59,1.258,1.258,0,0,1,1.395-.461.723.723,0,0,0,.451-.021c2.65-1.094,4.624-2.789,5.278-5.739a20.977,20.977,0,0,0,.333-4.978,10.557,10.557,0,0,0-3.8-8.121,5.664,5.664,0,0,0-3.4-1.641,8.182,8.182,0,0,0-7.434,3.519,11.3,11.3,0,0,0-2.253,4.291.645.645,0,0,1-.751.569c-.418-.054-.569-.365-.558-.762v-.386c-.5,1.223-.869,2.478-1.287,3.722a5.872,5.872,0,0,1-.719,1.5,25.776,25.776,0,0,1-5.964,6.007,13.857,13.857,0,0,1-6.383,2.789,1.818,1.818,0,0,0-.676.3c-.579.375-1.062.4-1.437.043s-.4-.848-.021-1.437c.408-.654.869-1.287,1.277-1.942a42.806,42.806,0,0,0,5.643-12.884c.215-.89.386-1.62-.5-2.381-1.008-.88-.622-1.813.751-2.081-.064-.107-.118-.2-.182-.3a41.137,41.137,0,0,1-4.13-8.829,6.985,6.985,0,0,0-.654-1.212c-.257-.429-.569-.837-.815-1.266-.064-.107.021-.311.043-.461a1.446,1.446,0,0,1,.4.14,5.449,5.449,0,0,1,.451.418c.043-.032.1-.064.139-.1a5.775,5.775,0,0,0-.333-.687,15.829,15.829,0,0,1-2.167-4.742c-.493-2.006-.622-3.991.687-5.8-1.3-2.113-1.588-3.293-1.255-5.235-.086-.021-.172-.054-.268-.075a60.89,60.89,0,0,1-15.576-4.763c-4.7-2.242-9.215-4.742-12.819-8.453-1.8.837-3.583,1.695-5.385,2.478-2.1.912-2.07.89-2.553,3.154a20.569,20.569,0,0,1-1.234,4.345,21.335,21.335,0,0,0-1.309,3.637c-.9,3.69-1.759,7.38-2.693,11.06a33.385,33.385,0,0,0-1.319,6.479,12,12,0,0,0,.558,5.224,12.858,12.858,0,0,1,.4,1.395,6.685,6.685,0,0,1-2.07,7.134,13.787,13.787,0,0,1-1.395,1.234c-1.888,1.395-3.744,2.843-5.718,4.119a32.1,32.1,0,0,0-5.171,4.849,2.489,2.489,0,0,0-.172,3.175c1.6,1.8,3.272,3.529,4.892,5.31a18.387,18.387,0,0,1,2.038,2.446,4.439,4.439,0,0,1-.3,5.417c-.311.418-.654.815-.976,1.234a.838.838,0,0,0-.011,1.2,3.9,3.9,0,0,1,.611.987,1.424,1.424,0,0,0,.987.815,25.307,25.307,0,0,0,6.694,1.083c.89.011,1.781.075,2.671.118a6.654,6.654,0,0,1-2.038.912,14.836,14.836,0,0,1-5.7-.515c-1.223-.257-1.223-.279-1.759.88-.043.086-.075.182-.118.268-.665,1.6-.172,2.414,1.545,3.218.107.043.225.054.333.086a1.25,1.25,0,0,1,.88,1.234,8.967,8.967,0,0,0,.236,1.695,5.671,5.671,0,0,1-.622,4.7,19.229,19.229,0,0,0-1.277,2.414,6.737,6.737,0,0,0,.365,6.511,3.517,3.517,0,0,0,1.577,1.405,7.4,7.4,0,0,0,2.821.472c2.435.139,4.86.483,7.305.622a73.359,73.359,0,0,0,16.295-.987c2.886-.483,5.761-1.03,8.657-1.48a29.227,29.227,0,0,0,7.563-1.974c1.148-.515,2.285-1.073,3.476-1.47a12.018,12.018,0,0,0,3.948-2.4c.472-.4.933-.815,1.416-1.212a30.767,30.767,0,0,0,5.7-6.5c.44-.633.4-.665.869-.075a.2.2,0,0,0,.129.086c.494.054.418.4.311.7a18.19,18.19,0,0,1-.912,2.381,37.681,37.681,0,0,1-8.679,11.146,31.3,31.3,0,0,1-4.119,2.811c-.912.579-1.9,1.051-2.639,1.448-.139,2.617-.139,5.01-.418,7.37a100.322,100.322,0,0,1-2.693,12.787C811.935,1562.043,811.366,1564.113,810.8,1566.28Zm61.994-20.811c-.225-.547-.375-1.008-.59-1.437a55.009,55.009,0,0,0-5.267-8.357c-.247-.343-.526-.279-.815-.193-1.405.375-2.8.772-4.194,1.169-.837.236-1.706.4-2.51.708-1.019.408-2,.933-2.993,1.405a195,195,0,0,0-19.974,10.974c-6.769,4.194-13.044,9.108-19.449,13.828-3.637,2.682-7.123,5.578-11,7.928-.129.075-.215.225-.343.311a5.428,5.428,0,0,1-1.352.837,1.77,1.77,0,0,0-1.083.762l-5.053,7.756a3.017,3.017,0,0,0-.129.322c.29-.172.472-.268.644-.375,1.287-.794,2.542-1.641,3.862-2.381q10.6-5.889,21.24-11.736a384.533,384.533,0,0,1,36.334-17.808,49.7,49.7,0,0,1,9.912-3.272C870.9,1545.726,871.783,1545.619,872.791,1545.469Z" fill="#311d48"/>
              <path id="Trazado_906160" data-name="Trazado 906160" d="M822.076,1456.167a24.524,24.524,0,0,0,7.981,4.817c.955.375,1.942.676,2.918,1.008.429.15.912.15,1.169.654.064.118.418.107.633.118a8.011,8.011,0,0,1,1.137.043c.89.182,1.77.44,2.65.644a3.4,3.4,0,0,0,.579.075,1.154,1.154,0,0,0,1.2-.74,1.1,1.1,0,0,0-.4-1.395,7.9,7.9,0,0,0-1.759-.869c-2.092-.7-4.237-1.266-6.318-2.017a23.641,23.641,0,0,1-8.013-4.634,7.886,7.886,0,0,1-2.424-3.873c.9.1,1.781.193,2.66.279a39.841,39.841,0,0,0,11.94-.558,46.7,46.7,0,0,0,12.283-4.409c3.422-1.77,6.8-3.658,10.191-5.492.408-.214.751-.493.536-1.008-.215-.493-.654-.515-1.094-.343-1.974.74-3.98,1.416-5.911,2.263a53.617,53.617,0,0,1-6.9,2.07c-1.8.526-3.626.955-5.417,1.545q3.814-.837,7.627-1.663c.011.032.021.064.032.107-.322.15-.644.311-.976.451a56.815,56.815,0,0,1-12.412,4.066,38.721,38.721,0,0,1-10.384.429,58.37,58.37,0,0,1-13.774-2.714,61.917,61.917,0,0,1-16.81-8.882,5.647,5.647,0,0,1-.665-.569.683.683,0,0,1-.15-.375c-.021-.343-.011-.7-.011-1.158,1.373-.408,2.875-.923,4.409-1.319,5.256-1.33,10.491-2.768,15.791-3.883a76.5,76.5,0,0,1,10.363-1.362c3.787-.268,7.606-.311,11.4-.236,2.725.054,5.45.472,8.174.708,1.287.118,2.585.2,3.873.29.612.043,1.223.064,1.845.054a14.084,14.084,0,0,0-4.205-1.674,85.245,85.245,0,0,0-15.158-.794,122.051,122.051,0,0,0-24.609,3.4c-4.119,1.019-8.282,1.867-12.358,3.025-2.521.719-4.913,1.888-7.37,2.832a102.149,102.149,0,0,1-11.9,4.162,20.916,20.916,0,0,1-13.238-.9,3.8,3.8,0,0,1-.365-.172c-.032-.011-.054-.054-.129-.129.558.086,1.062.172,1.566.225a13.159,13.159,0,0,0,10.792-3.776c1.244-1.158,2.371-2.457,3.5-3.733,2.6-2.939,5.085-5.975,7.745-8.85a35.049,35.049,0,0,1,10.792-7.9,74.763,74.763,0,0,1,9.29-3.991,30.766,30.766,0,0,1,13.57-1.148c5.417.719,10.856,1.341,16.252,2.178,3.208.5,6.361,1.373,9.547,2.017a80.444,80.444,0,0,1,16.542,5.407,24.711,24.711,0,0,1,10.642,8.325l3.54,5.052a5.634,5.634,0,0,0,.429.5c.172-.15.311-.257.461-.375.043.075.086.139.129.2.021-.032.064-.064.064-.1.129-.9.311-1.8.354-2.7a13.341,13.341,0,0,0-.182-1.952c-.075-.74-.15-1.48-.225-2.231a1.2,1.2,0,0,0,.172-.075c.172.214.365.408.515.633a23.606,23.606,0,0,1,3.422,8.646c.236,1.212.279,2.467.515,3.68a3.37,3.37,0,0,0,.687,1.437,46.015,46.015,0,0,1,8.26,16.413,60.573,60.573,0,0,1,2.542,16.692,54.641,54.641,0,0,1-1.094,10.406c-.569,3.068-1.051,6.168-1.91,9.161a61.755,61.755,0,0,1-6.833,14.857c-1.759,2.907-3.583,5.771-5.214,8.743a27.127,27.127,0,0,0-2.081,5.106,4.12,4.12,0,0,0,.9,3.98,1.961,1.961,0,0,0,2.285.687,6,6,0,0,0,2.853-2.21c.558-.687.751-.708,1.416-.107a3.3,3.3,0,0,1,1.008,2.693,7.252,7.252,0,0,1-2.274,5.01,1.911,1.911,0,0,1-.708.354c-.6.225-.89.665-.74,1.137a.967.967,0,0,0,1.362.493,3.528,3.528,0,0,0,.751-.44c.451-.322.912-.268,1.116.257a2.01,2.01,0,0,1,.129,1.169,6.229,6.229,0,0,1-3.883,4.119,8.323,8.323,0,0,1-4.634.418c-.386-.054-.826-.375-1.2.129-.118-.161-.225-.29-.322-.429-.751-1.083-1.5-2.178-2.231-3.272a1.229,1.229,0,0,1-.215-.569c-.032-.858-.418-1.287-1.277-1.169a26.55,26.55,0,0,0-3.186.633c-1.384.354-2.757.772-4.13,1.2a.576.576,0,0,1-.772-.236c-.494-.719-1.051-1.395-1.5-2.135-.461-.772-.386-1.083.193-1.781a1.738,1.738,0,0,0,.193-2.3,7.383,7.383,0,0,0-2.467-2.349,15.82,15.82,0,0,1-5.16-5.9,20.7,20.7,0,0,1-2.156-6.962,30.949,30.949,0,0,1,.74-12.068,3.042,3.042,0,0,1,1.974-2.328,9.538,9.538,0,0,0,6.125-8.3,17.683,17.683,0,0,0-.4-7.391,11.116,11.116,0,0,0-7.348-7.659,6.528,6.528,0,0,0-4.43.429,12.089,12.089,0,0,0-7.026,6.576.9.9,0,0,1-.268.375c.021-.107.054-.2.075-.311a.487.487,0,0,0-.021-.365c-.215.44-.408.88-.633,1.309a33.116,33.116,0,0,1-9.547,11.264,11.239,11.239,0,0,1-3.6,1.792,38.726,38.726,0,0,0,6.05-16.8c1.126-.386,1.319-1,.547-2.006a42.231,42.231,0,0,1-4.237-7.531c.032-.043.075-.086.107-.129.483.322.976.633,1.438.987,1.073.8,2.113,1.641,3.186,2.435a1.96,1.96,0,0,0,.88.418,1.221,1.221,0,0,0,.9-.257c.268-.3.064-.644-.247-.89a39.958,39.958,0,0,1-6.029-6.383,20.529,20.529,0,0,1-3.851-7.123A7.565,7.565,0,0,1,822.076,1456.167Zm-19.02-19.47c0,.064-.011.118-.011.182a5.632,5.632,0,0,0,.708.172c1.3.215,2.607.408,3.9.644a52.221,52.221,0,0,0,14.954.687c4.269-.429,8.518-1.2,12.766-1.866,3.637-.569,7.252-1.255,10.9-1.781,3.261-.472,6.533-.848,9.816-1.158,2.146-.2,4.3-.225,6.447-.333.182-.011.375,0,.558,0-1.641-.268-3.283-.418-4.913-.6a25.5,25.5,0,0,0-3.454-.418,62.694,62.694,0,0,0-7.777.483c-5.686.869-11.36,1.867-17,2.95a69.658,69.658,0,0,1-14.589,1.63c-3.7-.075-7.4-.3-11.1-.461A11.1,11.1,0,0,1,803.056,1436.7Z" transform="translate(0.351 0.146)" fill="#2d2e83"/>
              <path id="Trazado_906161" data-name="Trazado 906161" d="M810.188,1564.248c.569-2.167,1.137-4.237,1.652-6.318a100.328,100.328,0,0,0,2.693-12.787c.279-2.36.279-4.752.418-7.37.729-.4,1.716-.869,2.639-1.448a31.3,31.3,0,0,0,4.119-2.811,38.036,38.036,0,0,0,8.679-11.146,19.843,19.843,0,0,0,.912-2.381c.107-.3.172-.633-.311-.7a.251.251,0,0,1-.129-.086c-.472-.59-.429-.569-.869.075a30.774,30.774,0,0,1-5.7,6.5c-.483.4-.944.815-1.416,1.212a12.2,12.2,0,0,1-3.948,2.4c-1.191.4-2.328.965-3.476,1.47a29.339,29.339,0,0,1-7.563,1.974c-2.9.44-5.771,1-8.657,1.48a72.735,72.735,0,0,1-16.295.987c-2.435-.15-4.86-.483-7.305-.622a7.4,7.4,0,0,1-2.821-.472,3.454,3.454,0,0,1-1.577-1.405,6.737,6.737,0,0,1-.365-6.511,18.512,18.512,0,0,1,1.277-2.414,5.666,5.666,0,0,0,.622-4.7,8.171,8.171,0,0,1-.236-1.695,1.262,1.262,0,0,0-.88-1.234c-.107-.043-.236-.043-.333-.086-1.716-.794-2.2-1.62-1.545-3.218.032-.086.075-.182.118-.268.526-1.148.536-1.137,1.759-.88a14.834,14.834,0,0,0,5.7.515,6.771,6.771,0,0,0,2.038-.912c-.89-.043-1.781-.107-2.671-.118a25.307,25.307,0,0,1-6.694-1.083,1.424,1.424,0,0,1-.987-.815,4.1,4.1,0,0,0-.611-.987.838.838,0,0,1,.011-1.2c.322-.408.665-.8.976-1.234a4.439,4.439,0,0,0,.3-5.417,17.6,17.6,0,0,0-2.038-2.446c-1.62-1.781-3.293-3.508-4.892-5.31a2.489,2.489,0,0,1,.172-3.175,31.234,31.234,0,0,1,5.171-4.849c1.963-1.276,3.83-2.725,5.718-4.119a16.834,16.834,0,0,0,1.395-1.234,6.679,6.679,0,0,0,2.07-7.134,12.211,12.211,0,0,0-.4-1.395,11.986,11.986,0,0,1-.558-5.224,34.206,34.206,0,0,1,1.319-6.479c.933-3.68,1.8-7.37,2.693-11.06a21.335,21.335,0,0,1,1.309-3.637,22.14,22.14,0,0,0,1.234-4.345c.483-2.263.451-2.242,2.553-3.154,1.813-.783,3.583-1.641,5.385-2.478,3.6,3.712,8.121,6.211,12.819,8.453a60.88,60.88,0,0,0,15.576,4.763,1.974,1.974,0,0,1,.268.075c-.333,1.931-.043,3.111,1.255,5.235-1.319,1.813-1.18,3.8-.687,5.8a15.831,15.831,0,0,0,2.167,4.742,5.057,5.057,0,0,1,.333.687c-.043.032-.1.064-.139.1a5.469,5.469,0,0,0-.451-.418,1.584,1.584,0,0,0-.4-.14c-.021.161-.107.354-.043.461.247.44.558.837.815,1.266a6.985,6.985,0,0,1,.654,1.212,41.137,41.137,0,0,0,4.13,8.829c.064.1.118.193.182.3-1.362.268-1.759,1.191-.751,2.081.89.772.719,1.491.5,2.381a42.54,42.54,0,0,1-5.643,12.884c-.408.654-.869,1.287-1.277,1.942a1.067,1.067,0,0,0,.021,1.437c.375.354.858.333,1.438-.043a1.818,1.818,0,0,1,.676-.3,13.859,13.859,0,0,0,6.383-2.789,25.574,25.574,0,0,0,5.964-6.007,6.251,6.251,0,0,0,.719-1.5c.418-1.234.794-2.5,1.287-3.722v.386a.649.649,0,0,0,.558.762.635.635,0,0,0,.751-.569,11.461,11.461,0,0,1,2.253-4.291,8.126,8.126,0,0,1,7.434-3.519,5.722,5.722,0,0,1,3.4,1.641,10.557,10.557,0,0,1,3.8,8.121,20.9,20.9,0,0,1-.333,4.978c-.644,2.95-2.617,4.645-5.278,5.739a.718.718,0,0,1-.451.021,1.258,1.258,0,0,0-1.395.461,2.826,2.826,0,0,1-.837.59,21.82,21.82,0,0,0-4.709,2.51,4.248,4.248,0,0,0-1.834,3.637,8.353,8.353,0,0,1-.343,2.349,3.75,3.75,0,0,1-4.055,2.95c-.933-.021-1.867-.15-2.821-.225.386.815.751,1.555,1.867,1.759a5.285,5.285,0,0,0,6.49-4.237,16.074,16.074,0,0,0,.354-2.875,2.082,2.082,0,0,1,.9-1.792c1.116-.708,2.274-1.373,3.411-2.049a1.831,1.831,0,0,0,.107.15c-.279,1.094-.612,2.188-.815,3.3a29.337,29.337,0,0,0,.418,14.461,17.283,17.283,0,0,0,8.228,10.427c.172.1.333.193.493.3.354.236.837.418,1.008.751.139.268-.118.729-.2,1.094a3.3,3.3,0,0,0,.526,2.553c.461.74.987,1.438,1.523,2.188-.268.118-.536.236-.815.354-4.7,2.006-9.086,4.624-13.56,7.08a176.981,176.981,0,0,0-23.954,16.284q-4.1,3.218-8.2,6.437A4.684,4.684,0,0,1,810.188,1564.248Zm-18.473-98.135c.268.075.547.15.815.247a23.349,23.349,0,0,1,6.469,3.969c1.159.966,2.188,2.092,3.261,3.154.279.268.611.483.912.2a1.051,1.051,0,0,0,.236-.858,4.057,4.057,0,0,0-.569-1.33c-.794-1.169-1.577-2.349-2.467-3.443a19.005,19.005,0,0,0-8.55-6.1,8.072,8.072,0,0,0-7.434.923c-.483.322-.944.687-1.437.987a9.091,9.091,0,0,1-1.437.74,1.421,1.421,0,0,1-2.028-.933.9.9,0,0,0-.547-.569c-.129-.043-.375.29-.558.461-.44.408-.2.89-.129,1.352a19.094,19.094,0,0,0,.483,2.617,2.829,2.829,0,0,0,2.757,2.027,7.461,7.461,0,0,0,3.712-.762c2.017-.922,4.1-1.738,6.147-2.585A2.035,2.035,0,0,1,791.715,1466.113Zm50.3,22.892c.343-.783.7-1.738,1.159-2.65a5.489,5.489,0,0,1,2.188-2.124,1.632,1.632,0,0,1,1.931.129,5.4,5.4,0,0,1,1.791,3.229,17.223,17.223,0,0,1,.365,3.508c.043.483.225.9.762.944.558.054.8-.354.88-.826a37.019,37.019,0,0,0,.526-4.194,8.2,8.2,0,0,0-1.03-4.076,3.356,3.356,0,0,0-2.446-1.877,4.7,4.7,0,0,0-4.9,2.07,31.74,31.74,0,0,0-2.146,3.776c-.493.923-.837,1.92-1.362,2.811a2.157,2.157,0,0,1-3.272.611c-.1-.075-.29-.129-.354-.075-.1.075-.215.29-.172.365a2.879,2.879,0,0,0,.729,1.041,3.874,3.874,0,0,0,2.971.429,2.669,2.669,0,0,0,2.017-1.781,7.9,7.9,0,0,1,1.169,1.1,1.215,1.215,0,0,1,.15,1.008.754.754,0,0,0,.3.987,1.214,1.214,0,0,0,1,.107,1.5,1.5,0,0,0,.644-.837,1.976,1.976,0,0,0-.622-2.22A24.781,24.781,0,0,0,842.016,1489.005Zm-55.482-10.4a.2.2,0,0,0-.139.054c-.193.2-.386.408-.569.622a3.643,3.643,0,0,0,.729.311,6.727,6.727,0,0,0,1.137.14,3.033,3.033,0,0,0,.622-.043,4.948,4.948,0,0,1,.676-.118c2.875.011,5.75.032,8.614.043,1.223,0,2.446-.011,3.669-.054.418-.011.826-.161.88-.676.043-.493-.322-.665-.719-.762-.847-.214-1.695-.408-2.532-.644a13.213,13.213,0,0,1-4.935-2.081c-1.019-.8-2.135-1.48-3.186-2.231a8.542,8.542,0,0,0-3.991-1.459,6.961,6.961,0,0,0-3.583.547.594.594,0,0,0-.386.848c.161.375.483.408.837.3.129-.043.247-.1.375-.15a5.348,5.348,0,0,1,3.486-.161,11.953,11.953,0,0,0-.794,1.18,2.41,2.41,0,0,0-.172.965C786.523,1476.326,786.534,1477.431,786.534,1478.61Zm-19.588,16.134c.054.493-.054,1.03.172,1.287a24.2,24.2,0,0,0,2.306,2.263.77.77,0,0,0,.729-.043.818.818,0,0,0,.2-.751,9.784,9.784,0,0,0-1.137-1.513c-.268-.3-.708-.451-.933-.772C767.932,1494.734,767.493,1494.745,766.946,1494.745Zm26.84-21.015c.021-.011.043-.032.064-.043-.6-.547-1.234-1.051-1.791-1.631a7.734,7.734,0,0,0-7.52-2.156c-.1.021-.172.118-.257.182.086.086.15.247.247.257a4.331,4.331,0,0,0,.987,0,7.266,7.266,0,0,1,5.3,1.491C791.758,1472.517,792.788,1473.1,793.786,1473.729Z" transform="translate(0.61 2.032)" fill="#b9d9f2"/>
              <path id="Trazado_906162" data-name="Trazado 906162" d="M869.8,1536.733c-1,.15-1.877.257-2.757.418a49.7,49.7,0,0,0-9.912,3.272,387.182,387.182,0,0,0-36.334,17.808q-10.636,5.841-21.24,11.736c-1.319.729-2.575,1.588-3.862,2.381-.172.107-.354.2-.644.375a3.031,3.031,0,0,1,.129-.322l5.053-7.756a1.782,1.782,0,0,1,1.083-.762,5.429,5.429,0,0,0,1.352-.837c.129-.086.215-.225.343-.311,3.873-2.349,7.359-5.246,11-7.928,6.4-4.72,12.68-9.633,19.449-13.828a192.05,192.05,0,0,1,19.974-10.974c1-.472,1.974-1,2.993-1.405a21.7,21.7,0,0,1,2.51-.708c1.395-.386,2.8-.783,4.194-1.169.29-.075.569-.139.815.193a56.732,56.732,0,0,1,5.267,8.357C869.413,1535.724,869.573,1536.186,869.8,1536.733Z" transform="translate(2.993 8.736)" fill="#86b9e5"/>
              <path id="Trazado_906163" data-name="Trazado 906163" d="M800.051,1435.094c.4.043.794.107,1.191.129,3.7.161,7.4.4,11.1.461a69.666,69.666,0,0,0,14.589-1.631c5.643-1.094,11.317-2.092,17-2.95a62.67,62.67,0,0,1,7.777-.483,25.293,25.293,0,0,1,3.454.418c1.631.182,3.272.333,4.913.6-.182,0-.375-.011-.558,0-2.146.107-4.312.129-6.447.333-3.283.311-6.554.687-9.816,1.158-3.647.526-7.263,1.212-10.9,1.781-4.248.665-8.485,1.437-12.766,1.866a52.6,52.6,0,0,1-14.954-.687c-1.3-.247-2.607-.429-3.9-.644-.236-.043-.472-.118-.708-.172A.938.938,0,0,0,800.051,1435.094Z" transform="translate(3.355 1.749)" fill="#311d48"/>
              <path id="Trazado_906164" data-name="Trazado 906164" d="M790.641,1464.287a2.8,2.8,0,0,0-.354.1c-2.049.858-4.13,1.663-6.147,2.585a7.436,7.436,0,0,1-3.712.762,2.829,2.829,0,0,1-2.757-2.027,20.874,20.874,0,0,1-.483-2.617c-.075-.461-.311-.944.129-1.352.182-.172.429-.5.558-.461a.953.953,0,0,1,.547.569,1.41,1.41,0,0,0,2.028.933,9.116,9.116,0,0,0,1.438-.74c.493-.3.955-.665,1.438-.987a8.072,8.072,0,0,1,7.434-.923,18.811,18.811,0,0,1,8.55,6.1c.89,1.094,1.673,2.274,2.467,3.443a3.965,3.965,0,0,1,.569,1.33,1.073,1.073,0,0,1-.236.858c-.3.279-.633.075-.912-.2-1.073-1.062-2.1-2.188-3.261-3.154a23.6,23.6,0,0,0-6.469-3.969C791.188,1464.426,790.909,1464.362,790.641,1464.287Z" transform="translate(1.684 3.859)" fill="#311d48"/>
              <path id="Trazado_906165" data-name="Trazado 906165" d="M837.024,1485.853a20.013,20.013,0,0,1,2.253,1.48,2.015,2.015,0,0,1,.622,2.22,1.5,1.5,0,0,1-.644.837,1.175,1.175,0,0,1-1-.107.754.754,0,0,1-.3-.987,1.21,1.21,0,0,0-.15-1.008,7.381,7.381,0,0,0-1.169-1.1,2.67,2.67,0,0,1-2.017,1.781,3.827,3.827,0,0,1-2.971-.429,2.789,2.789,0,0,1-.729-1.041c-.043-.075.075-.29.172-.365.075-.054.268.011.354.075a2.148,2.148,0,0,0,3.272-.611c.536-.89.88-1.888,1.362-2.811a35.3,35.3,0,0,1,2.146-3.776,4.664,4.664,0,0,1,4.9-2.07,3.331,3.331,0,0,1,2.446,1.877,8.142,8.142,0,0,1,1.03,4.077,37.005,37.005,0,0,1-.526,4.194c-.075.472-.322.869-.88.826s-.719-.472-.762-.944a17.921,17.921,0,0,0-.365-3.508,5.38,5.38,0,0,0-1.791-3.229,1.631,1.631,0,0,0-1.931-.129,5.418,5.418,0,0,0-2.188,2.124C837.722,1484.1,837.357,1485.07,837.024,1485.853Z" transform="translate(5.601 5.185)" fill="#311d48"/>
              <path id="Trazado_906166" data-name="Trazado 906166" d="M785.147,1476.092c0-1.18-.011-2.285.011-3.379a2.412,2.412,0,0,1,.172-.965,9.089,9.089,0,0,1,.794-1.18,5.348,5.348,0,0,0-3.486.161,2.736,2.736,0,0,1-.375.15c-.354.107-.676.064-.837-.3a.6.6,0,0,1,.386-.848,6.961,6.961,0,0,1,3.583-.547,8.5,8.5,0,0,1,3.991,1.459c1.062.751,2.178,1.427,3.186,2.231a13.362,13.362,0,0,0,4.935,2.081c.837.236,1.684.429,2.532.644.4.107.762.268.719.762-.043.515-.451.665-.88.676-1.223.043-2.446.054-3.669.054-2.875-.011-5.75-.032-8.614-.043a4.946,4.946,0,0,0-.676.118,3.033,3.033,0,0,1-.622.043,8.235,8.235,0,0,1-1.137-.14,3.919,3.919,0,0,1-.729-.311c.193-.2.375-.418.569-.622A.309.309,0,0,1,785.147,1476.092Zm9.108-.429.032-.161c-2.36-.837-3.819-3.014-6.05-3.991-.075,1.416-.15,2.832-.215,4.152Z" transform="translate(1.997 4.551)" fill="#311d48"/>
              <path id="Trazado_906167" data-name="Trazado 906167" d="M766.63,1490.66c.547,0,.987,0,1.341.472.225.311.665.472.933.772a9.611,9.611,0,0,1,1.137,1.513.855.855,0,0,1-.2.751.74.74,0,0,1-.729.043,21.873,21.873,0,0,1-2.306-2.263C766.576,1491.69,766.684,1491.143,766.63,1490.66Z" transform="translate(0.925 6.117)" fill="#311d48"/>
              <path id="Trazado_906168" data-name="Trazado 906168" d="M792.3,1471.343c-1-.633-2.027-1.212-2.982-1.9a7.364,7.364,0,0,0-5.3-1.491,4.331,4.331,0,0,1-.987,0c-.086-.011-.161-.172-.247-.257.086-.064.161-.161.257-.182a7.71,7.71,0,0,1,7.52,2.156c.558.579,1.191,1.094,1.791,1.631C792.338,1471.311,792.317,1471.322,792.3,1471.343Z" transform="translate(2.1 4.419)" fill="#311d48"/>
              <path id="Trazado_906169" data-name="Trazado 906169" d="M793.8,1475.5H787.57c.064-1.319.139-2.736.215-4.152,2.231.976,3.69,3.154,6.05,3.991Z" transform="translate(2.449 4.712)" fill="#fff"/>
            </g>
            <g id="Grupo_1104340" data-name="Grupo 1104340" transform="translate(-620.895 -1387.146)">
              <path id="Trazado_906170" data-name="Trazado 906170" d="M681.5,1601.9H602.82c-.03-.15-.07-.29-.09-.44a84.988,84.988,0,0,1-.26-14.53c.24-4.04.62-8.07.95-12.1a3.244,3.244,0,0,1,.08-.43c.03.01.06.01.09.02.09.69.18,1.37.27,2.06a.936.936,0,0,0,.08-.45c0-1.71-.13-3.42.03-5.11.25-2.6.65-5.19,1.09-7.77a61.572,61.572,0,0,1,2.46-9.54,35.867,35.867,0,0,1,15.85-19.94c3.05-1.83,6.18-3.53,9.31-5.22a94.89,94.89,0,0,0,9.98-5.75,17.424,17.424,0,0,0,4.63-4.47,7.711,7.711,0,0,0,1.03-6.98,19.887,19.887,0,0,0-1.64-3.65,45.694,45.694,0,0,0-6.1-8.13c-3.59-3.95-7.27-7.81-10.89-11.73a77.373,77.373,0,0,1-8.92-11.27,40.686,40.686,0,0,1-6.6-20.65,62.181,62.181,0,0,1,2.09-17.9,45.347,45.347,0,0,1,18.83-26.79,90.417,90.417,0,0,1,34.37-14.34c4.41-.83,8.84-1.6,13.28-2.21a94.143,94.143,0,0,1,9.48-.79c4.29-.15,8.6-.1,12.89-.12,2.21-.01,4.41-.01,6.62,0a5.455,5.455,0,0,1,.89.13c.2.03.4.08.65.13.49.8.98,1.71,1.57,2.56a13.407,13.407,0,0,1,2.29,6.03c.26,2.14.4,4.29.55,6.44a39.188,39.188,0,0,1-.77,10.81,42.825,42.825,0,0,1-13.29,23c-.34.31-.7.6-1.06.91a.336.336,0,0,0-.05-.08c.13-.31.27-.61.39-.92a69.3,69.3,0,0,0,4.44-18.32,10.607,10.607,0,0,0-1.23-6.63.591.591,0,0,1-.06-.14c-.06-.1-.12-.19-.18-.29a.487.487,0,0,1-.07.03c.05.26.09.52.14.77-.05-.02-.09-.04-.14-.06-.18.29-.4.56-.55.86a5.44,5.44,0,0,0-.25.81,70.959,70.959,0,0,1-2.96,9.13,39.191,39.191,0,0,1-7.44,10.99c-2.02,2.18-4.21,4.21-6.29,6.34a17.243,17.243,0,0,0-1.7,2.03c-.54.76-.4,1.21.4,1.73-.53.37-1.06.73-1.58,1.09a.618.618,0,0,0-.23.94.8.8,0,0,1,.12.52,12.786,12.786,0,0,1-.37,1.96,17.34,17.34,0,0,1-3.93,6.34,24.057,24.057,0,0,1-7.25,5.78c-.17.08-.35.15-.59.25,0-.34.02-.61,0-.88a7.461,7.461,0,0,0-.86-3.25,14.983,14.983,0,0,1-.94-2.3,27.1,27.1,0,0,0-1.25-3.1,21.924,21.924,0,0,0-5.31-6.35,11.27,11.27,0,0,0-4.51-2.31c-3.03-.76-5.21.13-6.79,2.83a9.01,9.01,0,0,0-.81,1.72,24.311,24.311,0,0,0-1.04,10.28c.52,5.3,3.44,9.22,7.12,12.67a54.4,54.4,0,0,0,5.52,4.02,19.932,19.932,0,0,0-1.08,1.75,4.6,4.6,0,0,0,4.16,6.55,6.871,6.871,0,0,0,3.64-1.05,33.283,33.283,0,0,1,3.53,7.47c-.32-.2-.52-.32-.7-.44a7.749,7.749,0,0,1,1.04,1.59,19.783,19.783,0,0,1,.25,12.45c-1,3.33-2.35,6.53-3.67,9.74a46.026,46.026,0,0,0-3.54,12.27.671.671,0,0,1-.24.4.586.586,0,0,0-.13.84,1.068,1.068,0,0,1,.17.53c-.05,1.89-.12,3.77-.2,5.66a.721.721,0,0,1-.16.47c-.32.28-.26.52-.06.83a1.651,1.651,0,0,1,.27.66c.3,2.18.46,4.39.9,6.54a27.5,27.5,0,0,0,6.61,13.35,18.188,18.188,0,0,0,9.33,5.75,6.687,6.687,0,0,0,4.79-.44,2.911,2.911,0,0,0,1.76-2.76,3.024,3.024,0,0,0-1.97-2.73c-.31-.15-.65-.25-1.03-.39.31-.07.56-.22.77-.17a6.892,6.892,0,0,1,2.89,1.43,3.04,3.04,0,0,1,1.1,1.68c.2.88.48,1.74.67,2.62a11.241,11.241,0,0,1,.48,3,9.911,9.911,0,0,1-2.34,6.1c-.27.3-.53.6-.79.91a2.414,2.414,0,0,0-.2.28.506.506,0,0,1,.08.07c1.09-.95,2.18-1.91,3.31-2.9,0,.14.01.24,0,.33-.16,1.07-.3,2.15-.49,3.22a9.842,9.842,0,0,1-6.97,8.1c-1.26.42-2.56.76-3.85,1.1-1.73.45-3.47.83-5.19,1.32a4.021,4.021,0,0,0-1.45.85,1.234,1.234,0,0,0,.05,2.03,3.392,3.392,0,0,0,.99.58,17.2,17.2,0,0,0,2,.63c1.29.33,2.61.55,3.89.93a2.74,2.74,0,0,1,2.02,2.48,6.934,6.934,0,0,1-.37,2.9A15.722,15.722,0,0,1,681.5,1601.9Z" fill="#d30c4d"/>
              <path id="Trazado_906171" data-name="Trazado 906171" d="M743.92,1469.23c-.32,2.15-1.91,3.54-3.12,5.16-.67.9-1.37,1.78-1.98,2.71a4.792,4.792,0,0,0,.48,5.62,5.031,5.031,0,0,1,1.35,3.36v.15c.43,2.88-1.24,4.54-3.44,5.89-.3.18-.6.36-.9.55.21.54.44,1.03.6,1.55a3.337,3.337,0,0,1-2.66,4.6c-.34.07-.54.19-.51.53a4.606,4.606,0,0,0,.21,1.4c.36.84.84,1.63,1.27,2.44a8.67,8.67,0,0,1,.62,6.47,5.894,5.894,0,0,1-2.38,3.14,15.456,15.456,0,0,1-5.66,2.45,33.907,33.907,0,0,1-13.27.7,69.26,69.26,0,0,1-14.78-3.9c-.2-.08-.41-.15-.59-.21-.96,1.56-1.92,3.1-2.86,4.65a80.189,80.189,0,0,0-8.21,18.21c-.41,1.34-.65,2.72-.95,4.09a.5.5,0,0,0,.22.41c.96.61,1.93,1.19,2.89,1.81a1.965,1.965,0,0,1,.63.62.842.842,0,0,1-.39,1.19.415.415,0,0,0-.25.51c.23,1.55.45,3.11.68,4.66a.748.748,0,0,0,.22.42,89.692,89.692,0,0,1,13.34,15.06,198.66,198.66,0,0,1,21.7,37.91,5.218,5.218,0,0,1,.18.56h-3.51a1.57,1.57,0,0,0-.09-.23,188.716,188.716,0,0,0-14.14-27.35,163.765,163.765,0,0,0-14.48-20.31q-1.77-2.04-3.56-4.09a1.415,1.415,0,0,1-1.45.16c-1.28-.44-2.58-.82-3.82-1.34a86.061,86.061,0,0,1-9.97-5.35c-1.42-.84-2.9-1.59-4.37-2.34-.57-.29-1.18-.5-1.9-.79.17,1.36.29,2.61.49,3.84a29.535,29.535,0,0,0,3.72,10.71,19.656,19.656,0,0,0,8.28,8,10.4,10.4,0,0,0,4.25,1.21,4.3,4.3,0,0,0,2.73-.64,1.221,1.221,0,0,0,.36-1.83,7.208,7.208,0,0,0-1.1-1.03c-.74.96-1.18,1.12-2.14.82a5.491,5.491,0,0,1-.8-.41c-.54-.28-.58-.45-.31-.98a2.572,2.572,0,0,1,2.26-1.49v-.56l.47-.03a7.406,7.406,0,0,1,6.58,2.81,9.9,9.9,0,0,1,1.82,7.35,14.68,14.68,0,0,0-.3,1.82,33.962,33.962,0,0,1-.55,6.98,11.6,11.6,0,0,1-6.47,8.76,26.859,26.859,0,0,1-8.42,2.28c-.85.12-1.69.26-2.53.39,0,.06-.01.12-.01.17.43.15.85.34,1.3.45,1.43.35,2.87.62,4.29,1,2.63.7,3.7,2.73,3.48,5.4a13.339,13.339,0,0,1-2.3,6.18,4.3,4.3,0,0,0-.24.48h-2.41a15.282,15.282,0,0,0,3.06-5.24,6.8,6.8,0,0,0,.37-2.9,2.74,2.74,0,0,0-2.02-2.48c-1.28-.37-2.6-.6-3.89-.93a19.37,19.37,0,0,1-2-.63,3.528,3.528,0,0,1-.99-.58,1.229,1.229,0,0,1-.05-2.03,4.107,4.107,0,0,1,1.45-.85c1.72-.49,3.46-.87,5.19-1.32,1.29-.34,2.58-.68,3.85-1.1a9.855,9.855,0,0,0,6.97-8.1c.19-1.07.33-2.14.49-3.22.01-.09,0-.18,0-.33-1.13.99-2.22,1.95-3.31,2.9a.506.506,0,0,1-.08-.07c.07-.09.13-.19.2-.28l.79-.91a9.911,9.911,0,0,0,2.34-6.1,11.18,11.18,0,0,0-.48-3c-.18-.88-.46-1.74-.67-2.62a3.059,3.059,0,0,0-1.1-1.68,7.013,7.013,0,0,0-2.89-1.43c-.21-.05-.47.1-.77.17a10.715,10.715,0,0,1,1.03.39,3.039,3.039,0,0,1,1.97,2.73,2.942,2.942,0,0,1-1.76,2.76,6.63,6.63,0,0,1-4.79.44,18.188,18.188,0,0,1-9.33-5.75,27.626,27.626,0,0,1-6.61-13.35c-.44-2.15-.6-4.36-.9-6.54a1.81,1.81,0,0,0-.27-.66c-.2-.31-.26-.56.06-.83a.741.741,0,0,0,.16-.47c.08-1.89.15-3.77.2-5.66a1.038,1.038,0,0,0-.17-.53.578.578,0,0,1,.13-.84.76.76,0,0,0,.24-.4,46.026,46.026,0,0,1,3.54-12.27c1.32-3.21,2.67-6.4,3.67-9.74a19.712,19.712,0,0,0-.25-12.45,8.028,8.028,0,0,0-1.04-1.59c.19.12.38.24.7.44a33.281,33.281,0,0,0-3.53-7.47,7.028,7.028,0,0,1-3.64,1.05,4.6,4.6,0,0,1-4.16-6.55c.31-.62.73-1.19,1.08-1.75a50.879,50.879,0,0,1-5.52-4.02c-3.68-3.44-6.6-7.36-7.12-12.67a24.328,24.328,0,0,1,1.04-10.28,9.3,9.3,0,0,1,.81-1.72c1.58-2.7,3.76-3.59,6.79-2.83a11.268,11.268,0,0,1,4.51,2.31,22.058,22.058,0,0,1,5.31,6.35,27.109,27.109,0,0,1,1.25,3.1,16.067,16.067,0,0,0,.94,2.3,7.461,7.461,0,0,1,.86,3.25,8.551,8.551,0,0,1,0,.88c.24-.1.42-.16.59-.25a24.055,24.055,0,0,0,7.25-5.78,17.34,17.34,0,0,0,3.93-6.34,12.789,12.789,0,0,0,.37-1.96.888.888,0,0,0-.12-.52.619.619,0,0,1,.23-.94c.52-.36,1.04-.72,1.58-1.09-.8-.52-.94-.97-.4-1.73a15.764,15.764,0,0,1,1.7-2.03c2.08-2.12,4.27-4.15,6.29-6.34a39.335,39.335,0,0,0,7.44-10.99,67.987,67.987,0,0,0,2.96-9.13,4.474,4.474,0,0,1,.25-.81,7.82,7.82,0,0,1,.55-.86c.05.02.09.04.14.06-.05-.26-.09-.52-.14-.77a.487.487,0,0,1,.07-.03c.06.1.12.19.18.29a.591.591,0,0,1,.06.14,10.675,10.675,0,0,1,1.23,6.63,69.109,69.109,0,0,1-4.44,18.32c-.12.31-.26.61-.39.92a.589.589,0,0,0,.05.08c.36-.3.72-.59,1.06-.91a42.762,42.762,0,0,0,13.29-23,39.188,39.188,0,0,0,.77-10.81c-.14-2.15-.29-4.3-.55-6.44a13.408,13.408,0,0,0-2.29-6.03c-.58-.85-1.08-1.76-1.57-2.56l-.65-.13a5.3,5.3,0,0,0-.89-.13c-2.21-.01-4.41-.01-6.62,0-4.3.02-8.6-.03-12.89.12a91.076,91.076,0,0,0-9.48.79c-4.44.61-8.87,1.38-13.28,2.21a90.417,90.417,0,0,0-34.37,14.34,45.317,45.317,0,0,0-18.83,26.79,62.888,62.888,0,0,0-2.09,17.9,40.687,40.687,0,0,0,6.6,20.65,76.987,76.987,0,0,0,8.92,11.27c3.62,3.92,7.3,7.78,10.89,11.73a45.218,45.218,0,0,1,6.1,8.13,20.591,20.591,0,0,1,1.64,3.65,7.7,7.7,0,0,1-1.03,6.98,17.423,17.423,0,0,1-4.63,4.47,94.156,94.156,0,0,1-9.98,5.75c-3.13,1.69-6.26,3.39-9.31,5.22a35.834,35.834,0,0,0-15.85,19.94,61.872,61.872,0,0,0-2.46,9.54c-.44,2.58-.84,5.17-1.09,7.77-.16,1.69-.03,3.41-.03,5.11a.9.9,0,0,1-.08.45c-.09-.69-.18-1.37-.27-2.06-.03-.01-.06-.01-.09-.02-.03.14-.06.29-.08.43-.32,4.03-.71,8.06-.95,12.1a87.031,87.031,0,0,0,.26,14.53c.02.15.06.29.09.44h-3.21a85.322,85.322,0,0,1,.09-17.43,121.264,121.264,0,0,1,2.77-17.25,19.1,19.1,0,0,0,.23-2.74,45.247,45.247,0,0,1,3.45-13.18,39.849,39.849,0,0,1,9.38-14.02,51.764,51.764,0,0,1,10.32-7.32c3.36-1.9,6.76-3.72,10.12-5.63a34.686,34.686,0,0,0,6.81-4.85,17.922,17.922,0,0,0,2.32-2.68,5.3,5.3,0,0,0,.62-5.07,20.407,20.407,0,0,0-2.8-5.07,103.768,103.768,0,0,0-8.59-10.13,180.986,180.986,0,0,1-12.35-14.31,50.974,50.974,0,0,1-8.77-18.15,38.654,38.654,0,0,1-1.04-7.94,61.172,61.172,0,0,1,4.04-24.36,46.151,46.151,0,0,1,17.94-22.24,93.568,93.568,0,0,1,30.8-13.36c5.28-1.24,10.64-2.1,16.01-2.84a121.61,121.61,0,0,1,19.17-.84c2.74.06,5.49.02,8.23.08,1.37.03,2.73.23,4.1.26a1.747,1.747,0,0,1,1.46,1.02c.68,1.01,1.35,2.03,2.04,3.08.32-.39.65-.32,1.03-.18a8.6,8.6,0,0,1,3.61,2.46,23.833,23.833,0,0,1,5.4,9.99,26.731,26.731,0,0,1,.51,7.73,25.182,25.182,0,0,1-1.18,6.94,15.933,15.933,0,0,1-1.29,2.58,1.369,1.369,0,0,1-.82.44c-.36.09-.56.34-.39.71.34.75.66,1.5,1.04,2.22a34.649,34.649,0,0,1,3.36,10.39c.48,2.81.77,5.66,1.13,8.49a10.5,10.5,0,0,0,1.04,3.43c.58,1.17,1.14,2.34,1.78,3.48a10.709,10.709,0,0,0,1.35,1.92,24.913,24.913,0,0,0,5.25,4.62c1.57.97,2.99,2.19,4.47,3.31a4.327,4.327,0,0,1,1.67,2.87C743.92,1468.62,743.92,1468.93,743.92,1469.23Zm-72.29,16.91a3.623,3.623,0,0,0,.3.35,9.242,9.242,0,0,1,2.09,2.98q1.185,2.7,2.25,5.46a2.91,2.91,0,0,0,1.21,1.69,30.765,30.765,0,0,1,3.15,2.32,71.153,71.153,0,0,0,19.07,11.1c5.76,2.14,11.53,4.13,17.74,4.5a31.5,31.5,0,0,0,10.72-1.01,13.508,13.508,0,0,0,4.8-2.19,4.594,4.594,0,0,0,1.91-2.79,7.236,7.236,0,0,0-.65-4.77c-.3-.56-.61-1.11-.88-1.68a3.561,3.561,0,0,1-.37-3.1,3.219,3.219,0,0,0-.39-.04,6.053,6.053,0,0,1-3.78-1.52,16.173,16.173,0,0,1-3.11-3.59.6.6,0,0,0-.68-.3c-.81.07-1.62.06-2.44.08-.11,0-.23.04-.34.04h-1.28a3.622,3.622,0,0,1,.63-.81,4.492,4.492,0,0,1,1.04-.48,4.825,4.825,0,0,1,.74-.31,7.742,7.742,0,0,1,.84-.12c-.06.25-.12.49-.17.75a11.745,11.745,0,0,0,3.74-.72,17.637,17.637,0,0,0,8.1-5.91,5.1,5.1,0,0,1,2.66-2.3c-.08-.09-.13-.15-.19-.21a5.678,5.678,0,0,1-.87-6.62c.82-1.22,1.64-2.44,2.5-3.63.64-.9,1.38-1.73,2.01-2.63a2.755,2.755,0,0,0-.61-4.06c-1.42-1.11-2.84-2.24-4.34-3.23a29.755,29.755,0,0,1-4.55-3.84c-2.52-2.48-3.84-5.63-5.16-8.79a2.914,2.914,0,0,1-.21-.82c-.27-2.07-.55-4.14-.79-6.21a40.446,40.446,0,0,0-1.91-8.99c-.77-2.17-1.76-4.25-2.62-6.38a67.7,67.7,0,0,0-3.43-7.51,4.622,4.622,0,0,0-.25-.4,42.469,42.469,0,0,1-5.05,13.27,34.508,34.508,0,0,1-11.11,11.99c-.61.39-1.19.95-2.04.44.09-.14.21-.32.34-.5a9.627,9.627,0,0,0,.83-1.21,15.635,15.635,0,0,0,.78-2,90.2,90.2,0,0,0,4.04-17.93c.12-1.19.13-2.39.18-3.58-.04,0-.08-.01-.12-.01-.05.22-.09.45-.14.67a40.3,40.3,0,0,1-3.28,10.32,47.78,47.78,0,0,1-11.36,14.34c-.97.86-1.96,1.71-2.95,2.57.55.41.58.63.16,1.08a6.623,6.623,0,0,1-.54.52c-.48.4-.98.8-1.46,1.19a4.23,4.23,0,0,1,.01,3.11,18,18,0,0,1-3.83,6.75,22.112,22.112,0,0,1-7.24,5.93,13.8,13.8,0,0,1-2.28.74.693.693,0,0,1-.87-.59c-.13-.83-.31-1.66-.47-2.49a.838.838,0,0,0-.14-.24,1.519,1.519,0,0,1-.25-.49,17.607,17.607,0,0,0-4.74-10.17,13.891,13.891,0,0,0-6.78-4.33c-2.37-.56-3.82.02-5.06,2.13a9.113,9.113,0,0,0-.81,1.77,21.538,21.538,0,0,0-.69,11.12,13.158,13.158,0,0,0,3.43,6.84c.59.59,1.05,1.3,1.61,1.92a10.4,10.4,0,0,0,1.54,1.5c1.46,1.06,2.97,2.05,4.45,3.08.41.29.76.65,1.16.99.44-.27.98-.65,1.55-.95a7.765,7.765,0,0,1,1.8-.74,4.659,4.659,0,0,1,1.96-.1,4.164,4.164,0,0,1,2.81,4.9A9.027,9.027,0,0,1,671.63,1486.14Zm26.56,25.29a60.56,60.56,0,0,1-20.82-12.56c.02.2.03.29.04.37a18.883,18.883,0,0,1,.11,6.23,33.236,33.236,0,0,1-2.12,7.39c-1.27,3.19-2.61,6.36-3.89,9.55a34.465,34.465,0,0,0-2.13,8.42c-.02.17.04.45.15.51a22.721,22.721,0,0,0,3.29,1.69,102.874,102.874,0,0,1,10.85,4.51c.53.25,1.1.44,1.58.64C687.38,1528.19,692.19,1519.57,698.19,1511.43Zm18.09-114.07c.07.17.11.26.15.35a15.119,15.119,0,0,1,1.78,5.7c.26,2.44.51,4.89.57,7.34a61.328,61.328,0,0,1-.27,6.5,4.537,4.537,0,0,0,.55,2.75c1.09,1.97,2.06,4,3.09,6.01.02.03.07.05.16.13.3-.57.58-1.11.87-1.65.05-.1.1-.27.18-.28.42-.08.43-.42.52-.71a29.8,29.8,0,0,0,1.19-7.5,25.043,25.043,0,0,0-.44-6.58,24.776,24.776,0,0,0-4.85-9.63A7.319,7.319,0,0,0,716.28,1397.36ZM669.1,1532.81c-.02,1.88-.03,3.66-.07,5.44a.624.624,0,0,0,.55.72,29.831,29.831,0,0,1,6.48,2.62c1.74.99,3.49,1.98,5.23,2.96a46.75,46.75,0,0,0,7.6,3.69c.13.05.27.08.56.16-.31-2.1-.61-4.09-.92-6.08a.522.522,0,0,0-.26-.27,20.4,20.4,0,0,0-5.13-2.47,49.247,49.247,0,0,1-13.67-6.56C669.39,1532.97,669.3,1532.93,669.1,1532.81Zm-5.57-49.76a5.306,5.306,0,0,0,1.03,3.21,3.044,3.044,0,0,0,2.35,1.02.389.389,0,0,0,.15-.02,7.026,7.026,0,0,0,5.26-4.72,4.044,4.044,0,0,0,.16-2.26,2.878,2.878,0,0,0-3.61-2.41,7.932,7.932,0,0,0-3.76,2.08A4.759,4.759,0,0,0,663.53,1483.05Zm65.08,9.63a3.6,3.6,0,0,1,2.27.23.419.419,0,0,0,.25.01,7.565,7.565,0,0,0,4.16-1.21,2.972,2.972,0,0,1,.74-.41,6.556,6.556,0,0,0,2.82-2.17,2.137,2.137,0,0,0,.6-1.49c-.02-.73.02-1.48-.07-2.2-.04-.39-.19-.93-.47-1.08-.44-.24-.92.08-1.3.42a2.42,2.42,0,0,0-.32.32,18.385,18.385,0,0,0-1.21,1.72,9.654,9.654,0,0,1-2.56,2.91A23.03,23.03,0,0,1,728.61,1492.68Zm6.97.62c-.99.23-1.91.48-2.86.64a6.386,6.386,0,0,1-2.83-.27,10.052,10.052,0,0,0-2.94.06l-.09.18c1,.96,1.94,1.98,3.01,2.86a4.732,4.732,0,0,0,5,.65,1.875,1.875,0,0,0,1.24-1.78A5.2,5.2,0,0,0,735.58,1493.3Zm-48.11,67.18c-.89-.54-1.5-.55-2.07-.04C686.21,1561.02,687.02,1561.04,687.47,1560.48Z" fill="#311d48"/>
              <path id="Trazado_906172" data-name="Trazado 906172" d="M683.91,1601.9a4.3,4.3,0,0,1,.24-.48,13.23,13.23,0,0,0,2.3-6.18c.22-2.66-.85-4.7-3.48-5.4-1.42-.38-2.86-.65-4.29-1-.44-.11-.86-.3-1.3-.45,0-.06.01-.12.01-.17.84-.13,1.69-.27,2.53-.39a26.856,26.856,0,0,0,8.42-2.28,11.6,11.6,0,0,0,6.47-8.76,33.332,33.332,0,0,0,.55-6.98,16.826,16.826,0,0,1,.3-1.82,9.9,9.9,0,0,0-1.82-7.35,7.4,7.4,0,0,0-6.58-2.81c-.15.01-.29.02-.47.03v.56a2.579,2.579,0,0,0-2.26,1.49c-.28.53-.23.7.31.98a5.042,5.042,0,0,0,.8.41c.95.31,1.39.14,2.14-.82a8.986,8.986,0,0,1,1.1,1.03,1.215,1.215,0,0,1-.36,1.83,4.369,4.369,0,0,1-2.73.64,10.2,10.2,0,0,1-4.25-1.21,19.715,19.715,0,0,1-8.28-8,29.6,29.6,0,0,1-3.72-10.71c-.19-1.23-.32-2.48-.49-3.84.72.3,1.34.5,1.9.79,1.47.76,2.95,1.5,4.37,2.34a84.544,84.544,0,0,0,9.97,5.35c1.24.53,2.54.91,3.82,1.34a1.417,1.417,0,0,0,1.45-.16q1.785,2.055,3.56,4.09a163.464,163.464,0,0,1,14.48,20.31,188.716,188.716,0,0,1,14.14,27.35c.03.08.06.16.09.23Q703.39,1601.92,683.91,1601.9Z" fill="#d55e9f"/>
              <path id="Trazado_906174" data-name="Trazado 906174" d="M741.33,1466.6c-1.42-1.11-2.84-2.24-4.34-3.23a29.755,29.755,0,0,1-4.55-3.84c-2.52-2.48-3.84-5.63-5.16-8.79a2.914,2.914,0,0,1-.21-.82c-.27-2.07-.55-4.14-.79-6.21a40.446,40.446,0,0,0-1.91-8.99c-.77-2.17-1.76-4.25-2.62-6.38a67.7,67.7,0,0,0-3.43-7.51,4.622,4.622,0,0,0-.25-.4,42.469,42.469,0,0,1-5.05,13.27,34.508,34.508,0,0,1-11.11,11.99c-.61.39-1.19.95-2.04.44.09-.14.21-.32.34-.5a9.627,9.627,0,0,0,.83-1.21,15.635,15.635,0,0,0,.78-2,90.2,90.2,0,0,0,4.04-17.93c.12-1.19.13-2.39.18-3.58-.04,0-.08-.01-.12-.01-.05.22-.09.45-.14.67a40.3,40.3,0,0,1-3.28,10.32,47.78,47.78,0,0,1-11.36,14.34c-.97.86-1.96,1.71-2.95,2.57.55.41.58.63.16,1.08a6.623,6.623,0,0,1-.54.52c-.48.4-.98.8-1.46,1.19a4.23,4.23,0,0,1,.01,3.11,18,18,0,0,1-3.83,6.75,22.112,22.112,0,0,1-7.24,5.93,14,14,0,0,1-2.27.74.693.693,0,0,1-.87-.59c-.13-.83-.31-1.66-.47-2.49a.838.838,0,0,0-.14-.24,1.519,1.519,0,0,1-.25-.49,17.607,17.607,0,0,0-4.74-10.17,13.891,13.891,0,0,0-6.78-4.33c-2.37-.56-3.82.02-5.06,2.13a9.113,9.113,0,0,0-.81,1.77,21.538,21.538,0,0,0-.69,11.12,13.158,13.158,0,0,0,3.43,6.84c.59.59,1.05,1.3,1.61,1.92a10.4,10.4,0,0,0,1.54,1.5c1.46,1.06,2.97,2.05,4.45,3.08.41.29.76.65,1.16.99.44-.27.98-.65,1.55-.95a7.765,7.765,0,0,1,1.8-.74,4.659,4.659,0,0,1,1.96-.1,4.164,4.164,0,0,1,2.81,4.9,8.5,8.5,0,0,1-1.9,3.89,3.623,3.623,0,0,0,.3.35,9.242,9.242,0,0,1,2.09,2.98q1.185,2.7,2.25,5.46a2.91,2.91,0,0,0,1.21,1.69,30.765,30.765,0,0,1,3.15,2.32,71.153,71.153,0,0,0,19.07,11.1c5.76,2.14,11.53,4.13,17.74,4.5a31.5,31.5,0,0,0,10.72-1.01,13.508,13.508,0,0,0,4.8-2.19,4.594,4.594,0,0,0,1.91-2.79,7.175,7.175,0,0,0-.65-4.77c-.3-.56-.61-1.11-.88-1.68a3.561,3.561,0,0,1-.37-3.1,3.219,3.219,0,0,0-.39-.04,6.053,6.053,0,0,1-3.78-1.52,16.173,16.173,0,0,1-3.11-3.59.6.6,0,0,0-.68-.3c-.81.07-1.62.06-2.44.08-.11,0-.23.04-.34.04h-1.28a3.622,3.622,0,0,1,.63-.81,4.492,4.492,0,0,1,1.04-.48,4.825,4.825,0,0,1,.74-.31,7.742,7.742,0,0,1,.84-.12c-.06.25-.12.49-.17.75a11.745,11.745,0,0,0,3.74-.72,17.637,17.637,0,0,0,8.1-5.91,5.1,5.1,0,0,1,2.66-2.3c-.08-.09-.13-.15-.19-.21a5.694,5.694,0,0,1-.87-6.62c.82-1.22,1.64-2.44,2.5-3.63.64-.9,1.38-1.73,2.01-2.63A2.823,2.823,0,0,0,741.33,1466.6Zm-70.31,3.25a3.377,3.377,0,0,1-1.19.06,20.82,20.82,0,0,1-2.08-.29c-.51-.1-.95-.31-.95-.95a.271.271,0,0,0-.14-.19,3.459,3.459,0,0,0-2.42-.68c-1,.25-1.48.95-1.6,2.27-.04.48-.06.97-.07,1.45a.781.781,0,1,1-1.55.2,5.447,5.447,0,0,1,.33-3.81,3.231,3.231,0,0,1,2.85-1.67c.49-.05.99-.01,1.55-.01-.47-2.76-.94-5.57-3.16-7.66a.809.809,0,0,0-.59-.19,5.31,5.31,0,0,0-3.78,2.7,12.868,12.868,0,0,0-1.41,4.04c-.06.37-.02.9-.6.88-.52-.02-.57-.5-.6-.9a4.966,4.966,0,0,1,.03-1.09c.26-1.92.48-3.84.82-5.74a16.6,16.6,0,0,1,.91-3.26,2.418,2.418,0,0,1,3.66-1.14,5.869,5.869,0,0,1,1.15.96,14.659,14.659,0,0,1,3.69,7.49c.22,1.18.42,2.36.7,3.52a2.9,2.9,0,0,0,3.33,2.5,1.889,1.889,0,0,1,1.47.47A.622.622,0,0,1,671.02,1469.85Zm52.71-21.63a3.985,3.985,0,0,1-.69,1.02,9.652,9.652,0,0,1-3.42,2.03c-.33.12-.66.21-.99.32a15.609,15.609,0,0,1-.82,6.46,1.065,1.065,0,0,1-.43.65v.29c.51.06,1.03.06,1.54.13.16.02.31.18.46.28-.15.1-.29.27-.45.29a8.031,8.031,0,0,1-1.55.02v0a20.586,20.586,0,0,1-3.2-.55,41.925,41.925,0,0,1-7.47-2.71c-.41-.18-.84-.33-1.33-.52.15-.04.24-.06.33-.08a2.079,2.079,0,0,0-1.85-.69,1.505,1.505,0,0,1-.79-.09c-.23-.1-.55-.32-.56-.51a.9.9,0,0,1,.41-.69,2.981,2.981,0,0,1,1.12-.22,24.84,24.84,0,0,0,6.07-1.43,45.2,45.2,0,0,1,7.62-1.65,10.486,10.486,0,0,0,4.75-1.99c.25-.18.45-.45.69-.65a1.777,1.777,0,0,1,.42-.18C723.62,1447.91,723.78,1448.12,723.73,1448.22Zm-5.4-2.46q.48,1.71.93,3.39a2,2,0,0,1,.07.54c-.01.4-.22.54-.59.44-.17-.04-.34-.07-.39-.08a2.983,2.983,0,0,0,.07-.77c-.17-1.02-.36-2.04-.57-3.05-.18-.84-.22-.86-1.02-.64a21.284,21.284,0,0,0-10.33,6.49c-.17.19-.28.45-.46.62a4.882,4.882,0,0,1-.71.48,3.254,3.254,0,0,1,.95-1.96,19.7,19.7,0,0,1,10.66-6.52,3.728,3.728,0,0,1,1.29-.07.926.926,0,0,1,.66.46c.14.35-.22.5-.5.62C718.36,1445.75,718.32,1445.77,718.33,1445.76Zm5.41-3c-.07.43-.78,1.14-1.18,1.14a.741.741,0,0,1-.47-.3c-.21-.28-.35-.6-.54-.9-1.35-2.22-2.71-2.76-5.23-2.13a13.119,13.119,0,0,0-5.13,2.82,41.586,41.586,0,0,1-5.68,4.19c-.54.3-1.1.57-1.66.82a.718.718,0,0,1-.96-.15c-.25-.33-.07-.63.14-.91a40.27,40.27,0,0,1,6.04-6.34,18.357,18.357,0,0,1,5.39-3.51,15.382,15.382,0,0,1,4.12-.98,4.578,4.578,0,0,1,5.04,3.82c.12.52.15,1.06.22,1.51C723.8,1442.2,723.78,1442.48,723.74,1442.76Z" fill="#eca8cc"/>
              <path id="Trazado_906175" data-name="Trazado 906175" d="M698.19,1511.43c-6,8.14-10.81,16.76-12.94,26.74-.48-.19-1.05-.38-1.58-.64a109.251,109.251,0,0,0-10.85-4.51,22.226,22.226,0,0,1-3.29-1.69c-.11-.06-.17-.34-.15-.51a34.466,34.466,0,0,1,2.13-8.42c1.27-3.19,2.62-6.36,3.89-9.55a33.39,33.39,0,0,0,2.12-7.39,18.612,18.612,0,0,0-.11-6.23c-.01-.08-.02-.16-.04-.37A60.433,60.433,0,0,0,698.19,1511.43Z" fill="#eca8cc"/>
              <path id="Trazado_906176" data-name="Trazado 906176" d="M716.28,1397.36a7.2,7.2,0,0,1,3.48,2.41,21.9,21.9,0,0,1,5.29,16.21,29.35,29.35,0,0,1-1.19,7.5c-.09.29-.1.64-.52.71-.07.01-.12.18-.18.28-.29.54-.57,1.08-.87,1.65-.09-.07-.14-.09-.16-.13-1.02-2.01-2-4.04-3.09-6.01a4.537,4.537,0,0,1-.55-2.75,58.88,58.88,0,0,0,.27-6.5c-.06-2.45-.31-4.9-.57-7.34a15.174,15.174,0,0,0-1.78-5.7C716.39,1397.62,716.35,1397.53,716.28,1397.36Z" fill="#d30c4d"/>
              <path id="Trazado_906177" data-name="Trazado 906177" d="M669.1,1532.81c.21.12.29.16.37.21a49.67,49.67,0,0,0,13.67,6.56,20.922,20.922,0,0,1,5.13,2.47c.1.07.24.17.26.27.31,1.99.61,3.98.92,6.08-.29-.08-.42-.12-.56-.16a45.577,45.577,0,0,1-7.6-3.69q-2.625-1.47-5.23-2.96a29.337,29.337,0,0,0-6.48-2.62.624.624,0,0,1-.55-.72C669.07,1536.48,669.07,1534.7,669.1,1532.81Z" fill="#e6007e"/>
              <path id="Trazado_906178" data-name="Trazado 906178" d="M663.53,1483.05a4.836,4.836,0,0,1,1.57-3.1,8.018,8.018,0,0,1,3.76-2.08,2.872,2.872,0,0,1,3.61,2.41,3.867,3.867,0,0,1-.16,2.26,7.026,7.026,0,0,1-5.26,4.72.388.388,0,0,1-.15.02,3.044,3.044,0,0,1-2.35-1.02A5.3,5.3,0,0,1,663.53,1483.05Zm3.4,2.42c.71-.17,1.42-.33,2.12-.53a1.215,1.215,0,0,0,.49-.39c.14-.15.23-.36.38-.5a4.77,4.77,0,0,0,1.57-2.56c.35-1.68-.61-2.64-2.23-2.12a11,11,0,0,0-2.43,1.14,3.955,3.955,0,0,0-1.76,2.42A1.867,1.867,0,0,0,666.93,1485.47Z" fill="#e6007e"/>
              <path id="Trazado_906179" data-name="Trazado 906179" d="M728.61,1492.68a22.577,22.577,0,0,0,4.92-2.96,9.521,9.521,0,0,0,2.56-2.91,18.374,18.374,0,0,1,1.21-1.72,2.42,2.42,0,0,1,.32-.32c.37-.34.86-.66,1.3-.42.28.15.43.7.47,1.08.08.73.04,1.47.07,2.2a2.154,2.154,0,0,1-.6,1.49,6.557,6.557,0,0,1-2.82,2.17,2.684,2.684,0,0,0-.74.41,7.507,7.507,0,0,1-4.16,1.21.423.423,0,0,1-.25-.01A3.707,3.707,0,0,0,728.61,1492.68Z" fill="#e6007e"/>
              <path id="Trazado_906180" data-name="Trazado 906180" d="M735.58,1493.3a5.2,5.2,0,0,1,.52,2.34,1.875,1.875,0,0,1-1.24,1.78,4.773,4.773,0,0,1-5-.65c-1.07-.87-2.01-1.9-3.01-2.86l.09-.18a9.722,9.722,0,0,1,2.94-.06,6.52,6.52,0,0,0,2.83.27C733.67,1493.78,734.6,1493.52,735.58,1493.3Z" fill="#e6007e"/>
              <path id="Trazado_906181" data-name="Trazado 906181" d="M687.47,1560.48c-.46.56-1.26.54-2.07-.04C685.97,1559.92,686.58,1559.94,687.47,1560.48Z" fill="#e6007e"/>
              <path id="Trazado_906183" data-name="Trazado 906183" d="M665.73,1466.22c-.47-2.76-.94-5.57-3.16-7.66a.809.809,0,0,0-.59-.19,5.31,5.31,0,0,0-3.78,2.7,12.868,12.868,0,0,0-1.41,4.04c-.06.37-.02.9-.6.88-.52-.02-.57-.5-.6-.9a4.966,4.966,0,0,1,.03-1.09c.26-1.92.48-3.84.82-5.74a16.6,16.6,0,0,1,.91-3.26,2.418,2.418,0,0,1,3.66-1.14,5.869,5.869,0,0,1,1.15.96,14.659,14.659,0,0,1,3.69,7.49c.22,1.18.42,2.36.7,3.52a2.9,2.9,0,0,0,3.33,2.5,1.889,1.889,0,0,1,1.47.47.614.614,0,0,1-.33,1.05,3.377,3.377,0,0,1-1.19.06,20.82,20.82,0,0,1-2.08-.29c-.51-.1-.95-.31-.95-.95a.271.271,0,0,0-.14-.19,3.459,3.459,0,0,0-2.42-.68c-1,.25-1.48.95-1.6,2.27-.04.48-.06.97-.07,1.45a.781.781,0,1,1-1.55.2,5.447,5.447,0,0,1,.33-3.81,3.231,3.231,0,0,1,2.85-1.67A12.818,12.818,0,0,1,665.73,1466.22Z" fill="#311d48"/>
              <path id="Trazado_906186" data-name="Trazado 906186" d="M666.93,1485.47a1.851,1.851,0,0,1-1.84-2.54,3.955,3.955,0,0,1,1.76-2.42,11,11,0,0,1,2.43-1.14c1.62-.52,2.58.44,2.23,2.12a4.77,4.77,0,0,1-1.57,2.56c-.15.14-.24.35-.38.5a1.215,1.215,0,0,1-.49.39C668.36,1485.14,667.64,1485.3,666.93,1485.47Zm3.89-4.73c-.05-.74-.42-1.09-1.13-.93a8.77,8.77,0,0,0-1.8.57,4.175,4.175,0,0,0-2.29,2.39,1.7,1.7,0,0,0,.05,1.54.712.712,0,0,0,.49.34,5.387,5.387,0,0,0,4.37-2.92A3.946,3.946,0,0,0,670.82,1480.74Z" fill="#311d48"/>
              <g id="Grupo_1104706" data-name="Grupo 1104706">
                <path id="Trazado_906173" data-name="Trazado 906173" d="M716.22,1458.05a12.383,12.383,0,0,1-.63-4.44v-.41c-3.18.65-6.38,1.31-9.68,1.99a15.756,15.756,0,0,0,2.28,1.36,40.924,40.924,0,0,0,8.98,2.4,1.491,1.491,0,0,0,.21.02v-.29a.753.753,0,0,1-.35.08C716.57,1458.76,716.37,1458.42,716.22,1458.05Z" fill="#fff"/>
                <path id="Trazado_906182" data-name="Trazado 906182" d="M723.84,1441.83c-.04.37-.06.65-.1.93-.07.43-.78,1.14-1.18,1.14a.741.741,0,0,1-.47-.3c-.21-.28-.35-.6-.54-.9-1.35-2.22-2.71-2.76-5.23-2.13a13.119,13.119,0,0,0-5.13,2.82,41.586,41.586,0,0,1-5.68,4.19c-.54.3-1.1.57-1.66.82a.718.718,0,0,1-.96-.15c-.25-.33-.07-.63.14-.91a40.27,40.27,0,0,1,6.04-6.34,18.357,18.357,0,0,1,5.39-3.51,15.382,15.382,0,0,1,4.12-.98,4.578,4.578,0,0,1,5.04,3.82C723.74,1440.84,723.77,1441.38,723.84,1441.83Z" fill="#311d48"/>
                <path id="Trazado_906184" data-name="Trazado 906184" d="M718.63,1451.58a15.609,15.609,0,0,1-.82,6.46c-.12.37-.3.74-.78.73-.45-.01-.66-.36-.8-.73a12.383,12.383,0,0,1-.63-4.44v-.41c-3.18.65-6.38,1.31-9.68,1.99a15.756,15.756,0,0,0,2.28,1.36,40.924,40.924,0,0,0,8.98,2.4c.58.09,1.17.08,1.75.15.16.02.31.18.46.28-.15.1-.29.27-.45.29a14.116,14.116,0,0,1-4.75-.53,41.925,41.925,0,0,1-7.47-2.71c-.41-.18-.84-.33-1.33-.52.15-.04.24-.06.33-.08a2.079,2.079,0,0,0-1.85-.69,1.505,1.505,0,0,1-.79-.09c-.23-.1-.55-.32-.56-.51a.9.9,0,0,1,.41-.69,2.981,2.981,0,0,1,1.12-.22,24.84,24.84,0,0,0,6.07-1.43,45.2,45.2,0,0,1,7.62-1.65,10.486,10.486,0,0,0,4.75-1.99c.25-.18.45-.45.69-.65a1.777,1.777,0,0,1,.42-.18c.06.16.22.37.17.47a3.985,3.985,0,0,1-.69,1.02,9.652,9.652,0,0,1-3.42,2.03C719.29,1451.38,718.95,1451.48,718.63,1451.58Zm-.92,2.6h.02c.05-.7.1-1.41.15-2.11-.06,0-.11-.01-.17-.01C717.71,1452.77,717.71,1453.47,717.71,1454.18Z" fill="#311d48"/>
                <path id="Trazado_906185" data-name="Trazado 906185" d="M705.34,1453.19a3.254,3.254,0,0,1,.95-1.96,19.7,19.7,0,0,1,10.66-6.52,3.728,3.728,0,0,1,1.29-.07.926.926,0,0,1,.66.46c.14.35-.22.5-.5.62-.05.02-.09.04-.07.04q.48,1.71.93,3.39a2,2,0,0,1,.07.54c-.01.4-.22.54-.59.44-.17-.04-.34-.07-.39-.08a2.983,2.983,0,0,0,.07-.77c-.17-1.02-.36-2.04-.57-3.05-.18-.84-.22-.86-1.02-.64a21.284,21.284,0,0,0-10.33,6.49c-.17.19-.28.45-.46.62A4.119,4.119,0,0,1,705.34,1453.19Z" fill="#311d48"/>
                <path id="Trazado_906187" data-name="Trazado 906187" d="M717.71,1454.18v-2.11c.06,0,.11.01.17.01-.05.7-.1,1.41-.15,2.11A.031.031,0,0,0,717.71,1454.18Z" fill="#fff"/>
              </g>
              <path id="Trazado_906188" data-name="Trazado 906188" d="M670.82,1480.74a5.182,5.182,0,0,1-.3.99,5.409,5.409,0,0,1-4.37,2.92c-.15.02-.39-.18-.49-.34a1.674,1.674,0,0,1-.05-1.54,4.116,4.116,0,0,1,2.29-2.39,8.762,8.762,0,0,1,1.8-.57C670.41,1479.66,670.78,1480.01,670.82,1480.74Z" fill="#e6007e"/>
            </g>
          </g>
        </g>
      </g>
    </g>
  </g>
</svg>
