<svg xmlns="http://www.w3.org/2000/svg" xmlns:xlink="http://www.w3.org/1999/xlink" width="505" height="226.945" viewBox="0 0 505 226.945">
  <defs>
    <clipPath id="clip-path">
      <path id="intersexualidad-social" d="M24,0H481a24,24,0,0,1,24,24V226.945a0,0,0,0,1,0,0H0a0,0,0,0,1,0,0V24A24,24,0,0,1,24,0Z" transform="translate(811 3530)" fill="#12263f"/>
    </clipPath>
    <clipPath id="clip-path-2">
      <rect id="Rectángulo_404460" data-name="Rectángulo 404460" width="235.497" height="395.57" fill="none"/>
    </clipPath>
    <clipPath id="clip-path-4">
      <rect id="Rectángulo_404434" data-name="Rectángulo 404434" width="89.257" height="136.926" fill="none"/>
    </clipPath>
    <clipPath id="clip-path-5">
      <path id="Trazado_914942" data-name="Trazado 914942" d="M111.712,102.547c-17.736.328-20.053,15.424-19.294,29.869A162.47,162.47,0,0,1,91.6,158.48l.524,1.578S115.33,180,135.288,187.7a71.9,71.9,0,0,1-5.619-11.7c-6.28-17.2-10.5-30.5-9.446-49.253.573-10.193,5.293-24.2-8.144-24.2-.122,0-.244,0-.368,0" transform="translate(-91.601 -102.544)" fill="none"/>
    </clipPath>
    <clipPath id="clip-path-6">
      <rect id="Rectángulo_404436" data-name="Rectángulo 404436" width="32.563" height="59.404" fill="#da9c5e"/>
    </clipPath>
    <clipPath id="clip-path-8">
      <path id="Trazado_914947" data-name="Trazado 914947" d="M92.062,22.34A51.9,51.9,0,0,0,69.78,37.548C64.071,44,59.306,51.646,59.042,60.461c-.233,7.715,3.486,15.181,8.308,21.3a.952.952,0,0,0-.113.6c.282,2.369,1.566,4.691,2.451,6.892A59.551,59.551,0,0,1,72.039,96.3c1.258,4.764,1.8,9.623,3.409,14.309a30.012,30.012,0,0,0,6.235,10.851,1.97,1.97,0,0,0,.323.552c5.222,6.293,14.1,8.855,21.545,11.5a117.218,117.218,0,0,0,25.181,5.958c8.619,1.035,17.789,1.035,25.912-2.408,6.586-2.793,5.657-12.088,5.459-17.753-.117-3.239-.138-6.483-.223-9.724-.124-4.5-.467-8.127,1.331-12.3,1.678-3.891,6.008-5.1,4.64-10.007a6.477,6.477,0,0,0-.882-1.928c-2.827-4.188-9.911-3.647-13.046-7.7-5.2-6.729-5.342-13.534-4.858-21.712a59.409,59.409,0,0,0-.225-8.336c-1.446-17.851-10.816-28.739-29.415-28.957-.4,0-.8-.007-1.192-.007a74.085,74.085,0,0,0-24.171,3.7" transform="translate(-59.032 -18.643)" fill="none"/>
    </clipPath>
    <clipPath id="clip-path-10">
      <rect id="Rectángulo_404438" data-name="Rectángulo 404438" width="5.451" height="3.767" fill="none"/>
    </clipPath>
    <clipPath id="clip-path-11">
      <rect id="Rectángulo_404440" data-name="Rectángulo 404440" width="18.456" height="18.534" fill="#311d48"/>
    </clipPath>
    <clipPath id="clip-path-12">
      <rect id="Rectángulo_404441" data-name="Rectángulo 404441" width="17.807" height="15.035" fill="#311d48"/>
    </clipPath>
    <clipPath id="clip-path-13">
      <rect id="Rectángulo_404442" data-name="Rectángulo 404442" width="21.819" height="14.655" fill="#311d48"/>
    </clipPath>
    <clipPath id="clip-path-14">
      <rect id="Rectángulo_404443" data-name="Rectángulo 404443" width="25.718" height="15.332" fill="#311d48"/>
    </clipPath>
    <clipPath id="clip-path-15">
      <rect id="Rectángulo_404444" data-name="Rectángulo 404444" width="6.8" height="14.322" fill="#311d48"/>
    </clipPath>
    <clipPath id="clip-path-16">
      <rect id="Rectángulo_404445" data-name="Rectángulo 404445" width="2.891" height="9.627" fill="#311d48"/>
    </clipPath>
    <clipPath id="clip-path-17">
      <rect id="Rectángulo_404446" data-name="Rectángulo 404446" width="4.24" height="12.034" fill="#311d48"/>
    </clipPath>
    <clipPath id="clip-path-18">
      <rect id="Rectángulo_404447" data-name="Rectángulo 404447" width="11.168" height="49.534" fill="none"/>
    </clipPath>
    <clipPath id="clip-path-19">
      <rect id="Rectángulo_404448" data-name="Rectángulo 404448" width="18.692" height="8.034" fill="#311d48"/>
    </clipPath>
    <clipPath id="clip-path-20">
      <path id="Trazado_914992" data-name="Trazado 914992" d="M84.921,186.6q-.521,3.328-1.118,6.631A63.248,63.248,0,0,1,89.885,199c12.333,12.657,24.63,30.9,27.457,48.625,3.778,23.685-15.31,36.438-37.873,27.694-4.46-1.728-5.947-4.306-8.556-6.741-1.871,22.751-2.417,46-3.577,68.652-.906,17.681-3.9,43.682,9.069,58.151,9.94,11.093,27.079,11.21,40.843,10.652,21.021-.849,35.85-12.1,35.363-33.318-.153-6.63.412-76.508.3-76.477,9.355-2.656,17.429-4.49,20.972-14.542,2.875-8.157.267-15.512-4.351-22.408-4.694-7.01-9.666-14.006-14.71-20.774-5.639-7.566-12.244-15.162-18.1-23.177a99.348,99.348,0,0,1-14.233-5.892c-9.713-4.869-17.382-11.2-25.209-18.59-3.432-3.242-6.427-4.6-9.532-4.6a12.215,12.215,0,0,0-2.834.351" transform="translate(-66.389 -186.252)" fill="none"/>
    </clipPath>
    <clipPath id="clip-path-22">
      <rect id="Rectángulo_404450" data-name="Rectángulo 404450" width="51.021" height="76.885" fill="none"/>
    </clipPath>
    <clipPath id="clip-path-24">
      <rect id="Rectángulo_404453" data-name="Rectángulo 404453" width="119.588" height="157.223" fill="none"/>
    </clipPath>
    <clipPath id="clip-path-25">
      <rect id="Rectángulo_404454" data-name="Rectángulo 404454" width="75.446" height="41.845" fill="none"/>
    </clipPath>
    <clipPath id="clip-path-27">
      <rect id="Rectángulo_404455" data-name="Rectángulo 404455" width="22.454" height="58.997" fill="#15043c"/>
    </clipPath>
    <clipPath id="clip-path-28">
      <rect id="Rectángulo_404456" data-name="Rectángulo 404456" width="15.287" height="27.286" fill="#15043c"/>
    </clipPath>
    <clipPath id="clip-path-29">
      <rect id="Rectángulo_404457" data-name="Rectángulo 404457" width="10.77" height="32.088" fill="#310f26"/>
    </clipPath>
    <clipPath id="clip-path-30">
      <rect id="Rectángulo_404458" data-name="Rectángulo 404458" width="138.808" height="123.035" fill="none"/>
    </clipPath>
  </defs>
  <g id="Enmascarar_grupo_1078970" data-name="Enmascarar grupo 1078970" transform="translate(-811 -3530)" clip-path="url(#clip-path)">
    <g id="Grupo_1097750" data-name="Grupo 1097750" transform="translate(812 3530.39)">
      <path id="intersexualidad-social-2" data-name="intersexualidad-social" d="M24,0H253a0,0,0,0,1,0,0V226.944a0,0,0,0,1,0,0H0a0,0,0,0,1,0,0V24A24,24,0,0,1,24,0Z" fill="#ffbedc"/>
      <path id="intersexualidad-social-3" data-name="intersexualidad-social" d="M0,0H229a24,24,0,0,1,24,24V226.944a0,0,0,0,1,0,0H0a0,0,0,0,1,0,0V0A0,0,0,0,1,0,0Z" transform="translate(251)" fill="#bedaf7"/>
    </g>
    <g id="Grupo_1104705" data-name="Grupo 1104705" transform="translate(954.138 3539.303)">
      <g id="Grupo_1104704" data-name="Grupo 1104704" clip-path="url(#clip-path-2)">
        <g id="Grupo_1104626" data-name="Grupo 1104626">
          <g id="Grupo_1104625" data-name="Grupo 1104625" clip-path="url(#clip-path-2)">
            <path id="Trazado_914934" data-name="Trazado 914934" d="M60.873,18.606c-7.495-2.089-15.841,6.385-18.524,12.651-4.123,9.628-1.062,22.111,7.152,28.629.4.317,1.131-.107.773-.6-5.594-7.64-9.517-15.214-7.083-24.934,1.593-6.363,10-16.508,17.4-14.742a.523.523,0,0,0,.278-1.008" transform="translate(-8.475 -3.824)" fill="#311d48"/>
            <path id="Trazado_914935" data-name="Trazado 914935" d="M112.608,127.037A97.562,97.562,0,0,0,101.7,114.9c-10.156-9.21-23.19-13.908-29.055-27.28-5.367-12.239-6.661-31.764-22.67-35.6-31.726-7.609-6.219,53.628-5.269,61.932,1.259,11.018-8.093,27.416-13.816,36.323a1.081,1.081,0,0,0,.928,1.615c4.886-.344,9.192-3.664,12.9-6.835.623,4.873-1.122,9.84-2.641,14.421-4.192,12.647-8.945,25.145-13.655,37.594-1.564,4.131-4.144,8.879-4.7,13.163,4.627.119,9.369-2.729,12.681-5.731,3.8,12.62,6.162,27.909,13.942,38.831a.991.991,0,0,0,1.832-.5c.056-3.474.47-6.92.726-10.38,4.317,9.493,8.994,19.027,16.915,25.557,13.35-11.931,25.874-21.525,42.071-28.984,8.871-4.086,22.97-6.31,28.057-15.825,11.613-21.724-9.278-62.927-27.331-86.17" transform="translate(-4.96 -10.743)" fill="#6a20d3" stroke="#311d48" stroke-width="1"/>
            <g id="Grupo_1104624" data-name="Grupo 1104624" transform="translate(45.575 81.39)" style="mix-blend-mode: multiply;isolation: isolate">
              <g id="Grupo_1104623" data-name="Grupo 1104623">
                <g id="Grupo_1104622" data-name="Grupo 1104622" clip-path="url(#clip-path-4)">
                  <path id="Trazado_914936" data-name="Trazado 914936" d="M121.1,150.233a112.823,112.823,0,0,0-7.713-11.356c-11.875-15.178-29.75-24.532-44.937-35.882-.318-.238-.733.089-.744.428-.531,17.59-2.611,35.124-5.171,52.522-2.242,15.236-2.154,31.233-4.907,46.126,4.72-1.552,9.65-7.055,12.283-11.68,1.021,12.163,4.462,25.395,6.847,37.432,1.592,8.043,2.5,14.022,11.457,11.386,8.328-2.453,18.171-12.357,25.084-17.571,5.227-3.943,7.642-7.838,13.853-8.264,6.18-.424,12.749,5.816,19.734,5.247-1.386-11.6-8.552-21.038-11.464-31.618,2.208,1.217,4.407,1.289,6.817,3.471-6.992-12.544-13.408-27.392-21.138-40.241" transform="translate(-57.627 -102.913)" fill="#6a20d3" stroke="#311d48" stroke-width="1"/>
                </g>
              </g>
            </g>
            <path id="Trazado_914937" data-name="Trazado 914937" d="M170.121,21.516c9.475,6.156,9.749,19.667,7.839,29.58-1.976,10.252-7.032,20.414-16.424,25.6-.577.319-.165,1.123.425,1.01C173.09,75.58,178.356,60.347,180,50.77c1.814-10.544.555-23.874-9.509-29.9-.413-.247-.773.381-.374.641" transform="translate(-33.725 -4.354)" fill="#6a20d3" stroke="#311d48" stroke-width="1"/>
            <path id="Trazado_914938" data-name="Trazado 914938" d="M152.071,24.3c-4.454-13.249-17.51-19.732-29.891-22.419a90.062,90.062,0,0,0-40.014.785C66.366,6.553,47.25,17.3,45,35.853a18.844,18.844,0,0,0,2.439,11.142.426.426,0,0,0,.773-.1L134.9,71.768h0a1,1,0,0,0,1.809.792c4.576-7.992,9.126-16.384,12.92-24.809C153,40.26,154.763,32.3,152.071,24.3" transform="translate(-9.387 0)" fill="#6a20d3" stroke="#311d48" stroke-width="1"/>
            <path id="Trazado_914939" data-name="Trazado 914939" d="M169.538,241.777c-4.694-7.01-9.666-14.005-14.71-20.774-10.482-14.063-24.307-28.232-30.432-45.009-6.28-17.2-10.5-30.495-9.445-49.253.577-10.287,5.38-24.451-8.512-24.195-17.736.327-20.053,15.425-19.294,29.869.778,14.8-20.039,43.875-29.273,66.26-6.151,14.912-2.15,30.92-2.15,30.92s12.989,63.309,11.615,90.123c-.906,17.682-3.9,43.682,9.069,58.151,9.941,11.093,27.08,11.211,40.844,10.653,21.021-.849,35.85-12.106,35.363-33.317-.153-6.631.412-76.509.3-76.478,9.356-2.657,17.429-4.49,20.973-14.542,2.875-8.156.267-15.512-4.352-22.408" transform="translate(-13.884 -21.446)" fill="#da9c5e" stroke="#311d48" stroke-width="1"/>
            <path id="Trazado_914940" data-name="Trazado 914940" d="M92.125,160.058S115.331,180,135.288,187.694a71.84,71.84,0,0,1-5.619-11.7c-6.28-17.2-10.5-30.495-9.446-49.253.578-10.286,5.381-24.45-8.511-24.195-17.736.328-20.053,15.425-19.294,29.87a162.457,162.457,0,0,1-.817,26.063Z" transform="translate(-19.157 -21.446)" fill="#da9c5e"/>
          </g>
        </g>
        <g id="Grupo_1104631" data-name="Grupo 1104631" transform="translate(72.444 81.098)">
          <g id="Grupo_1104630" data-name="Grupo 1104630" clip-path="url(#clip-path-5)">
            <g id="Grupo_1104629" data-name="Grupo 1104629" transform="translate(9.248 4.664)" style="mix-blend-mode: multiply;isolation: isolate">
              <g id="Grupo_1104628" data-name="Grupo 1104628">
                <g id="Grupo_1104627" data-name="Grupo 1104627" clip-path="url(#clip-path-6)">
                  <path id="Trazado_914941" data-name="Trazado 914941" d="M131.221,132.64c.577-10.286,5.382-24.451-8.511-24.195-17.622.326-20.021,15.233-19.307,29.592,1.008,1.354,1.98,2.734,2.865,4.169,2.569,4.169,4.488,8.636,7.372,12.628a29.793,29.793,0,0,0,9.058,8.526,1.969,1.969,0,0,0,.467.431c3.715,2.454,8.152,3.523,12.693,4.053-3.447-11.221-5.387-21.825-4.636-35.206" transform="translate(-103.294 -108.442)" fill="#da9c5e" stroke="#311d48" stroke-width="1"/>
                </g>
              </g>
            </g>
          </g>
        </g>
        <g id="Grupo_1104634" data-name="Grupo 1104634">
          <g id="Grupo_1104633" data-name="Grupo 1104633" clip-path="url(#clip-path-2)">
            <path id="Trazado_914943" data-name="Trazado 914943" d="M112.667,28.878c5.615-1.693,11.142-7.3,11.937-13.259.066-.5-.677-.629-.9-.244-2.939,5.074-5.436,10.236-11.333,12.431-.66.245-.4,1.282.3,1.072" transform="translate(-23.421 -3.169)" fill="#7f3a0b"/>
            <path id="Trazado_914944" data-name="Trazado 914944" d="M164.97,85.352c-2.828-4.188-9.912-3.646-13.046-7.7-5.205-6.729-5.344-13.533-4.859-21.711a59.755,59.755,0,0,0-.224-8.336c-1.448-17.851-10.817-28.74-29.415-28.957a74.958,74.958,0,0,0-25.362,3.69A51.913,51.913,0,0,0,69.781,37.548C64.072,44,59.307,51.646,59.043,60.462c-.233,7.714,3.485,15.181,8.307,21.3a.957.957,0,0,0-.112.6c.282,2.369,1.565,4.691,2.451,6.893A59.781,59.781,0,0,1,72.04,96.3c1.257,4.764,1.8,9.624,3.409,14.309a30.01,30.01,0,0,0,6.235,10.852,1.958,1.958,0,0,0,.323.551c5.222,6.293,14.1,8.856,21.545,11.5a117.194,117.194,0,0,0,25.181,5.958c8.617,1.035,17.789,1.036,25.911-2.407,6.586-2.793,5.657-12.089,5.459-17.753a48.391,48.391,0,0,0-1.143-8.014,7.9,7.9,0,0,0-.985-2.443s.688.275,1.671-3.6c.337-1.331,1-6.662,1.564-7.968,1.677-3.891,6.008-5.1,4.64-10.006a6.491,6.491,0,0,0-.881-1.929" transform="translate(-12.346 -3.899)" fill="#da9c5e" stroke="#311d48" stroke-width="1"/>
            <path id="Trazado_914945" data-name="Trazado 914945" d="M42.839,61.966a44.514,44.514,0,0,1,4.339-24.033c9.557-18.516,29.872-27.818,50.028-27.773,9.234.021,18.615,1.367,27.184,4.9a31.293,31.293,0,0,1,12.444,9.059c3.571,4.392,4.05,7.913,5.216,13.308-1.5-4.476-7.584-6.326-11.635-4.744a24.269,24.269,0,0,0-11.02,9.255,173.609,173.609,0,0,1-13.375,18.224c-8.96,10.4-20.008,20.066-32.744,25.883-1.655,2.064-3.3,4.135-5.009,6.155,4.655,7.058-3.549,6.145-7.294,2.763-4.134-3.732-8.951-11.206-12.295-16a35.7,35.7,0,0,1-5.84-17" transform="translate(-8.917 -2.125)" fill="#e6b07a" stroke="#311d48" stroke-width="1"/>
          </g>
        </g>
        <g id="Grupo_1104671" data-name="Grupo 1104671">
          <g id="Grupo_1104670" data-name="Grupo 1104670" clip-path="url(#clip-path-2)">
            <g id="Grupo_1104639" data-name="Grupo 1104639" transform="translate(146.514 86.881)" style="mix-blend-mode: multiply;isolation: isolate">
              <g id="Grupo_1104638" data-name="Grupo 1104638">
                <g id="Grupo_1104637" data-name="Grupo 1104637" clip-path="url(#clip-path-10)">
                  <path id="Trazado_914950" data-name="Trazado 914950" d="M186.042,113.559c.841-.486,1.646-1.035,2.456-1.571.734-.485,1.851-.869,2.2-1.724a.3.3,0,0,0-.21-.37c-.916-.228-1.858.6-2.581,1.075-.856.555-1.67,1.17-2.476,1.8-.465.361.13,1.075.614.8" transform="translate(-185.259 -109.856)" fill="#ff7f86"/>
                </g>
              </g>
            </g>
            <path id="Trazado_914960" data-name="Trazado 914960" d="M149.782,37.183c-3.015-9.292-7.982-17.737-15.859-23.731-10.205-7.765-21.039-9.691-33.533-9.324C79.218,4.75,52.683,10.212,46.627,33.68a1.23,1.23,0,0,0,.943,1.566L46.881,38c-.1.206-.2.407-.288.618-.065.154.157.3.23.139C50.056,31.818,57.641,28.265,64.5,25.874a75.772,75.772,0,0,1,21.114-3.859,122.986,122.986,0,0,1,31.264,2.341,144.9,144.9,0,0,1,16.152,4.672c5.829,1.97,9.956,5.523,14.641,9.357.9.737,2.543.131,2.111-1.2" transform="translate(-9.741 -0.854)" fill="#6a20d3" stroke="#311d48" stroke-width="1"/>
            <g id="Grupo_1104645" data-name="Grupo 1104645" transform="translate(72.482 0.331)" style="mix-blend-mode: multiply;isolation: isolate">
              <g id="Grupo_1104644" data-name="Grupo 1104644">
                <g id="Grupo_1104643" data-name="Grupo 1104643" clip-path="url(#clip-path-11)">
                  <path id="Trazado_914961" data-name="Trazado 914961" d="M92.647,18.483C92.8,13.818,95.9,9.99,99.176,6.951s6.882-3.987,10.77-5.813a.324.324,0,0,0-.077-.588c-4.012-.906-8.808,3.089-11.573,5.522-3.42,3.009-6.993,7.6-6.621,12.412a.486.486,0,0,0,.972,0" transform="translate(-91.649 -0.418)" fill="#311d48"/>
                </g>
              </g>
            </g>
            <g id="Grupo_1104648" data-name="Grupo 1104648" transform="translate(77.317 4.208)" style="mix-blend-mode: multiply;isolation: isolate">
              <g id="Grupo_1104647" data-name="Grupo 1104647">
                <g id="Grupo_1104646" data-name="Grupo 1104646" clip-path="url(#clip-path-12)">
                  <path id="Trazado_914962" data-name="Trazado 914962" d="M98.427,20.116c.634-4.323,3.311-7.527,6.754-10.04a20.5,20.5,0,0,1,5.506-2.763c1.513-.516,3.134-.4,4.618-.935.258-.093.4-.518.085-.655-3.575-1.57-8.832,1.832-11.558,3.88-3.227,2.424-6.256,6.2-6.061,10.424.016.357.6.478.656.089" transform="translate(-97.762 -5.321)" fill="#311d48"/>
                </g>
              </g>
            </g>
            <g id="Grupo_1104651" data-name="Grupo 1104651" transform="translate(107.387 6.136)" style="mix-blend-mode: multiply;isolation: isolate">
              <g id="Grupo_1104650" data-name="Grupo 1104650">
                <g id="Grupo_1104649" data-name="Grupo 1104649" clip-path="url(#clip-path-13)">
                  <path id="Trazado_914963" data-name="Trazado 914963" d="M136.441,22.18c1.7-4.762,3.944-7.992,8.553-10.3,3.816-1.915,7.942-1.967,12.06-2.53.916-.124.576-1.408-.2-1.491-8.488-.909-20.69,4.585-21.068,14.236-.017.4.535.428.656.089" transform="translate(-135.785 -7.758)" fill="#311d48"/>
                </g>
              </g>
            </g>
            <g id="Grupo_1104654" data-name="Grupo 1104654" transform="translate(114.541 18.494)" style="mix-blend-mode: multiply;isolation: isolate">
              <g id="Grupo_1104653" data-name="Grupo 1104653">
                <g id="Grupo_1104652" data-name="Grupo 1104652" clip-path="url(#clip-path-14)">
                  <path id="Trazado_914964" data-name="Trazado 914964" d="M145.569,27.733c4.513-3.854,12.262-3.653,17.276-.9,4.349,2.391,5.024,7.612,6.956,11.682a.4.4,0,0,0,.747-.2c-.311-5.929-3.167-11.422-8.769-13.8-5.156-2.184-12.693-1.175-16.812,2.61-.407.374.189.953.6.6" transform="translate(-144.831 -23.384)" fill="#311d48"/>
                </g>
              </g>
            </g>
            <g id="Grupo_1104657" data-name="Grupo 1104657" transform="translate(66.018 6.128)" style="mix-blend-mode: multiply;isolation: isolate">
              <g id="Grupo_1104656" data-name="Grupo 1104656">
                <g id="Grupo_1104655" data-name="Grupo 1104655" clip-path="url(#clip-path-15)">
                  <path id="Trazado_914965" data-name="Trazado 914965" d="M85.612,21.227C82.089,16.874,88.34,11.8,90.233,8.268a.349.349,0,0,0-.475-.473c-4.072,2.3-8.692,9.995-4.833,14.118.436.466,1.072-.21.686-.687" transform="translate(-83.476 -7.749)" fill="#311d48"/>
                </g>
              </g>
            </g>
            <g id="Grupo_1104660" data-name="Grupo 1104660" transform="translate(52.437 12.74)" style="mix-blend-mode: multiply;isolation: isolate">
              <g id="Grupo_1104659" data-name="Grupo 1104659">
                <g id="Grupo_1104658" data-name="Grupo 1104658" clip-path="url(#clip-path-16)">
                  <path id="Trazado_914966" data-name="Trazado 914966" d="M68.3,16.34c-1.477,2.377-3.5,7.409-.275,9.347a.343.343,0,0,0,.5-.384,15.716,15.716,0,0,1-.807-3.8,10.681,10.681,0,0,1,1.413-4.681.481.481,0,0,0-.83-.484" transform="translate(-66.304 -16.109)" fill="#311d48"/>
                </g>
              </g>
            </g>
            <g id="Grupo_1104663" data-name="Grupo 1104663" transform="translate(62.381 8.166)" style="mix-blend-mode: multiply;isolation: isolate">
              <g id="Grupo_1104662" data-name="Grupo 1104662">
                <g id="Grupo_1104661" data-name="Grupo 1104661" clip-path="url(#clip-path-17)">
                  <path id="Trazado_914967" data-name="Trazado 914967" d="M82.484,10.441c-2.716,2.767-5.028,8.256-2.551,11.8.132.189.52.151.487-.132-.462-4.019-.238-7.947,2.6-11.137.32-.36-.189-.882-.533-.532" transform="translate(-78.878 -10.326)" fill="#311d48"/>
                </g>
              </g>
            </g>
            <g id="Grupo_1104666" data-name="Grupo 1104666" transform="translate(46.076 183.796)" style="mix-blend-mode: multiply;isolation: isolate">
              <g id="Grupo_1104665" data-name="Grupo 1104665">
                <g id="Grupo_1104664" data-name="Grupo 1104664" clip-path="url(#clip-path-18)">
                  <path id="Trazado_914968" data-name="Trazado 914968" d="M58.262,232.863a147.971,147.971,0,0,0,2.048,26.083c1.343,7.648,3.386,16.8,8.561,22.875.262.308.677-.083.525-.4A93.639,93.639,0,0,1,61.53,258.61a144.265,144.265,0,0,1-2.309-25.747.48.48,0,0,0-.959,0" transform="translate(-58.261 -232.399)" fill="#6a20d3"/>
                </g>
              </g>
            </g>
            <g id="Grupo_1104669" data-name="Grupo 1104669" transform="translate(39.314 61.823)" style="mix-blend-mode: multiply;isolation: isolate">
              <g id="Grupo_1104668" data-name="Grupo 1104668">
                <g id="Grupo_1104667" data-name="Grupo 1104667" clip-path="url(#clip-path-19)">
                  <path id="Trazado_914969" data-name="Trazado 914969" d="M55.739,78.171a.705.705,0,0,0,0,1.409.705.705,0,0,0,0-1.409" transform="translate(-50.828 -78.171)" fill="#311d48"/>
                  <path id="Trazado_914970" data-name="Trazado 914970" d="M52.327,86.005c-.021.025-.147.116-.136.127a.62.62,0,0,0,.023.995c.354.258.716-.033.973-.262.586-.522-.334-1.445-.86-.86" transform="translate(-50.179 -79.77)" fill="#311d48"/>
                  <path id="Trazado_914971" data-name="Trazado 914971" d="M50.951,80.8c.013.017.013-.007-.019-.065a.274.274,0,0,0,.008.039.185.185,0,0,1,.011.026" transform="translate(-49.966 -78.707)" fill="#311d48"/>
                  <path id="Trazado_914972" data-name="Trazado 914972" d="M50.685,80.65a.289.289,0,0,0-.035-.081.3.3,0,0,1,.025.043c0-.011,0-.015-.006-.028a.456.456,0,0,0-.912,0c0,.043-.009.086-.012.129.04-.382-.039.078-.036.13a.5.5,0,0,0,1.009,0,.6.6,0,0,0-.023-.168.058.058,0,0,1-.011-.026" transform="translate(-49.71 -78.584)" fill="#311d48"/>
                  <path id="Trazado_914973" data-name="Trazado 914973" d="M72.086,86.179a.851.851,0,0,0,0,1.7.851.851,0,0,0,0-1.7" transform="translate(-54.218 -79.846)" fill="#311d48"/>
                </g>
              </g>
            </g>
            <path id="Trazado_914974" data-name="Trazado 914974" d="M154.828,238.511c-5.639-7.565-12.244-15.162-18.1-23.178a99.3,99.3,0,0,1-14.233-5.891c-9.713-4.869-17.382-11.2-25.209-18.59-4.46-4.212-15.993-12.684-20.18-11.689a16.916,16.916,0,0,1-1.8,3.812c-.937,1.777-2.054,3.879-2.054,3.879S88.917,198,89.886,199c12.332,12.657,24.629,30.9,27.456,48.625,3.778,23.685-15.31,36.438-37.873,27.694-4.46-1.728-5.947-4.306-8.556-6.741-1.872,22.751-2.417,46-3.577,68.651-.906,17.683-3.9,43.682,9.069,58.152,9.94,11.093,27.079,11.21,40.843,10.652,21.021-.85,35.85-12.1,35.363-33.318-.153-6.63.413-76.508.305-76.478,9.355-2.656,17.429-4.489,20.972-14.542,2.875-8.157.267-15.512-4.351-22.408-4.694-7.011-9.666-14.006-14.71-20.774" transform="translate(-13.884 -38.952)" fill="#0089ad"/>
            <g id="Grupo_1104707" data-name="Grupo 1104707" transform="translate(-596.937 -1382.361)">
              <path id="Trazado_906173" data-name="Trazado 906173" d="M717.334,1458.574a13.723,13.723,0,0,1-.7-4.92v-.454c-3.524.72-7.069,1.452-10.726,2.2a17.456,17.456,0,0,0,2.526,1.507,45.345,45.345,0,0,0,9.95,2.659,1.65,1.65,0,0,0,.233.022v-.321a.835.835,0,0,1-.388.089C717.722,1459.361,717.5,1458.984,717.334,1458.574Z" transform="translate(0.366 1.806)" fill="#fff"/>
              <path id="Trazado_906182" data-name="Trazado 906182" d="M726.117,1442.407c-.044.41-.066.72-.111,1.031-.078.477-.864,1.263-1.307,1.263a.821.821,0,0,1-.521-.333c-.233-.31-.388-.665-.6-1-1.5-2.46-3-3.058-5.8-2.36a14.537,14.537,0,0,0-5.684,3.125,46.072,46.072,0,0,1-6.294,4.643c-.6.333-1.219.632-1.839.909a.8.8,0,0,1-1.064-.166c-.277-.366-.078-.7.155-1.008a44.62,44.62,0,0,1,6.693-7.025,20.342,20.342,0,0,1,5.972-3.889,17.046,17.046,0,0,1,4.565-1.086,5.073,5.073,0,0,1,5.585,4.233C726.006,1441.31,726.039,1441.909,726.117,1442.407Z" transform="translate(0.027 0)" fill="#311d48"/>
              <path id="Trazado_906184" data-name="Trazado 906184" d="M720.371,1452a17.3,17.3,0,0,1-.909,7.158c-.133.41-.332.82-.864.809-.5-.011-.731-.4-.886-.809a13.723,13.723,0,0,1-.7-4.92v-.454c-3.524.72-7.069,1.452-10.726,2.2a17.456,17.456,0,0,0,2.526,1.507,45.345,45.345,0,0,0,9.95,2.659c.643.1,1.3.089,1.939.166.177.022.344.2.51.31-.166.111-.321.3-.5.321a15.641,15.641,0,0,1-5.263-.587,46.444,46.444,0,0,1-8.277-3c-.454-.2-.931-.366-1.474-.576.166-.044.266-.067.366-.089a2.3,2.3,0,0,0-2.05-.765,1.668,1.668,0,0,1-.875-.1c-.255-.111-.609-.354-.621-.565a1,1,0,0,1,.454-.765,3.3,3.3,0,0,1,1.241-.244,27.533,27.533,0,0,0,6.726-1.585,50.087,50.087,0,0,1,8.443-1.828,11.618,11.618,0,0,0,5.263-2.2c.277-.2.5-.5.765-.72a1.967,1.967,0,0,1,.465-.2c.066.177.244.41.188.521a4.414,4.414,0,0,1-.765,1.13,10.7,10.7,0,0,1-3.789,2.249C721.1,1451.776,720.725,1451.886,720.371,1452Zm-1.019,2.881h.022c.055-.776.111-1.562.166-2.338-.066,0-.122-.011-.188-.011C719.351,1453.316,719.351,1454.091,719.351,1454.878Z" transform="translate(0 1.214)" fill="#311d48"/>
              <path id="Trazado_906185" data-name="Trazado 906185" d="M705.34,1454.117a3.606,3.606,0,0,1,1.053-2.172,21.832,21.832,0,0,1,11.812-7.224,4.13,4.13,0,0,1,1.429-.078,1.026,1.026,0,0,1,.731.51c.155.388-.244.554-.554.687-.055.022-.1.044-.078.044q.532,1.895,1.03,3.756a2.221,2.221,0,0,1,.078.6c-.011.443-.244.6-.654.487-.188-.044-.377-.078-.432-.089a3.306,3.306,0,0,0,.078-.853c-.188-1.13-.4-2.26-.632-3.38-.2-.931-.244-.953-1.13-.709a23.584,23.584,0,0,0-11.446,7.191c-.188.21-.31.5-.51.687A4.567,4.567,0,0,1,705.34,1454.117Z" transform="translate(0.305 0.878)" fill="#311d48"/>
              <path id="Trazado_906187" data-name="Trazado 906187" d="M717.71,1454.408v-2.338c.066,0,.122.011.188.011-.055.776-.111,1.562-.166,2.338A.034.034,0,0,0,717.71,1454.408Z" transform="translate(1.641 1.683)" fill="#fff"/>
            </g>
          </g>
        </g>
        <g id="Grupo_1104673" data-name="Grupo 1104673" transform="translate(52.504 147.3)">
          <g id="Grupo_1104672" data-name="Grupo 1104672" clip-path="url(#clip-path-20)">
            <path id="Trazado_914975" data-name="Trazado 914975" d="M83.919,172.937c-2.955,34.817-3.767,69.882-4.527,104.8-.792,36.443-1.932,73.432,1.325,109.783.047.514.825.532.814,0-.389-18.044-1.2-36.066-1.336-54.118s.1-36.082.4-54.118c.587-35.424,1.156-71.02,3.954-106.35.033-.407-.6-.4-.631,0" transform="translate(-68.929 -183.404)" fill="#003e4c"/>
            <path id="Trazado_914976" data-name="Trazado 914976" d="M110.791,171.954c-2.976,38.314-3.779,76.858-4.537,115.269-.785,39.705-1.911,79.911,1.336,119.533.043.515.825.531.814,0-.389-19.668-1.195-39.315-1.333-58.99s.095-39.329.391-58.99c.586-38.916,1.148-77.992,3.962-116.821.03-.407-.6-.4-.632,0" transform="translate(-74.549 -183.198)" fill="#003e4c"/>
            <path id="Trazado_914977" data-name="Trazado 914977" d="M136.35,172.937c-2.955,34.817-3.766,69.882-4.526,104.8-.792,36.443-1.932,73.432,1.325,109.783.047.514.826.532.814,0-.39-18.044-1.2-36.066-1.335-54.118s.1-36.082.4-54.118c.587-35.424,1.156-71.02,3.955-106.35.032-.407-.6-.4-.632,0" transform="translate(-79.895 -183.404)" fill="#003e4c"/>
            <path id="Trazado_914978" data-name="Trazado 914978" d="M163.223,171.954c-2.976,38.314-3.779,76.858-4.537,115.269-.785,39.705-1.912,79.911,1.336,119.533.043.515.825.531.814,0-.39-19.668-1.195-39.315-1.334-58.99s.095-39.329.391-58.99c.586-38.916,1.147-77.992,3.961-116.821.03-.407-.6-.4-.631,0" transform="translate(-85.515 -183.198)" fill="#003e4c"/>
            <path id="Trazado_914979" data-name="Trazado 914979" d="M189.437,172.937c-2.956,34.817-3.767,69.882-4.527,104.8-.793,36.443-1.931,73.432,1.326,109.783.046.514.825.532.813,0-.39-18.044-1.2-36.066-1.334-54.118s.1-36.082.4-54.118c.587-35.424,1.156-71.02,3.956-106.35.031-.407-.6-.4-.632,0" transform="translate(-90.997 -183.404)" fill="#003e4c"/>
            <path id="Trazado_914980" data-name="Trazado 914980" d="M216.309,171.954c-2.975,38.314-3.779,76.858-4.537,115.269-.785,39.705-1.911,79.911,1.337,119.533.043.515.824.531.813,0-.389-19.668-1.194-39.315-1.333-58.99s.095-39.329.391-58.99c.585-38.916,1.147-77.992,3.961-116.821.03-.407-.6-.4-.632,0" transform="translate(-96.617 -183.198)" fill="#003e4c"/>
            <path id="Trazado_914981" data-name="Trazado 914981" d="M239.556,208.268c-34.816-2.955-69.881-3.767-104.8-4.526-36.442-.793-73.432-1.932-109.783,1.325-.513.047-.532.826,0,.815,18.044-.39,36.066-1.2,54.119-1.335s36.081.1,54.118.4c35.424.587,71.019,1.157,106.35,3.955.407.032.4-.6,0-.632" transform="translate(-57.644 -189.731)" fill="#003e4c"/>
            <path id="Trazado_915014" data-name="Trazado 915014" d="M239.556,208.268c-34.816-2.955-69.881-3.767-104.8-4.526-36.442-.793-73.432-1.932-109.783,1.325-.513.047-.532.826,0,.815,18.044-.39,36.066-1.2,54.119-1.335s36.081.1,54.118.4c35.424.587,71.019,1.157,106.35,3.955.407.032.4-.6,0-.632" transform="translate(-57.644 -202.885)" fill="#003e4c"/>
            <path id="Trazado_914982" data-name="Trazado 914982" d="M235.194,235.141c-38.313-2.976-76.859-3.779-115.27-4.538-39.7-.784-79.91-1.91-119.532,1.337-.515.043-.531.824,0,.814,19.668-.39,39.315-1.195,58.989-1.333s39.329.094,58.99.391c38.916.586,77.992,1.148,116.822,3.962.407.029.4-.6,0-.632" transform="translate(-52.504 -195.351)" fill="#003e4c"/>
            <path id="Trazado_914983" data-name="Trazado 914983" d="M239.556,260.7c-34.816-2.955-69.881-3.766-104.8-4.526-36.442-.792-73.432-1.932-109.783,1.326-.513.046-.532.825,0,.814,18.044-.39,36.066-1.2,54.119-1.335s36.081.1,54.118.4c35.424.587,71.019,1.155,106.35,3.954.407.032.4-.6,0-.632" transform="translate(-57.644 -200.696)" fill="#003e4c"/>
            <path id="Trazado_914984" data-name="Trazado 914984" d="M235.194,287.572c-38.313-2.976-76.859-3.779-115.27-4.537-39.7-.785-79.91-1.911-119.532,1.336-.515.043-.531.825,0,.814,19.668-.389,39.315-1.2,58.989-1.333s39.329.095,58.99.391c38.916.586,77.992,1.148,116.822,3.962.407.03.4-.6,0-.632" transform="translate(-52.504 -206.316)" fill="#003e4c"/>
            <path id="Trazado_914985" data-name="Trazado 914985" d="M239.556,313.786c-34.816-2.955-69.881-3.767-104.8-4.526-36.442-.793-73.432-1.932-109.783,1.325-.513.047-.532.826,0,.815,18.044-.39,36.066-1.2,54.119-1.335s36.081.1,54.118.4c35.424.587,71.019,1.157,106.35,3.955.407.032.4-.6,0-.632" transform="translate(-57.644 -211.798)" fill="#003e4c"/>
            <path id="Trazado_914986" data-name="Trazado 914986" d="M235.194,340.659c-38.313-2.976-76.859-3.779-115.27-4.538-39.7-.785-79.91-1.91-119.532,1.337-.515.043-.531.825,0,.814,19.668-.39,39.315-1.2,58.989-1.333s39.329.094,58.99.391c38.916.586,77.992,1.148,116.822,3.962.407.029.4-.6,0-.632" transform="translate(-52.504 -217.419)" fill="#003e4c"/>
            <path id="Trazado_914987" data-name="Trazado 914987" d="M239.556,365.562c-34.816-2.955-69.881-3.766-104.8-4.526-36.442-.793-73.432-1.932-109.783,1.325-.513.046-.532.825,0,.814,18.044-.391,36.066-1.2,54.119-1.336s36.081.1,54.118.4c35.424.588,71.019,1.156,106.35,3.955.407.032.4-.6,0-.632" transform="translate(-57.644 -222.627)" fill="#003e4c"/>
            <path id="Trazado_914988" data-name="Trazado 914988" d="M235.194,392.434c-38.313-2.975-76.859-3.778-115.27-4.536-39.7-.785-79.91-1.911-119.532,1.336-.515.042-.531.825,0,.814,19.668-.39,39.315-1.195,58.989-1.334s39.329.1,58.99.391c38.916.586,77.992,1.148,116.822,3.961.407.03.4-.6,0-.632" transform="translate(-52.504 -228.247)" fill="#003e4c"/>
            <path id="Trazado_914989" data-name="Trazado 914989" d="M239.556,417.994c-34.816-2.956-69.881-3.767-104.8-4.526-36.442-.794-73.432-1.932-109.783,1.325-.513.046-.532.826,0,.813,18.044-.389,36.066-1.2,54.119-1.334s36.081.1,54.118.4c35.424.588,71.019,1.157,106.35,3.956.407.032.4-.6,0-.632" transform="translate(-57.644 -233.592)" fill="#003e4c"/>
            <path id="Trazado_914990" data-name="Trazado 914990" d="M235.194,444.866c-38.313-2.975-76.859-3.779-115.27-4.538-39.7-.785-79.91-1.91-119.532,1.337-.515.042-.531.824,0,.813,19.668-.39,39.315-1.194,58.989-1.333s39.329.095,58.99.391c38.916.586,77.992,1.148,116.822,3.962.407.029.4-.6,0-.632" transform="translate(-52.504 -239.212)" fill="#003e4c"/>
            <path id="Trazado_914991" data-name="Trazado 914991" d="M239.556,471.08c-34.816-2.955-69.881-3.766-104.8-4.526-36.442-.793-73.432-1.932-109.783,1.325-.513.046-.532.825,0,.814,18.044-.391,36.066-1.2,54.119-1.336s36.081.1,54.118.4c35.424.587,71.019,1.155,106.35,3.954.407.032.4-.6,0-.632" transform="translate(-57.644 -244.694)" fill="#003e4c"/>
          </g>
        </g>
        <g id="Grupo_1104681" data-name="Grupo 1104681">
          <g id="Grupo_1104680" data-name="Grupo 1104680" clip-path="url(#clip-path-2)">
            <path id="Trazado_914993" data-name="Trazado 914993" d="M123.2,190.106c-4.056-7.474-9.111-14.553-12.306-19.668-9.5-15.209-23.194-26.433-27.813-44.5-1.6-6.257-.671-16.914-11.021-8.56-12.041,9.724-.984,34.9,4.41,45.288,9.617,18.516,30.279,18.468,41.814,35.533,3.593,5.315,6.6,12.328,10.655,16.672,2.207-7.214-1.117-16.243-5.738-24.761" transform="translate(-13.94 -23.905)" fill="#6a20d3" stroke="#15043c" stroke-width="1"/>
            <g id="Grupo_1104676" data-name="Grupo 1104676" transform="translate(60.198 105.182)" style="mix-blend-mode: multiply;isolation: isolate">
              <g id="Grupo_1104675" data-name="Grupo 1104675">
                <g id="Grupo_1104674" data-name="Grupo 1104674" clip-path="url(#clip-path-22)">
                  <path id="Trazado_914994" data-name="Trazado 914994" d="M76.167,133.289c-.9,13.924,10.473,26.166,19.984,34.944,6.248,5.769,13.062,10.874,18.531,17.442a47.271,47.271,0,0,1,7.482,12.985c1.452,3.65,2.447,7.522,4.244,11.022.214.417.808.114.721-.3A57.456,57.456,0,0,0,118,187.893c-4.563-6.3-10.377-11.323-16.262-16.342-10.891-9.291-25.635-22.6-24.961-38.262.017-.394-.583-.388-.607,0" transform="translate(-76.116 -132.996)" fill="#311d48"/>
                </g>
              </g>
            </g>
            <path id="Trazado_914995" data-name="Trazado 914995" d="M47.935,106.885c-.891-6.057,3.772-10.485,9.248-11.853,10.4-2.6,32.591,11.694,23.441,22.339-9.334,10.857-30.793,2.4-32.69-10.486" transform="translate(-10.002 -19.81)" fill="#da9c5e" stroke="#150220" stroke-width="1"/>
            <g id="Grupo_1104679" data-name="Grupo 1104679" transform="translate(44.438 81.304)" style="mix-blend-mode: multiply;isolation: isolate">
              <g id="Grupo_1104678" data-name="Grupo 1104678">
                <g id="Grupo_1104709" data-name="Grupo 1104709">
                  <path id="Trazado_914996" data-name="Trazado 914996" d="M69.339,105.258a1.024,1.024,0,0,0-.663-.426c-.2-.127-.4-.249-.6-.364a11.075,11.075,0,0,0-11.592-.052c-.675.4-.084,1.352.6,1.031,3.133-1.458,6.223-.8,8.969.78a12.151,12.151,0,0,0-1.539,3.9,8.324,8.324,0,0,0,1.575,7.323c.823,1.006,2.22-.274,1.705-1.315a7.74,7.74,0,0,1,.871-8.07.123.123,0,0,0,.017.013c2.238,1.867,3.69,4.929,6.123,6.431a.893.893,0,0,0,1.334-.765c-.2-3.4-4.741-7.1-7.709-9.062" transform="translate(-56.19 -102.804)" fill="#311d48"/>
                </g>
              </g>
            </g>
            <path id="Trazado_914998" data-name="Trazado 914998" d="M81.519,124.8s-2.332,7.043-2.332,8.33a2.332,2.332,0,1,0,4.665,0c0-1.288-2.332-8.33-2.332-8.33" transform="translate(-16.561 -26.1)" fill="#fffbf2" stroke="#311d48" stroke-width="1"/>
          </g>
        </g>
        <g id="Grupo_1104689" data-name="Grupo 1104689" transform="translate(52.504 147.3)">
          <g id="Grupo_1104688" data-name="Grupo 1104688" clip-path="url(#clip-path-20)">
            <g id="Grupo_1104684" data-name="Grupo 1104684" transform="translate(11.98 41.752)" opacity="0.3" style="mix-blend-mode: multiply;isolation: isolate">
              <g id="Grupo_1104683" data-name="Grupo 1104683">
                <g id="Grupo_1104682" data-name="Grupo 1104682" clip-path="url(#clip-path-24)">
                  <path id="Trazado_914999" data-name="Trazado 914999" d="M197.5,278.587c-9.017-10.658-27.154,14.746-32.57,21.233-11.006,13.19-23.678,26.363-35.274,40.037.433-11.824.613-23.643.926-35.4.524-19.708-6.8-64.7-31.388-65.4-12.369-.348-18.064,8.02-17.637,20.158.591,16.805.87,33.927,3.339,50.449.019.106.057.2.086.31a2.156,2.156,0,0,0,.026.43c2.458,13.8,2.9,28.042,5.422,41.848,2.4,13.138,6.1,28.643,16.272,37.4.367.316.795.675,1.269,1.055,4.887,6.031,13.688,8.325,21.239.9,20.479-20.156,36.445-42,52.51-65.478,8.318-12.145,27.324-33.881,15.779-47.537" transform="translate(-81.537 -239.045)" fill="#0089ad"/>
                </g>
              </g>
            </g>
            <g id="Grupo_1104687" data-name="Grupo 1104687" transform="translate(69.809 94.469)" opacity="0.3" style="mix-blend-mode: multiply;isolation: isolate">
              <g id="Grupo_1104686" data-name="Grupo 1104686">
                <g id="Grupo_1104685" data-name="Grupo 1104685" clip-path="url(#clip-path-25)">
                  <path id="Trazado_915000" data-name="Trazado 915000" d="M224.9,314.976c4.521,5.063,6.708,11.683,4.07,18.519-6.488,16.81-30.143,16.593-43.176,9.45-14.226-7.794-23.355-21.858-31.131-35.6,2.07,3.656,24.737,6.279,28.788,6.031,7.06-.428,9.679-5.153,15.95-6.952,8.58-2.46,19.261,1.563,25.5,8.548" transform="translate(-154.658 -305.702)" fill="#0089ad"/>
                </g>
              </g>
            </g>
          </g>
        </g>
        <g id="Grupo_1104703" data-name="Grupo 1104703">
          <g id="Grupo_1104702" data-name="Grupo 1104702" clip-path="url(#clip-path-2)">
            <g id="Grupo_1104692" data-name="Grupo 1104692" transform="translate(23.403 131.978)" style="mix-blend-mode: multiply;isolation: isolate">
              <g id="Grupo_1104691" data-name="Grupo 1104691">
                <g id="Grupo_1104690" data-name="Grupo 1104690" clip-path="url(#clip-path-27)">
                  <path id="Trazado_915002" data-name="Trazado 915002" d="M51.375,167.2c-1.2,10.549-3.258,21.347-7.028,31.3-3.67,9.686-9.634,17.915-14.712,26.839-.191.337.3.747.553.426,13.471-16.967,19.78-37.266,21.855-58.561.041-.431-.621-.421-.669,0" transform="translate(-29.592 -166.879)" fill="#15043c"/>
                </g>
              </g>
            </g>
            <g id="Grupo_1104695" data-name="Grupo 1104695" transform="translate(26.992 166.273)" style="mix-blend-mode: multiply;isolation: isolate">
              <g id="Grupo_1104694" data-name="Grupo 1104694">
                <g id="Grupo_1104693" data-name="Grupo 1104693" clip-path="url(#clip-path-28)">
                  <path id="Trazado_915003" data-name="Trazado 915003" d="M48.919,210.41a104.041,104.041,0,0,1-14.742,26.768c-.18.236.186.454.381.295,7.837-6.38,11.434-17.791,14.841-26.93.113-.3-.367-.429-.48-.133" transform="translate(-34.129 -210.242)" fill="#15043c"/>
                </g>
              </g>
            </g>
            <g id="Grupo_1104698" data-name="Grupo 1104698" transform="translate(35.46 101.7)" style="mix-blend-mode: multiply;isolation: isolate">
              <g id="Grupo_1104697" data-name="Grupo 1104697">
                <g id="Grupo_1104696" data-name="Grupo 1104696" clip-path="url(#clip-path-29)">
                  <path id="Trazado_915004" data-name="Trazado 915004" d="M55,128.87a55.74,55.74,0,0,1-2.241,16.618c-1.625,5.583-4.822,9.89-7.869,14.7-.211.333.251.651.524.4,8.582-7.753,10.49-20.819,10.157-31.725a.286.286,0,0,0-.571,0" transform="translate(-44.837 -128.594)" fill="#310f26"/>
                </g>
              </g>
            </g>
            <path id="Trazado_915005" data-name="Trazado 915005" d="M95.626,227.052c24.521-1.992,36.706,41.936,38.335,61.583,1.841,22.185,4.18,44.523,4.366,66.959.058,6.816.589,15.078-2.015,21.647-2.946,7.419-12.889,1.361-16.792-1.314-11.063-7.591-16.436-22.6-20.255-35.4-4.01-13.448-6.006-27.552-9.955-41.006a2.135,2.135,0,0,1-.073-.424c-.04-.105-.089-.2-.12-.3-4.256-16.154-6.4-33.144-8.822-49.785-1.749-12.019,3-20.957,15.332-21.962" transform="translate(-16.719 -47.471)" fill="#da9c5e"/>
            <path id="Trazado_915006" data-name="Trazado 915006" d="M128.64,361.315c12.154-25.792,32.622-50.122,48.471-74,4.676-7.041,19.933-34.271,30.059-24.66,12.965,12.315-3.556,35.995-10.5,48.975-13.407,25.09-26.894,48.546-45.052,70.815-11.838,14.5-30.879-.747-25.134-16.055q.962-2.549,2.156-5.079" transform="translate(-26.232 -54.507)" fill="#ff7f86"/>
            <path id="Trazado_915007" data-name="Trazado 915007" d="M141.072,363.369c1.024-7.3,7.172-11.376,10.206-17.6a.262.262,0,0,0-.41-.316c-4.569,4.513-9.8,11.276-10.583,17.807-.054.448.725.552.787.107" transform="translate(-29.338 -72.231)" fill="#ff2a2c"/>
            <path id="Trazado_915008" data-name="Trazado 915008" d="M241.933,247.5c-1.639-1.182-3.6-.732-5.12-1.542-2.3-1.223-1.441-2.378-3.09-4.808-1.716-2.524-3.38-1.987-5.96-2.68-2.438-.656-2.289-1.259-4.218-2.535-6.428-4.254-10.189,3.669-13.336,7.663,0,.007-2.819,3.583-2.819,3.583l-7.165,9.147c-2.95,4-2.067,9.991,1.817,14.783l18.664,14.277c5.353,2.116,10.931,1.343,13.871-2.389l9.834-12.517c2-2.545,8.681-5.78,7.408-9.8-.8-2.517-4.408-2.808-6.584-3.433,1.118.32-1.757-8.632-3.3-9.745" transform="translate(-41.508 -49.088)" fill="#da9c5e" stroke="#311d48" stroke-width="1"/>
            <g id="Grupo_1104701" data-name="Grupo 1104701" transform="translate(71.663 210.743)" opacity="0.5" style="mix-blend-mode: multiply;isolation: isolate">
              <g id="Grupo_1104700" data-name="Grupo 1104700">
                <g id="Grupo_1104699" data-name="Grupo 1104699" clip-path="url(#clip-path-30)">
                  <path id="Trazado_915009" data-name="Trazado 915009" d="M229.262,267.321a2.974,2.974,0,0,0-.426-.848c-1.959,2.216-5.715,3.882-7.26,5.462l-11.132,11.377c-2.9,2.959-7.554,3.461-12.075,1.76-4.185,7.1-9.482,13.814-12.937,18.867-16.048,23.491-32,45.347-52.46,65.517a17.763,17.763,0,0,1-4.109,3.062c-.04-1.147-.068-2.3-.068-3.466,0-16.375,4-30.852,10.13-39.685-.443-6.463-.945-12.915-1.452-19.354a16.05,16.05,0,0,1-8,7.073c-13.037,4.767-30.129-12.961-38.855-39.9,1.4,10.087,3.026,20.13,5.344,29.868.027.1.071.193.108.3a2.428,2.428,0,0,0,.066.424c3.567,13.455,5.369,27.559,8.991,41.007,3.069,11.392,7.262,24.522,15.189,32.626,4.686,8.251,16.006,12.085,24.025,2.259,18.158-22.269,31.646-45.724,45.053-70.815,2.887-5.4,7.427-12.646,10.817-20.157,4.678,1.2,9.249.2,11.813-3.058l9.834-12.518c2-2.544,8.681-5.779,7.408-9.8" transform="translate(-90.614 -266.473)" fill="#ff7f86"/>
                </g>
              </g>
            </g>
            <path id="Trazado_915015" data-name="Trazado 915015" d="M113.529,222.227l-5.342-16.715s-3.844-7.5-7.333-12.927a67.778,67.778,0,0,0-6.625-8.786,95.436,95.436,0,0,0-12.407-17.922,100.315,100.315,0,0,0-16.888-14.3l-5.514-3.792" fill="none" stroke="#311d48" stroke-width="1"/>
          </g>
        </g>
      </g>
    </g>
    <path id="Trazado_915013" data-name="Trazado 915013" d="M170.112,129.928c4.151,1.423,11.794-.28,15.788-.495-.242.923-2.49,5.565-2.739,6.484-3,.245-5.7,1.006-8.6-.694-.981-.57-2.516-2.9-3.505-4.025-.351-.4-1.426-.995-.942-.829" transform="translate(915.39 3512.043)" fill="#311d48"/>
    <g id="Grupo_1104713" data-name="Grupo 1104713">
      <path id="Trazado_915011" data-name="Trazado 915011" d="M725.247,1490.705c1.859-.776,5.915-.736,5.915-.736s4.732-1.879,5.411-3.07a19.022,19.022,0,0,1,1.264-1.78,2.509,2.509,0,0,1,.334-.331c.387-.352.9-.683,1.358-.435.292.155.449.724.491,1.118.084.756.042,1.522.073,2.277a2.219,2.219,0,0,1-.627,1.542c-.35.418-1.283,3.358-3.388,4.387-1.391.682-3.944-.529-5.416,1.153l-3.133-1.617C726.767,1492.809,726.073,1490.612,725.247,1490.705Z" transform="translate(361.031 2153.025)" fill="#e6007e" stroke="#311d48" stroke-width="1"/>
      <path id="Trazado_915012" data-name="Trazado 915012" d="M739.656,1493.3a3.438,3.438,0,0,1,.763,2.172c-.073.789-.66,1.374-1.819,1.652a16.631,16.631,0,0,1-7.305,0,7.674,7.674,0,0,1-2.5-1.652,17.079,17.079,0,0,1-2.7-3.177,4.351,4.351,0,0,1,0-.758c1.452-.037,3.885,1.865,5.2,2.106a14.888,14.888,0,0,0,4.151.251C736.854,1493.746,738.219,1493.5,739.656,1493.3Z" transform="translate(359.709 2151.292)" fill="#e6007e" stroke="#311d48" stroke-width="1"/>
    </g>
  </g>
</svg>
