<svg xmlns="http://www.w3.org/2000/svg" xmlns:xlink="http://www.w3.org/1999/xlink" width="505" height="280.294" viewBox="0 0 505 280.294">
  <defs>
    <clipPath id="clip-path">
      <rect id="Rect치ngulo_404521" data-name="Rect치ngulo 404521" width="505" height="280.294" transform="translate(180 1501.741)" fill="#f7df3f" opacity="0.59"/>
    </clipPath>
    <clipPath id="clip-path-2">
      <rect id="Rect치ngulo_404520" data-name="Rect치ngulo 404520" width="538.846" height="303.294" transform="translate(-11459.605 -10144.126)" fill="#fff" opacity="0.59"/>
    </clipPath>
  </defs>
  <g id="Enmascarar_grupo_1079063" data-name="Enmascarar grupo 1079063" transform="translate(-180 -1501.741)" clip-path="url(#clip-path)">
    <g id="Grupo_1104828" data-name="Grupo 1104828" transform="translate(11567.605 11274.741)">
      <g id="Enmascarar_grupo_1079062" data-name="Enmascarar grupo 1079062" transform="translate(72 348.126)" clip-path="url(#clip-path-2)">
        <g id="Grupo_1104821" data-name="Grupo 1104821" transform="translate(-4.477 8.199)">
          <path id="Trazado_916821" data-name="Trazado 916821" d="M414.272,449.68c30.331,0,79.6-13.6,85.656-53.436,5.04-33.171-19.041-65.6-56.471-78.434-48.9-16.772-34.212-32.59-17.691-62.9,17.691-32.453-18.889-78.246-69.984-49.043s-70.915,44.4-108.1,30.163c-61.043-23.367-87.791,42.212-46.174,69.6s44.869,65.492,23.955,85.88a51.9,51.9,0,0,0-7,8.441c-13.8,20.67-9.45,49.73,50.812,49.73h145Z" transform="translate(-11536.188 -10317.703)" fill="#553392"/>
          <path id="Trazado_916822" data-name="Trazado 916822" d="M337.738,372.038c-46.563-9.993-106.875,30.8-137.361,35.363-9.854,1.477-16.6-1.117-18.246-11.157-5.441-33.171,20.555-65.6,60.962-78.434,52.787-16.772,36.932-32.59,19.1-62.9-19.1-32.453,20.391-78.246,75.548-49.043s76.554,44.4,116.7,30.163c65.9-23.367,94.771,42.212,49.846,69.6s-48.437,65.492-25.86,85.88a53.028,53.028,0,0,1,7.554,8.441c14.894,20.67,10.2,49.73-54.851,49.73,0,0-31.141-64.283-93.389-77.642Z" transform="translate(-11536.188 -10252.307)" fill="#613e9f"/>
          <g id="Capa_3" data-name="Capa 3" transform="translate(-11286.058 -10121.161)">
            <path id="Trazado_916823" data-name="Trazado 916823" d="M64.223,24.8V24.44l-.143.143A.693.693,0,0,0,64.223,24.8Z" transform="translate(89.006 33.947)" fill="#fff"/>
            <path id="Trazado_916824" data-name="Trazado 916824" d="M64.768,15.08h0Z" transform="translate(89.298 20.947)" fill="#fff"/>
            <path id="Trazado_916825" data-name="Trazado 916825" d="M61.76,14.57a5.136,5.136,0,0,0,4.348,1.577h-.215A32.944,32.944,0,0,1,61.76,14.57Z" transform="translate(85.784 20.238)" fill="#fff"/>
            <path id="Trazado_916826" data-name="Trazado 916826" d="M106.6,24.952a3.918,3.918,0,0,0-1.171-5.423,2.389,2.389,0,0,0-2.843-.311,1.84,1.84,0,0,1-1.457.311,3.153,3.153,0,0,1-1.672-1.29c-.143-.311.478-1.1.884-1.553a4.634,4.634,0,0,1,1.314-.764,2.222,2.222,0,0,0-2.389-2.389,18.507,18.507,0,0,1-2.819,0c-.932-.143-1.7,0-2.1-.573-1.744-2.054-3.894-1.624-6.283-1.194-.741.143-1.433.549-2.174.741-1.529.43-2.1,0-1.863-1.624a11.492,11.492,0,0,1,.406-1.505c-1.123.167-1.935.239-2.723.43s-1.266.5-1.935.669c-2.054.526-3.2-.549-2.771-2.6.215-1.171.526-2.389.812-3.464a3.822,3.822,0,0,0-3.583-.334,33.588,33.588,0,0,0-9.556,5.28A2.6,2.6,0,0,0,63.766,11c-.239,2.054-.788,2.389-2.7,1.744a10.32,10.32,0,0,1-1.194-.549c-1.123,1.1-2.246,2.222-3.44,3.321-.573.549-1.242,1.027-1.863,1.529l-1.29-2.1a8.266,8.266,0,0,0-6.737,4.4l1.194,1.744c-.263.287-.406.6-.621.645-3.7.932-5.28,3.774-6.378,7.167a1.887,1.887,0,0,0-.215.979,3.177,3.177,0,0,1-1.529,4.037c-1.266.693.119,1.816,0,2.15A30.267,30.267,0,0,0,35.5,40.146,3.512,3.512,0,0,0,37.3,45.473a18.656,18.656,0,0,1,1.816.979c1.409.932,1.505,1.935,0,2.747a5.16,5.16,0,0,0-2.222,2.6,10.273,10.273,0,0,1-2.269,2.389,34.933,34.933,0,0,0-3.3,3.2,3.01,3.01,0,0,0-.119,4.4c1.386,2.007,1.338,1.983-.143,3.846a25.441,25.441,0,0,0-1.505,2.508c1.242.334,2.2.526,3.106.86.478.191,1.147.645,1.194,1.027s-.5,1-.956,1.29-1.72.764-2.389,1.266a6.331,6.331,0,0,0,.908,10.965,9.8,9.8,0,0,0,6.761.764,32.752,32.752,0,0,0,5.065-1.792c2.389-.932,2.7-.741,2.747,1.672v1.433a23.5,23.5,0,0,0,2.6-1.051c.693-.382,1.362-.956,2.078-.287s.311,1.529-.263,2.222c0,.143-.167.287-.382.621,3.249,3.153,6.713.836,10.081.478a1.648,1.648,0,0,0-.526-2.6,31.2,31.2,0,0,1-2.556-2.15,10.893,10.893,0,0,1-3.56-5.232c-1.051-3.416-2.174-6.832-3.321-10.44-1.362,0-3.034.143-4.013-1.577,0-.215-.764-.143-1.171-.143H42.671l-.526-.669a4.778,4.778,0,0,0,1.362-.6,3.392,3.392,0,0,0,.788-4.778c-1.027-1.792-.5-2.652,1.505-2.986,1-.191,2.031-.215,3.273-.334a9.555,9.555,0,0,0-.287-2.031c-.86-2.246-.908-2.246.979-3.751a14.334,14.334,0,0,1-.908-2.819,16.722,16.722,0,0,1,.334-3.2,29.479,29.479,0,0,0,3.488.764c.693,0,1.72,0,2.054-.43a2.246,2.246,0,0,0,0-2.1,13.784,13.784,0,0,0-2.508-2.652c-.573-.478-1.457-.645-.956-1.839h1.409c1.935,0,2.843-.788,2.962-2.723a19.78,19.78,0,0,0-.215-3.559,15.9,15.9,0,0,0-.382-2.389l2.389-.932c.478-.956.478-2.389,2.389-2.7,1.816,2.389,1.051,5.757,2.389,8.6l1.529-2.389c.5,1.123.836,1.863,1.194,2.58a21.5,21.5,0,0,0,1.911,3.583A3.918,3.918,0,0,0,70.956,39.6a2.867,2.867,0,0,0,2.389-3.989,11.087,11.087,0,0,1-.287-1.577C75.686,33.6,77,36.419,79.819,36.2c-.764-1.123-1.433-1.959-1.935-2.891a3.368,3.368,0,0,1-.454-2.126,49.386,49.386,0,0,1,2.007-4.778,24.6,24.6,0,0,0,2.843,3.368,13.712,13.712,0,0,0,4.157,2.389,26.541,26.541,0,0,0,5.041.717L89.853,30.8c1.194,0,2.389.406,3.225-.669.5-.621,1.338-.287,1.744.358a4.372,4.372,0,0,1,1,2.389,5.5,5.5,0,0,0,1.792,4.181c2.031,2.174,4.2,4.2,6.426,6.4-.526.382-1.147.788-1.744,1.242-1.983,1.505-1.839,2.962.358,4.061l1.481.645c-3.3,2.389-3.44,5.805-2.962,9.317a2.962,2.962,0,0,1,0,1.027,3.082,3.082,0,0,0,1.792,3.607c1.505.836,2.7,1.744,2.126,3.822-.167.621.406,1.433.669,2.174a5.112,5.112,0,0,1,.191,4.228l-2.007-1.123a8.242,8.242,0,0,1-2.269,1.433,7.167,7.167,0,0,1-2.508-.311c-1.6,2.843-3.082,5.9-4.945,8.743a17.535,17.535,0,0,1-8.242,5.925V92.7a9.818,9.818,0,0,0,5.375-1.624c.979-.86,2.007-.311,2.389,1.075.669,1.887,1.147,2.174,2.532.956a15.648,15.648,0,0,0,2.891-3.822c1.027-1.816,1.314-2.031,3.153-1.027a20.712,20.712,0,0,0,8.5,2.652c3.87.239,5.662-2.58,3.8-6.02a29.239,29.239,0,0,0-2.389-3.249,27.45,27.45,0,0,1-2.15-2.891c-1.481-2.508-.406-4.4,2.58-4.348a30.414,30.414,0,0,1,5.041.836,4.348,4.348,0,0,0,5.566-2.8c.884-2.246.167-3.655-2.246-4.252-.932-.215-1.6-.669-1.624-1.672a1.72,1.72,0,0,1,1.529-1.792,7.383,7.383,0,0,1,1.194-.143c.143-.215.311-.311.358-.454,1.648-4.4.812-5.447-3.846-4.993h-.263c-1.553.143-3.177.263-4.133-1.29a3.512,3.512,0,0,1,.43-4.324.693.693,0,0,1,0-.215l.143-.143.812-2.389s-.215-.287-.334-.287c-3.01-.167-3.822-1.362-2.652-4.109a54.524,54.524,0,0,0,2.389-5.088,23.1,23.1,0,0,0,1.171-5.71,4.037,4.037,0,0,0-2.962-4.348,5.136,5.136,0,0,1-4.348-1.577l-.358-.167h.215a11.68,11.68,0,0,1-.979-1.266s0,.167,0,.263C105.572,27.03,105.572,27.03,106.6,24.952Z" transform="translate(38.556 5.246)" fill="#a48a7b"/>
            <path id="Trazado_916827" data-name="Trazado 916827" d="M196.493,451.054c-.311-1.792-.956-2.389-2.8-2.389a22,22,0,0,1-12.136-3.416c-3.655-2.054-7.31-4.109-10.941-6.211a19.974,19.974,0,0,1-3.129-2.2c-2.126-1.839-4.157-3.8-6.307-5.614s-2.174-2.054-1.027-4.778c1.529-3.607,2.938-7.167,4.157-11.013a7.692,7.692,0,0,0-.717-6.665,90.78,90.78,0,0,1-8.027-19.947,4.371,4.371,0,0,1,0-2.007c.287-1.6.764-3.153,1.075-4.778a151.417,151.417,0,0,0,3.416-20.951,33.923,33.923,0,0,1,3.368-12.566,23.219,23.219,0,0,0,2.174-7.86c.334-3.368,0-6.808,0-10.225.215-12.685.526-25.37.741-38.032V271.551l1.027-.287c2.962-.526,5.925-.956,8.839-1.6s3.894-2.222,3.488-5.256a17.081,17.081,0,0,0-2.891-7.167,126.615,126.615,0,0,1-11.371-22.408c-2.389-6.163-4.3-12.59-6.45-19.111,1.075-.406,1.911-.788,2.771-1.1a32.466,32.466,0,0,0,8.982-4.778,5.088,5.088,0,0,0,2.222-4.4,8.648,8.648,0,0,1,.788-4.2,11.371,11.371,0,0,0,.836-8.194,121.451,121.451,0,0,1-2.2-21.19,52.078,52.078,0,0,0-1.481-10.607c-2.6-10.3-5.447-20.521-8.051-30.793a8.672,8.672,0,0,1,0-4.491,4.181,4.181,0,0,0-.956-4.467,15.862,15.862,0,0,0-6.426-4.133l-11.945-4.348c-1.839-.669-3.87-1.1-4.491-3.392,0-.215-.311-.406-.5-.549l-9.747-7.167c-.454-.334-.979-.6-1.72-1.027l2.938-.669c3.942,3.368,8.576.764,9.795-5.757.86.43,1.7.836,2.389,1.266a20.449,20.449,0,0,0,7.525,2.389,5.805,5.805,0,0,0,5.781-8.791,38.7,38.7,0,0,0-3.058-4.085c-.43-.573-.884-1.123-1.314-1.672,4.3,1.027,8.337,1.911,11.347-2.389a7.645,7.645,0,0,0,.215-9.914c.478-1.171,1-2.246,1.338-3.368,1.123-4.013-.741-6.4-4.778-6.283a19.673,19.673,0,0,0-2.031.263,18.9,18.9,0,0,1-2.389.167c-1.386,0-1.983-.693-1.887-2.1a12.234,12.234,0,0,1,.239-1.29,3.512,3.512,0,0,0-.287,4.419c.956,1.553,2.58,1.433,4.133,1.29h.263c4.778-.454,5.495.6,3.846,4.993,0,.143-.215.239-.358.454a7.382,7.382,0,0,0-1.194.143,1.72,1.72,0,0,0-1.529,1.792c0,1,.693,1.457,1.624,1.672,2.389.6,3.129,2.007,2.246,4.252a4.348,4.348,0,0,1-5.566,2.8,30.411,30.411,0,0,0-5.041-.836c-2.986,0-4.061,1.839-2.58,4.348a27.448,27.448,0,0,0,2.15,2.891,29.239,29.239,0,0,1,2.389,3.249c1.863,3.44,0,6.259-3.8,6.02a20.712,20.712,0,0,1-8.528-2.7c-1.839-1-2.126-.788-3.153,1.027a15.647,15.647,0,0,1-2.891,3.822c-1.386,1.218-1.863.932-2.532-.956-.478-1.386-1.505-1.935-2.389-1.075a9.818,9.818,0,0,1-5.375,1.624V93.6a17.535,17.535,0,0,0,8.242-5.925c1.863-2.843,3.344-5.9,4.945-8.743a7.167,7.167,0,0,0,2.508.263,8.242,8.242,0,0,0,2.269-1.433l2.007,1.123a5.112,5.112,0,0,0-.311-4.276c-.263-.741-.836-1.553-.669-2.174.573-2.078-.621-2.986-2.126-3.822A3.082,3.082,0,0,1,139.685,65a2.962,2.962,0,0,0,0-1.027c-.478-3.512-.334-6.856,2.962-9.317l-1.481-.645c-2.2-1.1-2.389-2.556-.358-4.061.6-.454,1.218-.86,1.744-1.242-2.222-2.2-4.4-4.228-6.426-6.4a5.5,5.5,0,0,1-1.839-4.324,4.372,4.372,0,0,0-1-2.389c-.406-.645-1.242-.979-1.744-.358-.908,1.075-2.031.6-3.225.669l1.624,2.078a26.541,26.541,0,0,1-5.041-.717,13.712,13.712,0,0,1-4.157-2.389,24.606,24.606,0,0,1-2.843-3.368,49.381,49.381,0,0,0-2.007,4.778,3.368,3.368,0,0,0,.454,2.126c.5.932,1.171,1.768,1.935,2.891-2.819.311-4.133-2.6-6.761-2.174a11.086,11.086,0,0,0,.287,1.577,2.867,2.867,0,0,1-2.389,3.99,3.918,3.918,0,0,1-4.109-1.481,21.5,21.5,0,0,1-1.911-3.583c-.358-.717-.693-1.457-1.194-2.58l-1.529,2.389c-1.386-2.843-.621-6.14-2.389-8.6-1.911.215-1.911,1.744-2.389,2.7l-2.389.932c.143.884.311,1.624.382,2.389a19.778,19.778,0,0,1,.287,3.751c-.119,1.935-1.027,2.7-2.962,2.723H89.8c-.5,1.194.382,1.362.956,1.839a13.784,13.784,0,0,1,2.556,2.6,2.246,2.246,0,0,1,0,2.1c-.334.43-1.362.5-2.054.43a29.48,29.48,0,0,1-3.488-.764,16.722,16.722,0,0,0-.334,3.2,14.334,14.334,0,0,0,.956,2.891c-1.887,1.505-1.839,1.505-.979,3.751a9.556,9.556,0,0,1,.287,2.031c-1.242.119-2.389.143-3.273.334-2.007.334-2.532,1.194-1.505,2.986a3.392,3.392,0,0,1-.788,4.778,4.778,4.778,0,0,1-1.362.6l.526.669h2.389c.406,0,1.051,0,1.171.143.979,1.72,2.652,1.6,4.013,1.577,1.147,3.607,2.389,7.023,3.321,10.44A10.894,10.894,0,0,0,95.561,88.2a31.2,31.2,0,0,0,2.556,2.15,1.648,1.648,0,0,1,.526,2.6c-3.368.358-6.832,2.676-10.081-.478.215-.334.263-.478.382-.621.573-.693,1.1-1.457.263-2.222s-1.386,0-2.078.287a23.5,23.5,0,0,1-2.6,1.051c0-.764,0-1.1,0-1.433,0-2.389-.454-2.6-2.747-1.672a32.751,32.751,0,0,1-5.064,1.792,9.8,9.8,0,0,1-6.761-.764,6.331,6.331,0,0,1-.908-10.965c.764-.5,1.72-.764,2.389-1.266s.979-.884.956-1.29-.717-.836-1.194-1.027c-.908-.334-1.863-.526-3.106-.86a25.442,25.442,0,0,1,1.505-2.508c1.481-1.863,1.529-1.839.143-3.846a3.01,3.01,0,0,1,.119-4.4c.979-1.171,2.2-2.126,3.3-3.2a10.272,10.272,0,0,0,2.269-2.389,5.16,5.16,0,0,1,2.222-2.6c1.386-.812,1.29-1.816,0-2.747a18.658,18.658,0,0,0-1.816-.979,3.512,3.512,0,0,1-1.768-5.423,30.269,30.269,0,0,1,3.488-4.276c0-.334-1.338-1.457,0-2.15a3.177,3.177,0,0,0,1.529-4.037,1.887,1.887,0,0,1,.215-.979c1.1-3.273,2.676-6.116,6.378-7.167.215,0,.358-.358.621-.645L85.1,24.393A8.266,8.266,0,0,1,91.835,20l1.29,2.1c.621-.5,1.29-.979,1.863-1.529,1.194-1.1,2.389-2.222,3.44-3.321a10.319,10.319,0,0,0,1.194.549c1.911.741,2.389.311,2.7-1.744a2.6,2.6,0,0,1,.908-1.648,33.588,33.588,0,0,1,9.556-5.28,3.822,3.822,0,0,1,3.559.43c-.287,1.171-.6,2.389-.812,3.464-.43,2.054.717,3.129,2.771,2.6.669-.167,1.266-.5,1.935-.669s1.6-.263,2.723-.43a11.494,11.494,0,0,0-.406,1.505c-.239,1.553.334,2.054,1.863,1.624.741-.191,1.433-.6,2.174-.741,2.389-.43,4.563-.86,6.4,1.29.406.478,1.386.526,2.1.573s1.887-.119,2.819,0a2.222,2.222,0,0,1,2.389,2.389,4.635,4.635,0,0,0-1.314.764c-.406.454-1.027,1.242-.884,1.553a3.153,3.153,0,0,0,1.672,1.29,1.839,1.839,0,0,0,1.457-.311,2.389,2.389,0,0,1,2.843.311,3.918,3.918,0,0,1,1.171,5.423c-1.027,2.078-1.027,2.078,1.218,3.44v-.263a15.026,15.026,0,0,1-.908-1.648,15.024,15.024,0,0,0,.908,1.648,16.58,16.58,0,0,1,.526-1.863,5.5,5.5,0,0,0-2.031-7.382c-.621-.454-1.266-.836-1.863-1.242-.287-4.372-2.126-6.5-6.044-6.331a20.975,20.975,0,0,1-5.662-.741,51.387,51.387,0,0,0-5.877-.669c-.884-3.99-4.109-3.368-6.952-3.416a3.655,3.655,0,0,1-.382-.741c-.979-2.532-1.051-2.6-3.727-2.389a35.834,35.834,0,0,0-11.4,3.344,8.242,8.242,0,0,0-2.389,1.72C99.5,14.813,98,15.53,96.851,16.581A14.716,14.716,0,0,1,88.633,19.9c-4.372.717-5.471,2.174-5.733,6.187a39.607,39.607,0,0,0-3.774,3.679,7.382,7.382,0,0,0-2.15,6.068,2.389,2.389,0,0,1-1.314,2.914c-1.935,1.266-1.935,1.505-.884,3.727-5.208,5.3-5.136,7.453.454,11.252-.406.311-.932.573-1.123.979a20.425,20.425,0,0,1-5.59,5.948,11.682,11.682,0,0,0-1.744,1.863,4.778,4.778,0,0,0-.143,5.972c.287.43.621.812,1.027,1.314a4.133,4.133,0,0,0-.406,6.355,8.027,8.027,0,0,0-4.443,6.713A9.914,9.914,0,0,0,71.672,93,13.975,13.975,0,0,0,82.136,90.47c.979,2.389.979,2.389,3.249,2.867a3.464,3.464,0,0,1,1.648.932,7.74,7.74,0,0,0,7.334,2.078c1.457-.287,2.914-.717,4.348-1.1.526,1.194-.167,1.505-.932,1.816a28.906,28.906,0,0,0-9.126,6.116A18.538,18.538,0,0,1,80.75,107.1a5.59,5.59,0,0,1-3.01,0,65.55,65.55,0,0,1-6.976-2.389c-2.15-.932-2.938-.908-4.539.764a11.064,11.064,0,0,0-.764.908l-36.312,2.389a5.136,5.136,0,0,1-.454-.836c-2.15-8.815-4.42-17.606-6.378-26.445a153.124,153.124,0,0,1-2.508-15.456c-.287-2.389-.43-4.611-3.416-5.471.43-2.652.979-5.065,1.123-7.5a3.679,3.679,0,0,1,1.911-3.082,7.764,7.764,0,0,1,5.256-1.648A1.839,1.839,0,0,0,26.9,46.777c.549-1.816,1.29-3.559,1.72-5.375.717-2.891,1.29-5.805,1.863-8.743a12.589,12.589,0,0,0,0-2.126l-2.389.358c-.421-1.542,1.2-3.848-1.553-6.283-2.417-2.141-9.212-4.377-9.818-4.324a50.6,50.6,0,0,1-5.375.263A4.945,4.945,0,0,0,6,23.628C4.376,27.4,2.537,31.058.817,34.785A9.962,9.962,0,0,0,.339,41.33c.693,3.01,1.457,6,2.126,9.006a14.334,14.334,0,0,1,.43,3.774c-.311,5.112-.884,10.225-1.123,15.361-.43,9.914-.693,19.852-1.051,29.79A143.121,143.121,0,0,0,1.1,123.629a7.5,7.5,0,0,0,2.174,5.184c-.788,2.222-.621,2.676,1.266,3.488.382.167.812.239,1.218.382,2.986,1.027,6,2.007,8.958,3.106A293.833,293.833,0,0,0,61.925,148.76l4.921,1.051c.143,2.389.191,4.563.406,6.689A202.2,202.2,0,0,1,69,184.952a3.7,3.7,0,0,0,0,1.266,4.778,4.778,0,0,1-.788,4.9,1.7,1.7,0,0,0-.167,1.6c.717.932.334,1.744.119,2.652-.454,1.911-.764,3.87-1.29,5.757a94.627,94.627,0,0,1-2.962,9.245c-1.481,3.655-3.44,7.167-4.969,10.7a23.889,23.889,0,0,0-1.792,6.116,39.417,39.417,0,0,1-5.017,14.74,20.544,20.544,0,0,0-1.768,4.228c-.669,2.15,0,3.13,1.553,4.611a38.222,38.222,0,0,0,8.743,5.829c1.218.6,1.338,1.457,1.218,2.723a57.143,57.143,0,0,0-.549,9.556c.741,9.795,1.266,19.685,2.771,29.384,2.389,15.456,5.375,30.865,8.481,46.2,1.218,6,3.512,11.777,5.28,17.678.979,3.368,1.768,6.785,2.819,10.129s0,7.023,1.6,10.3c.143.263,0,.669,0,1a48.781,48.781,0,0,0,0,7.931c.717,4.539,1.887,9.03,2.843,13.545.43,2.078.167,2.771-1.72,3.655s-3.177,1.959-2.628,4.3a3.774,3.774,0,0,1-.167,1.529c-.669,2.389-1.314,4.945-2.054,7.406-.6,2.031-.43,2.556,1.433,3.464.956.478,1.935.932,3.082,1.433-1.123,2.652-2.126,4.993-3.082,7.358a12.9,12.9,0,0,1-6.355,6.474c-4.2,2.222-8.5,4.324-12.8,6.426a1.911,1.911,0,0,0-1.171,2.676,25.322,25.322,0,0,0,1.386,3.846,8.409,8.409,0,0,0,6.355,5.064c3.058.287,6.092.836,9.15,1.1a76.993,76.993,0,0,0,17.7-.358c7.023-.979,11.945-5.351,16.436-10.726h3.225a3.249,3.249,0,0,0,3.153-3.846c0-1.768-.191-3.559-.239-5.351,0-.478,0-1.266.239-1.433,1.959-1.123,1.648-2.389.287-3.679a1.147,1.147,0,0,1-.167-.717c0-3.751-.382-7.525-.215-11.276.239-4.969.86-9.914,1.314-14.859a6.686,6.686,0,0,1,.358-1.481,31.8,31.8,0,0,1,1.816,10.893c0,2.58,0,5.136.239,7.692a8.027,8.027,0,0,0,.932,3.44,7.43,7.43,0,0,1,1.266,5.566,50.549,50.549,0,0,0,0,10.75,22.719,22.719,0,0,0,.86,5.041c.6,2.222,1.409,2.723,3.631,2.891a23.114,23.114,0,0,1,3.8.549c3.44.645,6.832,1.457,10.3,1.959,3.966.549,3.3.932,5.518-2.532,0-.119.239-.191.478-.334a13.808,13.808,0,0,0,6.474,3.894c4.778,1.242,9.556,2.676,14.334,3.583,5.781,1.1,11.658,1.816,17.511,2.508a35.569,35.569,0,0,0,7.645,0,3.631,3.631,0,0,0,3.655-4.348A34.219,34.219,0,0,0,196.493,451.054ZM172.915,257.1c.717,1.242,1.505,2.389,2.2,3.751a8.7,8.7,0,0,1,1.266,4.778l-20.163,3.058a252.392,252.392,0,0,1-29.384,2.652c-1.792,0-3.56.382-5.351.526a18.518,18.518,0,0,1-2.819,0c-3.727-.358-4.133-.621-4.945-4.228q-2.556-10.989-4.778-22.026a17.606,17.606,0,0,1-.167-4.348q.43-11.8.908-23.579v-2.2c2.2.573,3.058-.621,3.942-2.389,1.481-2.867,3.392-5.518,5.041-8.313a2.843,2.843,0,0,1,3.177-1.29c1.935.191,3.894.215,6.044.311.143.693.334,1.672.5,2.652A9.556,9.556,0,0,0,133,212.926c2.389,1.529,4.778,2.962,7.167,4.515a5.5,5.5,0,0,0,3.942.717c3.894-.5,7.788-1.051,11.682-1.577h.932c.717,2.676,1.529,5.375,2.2,8.1a131.653,131.653,0,0,0,14,32.418Zm-39.871-49.26c4.778-3.942,5.017-9.556,5.853-14.907a25.85,25.85,0,0,0,.358-3.822c0-1.529.621-2.222,2.389-2.1a49.57,49.57,0,0,1-3.273,18.92,14.19,14.19,0,0,1-2.078,3.464,1.959,1.959,0,0,1-2.914.526l1.7-.932ZM116.655,194.15a68.511,68.511,0,0,0-7.167-1.911,10.487,10.487,0,0,1-7.645-4.133,7.357,7.357,0,0,1-.549-1.218,20.592,20.592,0,0,0,9.293,3.655c3.177.263,6.355,1.386,9.556-.334a20.522,20.522,0,0,0-2.007-.5c-2.867-.382-5.757-.693-8.648-1.123a14.836,14.836,0,0,1-6.641-2.915c6.474,1.744,12.924,3.464,19.589,1.433v-.764h-2.628a44.027,44.027,0,0,1-16.722-2.891.215.215,0,0,1,0-.143h0a5.542,5.542,0,0,1-5.16-1.505,14.166,14.166,0,0,1,5.16,1.505h.143a66.387,66.387,0,0,0,12.685,1.051,33.109,33.109,0,0,1,4.539.693c1.7.191,3.416.263,5.112.382a4.515,4.515,0,0,0,3.44-1.314c1.147-1.1,2.389-2.1,3.846-3.344,0,.908-.215,1.481-.215,2.078a3.822,3.822,0,0,0,2.723,4.157c2.389.979,2.676,1.242,1.792,3.559a71.427,71.427,0,0,1-3.918,8.624,3.273,3.273,0,0,1-3.129,1.887c-1.6,0-3.225.311-4.778.382a13.951,13.951,0,0,1-7.573-2.174,26.66,26.66,0,0,0-8.7-2.986,5.3,5.3,0,0,1-4.467-3.01l14.142,3.249a2.389,2.389,0,0,0-2.078-2.437Zm16.89,6.761c.788-1.529,1.338-2.58,1.863-3.631C135.552,198.665,135.838,200.146,133.545,200.91Zm.239,2.556c-.956,1.314-1.505,2.389-2.914,2.054-.406,0-.573-1.1-.956-1.863Zm6.546-19.709c-1.266.334-2.389,1.433-3.8,1.171s-2.389-.836-2.031-2.389a10.87,10.87,0,0,1,3.177-7.167c1.887-1.529,3.536-3.344,5.686-5.4l-.979,6.211,1.911.717a1.769,1.769,0,0,1,.167.5c0,3.058-.741,5.447-4.109,6.355Zm3.01-20.425h-4.778l5.71-7.6.478.191Zm-.382-9.245c-1.983,2.389-3.99,4.921-5.853,7.453a2.747,2.747,0,0,1-2.389,1.409,253.058,253.058,0,0,1-25.9-.932c-4.061-.5-8.194-.669-12.255-1.123a2.15,2.15,0,0,0-2.652,1.7,41.422,41.422,0,0,1-2.007,5.017c-2.819,5.351-5.638,10.726-8.648,15.982-2.031,3.464-4.419,6.737-6.641,10.3L70.263,191.5c.478-.86.812-1.529,1.242-2.15,1.959-2.771,4.013-5.518,5.925-8.337a16.913,16.913,0,0,0,1.839-3.655c2.771-7.525,5.495-15.1,8.218-22.647.239-.621.454-1.266.669-1.887a260.56,260.56,0,0,0,56.426-.526Zm-68.2,44.649a22.361,22.361,0,0,0,4.587-5.757,48.235,48.235,0,0,1,3.966-6,64.5,64.5,0,0,0,7.334-12.59c.764-1.624,1.7-3.177,2.389-4.778.956-2.174,1.768-4.42,2.723-6.88a21.769,21.769,0,0,1,2.771,0c5.256.669,10.487,1.457,15.767,2.031,2.532.287,5.112.239,7.692.311l20.258.645a4.488,4.488,0,0,1,1.481.167l.454.573a14.334,14.334,0,0,0-1.457.812,76.016,76.016,0,0,0-15.839,15.6,2.532,2.532,0,0,1-2.389,1.29c-2.556,0-5.112-.239-7.668-.382-.764,0-1.529-.239-2.389-.215a52.079,52.079,0,0,1-15.671-2.389l-1.266-.239a2.389,2.389,0,0,0,0,2.8,62.446,62.446,0,0,1,4.778,9.556,7.477,7.477,0,0,0,5.805,5.256A38.531,38.531,0,0,1,113,199.931c1.72.669,3.344,1.624,5.3,2.6-1.457,2.078-2.771,3.822-3.918,5.662s-2.2,3.87-3.368,5.972c-14.023,0-26.278-5.566-38.008-11.945a3.751,3.751,0,0,1,1.744-3.488Zm64.5-86.264c6.259,4.013,13.832,5.9,19.661,10.7-.143,1.218-.6,2.246-.287,2.962s1.338,1.123,2.174,1.744a54.086,54.086,0,0,0,2.126,14.334c1.744,8.027,3.01,16.149,4.778,24.176a87.122,87.122,0,0,1,1.553,14.5,8,8,0,0,0,1.266,5.136c.287.334.239.956.311,1.457.239,1.959.43,3.918.717,5.877a7.788,7.788,0,0,1-1.051,6.092,6.952,6.952,0,0,0-.884,6,1.911,1.911,0,0,1-1,2.556,45.867,45.867,0,0,1-11.156,4.348,120.231,120.231,0,0,1-13.593,2.222c-.979,0-2.054.5-2.867-.526,3.2-9.365,5.327-18.849,3.344-29.1l18.108-3.034a5.4,5.4,0,0,0,1.266-.215.86.86,0,0,0,0-1.577,5.328,5.328,0,0,0-1.744-.263c-2.652,0-5.3.191-7.955.287l-4.611.263c.717-.788,1.1-1.266,1.529-1.672,1.72-1.672,3.607-3.177,5.184-4.969s1.218-3.583-1.553-3.989a29.954,29.954,0,0,0-3.918,0,17.916,17.916,0,0,0,3.416-5.638l-4.467,5.041a58.648,58.648,0,0,1-.812-11.515c.239-2.723.287-5.471.358-8.194a4.491,4.491,0,0,1,1.362-3.751,3.751,3.751,0,0,0,.741-2.078,30.244,30.244,0,0,1,4.3-11.443,5.661,5.661,0,0,1,1.194-1.314c.717-.6,1.433-1.29.669-2.1s-1.6,0-2.2.526a10.846,10.846,0,0,0-2.031,2.389c-1.887,3.249-3.679,6.546-5.494,9.842a1.624,1.624,0,0,0-.263.717,21.93,21.93,0,0,1-1.863,7.406,135.14,135.14,0,0,1-26.469,2.389c3.273-5.136,6.259-9.986,9.388-14.74,1.887-2.867,4.037-5.542,6.044-8.313a16.719,16.719,0,0,0,1.266-1.935c.884-1.672.6-2.8-1.194-3.488s-3.751-1.075-5.662-1.6a6.051,6.051,0,0,1-1.147-.191Zm9.317,64.644c.143-2.1.263-4.109.406-6.426,2.556.143,4.945-.812,7.167.454-.669,2.15-3.249,4.276-7.5,5.972ZM124.945,103.06a35.118,35.118,0,0,1,11.586,7.907,29.577,29.577,0,0,1-2.2,2.078c-2.389,1.839-4.993,3.607-7.477,5.423a12.4,12.4,0,0,0-1.7,1.147,2.246,2.246,0,0,0,.86,4.037c1.457.5,2.986.741,4.467,1.123l3.512.932c-.932,1.218-1.6,2.174-2.389,3.058a121.45,121.45,0,0,0-11.2,14.572,27.162,27.162,0,0,0-3.846,8.576h-9.341c0-.358-.167-.645,0-.86,4.061-10.248,8-20.545,12.327-30.7a49.641,49.641,0,0,1,8.122-13.33,3.318,3.318,0,0,0,.287-.6c-.048-2.007-2.962-1.171-2.938-3.416ZM140.473,72a35.5,35.5,0,0,0-1,4.181c0,.215-.287.382-.454.573-1-1.218-.979-2.007.215-6.713,1.171.287,1.72.573,1.314,1.983ZM87.391,70.236c-1,0-1.242-.836-1.266-1.6a14.859,14.859,0,0,1,.239-2.389,6.033,6.033,0,0,1,.191-1.816l1.409-.406c.167.287.311.406.334.549a38.907,38.907,0,0,0,.143,4.085c.119.741-.048,1.553-.979,1.6ZM94.845,81.8c-.478-1.1-1.171-2.1-1.577-3.225a57.645,57.645,0,0,1-2.389-7.525,58.718,58.718,0,0,1-.764-7.668,8.959,8.959,0,0,1,.263-2.508c.43-2.007.263-2.389-2.031-3.153.645-1.027,1.792-1.839,1.218-3.3-.43-1.051-.669-2.174-1.1-3.607,1.29.334,2.1.6,2.914.717a2.532,2.532,0,0,0,3.034-3.559,26.924,26.924,0,0,0-1.242-2.58,5.112,5.112,0,0,0,2.389-4.419c0-1.648,1.577,2.2,6.4,1.816,4.563,6.163,9.03,6.283,11.945.311a10.631,10.631,0,0,0,2.891.788,3.631,3.631,0,0,0,2.389-.908c.741-.741.287-1.768-.311-2.58l-2.389-2.986c.908-.956,1.505-1.194,2.389-.311,3.655,3.225,6,3.727,11.061,2.556a12.685,12.685,0,0,0,9.006,8.791,11.538,11.538,0,0,0-1.051,3.655c0,1.027,1.075,1.983,1.744,3.153l-.5.406a6.952,6.952,0,0,0-2.389,8.863,3.966,3.966,0,0,1,0,3.129c-.908,2.843-1.553,5.781-2.2,8.7a32.752,32.752,0,0,1-4.611,9.986,9.006,9.006,0,0,1-5.136,3.655,32.227,32.227,0,0,1-18.227.669,31.437,31.437,0,0,1-7.167-3.321,11.467,11.467,0,0,1-4.491-5.518Zm7.358,25.346c.526-2.962.979-5.71,1.505-8.791A51.768,51.768,0,0,0,122.054,94.1c-.406,11.753,0,12.59,1.409,14.6-1.457,2.389-2.891,4.993-4.443,7.453a3.56,3.56,0,0,1-1.72,1.362,28.142,28.142,0,0,1-5.208,1.29c-3.894.454-7.812.693-11.945,1.027-.311-2.246-.573-4.252-.836-6.235s-.478-3.894-.693-5.686ZM26.545,29.792l-.573.215c-.406-1.027-.788-2.031-1.171-3.034l.812-.287Zm-3.918-4.252c.526,2.843,1.051,5.59,1.505,8.361a1.72,1.72,0,0,1-.406,1.362c-2.007,1.839-4.037,3.679-6.14,5.4a8.863,8.863,0,0,1-2.389,1l-.478-.549c.334-.382.645-.788,1-1.147C17.276,38.511,18.877,37.1,20.5,35.6a4.276,4.276,0,0,0,.956-4.778c-.621-1.935-1.218-3.894-1.959-6.211ZM3.516,41.33a8.791,8.791,0,0,1,.119-7.621c1.72-3.44,3.249-6.976,4.9-10.511,2.269-.119,4.467-.382,6.689-.382a3.082,3.082,0,0,1,3.536,2.891c.43,2.007.812,4.013,1.075,6.044a3.153,3.153,0,0,1-.358,2.174,24.415,24.415,0,0,1-7.167,6.14c-1.6-3.249,0-6.856,3.751-8.767l-2.1-3.894-2.484,4.109.932.478a33.086,33.086,0,0,0-1.672,3.488,5.614,5.614,0,0,0,.621,5.614,4.252,4.252,0,0,1,.6,2.58,53.7,53.7,0,0,1-.526,5.542c3.106.478,3.942-.717,4.276-5.686a19.612,19.612,0,0,0,3.583-.86,21.858,21.858,0,0,0,3.3-2.246l-.717,1.505,2.389,1.338c1.027-.43.979-1.147.812-1.959a5.853,5.853,0,0,1,1.218-5.471,7.453,7.453,0,0,0,.956-2.222c1.457,1.409-.239,2.723,0,3.989a5.041,5.041,0,0,1,0,3.99c-.669,1.266-1.171,2.628-1.792,4.085a14.645,14.645,0,0,0-2.389,0,7.358,7.358,0,0,0-6.57,4.635A28.261,28.261,0,0,1,14.72,53.8l-7.549-1-.526-1.7c-1-3.321-1.863-6.593-3.058-9.771Zm11.491,14.5c0,1.7-.191,3.01-.287,4.539L6.455,61.636l.358-5.112Zm51.362,67.845a65.242,65.242,0,0,0-3.7-7.573,2.723,2.723,0,0,0-2.508-1.6,11.491,11.491,0,0,0,0,2.054c1.075,5.542,2.15,11.085,3.321,16.722.764,3.583,1.672,7.167,2.532,10.7l-.526.287-1.768-1.935q-3.488-3.8-6.976-7.549a2.676,2.676,0,0,0-3.177-1c.43,1.529.836,3.034,1.338,4.778a5.8,5.8,0,0,1-1.648-.143c-1.887-.836-3.8-1.648-5.566-2.652a17.606,17.606,0,0,0-8.194-1.983,6.641,6.641,0,0,0,.621.454,2.89,2.89,0,0,0,.478.215,46.656,46.656,0,0,1,12.518,5.805c.645.406,1.29.812,1.983,1.171,2.007.979,2.556.86,4.324-1,1.457,1.768,2.914,3.512,4.348,5.279l-.239.406c-9.365-2.389-18.825-4.778-28.118-7.453s-18.395-5.9-27.783-8.935c-.311-.549-.549-1.672-1.242-2.078-1.6-1.027-1.6-2.341-1.6-3.822C4.567,113.786,5.571,103.8,6,93.791c.311-7.167,0-14.549,0-21.835V64.789a36.526,36.526,0,0,1,10.726-1.075,132.942,132.942,0,0,0,3.2,22.91c1.6,7.525,3.392,15,5.16,22.742L22.7,110.681c6.092,2.246,12.255.669,18.371.573,3.679,0,7.334-.43,11.013-.669a20.677,20.677,0,0,0,3.846-.239c2.58-.358,5.4-.263,7.167-3.321l1.457,1.935a1.481,1.481,0,0,0,2.389.311,27.852,27.852,0,0,0,2.222-2.389c4.372,2.819,8.815,4.778,13.951,2.126,1.839,3.942,5.972,6,7.621,10.033l-8.194,4.9c-.6.358-1.147.741-1.7,1.147a1.648,1.648,0,0,0-.526,2.389l9.962,21.118a3.225,3.225,0,0,0,3.488,2.15c-.621-1.386-1.051-2.628-1.7-3.751A94.244,94.244,0,0,1,84.62,131.8c-.669-1.744-1.577-3.392-2.389-5.28a8.432,8.432,0,0,1,1.386-1.1l7.453-4.037c2.532-1.338,2.628-1.577.979-4.037s-3.536-5.256-5.471-8.122a66.484,66.484,0,0,1,12.207-9.747v3.058c-1.051.191-2.054.311-3.034.526-2.078.478-2.628,1.123-2.389,3.249.645,4.4,1.147,8.863,2.174,13.163a194.028,194.028,0,0,1,3.918,24.845c.263,2.389.764,4.969,1.171,7.453h0c1.816-.932,1.768-.956,1.624-3.058-.6-8.863-1.171-17.726-1.744-26.732l15.815-.884L104.83,150.647l-.979-.478a2.532,2.532,0,0,1-3.225,1.624h0c-3.751-.406-7.453-.788-11.156-1.266a1.816,1.816,0,0,0-2.2,1.242c-.741,1.911-1.7,3.774-2.389,5.733a172.875,172.875,0,0,1-7.167,18.036,15.074,15.074,0,0,1-2.389,4.037,24.439,24.439,0,0,1-.573-4.778,56.188,56.188,0,0,0-1.409-11.682c-.717-4.635-2.031-9.173-2.843-13.808-.526-2.938-.717-5.925-.956-8.911a61.252,61.252,0,0,0-3.106-16.722Zm-6.5,129.169c-1.959-1.218-3.87-2.389-6.092-3.87,1.577-2.962,2.723-5.638,4.324-8.051a28.93,28.93,0,0,0,4.133-11.18,120.094,120.094,0,0,1,3.2-12.924,25.9,25.9,0,0,1,2.867-5.375c1.409-2.389,2.891-4.778,4.443-7.358,10.87,5.471,21.811,10.678,34.759,11.085-.5,3.01-.908,5.686-1.386,8.361a159.2,159.2,0,0,0-2.007,26.278,135.521,135.521,0,0,1-1.792,18.108,12.4,12.4,0,0,1-.478,1.72A87.075,87.075,0,0,1,90.377,267.9,79,79,0,0,1,69.283,258.6c-3.034-2.007-6.211-3.822-9.341-5.757ZM114.243,442.6l-2.986-.239a7.549,7.549,0,0,0-.215-1.7c-.215-.5-.526-1.147-.932-1.29-.836-.287-1.29.43-1.409,1.123-.334,2.078-1.553,3.989-1.194,6.235a4.468,4.468,0,0,1-.119,1.075c-4.42,4.276-10.033,4.778-15.528,5.447-4.993.549-10.033.884-15.074,1.123-3.416.143-6.832,0-10.248,0-2.891,0-3.2-.263-3.99-3.153l-.43-2.1,4.276-2.031h0a10.774,10.774,0,0,1,5.041-3.153l5.805-2.7a10.631,10.631,0,0,0,5.065-5.208c1.218-2.532,2.389-5.136,3.536-7.86a51.983,51.983,0,0,1,12.948,6.068,11.156,11.156,0,0,1-4.778,8.218,27.377,27.377,0,0,1-8.6,4.778,54.946,54.946,0,0,1-17.344.382,6.93,6.93,0,0,1-1.6-.621h0c-.382,1.29.406,1.863,1.505,2.031a54.948,54.948,0,0,0,7.358.932A55.482,55.482,0,0,0,84,449.406a15.576,15.576,0,0,0,7.907-3.416,18.324,18.324,0,0,1,2.054-1.529,11.562,11.562,0,0,0,6.068-9.126l14.716,2.078c-.072,1.839-.311,3.392-.43,5.184Zm10.941-21.5a51.524,51.524,0,0,0,1.433-7.812,13.354,13.354,0,0,0-.741-6.02,52.1,52.1,0,0,1-3.344-14.166c-1.1-7.788-2.652-15.528-3.87-23.292-.573-3.536-.788-7.167-1.147-10.7-.215-2.389-.526-4.587-.621-6.88a18.012,18.012,0,0,1,.263-5.566,17.391,17.391,0,0,0-.884-12.494,47.779,47.779,0,0,1-3.464-18.825c-.215-7.358,0-14.74.191-22.1a112.278,112.278,0,0,0-.669-17.7c0-.788,0-2.031-1.027-2.031s-1.123,1.266-1.171,2.15c-.167,3.345-.263,6.689-.406,10.033-.287,6.4-.645,12.829-.86,19.111a94.983,94.983,0,0,0,1.792,24.534,40.611,40.611,0,0,0,2.389,7.023,11.945,11.945,0,0,1,.764,8.242,14.047,14.047,0,0,0,0,8.361,4.945,4.945,0,0,1,0,2.389,56.808,56.808,0,0,0,.311,16.1c.454,5.28,1.1,10.559,1.577,15.839a63.664,63.664,0,0,1-.932,13.808c-.549,4.324-1.123,8.672-1.266,13.044-.191,6.378,0,12.8,0,19.446l-3.153-.43a8.361,8.361,0,0,0-2.389-5.877L99.5,415.937c6.307-1.314,6.57-5.829,5.805-10.774-.191,1.314-.43,2.6-.6,3.894a5.375,5.375,0,0,1-3.249,4.778,3.607,3.607,0,0,1-4.252-.741,7.644,7.644,0,0,0-2.389-1.6,1.386,1.386,0,0,0-1.29.382,1.481,1.481,0,0,0,0,1.362c.669.884,1.6,1.577,2.2,2.389a108.388,108.388,0,0,0,11.539,15.409,16.006,16.006,0,0,1,1.051,1.577,11.943,11.943,0,0,1-2.389-.669c-1.171-.549-2.222-1.218-3.583-.478-.311.167-1-.143-1.409-.382a103.49,103.49,0,0,0-19.04-8.242,1.146,1.146,0,0,1-.382-.311c.526-3.607,1.075-7.167,1.7-11.276.908-.43,2.389-1.051,3.655-1.72,2.389-1.194,2.7-2.389,1.839-4.945-2.389-6.9-4.276-13.927-2.819-21.357a4.037,4.037,0,0,0,0-1.768c-1.457-5.71-1.744-11.634-3.607-17.248-1.123-3.416-2.222-6.832-3.392-10.225a154.416,154.416,0,0,1-5.16-22.217c-1.672-8.839-3.488-17.63-4.969-26.493-1.171-7-1.983-14.071-2.843-21.118C65.222,278.383,64.6,272.6,64.1,266.8c-.215-2.389,0-5.041,0-7.907.956.621,1.744,1.075,2.389,1.577a49.356,49.356,0,0,0,10.893,5.71c1.194.454,2.389.908,3.536,1.457a43.432,43.432,0,0,0,15,4.181c1.6.167,3.2.5,4.778.812,2.532.5,3.822-.167,4.2-2.723.741-5.065,1.314-10.177,1.935-15.265a8.409,8.409,0,0,1,.454-2.389c.358,2.078.6,4.181,1.051,6.235.836,3.751,1.792,7.477,2.652,11.228a4.969,4.969,0,0,0,3.751,3.8,24.129,24.129,0,0,0,7.836,1.123c6.068-.239,12.16-.167,18.227-.526,7.167-.406,14.142-1.147,21.5-1.768a19.374,19.374,0,0,1,.143,5.542c-.311,8.313-.741,16.722-.956,24.916-.263,10.081-.382,20.21-.478,30.315a35.5,35.5,0,0,1-1.792,10.583c-1,3.153-1.816,6.4-2.508,9.556a20.306,20.306,0,0,0-.239,5.088c.311,8.7-1.792,16.985-3.846,25.3-2.174,3.177-1.147,6.378,0,9.556a88.94,88.94,0,0,0,7.43,17.965,4.419,4.419,0,0,1,.287,3.177,108.462,108.462,0,0,1-4.061,11.347,7.167,7.167,0,0,1-3.392,3.129c-5.4,2.58-10.893,4.921-16.388,7.286a2.8,2.8,0,0,1-2.15,0,20.067,20.067,0,0,1-8.17-7.86,9.556,9.556,0,0,1-.932-7.167Zm60.583,37.267c-5.877-.645-11.73-1.409-17.535-2.389-4.276-.741-8.481-1.887-12.709-2.938a8.552,8.552,0,0,1-5.375-3.631,2.986,2.986,0,0,0-5.4.143c-.979,2.078-2.269,2.2-4.276,2.054a49.836,49.836,0,0,1-10.392-2.628,2.389,2.389,0,0,1-1.409-1.29,32.393,32.393,0,0,1-1.839-10.559,4.778,4.778,0,0,1,.5-1.266l2.819,1.768c.86.549,1.744,1.051,2.556,1.648a3.87,3.87,0,0,0,4.109.311q6.116-2.6,12.3-5.136a13.014,13.014,0,0,1,2.58-.549h0c.621-1.792,2.389-1.768,3.918-2.843a53.8,53.8,0,0,0,21.93,17.224l-.167.5a12.093,12.093,0,0,1-1.577.143,25.539,25.539,0,0,1-10.32-2.843,34.567,34.567,0,0,1-8.075-4.778,16.292,16.292,0,0,1-4.3-5.327,12.3,12.3,0,0,0-1.409-1.959h0c1,6.02,5.017,9.556,10.033,12.375a34.184,34.184,0,0,0,11.73,4.3,17.009,17.009,0,0,0,8.122-.358,2.6,2.6,0,0,1,1.648,0c2.771.86,5.495,1.863,8.266,2.723,1.529.478,2.6,1.147,2.389,2.986a16.1,16.1,0,0,0,.334,2.389,78.6,78.6,0,0,1-8.385-.1Z" transform="translate(0 0)" fill="#311d48"/>
            <path id="Trazado_916828" data-name="Trazado 916828" d="M64.165,24.5a.694.694,0,0,0,0,.215v-.143Z" transform="translate(89.113 34.03)" fill="#311d48"/>
            <path id="Trazado_916829" data-name="Trazado 916829" d="M43.08,76.74Z" transform="translate(59.839 106.588)" fill="#311d48"/>
            <path id="Trazado_916830" data-name="Trazado 916830" d="M27.82,187.17Z" transform="translate(38.644 259.966)" fill="#311d48"/>
            <path id="Trazado_916831" data-name="Trazado 916831" d="M42.12,63.54Z" transform="translate(58.506 88.254)" fill="#311d48"/>
            <path id="Trazado_916832" data-name="Trazado 916832" d="M63.52,181.57Z" transform="translate(88.229 252.188)" fill="#311d48"/>
            <path id="Trazado_916833" data-name="Trazado 916833" d="M61.61,14.5l.358.167-.143-.167Z" transform="translate(85.576 20.141)" fill="#311d48"/>
            <path id="Trazado_916834" data-name="Trazado 916834" d="M64.273,24.655V24.44l-.143.143Z" transform="translate(89.076 33.947)" fill="#311d48"/>
            <path id="Trazado_916835" data-name="Trazado 916835" d="M65.683,32.382c.526-1.171.979-2.246,1.481-3.321a18.61,18.61,0,0,0,2.1-8.911,5.5,5.5,0,0,0-1.816-4.109,10.056,10.056,0,0,0-1.386-.932,11.586,11.586,0,0,1-1.839.287,4.037,4.037,0,0,1,2.962,4.348,23.1,23.1,0,0,1-1.171,5.71c-.6,1.768-1.7,3.368-2.389,5.088-1.171,2.747-.358,3.942,2.652,4.109,0,0,.239.191.334.287L65.8,37.327a6.283,6.283,0,0,0,1.816-3.368A14.237,14.237,0,0,0,65.683,32.382Z" transform="translate(87.667 20.989)" fill="#311d48"/>
            <path id="Trazado_916836" data-name="Trazado 916836" d="M67.887,15.888h0A13,13,0,0,0,61.7,14.5l.143.167a32.943,32.943,0,0,0,4.133,1.505h.215a11.586,11.586,0,0,0,1.839-.287Z" transform="translate(85.701 20.139)" fill="#311d48"/>
            <path id="Trazado_916837" data-name="Trazado 916837" d="M76.169,286.957l-3.153-.43a8.361,8.361,0,0,0-2.389-5.877L62.17,269.3c6.307-1.314,6.57-5.829,5.805-10.774-.191,1.314-.43,2.6-.6,3.894a5.375,5.375,0,0,1-3.249,4.778,3.607,3.607,0,0,1-4.252-.741,7.645,7.645,0,0,0-2.389-1.6,1.386,1.386,0,0,0-1.29.382,1.481,1.481,0,0,0,0,1.362c.669.884,1.6,1.577,2.2,2.389A108.387,108.387,0,0,0,69.934,284.4a16.008,16.008,0,0,1,1.051,1.577,11.942,11.942,0,0,1-2.389-.669c-1.171-.549-2.222-1.218-3.583-.478-.311.167-1-.143-1.409-.382a103.49,103.49,0,0,0-18.92-8.266,1.146,1.146,0,0,1-.382-.311c.526-3.607,1.075-7.167,1.7-11.276.908-.43,2.389-1.051,3.655-1.72,2.389-1.194,2.7-2.389,1.839-4.945-2.389-6.9-4.276-13.927-2.819-21.357a4.037,4.037,0,0,0,0-1.768c-1.457-5.71-1.744-11.634-3.607-17.248-1.123-3.416-2.222-6.832-3.392-10.225a154.418,154.418,0,0,1-5.16-22.217c-1.672-8.839-3.488-17.63-4.969-26.493-1.171-7-1.983-14.071-2.843-21.118-.693-5.781-1.314-11.562-1.816-17.367-.215-2.389,0-5.041,0-7.907.956.621,1.744,1.075,2.389,1.577a49.356,49.356,0,0,0,10.893,5.71c1.194.454,2.389.908,3.536,1.457a43.432,43.432,0,0,0,15,4.181c1.6.167,3.2.5,4.778.812,2.532.5,3.822-.167,4.2-2.723.741-5.065,1.314-10.177,1.935-15.265a8.409,8.409,0,0,1,.454-2.389c.358,2.078.6,4.181,1.051,6.235.836,3.751,1.792,7.477,2.652,11.228a4.969,4.969,0,0,0,3.751,3.8,24.129,24.129,0,0,0,7.836,1.123c6.068-.239,12.16-.167,18.227-.526,7.167-.406,14.142-1.147,21.5-1.768a19.375,19.375,0,0,1,.143,5.542c-.311,8.313-.741,16.722-.956,24.916-.263,10.081-.382,20.21-.478,30.315a35.5,35.5,0,0,1-1.792,10.583c-1,3.153-1.816,6.4-2.508,9.556a20.306,20.306,0,0,0-.239,5.088c.311,8.7-1.792,16.985-3.846,25.3-2.174,3.177-1.147,6.378,0,9.556a88.94,88.94,0,0,0,7.43,17.965,4.467,4.467,0,0,1,.287,3.2,110.038,110.038,0,0,1-4.061,11.323,7.167,7.167,0,0,1-3.392,3.13c-5.4,2.58-10.893,4.921-16.388,7.286a2.8,2.8,0,0,1-2.15,0,20.067,20.067,0,0,1-8.17-7.86,9.556,9.556,0,0,1-.932-7.167,51.528,51.528,0,0,0,1.362-7.788,13.354,13.354,0,0,0-.741-6.02,52.1,52.1,0,0,1-3.344-14.166c-1.1-7.788-2.652-15.528-3.87-23.292-.573-3.536-.788-7.167-1.147-10.7-.215-2.389-.526-4.587-.621-6.88A18.012,18.012,0,0,1,79.944,200a17.391,17.391,0,0,0-.884-12.494A47.779,47.779,0,0,1,75.6,168.681c-.215-7.358,0-14.74.191-22.1a112.278,112.278,0,0,0-.669-17.7c0-.788,0-2.031-1.027-2.031s-1.123,1.266-1.171,2.15c-.167,3.344-.263,6.689-.406,10.033-.287,6.4-.645,12.829-.86,19.111a94.983,94.983,0,0,0,1.792,24.534,40.612,40.612,0,0,0,2.389,7.023,11.945,11.945,0,0,1,.764,8.242,14.047,14.047,0,0,0,0,8.361,4.945,4.945,0,0,1,0,2.389,56.807,56.807,0,0,0,.311,16.1c.454,5.28,1.1,10.559,1.577,15.839a63.664,63.664,0,0,1-.932,13.808c-.549,4.324-1.123,8.672-1.266,13.044C76.026,273.794,76.169,280.316,76.169,286.957Zm31.605-8.7h.478c.263-.86.573-1.72.764-2.6a7.334,7.334,0,0,0-1.983-7.764,2.15,2.15,0,0,1-.693-1.29c-.573-4.491-1.362-8.982-1.553-13.5-.358-8.361-.549-16.722-.454-25.155q.382-33.755,1.147-67.535a118.085,118.085,0,0,1,1.959-24.271,2.389,2.389,0,0,0-.143-.812,9.962,9.962,0,0,0-1.983,5.232c-.6,5.948-1.242,11.945-1.5,17.893-.406,9.556-.478,19.111-.764,28.5-.621,20.784-1.147,41.591-.741,62.4,0,3.751.526,7.5.836,11.252a37.694,37.694,0,0,1,.43,6.092c0,1.362.167,2.031,1.314,2.246a3.44,3.44,0,0,1,2.723,3.3,18.226,18.226,0,0,1,0,2.8C107.607,276.183,107.7,277.186,107.774,278.261ZM65.682,249.594l.215.693-10.559,6.235a8.287,8.287,0,0,0-1.744,1c-.382.358-.741,1.123-.573,1.481s.884.645,1.409.764a2.389,2.389,0,0,0,1.242-.215,47.492,47.492,0,0,0,13.712-8.361,2.389,2.389,0,0,0,.956-2.962c-.478-1.123-1.529-1.242-2.58-1.218H62.982c-6.187,0-7.167-1.672-4.778-7.167,1.1-2.389,2.246-4.969,3.3-7.5a10.225,10.225,0,0,0,.43-6.952,15.91,15.91,0,0,1-2.867,9.412c-1.218,2.15-2.389,4.276-3.583,6.5-2.174,4.587.119,7.358,4.491,8.146a25.937,25.937,0,0,0,3.058.167c.812.048,1.744.024,2.652.024ZM52.59,178.237a11.467,11.467,0,0,0,.741-2.532,20.259,20.259,0,0,0-.215-4.348A196.416,196.416,0,0,1,49.748,135q0-3.583,0-7.167h-.573c0,1.075-.311,2.126-.358,3.2a193.5,193.5,0,0,0,3.774,47.205Zm-.621,13.044a60.727,60.727,0,0,0,5.781,24.056,173.672,173.672,0,0,1-5.781-24.152Z" transform="translate(37.214 146.658)" fill="#936037"/>
            <path id="Trazado_916838" data-name="Trazado 916838" d="M97.837,114.783c-3.751-.406-7.477-.812-11.2-1.29a1.792,1.792,0,0,0-2.2,1.242c-.741,1.911-1.7,3.774-2.389,5.733a172.894,172.894,0,0,1-7.167,18.036,15.075,15.075,0,0,1-2.389,4.037,24.44,24.44,0,0,1-.573-4.778,54.659,54.659,0,0,0-1.433-11.682c-.693-4.635-2.007-9.173-2.819-13.808-.526-2.938-.717-5.925-.956-8.911a61.252,61.252,0,0,0-3.106-16.6,65.241,65.241,0,0,0-3.7-7.573,2.723,2.723,0,0,0-2.508-1.6,11.491,11.491,0,0,0,0,2.054c1.075,5.542,2.15,11.085,3.321,16.722.764,3.583,1.672,7.167,2.532,10.7l-.526.287-1.768-1.935q-3.488-3.8-6.976-7.549a2.676,2.676,0,0,0-3.177-1.1l1.386,4.778a5.805,5.805,0,0,1-1.648-.143c-1.887-.836-3.8-1.648-5.566-2.652a17.606,17.606,0,0,0-8.242-1.983,6.639,6.639,0,0,0,.621.454,2.892,2.892,0,0,0,.478.215,46.656,46.656,0,0,1,12.518,5.805c.645.406,1.29.812,1.983,1.171,2.007.979,2.556.86,4.324-1l4.348,5.3-.239.406c-9.365-2.389-18.825-4.778-28.118-7.453s-18.395-5.9-27.783-8.935c-.311-.549-.549-1.672-1.242-2.078-1.6-1.051-1.6-2.365-1.6-3.846C1.8,76.776,2.806,66.79,3.236,56.78c.311-7.167,0-14.549,0-21.835V27.779a37.339,37.339,0,0,1,10.726-1.1,132.9,132.9,0,0,0,3.2,22.934c1.6,7.525,3.392,15,5.16,22.743L19.934,73.67c6.092,2.246,12.255.669,18.371.573,3.679,0,7.334-.43,11.013-.669a20.677,20.677,0,0,0,3.846-.239c2.58-.358,5.4-.263,7.167-3.321.6.836,1.027,1.362,1.457,1.935a1.481,1.481,0,0,0,2.389.311A27.854,27.854,0,0,0,66.4,69.872C70.771,72.691,75.214,74.649,80.35,72c1.839,3.942,5.972,6,7.621,10.033l-8.194,4.9c-.6.358-1.147.741-1.7,1.147a1.672,1.672,0,0,0-.549,2.389q5.017,10.559,9.986,21.118A3.225,3.225,0,0,0,91,113.732c-.621-1.386-1.051-2.628-1.7-3.751a94.244,94.244,0,0,1-7.453-15.194c-.669-1.744-1.577-3.392-2.389-5.28a8.432,8.432,0,0,1,1.386-1.1l7.453-4.037c2.532-1.338,2.628-1.577.979-4.037s-3.536-5.256-5.471-8.122a66.484,66.484,0,0,1,12.207-9.747v3.058c-1.051.191-2.054.311-3.034.526-2.078.478-2.628,1.123-2.389,3.249.645,4.4,1.147,8.863,2.174,13.163a194.027,194.027,0,0,1,3.918,24.845c.263,2.508.764,4.993,1.171,7.5Z" transform="translate(2.765 37.011)" fill="#b17f4a"/>
            <path id="Trazado_916839" data-name="Trazado 916839" d="M113.174,147.461l-20.162,3.058a252.385,252.385,0,0,1-29.384,2.652c-1.792,0-3.56.382-5.351.526a18.514,18.514,0,0,1-2.819,0c-3.727-.358-4.133-.621-4.945-4.228q-2.556-10.989-4.778-22.026a17.606,17.606,0,0,1-.167-4.348q.43-11.8.908-23.579v-2.2c2.2.573,3.058-.621,3.942-2.389,1.481-2.867,3.392-5.518,5.041-8.313a2.843,2.843,0,0,1,3.177-1.386c1.935.191,3.894.215,6.044.311.143.693.334,1.672.5,2.652a9.556,9.556,0,0,0,4.611,6.474c2.389,1.529,4.778,2.962,7.167,4.515A5.5,5.5,0,0,0,80.9,99.9c3.894-.5,7.788-1.051,11.682-1.577h.932c.717,2.676,1.529,5.375,2.2,8.1a131.654,131.654,0,0,0,13.951,32.418c.717,1.242,1.5,2.389,2.2,3.751A8.7,8.7,0,0,1,113.174,147.461Z" transform="translate(63.205 118.261)" fill="#b17f4a"/>
            <path id="Trazado_916840" data-name="Trazado 916840" d="M22.54,130.318c1.577-2.962,2.723-5.638,4.324-8.051A28.93,28.93,0,0,0,31,111.087a120.1,120.1,0,0,1,3.2-12.924,25.9,25.9,0,0,1,2.867-5.375c1.409-2.389,2.891-4.778,4.443-7.358C52.306,90.9,63.247,96.109,76.2,96.515c-.5,3.01-.908,5.686-1.386,8.361A159.2,159.2,0,0,0,72.8,131.154a135.52,135.52,0,0,1-1.792,18.108,12.4,12.4,0,0,1-.478,1.72,87.075,87.075,0,0,1-11.467-1.744,79,79,0,0,1-21.094-9.293c-3.082-2.007-6.259-3.822-9.388-5.757C26.673,132.97,24.762,131.727,22.54,130.318Z" transform="translate(31.311 118.657)" fill="#b17f4a"/>
            <path id="Trazado_916841" data-name="Trazado 916841" d="M71.709,148.607c3.2-9.365,5.327-18.849,3.344-29.1l18.156-3.082a5.4,5.4,0,0,0,1.266-.215.86.86,0,0,0,0-1.577,5.327,5.327,0,0,0-1.744-.263c-2.652,0-5.3.191-7.955.287l-4.611.263c.717-.788,1.1-1.266,1.529-1.672,1.72-1.672,3.607-3.177,5.184-4.969s1.218-3.583-1.553-3.989a29.955,29.955,0,0,0-3.918,0,17.916,17.916,0,0,0,3.416-5.638L80.356,103.7a58.648,58.648,0,0,1-.812-11.515c.239-2.723.287-5.471.358-8.194a4.491,4.491,0,0,1,1.362-3.751A3.751,3.751,0,0,0,82,78.158a30.244,30.244,0,0,1,4.3-11.443A5.661,5.661,0,0,1,87.5,65.4c.717-.6,1.433-1.29.669-2.1s-1.6,0-2.2.526a10.846,10.846,0,0,0-2.031,2.389c-1.887,3.249-3.679,6.546-5.494,9.842a1.624,1.624,0,0,0-.263.717,21.931,21.931,0,0,1-1.863,7.406A135.14,135.14,0,0,1,49.85,86.567c3.273-5.136,6.259-9.986,9.388-14.74,1.887-2.867,4.037-5.542,6.044-8.313a16.721,16.721,0,0,0,1.266-1.935c.884-1.672.6-2.8-1.194-3.488s-3.751-1.075-5.662-1.6a6.051,6.051,0,0,1-1.147-.191l11.61-9.15c6.259,4.013,13.832,5.9,19.661,10.7-.143,1.218-.6,2.246-.287,2.962s1.338,1.123,2.174,1.744A54.084,54.084,0,0,0,93.83,76.892c1.744,8.027,3.01,16.149,4.778,24.176a87.122,87.122,0,0,1,1.553,14.5,8,8,0,0,0,1.266,5.136c.287.334.239.956.311,1.457.239,1.959.43,3.918.717,5.877a7.788,7.788,0,0,1-1.051,6.092,6.952,6.952,0,0,0-1.027,5.829,1.911,1.911,0,0,1-1,2.556,45.866,45.866,0,0,1-11.156,4.348,120.231,120.231,0,0,1-13.593,2.222C73.62,149.253,72.545,149.635,71.709,148.607Z" transform="translate(69.242 65.49)" fill="#b17f4a"/>
            <path id="Trazado_916842" data-name="Trazado 916842" d="M62.656,22.153a10.631,10.631,0,0,0,2.891.788,3.631,3.631,0,0,0,2.389-.908c.741-.741.287-1.768-.311-2.58l-2.389-2.986c.908-.956,1.505-1.194,2.389-.311,3.655,3.225,6,3.727,11.061,2.556A12.685,12.685,0,0,0,87.692,27.5a11.538,11.538,0,0,0-1.051,3.655c0,1.027,1.075,1.983,1.744,3.153l-.5.406a6.952,6.952,0,0,0-2.389,8.863,3.966,3.966,0,0,1,0,3.129c-.908,2.843-1.553,5.781-2.2,8.7a32.752,32.752,0,0,1-4.611,9.986,9.006,9.006,0,0,1-5.136,3.655,32.227,32.227,0,0,1-18.227.669A31.438,31.438,0,0,1,48.156,66.4a11.467,11.467,0,0,1-4.778-5.518c-.478-1.1-1.171-2.1-1.577-3.225a57.643,57.643,0,0,1-2.389-7.525,58.718,58.718,0,0,1-.764-7.668,8.959,8.959,0,0,1,.263-2.508c.43-2.007.263-2.389-2.031-3.153.645-1.027,1.792-1.839,1.218-3.3-.43-1.051-.669-2.174-1.1-3.607,1.29.334,2.1.6,2.914.717a2.532,2.532,0,0,0,3.034-3.559,26.923,26.923,0,0,0-1-2.508,5.112,5.112,0,0,0,2.389-4.42c0-1.648-.358-3.321-.334-5.112,1.887,2.771,1.911,7.31,6.737,6.928C55.394,28.1,59.861,28.221,62.656,22.153Zm6,38.653,2.532-.191.167-.526a4.635,4.635,0,0,1-3.775-5.041,2.747,2.747,0,0,0-3.153-2.7A12.3,12.3,0,0,1,59,52.086a3.559,3.559,0,0,0-2.891.6,13.832,13.832,0,0,0-3.058,3.392c-.764,1.194-1.338,2.389-3.416,2.389a8.457,8.457,0,0,1,2.676,2.6,6.429,6.429,0,0,0,.645.764,9.556,9.556,0,0,0,7.668,2.843A8.17,8.17,0,0,0,68.653,60.9ZM57.019,42.411c-1.7-.119-2.58.478-2.914,1.624s.6,1.624,1.362,2.222a3.8,3.8,0,0,1,1.409,1.553,4.921,4.921,0,0,0,5.232,2.747,13.688,13.688,0,0,0,6.116-3.727c.43-.454,1.075-1.194.932-1.553s-.979-.884-1.529-1.314l-.311.334.621,1.218c-.478.191-.932.573-1.242.478a12.422,12.422,0,0,0-4.969.119,6.569,6.569,0,0,1-2.389-.5c-.812-.239-1.624-.549-2.389-.86-.143,0-.239-.215-.358-.334Zm1.362-2.556.478.191c.358-.6.956-1.147,1-1.768a9.556,9.556,0,0,0-1.194-6.163,7.334,7.334,0,0,1-2.078-.263c-.836-.382-1.577-.979-2.389-1.433a9.388,9.388,0,0,0-11.324,1.433,19.827,19.827,0,0,0,3.583-.406,9.054,9.054,0,0,1,8.576,1.911,19.373,19.373,0,0,0,3.44,1.577Zm-10.2-4.2-2.007.311a83.611,83.611,0,0,0,10.44,2.652c0-2.532-.143-2.914-1.768-3.8a13.784,13.784,0,0,0-6.976-1.338,12.757,12.757,0,0,1-5.28-.526,7.506,7.506,0,0,0-1.266.43c2.031,2.676,4.563,1,6.665,1.266Zm28.094,3.273c.215-2.389.788-2.819,2.628-1.935a10.153,10.153,0,0,1,1.1.645,1.72,1.72,0,0,0,2.628-.669l1.147-1.983c-2.58,1.529-2.58,1.553-4.969,1.051-.932-.191-1.816-.549-2.723-.741a8.218,8.218,0,0,0-7.31,1.194,5.255,5.255,0,0,0-.693,1.314l.717.573.836-2.007c1.816,1.051.191,1.72.263,2.556Zm5.71-4.778c-3.225-4.587-12.088-4.467-14.023-.191,1.194.382,1.218.43,2.389-.334a7.5,7.5,0,0,1,7.167-.764,27.1,27.1,0,0,0,4.467,1.433ZM58.356,41.264v.573h2.676c.908,0,1.672.932,2.389-.167a3.918,3.918,0,0,0-5.065-.406Z" transform="translate(51.228 20.85)" fill="#fbc27c"/>
            <path id="Trazado_916843" data-name="Trazado 916843" d="M68.7,119.6c-14.023,0-26.278-5.566-38.008-11.945a3.751,3.751,0,0,1,1.481-3.488,22.361,22.361,0,0,0,4.587-5.757,48.235,48.235,0,0,1,3.966-6A64.5,64.5,0,0,0,48.055,79.8c.764-1.624,1.7-3.177,2.389-4.778.956-2.174,1.768-4.42,2.723-6.88a21.766,21.766,0,0,1,2.771,0c5.256.669,10.487,1.457,15.767,2.031,2.532.287,5.112.239,7.692.311l20.258.645a4.487,4.487,0,0,1,1.481.167l.454.573a14.335,14.335,0,0,0-1.457.812A76.015,76.015,0,0,0,84.3,88.284a2.532,2.532,0,0,1-2.389,1.29c-2.556,0-5.112-.239-7.668-.382-.764,0-1.529-.239-2.389-.215a52.079,52.079,0,0,1-15.671-2.389l-1.266-.239a2.389,2.389,0,0,0,0,2.8A62.446,62.446,0,0,1,59.689,98.7a7.477,7.477,0,0,0,5.805,5.256,38.532,38.532,0,0,1,4.921,1.386c1.72.669,3.344,1.624,5.3,2.6-1.457,2.078-2.771,3.822-3.918,5.662S69.866,117.5,68.7,119.6Z" transform="translate(42.585 94.59)" fill="#d6d6d6"/>
            <path id="Trazado_916844" data-name="Trazado 916844" d="M47.3,64.226a260.56,260.56,0,0,0,56.426-.526l-1.553,1.911c-1.983,2.389-3.989,4.921-5.853,7.453a2.747,2.747,0,0,1-2.389,1.409,253.056,253.056,0,0,1-25.9-.932c-4.061-.5-8.194-.669-12.255-1.123a2.15,2.15,0,0,0-2.652,1.7,41.422,41.422,0,0,1-2.007,5.017c-2.819,5.351-5.638,10.726-8.648,15.982-2.1,3.464-4.491,6.737-6.713,10.3l-6.355-2.389c.478-.86.812-1.529,1.242-2.15,1.959-2.771,4.013-5.518,5.925-8.337a16.914,16.914,0,0,0,1.839-3.655c2.771-7.525,5.495-15.1,8.218-22.647C46.873,65.492,47.088,64.847,47.3,64.226Z" transform="translate(40.853 88.476)" fill="#d6d6d6"/>
            <path id="Trazado_916845" data-name="Trazado 916845" d="M78.034,181.57c.979,6.044,5.017,9.7,10.057,12.446a34.186,34.186,0,0,0,11.73,4.3,17.01,17.01,0,0,0,8.122-.358,2.6,2.6,0,0,1,1.648,0c2.771.86,5.495,1.863,8.266,2.723,1.529.478,2.6,1.147,2.389,2.986a16.1,16.1,0,0,0,.334,2.389,78.571,78.571,0,0,1-8.576,0c-5.877-.645-11.73-1.41-17.535-2.389-4.276-.741-8.481-1.887-12.709-2.938a8.552,8.552,0,0,1-5.375-3.631,2.986,2.986,0,0,0-5.4.143c-.979,2.078-2.269,2.2-4.276,2.054a49.831,49.831,0,0,1-10.392-2.628,2.389,2.389,0,0,1-1.409-1.29,32.394,32.394,0,0,1-1.839-10.559,4.777,4.777,0,0,1,.5-1.266l2.819,1.768c.86.549,1.744,1.051,2.556,1.648a3.87,3.87,0,0,0,4.109.311q6.116-2.6,12.3-5.136a13.5,13.5,0,0,1,2.628-.549Z" transform="translate(73.714 252.188)" fill="#634e42"/>
            <path id="Trazado_916846" data-name="Trazado 916846" d="M54.264,92H44.923c0-.358-.167-.645,0-.86,4.061-10.248,8-20.545,12.327-30.7a49.641,49.641,0,0,1,8.122-13.33,3.318,3.318,0,0,0,.287-.6c0-1.983-2.891-1.147-2.867-3.392a35.117,35.117,0,0,1,11.586,7.907,29.575,29.575,0,0,1-2.2,2.078c-2.389,1.839-4.993,3.607-7.477,5.423a12.4,12.4,0,0,0-1.7,1.147,2.246,2.246,0,0,0,.86,4.037c1.457.5,2.986.741,4.467,1.123l3.512.932c-.932,1.218-1.6,2.174-2.389,3.058A121.455,121.455,0,0,0,58.11,83.445,27.162,27.162,0,0,0,54.264,92Z" transform="translate(62.296 59.892)" fill="#b17f4a"/>
            <path id="Trazado_916847" data-name="Trazado 916847" d="M64.745,39.4c-.406,11.753,0,12.59,1.409,14.6-1.457,2.389-2.891,4.993-4.443,7.453a3.559,3.559,0,0,1-1.72,1.362,28.142,28.142,0,0,1-5.208,1.29c-3.894.454-7.812.693-11.945,1.027-.311-2.246-.573-4.252-.836-6.235S41.525,55,41.31,53.208l3.655-.764,1.505-8.791A51.768,51.768,0,0,0,64.745,39.4Z" transform="translate(57.381 54.725)" fill="#fbc27c"/>
            <path id="Trazado_916848" data-name="Trazado 916848" d="M44.009,78.274a66.889,66.889,0,0,0,12.757,1.075,33.108,33.108,0,0,1,4.539.693c1.7.191,3.416.263,5.112.382A4.515,4.515,0,0,0,70,79.014c1.147-1.1,2.389-2.1,3.846-3.344,0,.908-.215,1.481-.215,2.078a3.822,3.822,0,0,0,2.723,4.157c2.389.979,2.676,1.242,1.792,3.559a71.428,71.428,0,0,1-3.918,8.624A3.273,3.273,0,0,1,71.1,95.976c-1.6,0-3.225.311-4.778.382a13.951,13.951,0,0,1-7.573-2.174,26.66,26.66,0,0,0-8.7-2.986,5.3,5.3,0,0,1-4.467-3.01l14.142,3.249a2.389,2.389,0,0,0-1.887-2.389,68.517,68.517,0,0,0-7.167-1.911A10.487,10.487,0,0,1,43.029,83a7.358,7.358,0,0,1-.549-1.218,20.593,20.593,0,0,0,9.293,3.655c3.177.263,6.355,1.386,9.556-.334a20.518,20.518,0,0,0-2.007-.5c-2.867-.382-5.757-.693-8.648-1.123a14.836,14.836,0,0,1-6.641-2.915C50.507,82.311,56.957,84.031,63.622,82v-.764H60.994a44.027,44.027,0,0,1-16.722-2.891s0-.143,0-.215Z" transform="translate(59.006 105.102)" fill="#fbc27c"/>
            <path id="Trazado_916849" data-name="Trazado 916849" d="M13.1,40.554l-7.549-1-.526-1.7c-1-3.321-1.863-6.593-3.058-9.771a8.791,8.791,0,0,1,.119-7.621c1.72-3.44,3.249-6.976,4.9-10.511,2.269-.119,4.467-.382,6.689-.382a3.082,3.082,0,0,1,3.536,2.891c.43,2.007.812,4.013,1.075,6.044a3.153,3.153,0,0,1-.358,2.174,24.415,24.415,0,0,1-7.167,6.14c-1.6-3.249,0-6.856,3.751-8.767l-2.1-3.894L9.854,18.266l.932.478a33.086,33.086,0,0,0-1.672,3.488,5.614,5.614,0,0,0,.621,5.614,4.252,4.252,0,0,1,.6,2.58,53.7,53.7,0,0,1-.526,5.542c3.106.478,3.942-.717,4.276-5.686a19.613,19.613,0,0,0,3.583-.86,21.858,21.858,0,0,0,3.3-2.246l-.717,1.505,2.389,1.338c1.027-.43.979-1.147.812-1.959a5.853,5.853,0,0,1,1.218-5.471,7.453,7.453,0,0,0,.956-2.222c1.457,1.409-.239,2.723,0,3.99a5.041,5.041,0,0,1,0,3.99c-.669,1.266-1.171,2.628-1.792,4.085a14.645,14.645,0,0,0-2.389,0,7.358,7.358,0,0,0-6.57,4.635A28.26,28.26,0,0,1,13.1,40.554Z" transform="translate(1.617 13.246)" fill="#fbc27c"/>
            <path id="Trazado_916850" data-name="Trazado 916850" d="M30.3,193.9c-.454,1.362.358,1.911,1.481,2.1a54.951,54.951,0,0,0,7.358.932,55.478,55.478,0,0,0,8.672-.549,15.576,15.576,0,0,0,7.907-3.416,18.32,18.32,0,0,1,2.054-1.529,11.562,11.562,0,0,0,6.068-9.126l14.716,2.078-.358,4.993-2.986-.239a7.548,7.548,0,0,0-.215-1.7c-.215-.5-.526-1.147-.932-1.29-.836-.287-1.29.43-1.409,1.123-.334,2.078-1.553,3.99-1.194,6.235a4.467,4.467,0,0,1-.119,1.075c-4.419,4.276-10.033,4.778-15.528,5.447-4.993.549-10.033.884-15.074,1.123-3.416.143-6.832,0-10.248,0-2.891,0-3.2-.263-3.989-3.153l-.5-2.1,4.324-2.054Z" transform="translate(36.116 253.216)" fill="#634e42"/>
            <path id="Trazado_916851" data-name="Trazado 916851" d="M27.81,198.194a10.774,10.774,0,0,1,5.065-3.177l5.805-2.7a10.631,10.631,0,0,0,5.065-5.208c1.218-2.532,2.389-5.136,3.536-7.86a51.982,51.982,0,0,1,12.948,6.068,11.156,11.156,0,0,1-4.778,8.218,27.376,27.376,0,0,1-8.6,4.778,54.946,54.946,0,0,1-17.344.382,7.383,7.383,0,0,1-1.648-.645Z" transform="translate(38.63 248.966)" fill="#634e42"/>
            <path id="Trazado_916852" data-name="Trazado 916852" d="M42.118,81.4c1.887-.956,1.839-.956,1.7-3.082-.6-8.863-1.171-17.726-1.744-26.732L57.885,50.7,46.394,80.227l-.979-.478a2.556,2.556,0,0,1-3.249,1.624Z" transform="translate(58.436 70.42)" fill="#e8e199"/>
            <path id="Trazado_916853" data-name="Trazado 916853" d="M63.592,183.253c.621-1.792,2.389-1.768,3.918-2.843a53.8,53.8,0,0,0,21.93,17.224l-.167.5a12.088,12.088,0,0,1-1.577.143,25.9,25.9,0,0,1-10.32-2.819,35.474,35.474,0,0,1-8.075-4.921,16.292,16.292,0,0,1-4.3-5.327,11.944,11.944,0,0,0-1.481-2.031Z" transform="translate(88.229 250.577)" fill="#634e42"/>
            <path id="Trazado_916854" data-name="Trazado 916854" d="M65.2,71.17l-.979,6.211,1.911.717a1.768,1.768,0,0,1,.167.5c0,3.01-.764,5.4-4.133,6.307-1.266.334-2.389,1.433-3.8,1.171s-2.389-.836-2.031-2.389a10.87,10.87,0,0,1,3.177-7.167C61.446,75.04,63.094,73.153,65.2,71.17Z" transform="translate(78.144 98.851)" fill="#b17f4a"/>
            <path id="Trazado_916855" data-name="Trazado 916855" d="M64.29,78.268a49.57,49.57,0,0,1-3.273,18.92,14.191,14.191,0,0,1-2.078,3.464,1.959,1.959,0,0,1-2.914.526l1.7-.932-2.031-1.1c4.778-3.942,5.017-9.556,5.853-14.907a25.848,25.848,0,0,0,.358-3.822C61.9,78.841,62.522,78.148,64.29,78.268Z" transform="translate(77.353 108.691)" fill="#e8e199"/>
            <path id="Trazado_916856" data-name="Trazado 916856" d="M6.21,26.807c.334-.382.645-.788,1-1.147,1.553-1.457,3.153-2.867,4.778-4.372a4.276,4.276,0,0,0,.956-4.778c-.621-1.935-1.218-3.894-1.959-6.211l3.106.884c.526,2.843,1.051,5.59,1.505,8.361a1.72,1.72,0,0,1-.406,1.362c-2.007,1.839-4.037,3.679-6.14,5.4a8.863,8.863,0,0,1-2.389,1Z" transform="translate(8.63 14.308)" fill="#fbc27c"/>
            <path id="Trazado_916857" data-name="Trazado 916857" d="M2.73,29.175l.358-5.112,8.194-.693L11,27.909Z" transform="translate(3.796 32.461)" fill="#e8e199"/>
            <path id="Trazado_916858" data-name="Trazado 916858" d="M62.654,71.573c2.556.143,4.945-.812,7.167.454C69.032,74.177,66.333,76.3,62.2,78Z" transform="translate(86.395 99.117)" fill="#b17f4a"/>
            <path id="Trazado_916859" data-name="Trazado 916859" d="M58,72.787l5.71-7.6.478.191-1.409,7.406Z" transform="translate(80.562 90.546)" fill="#b17f4a"/>
            <path id="Trazado_916860" data-name="Trazado 916860" d="M36.51,27.166l1.409-.406c.167.287.311.406.334.549a38.906,38.906,0,0,0,.143,4.085c0,.836,0,1.648-1.051,1.7s-1.242-.836-1.266-1.6a14.86,14.86,0,0,1,.239-2.389C36.391,28.384,36.438,27.811,36.51,27.166Z" transform="translate(50.117 37.169)" fill="#fbc27c"/>
            <path id="Trazado_916861" data-name="Trazado 916861" d="M58.638,36.043c-1-1.218-.979-2.007.215-6.713,1.1.263,1.744.549,1.242,1.959a35.5,35.5,0,0,0-1,4.181C59.044,35.708,58.805,35.852,58.638,36.043Z" transform="translate(80.449 40.739)" fill="#fbc27c"/>
            <path id="Trazado_916862" data-name="Trazado 916862" d="M58.25,85.17c-.956,1.314-1.505,2.389-2.914,2.054-.406,0-.573-1.1-.956-1.863Z" transform="translate(75.534 118.296)" fill="#e8e199"/>
            <path id="Trazado_916863" data-name="Trazado 916863" d="M46.223,77.615a5.638,5.638,0,0,1-5.3-1.505,14.525,14.525,0,0,1,5.256,1.553Z" transform="translate(56.839 105.713)" fill="#fbc27c"/>
            <path id="Trazado_916864" data-name="Trazado 916864" d="M57.763,82.58c.143,1.386.43,2.867-1.863,3.631Z" transform="translate(77.645 114.699)" fill="#fff"/>
            <path id="Trazado_916865" data-name="Trazado 916865" d="M11.192,11.17l.932,3.106-.573.215L10.38,11.457Z" transform="translate(14.421 15.516)" fill="#fbc27c"/>
            <path id="Trazado_916866" data-name="Trazado 916866" d="M63.954,260.927c0-1.075-.167-2.126-.191-3.2a18.228,18.228,0,0,0,0-2.8,3.44,3.44,0,0,0-2.7-3.249c-1.147-.215-1.433-.884-1.314-2.246a37.7,37.7,0,0,0-.43-6.092c-.311-3.751-.764-7.5-.836-11.252-.406-20.807.119-41.615.741-62.4.287-9.556.358-19.111.764-28.5.263-5.972.908-11.945,1.505-17.893a9.962,9.962,0,0,1,1.983-5.232,2.389,2.389,0,0,1,.143.812,118.084,118.084,0,0,0-1.959,24.271q-.717,33.755-1.147,67.535c0,8.385,0,16.722.454,25.155.191,4.515.979,9.006,1.553,13.5a2.15,2.15,0,0,0,.693,1.29A7.334,7.334,0,0,1,65.2,258.4c-.191.884-.5,1.744-.764,2.6Z" transform="translate(81.034 163.992)" fill="#311d48"/>
            <path id="Trazado_916867" data-name="Trazado 916867" d="M50.511,179.974H47.764a25.943,25.943,0,0,1-3.058-.167c-4.372-.788-6.665-3.56-4.491-8.146,1.075-2.222,2.389-4.348,3.583-6.5a15.91,15.91,0,0,0,2.867-9.412,10.225,10.225,0,0,1-.43,6.952c-1.051,2.532-2.2,5.017-3.3,7.5-2.389,5.59-1.409,7.167,4.778,7.167h4.778c1.051,0,2.1,0,2.58,1.218a2.389,2.389,0,0,1-.956,2.962,47.493,47.493,0,0,1-13.712,8.361,2.389,2.389,0,0,1-1.242.215c-.526-.119-1.242-.358-1.409-.764s.191-1.123.573-1.481a8.288,8.288,0,0,1,1.744-1l10.559-6.235Z" transform="translate(52.384 216.326)" fill="#311d48"/>
            <path id="Trazado_916868" data-name="Trazado 916868" d="M39.9,165.265a193.5,193.5,0,0,1-3.8-47.133,29.153,29.153,0,0,1,.358-3.2h.573V122.1A196.535,196.535,0,0,0,40.408,158.4a20.258,20.258,0,0,1,.207,4.3A11.467,11.467,0,0,1,39.9,165.265Z" transform="translate(49.906 159.631)" fill="#311d48"/>
            <path id="Trazado_916869" data-name="Trazado 916869" d="M37.33,141.42a173.676,173.676,0,0,0,5.781,24.056A60.726,60.726,0,0,1,37.33,141.42Z" transform="translate(51.853 196.423)" fill="#311d48"/>
            <path id="Trazado_916870" data-name="Trazado 916870" d="M61.236,39.3a8.17,8.17,0,0,1-8.027,3.942A9.556,9.556,0,0,1,45.541,40.4a6.426,6.426,0,0,1-.645-.764,8.457,8.457,0,0,0-2.676-2.6c2.078,0,2.652-1.266,3.416-2.389a13.832,13.832,0,0,1,3.058-3.392,3.559,3.559,0,0,1,2.891-.6,12.3,12.3,0,0,0,5.423.263,2.747,2.747,0,0,1,3.153,2.7,4.635,4.635,0,0,0,3.775,5.041l-.167.526ZM46.9,37.293a60.965,60.965,0,0,0,11.945.741,6.068,6.068,0,0,0-5.495-4.491c-3.2-.669-4.9,1.171-6.522,3.751Z" transform="translate(58.645 42.451)" fill="#311d48"/>
            <path id="Trazado_916871" data-name="Trazado 916871" d="M47.045,26.528l-.454,1.911c.119.119.215.287.358.334.788.311,1.6.621,2.389.86a6.569,6.569,0,0,0,2.389.5,12.422,12.422,0,0,1,5.064-.072,4.933,4.933,0,0,0,1.242-.478l-.621-1.218.311-.334c.549.43,1.338.764,1.529,1.314s-.5,1.1-.932,1.553a13.688,13.688,0,0,1-6.187,3.822A4.921,4.921,0,0,1,46.9,31.975a3.8,3.8,0,0,0-1.409-1.553c-.764-.6-1.7-1.1-1.362-2.222S45.349,26.409,47.045,26.528Z" transform="translate(61.201 36.828)" fill="#311d48"/>
            <path id="Trazado_916872" data-name="Trazado 916872" d="M54.95,31.734V26.717a19.374,19.374,0,0,1-3.44-1.577,9.054,9.054,0,0,0-8.576-1.911,19.829,19.829,0,0,1-3.583.406A9.388,9.388,0,0,1,50.673,22.2c.812.454,1.553,1.051,2.389,1.433a7.334,7.334,0,0,0,2.078.263,9.556,9.556,0,0,1,1.29,6.259c0,.621-.645,1.171-1,1.768Z" transform="translate(54.658 29.066)" fill="#311d48"/>
            <path id="Trazado_916873" data-name="Trazado 916873" d="M45.6,25.266l-.191-1C43.3,24,40.771,25.673,38.74,23c.693-.239,1.051-.5,1.266-.43a12.757,12.757,0,0,0,5.28.526,13.784,13.784,0,0,1,6.976,1.338c1.624.884,1.792,1.266,1.768,3.8a83.611,83.611,0,0,1-10.44-2.652ZM50.8,26.485l2.078.382.191-.382-1.648-1.529Z" transform="translate(53.811 31.329)" fill="#311d48"/>
            <path id="Trazado_916874" data-name="Trazado 916874" d="M58.134,27.392H51.756c0-.836,1.553-1.505-.263-2.556l-.836,2.007-.717-.573a5.256,5.256,0,0,1,.693-1.314,8.218,8.218,0,0,1,7.31-1.194c.908.191,1.792.549,2.723.741,2.389.5,2.389.478,4.969-1.051l-1.147,1.983a1.72,1.72,0,0,1-2.628.669,10.154,10.154,0,0,0-1.1-.645C58.922,24.574,58.349,24.86,58.134,27.392Zm-3.918-1.959h.406l.167-1.194h-.669Z" transform="translate(69.367 32.476)" fill="#311d48"/>
            <path id="Trazado_916875" data-name="Trazado 916875" d="M63.982,25.068c-1.529-.43-3.082-.764-4.587-1.29a7.5,7.5,0,0,0-7.167.764c-1.171.764-1.194.717-2.389.334C51.894,20.6,60.757,20.481,63.982,25.068Z" transform="translate(69.228 30.07)" fill="#311d48"/>
            <path id="Trazado_916876" data-name="Trazado 916876" d="M45.87,26.449a3.918,3.918,0,0,1,5.136.406c-.788,1.1-1.672.119-2.389.167s-1.792,0-2.676,0Z" transform="translate(63.714 35.665)" fill="#311d48"/>
            <path id="Trazado_916877" data-name="Trazado 916877" d="M44.15,35.641c1.624-2.58,3.321-4.42,6.5-3.751a6.068,6.068,0,0,1,5.495,4.491,60.965,60.965,0,0,1-11.992-.741Z" transform="translate(61.325 44.103)" fill="#fff"/>
            <path id="Trazado_916878" data-name="Trazado 916878" d="M43.79,25.089l.621-1.529,1.648,1.529-.191.382Z" transform="translate(60.825 32.725)" fill="#fff"/>
            <path id="Trazado_916879" data-name="Trazado 916879" d="M51.73,24.976V23.71H52.4L52.232,24.9Z" transform="translate(71.853 32.933)" fill="#fff"/>
            <path id="Trazado_916880" data-name="Trazado 916880" d="M64.741,30.5s-14.716,1.1-15.48-.788S52.056,23,55.233,23s13.091.884,13.091,1.386A67.682,67.682,0,0,1,64.741,30.5Z" transform="translate(68.278 31.947)" fill="#fbc27c"/>
            <path id="Trazado_916881" data-name="Trazado 916881" d="M54.634,30.173s2.174-2.222.621-4.2a11.682,11.682,0,0,0-5.447-3.177c-.311,0-12.088-.5-12.088-.5s0,5.112.43,5.041S54.634,30.173,54.634,30.173Z" transform="translate(52.395 30.961)" fill="#fbc27c"/>
            <path id="Trazado_916882" data-name="Trazado 916882" d="M53.3,27.23s0-2.389-3.942-3.488A46.13,46.13,0,0,0,38.61,23S49.1,27.851,53.3,27.23Z" transform="translate(53.631 31.874)" fill="#311d48"/>
            <path id="Trazado_916883" data-name="Trazado 916883" d="M50.034,26.122c-.358-.167.836-2.389,5.59-2.556a43.335,43.335,0,0,1,9.89.788S55.051,28.582,50.034,26.122Z" transform="translate(69.416 32.695)" fill="#311d48"/>
          </g>
        </g>
        <g id="Grupo_1104827" data-name="Grupo 1104827" transform="translate(-11362.906 -9951.025)">
          <g id="Grupo_1104824" data-name="Grupo 1104824">
            <g id="Grupo_1104823" data-name="Grupo 1104823">
              <path id="Trazado_916884" data-name="Trazado 916884" d="M99.569,545.831c-.109-.462-.217-.951-.3-1.467,1.875-.272,3.722-.57,5.6-.761,3.477-.353,6.982-.571,10.514-.924,3.179-.326,6.466-.842,9.753-1.168,3.4-.353,6.846-.652,10.323-.9,4.483-.3,9.074-.516,13.774-.679,2.418-.082,4.863-.272,7.335-.38a2.7,2.7,0,0,1,2.255.734c.733.788.489,1.25-.842,1.413-1.386.163-2.771.245-4.157.272-4.1.082-8.123.217-12.089.326-5.814.163-11.492.3-17.061.706-4.075.3-8.069.788-11.981,1.25-4.292.489-8.558,1.032-12.823,1.6C99.813,545.858,99.7,545.831,99.569,545.831Z" transform="translate(-32.33 -514.29)" fill="#008d36"/>
              <g id="Grupo_1104822" data-name="Grupo 1104822">
                <path id="Trazado_916885" data-name="Trazado 916885" d="M74.63,550.924c.272-1.521.543-3.043.842-4.564a9.355,9.355,0,0,1,.38-1.141,3.977,3.977,0,0,1,2.907-2.662c3.586-1.032,7.091-2.119,10.568-2.961,5.406-1.331,10.758-2.418,16-3.5a139.507,139.507,0,0,1,22.358-2.88c4.1-.19,8.177-.489,12.279-.679a10.711,10.711,0,0,0,3.342-.489,19.1,19.1,0,0,1,4.075-.625,210.644,210.644,0,0,1,22.413-1.087c9.59-.054,19.18-.054,28.824-.082a3.374,3.374,0,0,1,1.44.19,1.851,1.851,0,0,1,.951,1.06c.054.3-.489.679-.788,1.005-.136.136-.408.245-.462.38-.625,1.168-1.358,1.549-3.179,1.576h-3.559a13.615,13.615,0,0,0-.869,2.364c-.679,4.238-1.467,8.449-.054,12.551a31.365,31.365,0,0,0,2.282,4.591.7.7,0,0,0,.489.326,32.577,32.577,0,0,0,3.64.136c2.608-.136,4.591.734,4.89,2.309.217,1.06-.407,1.657-1.983,2.01a44.467,44.467,0,0,1-10.378.924c-6.6-.054-13.067-.027-19.37.3-3.423.163-6.765.625-10.079.978-3.423.353-6.819.706-10.188,1.114-3.314.38-6.656.6-9.862,1.223-4.781.951-9.7.842-14.453,1.576q-7.335,1.141-14.67,2.336c-1.3.217-2.635.408-3.966.571-8.014.951-16,1.82-24.124,2.363a9.254,9.254,0,0,1-3.477-.3,4.043,4.043,0,0,1-1.875-1.63,21.687,21.687,0,0,1-2.961-6.819,31.379,31.379,0,0,1-1.168-8.123,5.893,5.893,0,0,0-.19-.951C74.63,551.821,74.63,551.359,74.63,550.924Zm117.742,3.586c-1.9-3.341-3.043-6.547-2.853-9.97a34.785,34.785,0,0,1,1.929-10.215c-.163,0-.326-.027-.489-.027q-9.332.041-18.446.109c-1.549.027-3.07.054-4.591.163-4.809.326-9.563,1.032-14.371.734-2.309-.136-4.646,0-6.955,0-.652,0-1.3.027-2.255.027,4.211,3.26,5.3,6.873,4.292,11.138-.978,4.1-2.065,8.123-5.379,11.9,3.1-.245,6.248-.462,9.4-.679.761-.054,1.549-.136,2.309-.245,5.026-.652,10.242-1.25,15.54-1.684,5.352-.435,10.84-.734,16.463-.978C188.677,554.7,190.416,554.592,192.372,554.51Zm-52.46-20.864c-.516,0-1.141,0-1.739.027-3.559.19-7.118.353-10.677.625-2.554.19-5.107.462-7.634.761a1.2,1.2,0,0,0-.869.6,70.5,70.5,0,0,0-3.1,7.661,25.915,25.915,0,0,0-.951,10.7,34.486,34.486,0,0,0,2.01,7.362c1.06,2.88,1.141,2.282,3.994,2.01,5.162-.516,10.3-1.06,15.512-1.521.244-.027.462-.082.543-.082C133.392,552.092,135.484,543.779,139.912,533.646Zm-34.2,3.559c-3.613.571-7.145,1.114-10.7,1.766-1.983.38-1.956.435-2.2,2.065-.842,6.031-1.766,12.117-1.3,18.229a31.031,31.031,0,0,0,1.63,6.574c.244.788.761,1.087,1.793.951,2.717-.408,5.406-.706,8.1-1.087,1.223-.163,2.472-.408,3.776-.625a11.252,11.252,0,0,1-2.391-7.036c-.054-1.929-.109-3.831-.109-5.705A65.457,65.457,0,0,1,105.709,537.2Zm11.9-1.739c-.109,0-.19-.054-.3-.027-3.179.408-6.357.869-9.563,1.3a.867.867,0,0,0-.869.842c-.19,2.065-.625,4.13-.9,6.194a70.322,70.322,0,0,0-.3,14.534,11.2,11.2,0,0,0,2.01,5.868,1.56,1.56,0,0,0,1.739.652c2.391-.408,4.781-.706,7.2-1.032a2.531,2.531,0,0,0,.353-.109,23.438,23.438,0,0,1-3.016-10.731,32.933,32.933,0,0,1,1.766-12.551C116.386,538.781,117.092,537.15,117.608,535.466Zm-25.564,4.211a24.4,24.4,0,0,1-3.124.625c-2.717.136-3.477,1.6-4.048,3.314a2.956,2.956,0,0,0-.19.652c-.951,5.243-1.712,10.568-.625,15.73a43.249,43.249,0,0,0,2.445,7.2,1.129,1.129,0,0,0,.9.625c1.6-.136,3.206-.38,4.836-.6C88.974,558.368,90.577,549.24,92.044,539.677Zm-6.873,28.362c-.733-2.228-1.413-4.4-1.9-6.6a31.278,31.278,0,0,1,1.766-20.185,22.44,22.44,0,0,0-6.493,2.228c-.136.054-.163.3-.217.435A25.575,25.575,0,0,0,76.8,554.782c.136,4.265,1.739,8.123,3.885,11.818C81.666,568.365,82.916,568.664,85.171,568.039Zm56.7-6.248c.136,0,.244.027.326.027,4.238-.6,8.5-1.114,12.823-1.6,3.912-.462,7.906-.951,11.981-1.25,5.569-.408,11.247-.543,17.061-.706,3.966-.109,7.987-.245,12.089-.326,1.386-.027,2.8-.136,4.157-.272,1.331-.163,1.576-.625.842-1.413a2.785,2.785,0,0,0-2.255-.734c-2.472.109-4.917.271-7.335.38-4.7.19-9.264.38-13.774.679-3.5.245-6.928.543-10.324.9-3.287.353-6.574.842-9.753,1.168-3.5.353-7.036.571-10.514.924-1.875.19-3.722.489-5.6.761A12.71,12.71,0,0,0,141.868,561.791Zm1.059-28.96c1.223,1.358,1.168,1.358,2.907,1.331,1.684,0,3.369.054,5.053-.027,8.1-.516,16.192-1.087,24.314-1.331,6.3-.19,12.66.027,19.1.082,1.168,0,2.336.027,3.5-.027.842-.027,1.032-.435.869-.951-.163-.489-.706-.516-1.3-.516-4.4.027-8.775.054-13.122.054-7.634.027-15.214.054-22.766.136-1.44,0-2.88.136-4.32.217-4.265.245-8.53.516-12.741.842A11.181,11.181,0,0,0,142.928,532.831Zm-.081,1.385c-1.223-.19-1.9.082-2.228,1.223a81.383,81.383,0,0,1-3.043,8.476,25.96,25.96,0,0,0-1.549,8.34,14.833,14.833,0,0,0,1.168,7.335,3.643,3.643,0,0,0,2.038,2.336c.3.109.6.19.9.272.054-.3.272-.679.163-.924-.435-1.005-.869-1.983-1.277-2.961a13.176,13.176,0,0,1-.9-8.585c.842-3.586,2.336-7.172,3.233-10.758C141.705,537.341,142.439,535.792,142.846,534.216Zm2.092,18.012c2.336-4.673,3.369-11.981-.625-15.214a32.109,32.109,0,0,1,1.657,7.471A21.031,21.031,0,0,1,144.938,552.228Z" transform="translate(-74.63 -530.25)" fill="#311d48"/>
                <path id="Trazado_916886" data-name="Trazado 916886" d="M149.025,551.952c-1.956.082-3.695.19-5.433.272-5.624.217-11.111.516-16.463.978-5.3.435-10.514,1.032-15.54,1.684-.761.109-1.549.19-2.309.245-3.179.217-6.3.435-9.4.679,3.314-3.776,4.4-7.8,5.379-11.9,1.032-4.265-.054-7.878-4.292-11.138.924,0,1.6-.027,2.255-.027,2.309-.027,4.673-.136,6.955,0,4.809.3,9.563-.408,14.371-.734,1.521-.109,3.07-.136,4.591-.163q9.128-.081,18.446-.109c.163,0,.326.027.489.027a34.785,34.785,0,0,0-1.929,10.215C145.982,545.378,147.123,548.611,149.025,551.952Zm-42.842-11.709c-.027.054-.027.136-.054.19.815-.054,1.657-.082,2.472-.19a206.413,206.413,0,0,1,27.819-1.576c1.63.027,3.287-.054,4.944-.136.924-.054,1.875-.245,2.825-.38-6.629-.054-12.986,0-19.289.245A166.02,166.02,0,0,0,106.183,540.243Zm39.773-5.569v-.245c-13.149.543-26.189.516-39.093,2.2,10.079-.543,20.185-.951,30.4-1.277,2.771-.109,5.6-.353,8.422-.543A2.525,2.525,0,0,1,145.955,534.674ZM109.579,547.85c.435-.027.625-.027.815-.027,3.749-.353,7.58-.734,11.41-.9,5.27-.217,10.622-.217,16.137-.245,1.25,0,2.5-.027,3.776-.082.38-.027.788-.136,1.168-.19a3.789,3.789,0,0,0-1.087-.109c-7.58-.027-14.86.054-21.951.3A45.72,45.72,0,0,0,109.579,547.85Zm-1.467-4.184c-.027.109-.027.217-.054.326,2.472-.082,4.944-.19,7.417-.218,8.666.027,17.876-.19,26.76-.978a9.639,9.639,0,0,0,1.223-.217,2.2,2.2,0,0,0-1.005-.136c-9.155.652-18.5.9-27.411.951C112.73,543.449,110.394,543.585,108.112,543.666Zm-.054,8.2c0,.081-.027.136-.027.217.326-.027.625-.027.951-.054,2.581-.217,5.189-.462,7.851-.6,6.9-.353,13.964-.543,21.3-.652,1.956-.027,3.939-.245,5.95-.353,0-.081-.027-.163-.027-.245-.6.027-1.2.109-1.766.109-7.878.081-15.458.326-22.82.734C115.583,551.246,111.806,551.572,108.057,551.871Z" transform="translate(-31.283 -527.692)" fill="#f4eec6"/>
                <path id="Trazado_916887" data-name="Trazado 916887" d="M114.541,531.5c-4.428,10.133-6.52,18.446-2.88,28.118a4.816,4.816,0,0,1-.543.081c-5.189.489-10.351,1.032-15.512,1.521-2.825.271-2.907.869-3.994-2.01a31.572,31.572,0,0,1-2.01-7.362,25.915,25.915,0,0,1,.951-10.7,65.419,65.419,0,0,1,3.1-7.661,1.374,1.374,0,0,1,.869-.6c2.554-.3,5.08-.571,7.634-.761,3.559-.271,7.118-.462,10.677-.625Z" transform="translate(-49.258 -528.104)" fill="#008d36"/>
                <path id="Trazado_916888" data-name="Trazado 916888" d="M95.115,532.81a63.8,63.8,0,0,0-1.386,15.159c0,1.9.054,3.776.109,5.7a11.473,11.473,0,0,0,2.391,7.036c-1.331.217-2.554.435-3.776.625-2.69.38-5.406.679-8.1,1.087-1.032.163-1.549-.163-1.793-.951a29.842,29.842,0,0,1-1.63-6.574c-.489-6.113.462-12.225,1.3-18.229.217-1.63.217-1.712,2.2-2.065C87.943,533.924,91.5,533.38,95.115,532.81Z" transform="translate(-64.036 -525.855)" fill="#008d36"/>
                <path id="Trazado_916889" data-name="Trazado 916889" d="M98.124,532.178c-.516,1.657-1.223,3.287-1.847,4.972A32.484,32.484,0,0,0,94.51,549.7a23.438,23.438,0,0,0,3.016,10.731c-.136.027-.244.081-.353.109-2.418.326-4.809.625-7.2,1.032a1.523,1.523,0,0,1-1.739-.652,11.441,11.441,0,0,1-2.01-5.868,68.445,68.445,0,0,1,.3-14.534c.3-2.092.733-4.157.9-6.194.027-.435.244-.761.869-.842,3.206-.462,6.384-.9,9.563-1.3A.9.9,0,0,1,98.124,532.178Z" transform="translate(-55.145 -526.962)" fill="#95c11f"/>
                <path id="Trazado_916890" data-name="Trazado 916890" d="M86.424,533.72c-1.467,9.536-3.07,18.691.19,27.574-1.63.217-3.233.462-4.836.6a1.128,1.128,0,0,1-.9-.625,44.988,44.988,0,0,1-2.445-7.2c-1.087-5.162-.326-10.459.625-15.73a2.959,2.959,0,0,1,.19-.652c.57-1.712,1.331-3.178,4.048-3.314A20.712,20.712,0,0,0,86.424,533.72Z" transform="translate(-69.01 -524.293)" fill="#95c11f"/>
                <path id="Trazado_916891" data-name="Trazado 916891" d="M83.838,561.069c-2.255.625-3.532.326-4.51-1.413-2.119-3.695-3.749-7.552-3.885-11.818a25.518,25.518,0,0,1,1.521-10.867c.054-.163.081-.38.217-.435a21.654,21.654,0,0,1,6.493-2.228A31.458,31.458,0,0,0,81.909,554.5C82.425,556.668,83.131,558.842,83.838,561.069Z" transform="translate(-73.297 -523.28)" fill="#008d36"/>
                <path id="Trazado_916892" data-name="Trazado 916892" d="M99.77,532.127c.6-.082,1.032-.19,1.494-.218,4.238-.326,8.476-.6,12.741-.842,1.44-.082,2.88-.19,4.32-.217,7.58-.082,15.132-.109,22.766-.136,4.347-.027,8.721-.027,13.122-.054.6,0,1.141.027,1.3.516.163.516-.027.9-.869.951-1.168.054-2.336.027-3.5.027-6.439-.027-12.8-.245-19.1-.082-8.123.272-16.246.815-24.314,1.331-1.684.109-3.369.027-5.053.027C100.938,533.485,100.993,533.485,99.77,532.127Z" transform="translate(-31.472 -529.546)" fill="#008d36"/>
                <path id="Trazado_916893" data-name="Trazado 916893" d="M104.1,531.752c-.408,1.576-1.114,3.124-1.521,4.727-.9,3.586-2.391,7.172-3.233,10.758a13.334,13.334,0,0,0,.9,8.585c.435.978.869,1.956,1.277,2.961.109.245-.109.625-.163.924a8.683,8.683,0,0,1-.9-.271,3.8,3.8,0,0,1-2.038-2.336,14.834,14.834,0,0,1-1.168-7.335,26.719,26.719,0,0,1,1.549-8.34,88.15,88.15,0,0,0,3.043-8.476C102.193,531.833,102.873,531.534,104.1,531.752Z" transform="translate(-35.879 -527.785)" fill="#008d36"/>
                <path id="Trazado_916894" data-name="Trazado 916894" d="M100.888,547.971a21.725,21.725,0,0,0,1.059-7.77,33.558,33.558,0,0,0-1.657-7.471C104.256,535.99,103.224,543.325,100.888,547.971Z" transform="translate(-30.579 -525.992)" fill="#fcfaf6"/>
                <path id="Trazado_916895" data-name="Trazado 916895" d="M102.234,536.2a165.385,165.385,0,0,1,18.718-1.847c6.3-.245,12.66-.3,19.289-.245-.951.136-1.875.326-2.825.38-1.657.109-3.314.163-4.944.136a201.991,201.991,0,0,0-27.819,1.576c-.815.109-1.657.136-2.472.19A.691.691,0,0,0,102.234,536.2Z" transform="translate(-27.335 -523.653)" fill="#311d48"/>
                <path id="Trazado_916896" data-name="Trazado 916896" d="M141.526,533.009a.862.862,0,0,1-.244.082c-2.825.19-5.651.462-8.422.543-10.215.353-20.321.761-30.4,1.277,12.9-1.685,25.945-1.657,39.093-2.2A1.114,1.114,0,0,0,141.526,533.009Z" transform="translate(-26.854 -526.027)" fill="#311d48"/>
                <path id="Trazado_916897" data-name="Trazado 916897" d="M103.45,538.669a47.4,47.4,0,0,1,10.269-1.277c7.091-.271,14.371-.326,21.951-.3a3.791,3.791,0,0,1,1.087.109,8.68,8.68,0,0,1-1.168.19c-1.277.055-2.527.082-3.776.082-5.515.027-10.867.027-16.137.245-3.831.163-7.661.571-11.41.9A3.031,3.031,0,0,1,103.45,538.669Z" transform="translate(-25.155 -518.512)" fill="#311d48"/>
                <path id="Trazado_916898" data-name="Trazado 916898" d="M102.944,536.908c2.309-.109,4.618-.245,6.928-.272,8.938-.054,18.256-.3,27.411-.951a2.2,2.2,0,0,1,1.005.136,9.6,9.6,0,0,1-1.223.217c-8.884.788-18.093,1.005-26.76.978-2.472.027-4.944.136-7.417.218C102.917,537.153,102.917,537.044,102.944,536.908Z" transform="translate(-26.116 -520.934)" fill="#311d48"/>
                <path id="Trazado_916899" data-name="Trazado 916899" d="M102.941,540.214c3.722-.326,7.5-.625,11.356-.842,7.362-.408,14.942-.652,22.82-.734.6,0,1.168-.082,1.766-.109,0,.082.027.163.027.245-2.01.109-3.966.326-5.95.353-7.335.109-14.371.3-21.3.652-2.662.136-5.27.38-7.851.6-.326.027-.625.027-.951.054A.362.362,0,0,0,102.941,540.214Z" transform="translate(-26.167 -516.036)" fill="#311d48"/>
              </g>
            </g>
          </g>
          <g id="Grupo_1104825" data-name="Grupo 1104825" transform="translate(0.217 28.416)">
            <path id="Trazado_916900" data-name="Trazado 916900" d="M74.764,561.847c.272-1.793.516-3.559.815-5.352.081-.462.244-.9.353-1.331a3.583,3.583,0,0,1,2.717-2.825c3.342-.788,6.629-1.657,10-2.309,5.216-1.005,10.432-1.875,15.648-2.8a148.736,148.736,0,0,1,22.467-2.418c4.157-.081,8.286-.408,12.442-.57a8.932,8.932,0,0,0,3.423-.6,15.865,15.865,0,0,1,4.157-.761,194.391,194.391,0,0,1,22.494-1.6c9.481-.272,18.99-.408,28.5-.571a2.367,2.367,0,0,1,1.413.245,2.767,2.767,0,0,1,1.005,1.549c.054.462-.435.978-.706,1.467-.109.19-.38.353-.435.543a2.664,2.664,0,0,1-2.988,2.282c-1.114.027-2.228,0-3.477,0a21.788,21.788,0,0,0-.57,3.369c-.136,6-.19,12.008,1.576,17.849.679,2.2,1.576,4.32,2.391,6.466.081.19.272.435.435.435a16.358,16.358,0,0,0,3.26.027c2.309-.326,4.075.788,4.455,2.961a2.478,2.478,0,0,1-1.657,2.988,24.071,24.071,0,0,1-9.536,1.875c-6.194.163-12.388.136-18.609.326-3.369.109-6.71.516-10.052.734-3.45.217-6.928.38-10.378.543-3.4.136-6.819.027-10.188.435-5.026.6-10.025-.217-15.023-.027-5.135.217-10.269.462-15.431.679-1.386.054-2.771.109-4.157.109-8.367,0-16.762.027-25.13-.027a8.727,8.727,0,0,1-3.559-.652,4.538,4.538,0,0,1-1.82-2.119,30.257,30.257,0,0,1-2.717-8.422,47.687,47.687,0,0,1-1.005-9.807,9.264,9.264,0,0,0-.163-1.168A13.5,13.5,0,0,0,74.764,561.847Zm119.481,13.529a46.577,46.577,0,0,1-3.613-14.208,60.374,60.374,0,0,1,.489-14.507,2.994,2.994,0,0,0-.489-.054c-6.14.082-12.28.136-18.419.245-1.549.027-3.1.082-4.646.217-4.863.435-9.644,1.358-14.562.951-2.364-.19-4.754-.054-7.118-.082h-2.282a20.2,20.2,0,0,1,6.3,15.078c-.027,5.569-.38,11.057-3.858,15.675h9.726c.788,0,1.576-.054,2.364-.109,5.162-.489,10.3-1.005,15.458-1.467,5.216-.462,10.459-.815,15.675-1.222C190.849,575.756,192.452,575.566,194.245,575.376Zm-55.122-29.666c-.543,0-1.141-.027-1.766,0-3.613.163-7.254.3-10.867.516-2.608.163-5.189.38-7.77.625a1.385,1.385,0,0,0-.924.679,39.724,39.724,0,0,0-3.016,9.373,34.06,34.06,0,0,0,.734,13.257c.734,3.124,1.929,6.14,2.961,9.21,1.2,3.586,1.2,2.88,4.157,2.907,5.406.082,10.812.109,16.219.163.244,0,.489-.027.571-.027C134.342,570.16,134.532,557.989,139.123,545.709Zm-34.556,2.934c-3.559.408-7.036.761-10.486,1.25-1.929.272-1.929.326-2.228,2.282a78.619,78.619,0,0,0-.407,21.571,66.062,66.062,0,0,0,1.9,7.851,1.548,1.548,0,0,0,1.847,1.3c2.825-.163,5.678-.163,8.5-.271,1.3-.054,2.581-.136,3.994-.217a19.8,19.8,0,0,1-2.88-8.53c-.272-2.282-.57-4.564-.815-6.873C103.4,560.9,102.882,554.783,104.567,548.643Zm11.872-1.386a1.2,1.2,0,0,0-.272-.054c-3.179.353-6.357.707-9.536,1.032-.625.054-.842.462-.924.978-.353,2.5-.869,5-.978,7.525-.272,5.922.6,11.763,1.494,17.6a19.766,19.766,0,0,0,2.445,7.145,1.73,1.73,0,0,0,1.82.978c2.527-.136,5.08-.136,7.607-.217a2.549,2.549,0,0,0,.38-.054,58.821,58.821,0,0,1-4.157-13.339c-.815-5.189-1.3-10.351.136-15.485C114.972,551.306,115.732,549.3,116.439,547.258Zm-25.211,3.179a15.251,15.251,0,0,1-2.988.435c-2.554-.136-3.369,1.549-3.966,3.532a3.9,3.9,0,0,0-.19.761,50.281,50.281,0,0,0-.136,18.582c.6,2.961,1.63,5.814,2.527,8.721a1.326,1.326,0,0,0,.9.815c1.657,0,3.342-.109,5.026-.19C89.108,571.3,88.864,563.857,91.228,550.436Zm-6.14,32.818c-.652-2.689-1.358-5.3-1.875-7.933-1.576-8.014-1.684-15.947,1.331-23.771a16.522,16.522,0,0,0-6.113,1.9c-.136.054-.163.326-.217.516-1.44,4.157-1.576,8.449-1.44,12.8A38.42,38.42,0,0,0,80.5,581.19C81.447,583.309,82.724,583.8,85.088,583.254Zm59.278-.244a2.013,2.013,0,0,0,.326.054c4.4-.245,8.829-.462,13.23-.734,4.021-.245,8.014-.652,12.035-.842,5.515-.245,11-.326,16.518-.571,3.749-.163,7.5-.516,11.247-.842a22.1,22.1,0,0,0,3.749-.652c1.2-.3,1.358-.978.679-2.037a1.879,1.879,0,0,0-2.037-.869c-2.2.3-4.428.652-6.629.842-4.292.408-8.612.734-12.9,1.114-3.342.3-6.71.6-10.052.951-3.233.326-6.466.815-9.726,1.005-3.586.217-7.2.163-10.785.271-1.929.054-3.858.245-5.814.38C144.258,581.787,144.312,582.412,144.366,583.01ZM142.22,544.7c1.114,1.766,1.114,1.766,2.88,1.793,1.711,0,3.423.109,5.135,0,8.177-.6,16.355-1.44,24.532-1.847,6.3-.3,12.66-.054,18.99-.082,1.141,0,2.309.027,3.45-.081.815-.055.978-.625.788-1.358s-.733-.734-1.331-.734l-12.959.245c-7.58.136-15.159.245-22.766.408-1.44.027-2.907.19-4.347.3-4.292.353-8.585.706-12.9,1.06C143.28,544.46,142.818,544.6,142.22,544.7Zm-.163,1.766c-1.25-.271-1.956.082-2.282,1.549-.815,3.64-1.6,7.308-2.2,11a43.451,43.451,0,0,0,.19,10.948,41.6,41.6,0,0,0,1.929,9.644c.408,1.2.734,2.472,1.956,3.206.272.163.6.3.9.462.109-.38.353-.815.272-1.168-.353-1.331-.761-2.662-1.223-3.939a31.8,31.8,0,0,1-2.146-11.383c.109-4.727.706-9.454,1.25-14.154A49.071,49.071,0,0,1,142.057,546.47Zm5.216,24.26c1.712-6.113.679-16.192-3.64-20.538,1.005,3.314,2.173,6.629,2.988,10.052A30.894,30.894,0,0,1,147.273,570.73Z" transform="translate(-74.71 -540.71)" fill="#311d48"/>
            <path id="Trazado_916901" data-name="Trazado 916901" d="M150.727,571.65c-1.793.19-3.4.38-5,.516-5.216.435-10.459.788-15.675,1.222-5.162.435-10.3.978-15.458,1.467a22.906,22.906,0,0,1-2.364.109h-9.726c3.477-4.591,3.831-10.106,3.858-15.675a20.1,20.1,0,0,0-6.3-15.078h2.282c2.364,0,4.754-.136,7.118.082,4.917.408,9.726-.516,14.562-.951,1.549-.136,3.1-.217,4.646-.217l18.419-.245a3,3,0,0,1,.489.054,60.375,60.375,0,0,0-.489,14.507A47.224,47.224,0,0,0,150.727,571.65Zm-44.282-17.305v.245c.842-.055,1.712-.055,2.554-.163a190.856,190.856,0,0,1,28.118-1.712,47.9,47.9,0,0,0,4.836-.19,23.544,23.544,0,0,0,2.69-.543c-6.439-.082-12.823-.027-19.207.272A148.216,148.216,0,0,0,106.444,554.344Zm39.392-7.281c0-.109-.027-.245-.027-.353-13.312,1.2-26.705.6-39.338,2.744,9.889-.462,20.375-.924,30.889-1.467,2.771-.136,5.515-.516,8.259-.788A1.514,1.514,0,0,1,145.836,547.064ZM111.8,565.048h.842c3.831-.272,7.688-.652,11.519-.761,5.27-.136,10.568-.027,15.838-.054,1.2,0,2.364-.054,3.559-.136a5.96,5.96,0,0,0,1.087-.3,2.849,2.849,0,0,0-1.032-.136c-7.145.027-14.317-.027-21.462.082A36.083,36.083,0,0,0,111.8,565.048Zm-2.527-5.868c0,.163.027.3.027.462,2.554,0,5.135-.054,7.688,0a165.669,165.669,0,0,0,26.461-.951c.38-.054.761-.217,1.141-.3a1.709,1.709,0,0,0-1.005-.19,221.242,221.242,0,0,1-27.167.9C114.051,559.044,111.66,559.126,109.27,559.18Zm1.549,11.3c0,.109-.027.19-.027.3h.978c2.662-.109,5.325-.272,7.987-.3,6.928-.136,13.855-.163,20.783-.326,1.847-.054,3.695-.38,5.542-.571,0-.109-.027-.217-.027-.326-.543.054-1.087.163-1.63.19-7.362.217-14.7.38-22.06.6C118.506,570.156,114.676,570.346,110.818,570.482Z" transform="translate(-31.192 -536.984)" fill="#f4eec6"/>
            <path id="Trazado_916902" data-name="Trazado 916902" d="M114.025,542.558c-4.591,12.28-4.754,24.45.3,36.7-.081,0-.326.027-.571.027-5.406-.054-10.812-.082-16.219-.163-2.988-.027-2.961.679-4.157-2.907-1.032-3.043-2.2-6.085-2.961-9.209a34.061,34.061,0,0,1-.734-13.258,39.33,39.33,0,0,1,3.016-9.373,1.306,1.306,0,0,1,.924-.679c2.581-.245,5.189-.489,7.77-.625,3.613-.217,7.254-.353,10.867-.516C112.857,542.53,113.482,542.558,114.025,542.558Z" transform="translate(-49.612 -537.558)" fill="#e94e1b"/>
            <path id="Trazado_916903" data-name="Trazado 916903" d="M94.333,543.63c-1.684,6.14-1.2,12.252-.543,18.365.244,2.282.543,4.591.815,6.873a19.218,19.218,0,0,0,2.88,8.53c-1.386.082-2.69.163-3.994.217-2.825.082-5.678.109-8.5.271a1.548,1.548,0,0,1-1.847-1.3,61.168,61.168,0,0,1-1.9-7.851,77.547,77.547,0,0,1,.408-21.571c.3-1.956.3-2.038,2.228-2.282C87.3,544.391,90.774,544.038,94.333,543.63Z" transform="translate(-64.476 -535.696)" fill="#e94e1b"/>
            <path id="Trazado_916904" data-name="Trazado 916904" d="M97.517,543.171c-.679,2.038-1.44,4.048-2.01,6.085-1.44,5.135-.951,10.323-.136,15.485a58.813,58.813,0,0,0,4.157,13.339,1.831,1.831,0,0,1-.38.054c-2.527.054-5.08.081-7.607.217a1.73,1.73,0,0,1-1.82-.978,20.482,20.482,0,0,1-2.445-7.145c-.869-5.841-1.766-11.682-1.494-17.6.109-2.526.625-5.026.978-7.525a1,1,0,0,1,.924-.978c3.179-.326,6.357-.679,9.536-1.032A1.674,1.674,0,0,1,97.517,543.171Z" transform="translate(-55.789 -536.623)" fill="#f9b233"/>
            <path id="Trazado_916905" data-name="Trazado 916905" d="M85.9,544.29c-2.391,13.421-2.119,20.864,1.168,32.655-1.712.082-3.369.19-5.026.19a1.326,1.326,0,0,1-.9-.815A88.774,88.774,0,0,1,78.62,567.6a50.286,50.286,0,0,1,.136-18.582c.054-.272.136-.516.19-.761.6-1.983,1.386-3.667,3.966-3.532A15.251,15.251,0,0,0,85.9,544.29Z" transform="translate(-69.383 -534.563)" fill="#f9b233"/>
            <path id="Trazado_916906" data-name="Trazado 916906" d="M83.786,576.421c-2.364.516-3.613.054-4.564-2.092A37.918,37.918,0,0,1,75.5,559.9c-.109-4.347,0-8.639,1.44-12.8.054-.163.081-.435.217-.516a16.365,16.365,0,0,1,6.113-1.9c-3.016,7.8-2.934,15.757-1.331,23.771C82.427,571.123,83.134,573.732,83.786,576.421Z" transform="translate(-73.408 -533.877)" fill="#e94e1b"/>
            <path id="Trazado_916907" data-name="Trazado 916907" d="M99.56,543.622a13.353,13.353,0,0,1,1.549-.272c4.292-.353,8.585-.706,12.9-1.06,1.44-.109,2.88-.272,4.347-.3,7.58-.163,15.159-.272,22.766-.408l12.959-.245c.6,0,1.141,0,1.331.734s.027,1.3-.788,1.358c-1.141.082-2.309.054-3.45.082-6.33,0-12.66-.217-18.99.082-8.2.408-16.355,1.25-24.532,1.847-1.712.136-3.423.027-5.135,0C100.674,545.388,100.674,545.388,99.56,543.622Z" transform="translate(-32.05 -539.628)" fill="#c63a17"/>
            <path id="Trazado_916908" data-name="Trazado 916908" d="M102.52,542.883a53.935,53.935,0,0,0-1.358,6.14c-.543,4.7-1.141,9.427-1.25,14.154a31.578,31.578,0,0,0,2.146,11.383c.462,1.3.869,2.608,1.223,3.939.082.353-.163.761-.272,1.168a7.035,7.035,0,0,1-.9-.462c-1.223-.734-1.521-2.01-1.956-3.206a41.884,41.884,0,0,1-1.929-9.644c-.353-3.64-.788-7.308-.19-10.948.6-3.695,1.386-7.362,2.2-11C100.536,542.965,101.27,542.612,102.52,542.883Z" transform="translate(-35.173 -537.123)" fill="#c63a17"/>
            <path id="Trazado_916909" data-name="Trazado 916909" d="M103.738,564.738a30.229,30.229,0,0,0-.679-10.486c-.815-3.423-1.983-6.737-2.988-10.052C104.39,548.547,105.449,558.626,103.738,564.738Z" transform="translate(-31.174 -534.718)" fill="#fcfaf6"/>
            <path id="Trazado_916910" data-name="Trazado 916910" d="M102.418,548.622a149.317,149.317,0,0,1,18.99-2.119c6.384-.272,12.769-.326,19.207-.272a18.886,18.886,0,0,1-2.69.543,48.044,48.044,0,0,1-4.836.19,198.55,198.55,0,0,0-28.118,1.712c-.842.109-1.712.109-2.554.163C102.39,548.813,102.418,548.731,102.418,548.622Z" transform="translate(-27.165 -531.262)" fill="#311d48"/>
            <path id="Trazado_916911" data-name="Trazado 916911" d="M141.8,544.643c-.081.054-.163.136-.245.136-2.744.272-5.515.652-8.259.788-10.486.544-21,1.005-30.889,1.467,12.633-2.146,26.053-1.548,39.338-2.744C141.775,544.4,141.775,544.508,141.8,544.643Z" transform="translate(-27.157 -534.563)" fill="#311d48"/>
            <path id="Trazado_916912" data-name="Trazado 916912" d="M104.38,551.915a36.242,36.242,0,0,1,10.323-1.3c7.145-.109,14.317-.054,21.462-.082a2.85,2.85,0,0,1,1.032.136,4.955,4.955,0,0,1-1.087.3c-1.2.082-2.364.136-3.559.136-5.27.027-10.568-.082-15.838.054-3.858.109-7.688.489-11.519.761Z" transform="translate(-23.775 -523.851)" fill="#311d48"/>
            <path id="Trazado_916913" data-name="Trazado 916913" d="M103.45,549.5c2.391-.027,4.781-.136,7.172-.081a221.217,221.217,0,0,0,27.167-.9,1.783,1.783,0,0,1,1.005.19,5.9,5.9,0,0,1-1.141.3,165.676,165.676,0,0,1-26.461.951c-2.554-.054-5.135,0-7.688,0C103.477,549.8,103.477,549.64,103.45,549.5Z" transform="translate(-25.372 -527.307)" fill="#311d48"/>
            <path id="Trazado_916914" data-name="Trazado 916914" d="M104.037,553.83c3.858-.163,7.688-.326,11.546-.462,7.362-.217,14.7-.408,22.06-.6.543-.027,1.087-.109,1.63-.19,0,.109.027.217.027.326-1.847.19-3.695.516-5.542.57-6.928.163-13.855.19-20.783.326-2.662.054-5.325.217-7.987.3h-.978A.837.837,0,0,0,104.037,553.83Z" transform="translate(-24.411 -520.332)" fill="#311d48"/>
          </g>
          <g id="Grupo_1104826" data-name="Grupo 1104826" transform="translate(4.944 67.705)">
            <path id="Trazado_916915" data-name="Trazado 916915" d="M81.557,590.783c.788-1.3,1.521-2.5,2.2-3.722,2.146-3.83,2.282-8.014,2.01-12.225-.19-3.043-.571-6.058-.869-9.155a4.346,4.346,0,0,0-.734-.109c-1.684.027-3.369.027-5.053.109-1.793.082-2.364-.19-2.527-1.331a2.525,2.525,0,0,1,1.956-3.233,60.6,60.6,0,0,1,15.132-2.038c6.031-.19,12.062-.407,18.093-.516,2.771-.054,5.542.217,8.313.082,6.14-.3,12.279-.652,18.419-1.44,5.325-.679,10.7-.924,16.056-1.3,3.8-.271,7.634-.543,11.465-.625,5.461-.136,10.948-.109,16.436-.082a67.269,67.269,0,0,1,9.373.38c3.423.516,6.9.951,10.133,2.391.652.3,1.25.625,1.141,1.521-.027.136.163.353.3.435a4.162,4.162,0,0,1,1.875,2.689,39.644,39.644,0,0,1,.3,22.223c-.489,1.766-.951,3.559-1.494,5.325a13.136,13.136,0,0,1-2.635,3.966c-1.983,2.526-4.7,2.363-7.254,2.418-7.824.19-15.648.109-23.445.217q-16.545.244-33.062.6l-4.754.082c-4.075.082-8.15.3-12.225.19-4.184-.109-8.34-.571-12.524-.869-.462-.027-.924-.054-1.386-.054-5.651-.082-11.274-.109-16.925-.218-3.749-.081-7.5-.245-11.247-.407a1.718,1.718,0,0,1-1.847-1.766c-.109-.951-.272-1.9-.326-2.853a1,1,0,0,1,.625-.652C78.569,590.755,80.09,590.783,81.557,590.783ZM196.8,589.017a11.009,11.009,0,0,0-.435-2.092c-.543-1.413-1.331-2.744-1.739-4.184a21.808,21.808,0,0,1-.109-10c.6-3.151,1.684-6.113,4.455-8.123a.812.812,0,0,0,.19-.3c-1.141-1.9-1.657-2.173-3.722-2.119-.734.027-1.44.027-2.173,0-7.063-.19-14.1-.462-21.163-.543-3.912-.054-7.851.217-11.763.353q-14.1.53-28.172,1.087c-.326,0-.679.082-.815.082,3.07,8.938,2.554,17.658-.516,26.352h.435c4.89-.136,9.753-.408,14.643-.408,10.894,0,21.761.19,32.655.19C184.52,589.343,190.524,589.125,196.8,589.017ZM82.7,590.81c3.4-.163,6.656-.3,9.916-.435,7.281-.3,14.48.462,21.734.842a56.875,56.875,0,0,0,8.041-.3,53.607,53.607,0,0,0,6.167-1.168.993.993,0,0,0,.543-.6,31.869,31.869,0,0,0,1.494-4.075,43.928,43.928,0,0,0,.9-14.833,13.324,13.324,0,0,0-1.956-6.466,1.094,1.094,0,0,0-.788-.462c-.951.027-1.9.163-2.853.19-3.423.109-6.765.842-10.188,1.005-9.454.435-18.881,1.223-28.362,1.032-.353,0-.679.027-1.06.054.027.353.054.571.081.815a87.577,87.577,0,0,1,.9,12.8A18.01,18.01,0,0,1,82.7,590.81Zm40.262,4.021c4.428,0,8.748.054,13.067,0,14.507-.217,29.042-.489,43.549-.706,5.107-.082,10.242-.109,15.349-.272.9-.027,1.847.163,2.744-.788a1.349,1.349,0,0,0,.435-1.521,1.571,1.571,0,0,0-1.168-.788c-1.413-.082-2.825,0-4.265.054-4.7.109-9.427.326-14.127.353-4.646,0-9.291-.353-13.964-.3-8.449.109-16.871.408-25.32.679-4.075.136-8.177.408-12.252.571-1.168.054-2.336-.109-3.477-.136-.6,0-1.032.272-.924.951A17.77,17.77,0,0,0,122.96,594.83ZM199.6,559.812c-.027-.082-.027-.163-.054-.245a36.677,36.677,0,0,0-4.51-.869c-5.678-.38-11.383-.869-17.061-.924-7.444-.082-14.915.136-22.358.326-3.722.082-7.444.3-11.166.625-5.9.516-11.79,1.168-17.686,1.739-1.847.19-3.722.353-5.6.516v1.467c2.119-.218,4.211-.435,6.3-.6,3.314-.272,6.629-.462,9.97-.734,4.591-.353,9.21-.761,13.8-1.06,3.559-.245,7.118-.435,10.677-.516,4.455-.136,8.911-.353,13.339-.163,6.846.272,13.692.9,20.538,1.223A16.362,16.362,0,0,0,199.6,559.812Zm-78.323,32.736h-.652c-4.32-.19-8.612-.435-12.932-.571-5.433-.163-10.867-.38-16.3-.245-4.211.082-8.422.6-12.633.136a4.847,4.847,0,0,0-.815.082v.761c.027,1.223.054,1.223,1.331,1.168,1.141-.054,2.309-.027,3.45.027,2.092.109,4.211.353,6.3.408,3.206.081,6.411-.027,9.59.054,5.542.136,11.057.38,16.6.516,2.065.054,4.157,0,6.276,0C121.411,594.07,121.357,593.363,121.276,592.548Zm78-30.481a11.32,11.32,0,0,1,2.662,5.27,30.412,30.412,0,0,1,.082,11.41,26.706,26.706,0,0,1-2.581,7.987c-.435.869-.951,1.684-1.44,2.554,1.277.407,2.608.761,2.907,2.445a13.665,13.665,0,0,0,1.44-2.8c1.983-6,3.342-12.144,2.744-18.528a65.442,65.442,0,0,0-1.358-7.879c-.326-1.44-1.3-1.847-2.825-1.521C201.473,561.931,201.473,561.931,199.272,562.067Zm-79.762-.9c-5.406.109-10.7.19-16,.353-2.038.054-4.075.217-6.113.353-6.085.435-12.144,1.141-18.256.734-.408-.027-.842,0-1.358,0,.136.679.217,1.223.326,1.766,1.141-.054,2.2-.054,3.233-.19,1.3-.136,2.69.245,3.912-.625.136-.109.516.136.761.217a1.583,1.583,0,0,0,.6.217c5.08-.027,10.16,0,15.241-.136,5.624-.136,11.274-.435,16.9-.652.244,0,.489-.055.815-.082v-1.44C119.537,561.551,119.537,561.388,119.51,561.171Zm80.306,20.375a40.365,40.365,0,0,0,.869-12.334C199.136,571.087,198.539,579.1,199.815,581.546Zm-1.494,4.021c1.549-2.88,1.385-4.4-.652-5.977C197.887,581.627,198.077,583.5,198.321,585.567Z" transform="translate(-76.45 -555.172)" fill="#311d48"/>
            <path id="Trazado_916916" data-name="Trazado 916916" d="M162.449,584.9c-6.276.109-12.279.326-18.256.326-10.894,0-21.761-.19-32.655-.19-4.89,0-9.753.272-14.643.408H96.46c3.07-8.693,3.613-17.414.516-26.352a4.424,4.424,0,0,1,.815-.082c9.4-.353,18.8-.734,28.172-1.087,3.912-.136,7.851-.408,11.763-.353,7.063.082,14.127.353,21.163.543.734.027,1.44,0,2.173,0,2.065-.054,2.581.245,3.722,2.119a1.825,1.825,0,0,1-.19.3c-2.771,2.01-3.858,4.944-4.455,8.123a21.805,21.805,0,0,0,.109,10c.408,1.44,1.223,2.771,1.739,4.184A10.359,10.359,0,0,1,162.449,584.9Zm-4.4-11.9c0-.082-.027-.163-.027-.244-1.114.054-2.228.163-3.342.19-6.9.082-13.8.082-20.674.245-8.639.217-17.278.245-25.863,1.385-1.875.245-3.8.272-5.542,1.277.489-.081.951-.244,1.413-.3,4.618-.489,9.237-1.141,13.882-1.358,8.014-.38,16.029-.516,24.043-.706,4.51-.109,9.047-.082,13.556-.163A16.417,16.417,0,0,0,158.048,573.005Zm-1.6,7.226c-15.648,1.25-31.351-.082-47,.815,13.094,0,26.189.055,39.284-.027C151.31,580.993,153.864,580.5,156.445,580.232Zm2.228-12.633v-.3c-.163,0-.3-.027-.462-.027-6.031-.109-12.062-.408-18.093-.326-7.308.082-14.643.435-21.951.734-4.618.19-9.21.462-13.828.788-1.358.082-2.69.435-4.048.652C119.742,567.762,139.167,566.54,158.673,567.6Zm-29.15-6.33c8.938.109,19.4.245,29.884.38A271.768,271.768,0,0,0,129.522,561.269Z" transform="translate(-42.099 -551.06)" fill="#f4eec6"/>
            <path id="Trazado_916917" data-name="Trazado 916917" d="M78.75,585.646a18,18,0,0,0,4.564-11.573,87.836,87.836,0,0,0-.9-12.8c-.027-.217-.054-.462-.081-.815.38-.027.706-.054,1.06-.054,9.481.19,18.908-.6,28.362-1.032,3.423-.163,6.792-.9,10.188-1.005.951-.027,1.9-.19,2.853-.19a1.047,1.047,0,0,1,.788.462,13.324,13.324,0,0,1,1.956,6.466,43.97,43.97,0,0,1-.9,14.833,38.677,38.677,0,0,1-1.494,4.075.992.992,0,0,1-.543.6,53.609,53.609,0,0,1-6.167,1.168,49.791,49.791,0,0,1-8.041.3c-7.254-.38-14.48-1.141-21.734-.842C85.406,585.347,82.146,585.483,78.75,585.646Zm5.814-21.706,41.566-.571C112.3,563.07,98.473,563.016,84.564,563.939Zm1.114,12.769c0,.082.027.19.027.272.054.027.136.081.19.054,5.08-1.005,10.242-.842,15.377-.788,5.9.027,11.79.109,17.713.163.652,0,1.277-.082,1.929-.109v-.38c-8.938,0-17.876-.054-26.787.027C91.274,575.974,88.476,576.437,85.678,576.708Zm36.132-7.933v-.054H89.644a.308.308,0,0,0,.19.217c8.911.054,17.822.136,26.705.163C118.278,569.1,120.044,568.884,121.81,568.775Zm-1.9,13.04v-.326l-25.428-.978v.3C102.956,581.136,111.432,581.49,119.908,581.815Z" transform="translate(-72.502 -550.008)" fill="#e2d9ad"/>
            <path id="Trazado_916918" data-name="Trazado 916918" d="M93.82,572.357c-.136-.679-.3-1.277-.38-1.9-.109-.706.353-.951.924-.951,1.168,0,2.336.163,3.477.136,4.075-.163,8.177-.435,12.252-.571,8.449-.272,16.871-.571,25.32-.679,4.646-.054,9.291.3,13.964.3,4.7,0,9.427-.217,14.127-.353,1.413-.027,2.853-.109,4.265-.054a1.524,1.524,0,0,1,1.168.788,1.357,1.357,0,0,1-.435,1.521c-.9.924-1.82.761-2.744.788-5.107.136-10.215.19-15.349.272q-21.761.367-43.549.706C102.568,572.411,98.249,572.357,93.82,572.357Z" transform="translate(-47.31 -532.698)" fill="#5792b7"/>
            <path id="Trazado_916919" data-name="Trazado 916919" d="M171.358,558.2a14.977,14.977,0,0,1-3.831.761c-6.846-.326-13.692-.951-20.538-1.223-4.428-.163-8.911.027-13.339.163-3.559.109-7.118.3-10.677.516-4.591.3-9.21.706-13.8,1.06-3.314.245-6.629.462-9.97.734-2.092.163-4.184.408-6.3.6v-1.467c1.875-.163,3.749-.353,5.6-.516,5.9-.6,11.79-1.223,17.686-1.739,3.722-.326,7.444-.543,11.166-.625,7.444-.19,14.915-.408,22.358-.326,5.705.054,11.383.543,17.061.924a36.657,36.657,0,0,1,4.51.869C171.3,558.033,171.331,558.114,171.358,558.2Z" transform="translate(-48.21 -553.555)" fill="#5792b7"/>
            <path id="Trazado_916920" data-name="Trazado 916920" d="M120.331,569.465c.081.842.136,1.548.217,2.336-2.146,0-4.211.054-6.276,0-5.542-.163-11.057-.38-16.6-.516-3.206-.082-6.411.027-9.59-.054-2.092-.054-4.211-.3-6.3-.408-1.141-.054-2.309-.082-3.45-.027-1.25.054-1.3.081-1.331-1.168v-.761a4.6,4.6,0,0,1,.815-.082c4.211.462,8.422-.054,12.633-.136,5.433-.109,10.867.082,16.3.245,4.32.136,8.639.38,12.932.571Z" transform="translate(-75.506 -532.089)" fill="#3c6b83"/>
            <path id="Trazado_916921" data-name="Trazado 916921" d="M122.484,558.429c2.2-.136,2.2-.136,1.6-1.032,1.521-.326,2.5.082,2.825,1.521a58.945,58.945,0,0,1,1.358,7.878c.6,6.384-.734,12.524-2.744,18.528a13.673,13.673,0,0,1-1.44,2.8c-.3-1.711-1.6-2.038-2.907-2.445.489-.869,1.005-1.711,1.44-2.554a25.954,25.954,0,0,0,2.581-7.987,30.986,30.986,0,0,0-.081-11.41A10.987,10.987,0,0,0,122.484,558.429Z" transform="translate(0.338 -551.534)" fill="#5792b7"/>
            <path id="Trazado_916922" data-name="Trazado 916922" d="M118.686,557.38c0,.217.027.38.027.543v1.44c-.3.027-.543.082-.815.082-5.624.217-11.274.516-16.9.652-5.08.136-10.16.109-15.241.136-.19,0-.38-.163-.6-.217-.244-.082-.625-.326-.761-.217-1.223.842-2.608.462-3.912.625-1.032.109-2.092.136-3.233.19-.109-.571-.217-1.087-.326-1.766.516,0,.924-.027,1.358,0,6.113.407,12.171-.326,18.256-.734,2.038-.136,4.075-.3,6.113-.353C107.982,557.6,113.307,557.516,118.686,557.38Z" transform="translate(-75.626 -551.381)" fill="#3c6b83"/>
            <path id="Trazado_916923" data-name="Trazado 916923" d="M122.294,572.674c-1.277-2.445-.652-10.432.869-12.334A40.366,40.366,0,0,1,122.294,572.674Z" transform="translate(1.071 -546.3)" fill="#fcfaf6"/>
            <path id="Trazado_916924" data-name="Trazado 916924" d="M121.722,570.137c-.217-2.065-.435-3.939-.652-5.977C123.08,565.736,123.243,567.257,121.722,570.137Z" transform="translate(0.149 -539.742)" fill="#fcfaf6"/>
            <path id="Trazado_916925" data-name="Trazado 916925" d="M154.185,563.4c-.869.109-1.711.3-2.581.326-4.51.081-9.047.054-13.556.163-8.014.19-16.029.326-24.043.706-4.646.217-9.237.869-13.882,1.358-.462.054-.924.217-1.413.3,1.712-.978,3.668-1.005,5.542-1.277,8.585-1.141,17.224-1.168,25.863-1.385,6.9-.163,13.774-.163,20.674-.245,1.114-.027,2.228-.109,3.342-.19A.4.4,0,0,1,154.185,563.4Z" transform="translate(-38.236 -541.459)" fill="#311d48"/>
            <path id="Trazado_916926" data-name="Trazado 916926" d="M148.222,565.91c-2.554.271-5.135.761-7.688.788-13.094.082-26.189.027-39.284.027C116.871,565.828,132.546,567.16,148.222,565.91Z" transform="translate(-33.876 -536.738)" fill="#311d48"/>
            <path id="Trazado_916927" data-name="Trazado 916927" d="M156.235,561.7c-19.506-1.06-38.93.163-58.355,1.494,1.358-.217,2.69-.543,4.048-.652,4.618-.3,9.21-.571,13.828-.788,7.308-.3,14.616-.652,21.951-.734,6.031-.082,12.062.19,18.093.326.163,0,.3.027.462.027A.463.463,0,0,0,156.235,561.7Z" transform="translate(-39.661 -545.159)" fill="#311d48"/>
            <path id="Trazado_916928" data-name="Trazado 916928" d="M108.63,559.083a265.252,265.252,0,0,1,29.884.38C128.027,559.327,117.568,559.219,108.63,559.083Z" transform="translate(-21.206 -548.873)" fill="#311d48"/>
            <path id="Trazado_916929" data-name="Trazado 916929" d="M80.89,560.783c13.91-.924,27.738-.869,41.566-.571C108.628,560.43,94.8,560.62,80.89,560.783Z" transform="translate(-68.828 -546.852)" fill="#311d48"/>
            <path id="Trazado_916930" data-name="Trazado 916930" d="M81.317,565.516c2.8-.271,5.6-.734,8.395-.761,8.938-.109,17.876-.027,26.787-.027v.38c-.652.054-1.277.109-1.929.109l-17.713-.163c-5.135-.027-10.3-.217-15.377.788a.7.7,0,0,1-.19-.054A.469.469,0,0,0,81.317,565.516Z" transform="translate(-68.141 -538.817)" fill="#311d48"/>
            <path id="Trazado_916931" data-name="Trazado 916931" d="M114.926,562.114c-1.766.109-3.5.326-5.27.326-8.911-.027-17.822-.109-26.705-.163-.054,0-.136-.027-.19-.217h32.166Z" transform="translate(-65.618 -543.347)" fill="#311d48"/>
            <path id="Trazado_916932" data-name="Trazado 916932" d="M109.968,567.7c-8.476-.326-16.952-.679-25.428-1.005v-.3l25.428.978Z" transform="translate(-62.562 -535.896)" fill="#311d48"/>
          </g>
        </g>
      </g>
    </g>
  </g>
</svg>
