<svg xmlns="http://www.w3.org/2000/svg" xmlns:xlink="http://www.w3.org/1999/xlink" width="259.911" height="462.189" viewBox="0 0 259.911 462.189">
  <defs>
    <clipPath id="clip-path">
      <rect id="Rectángulo_403995" data-name="Rectángulo 403995" width="259.911" height="462.19" transform="translate(1160.089 8424.531)" fill="#fff" stroke="#707070" stroke-width="1" opacity="0.84"/>
    </clipPath>
  </defs>
  <g id="Enmascarar_grupo_1079039" data-name="Enmascarar grupo 1079039" transform="translate(-1160.089 -8424.531)" clip-path="url(#clip-path)">
    <g id="Grupo_1102059" data-name="Grupo 1102059" transform="translate(766.175 8199.688)">
      <g id="Grupo_1102058" data-name="Grupo 1102058" transform="translate(428.393 224.843)">
        <path id="Trazado_895562" data-name="Trazado 895562" d="M564.412,288.812s-3.515-.122-3.954-2.026-1.342-5.858-.537-6.908.122,3.491,4.321,4.028,4.174-.488,6.664,0,5.614,1.709,6.957.415c1.342-1.318,4.809-5.614,6.42-4.491s.244,6.64-.9,7.982-2,3.906-7.933,3.125a81.432,81.432,0,0,1-10.96-2.246Z" transform="translate(-556.656 -97.052)" fill="#efb36b"/>
        <g id="Grupo_1102057" data-name="Grupo 1102057">
          <path id="Trazado_895563" data-name="Trazado 895563" d="M583.567,247.27s1.782,5.175,1.709,7.323-.439,4.833-.9,4.76-1.343-2.246-1.343-3.71.586-8.592.586-8.592" transform="translate(-522.889 -144.021)" fill="#ffed00"/>
          <path id="Trazado_895564" data-name="Trazado 895564" d="M648.37,338.955c-4.613-.366-9.227-.683-13.963-1.025-.61,2.392-2.319,3.955-4.174,5.419a6.3,6.3,0,0,0-2.343,4.638,67.926,67.926,0,0,1-1.391,8.885c-.366,1.587-1.391,3-2.075,4.516-.293.635-.464,1.318-.684,1.953.171.122.342.244.488.366a7.828,7.828,0,0,0,1.9-1.343A22.043,22.043,0,0,0,628.3,359a21.1,21.1,0,0,1,5.956-7.323,8.671,8.671,0,0,0,1.611-2.173l.366.073c-.1.61-.244,1.221-.317,1.831a5.837,5.837,0,0,0-.1,1.587A45.912,45.912,0,0,0,641,366.881c1.953,3.662,1.318,7.592-.171,11.3-1.245,3.125-2.27,6.4-4.37,9.105a2.521,2.521,0,0,0-.39,1.636c1.587-1.514,3.222-3,4.76-4.589a6.74,6.74,0,0,0,1.147-2.05c1.22-2.734,2.27-5.566,3.662-8.226,1.074-2.051,1.123-4.247,1.587-6.4,1.831-8.348,1.367-16.77.854-25.216a5.907,5.907,0,0,1,.049-1.611c.073-.342.464-.879.659-.854a1.452,1.452,0,0,1,1.05.683,3.5,3.5,0,0,1,.22.659,7.819,7.819,0,0,0,.073-1.318,2.586,2.586,0,0,1-.659-.439A2.16,2.16,0,0,0,648.37,338.955Z" transform="translate(-464.224 -13.059)" fill="#efb36b"/>
          <path id="Trazado_895565" data-name="Trazado 895565" d="M665.353,626.868c-2.831.146-5.541.293-8.4.439-.049.757-.122,1.562-.171,2.392a28.052,28.052,0,0,0,1.025,9.74c1.636,6.029,3.027,12.132,2.636,18.5a174.811,174.811,0,0,1-2.417,21.652,144.085,144.085,0,0,0-2.587,32.393c.171,4.077.659,8.153,1.05,12.23a5.814,5.814,0,0,0,.708,1.831c.659,1.44,1.416,2.831,2.051,4.272.757,1.758,1.342,3.564,2.173,5.3,1.489,3.149,1.44,6.4.9,9.691a54.694,54.694,0,0,1-2.49,8.885c-1.9,5.737-3.417,11.619-2.587,17.8a2.941,2.941,0,0,1-4.1,3.1,1.854,1.854,0,0,1-.757-1.391c-.073-1.465.1-2.929,0-4.37-.2-2.612-.586-5.2-.83-7.811-.122-1.2-.171-2.417-.244-3.906-.806,1.025-1.44,1.928-2.124,2.758a19.292,19.292,0,0,0-4.589,9.74c-.659,4.907-3.466,7.592-7.836,9.422-7.714,3.2-15.379,2.758-23.19.61-3.54-.976-5.663-6.4-2.075-9.227a11.244,11.244,0,0,1,6.762-2.539c1.22-.049,2.539.122,3.076-1.465.1-.269.464-.488.708-.684,3.808-2.856,5.761-6.932,7.274-11.278,1.318-3.783,1.464-7.762,1.806-11.693.439-5.151.928-10.326,1.538-15.452.439-3.71,1.44-7.372,1.66-11.082.708-11.473-1.416-22.6-4.882-33.491a249.176,249.176,0,0,1-7.738-29.1,158.634,158.634,0,0,1-2.636-22.482,51.082,51.082,0,0,0-3.076-15.159,199.368,199.368,0,0,1-7.567-28.389c-1.9-9.447-4.369-18.772-6.517-28.145a101.831,101.831,0,0,1-3.1-23.8c.049-4.37.61-8.739,1-13.108.22-2.392.561-4.785.805-7.177a1.126,1.126,0,0,0-.22-.781c-2.929-3.54-3.222-7.763-3.1-12.083a37.19,37.19,0,0,1,3.515-14.378,3.63,3.63,0,0,0,.415-1.538c-.268-4.882,1.343-9.374,2.832-13.865.708-2.148,1.806-4.2,2.783-6.444a3.142,3.142,0,0,0-.586.366c-3.32,2.9-7.348,3.808-11.571,4.54a14.082,14.082,0,0,1-8.739-1.1,12.384,12.384,0,0,1-7.518-11.229c-.122-1.88-.268-3.759-.561-5.614a10.181,10.181,0,0,0-1-2.807c-1.538-3.1-3.173-6.151-4.687-9.276a33.666,33.666,0,0,1-2.734-23.263,4.1,4.1,0,0,0-.2-2.539,5.3,5.3,0,0,1-.049-4.467c.513-1.22.83-2.368-.024-3.637a3.042,3.042,0,0,1-.269-1.831,18.715,18.715,0,0,1,2.343-7.567c-1.88-.342-3.735-.781-5.639-1-2.636-.293-4.54-2-3.93-4.931a6.971,6.971,0,0,0,.024-1.44,23.156,23.156,0,0,0,1.44,3.027,3.221,3.221,0,0,0,1.562,1.465c4.125.952,8.2,2.417,12.547,2.075,1.757-.146,3.539-.22,5.029-1.269a4.492,4.492,0,0,0,1.294-1.562,23.1,23.1,0,0,1,1.391-2.929,4.708,4.708,0,0,0,.659-3.539c-1.758,1.367-3.515,2.685-5.224,4.052a4.482,4.482,0,0,1-4.662.928,18.367,18.367,0,0,0-7.543-.928,6.773,6.773,0,0,1-5.785-2.465,4.965,4.965,0,0,1-1.318-3.125c.1-1.489-.513-2.661-.781-3.979a28.886,28.886,0,0,1-.073-5.444c0-.342.073-.757-.1-1a7.693,7.693,0,0,1-1.074-8.007,15.536,15.536,0,0,0,.952-2.71,3.275,3.275,0,0,1,2.807-2.49c2.807-.635,5.615-1.245,8.373-2.026,3.369-.952,5.761-3.076,5.224-8.178-.317-2.954-.659-5.883-.952-8.837a11.222,11.222,0,0,1,.879-6.615,5.462,5.462,0,0,1,3.271-2.929c1.782-.561,3.1,0,3.466,1.806a70.058,70.058,0,0,1,1.245,8.422,26.015,26.015,0,0,0,3.222,11.351c.561.976,1,2.026,1.562,3a15.268,15.268,0,0,1,1.123,12.132,2.243,2.243,0,0,0,.269,1.953c1.733,2.978,1.538,6.176.83,9.374a2.7,2.7,0,0,0,.513,2.27c1.147,1.733,2.1,3.588,2.9,4.98,1.489-2.881,3.125-6.225,4.907-9.5.952-1.758.757-3.662.952-5.492a13.548,13.548,0,0,1,4.2-8.47c3.979-3.759,8.3-7.006,13.792-8.251,1.929-.439,2-.659,1.709-2.71-.39-2.587.024-3.564,2.49-4.443,3.125-1.123,6.347-2.026,9.52-3.027.366-.122.708-.22,1.147-.366a7.964,7.964,0,0,1-.268-7.714,6.3,6.3,0,0,1,6.64-3.759c-.61-1.758-1.123-3.3-2.856-4.223a34.325,34.325,0,0,1-6.005-3.832,25.829,25.829,0,0,1-6.176-7.494c-1.025-1.928-2.1-3.857-3.32-6.029a27.11,27.11,0,0,1,.22,3.2,5.474,5.474,0,0,1-.586,2.246,1.285,1.285,0,0,1-2.392,0,8.618,8.618,0,0,1-.928-3.442,34.525,34.525,0,0,1,.61-6.127c1.2,2.978-.22,6.249,1.294,9.154,1.367-3.442-.317-6.64-.659-9.984-2.246.781-3.491.073-3.808-2.27a7.976,7.976,0,0,0-2.563-4.98c-1.929-1.782-2.148-4.272-2.417-6.664a27.436,27.436,0,0,1-.073-4.247c.122-2.465.708-3.1,3.32-3.613a11.955,11.955,0,0,1-3.613-6.64c-.781-3.93-1.88-7.836-2.075-11.79a21.463,21.463,0,0,1,8.4-18.5,31.669,31.669,0,0,0,5.639-5.956c2.685-3.613,6.3-5.761,10.179-7.665.635-.317,1.318-.537,1.928-.83.293-.146.757-.439.732-.659a2.6,2.6,0,0,0-.561-1.05c-.073-.122-.293-.171-.439-.22-2.563-.61-3.955-2.49-5.077-4.662-1.318-2.588-2.807-5.077-2.685-8.2.268-7.348,7.079-15.427,14.28-16.6a9.851,9.851,0,0,1,6.322,1.05,1.621,1.621,0,0,0,2.051-.073,2.522,2.522,0,0,1,1.391-.488c5.614-.22,11.156.171,16.013,3.32a28.332,28.332,0,0,1,5.248,4.589c1.44,1.538,1.245,2.685-.1,4.345.2.146.366.342.561.464,3.954,2.295,5.175,6.078,5.395,10.277a72.6,72.6,0,0,1-.146,7.64,5.45,5.45,0,0,1-2.734,4.54,34.426,34.426,0,0,1-4.736,2.1,13.777,13.777,0,0,1-1.538.391c.561.268.928.488,1.294.635a9.509,9.509,0,0,1,4.052,3.027c2.783,3.222,5.566,6.444,8.495,9.544a15.891,15.891,0,0,1,4.345,10.643c.024.464.024.928.073,1.367.342,2.9.854,5.834-.928,8.666,2.832.366,3.833,2.295,4.467,4.467.684,2.368,1.269,4.736,1.807,7.128a4.364,4.364,0,0,1-1.831,4.833,16.851,16.851,0,0,0-2.441,2.319,2.484,2.484,0,0,0-.342,1.245c-.171,1.782.22,3.857-.561,5.3-1.489,2.734-.537,5.2-.122,7.787a10.133,10.133,0,0,1,.2,3.2,2.363,2.363,0,0,1-1.318,1.684,3.681,3.681,0,0,1-2.2-.757c-.39-.22-.586-.781-.854-1.123a44.124,44.124,0,0,1-2.27,5.81,25.569,25.569,0,0,1-3.857,5.151,3.422,3.422,0,0,0-1.025,3.222c.073.488.146.976.22,1.489,1.294.1,2.588.244,3.881.293,2.734.122,4.1,1.928,4.833,4.174a20.086,20.086,0,0,1,.439,9.178c-.073.439.073,1.172.366,1.343,5.151,3.247,10.35,6.444,15.525,9.667,5.2,3.247,10.594,6.249,15.5,9.886,4.321,3.2,7.616,7.372,7.3,13.353a3.214,3.214,0,0,0,.854,2.075,14.487,14.487,0,0,1,4,8.031c.488,3.027,1.44,6,2.2,8.983,2.246,9.105,4.443,18.21,6.786,27.291a23.684,23.684,0,0,0,2.49,5.566,51.5,51.5,0,0,1,6.3,23.361c.171,3.417.317,6.859.781,10.252a19.88,19.88,0,0,0,1.782,5.419,20.584,20.584,0,0,1,1.562,5.1,18.444,18.444,0,0,0,2,5.737,49.044,49.044,0,0,1,6.005,16.746c1.245,8.666,0,16.917-4.467,24.508a23.826,23.826,0,0,1-3.979,4.614c-.586.586-.757.928-.366,1.635,1.269,2.368.879,3.393-1.562,4.516a5.051,5.051,0,0,0-1.147.9,1.812,1.812,0,0,1-2.685.024,2.277,2.277,0,0,0-1.123-.635c-4.614-.366-9.227-.683-13.963-1.025-.61,2.392-2.319,3.954-4.174,5.419a6.3,6.3,0,0,0-2.344,4.638,67.938,67.938,0,0,1-1.391,8.885c-.366,1.587-1.391,3-2.075,4.516a20.636,20.636,0,0,0-.684,1.953c.171.122.342.244.488.366a7.831,7.831,0,0,0,1.9-1.342,22.027,22.027,0,0,0,2.172-3.369,21.1,21.1,0,0,1,5.956-7.323,8.675,8.675,0,0,0,1.611-2.173l.366.073c-.1.61-.244,1.221-.317,1.831a5.832,5.832,0,0,0-.1,1.587,45.909,45.909,0,0,0,5.175,13.89c1.953,3.662,1.318,7.592-.171,11.3-1.245,3.125-2.27,6.4-4.369,9.105a2.522,2.522,0,0,0-.391,1.636c1.587-1.513,3.222-3,4.76-4.589a6.74,6.74,0,0,0,1.147-2.05c1.22-2.734,2.27-5.566,3.661-8.226,1.074-2.051,1.123-4.247,1.587-6.4,1.831-8.348,1.367-16.794.854-25.216a5.911,5.911,0,0,1,.049-1.611c.073-.342.464-.879.659-.854a1.451,1.451,0,0,1,1.05.684,6.478,6.478,0,0,1,.415,1.953,94.757,94.757,0,0,1-1.489,25.314,28.825,28.825,0,0,1-3.222,9.227c-.928,1.636-1.465,3.466-2.368,5.1a22.089,22.089,0,0,1-2.661,3.857,31.148,31.148,0,0,1-3.442,3.271,5.475,5.475,0,0,1-1.587.684c-.22-.635-.732-1.343-.586-1.88a16.223,16.223,0,0,1,1.367-3.051c.146-.317.342-.635.561-1.05-1.245.708-2.343,1.343-3.442,1.929a4.06,4.06,0,0,1-1.294.439c-.781.122-1.782.561-2.27-.415-.464-.928.317-1.562.927-2.124.635-.586,1.318-1.123,2.2-1.855a6.324,6.324,0,0,1-1.172-.1c-.561-.2-1.1-.439-1.635-.659a7.614,7.614,0,0,1,.854-1.66c.513-.61,1.245-1,1.733-1.611a38.943,38.943,0,0,0,6.151-10.985,1.569,1.569,0,0,0-.1-1.05,35.517,35.517,0,0,1-3.857-13.255,6.526,6.526,0,0,0-1.1.952c-1.489,1.953-2.929,3.93-4.394,5.907a50.752,50.752,0,0,1-3.1,4.052,2.118,2.118,0,0,1-2.929.562,2.507,2.507,0,0,1-.342-3.32c2.685-4.1,3.271-8.69,3.149-13.426a7.548,7.548,0,0,1,2.587-5.858,38.177,38.177,0,0,0,3.2-3.662,1.188,1.188,0,0,0-.024-1.147c-2.807-2.075-3.369-5.151-3.369-8.275a3.347,3.347,0,0,0-1.953-3.344,11.711,11.711,0,0,1-5.956-9.74,3.051,3.051,0,0,0-.073-.464c-1.806.684-1.806.976-1.489,2.661a62.734,62.734,0,0,1,1.221,9.032c.244,6.347.464,12.693.244,19.04a167.227,167.227,0,0,1-3.686,28.9c-1.294,6.078-2.27,12.23-3.271,18.357-1.2,7.323-2.417,14.671-3.393,22.018-.9,6.908-2.124,13.816-1.855,20.822.146,3.954.513,7.933.732,11.888.244,4.711.537,9.422.659,14.158.317,10.912.635,21.8.781,32.71.073,4.638-.439,9.276-.366,13.89.1,5.517.513,11.009.927,16.526a45.68,45.68,0,0,0,1.074,7.543c.586,2.319,1.88,4.467,2.49,6.786,1.709,6.493,3.344,12.986,4.76,19.528.684,3.173.781,6.469,1.2,9.691.122.9.391,1.782.586,2.685.39,1.733,1.1,3.173,2.978,3.808a4.9,4.9,0,0,1,2,1.465,19.489,19.489,0,0,1,5.029,9.642,5.311,5.311,0,0,1-3.661,6.3,18.586,18.586,0,0,1-5.029.879,103.4,103.4,0,0,1-11.009-.171,19.982,19.982,0,0,1-5.712-1.709,7.717,7.717,0,0,1-4.784-5.712c-.317-1.269-1-2.466-1.416-3.71a21.236,21.236,0,0,1-.513-2.539c-.171-.708-.146-1.611-.586-2.1a12.469,12.469,0,0,1-2.954-8.544c-.049-3.076-.049-6.176-.049-9.252,0-1.635.049-3.247.049-4.882,0-5.273.147-10.545-.1-15.794a38.678,38.678,0,0,0-1.538-7.543c-2.636-10.4-6.957-20.261-10.252-30.44-2.026-6.249-4.223-12.474-5.956-18.82-.976-3.637-1-7.518-1.757-11.229-1.343-6.615-.659-13.352-1.538-19.968-.586-4.369-1.684-8.666-2.563-12.986A15.482,15.482,0,0,0,665.353,626.868Zm13.108-343.5c-1.489,1.025-3,2.051-4.638,3.149.024.073.122.439.22.806,1.44-.024,2.661-.268,3.247-1.758a11.073,11.073,0,0,1,1.2-1.88c-.122.928-.22,1.88-.391,3.2.928-.366,2-.439,2.246-.928a41.71,41.71,0,0,0,1.928-5.126,3.3,3.3,0,0,0,.1-1.1c.024-1.025-.073-2.05.024-3.076.22-2.05,1-4,.464-6.176a32.735,32.735,0,0,1-.854-6.151,8.379,8.379,0,0,0-1.831-5.077c-1.245-1.513-2.588-2.929-3.906-4.394-1.514-1.684-3.027-3.344-4.565-5.029.024-.024.049-.073.073-.1.366.244.732.513,1.123.757.073-.1.147-.171.22-.269a52.347,52.347,0,0,0-4.321-3.759,33.031,33.031,0,0,1-5.1-3.93c-4.247-4.418-9.276-7.006-15.671-6.4-3.54.342-7.055.317-10.57,1.367a35.7,35.7,0,0,0-9.959,4.516,34.056,34.056,0,0,0-3.466,3.051c.073.122.171.22.244.342,5.761-3.247,11.522-5.81,17.575-.806a.622.622,0,0,1-.586,0,16.537,16.537,0,0,0-10.692-.049,33.362,33.362,0,0,0-12.205,7.152,30.859,30.859,0,0,0-8.2,13.67,19.86,19.86,0,0,0-.342,7.909c.879-6.786,2.954-12.864,8.495-17.307,5.273-4.247,11.131-7.079,17.991-7.616-2.9,1.513-5.883,2.9-8.812,4.369-7.177,3.564-13.06,8.324-15.476,16.428a26.7,26.7,0,0,0-1.318,9.984c.366,4.223,2.807,7.177,6.054,9.618.317.317.659.61.977.928,1.05,2.368,3.027,1.538,4.882,1.391.2-1.709,1.709-1.806,2.929-2.124,4-1.05,8.08-1,12.181-.928,2,.049,4.052-.342,5.614,1.343.366-.268.659-.464.928-.659-.073-.635-.146-1.221-.22-1.806.1-.024.171-.073.268-.1.366.537.708,1.05,1.1,1.611a12.123,12.123,0,0,1,7.641.586,3.01,3.01,0,0,1,2.49-2.295c2.978-.732,5.98-1.465,8.983-2.075a36.057,36.057,0,0,1,3.954-.366c-.976-1.831-2.246-3.2-4.443-2.856a8.8,8.8,0,0,0-2.783.976c-1.1.586-2.051,1.416-3.125,2.1a6.877,6.877,0,0,1-5.029.9c-.342-.073-.61-.561-.928-.854.317-.22.659-.586.976-.61a6.693,6.693,0,0,0,4.077-1.953c3.417-2.783,8.787-4.052,12.6,1.147a.988.988,0,0,0,1.66.22,4.619,4.619,0,0,0,1.2-1.709,5.977,5.977,0,0,0-3.881-7.982,25.139,25.139,0,0,0-4.662-.781c-5.785-.439-11.131-1.953-15.549-5.981-4.443-4.028-7.152-8.812-6.713-14.939a18.252,18.252,0,0,1,1.513-4.931c.171-.415.83-.659,1.318-1.05a22.752,22.752,0,0,0-1.733,3.881,11.982,11.982,0,0,0,.757,7.714,21.512,21.512,0,0,0,15.989,12.5c1.953.415,3.979.391,5.932.806a23,23,0,0,1,5.907,1.782c2.71,1.416,3.686,4.077,3.271,7.03-.342,2.514-1.538,4.492-4.15,4.467.9.391,2.05.928,3.539,1.587a16.743,16.743,0,0,0,2.1-2c2.246-2.929,2.295-6.273,1.465-9.667-1.465-6.029-5.614-9.276-11.424-10.838a66.26,66.26,0,0,1-8.666-2.758c-5.663-2.417-7.787-9.032-4.589-13.792a6.773,6.773,0,0,1-.415,1.367,7.673,7.673,0,0,0,1.391,8.617A10.421,10.421,0,0,0,659.4,260c2.758.781,5.541,1.538,8.3,2.246C678.632,265.056,682.416,276.578,678.461,283.364Zm-89.342,105.38a1.853,1.853,0,0,0,.024.366A11.788,11.788,0,0,1,578.72,402.8a8.87,8.87,0,0,1-6.786-1.782c-.366,2.173-1.074,4.125-.928,6.005a12.292,12.292,0,0,1-.61,4.736,4.7,4.7,0,0,0-.171,2.88,9.406,9.406,0,0,1,.635,4.54c-.83,6.933.708,13.426,3.711,19.65,1.806,3.71,3.613,7.421,5.37,11.156a5.677,5.677,0,0,1,.415,1.928c.1,1,.024,2.051.146,3.051.146,1.245.464,2.466.635,3.686.439,3.2,1.66,6.005,4.54,7.689a28.654,28.654,0,0,0,6.127,2.734,5.815,5.815,0,0,0,3.466-.488c1.367-.537,2.514-1.636,3.881-2.148,2.343-.854,4.15-2.1,4.687-4.687a1.73,1.73,0,0,1,.268-.513c.049,0,.073.024.122.024-.146.781-.293,1.538-.513,2.563a33.129,33.129,0,0,0,5.932-6.249,6.521,6.521,0,0,0,1.391-5c-.244-2.392-.366-4.833.732-7.03,1.733-3.417,1.416-6.42-.293-9.911-4.125-8.4-4.077-17.356-2.344-26.339,1.27-6.615,4.125-12.669,7.372-18.527.83-1.513,1.636-2.9.366-4.516a1.479,1.479,0,0,1-.146-.464,9.21,9.21,0,0,1,.757-6.688c1.074-2.1,2.2-4.2,4.2-5.639.293-.22,1.074-.269,1.2-.1a1.582,1.582,0,0,1,.146,1.318,7.733,7.733,0,0,1-1.416,1.9,2.491,2.491,0,0,0-.317,3.2c.659,1.221.366,1.953-.976,2.295a9.626,9.626,0,0,1-1.245.2,20.463,20.463,0,0,0,.635,2.734,19.815,19.815,0,0,0,1.318,2.295,3.956,3.956,0,0,1-.1,4.174c-.659,1.05-1.513,1.977-2.246,3a3.428,3.428,0,0,0-.635,1.391c-.122.806-.342,1.318-1.245,1.416-.293.024-.659.439-.781.757-1.1,3.027-2.344,5.981-3.149,9.081-1.367,5.37-2.148,10.838-.488,16.306,1.172,3.857,2.49,7.689,3.759,11.522a14.27,14.27,0,0,1-.61,11.522,14.334,14.334,0,0,0-1,4.833c-.171,1.66.1,3.369-.2,5a40.12,40.12,0,0,1-5,12.742,46.062,46.062,0,0,0-4.516,12.01,1.686,1.686,0,0,0-.049.976c.659,1.391.049,2.612-.439,3.832-.635,1.636-1.342,3.222-2,4.858a31.123,31.123,0,0,0-2.051,17.429c.391,2.173,1.025,4.516,3.149,5.59a92.785,92.785,0,0,0,11.058,4.882,58.381,58.381,0,0,0,30.635,2.1c5.395-1.025,10.618-1.318,15.867.708a14.466,14.466,0,0,0,9.471.366c4.98-1.489,9.349-4.15,13.621-7.006a73.66,73.66,0,0,1,7.128-4.589c1.928-1,4.1-2.051,6.347-1.465,4.394,1.172,8.348,0,12.181-1.928,2.783-1.391,4.272-3.54,3.71-6.811q-1.1-6.408-2.148-12.816a1.009,1.009,0,0,0-.171-.268c-.317.146-.586.268-.83.366-.439-1.294-.854-2.514-1.245-3.71-.879-2.636-1.562-5.395-2.685-7.933-2.2-4.955-2.344-10.106-1.9-15.354.268-3.149.537-6.3.732-9.471.244-3.832.317-7.665.586-11.5.171-2.295.635-4.638-.977-6.615a5.063,5.063,0,0,1-.976-4.931c.22-.806.415-1.611.708-2.392a38.847,38.847,0,0,0,.61-24.02c-1.464-5.077-3.3-10.057-4.882-15.086a16.694,16.694,0,0,1-.635-3.637c-.024-.268.561-.586.879-.879a7.686,7.686,0,0,1,.537.806c.146.244.22.537.366.806,3.344,5.639,5.078,11.863,6.518,18.186,1.245,5.541,2,11.131.854,16.77-.659,3.344-1.684,6.615-2.636,9.886a4.925,4.925,0,0,0,.244,3.979,10.018,10.018,0,0,1,1.025,5.956,65.167,65.167,0,0,0-.39,13.621,54.647,54.647,0,0,1,.22,6c0,2.636-.317,5.273-.122,7.885a23.883,23.883,0,0,0,1.391,6.542c1.465,3.857,3.247,7.592,4.906,11.375a66.677,66.677,0,0,1,3.027,7.1c.952,3.173.928,6.566,2.075,9.74.537,1.465.342,3.222.366,4.858.073,3.735,1.318,6.859,4.54,8.983.977.635,2.075,1.1,3.027,1.758.879.61,2.026.1,2.807.854.049.049.171.024.244,0,1.977-.659,3.661.366,5.443.9,1.464.439,2.929.9,4.418,1.342a25.691,25.691,0,0,1,3.906,1.123c2.539,1.269,2.9,1.294,4.882-.708a9.8,9.8,0,0,0,.83-.928c5.566-7.274,7.274-15.525,6.152-24.459a42.824,42.824,0,0,0-4.955-14.744,21.041,21.041,0,0,1-2.221-6.737,10.021,10.021,0,0,0-1.343-3.686c-1.391-2.246-2.734-4.516-3.076-7.177-.293-2.246-.439-4.491-.537-6.737-.244-5.37-.317-10.765-1.562-16.062,0-.049-.073-.073-.146-.122-.049.317-.1.635-.146.854-.513-1.123-.928-2.295-1.538-3.369-.61-1.1-1.66-2-2.075-3.149a137.376,137.376,0,0,1-4.516-13.645c-1.928-8.055-3.393-16.233-5.077-24.362-.61-2.929-1.465-5.834-1.953-8.788a8.093,8.093,0,0,0-3.466-5.834,5.289,5.289,0,0,1-2.539-4.858c.146-4.565-2.173-7.958-5.517-10.594-3.369-2.661-7.006-4.98-10.57-7.372-5.663-3.784-11.351-7.494-17.038-11.229-.928-.61-1.9-1.1-2.929-1.684a9.9,9.9,0,0,1-.635,1.465,29.443,29.443,0,0,1-2.148,3.027,1.017,1.017,0,0,1-1.709-.073c.561-1.343,1.172-2.612,1.635-3.954a23.038,23.038,0,0,0,1.2-11.2,2.275,2.275,0,0,0-1.684-2.05c-.854,1.684-1.684,3.247-2.368,4.565a6.715,6.715,0,0,0-1.245.342c-2.344,1.2-4.711,2.343-6.982,3.613a29.348,29.348,0,0,1-14.671,3.515,38.94,38.94,0,0,0-5.859.244c-4.247.708-7.787-.928-11.18-3.076a1.35,1.35,0,0,1,.244-2.49,23.288,23.288,0,0,1,2.344-.854c-.586-.342-.928-.708-1.294-.708-3.515-.171-5.761,3.417-4.174,6.762a15.151,15.151,0,0,0,1.66,2.343,1.76,1.76,0,0,1-.708,2.954c-.171.073-.342.2-.513.268.073.488.146.879.244,1.465-.391-.439-.61-.854-.952-1.025-.537-.268-1.245-.659-1.709-.513-3.1,1-6.127,2.148-9.227,3.173-2.319.805-2.343.757-1.9,3.2.39,2.173-.293,3.344-2.417,3.954-1.269.366-2.587.635-3.857,1.05a8.1,8.1,0,0,0-4.394,3.125c-1.147,1.684-2.514,3.222-3.784,4.809a1.134,1.134,0,0,1-.171-.171c.513-1.245,1.05-2.49,1.563-3.71a1.5,1.5,0,0,1-.342-.171c-2.734,2.514-5,5.3-5.516,9.2a23.4,23.4,0,0,1-1.05,5.883c-1.733,4.321-3.735,8.568-5.81,12.742-.732,1.44-.83,2.465.2,3.784,3.637,4.736,4.54,9.862,1.709,15.354-.049.073-.049.171-.1.244-1.318,2.563-.854,4.711,1.123,6.835a29.229,29.229,0,0,1,7.274,13.4,75.823,75.823,0,0,1,1.831,9.325c.708,6.4-1.025,11.961-5.956,16.4a3.108,3.108,0,0,1-2.9.9,7.109,7.109,0,0,0,1.2-1.221,22.269,22.269,0,0,1,1.489-2.954c3.613-4.37,4.443-9.422,3.735-14.842-1.025-7.836-3.247-15.183-8.739-21.188a5.167,5.167,0,0,1-.9-5.541c.464-1.294.977-2.563,1.514-3.857,2-4.907.1-8.959-2.685-12.913-.22.244-.342.391-.488.537-.2-.879-.39-1.684-.561-2.466-.1-.049-.22-.1-.317-.146-.879,2.368-2.636,2-4.418,1.611,2-1.025,3.2-2.661,2.856-4.907a50.62,50.62,0,0,0-1.562-5.858h-.61c-.2.757-.415,1.489-.61,2.246a7.6,7.6,0,0,0-.2,1.074v-2.124a3.271,3.271,0,0,0-1.269,3.247A8.771,8.771,0,0,0,589.119,388.744ZM710.756,509.5c-.561.244-.757.342-.952.415-4.052,1.782-8.177,2.9-12.6,1.343a2.082,2.082,0,0,0-1.221.024,20.08,20.08,0,0,0-7.689,3.784,59.272,59.272,0,0,1-10.765,7.055c-6.225,3.393-12.6,4.2-19.26,1.416a15.945,15.945,0,0,0-9.837-.464,63.186,63.186,0,0,1-29.293-.1c-3.735-.928-7.372-2-10.521-4.394a28.071,28.071,0,0,0-5.151-2.514v1.1c-.122,3.051-.146,6.1-.366,9.13a87.456,87.456,0,0,0,1.27,24.337c1.684,8.2,3.686,16.355,5.492,24.533,1.733,7.86,3.271,15.769,5.151,23.58,1.66,6.933,3.808,13.743,5.517,20.651.439,1.733.977,2.49,2.832,2.685,2.685.269,5.3,1.294,7.982,1.465,5.663.342,11.351.366,17.039.415,4.272.049,8.544.122,12.791-.147,4.443-.293,8.861-1,13.3-1.465,7.885-.83,15.793-1.367,23.58-3,.732-.146.952-.415.977-1.123.513-11.326,2.734-22.458,4.418-33.638,1.025-6.811,2.417-13.548,3.662-20.309.464-2.539.928-5.078,1.416-7.616.317-1.66.805-3.32,1.025-5,.317-2.49.366-5,.684-7.494,1.1-9.007,2.221-18.015,1.562-27.1C711.635,514.555,711.123,512.114,710.756,509.5ZM621.585,623.817c.146,1.221.317,2.344.415,3.442.366,4.54.561,9.081,1.074,13.621a186.365,186.365,0,0,0,5.615,28.56c2.319,8.519,5.663,16.745,7.03,25.533.732,4.662,1.782,9.276,1.538,14.036-.122,2.343-.391,4.662-.635,6.981-.244,2.368-.513,4.736-.83,7.079a37.561,37.561,0,0,1-1.171,6.884c-.757,2.295,1.074,4.662-.562,6.786-.049.049,0,.171-.024.244-.171,2.294-.2,4.589-.513,6.884-.513,3.71-.732,7.47-1.929,11.107a28.048,28.048,0,0,1-5.932,10.716c.244.171.488.317.708.488a6.927,6.927,0,0,0,7.543.244c2.856-1.684,4.907-4.223,7.226-6.518a45.384,45.384,0,0,0,8.519-12.279,26.683,26.683,0,0,1,7.982-9.667,1.984,1.984,0,0,0,.854-2.71c-1.074-2.441-2.343-4.784-3.442-7.2a29.932,29.932,0,0,1-2.148-5.395c-.879-3.784-.561-7.665-.61-11.546a142.073,142.073,0,0,1,1.733-21.579c.488-3.3.952-6.615,1.294-9.935.513-5.1.83-10.228,1.416-15.33a59.909,59.909,0,0,0-.537-17.6c-.659-3.515-1.782-6.908-2.441-10.423-.561-3-.732-6.078-1.074-9.251a2.1,2.1,0,0,0-.464-.049q-7.945-.366-15.891-.757a46.6,46.6,0,0,1-5.859-.415C627.541,625.281,624.636,624.5,621.585,623.817Zm48.284,2.344a23.345,23.345,0,0,1,1.025,3.832c.342,3.027.635,6.078.757,9.105.244,6.688.2,13.377.561,20.041a67.892,67.892,0,0,0,3.662,19.724c2.783,7.641,5.736,15.208,8.495,22.848,2.392,6.615,4.76,13.255,6.933,19.943,1.147,3.515,1.977,7.152,1.367,10.936a6.747,6.747,0,0,0,.025,1.855c.244,2.172.708,4.37.757,6.542.073,3.857-.244,7.714-.171,11.571a19.447,19.447,0,0,0,.977,5.1c.391,1.343,1.318,2.539,1.684,3.881a2.791,2.791,0,0,0,1.245,1.733c1.611,1.05,3.2,2.124,4.833,3.1a12.2,12.2,0,0,0,12.083.732c-.1-.537-.171-1.025-.244-1.513-.659-3.515-1.587-6.981-1.953-10.521-.537-5.224-.9-10.423-2.856-15.4-1.587-4.052-2.685-8.324-3.979-12.5a63.832,63.832,0,0,1-2.734-16.184c-.22-5-.732-9.984-.879-14.988-.1-3.1.439-6.225.366-9.349-.171-7.982-.488-15.964-.83-23.922-.22-5.248-.586-10.521-.9-15.769-.342-5.492-.806-11.009-1.074-16.5-.146-2.783-.024-5.59-.024-8.666C689.3,624.525,679.56,624.6,669.869,626.16Zm4.321-338.012c.049.488.049.9.122,1.318.415,2.88-.2,3.832-2.929,4.76a49.3,49.3,0,0,1-13.157,2.173c-3.661.22-4.345-.488-4.858-4.1a1.475,1.475,0,0,0-.513-1c-2.173-1.147-4.418-1.758-6.835-.464.073.366.1.732.2,1.074a16.954,16.954,0,0,1,.659,6.64c-.1.708-.1,1.44-1.074,1.343-.2-2.856-.391-5.663-.561-8.47a4.355,4.355,0,0,0-.561-.049,4.664,4.664,0,0,0-.317,1.1c-.049.879.024,1.758,0,2.636a2.371,2.371,0,0,1-2.1,2.563c-5,.976-10.033,1.684-15.159,1.05a3.8,3.8,0,0,1-3.564-3c-.293-1.074-.537-2.172-.805-3.32-.928.049-1.782.122-2.465.171-.293,1.367-.586,2.588-.879,3.93,1.587.83,1.391,2.27,1,3.832-.488,1.88,0,2.368,1.831,1.855,1.05-.317,1.269.22,1.367,1,.22,1.88-.732,3.149-2.832,3.735a28.589,28.589,0,0,0,1.147,3.149c1.733,3.588,3.54,7.177,5.321,10.741,2.026,4.052,5.663,6.371,9.447,8.446,2.124,1.172,4.492,1.928,6.615,3.1a24.432,24.432,0,0,0,9.2,2.441c4.223.464,7.811-1.245,11.009-3.857,3.955-3.271,7.86-6.591,11.864-9.813a15.844,15.844,0,0,0,5.59-10.789c.488-3.759.439-7.567.586-11.351a8.431,8.431,0,0,0-.171-1.343c-.073,0-.146.024-.22.024-.1.2-.171.391-.268.61-.366-.952-.708-1.88-1.05-2.758-.513.683-1.025,1.391-1.709,2.319.708.464,1.44.952,2.124,1.416a2,2,0,0,1-2.978.073,2.219,2.219,0,0,1,.317-3.222,2.306,2.306,0,0,0,.464-3.32c-1.44-1.294-2.514-2.661-1.977-4.858A17.412,17.412,0,0,0,674.189,288.148Zm-10.4-75.77a4.038,4.038,0,0,1,2.636,2.563c1.367,3.2.659,6.151-1.294,8.812-1.367,1.855-2.954,3.515-4.418,5.273-.317.366-.561.806-.854,1.2a22.021,22.021,0,0,0,9.349-10.643,4.386,4.386,0,0,0-.781-4.833,25.4,25.4,0,0,0-16.233-8.788,5.383,5.383,0,0,0-3.247.391,2.245,2.245,0,0,1-2.587.1,7.713,7.713,0,0,0-7.323-.024c-6.151,2.9-9.374,7.909-10.448,14.427a6.722,6.722,0,0,0,.1,3.418,75.475,75.475,0,0,0,3.515,7.03,3.2,3.2,0,0,0,1.416,1.172c1.27.659,2.344,1.44,2.515,2.978.928.049,1.294-.317,1.684-1.123a7.334,7.334,0,0,1,2.344-3.1,18.039,18.039,0,0,1,11.815-2.856,63.9,63.9,0,0,1,6.713,1.611c.854-1.172,1.782-2.465,2.685-3.735a47.153,47.153,0,0,0,2.88-4.077c1.66-2.807,1.489-6.713-.268-8.739.415,3.759-.879,8.1-3.222,10.423a7.422,7.422,0,0,1-2,1.05c-.171-.635-.342-1.294-.488-1.928.073-.024.171-.049.244-.073.122.366.269.732.439,1.269A20.71,20.71,0,0,0,663.79,212.378ZM588.338,386.62c.9-3.076,1.953-6,1.66-9.154a6.163,6.163,0,0,0-1.562-4.125,2.071,2.071,0,0,1-.269-1.611,15.193,15.193,0,0,1,.757-2.246,11.352,11.352,0,0,0-.317-8.885c-.635-1.367-1.172-2.783-1.855-4.1a33.752,33.752,0,0,1-3.173-11.522c-.317-2.807-.854-5.614-1.44-8.373-.293-1.391-1.1-1.709-2.465-1.318a4.553,4.553,0,0,0-2.807,2.514,9.129,9.129,0,0,0-.684,5.639c.464,3.027,1.831,5.859,1.514,9.056-.2,2.026.171,4.077.024,6.127-.1,1.562-.22,3.247-1.538,4.443.317-1.562.635-3.076.952-4.614a7.486,7.486,0,0,1-3.857,3.369,28.266,28.266,0,0,1-3.735,1.05c-2.124.415-4.3.683-6.42,1.05a2.481,2.481,0,0,0-2.221,2.05c-.366,1.538-.952,3.027-1.465,4.54-1.074,3.149-.244,5.1,2.88,6.225,3.051,1.1,6.2,2,9.325,2.856a4.512,4.512,0,0,0,2.368-.317c2.148-.684,4.247-1.489,6.371-2.2.513-.171,1.1-.2,1.635-.317-1.318-.635-1.831-1.635-1.416-2.832a15.2,15.2,0,0,1,1.635-2.685c-2.075-.293-3.857.976-5.785,1.636-.732.244-1.343.854-2.075,1.123a1.493,1.493,0,0,1-1.269-.317c-.171-.2.024-.806.146-1.2.049-.2.268-.342.61-.781-2-.391-3.735-.732-5.566-1.1.415-.2.781-.366,1.245-.561-.049-1.172-.1-2.368-.171-3.564l.439-.073c.317,1.245.61,2.49.976,3.93H574.2c-.171.22-.317.391-.464.561.024.122.024.244.049.342a7.815,7.815,0,0,0,2.026-.22,15.32,15.32,0,0,1,8.641-.268,2.064,2.064,0,0,1,1.733,2.71,6.227,6.227,0,0,0,.1,3.539,4.3,4.3,0,0,1-.586,3.833c1.367,1.318,2.075,2.758,1.074,4.492A8.11,8.11,0,0,1,588.338,386.62Zm79.407-144.168c1.977-1.416,3.906-2.758,5.81-4.174a5.018,5.018,0,0,0,1.88-3.686,32.52,32.52,0,0,0-.22-10.2,7.507,7.507,0,0,0-4.369-5.688,22.177,22.177,0,0,1-10.057,12.693,5.8,5.8,0,0,0,6.542.635c1.855-1,3.588-2.27,5.346-3.442.537-.342,1.025-.732,1.538-1.1.122.1.22.2.342.293-.464.708-.9,1.44-1.416,2.1-2.246,2.807-4.882,5-8.666,5.053C665.572,237.5,666.647,239.937,667.745,242.452Zm-24.63,54.167c-.073-.976-.1-1.635-.171-2.295a36,36,0,0,0-.61-3.955,1.774,1.774,0,0,0-1.2-1,57.7,57.7,0,0,0-15.208.391,1.654,1.654,0,0,0-1.611,1.831,17.291,17.291,0,0,0,.22,2.978c.415,3.149.927,3.417,3.954,3.442,3.832.024,7.665-.366,11.473-.659A19.075,19.075,0,0,0,643.115,296.619Zm30.049-7.225c-.342-3.662-.171-4.272-3.955-3.906h-.244c-4,.561-8.007,1.025-11.985,1.733-2,.342-2.588,1.465-2.27,3.491.171,1.074.488,2.124.561,3.2.1,1.1.659,1.318,1.587,1.2,4.443-.635,8.91-1.2,13.352-1.977C672.847,292.664,673.115,292.1,673.164,289.393ZM561.193,377.661c.146,1.465.2,2.954.439,4.418a2.94,2.94,0,0,0,1,1.684,8.5,8.5,0,0,0,4.785,2c2.295.146,4.565.513,6.859.61a4.9,4.9,0,0,0,2.27-.683c1.1-.537,2.148-1.22,3.222-1.855a26.82,26.82,0,0,0,4-2.49c2.124-1.855,2.173-2.514,1.172-4.809-3.247,1.1-6.469,2.246-9.715,3.271a6.72,6.72,0,0,1-3.027.513C568.614,379.59,565.075,378.638,561.193,377.661Zm.415,7.079c.415,4.125,3,6.664,6.493,6.4a30.59,30.59,0,0,1,8.446.708,3.373,3.373,0,0,0,2.246-.342c2.587-1.66,5.2-3.173,6.737-6.176.781-1.538.854-2.612-.073-3.955a12.96,12.96,0,0,1-6.078,4.3,4.223,4.223,0,0,0-1.391.83,4.163,4.163,0,0,1-4.687,1.147,10.763,10.763,0,0,0-1.221-.244C568.59,386.766,564.806,387.523,561.608,384.74Zm108.456-53.776c.244-.024.757-.1,1.294-.171.073.146.122.293.2.439a23.326,23.326,0,0,1-5.932,3.588,63.9,63.9,0,0,1-6.493,2.856,47.376,47.376,0,0,1-6.835,1.928c-2.27.439-4.589.561-6.908.83,2.124.122,4.247.146,6.371.1.9-.025,1.807-.2,2.929-.342-2.831,1.977-5.932,1.538-8.934,1.733a7.794,7.794,0,0,0,1.44.366,27.5,27.5,0,0,0,10.277-.488c4.443-.952,8.861-2,12.84-4.321a1.663,1.663,0,0,0,1-1.513c.073-1.538.293-3.051.488-4.589.122-.83.317-1.66.464-2.514-.122-.049-.269-.1-.391-.146C671.26,329.524,670.625,330.281,670.064,330.964Zm-59.1-37.592.293.073c0,.537-.049,1.1,0,1.635.244,2.588.9,5.053,3,6.762a5.833,5.833,0,0,1,2.295,3.979,7.323,7.323,0,0,0,.684,2.368,1.37,1.37,0,0,0,1.147.537c.2,0,.513-.61.586-.952.146-1.074.2-2.148.293-3.222.171-1.758.342-3.54.513-5.3.073-.708.342-1.587-.562-1.806-.952-.244-1.2-.879-1.44-1.611-.317-.952-.659-1.88-1-2.832a6.509,6.509,0,0,0-2.807-3.54c-.83-.513-1.611-.513-1.977.391A20.839,20.839,0,0,0,610.966,293.372Zm70.961-6.42a4.736,4.736,0,0,0-.952,4.833c.073.293.366.732.586.757a1.062,1.062,0,0,0,.83-.537,8.324,8.324,0,0,0,.562-2.026c.293-2.2.464-4.394.854-6.566.122-.635.928-1.587,1.416-1.587a2.636,2.636,0,0,1,1.88,1.269,7.484,7.484,0,0,1,.073,6.42,1.161,1.161,0,0,1-1.025.342c-1.049-.366-1.025-1.245-.879-2.2a8.118,8.118,0,0,0-.073-1.538h-.586c-.2,1.635-.39,3.247-.561,4.516.757.952,1.342,1.66,1.9,2.343a11.17,11.17,0,0,1,1.367-1.1,3.552,3.552,0,0,0,1.88-4.028,78.267,78.267,0,0,0-2.71-8.4c-.366-1-1.342-1.025-1.88-.049-1.025,1.88-1.88,3.857-2.734,5.834A10.852,10.852,0,0,0,681.927,286.952Zm53.557,240.224c.122-1.562.2-3,.39-4.443.244-2.026-.049-2.539-2.026-3.076-1.245-.342-2.514-1.074-3.564.073.147,2.465.293,4.809.439,7.2C732.213,527,733.751,527.078,735.484,527.176ZM638.6,234.4c.146.2.317.415.464.61.977-.464,1.953-.9,2.929-1.367a37.538,37.538,0,0,1,4.3-1.953c3.491-1.074,6.933-.293,10.326.635a46.947,46.947,0,0,1,4.492,1.733,17.291,17.291,0,0,0-20.285-1.977A11.17,11.17,0,0,0,638.6,234.4Zm4.614-.146c8.251-1.025,15.379.757,21.408,6.3C662.375,234.4,648.509,230.124,643.212,234.25ZM724.89,572.8c2.026.488,3.515.439,4.589-1.1a6.92,6.92,0,0,0,.952-1.318c1.294-3.149,2.563-6.322,3.808-9.5.049-.122-.024-.268-.024-.537C731.6,564.865,729.626,569.674,724.89,572.8Zm9.984-7.787c-.171-.073-.317-.146-.488-.22-1.538,5.322-5.126,9.056-9.422,12.254,2.563-.122,4.516-1.513,6.493-2.734.61-.391.806-1.465,1.147-2.246a30.071,30.071,0,0,0,1.172-2.9C734.19,567.819,734.508,566.4,734.874,565.012Zm-10.252-46.038c-.122,4.223,1.464,7.225,4.028,7.616q-.183-3.442-.366-6.811C727.038,519.511,725.866,519.267,724.621,518.974Zm12.791,8.251c1.88.464,1.9.464,2.417-1.147.366-1.147.586-2.343.952-3.491a1.078,1.078,0,0,0-.854-1.513c-1.245-.293-2.539-.415-4.1-.659C737.681,522.538,737.388,524.954,737.412,527.224ZM683.368,300.89c1.05-.2,1.465-.659,1.416-1.66-.049-1.733-.513-3.588.927-5.126a1.819,1.819,0,0,0-.781.268,4.061,4.061,0,0,0-.561.342c-.146-.806-.268-1.587-.39-2.368-.9.659-1.587,1.172-2.392,1.733C682.147,296.179,682.758,298.523,683.368,300.89Zm-98.692,72.475a4.456,4.456,0,0,0-.781-1.44c-.537-.464-1.88.342-2.417,1.318-.561,1.025-.464,2.221.22,2.612a1.471,1.471,0,0,0,.708.2C583.163,376.05,584.676,374.415,584.676,373.365Zm94.591-81.14c.293-1.611.561-3.149.854-4.882-.9.61-2.221-.366-2.685,1.074C676.826,290.3,678.315,291.1,679.267,292.225Zm63.223,231.8c-.366,1.22-.732,2.392-1.074,3.564,2.514.659,2.661.561,3.32-2.075C744.028,525.052,743.3,524.564,742.49,524.027ZM683.9,304.918c-1.05,3.954-.537,7.64,1.221,8.226C684.735,310.435,684.344,307.823,683.9,304.918Zm-64.053-1.587a2.771,2.771,0,0,0-.268.269c.464.513.928,1.465,1.416,1.465.952.049,1.343-.854,1.465-1.733Zm4.98,475.1c-.024-.025-.049-.073-.073-.1h-8.739v.1Zm-6.444-483.4c.83-1.562.488-2.49-.952-2.49C617.752,293.372,618.045,294.153,618.387,295.032Z" transform="translate(-558.393 -204.843)" fill="#311d48"/>
          <path id="Trazado_895566" data-name="Trazado 895566" d="M582.508,313.295c.073-.366.122-.732.2-1.074.2-.757.415-1.489.61-2.246h.61a49.374,49.374,0,0,1,1.562,5.859c.342,2.246-.854,3.881-2.856,4.907,1.758.391,3.515.757,4.418-1.611.1.049.22.1.317.146.171.781.366,1.587.561,2.466.122-.147.269-.293.488-.537,2.783,3.93,4.687,8.007,2.685,12.913-.513,1.269-1.05,2.539-1.513,3.857a5.222,5.222,0,0,0,.9,5.541c5.492,6,7.713,13.352,8.739,21.188.708,5.444-.122,10.472-3.735,14.842A22.287,22.287,0,0,0,594,382.5a6.326,6.326,0,0,1-1.2,1.221,3.17,3.17,0,0,0,2.9-.9c4.931-4.443,6.664-10.008,5.956-16.4a77.641,77.641,0,0,0-1.831-9.325,29.23,29.23,0,0,0-7.274-13.4c-2-2.1-2.441-4.272-1.123-6.835.049-.073.049-.171.1-.244,2.832-5.492,1.929-10.619-1.709-15.354-1.025-1.343-.928-2.343-.2-3.784,2.075-4.174,4.076-8.422,5.81-12.742a24.56,24.56,0,0,0,1.049-5.883c.513-3.906,2.783-6.688,5.517-9.2a1.488,1.488,0,0,1,.342.171c-.513,1.245-1.05,2.49-1.562,3.71a1.127,1.127,0,0,1,.171.171c1.269-1.587,2.636-3.125,3.784-4.809a7.975,7.975,0,0,1,4.394-3.125c1.269-.415,2.588-.683,3.857-1.05,2.124-.61,2.807-1.782,2.417-3.954-.439-2.417-.439-2.392,1.9-3.2,3.076-1.05,6.127-2.2,9.227-3.173.488-.146,1.2.244,1.709.513.342.171.561.586.952,1.025-.1-.586-.171-.976-.244-1.465a3.4,3.4,0,0,1,.513-.269c1.343-.635,1.611-1.709.708-2.954a15.153,15.153,0,0,1-1.66-2.343c-1.587-3.344.659-6.957,4.174-6.762.366.024.708.391,1.294.708a21.232,21.232,0,0,0-2.343.854c-1.147.586-1.318,1.831-.244,2.49,3.393,2.124,6.933,3.784,11.18,3.076a38.939,38.939,0,0,1,5.859-.244,29.544,29.544,0,0,0,14.671-3.515c2.295-1.294,4.638-2.441,6.981-3.613a8.456,8.456,0,0,1,1.245-.342c.684-1.318,1.489-2.9,2.368-4.565a2.273,2.273,0,0,1,1.684,2.051,23.33,23.33,0,0,1-1.2,11.2c-.464,1.343-1.074,2.612-1.635,3.954a1.04,1.04,0,0,0,1.709.073,32.381,32.381,0,0,0,2.148-3.027,9.908,9.908,0,0,0,.635-1.465c1.025.586,2,1.1,2.929,1.684,5.688,3.735,11.375,7.445,17.039,11.229,3.564,2.392,7.2,4.711,10.57,7.372,3.344,2.636,5.663,6.029,5.517,10.594a5.241,5.241,0,0,0,2.539,4.858,8.093,8.093,0,0,1,3.466,5.834c.488,2.954,1.343,5.858,1.953,8.788,1.684,8.129,3.149,16.306,5.077,24.362a131.268,131.268,0,0,0,4.516,13.645c.415,1.147,1.464,2.05,2.075,3.149a34.8,34.8,0,0,1,1.538,3.369c.049-.22.1-.537.147-.854.049.049.146.073.146.122,1.221,5.273,1.318,10.667,1.562,16.062.1,2.246.268,4.516.537,6.737.342,2.661,1.684,4.931,3.076,7.177a10.014,10.014,0,0,1,1.342,3.686,20.47,20.47,0,0,0,2.221,6.737,42.832,42.832,0,0,1,4.955,14.744c1.147,8.934-.562,17.185-6.152,24.459a7.513,7.513,0,0,1-.83.928c-1.977,2-2.344,1.953-4.882.708a22.521,22.521,0,0,0-3.906-1.123c-1.465-.439-2.954-.9-4.418-1.342-1.782-.537-3.466-1.562-5.443-.9a.411.411,0,0,1-.244,0c-.806-.757-1.953-.244-2.807-.854-.952-.659-2.051-1.1-3.027-1.757-3.222-2.124-4.467-5.248-4.54-8.983a15.974,15.974,0,0,0-.366-4.858c-1.147-3.173-1.123-6.566-2.075-9.74a64.623,64.623,0,0,0-3.027-7.1c-1.66-3.784-3.442-7.518-4.906-11.375a23.2,23.2,0,0,1-1.392-6.542c-.2-2.612.122-5.248.122-7.885a54.809,54.809,0,0,0-.22-6c-.537-4.565-.049-9.105.391-13.621a10.207,10.207,0,0,0-1.025-5.956,4.924,4.924,0,0,1-.244-3.979c.952-3.271,1.953-6.542,2.636-9.886,1.123-5.639.391-11.229-.854-16.77-1.44-6.322-3.173-12.547-6.518-18.186-.146-.244-.22-.537-.366-.805-.171-.293-.366-.537-.537-.806-.317.293-.9.61-.879.879a18.315,18.315,0,0,0,.635,3.637c1.587,5.029,3.417,10.008,4.882,15.086a39.027,39.027,0,0,1-.61,24.02c-.269.781-.464,1.611-.708,2.392a5.123,5.123,0,0,0,.977,4.931c1.611,1.977,1.147,4.321.977,6.615-.268,3.833-.366,7.665-.586,11.5-.2,3.149-.464,6.322-.732,9.471-.439,5.248-.293,10.4,1.9,15.354,1.123,2.539,1.806,5.273,2.685,7.933.391,1.221.806,2.417,1.245,3.71.244-.1.513-.22.83-.366.049.1.171.171.171.268q1.062,6.408,2.148,12.815c.561,3.247-.928,5.419-3.711,6.811-3.857,1.9-7.787,3.076-12.181,1.928-2.246-.586-4.418.464-6.347,1.465a84.193,84.193,0,0,0-7.128,4.589c-4.272,2.88-8.641,5.541-13.621,7.006a14.466,14.466,0,0,1-9.471-.366c-5.248-2.026-10.472-1.733-15.867-.708a58.381,58.381,0,0,1-30.635-2.1,91.081,91.081,0,0,1-11.058-4.882c-2.124-1.074-2.758-3.417-3.149-5.59a31.121,31.121,0,0,1,2.05-17.429c.659-1.636,1.367-3.222,2-4.858.488-1.22,1.123-2.441.439-3.832a1.688,1.688,0,0,1,.049-.976,46.073,46.073,0,0,1,4.516-12.01,40.125,40.125,0,0,0,5-12.742c.293-1.611,0-3.344.2-5a14.345,14.345,0,0,1,1-4.833,14.268,14.268,0,0,0,.61-11.522c-1.269-3.832-2.587-7.665-3.759-11.522-1.66-5.468-.879-10.936.488-16.306a92.873,92.873,0,0,1,3.149-9.081c.122-.317.488-.732.781-.757.928-.1,1.147-.635,1.245-1.416a3.429,3.429,0,0,1,.635-1.391c.732-1.025,1.587-1.928,2.246-3a3.956,3.956,0,0,0,.1-4.174,24.144,24.144,0,0,1-1.318-2.295,20.508,20.508,0,0,1-.635-2.734,8.965,8.965,0,0,0,1.245-.2c1.318-.342,1.635-1.074.977-2.295a2.459,2.459,0,0,1,.317-3.2,8.411,8.411,0,0,0,1.416-1.9,1.5,1.5,0,0,0-.147-1.318c-.122-.171-.9-.122-1.2.1a14.573,14.573,0,0,0-4.2,5.639,9.349,9.349,0,0,0-.757,6.688,1.3,1.3,0,0,0,.146.464c1.269,1.636.464,3.027-.366,4.516-3.247,5.859-6.1,11.888-7.372,18.528-1.733,8.983-1.757,17.966,2.344,26.339,1.709,3.491,2.05,6.493.293,9.911-1.123,2.2-.976,4.638-.732,7.03a6.52,6.52,0,0,1-1.391,5,33.136,33.136,0,0,1-5.932,6.249c.2-1,.342-1.782.513-2.563-.049,0-.073-.024-.122-.024a2.055,2.055,0,0,0-.268.513c-.537,2.612-2.343,3.832-4.687,4.687-1.367.513-2.514,1.611-3.881,2.148a5.816,5.816,0,0,1-3.466.488,29.91,29.91,0,0,1-6.127-2.734c-2.88-1.684-4.1-4.491-4.54-7.689-.171-1.245-.488-2.465-.635-3.686-.122-1-.049-2.026-.146-3.051a5.684,5.684,0,0,0-.415-1.928c-1.758-3.735-3.564-7.445-5.371-11.156-3.027-6.225-4.565-12.693-3.71-19.65a9.124,9.124,0,0,0-.635-4.54,4.7,4.7,0,0,1,.171-2.88,11.846,11.846,0,0,0,.61-4.736c-.122-1.88.561-3.832.928-6a8.971,8.971,0,0,0,6.786,1.782,11.78,11.78,0,0,0,10.423-13.694c-.024-.122,0-.244-.024-.366A1.939,1.939,0,0,1,582.508,313.295ZM688.278,337c1.1.757.781,1.733.342,2.514a22.922,22.922,0,0,1-2.734,4.028A58.367,58.367,0,0,1,661.3,359.382c-.952.317-1.977.464-3.3.757.635-1.318,1.1-2.343,1.611-3.32.9-1.733,1.928-3.418,2.734-5.224a23.194,23.194,0,0,0,1.513-4.614c.317-1.489-.806-2.2-2.173-1.513a19.166,19.166,0,0,0-1.9,1.2A45.993,45.993,0,0,1,645.34,353.4c-1.611.415-3.271.683-4.907,1.025-.024-.122-.073-.22-.1-.342,1.367-.635,2.758-1.245,4.125-1.88-.049-.122-.1-.22-.146-.342-8.129,2.368-16.184,4.98-25.118,5.346,2.831.513,5.346,1.1,7.836.561,3.735-.805,7.4-1.977,11.107-2.978a2.752,2.752,0,0,1,1.172-.122,15.925,15.925,0,0,0,3.051.757c6.4-.049,11.912-2.563,16.965-6.249.342-.244.683-.513,1.05-.757a26.743,26.743,0,0,1-1.684,3.344,69.925,69.925,0,0,0-3.637,7.909c-.781,2.221.732,3.735,3.125,3.466a20.454,20.454,0,0,0,3.2-.586c7.1-2.026,13.23-5.907,18.943-10.448a33.03,33.03,0,0,0,8.739-9.74,10.406,10.406,0,0,0,1.123-3.271C690.4,337.779,689.743,337.193,688.278,337Z" transform="translate(-551.489 -129.712)" fill="#f9e381"/>
          <path id="Trazado_895567" data-name="Trazado 895567" d="M684.541,329.65c.366,2.612.879,5.053,1.05,7.543.659,9.105-.464,18.088-1.562,27.1-.317,2.49-.366,5-.684,7.494-.22,1.684-.708,3.32-1.025,5-.488,2.539-.952,5.077-1.416,7.616-1.245,6.762-2.636,13.523-3.662,20.31-1.684,11.18-3.906,22.287-4.418,33.638-.025.708-.244.976-.977,1.123-7.787,1.635-15.7,2.173-23.581,3-4.443.464-8.861,1.172-13.3,1.465-4.247.268-8.519.171-12.791.146-5.688-.049-11.375-.073-17.038-.415-2.685-.146-5.3-1.172-7.982-1.465-1.855-.2-2.417-.952-2.832-2.685-1.733-6.908-3.857-13.743-5.517-20.651-1.88-7.811-3.418-15.72-5.151-23.58-1.806-8.178-3.808-16.331-5.492-24.533a88.392,88.392,0,0,1-1.27-24.337c.22-3.027.244-6.1.366-9.129v-1.1c1.831.879,3.686,1.416,5.151,2.514,3.173,2.392,6.786,3.491,10.521,4.394a63.186,63.186,0,0,0,29.293.1,15.945,15.945,0,0,1,9.837.464c6.664,2.783,13.035,2,19.26-1.416a59.269,59.269,0,0,0,10.765-7.055,20.079,20.079,0,0,1,7.689-3.784,2.086,2.086,0,0,1,1.221-.024c4.418,1.562,8.544.439,12.6-1.342A7.692,7.692,0,0,0,684.541,329.65Z" transform="translate(-532.177 -24.991)" fill="#675f52"/>
          <path id="Trazado_895568" data-name="Trazado 895568" d="M584.28,376.48c3.051.708,5.956,1.489,8.91,2a46.929,46.929,0,0,0,5.859.415c5.3.269,10.594.488,15.891.757a2.107,2.107,0,0,1,.464.049c.342,3.173.537,6.249,1.074,9.251.635,3.515,1.782,6.908,2.441,10.423a59.878,59.878,0,0,1,.537,17.6c-.561,5.1-.879,10.228-1.416,15.33-.342,3.32-.83,6.615-1.294,9.935a141.665,141.665,0,0,0-1.733,21.579c.025,3.857-.268,7.738.61,11.546a29.943,29.943,0,0,0,2.148,5.395c1.1,2.417,2.368,4.76,3.442,7.2a1.968,1.968,0,0,1-.854,2.71,26.689,26.689,0,0,0-7.982,9.667,46.317,46.317,0,0,1-8.519,12.279c-2.319,2.295-4.369,4.833-7.226,6.517a6.927,6.927,0,0,1-7.543-.244c-.244-.171-.464-.317-.708-.488a27.242,27.242,0,0,0,5.932-10.716c1.2-3.637,1.416-7.372,1.928-11.107.317-2.27.366-4.589.513-6.884,0-.073-.024-.2.024-.244,1.635-2.124-.2-4.516.561-6.786a37.916,37.916,0,0,0,1.172-6.884c.317-2.368.586-4.711.83-7.079.244-2.319.513-4.662.635-6.981.244-4.76-.806-9.374-1.538-14.036-1.367-8.788-4.687-17.014-7.03-25.533a189.979,189.979,0,0,1-5.615-28.56c-.513-4.516-.708-9.081-1.074-13.621C584.622,378.8,584.427,377.7,584.28,376.48Z" transform="translate(-521.088 42.493)" fill="#efb36b"/>
          <path id="Trazado_895569" data-name="Trazado 895569" d="M604.06,380.019c9.715-1.562,19.431-1.636,29.122-4.37,0,3.076-.122,5.883.025,8.666.293,5.517.732,11.009,1.074,16.5.342,5.248.684,10.5.9,15.769.342,7.982.659,15.94.83,23.922.073,3.1-.464,6.225-.366,9.349.147,5,.684,9.984.879,14.988a62.774,62.774,0,0,0,2.734,16.184c1.294,4.174,2.392,8.446,3.979,12.5,1.953,5,2.319,10.179,2.856,15.4.366,3.54,1.294,7.006,1.953,10.521.1.488.171.976.244,1.513a12.144,12.144,0,0,1-12.083-.732c-1.635-.976-3.222-2.075-4.833-3.1a2.815,2.815,0,0,1-1.245-1.733c-.391-1.343-1.294-2.539-1.684-3.881a19.456,19.456,0,0,1-.977-5.1c-.073-3.857.22-7.714.171-11.571a65.531,65.531,0,0,0-.757-6.542,6.744,6.744,0,0,1-.024-1.855c.61-3.784-.22-7.421-1.367-10.936-2.173-6.688-4.54-13.328-6.933-19.943-2.783-7.641-5.712-15.208-8.495-22.848A68.039,68.039,0,0,1,606.4,413c-.366-6.664-.318-13.352-.562-20.041-.1-3.051-.391-6.078-.757-9.105A23.36,23.36,0,0,0,604.06,380.019Z" transform="translate(-492.584 41.297)" fill="#efb36b"/>
          <path id="Trazado_895570" data-name="Trazado 895570" d="M605.166,225.708a6.094,6.094,0,0,1-2.27,4.711,47.176,47.176,0,0,1-4.687,3.1c-3.173,1.953-6.713,3.515-9.52,5.907-5.956,5.1-7.25,11.863-5.614,19.333a3.6,3.6,0,0,0,.122.488c.879,2.295,1.782,2.49,3.344.708-.513,2.563-1.245,3.1-3.393,2.441,1.05,2.368,3.027,1.538,4.882,1.391.2-1.709,1.709-1.806,2.929-2.124,4-1.05,8.08-1,12.181-.928,2,.049,4.052-.342,5.614,1.343.366-.269.659-.464.928-.659-.073-.635-.146-1.221-.22-1.806.1-.024.171-.073.268-.1.366.537.708,1.05,1.1,1.611a12.123,12.123,0,0,1,7.64.586,3.011,3.011,0,0,1,2.49-2.295c2.978-.732,5.981-1.465,8.983-2.075a36.073,36.073,0,0,1,3.955-.366c-.977-1.831-2.246-3.2-4.443-2.856a8.8,8.8,0,0,0-2.783.976c-1.1.586-2.051,1.416-3.125,2.1a6.877,6.877,0,0,1-5.029.9c-.342-.073-.61-.561-.927-.854.317-.22.659-.586.976-.61a6.693,6.693,0,0,0,4.077-1.953c3.417-2.783,8.788-4.052,12.6,1.147a.988.988,0,0,0,1.66.22,4.43,4.43,0,0,0,1.2-1.709,5.977,5.977,0,0,0-3.881-7.982,25.143,25.143,0,0,0-4.662-.781c-5.785-.439-11.131-1.953-15.549-5.981-4.443-4.028-7.152-8.812-6.713-14.939a5.516,5.516,0,0,1,.147-.879C605.776,223.8,606.142,225.2,605.166,225.708Zm-3.149,33.711c-1.123-.635-2.246-1.269-3.369-1.928-2.124-1.245-4.028-.635-5.785.708-1.025.781-1.9,1.758-2.88,2.588a3.711,3.711,0,0,1-1.05.464c-.073-.415-.293-.9-.146-1.245a7.276,7.276,0,0,1,5.785-4.76A8.468,8.468,0,0,1,601.236,257c1.391,1,2.709,2.124,4.662,1.855C604.409,260.274,603.628,260.347,602.017,259.419Z" transform="translate(-523.764 -177.555)" fill="#efb36b"/>
          <path id="Trazado_895571" data-name="Trazado 895571" d="M652.663,252.058a32.736,32.736,0,0,1-.854-6.151,8.378,8.378,0,0,0-1.831-5.077c-1.245-1.513-2.588-2.929-3.906-4.394-1.514-1.684-3.027-3.344-4.565-5.029.025-.024.049-.073.073-.1.366.244.732.513,1.123.757.073-.1.146-.171.22-.269a52.339,52.339,0,0,0-4.321-3.759,33.014,33.014,0,0,1-5.1-3.93c-4.247-4.418-9.276-7.006-15.672-6.4-3.539.342-7.055.317-10.57,1.367A35.7,35.7,0,0,0,597.3,223.6a34.052,34.052,0,0,0-3.466,3.051c.073.122.171.22.244.342,5.761-3.247,11.522-5.81,17.576-.805a.623.623,0,0,1-.586,0,16.537,16.537,0,0,0-10.692-.049,33.365,33.365,0,0,0-12.205,7.152,30.859,30.859,0,0,0-8.2,13.67,19.865,19.865,0,0,0-.342,7.909c.879-6.786,2.978-12.864,8.495-17.307,5.273-4.247,11.131-7.079,17.99-7.616-2.9,1.513-5.883,2.9-8.812,4.369-7.177,3.564-13.06,8.324-15.476,16.428a26.7,26.7,0,0,0-1.318,9.984c.366,4.223,2.807,7.177,6.054,9.618-3.881-8.739.806-20.847,9.5-25.655,2.27-1.245,4.54-2.49,6.737-3.832a26.456,26.456,0,0,0,4.052-2.88,5.077,5.077,0,0,0,1.562-5c-.073.317-.122.659-.2.976a1.055,1.055,0,0,1-.122-.024l.439-2.05c.171,0,.342-.024.537-.024a14,14,0,0,1,.513,2.173v.61c.977-.513.61-1.9,2.246-1.977a24.727,24.727,0,0,1,1.367-4.052c.171-.415.83-.659,1.318-1.05a22.745,22.745,0,0,0-1.733,3.881,11.984,11.984,0,0,0,.757,7.714,21.513,21.513,0,0,0,15.989,12.5c1.953.415,3.979.391,5.932.806a23,23,0,0,1,5.907,1.782c2.709,1.416,3.686,4.077,3.271,7.03-.342,2.514-1.538,4.491-4.15,4.467.9.391,2.051.928,3.54,1.587a16.759,16.759,0,0,0,2.1-2c2.246-2.929,2.295-6.274,1.465-9.667-1.465-6.029-5.615-9.276-11.424-10.838a66.255,66.255,0,0,1-8.666-2.758c-5.663-2.417-7.787-9.032-4.589-13.792a6.785,6.785,0,0,1-.415,1.367,7.673,7.673,0,0,0,1.391,8.617,10.42,10.42,0,0,0,5.321,3.344c2.758.781,5.541,1.538,8.3,2.246,10.887,2.783,14.646,14.3,10.716,21.091,0,.122.024.22.024.342-.122.928-.22,1.88-.39,3.2.928-.366,2-.439,2.246-.928a41.682,41.682,0,0,0,1.928-5.126,3.3,3.3,0,0,0,.1-1.1c.024-1.025-.073-2.051.024-3.076C652.419,256.183,653.175,254.23,652.663,252.058Z" transform="translate(-528.152 -186.426)" fill="#936037"/>
          <path id="Trazado_895572" data-name="Trazado 895572" d="M638.181,239.129c.586-.1,1.1-.171,1.88-.269-.562,2.173.513,3.564,1.977,4.858.9.806.561,2.588-.464,3.32a2.2,2.2,0,0,0-.317,3.222,1.977,1.977,0,0,0,2.978-.073c-.683-.464-1.44-.952-2.124-1.416.683-.928,1.2-1.635,1.709-2.319.342.879.684,1.782,1.05,2.758.1-.22.2-.415.268-.61.073,0,.146-.024.22-.024a6.32,6.32,0,0,1,.171,1.343c-.171,3.784-.1,7.616-.586,11.351a15.841,15.841,0,0,1-5.59,10.789c-3.979,3.222-7.885,6.566-11.864,9.813-3.2,2.636-6.786,4.345-11.009,3.857a23.451,23.451,0,0,1-9.2-2.441c-2.124-1.172-4.492-1.928-6.615-3.1-3.759-2.075-7.4-4.394-9.447-8.446-1.782-3.564-3.588-7.152-5.321-10.741-.488-1-.757-2.1-1.147-3.149,2.124-.561,3.052-1.831,2.832-3.735-.1-.805-.317-1.318-1.367-1-1.831.537-2.295.024-1.831-1.855.39-1.562.586-3-1-3.832.293-1.343.561-2.563.879-3.93.684-.049,1.538-.1,2.465-.171.293,1.147.537,2.246.806,3.32a3.826,3.826,0,0,0,3.564,3c5.126.635,10.155-.073,15.159-1.05a2.339,2.339,0,0,0,2.1-2.563c.024-.879-.025-1.758,0-2.636a4.661,4.661,0,0,1,.317-1.1,4.357,4.357,0,0,0,.561.049c.2,2.807.366,5.614.561,8.47.976.1,1-.635,1.074-1.343a17.427,17.427,0,0,0-.659-6.64,7.625,7.625,0,0,1-.2-1.074c2.441-1.294,4.663-.684,6.835.464a1.477,1.477,0,0,1,.513,1c.488,3.613,1.2,4.321,4.857,4.1a50.293,50.293,0,0,0,13.157-2.173c2.734-.952,3.344-1.9,2.929-4.76C638.23,240.032,638.23,239.617,638.181,239.129ZM628.027,265.76c-.146-.2-.317-.391-.464-.586-.244,0-.513-.1-.708.024-2.148,1.269-4.223.61-6.4.024-2.49-.683-5.029-1.318-7.665-.464a3.229,3.229,0,0,1-2.075.122c-1.44-.61-2.563-.073-3.784.513-.781.366-1.587.708-2.392,1.074-2.148.928-4.223,2.246-6.762,1.684-.049,0-.122.1-.171.146.024.1.024.22.073.244a2.777,2.777,0,0,0,.879.464c2.71.317,3.955,2.27,5.053,4.418a3.645,3.645,0,0,0,.488.708,5.725,5.725,0,0,0,3.637,2.221,23.145,23.145,0,0,0,8.3-.586c3.027-.586,5.492-1.88,6.957-4.736a14.275,14.275,0,0,1,1.465-2.319,16.085,16.085,0,0,1,2.075-2A9,9,0,0,1,628.027,265.76Zm-10.277-12.6c-.073.244-.22.464-.2.659.317,2.051.293,2-1.611,2.88a2.381,2.381,0,0,0-1,1.343,2.251,2.251,0,0,1-1.66,1.66,1.855,1.855,0,0,1-2.173-.732,12.866,12.866,0,0,0-2.294-2,1.876,1.876,0,0,1-.732-2.392c.146-.366.2-.757.366-1.343-1.294.415-2.05,1.025-2.05,2.1a2.419,2.419,0,0,0,1.611,2.587,4.2,4.2,0,0,1,2.172,1.684,3.077,3.077,0,0,0,4.931-.1,8.02,8.02,0,0,1,2.905-2.588C619.654,256.069,619.483,254.141,617.75,253.164Z" transform="translate(-522.385 -155.824)" fill="#efb36b"/>
          <path id="Trazado_895573" data-name="Trazado 895573" d="M622.442,211.974a20.679,20.679,0,0,1-4.809,11.79c-.2-.537-.317-.9-.439-1.269-.073.024-.171.049-.244.073.171.635.342,1.294.488,1.928a7.422,7.422,0,0,0,2-1.05c2.319-2.319,3.613-6.688,3.222-10.423,1.758,2.026,1.928,5.932.268,8.739-.854,1.44-1.928,2.734-2.88,4.077-.928,1.294-1.855,2.563-2.685,3.735a58.354,58.354,0,0,0-6.713-1.611,17.9,17.9,0,0,0-11.815,2.856,7.335,7.335,0,0,0-2.343,3.1c-.391.83-.757,1.2-1.684,1.123-.171-1.538-1.269-2.295-2.515-2.978a3.735,3.735,0,0,1-1.416-1.172,69.925,69.925,0,0,1-3.515-7.03,6.462,6.462,0,0,1-.1-3.417c1.074-6.542,4.321-11.546,10.448-14.427a7.85,7.85,0,0,1,7.323.024,2.167,2.167,0,0,0,2.587-.1,5,5,0,0,1,3.247-.391,25.514,25.514,0,0,1,16.233,8.788,4.349,4.349,0,0,1,.781,4.833,21.809,21.809,0,0,1-9.349,10.643c.293-.391.537-.83.854-1.2,1.465-1.758,3.051-3.442,4.418-5.273,1.977-2.661,2.685-5.614,1.294-8.812A4.177,4.177,0,0,0,622.442,211.974Zm-15.354-.244c-.684-.635-1.2-1.123-1.709-1.562-.83-.732-1.44-.561-1.611.561a11.693,11.693,0,0,0-.1,2.612c.244,2.807.586,5.614.879,8.422a1.145,1.145,0,0,1-.244.122c-2.563-4.565-5.126-9.105-7.836-13.914a10.064,10.064,0,0,0,.391,3c1.684,3.491,3.442,6.908,5.3,10.326a24.157,24.157,0,0,0,2.588,3.662,1.476,1.476,0,0,0,1.367.464c.415-.2.635-.854.83-1.343a2.017,2.017,0,0,0-.049-1c-.415-2.2-.9-4.394-1.294-6.615-.366-2.026-.659-4.052-1-6.078.122-.073.268-.122.39-.2a7.631,7.631,0,0,0,1.587,1.709c1.367.781.9-.952,1.635-1.343.757,1.953,1.538,3.881,2.246,5.834.83,2.319,1.562,4.638,2.392,6.957.1.268.488.439.757.635.122-.293.366-.61.317-.854-.806-4.272-1.806-8.47-4.247-12.156a14.327,14.327,0,0,0-2.026-2C607.478,210.046,607.307,210.754,607.088,211.73Zm-16.233,8.959-.146.22q4.174,3.222,8.373,6.42a.83.83,0,0,0,.854-.073.946.946,0,0,0,.1-.854,6.878,6.878,0,0,0-.635-1.074c-1.538-2.954-3.125-5.859-4.54-8.861a22.147,22.147,0,0,1-1.05-3.686c.464.2.635.269,1,.415a3.388,3.388,0,0,0-.488-.806,9.643,9.643,0,0,0-1.05-.684c-.2.391-.537.781-.537,1.147-.024,3.71,1.465,6.957,3.173,10.13.2.366.415.757.61,1.123-.049.049-.122.1-.171.146C594.492,223.056,592.685,221.86,590.855,220.689Zm25.338,1c1.464-2.587.659-5.444.537-8.226h.391c.2,1.611.366,3.222.561,4.858a30.061,30.061,0,0,0-.22-5.346c-.024-.293-.513-.537-.806-.781-.146.293-.439.586-.439.9C616.168,215.953,616.193,218.858,616.193,221.689Zm-22.7,5.59c.684-2.27.684-2.27-3.613-6.518C591.074,222.934,592.271,225.107,593.491,227.279Z" transform="translate(-517.044 -204.439)" fill="#936037"/>
          <path id="Trazado_895574" data-name="Trazado 895574" d="M587.936,309.762c-.586-.537-1-.928-1.489-1.391.976-1.709.293-3.149-1.074-4.492a4.287,4.287,0,0,0,.586-3.832,6.684,6.684,0,0,1-.1-3.54,2.056,2.056,0,0,0-1.733-2.71,15.323,15.323,0,0,0-8.641.269,7.818,7.818,0,0,1-2.026.22c-.024-.122-.024-.244-.049-.342.146-.171.293-.342.464-.561h-3.418c-.366-1.44-.659-2.685-.976-3.93l-.439.073c.049,1.2.1,2.392.171,3.564-.464.22-.83.391-1.245.562,1.831.366,3.564.708,5.566,1.1-.366.439-.561.586-.61.781-.1.415-.317,1.025-.146,1.2a1.493,1.493,0,0,0,1.27.317c.732-.268,1.342-.879,2.075-1.123,1.928-.659,3.711-1.928,5.785-1.636a13.172,13.172,0,0,0-1.635,2.685,2.179,2.179,0,0,0,1.416,2.832,9.227,9.227,0,0,0-1.636.317c-2.124.708-4.247,1.513-6.371,2.2a4.509,4.509,0,0,1-2.368.317c-3.125-.854-6.274-1.782-9.325-2.856-3.125-1.123-3.93-3.076-2.88-6.225.512-1.513,1.074-3,1.465-4.54a2.483,2.483,0,0,1,2.221-2.05c2.148-.366,4.3-.635,6.42-1.05a28.271,28.271,0,0,0,3.735-1.05,7.5,7.5,0,0,0,3.857-3.369c-.317,1.538-.635,3.051-.952,4.614,1.318-1.2,1.44-2.88,1.538-4.443.122-2.026-.244-4.1-.024-6.127.317-3.2-1.05-6.029-1.513-9.056a9.168,9.168,0,0,1,.684-5.639,4.484,4.484,0,0,1,2.807-2.514c1.367-.391,2.173-.049,2.465,1.318.586,2.783,1.123,5.566,1.44,8.373a33.75,33.75,0,0,0,3.173,11.522c.684,1.342,1.22,2.758,1.855,4.1a11.458,11.458,0,0,1,.317,8.885,12.816,12.816,0,0,0-.757,2.246,2.112,2.112,0,0,0,.268,1.611,6.287,6.287,0,0,1,1.562,4.125C589.889,303.757,588.863,306.662,587.936,309.762Z" transform="translate(-557.991 -127.985)" fill="#efb36b"/>
          <path id="Trazado_895575" data-name="Trazado 895575" d="M607.3,234.271c-1.1-2.514-2.173-4.98-3.271-7.518,3.784-.073,6.42-2.27,8.665-5.053a24.3,24.3,0,0,0,1.416-2.1c-.122-.1-.22-.2-.342-.293-.513.366-1.025.757-1.538,1.1-1.782,1.172-3.491,2.441-5.346,3.442a5.8,5.8,0,0,1-6.542-.635A22.1,22.1,0,0,0,610.4,210.52a7.548,7.548,0,0,1,4.369,5.688,32.524,32.524,0,0,1,.22,10.2,5.018,5.018,0,0,1-1.88,3.686C611.2,231.513,609.274,232.856,607.3,234.271Zm6.615-12.62c-.073-.049-.146-.073-.22-.122a9.7,9.7,0,0,1-.976,1.416c-1.928,1.953-3.686,4.1-6.493,4.882-.22.073-.366.464-.561.683.293.1.61.366.854.293.708-.2,1.391-.513,2.1-.757.757-.269,1.513-.488,2.294-.732l.22.366c-.9.806-1.806,1.635-2.709,2.441a8.025,8.025,0,0,0,2.709-1.44,4.7,4.7,0,0,0,.854-1.44c-.464-.244-.952-.464-1.465-.708.61-.732,1.294-1.513,1.9-2.343C612.96,223.384,613.4,222.505,613.912,221.651Z" transform="translate(-497.945 -196.663)" fill="#936037"/>
          <path id="Trazado_895576" data-name="Trazado 895576" d="M604.2,246.924a19.061,19.061,0,0,1-3.149.732c-3.808.293-7.641.684-11.473.659-3.027-.024-3.54-.268-3.954-3.442a20.4,20.4,0,0,1-.22-2.978,1.654,1.654,0,0,1,1.611-1.831,57.7,57.7,0,0,1,15.208-.391,1.715,1.715,0,0,1,1.2,1,35.968,35.968,0,0,1,.61,3.954C604.1,245.289,604.125,245.948,604.2,246.924Z" transform="translate(-519.476 -155.149)" fill="#c6c6c6"/>
          <path id="Trazado_895577" data-name="Trazado 895577" d="M616.353,241.834c-.049,2.685-.317,3.271-2.954,3.735-4.418.781-8.885,1.343-13.353,1.977-.928.122-1.489-.1-1.587-1.2-.073-1.074-.391-2.124-.561-3.2-.317-2.026.244-3.125,2.27-3.491,3.979-.708,7.982-1.172,11.986-1.733h.244C616.158,237.587,616.012,238.2,616.353,241.834Z" transform="translate(-501.582 -157.285)" fill="#c6c6c6"/>
          <path id="Trazado_895578" data-name="Trazado 895578" d="M559.54,276.288c3.881.976,7.421,1.928,11.009,2.685a6.4,6.4,0,0,0,3.027-.513c3.246-1.05,6.444-2.173,9.715-3.271,1,2.295.977,2.954-1.172,4.809a26.818,26.818,0,0,1-4,2.49c-1.074.635-2.1,1.318-3.222,1.855a5.2,5.2,0,0,1-2.27.683c-2.295-.1-4.565-.464-6.859-.61a8.578,8.578,0,0,1-4.785-2,3.077,3.077,0,0,1-1-1.684C559.735,279.267,559.686,277.777,559.54,276.288Z" transform="translate(-556.739 -103.47)" fill="#efb36b"/>
          <path id="Trazado_895579" data-name="Trazado 895579" d="M559.71,280.529c3.2,2.783,6.981,2.026,10.472,2.661a6.747,6.747,0,0,1,1.22.244,4.2,4.2,0,0,0,4.687-1.147,3.986,3.986,0,0,1,1.391-.83,13.08,13.08,0,0,0,6.078-4.3c.928,1.367.854,2.417.073,3.954-1.513,2.978-4.15,4.516-6.737,6.176a3.234,3.234,0,0,1-2.246.342,30.671,30.671,0,0,0-8.446-.708C562.712,287.193,560.125,284.678,559.71,280.529Z" transform="translate(-556.494 -100.632)" fill="#efb36b"/>
          <path id="Trazado_895580" data-name="Trazado 895580" d="M618.709,257.807c.561-.684,1.2-1.44,1.806-2.2.122.049.268.1.391.146-.147.83-.366,1.66-.464,2.514-.2,1.538-.439,3.051-.488,4.589a1.578,1.578,0,0,1-1,1.513c-4,2.319-8.4,3.344-12.84,4.321a27.524,27.524,0,0,1-10.277.488,7.792,7.792,0,0,1-1.44-.366c3-.2,6.1.22,8.934-1.733-1.123.122-2.026.317-2.929.342-2.124.049-4.247.024-6.371-.1,2.295-.268,4.638-.366,6.908-.83a47.35,47.35,0,0,0,6.835-1.928c2.221-.805,4.369-1.855,6.493-2.856a24.038,24.038,0,0,0,5.932-3.588c-.073-.147-.122-.293-.2-.439A10.57,10.57,0,0,0,618.709,257.807Z" transform="translate(-507.038 -131.686)" fill="#efb36b"/>
          <path id="Trazado_895581" data-name="Trazado 895581" d="M579.93,243.62a28.807,28.807,0,0,1,.977-3.515c.366-.9,1.147-.9,1.977-.391a6.507,6.507,0,0,1,2.807,3.54c.317.952.659,1.88,1,2.832.244.732.488,1.391,1.44,1.611.9.22.635,1.123.561,1.806-.171,1.758-.342,3.539-.513,5.3-.1,1.074-.122,2.148-.293,3.222-.049.366-.366.952-.586.952a1.439,1.439,0,0,1-1.147-.537,8,8,0,0,1-.684-2.368,5.744,5.744,0,0,0-2.295-3.979c-2.1-1.709-2.758-4.174-3-6.762-.049-.537,0-1.074,0-1.635A1.52,1.52,0,0,0,579.93,243.62Zm2.856,2.173c.293.415.684.952,1.1,1.513a3.168,3.168,0,0,0-.977,3.344c.122.366.977.464,1.465.684-.049-.854-.1-1.465-.146-2.124,1.391-.415,1.831,2.173,3.54.757-2.173-.317-2.295-2.075-2.954-3.491a18.7,18.7,0,0,0-2.514-3.808c-.61-.732-1.367-.366-1.416.586a11,11,0,0,0,.1,2.368c.1.61-.439,1.66.61,1.733C581.932,247.355,582.371,246.354,582.786,245.792Z" transform="translate(-527.356 -155.091)" fill="#efb36b"/>
          <path id="Trazado_895582" data-name="Trazado 895582" d="M583.133,261.925c-3.881-8.739.806-20.847,9.5-25.655,2.27-1.245,4.54-2.49,6.737-3.832a26.459,26.459,0,0,0,4.052-2.88,5.077,5.077,0,0,0,1.562-5c-.073.317-.122.659-.2.976a1.049,1.049,0,0,1-.122-.024l.439-2.05c.171,0,.342-.024.537-.024a14.007,14.007,0,0,1,.513,2.173,6.136,6.136,0,0,1-2.27,5.321,47.2,47.2,0,0,1-4.687,3.1c-3.173,1.953-6.713,3.515-9.52,5.907-5.956,5.1-7.25,11.863-5.614,19.333a3.557,3.557,0,0,0,.122.488c.879,2.295,1.782,2.49,3.344.708-.513,2.563-1.245,3.1-3.393,2.441C583.768,262.536,583.45,262.243,583.133,261.925Z" transform="translate(-524.725 -178.059)" fill="#311d48"/>
          <path id="Trazado_895583" data-name="Trazado 895583" d="M609.689,243.342a5.264,5.264,0,0,1,.024-1.684c.854-1.977,1.733-3.93,2.734-5.834.513-.976,1.513-.952,1.88.049a73.127,73.127,0,0,1,2.71,8.4,3.539,3.539,0,0,1-1.88,4.028,11.166,11.166,0,0,0-1.367,1.1c-.561-.683-1.147-1.416-1.9-2.343.146-1.269.342-2.9.561-4.516h.586a8.219,8.219,0,0,1,.073,1.538c-.146.928-.171,1.806.879,2.2a1.161,1.161,0,0,0,1.025-.342,7.485,7.485,0,0,0-.073-6.42,2.684,2.684,0,0,0-1.88-1.269c-.488,0-1.294.952-1.416,1.587-.415,2.173-.561,4.37-.854,6.566a8.317,8.317,0,0,1-.561,2.026,1.061,1.061,0,0,1-.83.537c-.22-.024-.513-.464-.586-.757A4.7,4.7,0,0,1,609.689,243.342Z" transform="translate(-486.154 -161.233)" fill="#efb36b"/>
          <path id="Trazado_895584" data-name="Trazado 895584" d="M634.009,341.666c-1.733-.1-3.271-.171-4.76-.268-.146-2.392-.293-4.736-.439-7.2,1.05-1.147,2.319-.415,3.564-.073,1.977.561,2.27,1.074,2.026,3.076C634.2,338.663,634.132,340.128,634.009,341.666Z" transform="translate(-456.918 -19.333)" fill="#f9e381"/>
          <path id="Trazado_895585" data-name="Trazado 895585" d="M591.25,219.723A11.279,11.279,0,0,1,593.5,217.4a17.333,17.333,0,0,1,20.285,1.977,46.943,46.943,0,0,0-4.492-1.733c-3.393-.928-6.835-1.709-10.326-.635a35.735,35.735,0,0,0-4.3,1.953c-.977.464-1.953.9-2.929,1.367A5.334,5.334,0,0,1,591.25,219.723Z" transform="translate(-511.044 -190.17)" fill="#f9e381"/>
          <path id="Trazado_895586" data-name="Trazado 895586" d="M593.14,217.854c5.3-4.125,19.162.146,21.408,6.3C608.519,218.611,601.391,216.829,593.14,217.854Z" transform="translate(-508.32 -188.448)" fill="#f9e381"/>
          <path id="Trazado_895587" data-name="Trazado 895587" d="M626.6,362.929c4.736-3.125,6.713-7.933,9.325-12.449.024.268.073.415.024.537-1.269,3.173-2.514,6.347-3.808,9.5a6.935,6.935,0,0,1-.952,1.318C630.115,363.369,628.626,363.418,626.6,362.929Z" transform="translate(-460.103 5.026)" fill="#d79851"/>
          <path id="Trazado_895588" data-name="Trazado 895588" d="M636.541,352.505c-.366,1.391-.684,2.807-1.1,4.174a30.073,30.073,0,0,1-1.172,2.9c-.342.781-.537,1.855-1.147,2.246-1.977,1.221-3.93,2.612-6.493,2.734,4.3-3.2,7.909-6.908,9.422-12.254A4.041,4.041,0,0,1,636.541,352.505Z" transform="translate(-460.059 7.663)" fill="#d79851"/>
          <path id="Trazado_895589" data-name="Trazado 895589" d="M626.494,333.53c1.269.268,2.417.537,3.661.806q.183,3.369.366,6.811C627.958,340.755,626.372,337.753,626.494,333.53Z" transform="translate(-460.265 -19.4)" fill="#f9e381"/>
          <path id="Trazado_895590" data-name="Trazado 895590" d="M632.681,340.931c-.024-2.27.269-4.687-1.611-6.811,1.562.244,2.856.366,4.1.659a1.067,1.067,0,0,1,.854,1.513c-.366,1.147-.586,2.343-.952,3.491C634.585,341.419,634.561,341.394,632.681,340.931Z" transform="translate(-453.661 -18.549)" fill="#f9e381"/>
          <path id="Trazado_895591" data-name="Trazado 895591" d="M610.642,249.234c-.61-2.368-1.22-4.711-1.782-6.811.781-.586,1.489-1.074,2.392-1.733.122.781.269,1.562.391,2.368a4.074,4.074,0,0,1,.561-.342,1.817,1.817,0,0,1,.781-.269c-1.44,1.538-.977,3.369-.928,5.126C612.107,248.575,611.692,249.038,610.642,249.234Z" transform="translate(-485.667 -153.186)" fill="#efb36b"/>
          <path id="Trazado_895592" data-name="Trazado 895592" d="M571.263,274.81c.024,1.074-1.514,2.71-2.27,2.685a1.4,1.4,0,0,1-.708-.2c-.684-.391-.781-1.587-.22-2.612.537-.976,1.88-1.782,2.416-1.318A4.222,4.222,0,0,1,571.263,274.81Z" transform="translate(-544.98 -106.288)" fill="#efb36b"/>
          <path id="Trazado_895593" data-name="Trazado 895593" d="M609.08,243.508c-.952-1.1-2.465-1.9-1.831-3.784.464-1.44,1.782-.464,2.685-1.074C609.641,240.359,609.373,241.9,609.08,243.508Z" transform="translate(-488.206 -156.126)" fill="#936037"/>
          <path id="Trazado_895594" data-name="Trazado 895594" d="M634.444,335.6c.83.537,1.538,1.025,2.246,1.513-.659,2.636-.806,2.734-3.32,2.075C633.712,337.992,634.078,336.821,634.444,335.6Z" transform="translate(-450.347 -16.417)" fill="#f9e381"/>
          <path id="Trazado_895595" data-name="Trazado 895595" d="M610.13,245.84c.439,2.9.83,5.517,1.22,8.226C609.593,253.481,609.08,249.794,610.13,245.84Z" transform="translate(-484.618 -145.765)" fill="#ffed00"/>
          <path id="Trazado_895596" data-name="Trazado 895596" d="M610.318,237.01c0,.122.024.22.024.342a13.613,13.613,0,0,0-1.2,1.88c-.61,1.489-1.831,1.733-3.247,1.758-.1-.366-.2-.732-.22-.806C607.315,239.036,608.829,238.011,610.318,237.01Z" transform="translate(-490.249 -158.49)" fill="#efb36b"/>
          <path id="Trazado_895597" data-name="Trazado 895597" d="M583.729,245.19h2.612c-.122.879-.537,1.782-1.464,1.733-.488-.024-.952-.952-1.416-1.465A2.772,2.772,0,0,1,583.729,245.19Z" transform="translate(-522.27 -146.702)" fill="#936037"/>
          <path id="Trazado_895598" data-name="Trazado 895598" d="M590.8,439.878H582.01v-.1h8.739C590.749,439.8,590.773,439.829,590.8,439.878Z" transform="translate(-524.359 133.712)" fill="#fcfaf6"/>
          <path id="Trazado_895599" data-name="Trazado 895599" d="M583.532,243.26c-.317-.854-.635-1.66-.952-2.49C584.02,240.746,584.362,241.7,583.532,243.26Z" transform="translate(-523.538 -153.071)" fill="#936037"/>
          <path id="Trazado_895600" data-name="Trazado 895600" d="M655.212,289.76c1.465.2,2.124.781,1.9,2.075a11.059,11.059,0,0,1-1.123,3.271,33.332,33.332,0,0,1-8.739,9.74c-5.712,4.54-11.839,8.422-18.943,10.448a17.567,17.567,0,0,1-3.2.586c-2.392.268-3.906-1.245-3.125-3.466a74.547,74.547,0,0,1,3.637-7.909,26.764,26.764,0,0,0,1.684-3.344c-.342.244-.684.513-1.05.757-5.053,3.71-10.57,6.225-16.965,6.249a15.488,15.488,0,0,1-3.051-.757,2.8,2.8,0,0,0-1.172.122c-3.71,1-7.372,2.148-11.107,2.978-2.49.537-5-.049-7.836-.562,8.934-.366,16.99-2.978,25.118-5.346.049.122.1.22.146.342-1.367.635-2.758,1.245-4.125,1.88.025.122.073.22.1.342,1.635-.342,3.3-.61,4.907-1.025a44.935,44.935,0,0,0,14.451-6.737,19.159,19.159,0,0,1,1.9-1.2c1.367-.684,2.465.049,2.173,1.513a23.2,23.2,0,0,1-1.513,4.614c-.781,1.782-1.831,3.466-2.734,5.224-.513,1-.976,2-1.611,3.32a29.271,29.271,0,0,0,3.3-.757,58.368,58.368,0,0,0,24.581-15.842,21.674,21.674,0,0,0,2.734-4.028C655.993,291.493,656.31,290.517,655.212,289.76Z" transform="translate(-518.422 -82.474)" fill="#311d48"/>
          <path id="Trazado_895601" data-name="Trazado 895601" d="M602.171,240.381c-1.489,1.391-2.27,1.465-3.881.537-1.123-.635-2.246-1.269-3.369-1.928-2.124-1.245-4.028-.635-5.785.708-1.025.781-1.9,1.758-2.88,2.587a3.705,3.705,0,0,1-1.05.464c-.073-.415-.293-.9-.146-1.245a7.276,7.276,0,0,1,5.785-4.76,8.467,8.467,0,0,1,6.664,1.758C598.9,239.526,600.218,240.674,602.171,240.381Z" transform="translate(-520.036 -159.053)" fill="#311d48"/>
          <path id="Trazado_895602" data-name="Trazado 895602" d="M619.611,250.739a11.239,11.239,0,0,0-1.465.9,16.091,16.091,0,0,0-2.075,2,12.8,12.8,0,0,0-1.465,2.319c-1.465,2.856-3.93,4.15-6.957,4.736a23.794,23.794,0,0,1-8.3.586,5.568,5.568,0,0,1-3.637-2.221,4.581,4.581,0,0,1-.488-.708c-1.1-2.148-2.343-4.1-5.053-4.418a2.559,2.559,0,0,1-.879-.464c-.049-.024-.049-.146-.073-.244.049-.049.122-.146.171-.146,2.539.561,4.589-.757,6.762-1.684.806-.342,1.611-.683,2.392-1.074,1.2-.561,2.343-1.123,3.784-.513a3.213,3.213,0,0,0,2.075-.122c2.636-.854,5.175-.2,7.665.464,2.173.586,4.247,1.245,6.4-.024.171-.1.464-.024.708-.024A7.159,7.159,0,0,0,619.611,250.739Zm-4.931,2.075c-3.2,2.173-6.3,3.662-10.008,3.784a28.276,28.276,0,0,1-10.57-1.343,6.213,6.213,0,0,0,.732,1.391c1.538,2.514,3.613,4,6.737,3.564.9-.122,1.831-.171,2.734-.269C608.895,259.478,612.776,257.916,614.68,252.814Zm-3,.708c-2.392-.391-4.687-.9-7.006-.1a2.678,2.678,0,0,1-.635.049c-2.954.269-5.907.537-8.861.83C602.06,256.622,608.285,256.232,611.678,253.522Zm1.221-2a9.913,9.913,0,0,0-1.611-.61c-2.2-.513-4.345-1.391-6.688-.415a3.578,3.578,0,0,1-2.661-.049,2.45,2.45,0,0,0-2.612.2c-.781.488-1.611.879-2.417,1.294-.586.317-1.172.61-1.782.928-.537.293-1.074.586-1.611.854C599.936,252.912,606.258,251.228,612.9,251.52Z" transform="translate(-513.969 -140.803)" fill="#311d48"/>
          <path id="Trazado_895603" data-name="Trazado 895603" d="M604.161,244.72c1.733.976,1.9,2.9.269,3.759a8.019,8.019,0,0,0-2.9,2.588,3.076,3.076,0,0,1-4.931.1,4.4,4.4,0,0,0-2.173-1.684,2.446,2.446,0,0,1-1.611-2.587c0-1.074.757-1.684,2.05-2.1a11.015,11.015,0,0,1-.366,1.343,1.911,1.911,0,0,0,.732,2.392,12.858,12.858,0,0,1,2.294,2,1.877,1.877,0,0,0,2.173.732,2.251,2.251,0,0,0,1.66-1.66,2.355,2.355,0,0,1,1-1.343c1.9-.879,1.928-.83,1.611-2.88C603.941,245.184,604.088,244.964,604.161,244.72Z" transform="translate(-508.796 -147.379)" fill="#311d48"/>
          <path id="Trazado_895604" data-name="Trazado 895604" d="M601.52,210.035c.22-.976.366-1.684.61-2.734a14.332,14.332,0,0,1,2.026,2c2.441,3.686,3.442,7.909,4.247,12.156.049.244-.2.561-.317.854-.268-.22-.659-.366-.757-.635-.83-2.319-1.562-4.662-2.392-6.957-.708-1.953-1.489-3.881-2.246-5.834-.732.391-.268,2.124-1.635,1.343a7.625,7.625,0,0,1-1.587-1.709c-.122.073-.268.122-.391.2.317,2.026.635,4.052,1,6.078.39,2.221.878,4.418,1.294,6.615a2,2,0,0,1,.049,1c-.2.513-.415,1.147-.83,1.343a1.609,1.609,0,0,1-1.367-.464,24.892,24.892,0,0,1-2.588-3.662q-2.783-5.09-5.3-10.326a9.96,9.96,0,0,1-.39-3c2.709,4.809,5.273,9.349,7.836,13.914a1.144,1.144,0,0,1,.244-.122c-.293-2.807-.61-5.614-.879-8.422a11.7,11.7,0,0,1,.1-2.612c.171-1.123.781-1.294,1.611-.561C600.348,208.912,600.836,209.376,601.52,210.035Z" transform="translate(-511.476 -202.744)" fill="#311d48"/>
          <path id="Trazado_895605" data-name="Trazado 895605" d="M588.731,216.789c1.831,1.2,3.637,2.392,5.468,3.588.049-.049.122-.1.171-.146-.2-.366-.39-.757-.61-1.123-1.709-3.173-3.2-6.42-3.174-10.13,0-.391.342-.781.537-1.147a7.747,7.747,0,0,1,1.049.683,3.381,3.381,0,0,1,.488.806c-.342-.146-.537-.22-1-.415a22.144,22.144,0,0,0,1.05,3.686c1.44,3,3.027,5.907,4.54,8.861a9.553,9.553,0,0,1,.635,1.074.926.926,0,0,1-.1.854.894.894,0,0,1-.854.073c-2.807-2.124-5.59-4.272-8.373-6.42C588.633,216.935,588.682,216.862,588.731,216.789Z" transform="translate(-514.92 -200.539)" fill="#311d48"/>
          <path id="Trazado_895606" data-name="Trazado 895606" d="M599.014,217.53c0-2.832-.024-5.736.024-8.617,0-.293.293-.61.439-.9.268.269.757.488.806.781a27.842,27.842,0,0,1,.22,5.346c-.2-1.611-.366-3.222-.561-4.858h-.391C599.673,212.087,600.478,214.943,599.014,217.53Z" transform="translate(-499.865 -200.28)" fill="#311d48"/>
          <path id="Trazado_895607" data-name="Trazado 895607" d="M591.843,218.048c-1.2-2.173-2.416-4.345-3.613-6.518C592.526,215.777,592.526,215.777,591.843,218.048Z" transform="translate(-515.396 -195.207)" fill="#311d48"/>
          <path id="Trazado_895608" data-name="Trazado 895608" d="M610.785,215.152c-.513.854-.952,1.733-1.513,2.539-.586.83-1.294,1.611-1.9,2.343.513.244.977.488,1.465.708a4.689,4.689,0,0,1-.854,1.44,8.26,8.26,0,0,1-2.71,1.44c.9-.806,1.806-1.635,2.71-2.441l-.22-.366c-.757.244-1.538.488-2.295.732-.708.244-1.391.561-2.1.757-.244.073-.561-.2-.854-.293.171-.244.317-.635.561-.683,2.807-.757,4.589-2.929,6.493-4.882a9.7,9.7,0,0,0,.977-1.416A2.259,2.259,0,0,1,610.785,215.152Z" transform="translate(-494.818 -190.164)" fill="#311d48"/>
          <path id="Trazado_895609" data-name="Trazado 895609" d="M582.252,244.073c-.415.561-.854,1.587-1.221,1.562-1.05-.049-.513-1.1-.61-1.733a11,11,0,0,1-.1-2.368c.049-.952.806-1.318,1.416-.586a17.743,17.743,0,0,1,2.514,3.808c.659,1.44.781,3.173,2.954,3.491-1.709,1.391-2.148-1.172-3.54-.757.049.635.073,1.269.147,2.124-.488-.22-1.343-.317-1.465-.684a3.169,3.169,0,0,1,.976-3.344C582.936,245.025,582.545,244.464,582.252,244.073Z" transform="translate(-526.823 -153.372)" fill="#311d48"/>
          <path id="Trazado_895610" data-name="Trazado 895610" d="M611.8,250.73c-1.928,5.077-5.785,6.664-10.374,7.128-.9.1-1.831.146-2.734.269-3.125.439-5.175-1.05-6.737-3.564a6.2,6.2,0,0,1-.732-1.391,27.257,27.257,0,0,0,10.57,1.343C605.5,254.392,608.625,252.9,611.8,250.73Z" transform="translate(-511.087 -138.718)" fill="#da6f27"/>
          <path id="Trazado_895611" data-name="Trazado 895611" d="M608.161,251.333c-3.393,2.709-9.618,3.1-16.5.757,2.954-.268,5.907-.537,8.861-.83a2.677,2.677,0,0,0,.635-.049C603.475,250.43,605.769,250.942,608.161,251.333Z" transform="translate(-510.453 -138.613)" fill="#fcfaf6"/>
          <path id="Trazado_895612" data-name="Trazado 895612" d="M610.376,251.051c-6.64-.293-12.937,1.416-19.406,2.221.537-.293,1.074-.586,1.611-.854.586-.317,1.172-.61,1.782-.928.806-.439,1.635-.83,2.417-1.294a2.4,2.4,0,0,1,2.612-.2,3.706,3.706,0,0,0,2.661.049c2.343-.976,4.492-.1,6.688.415A8.193,8.193,0,0,1,610.376,251.051Z" transform="translate(-511.447 -140.333)" fill="#da6f27"/>
          <g id="Grupo_1102055" data-name="Grupo 1102055" transform="translate(97.269 80.567)">
            <path id="Trazado_895613" data-name="Trazado 895613" d="M603.049,238.629l-4.809,8.226a1.434,1.434,0,0,0,1.2.22c.561-.073,1.123-.171,1.709-.244l5.053-8.641Q604.623,238.373,603.049,238.629Z" transform="translate(-598.24 -237.356)" fill="#f6f6f6"/>
            <path id="Trazado_895614" data-name="Trazado 895614" d="M610.717,238.023a6.209,6.209,0,0,0-2.734-.073h-.244c-.61.1-1.22.171-1.831.244l-5.029,8.617c1.733-.244,3.442-.488,5.175-.757Z" transform="translate(-594.436 -237.848)" fill="#f6f6f6"/>
          </g>
          <g id="Grupo_1102056" data-name="Grupo 1102056" transform="translate(67.122 84.208)">
            <path id="Trazado_895615" data-name="Trazado 895615" d="M588.4,248.294l5.224-8.934c-1,.049-2,.122-2.978.2l-4.76,8.153A3.752,3.752,0,0,0,588.4,248.294Z" transform="translate(-585.89 -239.311)" fill="#f6f6f6"/>
            <path id="Trazado_895616" data-name="Trazado 895616" d="M593.156,247.957l4.833-8.3a40.541,40.541,0,0,0-4.54-.317l-5.2,8.91C589.885,248.2,591.521,248.079,593.156,247.957Z" transform="translate(-582.489 -239.34)" fill="#f6f6f6"/>
          </g>
        </g>
        <ellipse id="Elipse_5671" data-name="Elipse 5671" cx="2.026" cy="0.879" rx="2.026" ry="0.879" transform="translate(28.994 184.875) rotate(-72.848)" fill="#311d48"/>
      </g>
    </g>
  </g>
</svg>
