<svg xmlns="http://www.w3.org/2000/svg" xmlns:xlink="http://www.w3.org/1999/xlink" width="349" height="227.742" viewBox="0 0 349 227.742">
  <defs>
    <clipPath id="clip-path">
      <path id="Rectángulo_392869" data-name="Rectángulo 392869" d="M24,0H325a24,24,0,0,1,24,24V227.742a0,0,0,0,1,0,0H0a0,0,0,0,1,0,0V24A24,24,0,0,1,24,0Z" transform="translate(205.5 1461.947)" fill="#12263f" opacity="0.59"/>
    </clipPath>
  </defs>
  <g id="Enmascarar_grupo_1078950" data-name="Enmascarar grupo 1078950" transform="translate(-205.5 -1461.947)" clip-path="url(#clip-path)">
    <g id="Grupo_1097549" data-name="Grupo 1097549">
      <g id="Grupo_1075965" data-name="Grupo 1075965" transform="translate(12.849 -14818)">
        <path id="Trazado_831540" data-name="Trazado 831540" d="M0,0H349V259.581H0Z" transform="translate(193.151 16279.948)" fill="#3091f5"/>
        <path id="Trazado_830528" data-name="Trazado 830528" d="M349,0,0,259.582H349Z" transform="translate(193.151 16279.947)" fill="#bedaf7"/>
      </g>
      <g id="Grupo_1104318" data-name="Grupo 1104318" transform="translate(236.68 1418.323)">
        <path id="Trazado_906095" data-name="Trazado 906095" d="M180.612,146.475a.642.642,0,0,1-.49-.312,2.414,2.414,0,0,1-.178-.969c.056-1.883.212-3.755.2-5.626-.011-2.195-.167-4.378-.267-6.573a18.792,18.792,0,0,1,.513-5.849,3.4,3.4,0,0,1,.891-1.537,4.791,4.791,0,0,0,1.537-3.443c.056-.68.134-1.359.223-2.039.1-.735.435-.958,1.2-1.036a1.923,1.923,0,0,0,1.07-.446c.791-.713,1.5-1.493,2.251-2.251.045-.056.078-.134.134-.167a1.6,1.6,0,0,0,.7-2.251.49.49,0,0,1,.033-.412c.613-.98.178-1.983.111-2.975-.011-.089-.022-.167-.033-.256,0-.011.011-.033.056-.167.39.312.735.59,1.181.958.3-1,.646-1.961.88-2.941a21.563,21.563,0,0,0,.512-8.311,10.058,10.058,0,0,0-.624-2.173c-.7-1.749-1.426-3.5-2.195-5.225a21.264,21.264,0,0,0-1.671-3.2,84.828,84.828,0,0,0-22.817-23.207,44.056,44.056,0,0,0-11.509-5.827,22.545,22.545,0,0,0-14.049-.323,44.206,44.206,0,0,0-12.456,5.649,31.477,31.477,0,0,0-8.033,6.752,8.729,8.729,0,0,1-1.259,1,.764.764,0,0,0-.212.368.673.673,0,0,1-.925.546c-1.2-.334-2.4-.7-3.61-.936q-3.342-.635-6.707-1.136a11.918,11.918,0,0,0-6.685.691c-.435.189-1.014.524-1.114.891-.156.546.535.813.98,1.07.49.279,1.025.479,1.549.713.446.2.869.435.9.969s-.368.746-.78.98a5.337,5.337,0,0,0-.813.691,69.932,69.932,0,0,0-7.888,7.843,31.9,31.9,0,0,0-6.317,12.3c-.512,1.916-1.17,3.81-1.549,5.749a21.5,21.5,0,0,0,1.326,12.556c.568,1.37,1.159,2.73,1.794,4.067a8.908,8.908,0,0,0,1.014,1.56,6.278,6.278,0,0,0,.824.769,20.346,20.346,0,0,1,.167-2.451,19.589,19.589,0,0,1,.758-2.462,1.708,1.708,0,0,1,.312-.5c.39-.5.8-1.014,1.56-.936.724.078.869.68,1.07,1.192.836.089.958.223,1.047,1a4.7,4.7,0,0,0,.3,1.226c.368.824.758,1.638,1.2,2.418s.98,1.526,1.471,2.273c.813-.234,1.148-.1,1.348.646s.323,1.549.457,2.328a2.273,2.273,0,0,0,.947,1.649,1.957,1.957,0,0,1,.724,1.081c.446,1.771.836,3.554,1.226,5.337a7.581,7.581,0,0,0,.59,1.994,6.85,6.85,0,0,1,.49,2.195c.123.925.223,1.849.256,2.774.045,1.448.056,2.9,0,4.334-.045,1.259-.212,2.518-.3,3.777-.011.189-.223.512.256.579.067.011.067.446.111.869.189-.2.379-.3.39-.423.134-1.8.234-3.61.345-5.415.067-1,.156-1.994.178-3,.011-.446-.145-.891-.156-1.337-.089-2.206-.089-4.423-.256-6.629-.089-1.159-.49-2.3-.691-3.454a16.579,16.579,0,0,1-.178-6.328,13.841,13.841,0,0,1,.735-1.916c.468-1.192.925-2.384,1.426-3.665-.657-.189-1.148-.368-1.649-.468a4.28,4.28,0,0,1-2.317-1.359,14.952,14.952,0,0,1-2.975-4.891,11.3,11.3,0,0,0-.657-1.459c-.078.98-.167,1.961-.245,2.941-.067.824-.134,1.649-.223,2.462a2.578,2.578,0,0,1-.223.758,1.13,1.13,0,0,1-1.716.423,1.587,1.587,0,0,1-.334-.279,10.175,10.175,0,0,1-2.7-4.2c-.357-1.3-.858-2.574-1.27-3.855a4.1,4.1,0,0,1-.167-.98c-.011-.123.145-.245.234-.368.1.089.234.167.29.279.568,1.148,1.058,2.317,1.682,3.431.68,1.237,1.471,2.418,2.217,3.621a2.174,2.174,0,0,0,.29.323c.1-1.292.156-2.5.29-3.688.1-.936.267-1.872.435-2.808a1.723,1.723,0,0,1,.3-.668.965.965,0,0,1,1.649-.033,4.2,4.2,0,0,1,.479.947,22.322,22.322,0,0,0,2.429,5,10.815,10.815,0,0,0,1.716,1.983,11.433,11.433,0,0,0,2.028,1.148c.033-.958.056-1.794.1-2.629q.067-1.287.167-2.574c.033-.39.223-.8.657-.8a1.474,1.474,0,0,1,.98.435,24.311,24.311,0,0,1,1.448,1.961c.067-.635.1-1.159.178-1.682.357-2.484.657-4.98,1.125-7.442a16.293,16.293,0,0,1,2.429-5.782c.546-.858,1.036-1.749,1.66-2.551a15.571,15.571,0,0,1,1.849-1.783,1.246,1.246,0,0,1,.59-.267.614.614,0,0,1,.49.134.488.488,0,0,1,.011.479c-1.627,2.54-2.028,5.4-2.273,8.267-.212,2.529-.245,5.08-.334,7.621a10.658,10.658,0,0,0,.123,1.571c.033.334.189.512.59.368.357-.134.735-.212,1.226-.345,0-.724-.022-1.471,0-2.228a26.782,26.782,0,0,1,2.652-9.938,26.468,26.468,0,0,1,2.952-5.17,17.392,17.392,0,0,1,6.986-5.559,41.412,41.412,0,0,1,14.484-3.454,68.669,68.669,0,0,1,21.1,2.161,21.158,21.158,0,0,1,8,3.365,12.612,12.612,0,0,1,2.284,2.206,15.184,15.184,0,0,1,3.075,5.793,11.126,11.126,0,0,1-.412,7.186,16.49,16.49,0,0,0-.691,3.175,6.88,6.88,0,0,1-.29,1.07,15.3,15.3,0,0,0-1.125,4.312c-.223,1.671-.557,3.32-.858,4.98a4.294,4.294,0,0,0,.68,3.22c.613.925,1.2,1.849,1.794,2.785a19.665,19.665,0,0,1,2.685,8.055c.813,5.771.357,11.565.368,17.358V156.2c.368-.033.746-.056,1.192-.089,0-.657-.045-1.3.011-1.939.156-1.627.323-3.242.546-4.858.078-.568.167-1.315.557-1.627l.067-.067v-1.148A.461.461,0,0,0,180.612,146.475Z" transform="translate(3.297 0.143)" fill="#12263f"/>
        <path id="Trazado_906096" data-name="Trazado 906096" d="M233.4,280.829H60.012c-.033-.256-.067-.524-.1-.78-.869-6.35-1.727-12.7-2.15-19.1a56.111,56.111,0,0,1,.368-13.18,24.514,24.514,0,0,1,2.128-7.208,18.456,18.456,0,0,1,1.393-2.005c.022-.033.089-.045.156-.078.067.111.123.212.2.357a10.085,10.085,0,0,1,3.643-1.649c3.186-.891,6.4-1.738,9.57-2.7,5.593-1.693,11.175-3.454,16.756-5.181a51.346,51.346,0,0,0,10.74-4.479c.423-.245.836-.5,1.348-.8.123,1.471.68,2.473,2.451,2.195a1.242,1.242,0,0,1,.134-.368,1.7,1.7,0,0,0,.3-1.649c-.4-1.526-.8-3.064-1.181-4.59a3.275,3.275,0,0,1,1.493-4,16.222,16.222,0,0,1,2.15-1.092c2.251-.947,4.512-1.849,6.763-2.774.123-.056.256-.089.423-.145-.045.423-.1.813-.123,1.192a.614.614,0,0,1-.5.59c-.936.323-1.872.657-2.785,1.047a6.036,6.036,0,0,0-1.382.78.981.981,0,0,0-.067,1.738,8.367,8.367,0,0,0,1.526,1.036,52.5,52.5,0,0,0,19.085,5.281c3.721.357,7.442.6,11.175.88a51.434,51.434,0,0,0,11.553-.6c2.83-.434,5.671-.758,8.512-1.1a19.413,19.413,0,0,0,6.484-1.671c1.515-.769,3.1-1.415,4.624-2.161a6.528,6.528,0,0,0,1.749-1.092,15.371,15.371,0,0,1,2.752-2.34.982.982,0,0,0,.457-1.159.993.993,0,0,0-.98-.724,19.924,19.924,0,0,0-2.161-.056c-.7.022-1.393.111-2.15.167-.234-.813-.457-1.6-.68-2.4a.819.819,0,0,1,.2-.067,25.828,25.828,0,0,1,8.378.557c2.986.735,4.145,2.874,3.153,5.649-.145.412-.357.813-.49,1.226a.951.951,0,0,0,.446,1.192,1.05,1.05,0,0,0,1.27-.189,1.025,1.025,0,0,1,.49-.29,4.375,4.375,0,0,1,3.42,1.058,32.145,32.145,0,0,0,2.473,2.117,64,64,0,0,0,8.9,5.147c3.409,1.727,6.874,3.353,10.239,5.158a32.119,32.119,0,0,1,14.328,14.584,67.026,67.026,0,0,1,5.693,21.224c.357,3,.657,6.005.958,9.013C233.269,278.523,233.324,279.67,233.4,280.829Z" transform="translate(0.397 17.476)" fill="#be1622"/>
        <path id="Trazado_906097" data-name="Trazado 906097" d="M233.8,298.3c-.089-1.159-.145-2.306-.256-3.465-.3-3.008-.613-6.016-.958-9.013a66.733,66.733,0,0,0-5.693-21.224,32.064,32.064,0,0,0-14.328-14.584c-3.365-1.8-6.83-3.431-10.239-5.158a64.176,64.176,0,0,1-8.9-5.147,29.86,29.86,0,0,1-2.473-2.117,4.375,4.375,0,0,0-3.42-1.058.977.977,0,0,0-.49.29,1.066,1.066,0,0,1-1.27.189.951.951,0,0,1-.446-1.192c.134-.412.334-.813.49-1.226,1-2.763-.167-4.9-3.153-5.649a25.808,25.808,0,0,0-8.378-.557.82.82,0,0,0-.2.067c.223.791.446,1.582.68,2.4.746-.067,1.448-.145,2.15-.167a20.075,20.075,0,0,1,2.161.056.975.975,0,0,1,.98.724,1,1,0,0,1-.457,1.159,15.054,15.054,0,0,0-2.752,2.34,6.527,6.527,0,0,1-1.749,1.092c-1.526.746-3.108,1.4-4.624,2.161a19.482,19.482,0,0,1-6.484,1.671c-2.841.345-5.682.668-8.512,1.1a51.434,51.434,0,0,1-11.553.6c-3.721-.267-7.453-.524-11.175-.88a52.372,52.372,0,0,1-19.085-5.281,8,8,0,0,1-1.526-1.036.981.981,0,0,1,.067-1.738,6.7,6.7,0,0,1,1.382-.78c.914-.379,1.849-.724,2.785-1.047a.614.614,0,0,0,.5-.59c.022-.379.078-.769.123-1.192-.167.056-.29.089-.423.145-2.262.925-4.523,1.827-6.763,2.774a17.712,17.712,0,0,0-2.15,1.092,3.279,3.279,0,0,0-1.493,4c.379,1.537.78,3.064,1.181,4.59a1.761,1.761,0,0,1-.3,1.649.928.928,0,0,0-.134.368c-1.771.279-2.317-.724-2.451-2.195-.5.3-.925.557-1.348.8a51.349,51.349,0,0,1-10.74,4.479c-5.582,1.738-11.152,3.5-16.756,5.181-3.164.958-6.373,1.794-9.57,2.7A10.189,10.189,0,0,0,62.4,256.28c-.078-.134-.134-.234-.2-.357a.669.669,0,0,0-.156.078,18.458,18.458,0,0,0-1.393,2.005,24.415,24.415,0,0,0-2.128,7.208,56.111,56.111,0,0,0-.368,13.18c.423,6.4,1.292,12.745,2.15,19.1.033.256.067.524.1.78H55.518a88.725,88.725,0,0,1-1.281-10.562c-.045-.836-.111-1.671-.167-2.518v-4.846c.078-1.17.145-2.34.234-3.509a49.106,49.106,0,0,1,4.88-19.1,10.726,10.726,0,0,1,.869-1.459,17.5,17.5,0,0,1,1.159-1.315c-.056-.045-.134-.111-.323-.267a12.078,12.078,0,0,1,1.894-1.025c2.05-.691,4.1-1.415,6.206-1.927,6.317-1.515,12.456-3.565,18.617-5.515,4.167-1.315,8.311-2.718,12.434-4.167,1.315-.457,2.518-1.17,3.788-1.749a.612.612,0,0,0,.4-.646c.033-1.136.089-2.284.189-3.409a5.369,5.369,0,0,1,2.83-4.3,24.939,24.939,0,0,1,2.9-1.426c1.76-.758,3.554-1.482,5.337-2.206.49-.2,1-.323,1.615-.512.1-1.07.234-2.239.312-3.4.4-5.259.412-10.528.334-15.8-.033-2.407-.145-4.813-.234-7.219-.011-.368-.078-.735-.111-1.1a1.476,1.476,0,0,0-.624-1.159,5.385,5.385,0,0,1-.8-.791q-2.022-2.089-4.044-4.189a54.383,54.383,0,0,1-5.493-6.807,13.08,13.08,0,0,1-2.095-6.852c-.212-3.576-.256-7.153-.357-10.74-.033-1.1,0-2.206,0-3.22-.557.156-1.2.379-1.883.5a3.914,3.914,0,0,1-4.668-3.2c-.156-.824-.078-1.682-.212-2.507a3.335,3.335,0,0,0-.568-1.27c-.691-1.036-1.537-1.983-2.139-3.053-1.192-2.139-2.239-4.345-3.4-6.506a14.061,14.061,0,0,1-1.437-7.832,8.023,8.023,0,0,1,1.615-4.78,2.123,2.123,0,0,0,.312-.613,5.807,5.807,0,0,1,3-2.83,3.134,3.134,0,0,1,2.273-.056,5.835,5.835,0,0,1,3.376,2.262c1.081,1.515,2.083,3.064,3.131,4.6.078.111.145.234.189.3v-2.607a.445.445,0,0,0-.111-.29,4.152,4.152,0,0,1-.925-2.7c-.256-1.649-.5-3.3-.78-4.936a1.5,1.5,0,0,0-.457-.869,2.941,2.941,0,0,1-.98-2.05c-.045-.345-.078-.691-.123-1.081a1.5,1.5,0,0,1-1.315-.735,22.992,22.992,0,0,1-3.7-6.317,17.81,17.81,0,0,0-.958-1.894,5.1,5.1,0,0,0-.345,1.081c-.178,1.515-.3,3.042-.446,4.557-.1,1.159-.858,1.582-1.95,1.081a5.666,5.666,0,0,1-2.841-2.919c-.914-1.972-1.783-3.966-2.54-5.994-2.017-5.381-1.7-10.8.033-16.177.7-2.173,1.393-4.367,2.228-6.5a32.26,32.26,0,0,1,6.15-9.336c1.716-1.927,3.688-3.643,5.548-5.459.579-.568,1.359-.992,1.515-1.905-.111-.067-.267-.156-.412-.256a14.244,14.244,0,0,1-1.326-.947,1.82,1.82,0,0,1,.312-3.186,14.088,14.088,0,0,1,3.164-1.214,16.05,16.05,0,0,1,6.4-.212c2.362.312,4.7.735,7.052,1.136a3.953,3.953,0,0,1,1.259.39c.88.546,1.526.111,2.128-.4.468-.39.869-.858,1.315-1.281a47.662,47.662,0,0,1,20.611-11.832,23.97,23.97,0,0,1,5.559-.925,2.522,2.522,0,0,0,.49-.089h.668c1.081.123,2.173.189,3.242.379a37.064,37.064,0,0,1,11.442,4.133,79.888,79.888,0,0,1,18.517,14.172,96.615,96.615,0,0,1,8.256,9.37,26.493,26.493,0,0,1,4.445,8.49,12.272,12.272,0,0,0,.713,1.939A17.074,17.074,0,0,1,197,104.125a21.5,21.5,0,0,1-1.2,7.253,6.618,6.618,0,0,1-2.017,3.1,1.229,1.229,0,0,0-.29.59,3.345,3.345,0,0,1-1.437,2.106,10.359,10.359,0,0,0-1.7,1.649A4,4,0,0,1,187.7,120.4c0,.847.045,1.671-.011,2.484a4.265,4.265,0,0,1-2.039,3.61,1.681,1.681,0,0,0-.746,1.4,36.7,36.7,0,0,0,.067,7.253,30.326,30.326,0,0,1-.535,10.317,5.974,5.974,0,0,1-.111.668c-.078.167-.245.4-.39.412a.642.642,0,0,1-.49-.312,2.415,2.415,0,0,1-.178-.969c.056-1.883.212-3.755.2-5.626-.011-2.195-.167-4.378-.267-6.573a18.792,18.792,0,0,1,.512-5.849,3.4,3.4,0,0,1,.891-1.537,4.791,4.791,0,0,0,1.537-3.443c.056-.68.134-1.359.223-2.039.1-.735.435-.958,1.2-1.036a1.923,1.923,0,0,0,1.07-.446c.791-.713,1.5-1.493,2.251-2.251.045-.056.078-.134.134-.167a1.6,1.6,0,0,0,.7-2.251.49.49,0,0,1,.033-.412c.613-.98.178-1.983.111-2.975-.011-.089-.022-.167-.033-.256,0-.011.011-.033.056-.167.39.312.735.59,1.181.958.3-1,.646-1.961.88-2.941a21.563,21.563,0,0,0,.512-8.311,10.059,10.059,0,0,0-.624-2.173c-.7-1.749-1.426-3.5-2.195-5.225a21.264,21.264,0,0,0-1.671-3.2,84.828,84.828,0,0,0-22.817-23.207,44.055,44.055,0,0,0-11.509-5.827A22.545,22.545,0,0,0,141.6,60a44.206,44.206,0,0,0-12.456,5.649,31.478,31.478,0,0,0-8.033,6.752,8.729,8.729,0,0,1-1.259,1,.763.763,0,0,0-.212.368.673.673,0,0,1-.925.546c-1.2-.334-2.4-.7-3.61-.936q-3.342-.635-6.707-1.136a11.918,11.918,0,0,0-6.685.691c-.435.189-1.014.524-1.114.891-.156.546.535.813.98,1.07.49.279,1.025.479,1.549.713.446.2.869.435.9.969s-.368.746-.78.98a5.337,5.337,0,0,0-.813.691,69.931,69.931,0,0,0-7.888,7.843,31.9,31.9,0,0,0-6.317,12.3c-.512,1.916-1.17,3.81-1.549,5.749a21.5,21.5,0,0,0,1.326,12.556c.568,1.37,1.159,2.73,1.794,4.067a8.909,8.909,0,0,0,1.014,1.56,6.277,6.277,0,0,0,.824.769,20.351,20.351,0,0,1,.167-2.451,19.592,19.592,0,0,1,.758-2.462,1.708,1.708,0,0,1,.312-.5c.39-.5.8-1.014,1.56-.936.724.078.869.68,1.07,1.192.836.089.958.223,1.047,1a4.7,4.7,0,0,0,.3,1.226c.368.824.758,1.638,1.2,2.418s.98,1.526,1.471,2.273c.813-.234,1.148-.1,1.348.646s.323,1.549.457,2.328a2.273,2.273,0,0,0,.947,1.649,1.957,1.957,0,0,1,.724,1.081c.446,1.771.836,3.554,1.226,5.337a7.581,7.581,0,0,0,.59,1.994,6.85,6.85,0,0,1,.49,2.195c.123.925.223,1.849.256,2.774.045,1.448.056,2.9,0,4.334-.045,1.259-.212,2.518-.3,3.777-.011.189-.223.513.256.579.067.011.067.446.111.869.189-.2.379-.3.39-.423.134-1.8.234-3.61.345-5.415.067-1,.156-1.994.178-3,.011-.446-.145-.891-.156-1.337-.089-2.206-.089-4.423-.256-6.629-.089-1.159-.49-2.3-.691-3.454a16.579,16.579,0,0,1-.178-6.328,13.839,13.839,0,0,1,.735-1.916c.468-1.192.925-2.384,1.426-3.665-.657-.189-1.148-.368-1.649-.468a4.28,4.28,0,0,1-2.317-1.359,14.952,14.952,0,0,1-2.975-4.891,11.3,11.3,0,0,0-.657-1.459c-.078.98-.167,1.961-.245,2.941-.067.824-.134,1.649-.223,2.462a2.578,2.578,0,0,1-.223.758,1.13,1.13,0,0,1-1.716.423,1.588,1.588,0,0,1-.334-.279,10.175,10.175,0,0,1-2.7-4.2c-.357-1.3-.858-2.574-1.27-3.855a4.1,4.1,0,0,1-.167-.98c-.011-.123.145-.245.234-.368.1.089.234.167.29.279.568,1.148,1.058,2.317,1.682,3.431.68,1.237,1.471,2.418,2.217,3.621a2.175,2.175,0,0,0,.29.323c.1-1.292.156-2.5.29-3.688.1-.936.267-1.872.435-2.808a1.723,1.723,0,0,1,.3-.668.965.965,0,0,1,1.649-.033,4.2,4.2,0,0,1,.479.947,22.322,22.322,0,0,0,2.429,5,10.815,10.815,0,0,0,1.716,1.983,11.434,11.434,0,0,0,2.028,1.148c.033-.958.056-1.794.1-2.629q.067-1.287.167-2.574c.033-.39.223-.8.657-.8a1.474,1.474,0,0,1,.98.435,24.312,24.312,0,0,1,1.448,1.961c.067-.635.1-1.159.178-1.682.357-2.484.657-4.98,1.125-7.442a16.292,16.292,0,0,1,2.429-5.782c.546-.858,1.036-1.749,1.66-2.551a15.569,15.569,0,0,1,1.849-1.783,1.246,1.246,0,0,1,.59-.267.614.614,0,0,1,.49.134.488.488,0,0,1,.011.479c-1.627,2.54-2.028,5.4-2.273,8.267-.212,2.529-.245,5.08-.334,7.621a10.659,10.659,0,0,0,.123,1.571c.033.334.189.512.59.368.357-.134.735-.212,1.226-.345,0-.724-.022-1.471,0-2.228a26.782,26.782,0,0,1,2.652-9.938,26.468,26.468,0,0,1,2.952-5.169,17.392,17.392,0,0,1,6.986-5.559,41.412,41.412,0,0,1,14.484-3.454,68.67,68.67,0,0,1,21.1,2.161,21.158,21.158,0,0,1,8,3.365,12.613,12.613,0,0,1,2.284,2.206,15.184,15.184,0,0,1,3.075,5.793,11.126,11.126,0,0,1-.412,7.186,16.491,16.491,0,0,0-.691,3.175,6.88,6.88,0,0,1-.29,1.07,15.3,15.3,0,0,0-1.125,4.312c-.223,1.671-.557,3.32-.858,4.98a4.294,4.294,0,0,0,.68,3.22c.613.925,1.2,1.849,1.794,2.785a19.665,19.665,0,0,1,2.685,8.055c.813,5.771.357,11.565.368,17.358v3.476c.368-.033.746-.056,1.192-.089,0-.657-.045-1.3.011-1.939.156-1.627.323-3.242.546-4.858.078-.568.167-1.315.557-1.627.6-.479.434-1.07.6-1.582a19.816,19.816,0,0,1,4.9-7.554,5.967,5.967,0,0,1,1.459-1.036,4.226,4.226,0,0,1,5.236.579,7.712,7.712,0,0,1,2.373,4.534,23.827,23.827,0,0,1-.145,9.882,5.894,5.894,0,0,1-3.153,4,31.61,31.61,0,0,0-3.309,1.927,5.983,5.983,0,0,0-2.462,3.03,6.575,6.575,0,0,0-.022,2.718,9.789,9.789,0,0,1-.156,3.554c-.524,1.905-2.373,2.306-3.944,1.615a1.4,1.4,0,0,1-.546-.613c-.134-.245-.189-.524-.357-.791-.011.1-.033.2-.045.3-.256,2.685-.457,5.381-.8,8.066a28.053,28.053,0,0,1-2.184,6.5,22.423,22.423,0,0,1-7.275,9.437c-1.192.936-2.384,1.894-3.565,2.852a.535.535,0,0,0-.167.345c-.011,2.284-.111,4.568,0,6.841.134,2.518.39,5.047.713,7.543.468,3.621,1.047,7.231,1.6,10.84.3,1.961.7,3.911,1.014,5.86.078.49.312.59.8.6,1.961.045,3.922.067,5.871.234a15.6,15.6,0,0,1,3.565.735,5.817,5.817,0,0,1,3.81,6.306c-.033.29-.056.579-.089.947a6.192,6.192,0,0,0,1.047-.056,2.34,2.34,0,0,1,1.883.368c.568.412,1.192.769,1.749,1.192.624.479,1.192,1.025,1.794,1.537a6.958,6.958,0,0,0,.836.68,102.131,102.131,0,0,0,11.409,5.749,87.228,87.228,0,0,1,10.049,5.036A35.635,35.635,0,0,1,231.1,267.31a67.766,67.766,0,0,1,4.412,15.731c.691,4.746,1.192,9.515,1.771,14.272.033.312.022.635.033.947C236.106,298.3,234.958,298.3,233.8,298.3ZM182.071,157.514c-.145-.022-.245-.045-.357-.056-1.1-.167-1.27-.312-1.281-1.393-.011-1.459.056-2.919.056-4.367-.022-5.481.457-10.974-.557-16.444a18.309,18.309,0,0,0-2.785-7.465c-.546-.769-1.047-1.571-1.571-2.351a5.065,5.065,0,0,1-.724-4.089c.546-2.6,1.036-5.192,1.56-7.8.078-.357.256-.7.345-1.058a5.653,5.653,0,0,0,.189-1.07c.011-.312-.167-.657-.1-.947.189-.813.479-1.615.7-2.429a18.986,18.986,0,0,0,.724-2.9,8.957,8.957,0,0,0-.323-4.534,13.306,13.306,0,0,0-8.835-8.267,93.825,93.825,0,0,0-19.408-3.565,40.4,40.4,0,0,0-16.834,2.273c-3.231,1.159-6.116,2.785-7.955,5.626-3.276,5.08-5.571,10.484-5.559,16.567a6.7,6.7,0,0,1-.089,1.571,1.145,1.145,0,0,1-.668.713.961.961,0,0,1-.791-.39c-.2-.312-.423-.279-.691-.234-1.359.2-1.972-.212-2.128-1.482a36.415,36.415,0,0,1,.3-10.551c.123-.746.3-1.482.446-2.217a1.516,1.516,0,0,0-.334.435c-1.983,3.342-2.562,7.03-2.886,10.774-.111,1.281-.245,2.551-.412,3.821-.1.724-.357,1.415-1.237,1.56-.9.156-1.382-.446-1.794-1.07-.212-.312-.39-.624-.613-1,.022,1.627.067,3.153.045,4.69a12.819,12.819,0,0,1-1.036,4.445,6.954,6.954,0,0,0-.5,2.93,51.527,51.527,0,0,0,.613,6.54,37.539,37.539,0,0,1,.379,5.136c.056,1.348.056,2.707-.022,4.055-.111,1.783-.357,3.565-.512,5.348-.134,1.571-.223,3.153-.345,4.724-.056.735-.5,1.025-1.248.858-.089-.022-.167-.022-.312-.045.045.479.123.9.123,1.337.011,3.877-.011,7.765.033,11.643.033,3.621.123,7.231.189,10.852a20.942,20.942,0,0,0,.123,2.518,11.135,11.135,0,0,0,1.37,4.512,47.074,47.074,0,0,0,6.6,7.921c1.393,1.382,3.019,2.54,4.534,3.8,1.326,1.092,2.7,2.15,3.955,3.309,1.159,1.058,2.195,2.228,3.3,3.342a14.754,14.754,0,0,0,9.125,4.445c1.671.189,3.354.223,5.025.4a29.111,29.111,0,0,0,9.425-.635,12.645,12.645,0,0,0,5.314-3.153,37.937,37.937,0,0,1,6.206-4.323,83.776,83.776,0,0,0,12.1-7.977,25.547,25.547,0,0,0,4.679-4.824,16.1,16.1,0,0,0,1.816-2.941,48.452,48.452,0,0,0,1.905-5.147,36.3,36.3,0,0,0,1.214-10.384c.022-3.03-.212-6.072-.345-9.1C182.171,158.817,182.115,158.171,182.071,157.514Zm-13.057,39.039a5.856,5.856,0,0,0-.579.334c-.613.457-1.17.98-1.816,1.37-1.437.869-2.886,1.716-4.378,2.484a30.052,30.052,0,0,0-5.3,3.443,50.133,50.133,0,0,1-7.175,4.768,5.676,5.676,0,0,1-2.518.724c-.791.045-1.593.089-2.384.167a32.037,32.037,0,0,1-7.866.033c-1.749-.245-3.465-.713-5.225-.936a16.9,16.9,0,0,1-8.211-3.175c-.256-.189-.535-.345-.824-.524-.078.123-.134.2-.178.279a13.619,13.619,0,0,0-1.8,6.908,50.7,50.7,0,0,1-.646,8.813c-.423,3.1-.9,6.183-1.359,9.269-.189,1.3-.357,2.607-.568,3.911-.067.446-.189.914-.813,1.047a1.948,1.948,0,0,0,.2.123,58.394,58.394,0,0,0,16.188,3.788c3.253.323,6.518.568,9.782.78a53.927,53.927,0,0,0,11.676-.59c2.518-.39,5.058-.635,7.587-.9a20.655,20.655,0,0,0,6.44-1.46c1.66-.758,3.376-1.426,5.058-2.139.2-.089.4-.178.6-.279a2.053,2.053,0,0,1-1.783-1.281,17.406,17.406,0,0,1-.992-2.73,117.053,117.053,0,0,1-2.005-13.169c-.4-3.1-.735-6.206-1.047-9.314a59.687,59.687,0,0,1-.223-9.57C168.913,198.012,168.958,197.321,169.013,196.552Zm14.918-41.523a1.916,1.916,0,0,0,2.306.156,2.72,2.72,0,0,0,1.537-1.905,30.473,30.473,0,0,0,.668-3.454c.345-2.707,1.515-4.846,4.278-5.994,1.2-.5,2.161-.223,2.562.958a5.682,5.682,0,0,1,.29,2.317c-.123,1.359-.457,2.7-.668,4.044-.067.434-.212.758-.713.78-.412.022-.7-.312-.724-.836a14.09,14.09,0,0,0-.033-1.682,11.982,11.982,0,0,0-.6-2.228c-.234-.624-.969-.914-1.37-.579a3.678,3.678,0,0,0-1.237,1.437c-.446,1.337-.691,2.73-1.036,4.167.29,0,.457-.011.624,0a2.32,2.32,0,0,1,2.195,1.716c.234,1-.033,1.426-1.192,2.005a16.342,16.342,0,0,0-.022-1.95,1.154,1.154,0,0,0-1.237-.925c-.646-.011-.59.468-.668.836a3.472,3.472,0,0,1-2.919,2.763,17.346,17.346,0,0,1-2.05.167c0,.245-.011.535,0,.836.134,3,.3,5.994.39,9a1.507,1.507,0,0,0,.635,1.315,4,4,0,0,0,1.3.49c1.148.256,1.794-.089,1.95-1.181a10.18,10.18,0,0,0,.045-3.131,5.6,5.6,0,0,1,2.005-5.7,33.544,33.544,0,0,1,4.022-2.785,6.038,6.038,0,0,0,2.952-3.888,21.145,21.145,0,0,0,.145-9.191,6.337,6.337,0,0,0-2.317-4.078,3.047,3.047,0,0,0-3.7-.234,6.12,6.12,0,0,0-1.192.858,16.606,16.606,0,0,0-4.523,7.019c-.5,1.716-.936,3.465-1.593,5.136a8.2,8.2,0,0,0-.513,2.6c-.033.691-.011,1.37-.011,2.061.045,0,.089.011.134.011A7.65,7.65,0,0,0,183.931,155.029Zm-80.072-3.9c.156-1.95.3-3.833.446-5.715a.742.742,0,0,0-.1-.4c-.468-.869-.869-1.771-1.415-2.6-1.081-1.615-2.195-3.209-3.376-4.757a5.211,5.211,0,0,0-2.785-1.994c-1.326-.357-1.6-.223-2.251.624-.446.579-.958,1.125-1.348,1.738a7.307,7.307,0,0,0-1.114,2.273,14.27,14.27,0,0,0,.067,6.328,39.1,39.1,0,0,0,2.284,5.961,18.345,18.345,0,0,0,3.966,6.027,3.426,3.426,0,0,1,.98,2.774c-.033.668-.033,1.337-.011,2.005.056,1.281.657,1.849,1.961,2.061a3.872,3.872,0,0,0,2.484-.7.586.586,0,0,0,.357-.635c-.045-1-.078-2.005-.067-3.008.033-2.752.089-5.515.167-8.267a.816.816,0,0,0-.646-.9,7.952,7.952,0,0,1-1.27-.635c-.49-.267-.769-.88-1.482-.746-.223.045-.5-.022-.68.089a1.764,1.764,0,0,0-.791,2.017,5.438,5.438,0,0,1,.312,1.058.934.934,0,0,1-.357.78,1.227,1.227,0,0,1-.9-.067.849.849,0,0,1-.412-.59,3.943,3.943,0,0,1,.791-3.476,2.725,2.725,0,0,1,1.961-.8c-.813-2.083-.7-4.323-1.66-6.272a3.05,3.05,0,0,0-2.763,2.674c-.178,1-.256,2.017-.368,3.019-.045.4-.078.824-.613.858-.49.033-.613-.334-.713-.724a16.005,16.005,0,0,1-.412-6.417,12.35,12.35,0,0,1,.668-2.6,1.267,1.267,0,0,1,1.905-.668,5.592,5.592,0,0,1,1.515,1.125,10.091,10.091,0,0,1,2.34,4.824c.267,1.148.468,2.306.8,3.431A3.58,3.58,0,0,0,103.86,151.13Z" transform="translate(0)" fill="#311d48"/>
        <path id="Trazado_906098" data-name="Trazado 906098" d="M119.182,171.195h0a1.182,1.182,0,0,1,.267.223c.234.245.468.5.68.769a10.2,10.2,0,0,0,5.314,3.443,28.633,28.633,0,0,0,10.64,1.092c1.7-.134,3.4-.468,5.08-.769a12,12,0,0,0,4.245-1.627c1.537-.969,3.042-1.983,4.557-2.975a.679.679,0,0,1-.056-.134c-2.429-.178-4.869-.357-7.3-.546-1.237-.1-2.473-.223-3.7-.3a1.978,1.978,0,0,0-.836.178,10.609,10.609,0,0,1-8.133.189,4.98,4.98,0,0,0-2.484-.323c-1.8.156-3.621.256-5.426.368-1.2.078-2.4.178-3.6.189a2.985,2.985,0,0,1-.446-.022,1.512,1.512,0,0,0,.579.212A.6.6,0,0,1,119.182,171.195Z" transform="translate(7.294 12.857)" fill="#e1a06d"/>
        <path id="Trazado_906099" data-name="Trazado 906099" d="M176.935,156.291c-.022-.646-.089-1.292-.134-1.939-.145-.022-.245-.045-.357-.056-1.1-.167-1.27-.312-1.281-1.393-.011-1.459.056-2.919.056-4.367-.022-5.481.457-10.974-.557-16.444a18.309,18.309,0,0,0-2.785-7.465c-.546-.769-1.047-1.571-1.571-2.351a5.065,5.065,0,0,1-.724-4.089c.546-2.6,1.036-5.192,1.56-7.8.078-.357.256-.7.345-1.058a5.653,5.653,0,0,0,.189-1.07c.011-.312-.167-.657-.1-.947.189-.824.479-1.615.7-2.429a18.988,18.988,0,0,0,.724-2.9,8.957,8.957,0,0,0-.323-4.534,13.306,13.306,0,0,0-8.835-8.267,93.826,93.826,0,0,0-19.408-3.565A40.4,40.4,0,0,0,127.6,87.895c-3.231,1.159-6.116,2.785-7.955,5.626-3.276,5.08-5.571,10.484-5.559,16.567a6.7,6.7,0,0,1-.089,1.571,1.145,1.145,0,0,1-.668.713.961.961,0,0,1-.791-.39c-.2-.312-.423-.279-.691-.234-1.359.2-1.972-.212-2.128-1.482a36.415,36.415,0,0,1,.3-10.551c.123-.746.3-1.482.446-2.217a1.516,1.516,0,0,0-.334.435c-1.983,3.342-2.562,7.03-2.886,10.774-.111,1.281-.245,2.551-.412,3.821-.1.724-.357,1.415-1.237,1.56-.9.156-1.382-.446-1.794-1.07-.212-.312-.39-.624-.613-1,.022,1.627.067,3.153.045,4.69a12.819,12.819,0,0,1-1.036,4.445,6.954,6.954,0,0,0-.5,2.93,51.526,51.526,0,0,0,.613,6.54,37.538,37.538,0,0,1,.379,5.136c.056,1.348.056,2.707-.022,4.055-.111,1.783-.357,3.565-.512,5.348-.134,1.571-.212,3.153-.345,4.724-.056.735-.5,1.025-1.248.858-.089-.022-.167-.022-.312-.045.045.479.123.9.123,1.337.011,3.877-.011,7.765.033,11.643.033,3.621.123,7.231.189,10.852a20.942,20.942,0,0,0,.123,2.518,11.135,11.135,0,0,0,1.37,4.512,47.074,47.074,0,0,0,6.6,7.921c1.393,1.382,3.019,2.54,4.534,3.8,1.326,1.092,2.7,2.15,3.955,3.309,1.159,1.058,2.195,2.228,3.3,3.342a14.754,14.754,0,0,0,9.125,4.445c1.671.189,3.353.223,5.025.4a29.112,29.112,0,0,0,9.425-.635,12.645,12.645,0,0,0,5.314-3.153,37.937,37.937,0,0,1,6.206-4.323,83.776,83.776,0,0,0,12.1-7.977,25.548,25.548,0,0,0,4.679-4.824,16.1,16.1,0,0,0,1.816-2.941,48.451,48.451,0,0,0,1.905-5.147,36.3,36.3,0,0,0,1.214-10.384C177.291,162.363,177.057,159.321,176.935,156.291Zm-37.646-27.318c.056-.691.635-1.014,1.125-.557,1.571,1.482,3.443,1.348,5.348.969,1.872-.368,3.721-.891,5.6-1.248,1.058-.2,2.161-.189,3.242-.3.646-.067,1.292-.178,1.939-.234a11.071,11.071,0,0,1,1.359-.011,6.534,6.534,0,0,1,1.315.167c.412.111.791.357,1.192.49a15.6,15.6,0,0,1,4.145,2.206,6.383,6.383,0,0,1,2.718,4.468c.111.836.245,1.66.368,2.5,0,.4-.078.769-.546.88s-.646-.212-.891-.524a6.965,6.965,0,0,0-1.248-1.315c-.869-.68-1.794-1.292-2.718-1.905a9.6,9.6,0,0,0-1.192-.668,3,3,0,0,0-2.017-.39,14.83,14.83,0,0,1-3.153.123,44.056,44.056,0,0,0-6.406.49,16.52,16.52,0,0,1-6.607-.256A4.713,4.713,0,0,1,139.289,128.972Zm25.5,11.609c-1.014-.7-2.05-1.37-3.008-2.139a10.827,10.827,0,0,0-5.337-2.629,18.548,18.548,0,0,0-8.868.59c-.357.134-.691.323-1.047.457a2.709,2.709,0,0,1-.613.089c-.022-.078-.033-.156-.056-.234a11.006,11.006,0,0,1,1.27-.6,21.5,21.5,0,0,1,9.8-.691,12.246,12.246,0,0,1,6.4,3.587c.546.512,1.058,1.07,1.549,1.582C164.9,140.6,164.835,140.615,164.791,140.582Zm-40.208,25.212a2.2,2.2,0,0,1-2.117-2.941,12.562,12.562,0,0,1,1.526-2.284.475.475,0,0,1,.223-.156c1.025-.323,2.061-.635,3.1-.958.022.045.033.089.056.134-.334.145-.657.3-1,.412a4.581,4.581,0,0,0-3.008,2.819,1.354,1.354,0,0,0,.9,2.005c-.334-.8-.056-1.4.858-1.515a12.215,12.215,0,0,1,2.852.045,2.442,2.442,0,0,1,1.092.657c1.627,1.348,3.331,2.462,5.649,2.139,1.114-.156,2.251-.223,3.342-.479a12.726,12.726,0,0,0,2.206-.936.643.643,0,0,0,.256-.189,3.539,3.539,0,0,1,3.164-1.181c.39.011.746.167.8.59s-.279.668-.646.758c-.735.178-1.482.279-2.217.412a1.413,1.413,0,0,0-.6.178,9.61,9.61,0,0,1-5.337,1.849,14.062,14.062,0,0,1-3.209.033,9.664,9.664,0,0,1-3.844-1.905,1.333,1.333,0,0,0-.68-.223c-.88.011-1.771.067-2.707.111C125.3,165.683,125.162,165.816,124.582,165.794Zm19.72-.512c.5-.178,1.025-.3,1.5-.524a1.043,1.043,0,0,0,.68-1.348,5.919,5.919,0,0,0-1.426-2.7,3.216,3.216,0,0,0-1.036-.568c-.412-.178-.847-.3-1.27-.446.022-.056.033-.1.056-.156l2.451.6c.033.011.067.033.1.045a4.7,4.7,0,0,1,1.727,3.955,1.739,1.739,0,0,1-1.226,1.192,18.314,18.314,0,0,1-1.883.412c-.111.022-.234-.045-.379-.2C143.823,165.471,144.057,165.36,144.3,165.282Zm-8.445-1.66a19.865,19.865,0,0,0,3.3-.657,5.87,5.87,0,0,0,1.214-.68,1.076,1.076,0,0,1-.067.468,1.222,1.222,0,0,1-.457.434,8.464,8.464,0,0,1-6.451.9,2.757,2.757,0,0,1-1.693-1.181c-.423-.668-.891-1.315-1.348-1.972a1.185,1.185,0,0,0,.123-.1c.245.3.524.579.746.9A4.713,4.713,0,0,0,135.857,163.621Zm-4.2-11.464a2.125,2.125,0,0,0,.123-1.415,12.441,12.441,0,0,1-.267-2.407c-.067-3.409-.089-6.818-.123-10.216-.011-.947,0-1.883.033-2.852.056.379.111.746.156,1.125.234,1.894.546,3.8.668,5.7.123,1.838.067,3.688.089,5.526.011,1.17.022,2.351.011,3.521a3.5,3.5,0,0,1-.2.869,9.721,9.721,0,0,0-.312,1.214c-.056.457.156.769.724.791.145,0,.279.145.423.223a1.313,1.313,0,0,1-.435.245,3.569,3.569,0,0,0-2.618,1.916c-.167.323-.056.758-.1,1.148a2.886,2.886,0,0,1-.2.568c-.189-.089-.535-.167-.557-.29a2.321,2.321,0,0,1,.033-1.27,6.25,6.25,0,0,1,1.259-1.56,7.333,7.333,0,0,1,1.315-.791A1.9,1.9,0,0,1,131.657,152.157ZM104.172,135.5a39.712,39.712,0,0,1,.836-4.122,7.43,7.43,0,0,1,4.824-4.88,12.5,12.5,0,0,1,8.133-.479,43.286,43.286,0,0,0,8.345,1.593,10.811,10.811,0,0,0,2.462-.2c.4-.067.635-.011.691.357a24.494,24.494,0,0,1,.379,2.964c.045,1.148-.49,1.716-1.95,1.939a8.741,8.741,0,0,1-2.518-.156c-1.37-.2-2.718-.524-4.089-.7s-2.73-.256-4.468-.412a20.781,20.781,0,0,0-4.223.635,9.847,9.847,0,0,0-4.791,3.008c-.423.535-.9,1.025-1.292,1.582-.412.6-1.114.713-1.7.992-.345.156-.7-.167-.724-.646A9.231,9.231,0,0,1,104.172,135.5Zm18.3.279a.464.464,0,0,1-.045.111c-.758-.178-1.549-.3-2.284-.546a10.576,10.576,0,0,0-8.211.668c-.724.345-1.448.7-2.161,1.07a4.781,4.781,0,0,0-2.072,1.994.776.776,0,0,1-.212.312,2.318,2.318,0,0,1-.479.212c-.011-.178-.1-.423-.011-.546a7.707,7.707,0,0,1,2.585-2.273,20.042,20.042,0,0,1,5.793-2.206,10.557,10.557,0,0,1,5.749.657C121.574,135.423,122.031,135.6,122.477,135.78Zm-14.294,7.086c-.824.2-1.571.423-2.34.568a2.527,2.527,0,0,1-2.317-.769.489.489,0,0,1-.111-.423.514.514,0,0,1,.357-.256c.691-.123,1.393-.2,2.072-.334a1.061,1.061,0,0,0,.59-.323c1.526-2.262,3.877-3.3,6.506-3.866a17.281,17.281,0,0,1,6.239-.3,14.931,14.931,0,0,1,5.827,1.916,1.092,1.092,0,0,1,.357.312.5.5,0,0,1,.033.435c-.056.1-.267.134-.412.156a3.842,3.842,0,0,1-.6-.022c.256,1.125.936,2.173.668,3.331-.111.022-.223.056-.334.078-.212-.479-.412-.969-.635-1.493-.958,1.671-2.763,1.95-4.468,2.306-2.752.59-5.526,1.047-8.322.223A7.91,7.91,0,0,1,108.183,142.866Zm4.8,4.323a1.427,1.427,0,0,1-.3-.056c3.175-.323,6.44.223,9.537-1.136-.212.167-.39.412-.635.49a12.334,12.334,0,0,1-2.774.691C116.861,147.277,114.923,147.2,112.984,147.188Zm29.368,43.7c-.022.078-.29.167-.412.134a21.7,21.7,0,0,0-8.3-.435.433.433,0,0,1-.167-.022c-.011-.045-.011-.078-.022-.123.735-.111,1.482-.212,2.217-.345a15.23,15.23,0,0,1,5.727.056,2.575,2.575,0,0,1,.824.279A.5.5,0,0,1,142.352,190.884Zm12.177-10.15a2.979,2.979,0,0,0-1.905,1.014,21.539,21.539,0,0,1-7.465,4.434,29.5,29.5,0,0,1-12.512.925c-1.515-.2-3.008-.546-4.5-.858a11.1,11.1,0,0,1-6.941-4.468c-.223-.3-.39-.691-.925-.579a.539.539,0,0,1-.234-.067,2.235,2.235,0,0,1,.535-.3,1.448,1.448,0,0,1-.579-.212,9.276,9.276,0,0,1-1.237-.223c-.2-.045-.345-.3-.512-.457.2-.145.423-.423.6-.4.524.067.8-.267,1.192-.446,2.373-1.092,4.78-2.128,7.186-3.175a6.817,6.817,0,0,1,5.637-.022,17.653,17.653,0,0,0,1.838.59,6.36,6.36,0,0,0,5.136-.791c.111-.056.357-.1.379-.056.223.357.546.178.836.178a5,5,0,0,1,1.159.045,15.521,15.521,0,0,1,4.858,1.727,12.756,12.756,0,0,0,5.136,1.872c.713.078,1.437.056,2.15.078.256.011.59-.178.7.212C155.154,180.155,154.886,180.734,154.53,180.734Zm9.5-36.576c-.635-.123-1.27-.245-1.905-.345a.929.929,0,0,0-.423.056,16.486,16.486,0,0,1-7.465.891,34.574,34.574,0,0,1-6.685-.891,3.883,3.883,0,0,1-2.3-1.5,1.273,1.273,0,0,1-.178-1.248c.078-.334.189-.668.3-1.07a5.556,5.556,0,0,1-.59.033,2.969,2.969,0,0,1-.524-.123c.089-.145.145-.368.29-.423,1.17-.512,2.329-1.047,3.532-1.482a15.069,15.069,0,0,1,6.038-.992,16.776,16.776,0,0,1,3.064.434,7.3,7.3,0,0,1,1.56.836c.758.4,1.515.8,2.284,1.181a5.538,5.538,0,0,1,2.217,2.017,1.53,1.53,0,0,0,.613.579c1.014.457,2.039.891,3.064,1.3.568.234,1.148.423,1.816.657A9.038,9.038,0,0,1,164.033,144.158Z" transform="translate(5.27 3.173)" fill="#d18941"/>
        <path id="Trazado_906100" data-name="Trazado 906100" d="M162.528,182.33c-.056.769-.1,1.471-.145,2.161a58.4,58.4,0,0,0,.223,9.57c.312,3.108.646,6.217,1.047,9.314a114.564,114.564,0,0,0,2.005,13.169,17.4,17.4,0,0,0,.992,2.73,2.022,2.022,0,0,0,1.783,1.281c-.2.089-.4.189-.6.279-1.682.713-3.4,1.382-5.058,2.139a20.827,20.827,0,0,1-6.44,1.459c-2.529.279-5.069.524-7.587.9a53.89,53.89,0,0,1-11.676.591c-3.264-.212-6.529-.457-9.782-.78a58.393,58.393,0,0,1-16.188-3.788c-.045-.022-.089-.056-.2-.123.624-.134.746-.6.813-1.047.212-1.3.379-2.607.568-3.911.457-3.086.936-6.172,1.359-9.269a50.7,50.7,0,0,0,.646-8.813,13.619,13.619,0,0,1,1.8-6.908c.045-.078.1-.145.178-.279.279.178.568.334.824.524a16.861,16.861,0,0,0,8.211,3.175c1.749.223,3.465.691,5.225.936a32.038,32.038,0,0,0,7.866-.033c.791-.078,1.582-.134,2.384-.167a5.675,5.675,0,0,0,2.518-.724,50.133,50.133,0,0,0,7.175-4.768,31.815,31.815,0,0,1,5.3-3.443c1.493-.769,2.941-1.615,4.378-2.484.646-.39,1.2-.914,1.816-1.37A3.714,3.714,0,0,1,162.528,182.33Z" transform="translate(6.485 14.222)" fill="#d18941"/>
        <path id="Trazado_906101" data-name="Trazado 906101" d="M170.67,146.83c-.089.345-.167.635-.245.914-.045,0-.089-.011-.134-.011,0-.691-.033-1.37.011-2.061a7.9,7.9,0,0,1,.512-2.6c.657-1.671,1.081-3.42,1.593-5.136a16.606,16.606,0,0,1,4.523-7.019,5.8,5.8,0,0,1,1.192-.858,3.048,3.048,0,0,1,3.7.234,6.31,6.31,0,0,1,2.317,4.078,21.317,21.317,0,0,1-.145,9.191,6.047,6.047,0,0,1-2.952,3.888,32.307,32.307,0,0,0-4.022,2.785,5.6,5.6,0,0,0-2.005,5.7,10.185,10.185,0,0,1-.045,3.131c-.156,1.092-.8,1.437-1.95,1.181a4,4,0,0,1-1.3-.49,1.445,1.445,0,0,1-.635-1.315c-.1-3-.256-5.994-.39-9-.011-.29,0-.59,0-.836a17.345,17.345,0,0,0,2.05-.167,3.472,3.472,0,0,0,2.919-2.763c.089-.368.033-.847.668-.836a1.161,1.161,0,0,1,1.237.925,16.342,16.342,0,0,1,.022,1.95c1.159-.579,1.426-1,1.192-2.005A2.32,2.32,0,0,0,176.586,144c-.167-.011-.334,0-.624,0,.345-1.437.59-2.83,1.036-4.167a3.959,3.959,0,0,1,1.237-1.437c.4-.334,1.136-.045,1.37.579a11.752,11.752,0,0,1,.6,2.228,14.083,14.083,0,0,1,.033,1.682c.022.524.312.858.724.836.5-.022.646-.345.713-.78.212-1.348.546-2.685.668-4.044a5.854,5.854,0,0,0-.29-2.317c-.4-1.181-1.37-1.459-2.562-.958-2.763,1.148-3.933,3.287-4.278,5.994a33.146,33.146,0,0,1-.668,3.454,2.72,2.72,0,0,1-1.537,1.905A1.929,1.929,0,0,1,170.67,146.83Z" transform="translate(13.261 8.199)" fill="#d18941"/>
        <path id="Trazado_906102" data-name="Trazado 906102" d="M100.016,143.162a3.546,3.546,0,0,1-2.529-2.3c-.334-1.125-.535-2.3-.8-3.431a10.039,10.039,0,0,0-2.34-4.824,5.831,5.831,0,0,0-1.515-1.125,1.269,1.269,0,0,0-1.905.668,12.348,12.348,0,0,0-.668,2.6,15.807,15.807,0,0,0,.412,6.417c.1.39.223.758.713.724.535-.033.568-.457.613-.858.111-1.014.189-2.028.368-3.019a3.061,3.061,0,0,1,2.763-2.674c.958,1.95.858,4.189,1.66,6.272a2.681,2.681,0,0,0-1.961.8,3.943,3.943,0,0,0-.791,3.476.849.849,0,0,0,.412.59,1.177,1.177,0,0,0,.9.067,1.016,1.016,0,0,0,.357-.78,4.762,4.762,0,0,0-.312-1.058,1.758,1.758,0,0,1,.791-2.017c.167-.111.457-.045.68-.089.713-.134,1,.479,1.482.746a10.389,10.389,0,0,0,1.27.635.826.826,0,0,1,.646.9c-.067,2.752-.123,5.515-.167,8.267-.011,1,.022,2.005.067,3.008a.6.6,0,0,1-.357.635,3.807,3.807,0,0,1-2.484.7c-1.3-.212-1.905-.78-1.961-2.061a17.2,17.2,0,0,1,.011-2.005,3.39,3.39,0,0,0-.98-2.774,18.345,18.345,0,0,1-3.966-6.027,39.547,39.547,0,0,1-2.284-5.961,14.268,14.268,0,0,1-.067-6.328,7.427,7.427,0,0,1,1.114-2.273,19.652,19.652,0,0,1,1.348-1.738c.646-.847.925-.98,2.251-.624a5.211,5.211,0,0,1,2.785,1.994c1.181,1.549,2.3,3.142,3.376,4.757a29.273,29.273,0,0,1,1.415,2.6.741.741,0,0,1,.1.4C100.317,139.329,100.172,141.212,100.016,143.162Z" transform="translate(3.844 7.968)" fill="#d18941"/>
        <path id="Trazado_906103" data-name="Trazado 906103" d="M116.435,127.309a20.78,20.78,0,0,0-4.222.635,9.847,9.847,0,0,0-4.791,3.008c-.423.535-.9,1.025-1.292,1.582-.412.6-1.114.713-1.7.992-.345.156-.7-.167-.724-.646a6.485,6.485,0,0,1,.078-1.471,39.716,39.716,0,0,1,.836-4.122,7.43,7.43,0,0,1,4.824-4.88,12.5,12.5,0,0,1,8.133-.479,43.286,43.286,0,0,0,8.345,1.593,10.811,10.811,0,0,0,2.462-.2c.4-.067.635-.011.691.357a24.5,24.5,0,0,1,.379,2.964c.045,1.148-.49,1.716-1.95,1.939a8.741,8.741,0,0,1-2.518-.156c-1.37-.2-2.718-.524-4.089-.7C119.555,127.532,118.185,127.454,116.435,127.309Z" transform="translate(5.663 7.276)" fill="#311d48"/>
        <path id="Trazado_906104" data-name="Trazado 906104" d="M163.647,133.119c0,.4-.078.769-.546.88s-.646-.212-.891-.524a6.964,6.964,0,0,0-1.248-1.315c-.869-.68-1.794-1.292-2.718-1.905a9.6,9.6,0,0,0-1.192-.668,3,3,0,0,0-2.017-.39,14.832,14.832,0,0,1-3.153.123,44.056,44.056,0,0,0-6.406.49,16.52,16.52,0,0,1-6.607-.256,4.72,4.72,0,0,1-3.587-4.891c.056-.691.635-1.014,1.125-.557,1.571,1.482,3.443,1.348,5.348.969,1.872-.368,3.721-.891,5.6-1.248,1.058-.2,2.161-.189,3.242-.3.646-.067,1.292-.178,1.939-.234a11.051,11.051,0,0,1,1.359-.011,6.535,6.535,0,0,1,1.315.167c.412.111.791.357,1.192.49a15.6,15.6,0,0,1,4.145,2.206,6.383,6.383,0,0,1,2.718,4.468C163.4,131.459,163.525,132.284,163.647,133.119Z" transform="translate(9.266 7.482)" fill="#311d48"/>
        <path id="Trazado_906105" data-name="Trazado 906105" d="M150.08,171.683c-2.429-.178-4.869-.357-7.3-.546-1.237-.1-2.473-.223-3.7-.3a1.978,1.978,0,0,0-.836.178,10.609,10.609,0,0,1-8.133.189,4.98,4.98,0,0,0-2.484-.323c-1.8.156-3.621.256-5.426.368-1.2.078-2.4.178-3.6.189a6.761,6.761,0,0,1-1.693-.245c-.2-.045-.345-.3-.512-.457.2-.145.423-.423.6-.4.524.067.8-.267,1.192-.446,2.373-1.092,4.78-2.128,7.186-3.175a6.818,6.818,0,0,1,5.637-.022,17.65,17.65,0,0,0,1.838.59,6.36,6.36,0,0,0,5.136-.791c.111-.056.357-.1.379-.056.223.357.546.178.836.178a5,5,0,0,1,1.159.045,15.521,15.521,0,0,1,4.858,1.727,12.756,12.756,0,0,0,5.136,1.872c.713.078,1.437.056,2.15.078.256.011.59-.178.7.212.111.423-.145,1.014-.512,1.014a2.979,2.979,0,0,0-1.905,1.014,21.54,21.54,0,0,1-7.465,4.434,29.506,29.506,0,0,1-12.512.925c-1.515-.2-3.008-.546-4.5-.858a11.1,11.1,0,0,1-6.941-4.468c-.223-.3-.39-.691-.925-.579a.538.538,0,0,1-.234-.067c.657-.49,1-.479,1.437-.033.234.245.468.5.68.769a10.2,10.2,0,0,0,5.314,3.443,28.633,28.633,0,0,0,10.64,1.092c1.7-.134,3.4-.468,5.08-.769a12,12,0,0,0,4.245-1.627c1.537-.969,3.042-1.983,4.557-2.975ZM119.843,170.2c.011.022.011.045.022.067,2.251-.111,4.5-.212,6.763-.334a10.405,10.405,0,0,1,4.1.39,8.518,8.518,0,0,0,5.593.045,8.74,8.74,0,0,1,3.543-.457c2.6.212,5.192.457,7.832.691-.858-.435-1.693-.8-2.462-1.27a22.648,22.648,0,0,0-4.434-1.905,4.926,4.926,0,0,0-3.755.178,5.67,5.67,0,0,1-4.312.279c-.724-.256-1.482-.468-2.173-.791a4.644,4.644,0,0,0-4.011-.033C124.3,168.1,122.071,169.154,119.843,170.2Z" transform="translate(7.113 12.369)" fill="#311d48"/>
        <path id="Trazado_906106" data-name="Trazado 906106" d="M164.237,138.791a9.151,9.151,0,0,1-4.713.078c-.635-.123-1.27-.245-1.905-.345a.929.929,0,0,0-.423.056,16.486,16.486,0,0,1-7.465.891,34.572,34.572,0,0,1-6.685-.891,3.883,3.883,0,0,1-2.3-1.5,1.273,1.273,0,0,1-.178-1.248c.078-.334.189-.668.3-1.07a5.556,5.556,0,0,1-.59.033,2.969,2.969,0,0,1-.524-.123c.089-.145.145-.368.29-.423,1.17-.513,2.328-1.047,3.532-1.482a15.069,15.069,0,0,1,6.039-.992,16.778,16.778,0,0,1,3.064.434,7.3,7.3,0,0,1,1.56.836c.758.4,1.515.8,2.284,1.181a5.538,5.538,0,0,1,2.217,2.017,1.53,1.53,0,0,0,.613.579c1.014.457,2.039.891,3.064,1.3C162.989,138.367,163.58,138.557,164.237,138.791Zm-10.272-4.445c.022,2.106-.568,3.81-2.964,4.534a13.2,13.2,0,0,0,6.919-1.281C157.174,135.905,156.695,135.515,153.965,134.346Zm-10-.746c-.512.145-.992.267-1.448.412a.328.328,0,0,0-.178.167c-.167.312-.334.624-.49.936-.479,1-.423,1.794.29,2.3a8.291,8.291,0,0,0,3.242,1.036A4.291,4.291,0,0,1,143.96,133.6Zm3.576,2.674a10.976,10.976,0,0,0-.992-1.114.718.718,0,0,0-.657,0,1.008,1.008,0,0,0-.134.758c.045.189.29.345.468.49s.379.256.613.412C147.024,136.674,147.236,136.507,147.537,136.273Z" transform="translate(9.779 8.451)" fill="#311d48"/>
        <path id="Trazado_906107" data-name="Trazado 906107" d="M124.4,138.1c-.212-.479-.412-.969-.635-1.493-.958,1.671-2.763,1.95-4.468,2.306-2.752.59-5.526,1.047-8.322.223a7.929,7.929,0,0,1-3.108-1.549c-.824.2-1.571.423-2.34.568a2.527,2.527,0,0,1-2.317-.769.49.49,0,0,1-.111-.423.514.514,0,0,1,.357-.256c.691-.123,1.393-.2,2.072-.334a1.061,1.061,0,0,0,.59-.323c1.526-2.262,3.877-3.3,6.506-3.866a17.28,17.28,0,0,1,6.239-.3,14.931,14.931,0,0,1,5.827,1.916,1.092,1.092,0,0,1,.357.312.5.5,0,0,1,.033.435c-.056.1-.267.134-.412.156a3.842,3.842,0,0,1-.6-.022c.256,1.125.936,2.173.668,3.331C124.626,138.047,124.514,138.07,124.4,138.1Zm-5.548.178c.813-.267,1.627-.546,2.451-.8a3.3,3.3,0,0,0,2.072-1.849c.145-.3-.011-1.337-.267-1.415-.914-.279-1.849-.524-2.886-.8C120.593,135.362,120.548,137.034,118.855,138.281Zm-7.821-3.955a15.79,15.79,0,0,0-1.994.936,3.634,3.634,0,0,0-.947,1.1c-.189.29-.067.546.267.78a9.823,9.823,0,0,0,5.47,1.526C111.022,137.546,111.022,137.546,111.034,134.326Zm3.454.8c-.49.156-.969.279-1.426.446-.312.123-.512.49-.279.668a3.813,3.813,0,0,0,1.471.735c.234.056.724-.279.847-.535a1.638,1.638,0,0,0-.056-1.025C115,135.3,114.7,135.24,114.487,135.128Z" transform="translate(5.594 8.448)" fill="#311d48"/>
        <path id="Trazado_906108" data-name="Trazado 906108" d="M123,157.607c.033.512-.1.646-.68.613a2.2,2.2,0,0,1-2.117-2.941,12.562,12.562,0,0,1,1.526-2.284.475.475,0,0,1,.223-.156c1.025-.323,2.061-.635,3.1-.958.022.045.033.089.056.134-.334.145-.657.3-1,.412a4.581,4.581,0,0,0-3.008,2.819,1.354,1.354,0,0,0,.9,2.005c-.334-.8-.056-1.4.858-1.515a12.215,12.215,0,0,1,2.852.045,2.442,2.442,0,0,1,1.092.657c1.627,1.348,3.331,2.462,5.649,2.139,1.114-.156,2.251-.223,3.342-.479a12.726,12.726,0,0,0,2.206-.936.644.644,0,0,0,.256-.189,3.539,3.539,0,0,1,3.164-1.181c.39.011.746.167.8.59s-.279.668-.646.758c-.735.178-1.482.279-2.217.412a1.414,1.414,0,0,0-.6.178,9.61,9.61,0,0,1-5.337,1.849,14.063,14.063,0,0,1-3.209.033,9.664,9.664,0,0,1-3.844-1.905,1.332,1.332,0,0,0-.68-.223C124.818,157.506,123.938,157.562,123,157.607Z" transform="translate(7.529 10.748)" fill="#311d48"/>
        <path id="Trazado_906109" data-name="Trazado 906109" d="M128.746,149.11a1.875,1.875,0,0,1-.033-2.05,2.125,2.125,0,0,0,.123-1.415,12.44,12.44,0,0,1-.267-2.407c-.067-3.409-.089-6.818-.123-10.216-.011-.947,0-1.894.033-2.852.056.379.111.746.156,1.125.234,1.894.546,3.8.668,5.7.123,1.838.067,3.688.089,5.526.011,1.17.022,2.351.011,3.521a3.5,3.5,0,0,1-.2.869,9.724,9.724,0,0,0-.312,1.214c-.056.457.156.769.724.791.145,0,.279.145.423.223a1.313,1.313,0,0,1-.435.245,3.569,3.569,0,0,0-2.618,1.916c-.167.323-.056.758-.1,1.148a2.886,2.886,0,0,1-.2.568c-.189-.089-.535-.167-.557-.29a2.321,2.321,0,0,1,.033-1.27,6.25,6.25,0,0,1,1.259-1.56A7.869,7.869,0,0,1,128.746,149.11Z" transform="translate(8.215 8.27)" fill="#311d48"/>
        <path id="Trazado_906110" data-name="Trazado 906110" d="M141.18,131.64a11.013,11.013,0,0,1,1.27-.6,21.5,21.5,0,0,1,9.8-.691,12.247,12.247,0,0,1,6.4,3.587c.546.512,1.058,1.07,1.549,1.582a.135.135,0,0,1-.089-.011c-1.014-.7-2.05-1.37-3.008-2.139a10.827,10.827,0,0,0-5.337-2.629,18.548,18.548,0,0,0-8.868.59c-.357.134-.691.323-1.047.457a2.711,2.711,0,0,1-.613.089C141.213,131.8,141.2,131.718,141.18,131.64Z" transform="translate(9.941 8.259)" fill="#311d48"/>
        <path id="Trazado_906111" data-name="Trazado 906111" d="M127.381,153.13c.245.3.524.579.746.9a4.74,4.74,0,0,0,4.646,1.883,19.862,19.862,0,0,0,3.3-.657,5.869,5.869,0,0,0,1.214-.68,1.076,1.076,0,0,1-.067.468,1.346,1.346,0,0,1-.457.446,8.464,8.464,0,0,1-6.451.9,2.757,2.757,0,0,1-1.693-1.181c-.423-.668-.891-1.315-1.348-1.972A1.049,1.049,0,0,1,127.381,153.13Z" transform="translate(8.353 10.89)" fill="#311d48"/>
        <path id="Trazado_906112" data-name="Trazado 906112" d="M121.755,130.879c-.758-.178-1.549-.3-2.284-.546a10.576,10.576,0,0,0-8.211.668c-.724.345-1.448.7-2.161,1.07a4.781,4.781,0,0,0-2.072,1.994.777.777,0,0,1-.212.312,2.318,2.318,0,0,1-.479.212c-.011-.178-.1-.423-.011-.546a7.707,7.707,0,0,1,2.585-2.273,20.042,20.042,0,0,1,5.793-2.206,10.557,10.557,0,0,1,5.749.657c.446.189.9.368,1.348.546A.467.467,0,0,0,121.755,130.879Z" transform="translate(5.959 8.185)" fill="#311d48"/>
        <path id="Trazado_906113" data-name="Trazado 906113" d="M138.445,151.97l2.451.6c.033.011.067.033.1.045a4.7,4.7,0,0,1,1.727,3.955,1.739,1.739,0,0,1-1.226,1.192,18.313,18.313,0,0,1-1.883.412c-.111.022-.234-.045-.379-.2.234-.1.468-.2.713-.29.5-.178,1.025-.3,1.5-.524a1.043,1.043,0,0,0,.68-1.348,5.919,5.919,0,0,0-1.426-2.7,3.216,3.216,0,0,0-1.036-.568c-.412-.178-.847-.3-1.27-.446A.935.935,0,0,1,138.445,151.97Z" transform="translate(9.623 10.758)" fill="#311d48"/>
        <path id="Trazado_906114" data-name="Trazado 906114" d="M130.06,179.761c.735-.111,1.482-.212,2.217-.345a15.23,15.23,0,0,1,5.727.056,2.576,2.576,0,0,1,.824.279.493.493,0,0,1,.123.446c-.022.078-.29.167-.412.134a21.7,21.7,0,0,0-8.3-.435.433.433,0,0,1-.167-.022C130.071,179.839,130.06,179.805,130.06,179.761Z" transform="translate(8.672 13.862)" fill="#311d48"/>
        <path id="Trazado_906115" data-name="Trazado 906115" d="M111.4,140.946c3.175-.323,6.44.223,9.537-1.136-.212.167-.39.412-.635.49a12.334,12.334,0,0,1-2.774.691c-1.939.1-3.877.022-5.827.011C111.6,140.991,111.5,140.958,111.4,140.946Z" transform="translate(6.542 9.37)" fill="#311d48"/>
        <path id="Trazado_906116" data-name="Trazado 906116" d="M119.49,170.146c2.239-1.047,4.456-2.106,6.707-3.131a4.606,4.606,0,0,1,4.011.033c.691.323,1.448.535,2.173.791a5.725,5.725,0,0,0,4.312-.279,4.926,4.926,0,0,1,3.755-.178,22.647,22.647,0,0,1,4.434,1.905c.769.468,1.615.836,2.462,1.27-2.64-.234-5.236-.479-7.832-.691a8.69,8.69,0,0,0-3.543.457,8.59,8.59,0,0,1-5.593-.045,10.637,10.637,0,0,0-4.1-.39c-2.251.123-4.5.223-6.763.334A.284.284,0,0,1,119.49,170.146Z" transform="translate(7.466 12.424)" fill="#e1a06d"/>
        <path id="Trazado_906117" data-name="Trazado 906117" d="M152.814,134.08c2.741,1.17,3.209,1.56,3.955,3.253a13.2,13.2,0,0,1-6.919,1.281C152.245,137.89,152.836,136.175,152.814,134.08Z" transform="translate(10.93 8.716)" fill="#fff"/>
        <path id="Trazado_906118" data-name="Trazado 906118" d="M143.779,133.41a4.257,4.257,0,0,0,1.415,4.846,8.232,8.232,0,0,1-3.242-1.036c-.713-.5-.78-1.292-.29-2.3.156-.312.323-.624.49-.936a.37.37,0,0,1,.178-.167C142.8,133.677,143.267,133.555,143.779,133.41Z" transform="translate(9.96 8.64)" fill="#fff"/>
        <path id="Trazado_906119" data-name="Trazado 906119" d="M146.927,135.931c-.3.234-.512.39-.724.557-.223-.156-.435-.267-.613-.412s-.423-.3-.468-.49a1.042,1.042,0,0,1,.134-.758.719.719,0,0,1,.657,0A8,8,0,0,1,146.927,135.931Z" transform="translate(10.388 8.793)" fill="#fff"/>
        <path id="Trazado_906120" data-name="Trazado 906120" d="M117.24,138.11c1.693-1.248,1.738-2.919,1.37-4.88,1.036.279,1.972.524,2.886.8.256.078.412,1.1.267,1.415a3.27,3.27,0,0,1-2.072,1.849C118.867,137.564,118.053,137.842,117.24,138.11Z" transform="translate(7.209 8.619)" fill="#fff"/>
        <path id="Trazado_906121" data-name="Trazado 906121" d="M110.531,134.06c-.011,3.22-.011,3.22,2.785,4.356a9.848,9.848,0,0,1-5.47-1.526c-.323-.234-.457-.49-.267-.78a3.634,3.634,0,0,1,.947-1.1A16.746,16.746,0,0,1,110.531,134.06Z" transform="translate(6.096 8.714)" fill="#fff"/>
        <path id="Trazado_906122" data-name="Trazado 906122" d="M113.506,134.78c.212.111.512.167.546.29a1.563,1.563,0,0,1,.056,1.025c-.134.267-.613.59-.847.535a3.892,3.892,0,0,1-1.471-.735c-.234-.178-.033-.557.279-.668C112.537,135.059,113.016,134.936,113.506,134.78Z" transform="translate(6.575 8.796)" fill="#fff"/>
      </g>
    </g>
  </g>
</svg>
