<svg xmlns="http://www.w3.org/2000/svg" xmlns:xlink="http://www.w3.org/1999/xlink" width="349" height="227.742" viewBox="0 0 349 227.742">
  <defs>
    <clipPath id="clip-path">
      <path id="Rectángulo_402017" data-name="Rectángulo 402017" d="M24,0H325a24,24,0,0,1,24,24V227.742a0,0,0,0,1,0,0H0a0,0,0,0,1,0,0V24A24,24,0,0,1,24,0Z" transform="translate(625.5 1461.947)" fill="#12263f" opacity="0.59"/>
    </clipPath>
  </defs>
  <g id="Enmascarar_grupo_1078952" data-name="Enmascarar grupo 1078952" transform="translate(-625.5 -1461.947)" clip-path="url(#clip-path)">
    <g id="Grupo_1097552" data-name="Grupo 1097552" transform="translate(626 1461.948)">
      <path id="Trazado_875153" data-name="Trazado 875153" d="M349,259.581H0V0H349Z" transform="translate(0 0)" fill="#f8c8de"/>
      <path id="Trazado_875154" data-name="Trazado 875154" d="M0,259.582,349,0H0Z" transform="translate(0 -0.001)" fill="#dd488b"/>
    </g>
    <g id="Grupo_1104317" data-name="Grupo 1104317" transform="translate(435.455 1413.922)">
      <path id="Trazado_906126" data-name="Trazado 906126" d="M431.327,290.055H292.268a2.4,2.4,0,0,1-.107-.391c-.782-6.633-1.6-13.254-2.31-19.9a207.99,207.99,0,0,1-1.232-21.2,68.8,68.8,0,0,1,.711-11.572,47.216,47.216,0,0,1,2.938-9.428,50.655,50.655,0,0,1,7.367-13.4,18.589,18.589,0,0,1,5.863-5.176c3.6-1.871,7.308-3.577,10.945-5.389q2.487-1.226,4.88-2.594a17.56,17.56,0,0,0,1.931-1.457c.012.19.024.32.036.45a21.76,21.76,0,0,0,1.445,6.965,48.756,48.756,0,0,0,5.946,10.708c1.575,2.2,3.127,4.43,4.631,6.669.663.995,1.232,1.433,2.108,1.291,1.078-.178,1.362-.936,1.587-1.741q1.244-4.584,2.511-9.168c.118-.415.3-.817.45-1.244,3.613,1.54,4.359,2.085,6.207,4.181a15.1,15.1,0,0,0,2.073,1.789c.9.723,1.812,1.421,2.736,2.108a2.267,2.267,0,0,0,.829.45c.178.036.415-.178.628-.284a3.556,3.556,0,0,0-.3-.438c-.118-.13-.284-.225-.415-.343-.734-.7-1.445-1.41-2.191-2.085-.959-.877-2.025-1.682-2.9-2.618a12.236,12.236,0,0,0-3.66-2.748c-.64-.308-1.291-.6-1.931-.912-1.433-.687-2.179-.545-2.914.734a33,33,0,0,0-1.9,3.909c-.569,1.362-.983,2.76-1.492,4.2-.118-.142-.213-.237-.3-.344-1.5-2.061-3.115-4.075-4.5-6.195-1.564-2.393-3.044-4.833-4.359-7.332-1.836-3.482-1.99-7.249-1.954-11.016a5.8,5.8,0,0,1,1.635-3.861,26.2,26.2,0,0,1,9.689-6.846c.971-.4,2-.675,3.115-1.042v.723c-.024,1.67-.036,3.34-.059,5.022-.012.936-.012.912-1.019,1.173a9.138,9.138,0,0,0-4.193,2.025c-.284.272-.474.545-.272.948a.978.978,0,0,1,.107.628,10.99,10.99,0,0,0,3.234,11,30.249,30.249,0,0,0,2.926,2.547q6.378,4.726,12.828,9.369c1.931,1.4,3.944,2.712,5.911,4.051a1.186,1.186,0,0,0,1.8-.261c1.315-1.848,2.653-3.672,3.838-5.579a44.6,44.6,0,0,1,8.374-10.1c2.606-2.31,5.129-4.691,7.687-7.036a25.7,25.7,0,0,0,4.323-5.851,1.032,1.032,0,0,0-.237-1.54,17.228,17.228,0,0,0-2.772-1.137,6.371,6.371,0,0,0-1.848-.107c-.4,0-.521-.13-.592-.45-.178-.959-.4-1.907-.6-2.855-.13-.592-.237-1.2-.391-1.907a35.508,35.508,0,0,1,6.562,2.665,29.465,29.465,0,0,1,7.628,6.349,3.308,3.308,0,0,1,.948,2.333,26.642,26.642,0,0,1-1.966,9c-2.215,5.686-5.283,11.051-8.208,16.476a1.138,1.138,0,0,1-.237.213c-.509-1.516-.948-2.973-1.481-4.406-.829-2.251-1.575-4.525-2.606-6.7-.983-2.061-2.416-2.239-4.359-.782-3.826,2.89-6.4,6.621-8.943,10.352a.6.6,0,0,0-.107.213c-.071.344-.64.758-.083,1.019s.77-.3,1.019-.616c1.777-2.274,3.471-4.608,5.342-6.823a34.409,34.409,0,0,1,3.85-3.684c.723-.628,1.244-.462,1.717.32a4.026,4.026,0,0,1,.32.64c.5,1.327.983,2.653,1.469,3.98.971,2.653,1.919,5.318,2.9,7.972a1.176,1.176,0,0,0,1.1.888,1.242,1.242,0,0,0,1.22-.758c2.1-3.85,4.3-7.664,6.266-11.572a43.659,43.659,0,0,0,3.873-10.435c.284-1.3.462-2.618.7-3.921a18.852,18.852,0,0,0,7.439,3.2c2.914.569,5.887.877,8.836,1.291a29.91,29.91,0,0,1,6.7,1.6,10.592,10.592,0,0,1,4.738,3.648,19.173,19.173,0,0,1,3.471,7.521c1.113,5.271,2.156,10.554,3.091,15.848a128.419,128.419,0,0,1,1.954,22.02c.024,7.3-.083,14.581-.261,21.877C431.872,280.105,431.552,285.08,431.327,290.055Z" transform="translate(0.677 22.049)" fill="#dedc00"/>
      <path id="Trazado_906127" data-name="Trazado 906127" d="M373.064,65.306c1.054.071,2.108.166,3.174.213a35.776,35.776,0,0,1,13.3,3.3,73.446,73.446,0,0,1,9.192,4.655c1.421.924,2.855,1.836,4.323,2.724a6.215,6.215,0,0,1,2.89,3.376.913.913,0,0,0,.569.557,6.817,6.817,0,0,1,2.949,1.4,35.693,35.693,0,0,1,12.591,15.86c1.113,2.7,2.547,5.318,3.08,8.161a71.96,71.96,0,0,1,1.374,9.227c.261,4.691.308,9.4.142,14.107a63.069,63.069,0,0,1-3.009,17c-1.22,3.826-2.085,7.735-3.21,11.584-.77,2.63-1.729,5.212-2.547,7.829a35.829,35.829,0,0,0-1.41,8.931c-.154,3.163-.13,6.337-.154,9.5A37.455,37.455,0,0,0,418.24,194.7a75.006,75.006,0,0,1,2.831,13.444c.438,4.051.794,8.114.012,12.153a10.994,10.994,0,0,0-.118,3.293.874.874,0,0,0,.438.6,14.4,14.4,0,0,1,5.97,5.105,27.634,27.634,0,0,1,3.85,9.263c1.623,6.823,2.961,13.693,3.968,20.61a165.038,165.038,0,0,1,1.765,20.041q.249,10.589.225,21.167c-.012,3.909-.32,7.806-.486,11.715h-4.655c.225-4.975.533-9.95.651-14.924.166-7.285.284-14.581.261-21.877A128.522,128.522,0,0,0,431,253.271c-.936-5.295-1.978-10.577-3.091-15.848a19.084,19.084,0,0,0-3.471-7.521,10.675,10.675,0,0,0-4.738-3.648,30.41,30.41,0,0,0-6.7-1.6c-2.949-.415-5.922-.723-8.836-1.291a18.852,18.852,0,0,1-7.439-3.2c-.225,1.3-.415,2.618-.7,3.921a44.171,44.171,0,0,1-3.873,10.435c-1.966,3.909-4.158,7.723-6.266,11.572a1.242,1.242,0,0,1-1.22.758,1.188,1.188,0,0,1-1.1-.888c-.971-2.653-1.931-5.318-2.9-7.972-.486-1.327-.971-2.653-1.469-3.98a4.609,4.609,0,0,0-.32-.64c-.474-.794-.995-.948-1.718-.32a35.511,35.511,0,0,0-3.85,3.684c-1.871,2.215-3.565,4.548-5.342,6.823-.249.32-.45.877-1.019.616s.012-.675.083-1.019a.6.6,0,0,1,.107-.213c2.559-3.731,5.117-7.474,8.943-10.352,1.931-1.457,3.376-1.279,4.359.782,1.03,2.179,1.789,4.454,2.606,6.7.533,1.433.971,2.9,1.481,4.406.13-.118.2-.154.237-.213,2.926-5.425,5.982-10.791,8.208-16.476a26.641,26.641,0,0,0,1.966-9,3.258,3.258,0,0,0-.948-2.333,29.863,29.863,0,0,0-7.628-6.349,35.507,35.507,0,0,0-6.562-2.665c.142.711.261,1.315.391,1.907.2.959.426,1.907.6,2.855.059.332.19.462.592.45a6.372,6.372,0,0,1,1.848.107A16.214,16.214,0,0,1,386,213.9a1.03,1.03,0,0,1,.237,1.54,25.7,25.7,0,0,1-4.323,5.851c-2.558,2.345-5.081,4.726-7.687,7.036a44.6,44.6,0,0,0-8.374,10.1c-1.184,1.907-2.535,3.743-3.838,5.579a1.18,1.18,0,0,1-1.8.261c-1.978-1.35-3.98-2.665-5.911-4.051q-6.45-4.637-12.828-9.369a30.036,30.036,0,0,1-2.926-2.547,10.99,10.99,0,0,1-3.234-11,.978.978,0,0,0-.107-.628c-.2-.391-.012-.675.272-.948a9.023,9.023,0,0,1,4.193-2.025c1.007-.261,1.019-.237,1.019-1.173.024-1.67.036-3.34.059-5.022v-.723c-1.1.367-2.144.64-3.115,1.042a26.34,26.34,0,0,0-9.689,6.846,5.777,5.777,0,0,0-1.635,3.861c-.036,3.767.118,7.533,1.954,11.016,1.315,2.5,2.8,4.939,4.359,7.332,1.386,2.12,2.985,4.134,4.5,6.195.083.107.178.2.3.343.509-1.445.936-2.843,1.492-4.2a35.958,35.958,0,0,1,1.9-3.909c.734-1.279,1.492-1.421,2.914-.734.64.308,1.291.6,1.931.912a12.437,12.437,0,0,1,3.66,2.748c.888.936,1.943,1.741,2.9,2.618.746.687,1.457,1.4,2.191,2.085.13.118.3.213.415.343a3.554,3.554,0,0,1,.3.438c-.213.107-.462.32-.628.284a2.19,2.19,0,0,1-.829-.45c-.924-.7-1.848-1.386-2.736-2.108a16.081,16.081,0,0,1-2.073-1.789c-1.836-2.108-2.594-2.641-6.207-4.181-.154.415-.332.817-.45,1.244q-1.261,4.584-2.511,9.168c-.213.805-.509,1.564-1.587,1.741-.888.142-1.445-.308-2.108-1.291q-2.256-3.358-4.631-6.669a48.806,48.806,0,0,1-5.946-10.708,21.76,21.76,0,0,1-1.445-6.965c0-.13-.024-.261-.036-.45A17.561,17.561,0,0,1,322,223c-1.6.912-3.222,1.765-4.88,2.594-3.636,1.812-7.344,3.518-10.945,5.389a18.589,18.589,0,0,0-5.863,5.176,50.472,50.472,0,0,0-7.367,13.4,48.806,48.806,0,0,0-2.938,9.428,66.478,66.478,0,0,0-.711,11.572,211.423,211.423,0,0,0,1.232,21.2c.711,6.633,1.528,13.266,2.31,19.9a2.4,2.4,0,0,0,.107.391h-5.058c-.19-1.137-.379-2.262-.557-3.4a211.771,211.771,0,0,1-2.12-21.712c-.083-1.706-.178-3.411-.261-5.117v-7.581c.095-1.824.178-3.648.284-5.472.249-4.217.415-8.445,1.611-12.556,2.274-7.818,5.46-15.315,11.205-21.771a30,30,0,0,1,5.614-4.868,1.771,1.771,0,0,0,.888-1.22,22.169,22.169,0,0,1,1.042-3.411c.983-2.736,1.978-5.472,3.009-8.2a31.863,31.863,0,0,1,1.552-3.589,30.725,30.725,0,0,0,3.364-15.588c-.118-6.017-1.6-11.8-3.281-17.59-1.267-4.359-2.179-8.789-3.186-13.2-.817-3.613-1.552-7.237-2.31-10.862a57.047,57.047,0,0,1-1.184-11.418,76.807,76.807,0,0,1,1.244-15.09c1.066-5.5,2.393-10.968,5.188-16a98.278,98.278,0,0,1,7.936-12.9,19.358,19.358,0,0,0,1.362-2.061,68.031,68.031,0,0,1,8.22-10.933,86.019,86.019,0,0,1,14.652-13.408,46.936,46.936,0,0,1,21.013-8.256c1.646-.213,3.293-.32,4.951-.486.213-.024.426-.071.651-.095C370.221,65.306,371.642,65.306,373.064,65.306Zm30.856,83.056c.118-.237.2-.391.284-.545a16.806,16.806,0,0,1,1.658-2.961c1.3-1.516,2.239-3.222,3.518-4.75.308-.355.569-.746.888-1.09A13.947,13.947,0,0,1,414.2,135.9c1.978-1.019,4.691-.805,5.33,1.978a10.073,10.073,0,0,1,.047,3.767,21.248,21.248,0,0,1-3.376,8.339,10.381,10.381,0,0,1-4.288,3.968c-1.718.829-2.5,1.954-2.286,3.743a4.751,4.751,0,0,1-2.8,5.306,6.2,6.2,0,0,1,.948,4.24,4.126,4.126,0,0,1-1.35,2.724,1.849,1.849,0,0,1-3.163-.628,4.3,4.3,0,0,1-.047-2.7,5.909,5.909,0,0,1,2.12-3.613c-.45-.071-.77-.107-1.019-.154a9.216,9.216,0,0,1-.687.888,9.724,9.724,0,0,0-2.487,4.134,27.272,27.272,0,0,0-.912,7.107,55.016,55.016,0,0,0,1.374,10.933,42.648,42.648,0,0,1,.876,9.808,69.1,69.1,0,0,1-1.433,9.819,16.215,16.215,0,0,1-3.731,8,21.135,21.135,0,0,0-1.315,1.753.509.509,0,0,0-.059.45c.213.557.474,1.1.746,1.706.45-.047.687.178.758.7a1.319,1.319,0,0,0,.557.758,5.68,5.68,0,0,0,1.244.663,29.289,29.289,0,0,0,7.782,1.86c2.547.3,5.093.592,7.628.948,1.125.154,2.215.438,3.34.663a16.879,16.879,0,0,0,.308-2.073c.071-1.587.154-3.186.095-4.785-.13-3.767-.225-7.545-.533-11.3a50.316,50.316,0,0,0-2.274-10.222,42.256,42.256,0,0,1-1.9-13.61c.071-1.978.036-3.98.261-5.946a88.974,88.974,0,0,1,1.421-9.346c.628-2.8,1.729-5.5,2.535-8.256,1.184-4.015,2.179-8.078,3.459-12.082a60.5,60.5,0,0,0,3.032-16.524c.154-4.43.095-8.872.012-13.3a36.164,36.164,0,0,0-1.267-9.476,50.566,50.566,0,0,0-8.374-17.27,34.668,34.668,0,0,0-8.28-7.675c-.64-.426-1.492-.711-1.753-1.552a4.826,4.826,0,0,0-2.4-2.618c-1.208-.687-2.345-1.469-3.542-2.168-1.646-.948-3.281-1.907-4.975-2.772-1.587-.805-3.245-1.5-4.88-2.239a30.522,30.522,0,0,0-7.474-2.357,61.808,61.808,0,0,0-17.921-.272,44.692,44.692,0,0,0-20.018,7.829,81.437,81.437,0,0,0-11.667,10.281,84.141,84.141,0,0,0-10.933,13.456c-2.689,4.146-5.591,8.185-8.149,12.413-3.707,6.147-5.52,12.745-6.6,19.532a86.983,86.983,0,0,0-.758,8.943,57.753,57.753,0,0,0,.758,13.776c.746,3.956,1.564,7.912,2.357,11.869a146.684,146.684,0,0,0,4.217,16.512,44.967,44.967,0,0,1,2.179,9.156q.391,3.589.6,7.214a29.012,29.012,0,0,1-3.376,15.813,15.8,15.8,0,0,0-1.421,3.257,50.4,50.4,0,0,1-3.056,8.481,8.746,8.746,0,0,0-.426,1.22,4.38,4.38,0,0,0-.083.663c.308-.142.5-.249.687-.332,3.009-1.267,6.053-2.487,9.038-3.8,1.931-.853,3.8-1.812,5.709-2.724.415-.2.817-.415,1.3-.663a2.13,2.13,0,0,0,.024-.355,7.736,7.736,0,0,1,1.9-5.46,1.412,1.412,0,0,0,.225-.415c.438-1.161.794-2.345,1.315-3.471a26.3,26.3,0,0,0,2.63-9.4,28.225,28.225,0,0,0-.948-10.53c-2.215-6.775-3.684-13.693-5.259-20.6a17.557,17.557,0,0,0-1.09-4.181,8.852,8.852,0,0,1-1.019-4.987,4.367,4.367,0,0,0,0-.557c-1.789.071-2.807-.64-3.044-2.132a4.926,4.926,0,0,1-.024-1.907,6.027,6.027,0,0,0-1.552-5.828,42.878,42.878,0,0,1-2.949-4.075,11.87,11.87,0,0,1-1.421-11.584,16.488,16.488,0,0,1,1.753-3.435,2.366,2.366,0,0,1,3.293-.829,9.234,9.234,0,0,1,2.381,1.54,8.739,8.739,0,0,1,2.487,4.513c.426,1.635.782,3.269,1.173,4.951a9.883,9.883,0,0,0,1.919-3.139,29.688,29.688,0,0,0,2.108-8.919c.178-2.618.154-5.235.237-7.853a.955.955,0,0,1,.344-.711,8.494,8.494,0,0,0,2.772-3.921c.723-1.836,1.3-3.707,1.978-5.543a.654.654,0,0,0-.237-.912,28.492,28.492,0,0,0-7.1,4.75,32.352,32.352,0,0,0-6.5,8.54c-.426.723-.865,1.445-1.315,2.156a.894.894,0,0,1-1.019.5c-.545-.142-.58-.58-.5-.971a8.914,8.914,0,0,1,.521-1.8,31.094,31.094,0,0,1,10.258-12.354,30.019,30.019,0,0,1,16.82-5.768c3.613-.142,7.225-.213,10.838-.332,2.44-.083,4.892-.047,7.308-.284a113.311,113.311,0,0,0,16.263-2.831,46.728,46.728,0,0,0,15.268-7,25.1,25.1,0,0,0,5.9-5,12.025,12.025,0,0,1,1.682-1.481l.213-.213c.118-.107.249-.213.379-.32.13.166.379.344.367.486a2.274,2.274,0,0,1-.379,1.1c-1.433,1.812-2.653,3.779-4.679,5.188-.853.592-1.694,1.2-2.487,1.848a1.355,1.355,0,0,0-.509.865c-.036.888.047,1.777.095,2.677.13,3.151.3,6.29.391,9.44a22.23,22.23,0,0,0,3.755,12c1.137,1.682,2.227,3.4,3.352,5.105a2.248,2.248,0,0,1,.3,2.286,2.9,2.9,0,0,0-.19,1.149c-.012,3.814-.071,7.628.024,11.43A13.654,13.654,0,0,0,403.92,148.362Zm-81.042-1.6c.047.367.107.723.13,1.09a49.364,49.364,0,0,0,.924,8.635,31.158,31.158,0,0,0,3.53,9.772,57.506,57.506,0,0,0,4.359,5.982,75.978,75.978,0,0,0,9.547,10c1.9,1.658,3.992,3.139,5.958,4.738a33.291,33.291,0,0,0,6.124,3.79,12.02,12.02,0,0,0,4.88,1.173,19.382,19.382,0,0,0,6.4-.876,57.392,57.392,0,0,0,19.177-9.618c.628-.486,1.315-.924,1.954-1.41,1.066-.817,2.108-1.646,3.139-2.511.829-.7,1.635-1.433,2.428-2.156.592-.545,1.2-1.1,1.753-1.67,1.03-1.066,2.025-2.156,3.02-3.245a8.806,8.806,0,0,0,1.291-1.552c1.3-2.381,2.63-4.75,3.767-7.19.912-1.978.924-4.134,1.09-6.254a20.912,20.912,0,0,1,.332-3.767,3.5,3.5,0,0,0-.557-2.641c-.355-.687-.687-1.386-.971-2.1a17.683,17.683,0,0,1-1.22-6.7c.012-3.281.071-6.574.32-9.843a5.249,5.249,0,0,0-.782-3.482c-1.161-1.789-2.239-3.625-3.3-5.449a20.383,20.383,0,0,1-2.949-8.824c-.213-3.222-.166-6.444-.225-9.665,0-.178-.047-.344-.047-.521-.024-.711-.059-1.421-.071-2.132-.012-.794,0-1.6,0-2.464a38.645,38.645,0,0,1-7.818,4.075,67.647,67.647,0,0,1-12.307,3.447,90.184,90.184,0,0,1-13.835,1.9c-4.679.19-9.346.344-14.024.5a34.81,34.81,0,0,0-8.86,1.362,1.491,1.491,0,0,0-1.113,1.2c-.284.971-.438,1.978-.687,2.961a20.773,20.773,0,0,1-2.393,6.088,6.278,6.278,0,0,1-2.274,2.393.616.616,0,0,0-.213.533,34.762,34.762,0,0,1-1.256,14.2,13.8,13.8,0,0,1-3.471,6.147,3.308,3.308,0,0,1-.865.628.9.9,0,0,1-.723-.047c-.154-.107-.166-.4-.19-.616-.012-.142.13-.3.095-.426-.249-.888-.545-1.777-.805-2.677-.533-1.777-.948-3.589-1.611-5.33a5.172,5.172,0,0,0-3.068-2.926c-1.054-.415-1.552-.332-2.073.569a18.8,18.8,0,0,0-1.4,3.068A10.667,10.667,0,0,0,315.4,145.46c1.1,1.469,2.179,2.973,3.4,4.371,1.564,1.789,2.393,3.684,1.9,5.958a7.666,7.666,0,0,0-.036,2.085.869.869,0,0,0,.995.865c.284-.3.45-.628.687-.675s.557.2.876.32l-.071-.569c-.32-2.369-.675-4.738-.936-7.119A7.037,7.037,0,0,1,322.877,146.762Zm59.212,71.578c-.936-.758-1.777-1.421-2.606-2.1a.638.638,0,0,1-.178-.249c-.379-.663-.557-1.4-.876-2.073a12.71,12.71,0,0,1-.948-3.613,71.127,71.127,0,0,1-1.042-10.376c-.012-3.494-.036-7-.012-10.495a2.29,2.29,0,0,1,.391-.959c.213-.426.474-.841.711-1.267a1.24,1.24,0,0,1-.13-.095c-.344.19-.7.379-1.042.569a58.185,58.185,0,0,1-12.769,5.093,15.191,15.191,0,0,1-9.985-.3,28.527,28.527,0,0,1-6.834-3.885c-1.327-1.042-2.7-2.049-4.122-3.139,0,.343-.012.58,0,.829.118,1.41.32,2.819.344,4.24.036,1.789-.118,3.577-.095,5.366.024,2.12.261,4.229.225,6.349-.059,3.921-.272,7.841-.367,11.774-.036,1.469.13,2.949.095,4.43a2.213,2.213,0,0,1-.557,1.374c-.225.249-.829.272-1.256.284-.107,0-.225-.45-.332-.7a2.921,2.921,0,0,1-.083-.344c-1.149.367-2.262.758-3.388,1.078-.415.118-.509.261-.486.6a7.77,7.77,0,0,0,2.037,5.2,33.128,33.128,0,0,0,4.075,3.743q5.383,4.122,10.945,8.055c2.369,1.682,4.88,3.2,7.4,4.845,1.007-1.646,1.954-3.139,2.831-4.655a39.111,39.111,0,0,1,7.249-9.3q4.619-4.282,9.227-8.564C381.035,219.513,381.545,218.921,382.089,218.341Zm-2.57-11.916a24.749,24.749,0,0,1,15.232,7.747c.7-1.09,1.433-2.1,2-3.163a14.73,14.73,0,0,0,1.564-3.447c.675-2.772,1.184-5.567,1.658-8.362a30.363,30.363,0,0,0,.178-8.73c-.426-3.411-.995-6.811-1.445-10.234a29.173,29.173,0,0,1,.13-8.434c.13-.794.284-1.575.45-2.511-.533.628-.936,1.161-1.4,1.646-.829.888-1.789,1.682-2.523,2.63a38.077,38.077,0,0,1-7.131,6.574,50.4,50.4,0,0,1-8.576,5.7c-.154.071-.344.237-.355.367-.284,1.943-.651,3.885-.782,5.828a53.567,53.567,0,0,0,.391,10.3C379.093,203.724,379.33,205.086,379.519,206.425Zm-40.64-24.081c-.569-.545-1.137-1.042-1.646-1.575a79.457,79.457,0,0,1-8.256-9.559c-.971-1.41-1.9-2.843-2.736-4.323-.7-1.22-1.22-2.511-1.883-3.9.083.509.13.9.2,1.279.687,3.6,1.3,7.2,2.073,10.779.853,3.956,1.812,7.9,2.76,11.845a45.585,45.585,0,0,1,1.3,5.034,51.364,51.364,0,0,1,.284,7.391,36.68,36.68,0,0,1-.734,5.662,25.125,25.125,0,0,1-2.452,6.384c-.19.379-.332.782-.5,1.173a1.319,1.319,0,0,0,.521-.332,28.092,28.092,0,0,1,10.7-6.017c.569-.166,1.113-.367,1.682-.533a.649.649,0,0,0,.557-.734c-.024-2.855,0-5.721-.024-8.576a22.364,22.364,0,0,0-.166-3.672,52.586,52.586,0,0,0-1.907-8.907A1.117,1.117,0,0,1,338.88,182.344Zm64.483-21.013.154-.154a6.167,6.167,0,0,1,.675.107c1.67.45,2.807.225,3.482-1.125a8.094,8.094,0,0,0,.628-2.286c.107-.687-.036-1.41.107-2.085.261-1.327,1.386-2.132,2.582-2.831a10.387,10.387,0,0,0,3.8-3.743c.5-.865,1.019-1.729,1.457-2.618a15.611,15.611,0,0,0,1.789-7.972c-.107-1.658-.805-2.3-2.44-2.12a3.628,3.628,0,0,0-1.386.509,14.08,14.08,0,0,0-4.264,3.956c-.888,1.267-1.919,2.476-2.807,3.743-.817,1.173-1.5,2.416-2.262,3.613-.58.924-.024,2.12-.9,2.973-.024.024.036.107.036.166a39.468,39.468,0,0,1-.7,9.286A3.282,3.282,0,0,0,403.363,161.332Zm1.54,7.948a2.949,2.949,0,0,0,1.54-2.357c.261-1.386-.178-3.281-.888-3.731C405.175,165.193,404.275,167.1,404.9,169.28Zm-2.57-5.8c1.113-.9,1.113-.9.557-1.279C402.7,162.635,402.522,163.061,402.332,163.476Z" fill="#311d48"/>
      <path id="Trazado_906128" data-name="Trazado 906128" d="M284.96,248.14c.083,1.706.178,3.411.261,5.117a205.928,205.928,0,0,0,2.12,21.712c.178,1.137.367,2.262.557,3.4h-2.926Q284.954,263.248,284.96,248.14Z" transform="translate(0.002 33.737)" fill="#311d48"/>
      <path id="Trazado_906129" data-name="Trazado 906129" d="M400.749,148.139a13.785,13.785,0,0,1-1.966-6.823c-.095-3.814-.036-7.616-.024-11.43a2.93,2.93,0,0,1,.19-1.149,2.248,2.248,0,0,0-.3-2.286c-1.113-1.706-2.2-3.411-3.352-5.105a22.1,22.1,0,0,1-3.755-12c-.107-3.151-.261-6.29-.391-9.44-.036-.888-.118-1.789-.095-2.677a1.355,1.355,0,0,1,.509-.865c.794-.651,1.635-1.256,2.487-1.848,2.025-1.41,3.245-3.376,4.679-5.188a2.356,2.356,0,0,0,.379-1.1c.024-.142-.237-.32-.367-.486a4.919,4.919,0,0,0-.379.32l-.213.213a11.312,11.312,0,0,0-1.682,1.481,25.1,25.1,0,0,1-5.9,5,46.6,46.6,0,0,1-15.268,7,110.119,110.119,0,0,1-16.263,2.831c-2.416.237-4.868.213-7.308.284-3.613.118-7.225.19-10.838.332a29.988,29.988,0,0,0-16.82,5.768,30.838,30.838,0,0,0-10.258,12.354,7.851,7.851,0,0,0-.521,1.8c-.071.379-.036.817.5.971a.894.894,0,0,0,1.019-.5c.462-.711.9-1.433,1.315-2.156a32.1,32.1,0,0,1,6.5-8.54,28.172,28.172,0,0,1,7.1-4.75.647.647,0,0,1,.237.912c-.675,1.848-1.267,3.719-1.978,5.543a8.494,8.494,0,0,1-2.772,3.921,1.044,1.044,0,0,0-.344.711c-.095,2.618-.059,5.247-.237,7.853a29.689,29.689,0,0,1-2.108,8.919,9.883,9.883,0,0,1-1.919,3.139c-.391-1.682-.758-3.328-1.173-4.951a8.7,8.7,0,0,0-2.487-4.513,9.235,9.235,0,0,0-2.381-1.54,2.361,2.361,0,0,0-3.293.829,17.085,17.085,0,0,0-1.753,3.435,11.87,11.87,0,0,0,1.421,11.584,41.423,41.423,0,0,0,2.949,4.075,6.041,6.041,0,0,1,1.552,5.828,5.168,5.168,0,0,0,.024,1.907c.237,1.5,1.256,2.2,3.044,2.132,0,.19.012.379,0,.557a8.852,8.852,0,0,0,1.019,4.987,17.557,17.557,0,0,1,1.09,4.181c1.575,6.906,3.044,13.823,5.259,20.6a27.742,27.742,0,0,1,.948,10.53,26.547,26.547,0,0,1-2.63,9.4c-.521,1.125-.876,2.31-1.315,3.471a1.411,1.411,0,0,1-.225.415,7.754,7.754,0,0,0-1.9,5.46c0,.154-.024.308-.024.355-.486.249-.9.462-1.3.663-1.9.912-3.767,1.871-5.709,2.724-2.985,1.3-6.017,2.535-9.038,3.8-.2.083-.391.178-.687.332a4.377,4.377,0,0,1,.083-.663,6.483,6.483,0,0,1,.426-1.22,49.026,49.026,0,0,0,3.056-8.481,15.8,15.8,0,0,1,1.421-3.257,29.224,29.224,0,0,0,3.376-15.813q-.213-3.607-.6-7.214a44.784,44.784,0,0,0-2.179-9.156,146.686,146.686,0,0,1-4.217-16.512c-.805-3.956-1.623-7.9-2.357-11.869a57.756,57.756,0,0,1-.758-13.776c.166-2.985.3-5.993.758-8.943,1.078-6.787,2.878-13.385,6.6-19.532,2.559-4.229,5.46-8.256,8.149-12.413a84.141,84.141,0,0,1,10.933-13.456,80.718,80.718,0,0,1,11.667-10.281A44.883,44.883,0,0,1,360.369,67a61.394,61.394,0,0,1,17.921.272,30.522,30.522,0,0,1,7.474,2.357c1.635.746,3.293,1.433,4.88,2.239,1.694.865,3.34,1.824,4.975,2.772,1.2.7,2.333,1.481,3.542,2.168a4.782,4.782,0,0,1,2.4,2.618c.272.829,1.113,1.125,1.753,1.552a34.667,34.667,0,0,1,8.28,7.675,50.462,50.462,0,0,1,8.374,17.27,36.166,36.166,0,0,1,1.267,9.476c.083,4.43.142,8.872-.012,13.3a60.5,60.5,0,0,1-3.032,16.524c-1.279,3.992-2.274,8.054-3.459,12.082-.817,2.76-1.919,5.46-2.535,8.256a92.2,92.2,0,0,0-1.421,9.346c-.225,1.966-.19,3.956-.261,5.946a41.932,41.932,0,0,0,1.9,13.61,51.122,51.122,0,0,1,2.274,10.222c.32,3.755.415,7.533.533,11.3.059,1.587-.024,3.186-.095,4.785-.036.675-.2,1.338-.308,2.073-1.125-.225-2.215-.509-3.34-.663-2.535-.355-5.081-.651-7.628-.948a29.288,29.288,0,0,1-7.782-1.86,6.571,6.571,0,0,1-1.244-.663,1.319,1.319,0,0,1-.557-.758c-.059-.521-.308-.746-.758-.7-.272-.6-.521-1.149-.746-1.706a.55.55,0,0,1,.059-.45,16.913,16.913,0,0,1,1.315-1.753,16.214,16.214,0,0,0,3.731-8,68.843,68.843,0,0,0,1.433-9.819,42.708,42.708,0,0,0-.876-9.808,55.9,55.9,0,0,1-1.374-10.933,27.274,27.274,0,0,1,.912-7.107,9.653,9.653,0,0,1,2.487-4.134c.249-.261.438-.569.687-.888.261.036.569.083,1.019.154a5.941,5.941,0,0,0-2.12,3.613,4.3,4.3,0,0,0,.047,2.7,1.853,1.853,0,0,0,3.163.628,4.126,4.126,0,0,0,1.35-2.724,6.135,6.135,0,0,0-.948-4.24,4.744,4.744,0,0,0,2.8-5.306c-.213-1.8.569-2.914,2.286-3.743a10.532,10.532,0,0,0,4.288-3.968,21.249,21.249,0,0,0,3.376-8.339,10.074,10.074,0,0,0-.047-3.767c-.64-2.784-3.352-2.985-5.33-1.978a13.9,13.9,0,0,0-3.932,3.115c-.32.344-.58.734-.888,1.09-1.279,1.516-2.215,3.234-3.518,4.75a15.423,15.423,0,0,0-1.658,2.961A5.281,5.281,0,0,0,400.749,148.139Z" transform="translate(3.171 0.223)" fill="#36a9e1"/>
      <path id="Trazado_906130" data-name="Trazado 906130" d="M318.483,141.685a7.532,7.532,0,0,0-.711,3.932c.261,2.381.616,4.738.936,7.119l.071.569c-.32-.13-.628-.367-.876-.32s-.415.391-.687.675a.863.863,0,0,1-.995-.865,8.171,8.171,0,0,1,.036-2.085c.5-2.286-.332-4.181-1.9-5.958-1.22-1.4-2.3-2.9-3.4-4.371a10.7,10.7,0,0,1-1.421-10.554,18.8,18.8,0,0,1,1.4-3.068c.521-.9,1.019-.983,2.073-.569a5.2,5.2,0,0,1,3.068,2.926c.663,1.741,1.078,3.553,1.611,5.33.261.888.557,1.777.805,2.677.036.13-.107.284-.095.426.024.213.036.509.19.616a.9.9,0,0,0,.723.047,3,3,0,0,0,.865-.628,13.573,13.573,0,0,0,3.471-6.147,34.762,34.762,0,0,0,1.256-14.2.616.616,0,0,1,.213-.533,6.279,6.279,0,0,0,2.274-2.393,20.77,20.77,0,0,0,2.393-6.088c.249-.983.4-1.99.687-2.961a1.509,1.509,0,0,1,1.113-1.2,34.891,34.891,0,0,1,8.86-1.362c4.679-.154,9.346-.3,14.024-.5a90.386,90.386,0,0,0,13.835-1.9,65.8,65.8,0,0,0,12.307-3.447,38.335,38.335,0,0,0,7.818-4.075c0,.877-.012,1.67,0,2.464.012.711.047,1.421.071,2.132.012.178.047.343.047.521.071,3.222.012,6.455.225,9.665a20.383,20.383,0,0,0,2.949,8.824c1.066,1.836,2.144,3.66,3.3,5.449a5.219,5.219,0,0,1,.782,3.482c-.249,3.269-.308,6.562-.32,9.843a17.5,17.5,0,0,0,1.22,6.7c.284.711.616,1.41.971,2.1a3.5,3.5,0,0,1,.557,2.641,22.157,22.157,0,0,0-.332,3.767c-.166,2.108-.178,4.264-1.09,6.254-1.125,2.44-2.464,4.809-3.767,7.19a8.321,8.321,0,0,1-1.291,1.552c-.995,1.09-2,2.179-3.02,3.246-.557.58-1.149,1.125-1.753,1.67-.794.734-1.6,1.457-2.428,2.156-1.019.853-2.073,1.682-3.139,2.511-.628.486-1.315.924-1.954,1.41a57.614,57.614,0,0,1-19.177,9.618,19.3,19.3,0,0,1-6.4.877,12.021,12.021,0,0,1-4.88-1.173,33.293,33.293,0,0,1-6.124-3.79c-1.966-1.6-4.063-3.08-5.958-4.738a74.5,74.5,0,0,1-9.547-10,60.665,60.665,0,0,1-4.359-5.982,31.266,31.266,0,0,1-3.53-9.772,49.367,49.367,0,0,1-.924-8.635A4.781,4.781,0,0,0,318.483,141.685Zm61.948-13.1a6.115,6.115,0,0,0-1.054.107c-1.658.45-3.34.888-4.963,1.433a7.336,7.336,0,0,0-1.836,1.019c-2.523,1.717-3.613,4.2-4.643,6.728a.664.664,0,0,0-.036.45.686.686,0,0,0,.332.391,10.561,10.561,0,0,0,2.156.509,32.132,32.132,0,0,0,8.789-.32,34.692,34.692,0,0,0,7.131-1.954,3.3,3.3,0,0,1,2.3-.415c1.433.308,2.57-.6,3.684-1.3.154-.095.083-.474.118-.734a2.06,2.06,0,0,0-.794.095,3.2,3.2,0,0,1-4.2-.948,18.775,18.775,0,0,0-1.6-2.476C384.506,129.545,382.564,128.9,380.431,128.585Zm-52.153,5.081a5.632,5.632,0,0,0,.959.616c2.286.877,4.548,1.836,6.894,2.57,3.222,1.007,6.491,1.966,10.009,1.8a.728.728,0,0,1,.474.19c.379.308.7.261.794-.178a1.5,1.5,0,0,0-.059-.912c-.663-1.646-1.256-3.317-2.073-4.9a10.3,10.3,0,0,0-13.965-3.992c-1.587.971-3.151,1.966-3.9,3.636-.178.4-.545.415-.888.095a7.24,7.24,0,0,0-.829-.758c-.2-.13-.616-.272-.723-.19-.19.142-.391.521-.308.675a3.369,3.369,0,0,0,.983,1.1A2.891,2.891,0,0,0,328.279,133.667Zm44.56,34.172c-.036-.047-.059-.095-.095-.142-1.137-.071-2.3-.059-3.423-.237a7.018,7.018,0,0,1-2.7-.841c-1.516-1.054-2.843-2.322-4.252-3.494a9.034,9.034,0,0,0-.758-.569c-1.41-.948-3.032-.592-4.608-.557-.047,0-.107.059-.154.095a4.989,4.989,0,0,1-5.591.2,4.155,4.155,0,0,0-4.3-.095,17.04,17.04,0,0,0-1.635,1.09c-1.469,1.007-2.914,2.025-4.394,3.02a4.053,4.053,0,0,1-3.388.936c-.024,0-.047-.012-.071,0-.237.13-.474.261-.7.4a2.271,2.271,0,0,0,.687.4,14.757,14.757,0,0,0,1.777.13.872.872,0,0,1,.829.6,9.162,9.162,0,0,0,5.01,4.762,33.082,33.082,0,0,0,4.11,1.291,30.293,30.293,0,0,0,10.234.415,14.232,14.232,0,0,0,3.352-.64,11.352,11.352,0,0,0,6.065-5.093,2.344,2.344,0,0,1,2.381-1.232,2.941,2.941,0,0,0,.853-.083A6.614,6.614,0,0,0,372.839,167.839Zm7.332-46.5c-5.7.213-10.329,2.2-13.728,6.278a4.5,4.5,0,0,0-.723,1.35.608.608,0,0,0,.3.569.937.937,0,0,0,.711-.071c1.3-.865,2.582-1.753,3.873-2.63.225-.154.45-.32.687-.462a15.494,15.494,0,0,1,7.829-2.251c3.779-.059,7.32.521,10.352,2.677.569.4,1.125.829,1.682,1.232.32.225.663.462,1.066.178s.2-.628.012-.948a9.47,9.47,0,0,0-5.034-4.359A19.145,19.145,0,0,0,380.171,121.336Zm-31.934,8.6c-.2-.521-.545-.959-.45-1.315.178-.711-.225-1.113-.687-1.54a25.187,25.187,0,0,0-6.669-4.371A14.374,14.374,0,0,0,334,121.348a10.406,10.406,0,0,0-8.659,4.335,2.392,2.392,0,0,0-.474,1.066.8.8,0,0,0,.355.723,1.118,1.118,0,0,0,.888-.083,8.946,8.946,0,0,0,1.492-1.244,3.877,3.877,0,0,1,2.476-1.327,4.107,4.107,0,0,0,1.125-.332,10.869,10.869,0,0,1,6.467-.58,14.234,14.234,0,0,1,5.626,2.049,49.25,49.25,0,0,1,4.6,3.8C347.941,129.829,348.012,129.841,348.237,129.935Zm-33.13,7.806a3.223,3.223,0,0,0-2.653,1.777c-.474.936-.178,1.421,1.007,1.67.036-1.113.545-2.641,1.741-2.4a19.605,19.605,0,0,0,1.066,1.836,2.206,2.206,0,0,0,.983.734,1.11,1.11,0,0,0,1.327-.415c.249-.332.13-.64-.178-.936-.628.616-.758.64-1.125-.13a8.829,8.829,0,0,1-.9-2.523,11.187,11.187,0,0,0-1.5-5.081c-.509-.746-.924-1.552-1.433-2.3-.178-.261-.521-.628-.758-.616a1.992,1.992,0,0,0-.983.569,1.115,1.115,0,0,0-.249.533,16.5,16.5,0,0,0-.367,5.9.834.834,0,0,0,.888.794.916.916,0,0,0,.971-.651c.213-.592.4-1.185.64-1.765a10.131,10.131,0,0,1,.5-.936.577.577,0,0,1,.13.047C314.5,135.135,314.8,136.4,315.107,137.741ZM362.25,150.3a.986.986,0,0,0-.095.142c.308.213.64.4.924.64.675.533.948,1.6.545,2.037a6.638,6.638,0,0,1-3.174.794,2.35,2.35,0,0,0-1.03.083,11.253,11.253,0,0,1-2,.711,31.525,31.525,0,0,1-4.1.13,3.708,3.708,0,0,1-2.345-.805,4.481,4.481,0,0,0-1.611-.569,9.787,9.787,0,0,0-1.184-.118c-.438-.047-.734-.261-.675-.651.071-.486.237-.959.355-1.457-.509.237-1.362-.024-1.812.711a1.848,1.848,0,0,0,1.457,2.772c.391.071.805.036,1.185.13a2.767,2.767,0,0,1,1.125.474,3.012,3.012,0,0,0,1.943.9c1.564.036,3.139.036,4.7-.024a6.76,6.76,0,0,0,3.163-.959,5.243,5.243,0,0,1,1.5-.509c.723-.154,1.5-.178,2.2-.367a1.849,1.849,0,0,0,1.315-2.807C364.145,150.64,363.031,150.735,362.25,150.3Zm24.732-20.065c.024-.024.059-.047.083-.071a20.468,20.468,0,0,0-2.156-2.144,7.154,7.154,0,0,0-4.288-1.374c-3.518-.071-6.752.592-9.4,2.807a6.711,6.711,0,0,0-1.954,2.31c-.344.734-.746,1.445-1.113,2.179a1.091,1.091,0,0,0-.142.5.309.309,0,0,0,.225.225.375.375,0,0,0,.272-.178c.379-.687.723-1.4,1.1-2.085a7.987,7.987,0,0,1,2.4-2.523,14.358,14.358,0,0,1,5.863-2.322,8.056,8.056,0,0,1,6.681,1.22C385.3,129.331,386.176,129.746,386.982,130.232Zm-41.315,1.4a1.114,1.114,0,0,0,.118-.118,11.635,11.635,0,0,0-1.019-1.267,16.478,16.478,0,0,0-2.63-2.262,12.578,12.578,0,0,0-5.8-1.694,10.47,10.47,0,0,0-9.2,4.193c-.118.142-.107.569.024.651.355.225.521-.071.675-.32a4.672,4.672,0,0,1,2.843-2.31c1.552-.438,3.091-.936,4.655-1.362a4.173,4.173,0,0,1,1.623-.118,18.339,18.339,0,0,1,2.641.545,7.9,7.9,0,0,1,4.075,2.381A17.463,17.463,0,0,0,345.667,131.629Zm5.52,1.635c-.024.083-.047.13-.036.154a21.96,21.96,0,0,1,1.682,7.486c.107,1.279.166,2.558.272,3.838.012.178.225.332.332.5.19-.142.462-.249.533-.426a2.494,2.494,0,0,0,.154-.971c-.118-2.073-.19-4.146-.415-6.207A5.814,5.814,0,0,0,351.187,133.264Zm-1.149,15.375c.19.118.225.154.261.154a.972.972,0,0,0,.261-.024,12.737,12.737,0,0,1,5.306-.355c1.137.118,2.262.343,3.4.486a1.728,1.728,0,0,0,.663-.213,3,3,0,0,0-.5-.367,1.142,1.142,0,0,0-.45-.107c-1.042-.142-2.085-.284-3.174-.426.663-.118,1.291-.2,1.907-.355a2.309,2.309,0,0,0,.616-.355,2.269,2.269,0,0,0-.64-.391,12.146,12.146,0,0,0-4.086.095c-.486.071-.983.13-1.469.2.012.024.012.047.024.071h4.963C354.847,147.726,352.383,147.762,350.038,148.638Zm-.521,29.115c.012.071.024.13.036.2.166-.024.344-.047.509-.059,1.6-.13,3.21-.367,4.809-.344,1.374.024,2.748.379,4.122.533.261.036.545-.154.829-.249a6.581,6.581,0,0,0-.557-.592.748.748,0,0,0-.379-.083c-1.658-.047-3.328-.2-4.975-.107C352.442,177.149,350.985,177.516,349.516,177.753Z" transform="translate(4.394 5.077)" fill="#fed695"/>
      <path id="Trazado_906131" data-name="Trazado 906131" d="M374.03,199.625c-.545.58-1.042,1.173-1.623,1.706-3.068,2.866-6.147,5.709-9.227,8.564a39.111,39.111,0,0,0-7.249,9.3c-.876,1.516-1.824,3.009-2.831,4.655-2.523-1.646-5.034-3.163-7.4-4.845q-5.561-3.944-10.945-8.055a33.125,33.125,0,0,1-4.075-3.743,7.77,7.77,0,0,1-2.037-5.2c-.012-.343.083-.5.486-.6,1.137-.32,2.239-.7,3.388-1.078a1.46,1.46,0,0,0,.083.343c.107.249.225.711.332.7a2.105,2.105,0,0,0,1.256-.284,2.213,2.213,0,0,0,.557-1.374c.024-1.481-.13-2.949-.095-4.43.095-3.921.308-7.841.367-11.774.036-2.12-.2-4.229-.225-6.349-.024-1.789.13-3.577.095-5.366-.024-1.41-.225-2.819-.344-4.24-.024-.237,0-.486,0-.829,1.433,1.078,2.8,2.085,4.122,3.139a29.17,29.17,0,0,0,6.834,3.885,15.191,15.191,0,0,0,9.985.3,58.184,58.184,0,0,0,12.769-5.093c.344-.19.7-.379,1.042-.569a1.238,1.238,0,0,1,.13.095c-.237.426-.486.841-.711,1.267a2.651,2.651,0,0,0-.391.959c-.012,3.494,0,7,.012,10.495a71.126,71.126,0,0,0,1.042,10.376,13.118,13.118,0,0,0,.948,3.613c.32.687.509,1.41.876,2.073a.877.877,0,0,0,.178.249C372.253,198.2,373.082,198.867,374.03,199.625Z" transform="translate(8.06 18.716)" fill="#fed695"/>
      <path id="Trazado_906132" data-name="Trazado 906132" d="M364.961,190.22c-.2-1.338-.426-2.7-.6-4.063a53.567,53.567,0,0,1-.391-10.3c.13-1.954.5-3.885.782-5.828a.633.633,0,0,1,.355-.367,50.874,50.874,0,0,0,8.576-5.7,38.075,38.075,0,0,0,7.131-6.574c.734-.936,1.694-1.741,2.523-2.63.462-.486.865-1.019,1.4-1.646-.166.924-.332,1.717-.45,2.511a28.753,28.753,0,0,0-.13,8.434c.45,3.411,1.03,6.811,1.445,10.234a30.381,30.381,0,0,1-.178,8.73c-.474,2.8-.983,5.6-1.658,8.362a14.729,14.729,0,0,1-1.564,3.447c-.58,1.066-1.3,2.061-2,3.163A24.655,24.655,0,0,0,364.961,190.22Z" transform="translate(14.558 16.205)" fill="#1d71b8"/>
      <path id="Trazado_906133" data-name="Trazado 906133" d="M332.742,167.119a1.175,1.175,0,0,0-.225,1.457,53.757,53.757,0,0,1,1.907,8.907,22.308,22.308,0,0,1,.166,3.672c.024,2.855,0,5.721.024,8.576a.674.674,0,0,1-.557.734c-.569.166-1.125.367-1.682.533a28.339,28.339,0,0,0-10.7,6.017,1.319,1.319,0,0,1-.521.332c.166-.391.32-.794.5-1.173a25.126,25.126,0,0,0,2.452-6.384,38.183,38.183,0,0,0,.734-5.662,51.365,51.365,0,0,0-.284-7.391,42.488,42.488,0,0,0-1.3-5.034c-.948-3.944-1.907-7.889-2.76-11.845-.77-3.577-1.386-7.19-2.073-10.779-.071-.379-.118-.758-.2-1.279.663,1.386,1.2,2.677,1.883,3.9.841,1.469,1.765,2.914,2.736,4.323a81.634,81.634,0,0,0,8.256,9.559C331.6,166.077,332.173,166.574,332.742,167.119Z" transform="translate(6.138 15.225)" fill="#1d71b8"/>
      <path id="Trazado_906134" data-name="Trazado 906134" d="M384.927,150.239a2.332,2.332,0,0,1-.036-.569,39.426,39.426,0,0,0,.7-9.286c0-.059-.059-.142-.036-.166.876-.865.308-2.049.9-2.973.758-1.208,1.457-2.44,2.262-3.613.888-1.279,1.907-2.476,2.807-3.743a14.079,14.079,0,0,1,4.264-3.956,3.38,3.38,0,0,1,1.386-.509c1.635-.178,2.333.462,2.44,2.12a15.558,15.558,0,0,1-1.789,7.972c-.438.888-.959,1.753-1.457,2.618a10.21,10.21,0,0,1-3.8,3.743c-1.2.7-2.31,1.5-2.582,2.831-.13.675.012,1.4-.107,2.085a7.884,7.884,0,0,1-.628,2.286c-.675,1.35-1.812,1.575-3.482,1.125a6.169,6.169,0,0,0-.675-.107A.886.886,0,0,0,384.927,150.239Zm9.085-13.077a1.5,1.5,0,0,0,1.871-.746,9.226,9.226,0,0,0,1.575-3.8,11.42,11.42,0,0,0,.261-2.819c-.118-1.315-1.481-1.765-2.57-.829a9.979,9.979,0,0,0-2.274,2.535,40.167,40.167,0,0,0-1.8,4.3,3.344,3.344,0,0,1-.58,1.161,1.678,1.678,0,0,1-1.149.486c-.521-.059-.154-.521-.19-.817a2.134,2.134,0,0,0-.344-.616c-.237.107-.569.166-.687.332a1.21,1.21,0,0,0-.036,1.492,1.6,1.6,0,0,0,1.575.557,2.492,2.492,0,0,0,1.741-.971c.118-.154.237-.308.415-.557.391.9.723,1.694,1.09,2.535C393.231,138.643,394.451,138.252,394.012,137.163Z" transform="translate(18.436 11.092)" fill="#fed695"/>
      <path id="Trazado_906135" data-name="Trazado 906135" d="M386.254,154.028c-.628-2.168.272-4.075.651-6.088.711.45,1.149,2.345.888,3.731A2.966,2.966,0,0,1,386.254,154.028Z" transform="translate(18.649 15.251)" fill="#b5b5b5"/>
      <path id="Trazado_906136" data-name="Trazado 906136" d="M384.05,148.379c.178-.426.367-.841.557-1.279C385.163,147.491,385.163,147.491,384.05,148.379Z" transform="translate(18.282 15.096)" fill="#311d48"/>
      <path id="Trazado_906137" data-name="Trazado 906137" d="M371.229,123.01c2.132.32,4.075.959,5.354,2.57a19.593,19.593,0,0,1,1.6,2.476,3.177,3.177,0,0,0,4.2.948,2.121,2.121,0,0,1,.794-.095c-.036.249.036.628-.118.734-1.1.7-2.251,1.611-3.684,1.3a3.3,3.3,0,0,0-2.3.415,33.958,33.958,0,0,1-7.131,1.954,31.67,31.67,0,0,1-8.789.32,10.56,10.56,0,0,1-2.156-.509.611.611,0,0,1-.332-.391.659.659,0,0,1,.036-.45c1.042-2.511,2.132-5,4.643-6.728a7.337,7.337,0,0,1,1.836-1.019c1.635-.533,3.3-.971,4.963-1.433A8.655,8.655,0,0,1,371.229,123.01Zm-11.371,9.428a18.3,18.3,0,0,0,5.4.142c-1.9-1.054-2.487-2.689-3.068-4.418A17.336,17.336,0,0,0,359.858,132.438Zm17.744-2.4c-.817-1.208-1.552-2.31-2.286-3.411l-.178-.249a3.1,3.1,0,0,0-2.108-1.173c2.073,1.86,1.871,3.909.58,6.041.071.024.142.059.213.083C375.055,130.911,376.3,130.484,377.6,130.034Zm-11.418-2.227c-.272.13-.805.367-1.3.651-.367.213-.367.533-.107.865a1.424,1.424,0,0,0,1.338.592,1.452,1.452,0,0,0,1.267-1.054C367.6,128.234,367.261,127.819,366.184,127.807Z" transform="translate(13.596 10.652)" fill="#311d48"/>
      <path id="Trazado_906138" data-name="Trazado 906138" d="M325.8,128.26a2.826,2.826,0,0,1-2.618-.237,3.475,3.475,0,0,1-.983-1.1c-.095-.154.107-.533.308-.675.118-.083.533.059.722.19a7.15,7.15,0,0,1,.829.758c.344.32.711.308.888-.095.758-1.67,2.322-2.665,3.9-3.636a10.3,10.3,0,0,1,13.965,3.992c.817,1.587,1.41,3.257,2.073,4.9a1.7,1.7,0,0,1,.059.912c-.095.45-.426.486-.794.178a.728.728,0,0,0-.474-.19c-3.518.166-6.787-.794-10.009-1.8-2.345-.734-4.608-1.694-6.894-2.57A6.1,6.1,0,0,1,325.8,128.26Zm18.253,4.833a12.881,12.881,0,0,0-2.784-4.9,4.591,4.591,0,0,1-3.814,3.565C339.734,132.216,341.831,132.631,344.057,133.093ZM330,124.932c-1.232.959-2.452,1.907-3.838,2.985,1.54.663,2.9,1.244,4.264,1.836A5.451,5.451,0,0,1,330,124.932Zm5.354,1.694c.012-.758-.817-1.421-1.824-1.445-.758-.012-1.623.58-1.635,1.125-.012.675,1.208,1.765,2,1.789A1.721,1.721,0,0,0,335.352,126.626Z" transform="translate(6.868 10.483)" fill="#311d48"/>
      <path id="Trazado_906139" data-name="Trazado 906139" d="M368.476,157.117a4.883,4.883,0,0,1-.758.355,3.419,3.419,0,0,1-.853.083,2.326,2.326,0,0,0-2.381,1.232,11.44,11.44,0,0,1-6.065,5.093,15.685,15.685,0,0,1-3.352.64,30.293,30.293,0,0,1-10.234-.415,32.461,32.461,0,0,1-4.11-1.291,9.122,9.122,0,0,1-5.01-4.762.871.871,0,0,0-.829-.6,14.76,14.76,0,0,1-1.777-.13c-.249-.036-.462-.261-.687-.4.237-.13.462-.261.7-.4.012-.012.047,0,.071,0a4.053,4.053,0,0,0,3.388-.936c1.481-.995,2.926-2.014,4.394-3.02a18.66,18.66,0,0,1,1.635-1.09,4.128,4.128,0,0,1,4.3.095,4.991,4.991,0,0,0,5.591-.2c.047-.036.107-.095.154-.095,1.564-.036,3.2-.391,4.608.557a9.034,9.034,0,0,1,.758.569c1.41,1.173,2.736,2.44,4.252,3.494a6.637,6.637,0,0,0,2.7.841c1.113.178,2.274.166,3.423.237C368.416,157.01,368.452,157.058,368.476,157.117Zm-4.252.663a29.153,29.153,0,0,1-3.684-.024c-2.179-.284-4.335-.734-6.491-1.113a.819.819,0,0,0-.379,0,15.164,15.164,0,0,1-5.745.6,4.366,4.366,0,0,1-2.89-.983.9.9,0,0,0-.663-.095c-.557.118-1.078.355-1.635.45-1.966.332-3.944.616-5.911.924a10.62,10.62,0,0,0,3.423,3.861,15.877,15.877,0,0,0,4.6,1.765,31.686,31.686,0,0,0,8.789.379,22.908,22.908,0,0,0,4.667-.805c2.333-.651,3.7-2.393,5.188-3.956C363.714,158.514,363.915,158.183,364.223,157.78Zm-26.39-1.421a17.842,17.842,0,0,0,5.757-1.338,2.434,2.434,0,0,1,2.63.249,3.177,3.177,0,0,0,1.528.6,16.917,16.917,0,0,0,5.4-.332,3.105,3.105,0,0,1,1.445.166c.521.142.995.438,1.516.557,1.457.308,2.938.557,4.406.817.58.107,1.173.166,1.717.237-1.646-1.433-3.293-2.807-4.856-4.252a4.528,4.528,0,0,0-3.553-1.161c-.995.284-2,.58-3.032.794a6.636,6.636,0,0,1-4.619-.545,2.753,2.753,0,0,0-3.245.154C341.2,153.646,339.539,155.008,337.833,156.359Z" transform="translate(8.757 15.799)" fill="#311d48"/>
      <path id="Trazado_906140" data-name="Trazado 906140" d="M371.3,116.89a19.636,19.636,0,0,1,7.024,1.564,9.513,9.513,0,0,1,5.034,4.359c.19.32.4.651-.012.948s-.746.047-1.066-.178c-.557-.415-1.113-.829-1.682-1.232-3.02-2.156-6.574-2.724-10.352-2.677a15.378,15.378,0,0,0-7.829,2.251c-.237.142-.462.308-.687.462-1.291.877-2.57,1.765-3.873,2.63a.845.845,0,0,1-.711.071.608.608,0,0,1-.3-.569,4.5,4.5,0,0,1,.723-1.35C360.974,119.093,365.605,117.092,371.3,116.89Z" transform="translate(13.263 9.523)" fill="#311d48"/>
      <path id="Trazado_906141" data-name="Trazado 906141" d="M345.731,125.484a2.193,2.193,0,0,1-.344-.154,46.067,46.067,0,0,0-4.6-3.8,13.879,13.879,0,0,0-5.626-2.049,10.86,10.86,0,0,0-6.467.58,4.719,4.719,0,0,1-1.125.332,3.877,3.877,0,0,0-2.476,1.327,8.944,8.944,0,0,1-1.492,1.244,1.118,1.118,0,0,1-.888.083.85.85,0,0,1-.355-.723,2.687,2.687,0,0,1,.474-1.066,10.406,10.406,0,0,1,8.659-4.335,14.408,14.408,0,0,1,6.432,1.362,25.48,25.48,0,0,1,6.669,4.371c.462.426.865.829.687,1.54C345.2,124.525,345.541,124.963,345.731,125.484Z" transform="translate(6.901 9.528)" fill="#311d48"/>
      <path id="Trazado_906142" data-name="Trazado 906142" d="M314.761,132.044c-.308-1.35-.6-2.618-.9-3.885a.576.576,0,0,1-.13-.047,10.138,10.138,0,0,0-.5.936c-.237.58-.426,1.184-.64,1.765a.916.916,0,0,1-.971.651.841.841,0,0,1-.888-.794,16.5,16.5,0,0,1,.367-5.9,1.015,1.015,0,0,1,.249-.533,2.1,2.1,0,0,1,.983-.569c.237-.024.58.355.758.616.509.746.924,1.552,1.433,2.3a11.144,11.144,0,0,1,1.5,5.081,9.2,9.2,0,0,0,.9,2.523c.367.77.5.746,1.125.13.308.284.426.6.178.936a1.11,1.11,0,0,1-1.327.415,2.272,2.272,0,0,1-.983-.734,19.6,19.6,0,0,1-1.066-1.836c-1.2-.237-1.717,1.291-1.741,2.4-1.173-.249-1.481-.734-1.007-1.67A3.234,3.234,0,0,1,314.761,132.044Z" transform="translate(4.74 10.774)" fill="#311d48"/>
      <path id="Trazado_906143" data-name="Trazado 906143" d="M356.486,141.34c.782.438,1.9.343,2.393,1.267a1.851,1.851,0,0,1-1.315,2.807c-.711.2-1.481.213-2.2.367a5.633,5.633,0,0,0-1.5.509,6.9,6.9,0,0,1-3.163.959c-1.564.059-3.139.059-4.7.024a2.985,2.985,0,0,1-1.943-.9,2.766,2.766,0,0,0-1.125-.474c-.379-.095-.794-.059-1.184-.13A1.848,1.848,0,0,1,340.282,143c.438-.734,1.291-.486,1.812-.711a11.327,11.327,0,0,0-.355,1.457c-.059.391.237.6.675.651a7.87,7.87,0,0,1,1.184.118,4.4,4.4,0,0,1,1.611.569,3.731,3.731,0,0,0,2.345.805,33.767,33.767,0,0,0,4.1-.13,10.932,10.932,0,0,0,2-.711,2.35,2.35,0,0,1,1.03-.083,6.777,6.777,0,0,0,3.174-.794c.4-.438.13-1.516-.545-2.037-.3-.225-.616-.426-.924-.64A.671.671,0,0,1,356.486,141.34Z" transform="translate(10.158 14.034)" fill="#311d48"/>
      <path id="Trazado_906144" data-name="Trazado 906144" d="M377.754,124.96a27.225,27.225,0,0,1-2.416-1.457,8.1,8.1,0,0,0-6.681-1.22,14.458,14.458,0,0,0-5.863,2.322,7.62,7.62,0,0,0-2.4,2.523c-.391.687-.734,1.4-1.1,2.085a.375.375,0,0,1-.272.178c-.095-.012-.237-.142-.225-.225a1.26,1.26,0,0,1,.142-.5c.367-.723.77-1.445,1.113-2.179a6.842,6.842,0,0,1,1.954-2.31c2.653-2.215,5.887-2.878,9.4-2.807a7.287,7.287,0,0,1,4.288,1.374,20.467,20.467,0,0,1,2.156,2.144C377.813,124.912,377.789,124.936,377.754,124.96Z" transform="translate(13.622 10.349)" fill="#311d48"/>
      <path id="Trazado_906145" data-name="Trazado 906145" d="M342.818,126.416a15.373,15.373,0,0,1-1.99-1.682,7.992,7.992,0,0,0-4.075-2.381,20.1,20.1,0,0,0-2.641-.545,4.395,4.395,0,0,0-1.623.118c-1.563.415-3.1.924-4.655,1.362a4.672,4.672,0,0,0-2.843,2.31c-.154.249-.32.545-.675.32-.13-.083-.142-.5-.024-.651a10.47,10.47,0,0,1,9.2-4.193,12.577,12.577,0,0,1,5.8,1.694,15.975,15.975,0,0,1,2.63,2.262,10.378,10.378,0,0,1,1.019,1.267A.621.621,0,0,0,342.818,126.416Z" transform="translate(7.243 10.29)" fill="#311d48"/>
      <path id="Trazado_906146" data-name="Trazado 906146" d="M344.586,126.96a5.85,5.85,0,0,1,2.523,4.371c.225,2.061.3,4.134.415,6.207a2.265,2.265,0,0,1-.154.971c-.071.178-.344.284-.533.426-.118-.166-.32-.332-.332-.5-.107-1.279-.166-2.558-.272-3.838a21.958,21.958,0,0,0-1.682-7.486C344.539,127.09,344.574,127.043,344.586,126.96Z" transform="translate(10.995 11.381)" fill="#311d48"/>
      <path id="Trazado_906147" data-name="Trazado 906147" d="M343.61,140.27c2.345-.888,4.809-.912,7.1-1.611h-4.963c-.012-.024-.012-.047-.024-.071.486-.071.983-.13,1.469-.2a12.146,12.146,0,0,1,4.086-.095,2.268,2.268,0,0,1,.64.391,2.681,2.681,0,0,1-.616.355c-.616.142-1.244.237-1.907.355,1.09.142,2.132.284,3.174.426a1.393,1.393,0,0,1,.45.107,4.9,4.9,0,0,1,.5.367c-.225.071-.45.237-.663.213-1.137-.142-2.262-.355-3.4-.486a12.543,12.543,0,0,0-5.307.355.972.972,0,0,1-.261.024C343.847,140.424,343.811,140.388,343.61,140.27Z" transform="translate(10.822 13.446)" fill="#311d48"/>
      <path id="Trazado_906148" data-name="Trazado 906148" d="M343.17,164.632a42.864,42.864,0,0,1,4.394-.687c1.646-.095,3.317.059,4.975.107a.643.643,0,0,1,.379.083,6.579,6.579,0,0,1,.557.592,2.546,2.546,0,0,1-.829.249,41.316,41.316,0,0,0-4.122-.533c-1.6-.024-3.21.213-4.809.343-.166.012-.344.047-.509.059Z" transform="translate(10.741 18.198)" fill="#311d48"/>
      <path id="Trazado_906149" data-name="Trazado 906149" d="M393.548,136.685c.438,1.09-.782,1.481-1.09,2.227-.355-.841-.7-1.635-1.09-2.535-.19.249-.3.4-.415.557a2.491,2.491,0,0,1-1.741.971,1.6,1.6,0,0,1-1.575-.557,1.21,1.21,0,0,1,.036-1.492c.118-.166.45-.225.687-.332a2.133,2.133,0,0,1,.344.616c.036.3-.332.758.19.817a1.606,1.606,0,0,0,1.149-.486,3.561,3.561,0,0,0,.58-1.161,40.183,40.183,0,0,1,1.8-4.3,9.978,9.978,0,0,1,2.274-2.535c1.078-.924,2.452-.486,2.57.829a11.421,11.421,0,0,1-.261,2.819,9.36,9.36,0,0,1-1.575,3.8A1.52,1.52,0,0,1,393.548,136.685Z" transform="translate(18.9 11.57)" fill="#311d48"/>
      <path id="Trazado_906150" data-name="Trazado 906150" d="M359.67,131.636A18.191,18.191,0,0,1,362,127.36c.58,1.729,1.173,3.364,3.068,4.418A19.137,19.137,0,0,1,359.67,131.636Z" transform="translate(13.785 11.455)" fill="#fff"/>
      <path id="Trazado_906151" data-name="Trazado 906151" d="M375.362,129.691c-1.291.45-2.535.877-3.779,1.3-.071-.024-.142-.059-.213-.083,1.291-2.132,1.492-4.181-.58-6.041a3.1,3.1,0,0,1,2.108,1.173l.178.249C373.8,127.381,374.545,128.483,375.362,129.691Z" transform="translate(15.836 10.995)" fill="#fff"/>
      <path id="Trazado_906152" data-name="Trazado 906152" d="M365.257,127.06c1.078.012,1.421.426,1.2,1.054a1.468,1.468,0,0,1-1.267,1.054,1.413,1.413,0,0,1-1.339-.592c-.249-.332-.261-.64.107-.865C364.452,127.415,365,127.19,365.257,127.06Z" transform="translate(14.522 11.399)" fill="#fff"/>
      <path id="Trazado_906153" data-name="Trazado 906153" d="M341.678,132.144c-2.239-.45-4.323-.877-6.6-1.338a4.591,4.591,0,0,0,3.814-3.565A12.881,12.881,0,0,1,341.678,132.144Z" transform="translate(9.248 11.432)" fill="#fff"/>
      <path id="Trazado_906154" data-name="Trazado 906154" d="M329.378,124.49a5.454,5.454,0,0,0,.426,4.821c-1.362-.58-2.724-1.173-4.264-1.836C326.914,126.409,328.146,125.449,329.378,124.49Z" transform="translate(7.488 10.925)" fill="#fff"/>
      <path id="Trazado_906155" data-name="Trazado 906155" d="M333.839,126.145a1.721,1.721,0,0,1-1.457,1.469c-.782-.012-2.014-1.113-2-1.789.012-.545.877-1.137,1.635-1.125A1.69,1.69,0,0,1,333.839,126.145Z" transform="translate(8.381 10.964)" fill="#fff"/>
      <path id="Trazado_906156" data-name="Trazado 906156" d="M363.543,156.964c-.308.4-.509.723-.77,1.007-1.492,1.564-2.855,3.3-5.188,3.956a23.748,23.748,0,0,1-4.667.805,32.146,32.146,0,0,1-8.789-.379,16.223,16.223,0,0,1-4.6-1.765,10.73,10.73,0,0,1-3.423-3.861c1.966-.308,3.944-.592,5.911-.924.557-.095,1.09-.332,1.635-.45a.89.89,0,0,1,.663.095,4.366,4.366,0,0,0,2.89.983,14.907,14.907,0,0,0,5.745-.6.687.687,0,0,1,.379,0c2.168.379,4.312.829,6.491,1.113A29.8,29.8,0,0,0,363.543,156.964Z" transform="translate(9.438 16.615)" fill="#ee7249"/>
      <path id="Trazado_906157" data-name="Trazado 906157" d="M336.99,156.233c1.717-1.362,3.376-2.724,5.093-4.027a2.734,2.734,0,0,1,3.245-.154,6.694,6.694,0,0,0,4.619.545c1.03-.2,2.025-.5,3.032-.794a4.545,4.545,0,0,1,3.553,1.161c1.564,1.445,3.21,2.819,4.856,4.252-.545-.071-1.137-.142-1.718-.237-1.469-.261-2.949-.509-4.406-.817-.521-.107-.995-.415-1.516-.557a3.089,3.089,0,0,0-1.445-.166,17.264,17.264,0,0,1-5.4.332,3.177,3.177,0,0,1-1.528-.6,2.43,2.43,0,0,0-2.63-.249A18.455,18.455,0,0,1,336.99,156.233Z" transform="translate(9.6 15.925)" fill="#ee7249"/>
    </g>
  </g>
</svg>
