<svg xmlns="http://www.w3.org/2000/svg" width="84.945" height="84.945" viewBox="0 0 84.945 84.945">
  <g id="Grupo_1097842" data-name="Grupo 1097842" transform="translate(-180 -12568)">
    <path id="Trazado_861607" data-name="Trazado 861607" d="M42.473,0A42.473,42.473,0,1,1,0,42.473,42.473,42.473,0,0,1,42.473,0Z" transform="translate(180 12568)" fill="#ffb6c8"/>
    <g id="XMLID_1721_" transform="translate(193.815 12566.774)">
      <g id="XMLID_2390_" transform="translate(29.29 22.726)">
        <path id="Trazado_875778" data-name="Trazado 875778" d="M282.909,67.03V54.91a10.757,10.757,0,1,0-21.514,0V67.03Z" transform="translate(-261.395 -44.153)" fill="#f6838d"/>
      </g>
      <g id="XMLID_2389_" transform="translate(1.121 44.547)">
        <path id="Trazado_875779" data-name="Trazado 875779" d="M23.168,238.9H16.486A6.486,6.486,0,0,0,10,245.383v9.547H43.991v-9.547A6.486,6.486,0,0,0,37.5,238.9H23.168Z" transform="translate(-10 -238.897)" fill="#fff"/>
      </g>
      <g id="XMLID_2388_" transform="translate(1.121 44.547)">
        <path id="XMLID_198_" d="M23.168,238.9H16.486A6.486,6.486,0,0,0,10,245.383v9.547H43.991v-9.547A6.486,6.486,0,0,0,37.5,238.9H23.168Z" transform="translate(-10 -238.897)" fill="#91def5"/>
      </g>
      <g id="XMLID_2387_" transform="translate(14.909 41.234)">
        <path id="Trazado_875780" data-name="Trazado 875780" d="M139.47,209.325v3.514a3.207,3.207,0,1,1-6.413,0v-3.514Z" transform="translate(-133.057 -209.325)" fill="#ffbf9e"/>
      </g>
      <g id="XMLID_2382_" transform="translate(23.843 45.295)">
        <path id="Trazado_875781" data-name="Trazado 875781" d="M225.344,245.566h-5.159a7.4,7.4,0,0,0-7.4,7.4v7.891H245.2v-7.891a7.4,7.4,0,0,0-7.4-7.4H225.344Z" transform="translate(-212.79 -245.566)" fill="#fff"/>
      </g>
      <g id="XMLID_2381_" transform="translate(23.843 45.295)">
        <path id="XMLID_177_" d="M225.344,245.566h-5.159a7.4,7.4,0,0,0-7.4,7.4v7.891H245.2v-7.891a7.4,7.4,0,0,0-7.4-7.4H225.344Z" transform="translate(-212.79 -245.566)" fill="#b0aeed"/>
      </g>
      <g id="XMLID_2371_" transform="translate(33.932 32.12)">
        <path id="Trazado_875782" data-name="Trazado 875782" d="M315.056,129.121v3.43a6.114,6.114,0,1,1-12.229,0v-3.43h3.86l3.228-1.135,2.876,1.135Z" transform="translate(-302.827 -127.986)" fill="#ffbf9e"/>
      </g>
      <g id="XMLID_2370_" transform="translate(36.989 42.135)">
        <path id="Trazado_875783" data-name="Trazado 875783" d="M336.225,217.373v3.35a3.057,3.057,0,0,1-6.114,0v-3.35Z" transform="translate(-330.111 -217.373)" fill="#ffbf9e"/>
      </g>
      <g id="XMLID_2114_" transform="translate(18.23 53.744)">
        <path id="XMLID_22_" d="M181.953,322.627a5.644,5.644,0,0,0-7.982,0l-.819.819-.819-.819a5.644,5.644,0,1,0-7.982,7.982l8.126,8.126a.955.955,0,0,0,1.35,0l8.126-8.126A5.644,5.644,0,0,0,181.953,322.627Z" transform="translate(-162.697 -320.974)" fill="#f6838d"/>
      </g>
      <g id="XMLID_1829_" transform="translate(9.752 21.94)">
        <path id="XMLID_23_" d="M94.512,42.8l-5.531,4.315v.1L87.03,45.268v-4.9a3.228,3.228,0,0,1,5.124-2.612l1.31.951Z" transform="translate(-87.03 -37.141)" fill="#8690a6"/>
      </g>
      <g id="XMLID_2312_" transform="translate(15.969 21.139)">
        <path id="XMLID_25_" d="M152.747,32.3a5.132,5.132,0,0,1-3.862-.968l-.9-.676a3.354,3.354,0,0,0-4.557.5,3.774,3.774,0,0,0-.018,4.9,5.793,5.793,0,0,0,4.419,2.047,5.393,5.393,0,0,0,5.393-5.393A.412.412,0,0,0,152.747,32.3Z" transform="translate(-142.514 -29.987)" fill="#8690a6"/>
      </g>
      <g id="XMLID_1828_" transform="translate(11.702 28.168)">
        <path id="Trazado_875784" data-name="Trazado 875784" d="M117.266,92.722v7.348a6.413,6.413,0,1,1-12.827,0v-3.6l4.808-3.75Z" transform="translate(-104.439 -92.722)" fill="#ffbf9e"/>
      </g>
      <g id="XMLID_1640_" transform="translate(0 20.022)">
        <path id="XMLID_1662_" d="M51.924,44.749V33.483a11.869,11.869,0,0,0-.569-3.64,1.121,1.121,0,1,0-2.133.686,9.632,9.632,0,0,1,.461,2.954V44.215c-.273-.026-.549-.041-.829-.041h-4.63V42.585a7.229,7.229,0,0,0,3.057-5.9v-3.43a1.121,1.121,0,0,0-1.121-1.121H44.129a2.432,2.432,0,0,1-1.8-.8,5.076,5.076,0,0,0,.44-2.07,1.121,1.121,0,1,0-2.241,0,2.869,2.869,0,0,1-2.866,2.866H33.932a1.121,1.121,0,0,0-1.121,1.121v3.43a7.229,7.229,0,0,0,3.057,5.9v1.589H31.915a7.587,7.587,0,0,0-1.5-.534V33.483a9.644,9.644,0,0,1,12.6-9.171,1.12,1.12,0,1,0,.69-2.132,11.885,11.885,0,0,0-15.535,11.3v9.944H22.443V41.677a7.528,7.528,0,0,0,3.207-6.161V28.69A6.5,6.5,0,0,0,27.8,23.862a1.532,1.532,0,0,0-1.765-1.514,4.034,4.034,0,0,1-3.019-.757l-.9-.676a4.486,4.486,0,0,0-6.079.66c-.078.09-.15.183-.22.277l-.279-.2a4.348,4.348,0,0,0-6.9,3.519v4.9a1.12,1.12,0,0,0,.328.792l1.623,1.625v3.032a7.529,7.529,0,0,0,3.207,6.161v1.749H7.607A7.615,7.615,0,0,0,0,51.033v9.547A1.121,1.121,0,0,0,1.121,61.7h16.4a6.723,6.723,0,0,0,1.572,2.471L27.218,72.3a2.078,2.078,0,0,0,2.935,0l8.126-8.126A6.723,6.723,0,0,0,39.851,61.7h16.4a1.121,1.121,0,0,0,1.121-1.121V52.69a8.528,8.528,0,0,0-5.446-7.941ZM35.053,34.375h2.613a5.084,5.084,0,0,0,3.312-1.224,4.674,4.674,0,0,0,3.152,1.224h.911v2.309a4.994,4.994,0,1,1-9.988,0V34.375Zm4.994,9.544a7.212,7.212,0,0,0,1.937-.265v1.832a1.937,1.937,0,1,1-3.873,0V43.654A7.215,7.215,0,0,0,40.046,43.919ZM19.428,22.261a2.223,2.223,0,0,1,1.338.445l.9.676a6.32,6.32,0,0,0,3.818,1.251,4.28,4.28,0,0,1-4.2,3.5,4.664,4.664,0,0,1-3.564-1.651,2.642,2.642,0,0,1,.012-3.447A2.234,2.234,0,0,1,19.428,22.261Zm-8.556,2.907a2.107,2.107,0,0,1,3.345-1.706l.692.5a4.865,4.865,0,0,0,.727,3.465l-3.9,3.041-.865-.866Zm1.951,7.3,4.385-3.421a6.9,6.9,0,0,0,4.075,1.33,6.485,6.485,0,0,0,2.126-.358v5.5a5.293,5.293,0,1,1-10.585,0v-3.05ZM18.116,43.05a7.505,7.505,0,0,0,2.086-.3v1.994a2.086,2.086,0,1,1-4.172,0V42.753A7.5,7.5,0,0,0,18.116,43.05ZM9.476,59.46V51.593a1.121,1.121,0,1,0-2.241,0V59.46H2.241V51.033a5.372,5.372,0,0,1,5.366-5.366h6.281a4.327,4.327,0,0,0,8.455,0h4.085a8.512,8.512,0,0,0-3.705,7.022v.037a6.746,6.746,0,0,0-5.608,6.733Zm27.218,3.127L28.685,70.6l-8.009-8.009a4.524,4.524,0,0,1,6.4-6.4l.819.819a1.12,1.12,0,0,0,1.585,0l.819-.819a4.524,4.524,0,1,1,6.4,6.4ZM55.129,59.46H51.256V54.466a1.121,1.121,0,1,0-2.241,0V59.46H40.255A6.76,6.76,0,0,0,28.712,54.6l-.027.027-.027-.027a6.727,6.727,0,0,0-3.695-1.889V52.69a6.282,6.282,0,0,1,6.275-6.275h4.736a4.177,4.177,0,0,0,8.144,0h4.736a6.282,6.282,0,0,1,6.275,6.275Z" transform="translate(0 -20.022)"/>
        <path id="XMLID_1673_" d="M416.451,64.567a1.121,1.121,0,1,0-.792-.328A1.128,1.128,0,0,0,416.451,64.567Z" transform="translate(-368.792 -57.586)"/>
      </g>
    </g>
  </g>
</svg>
