<svg id="_5" data-name="5" xmlns="http://www.w3.org/2000/svg" width="55.872" height="54.968" viewBox="0 0 55.872 54.968">
  <path id="Trazado_828614" data-name="Trazado 828614" d="M86.84,330.482l-4.268-.875-2.47,2.558-8.419-6.645,5.615-3.832,5.97-6.533a2.247,2.247,0,0,1,3.56.318l7.073,8.112a2.607,2.607,0,0,1-.631,3.954L89.1,330.021A3.874,3.874,0,0,1,86.84,330.482Zm0,0" transform="translate(-63.861 -280.112)" fill="#ffe7cf"/>
  <path id="Trazado_828615" data-name="Trazado 828615" d="M127.08,382.218l-1.726-1.98-7.2,4.29a3.883,3.883,0,0,1-2.263.462l-3.738-.4-3.229,2.774,4.355,3.437,2.469-2.558,4.268.875a3.882,3.882,0,0,0,2.263-.462l4.167-2.482A2.608,2.608,0,0,0,127.08,382.218Zm0,0" transform="translate(-97.039 -338.745)" fill="#efd5bd"/>
  <path id="Trazado_828616" data-name="Trazado 828616" d="M165.945,293.933c-.833-1.292-1.848-.638-2.682-1.931s.182-1.947-.651-3.239-1.849-.639-2.682-1.932.182-1.947-.652-3.24c-.509-.79-1.432-2.421-1.994-2.646l-4.5,2.223,7.828,12.345a2.553,2.553,0,0,0,3.529.762l1.5-.966a1,1,0,0,0,.313-1.366Zm0,0" transform="translate(-136.112 -250.287)" fill="#344a5d"/>
  <path id="Trazado_828617" data-name="Trazado 828617" d="M91.892,271.5l-3.534,2.18a1.427,1.427,0,0,1-1.963-.465l-2-3.238a1.427,1.427,0,0,1,.465-1.963l3.534-2.18a.883.883,0,0,1,1.215.288l2.568,4.163A.883.883,0,0,1,91.892,271.5Zm0,0" transform="translate(-74.998 -236.704)" fill="#344a5d"/>
  <path id="Trazado_828618" data-name="Trazado 828618" d="M108.336,65.389l-7.173,4.426a2.008,2.008,0,0,0-.654,2.763l3.537,5.732a2.009,2.009,0,0,0,2.764.655l7.173-4.425L136.668,69.6,122.925,47.328Zm0,0" transform="translate(-89.274 -42.163)" fill="#d5e3ff"/>
  <path id="Trazado_828619" data-name="Trazado 828619" d="M147.881,203.344l-22.569,5.128-8.881,5.48L118.5,217.3a2.008,2.008,0,0,0,2.764.655l7.172-4.425,22.687-4.938Zm0,0" transform="translate(-103.725 -181.154)" fill="#849ac6"/>
  <path id="Trazado_828620" data-name="Trazado 828620" d="M113.982,221.986l-7.173,4.425a2.008,2.008,0,0,1-2.764-.655l-3.537-5.732a2.008,2.008,0,0,1,.654-2.763l7.173-4.426Zm0,0" transform="translate(-89.274 -189.61)" fill="#fd715c"/>
  <path id="Trazado_828621" data-name="Trazado 828621" d="M125.311,250.336l-8.881,5.48,2.066,3.349a2.008,2.008,0,0,0,2.764.655l7.172-4.425Zm0,0" transform="translate(-103.725 -223.018)" fill="#d83e3a"/>
  <path id="Trazado_828622" data-name="Trazado 828622" d="M304.731,54.143l-.979.6a1.08,1.08,0,0,1-1.486-.352L287.492,30.451a1.08,1.08,0,0,1,.352-1.486l.979-.6a1.08,1.08,0,0,1,1.486.352l14.774,23.944A1.08,1.08,0,0,1,304.731,54.143Zm0,0" transform="translate(-255.976 -25.122)" fill="#fd715c"/>
  <path id="Trazado_828623" data-name="Trazado 828623" d="M407.165,220.159l-2.431-3.94-2.817,1.738,2.431,3.939a1.08,1.08,0,0,0,1.486.352l.979-.6A1.08,1.08,0,0,0,407.165,220.159Zm0,0" transform="translate(-358.059 -192.624)" fill="#d83e3a"/>
  <path id="Trazado_828624" data-name="Trazado 828624" d="M250.759,393.322a1.854,1.854,0,0,0,2.549.615l2.7-1.652a1.854,1.854,0,0,0-1.934-3.164l-2.7,1.653A1.854,1.854,0,0,0,250.759,393.322Zm0,0" transform="translate(-223.152 -346.415)" fill="#ffe7cf"/>
  <path id="Trazado_828625" data-name="Trazado 828625" d="M256.77,390.808a1.843,1.843,0,0,0-.9-.757,1.854,1.854,0,0,1-.87,1.831l-2.7,1.652a1.85,1.85,0,0,1-1.646.141,1.853,1.853,0,0,0,2.8,1.333l2.7-1.652A1.854,1.854,0,0,0,256.77,390.808Zm0,0" transform="translate(-223.296 -347.487)" fill="#efd5bd"/>
  <path id="Trazado_828626" data-name="Trazado 828626" d="M240.116,359.777a1.882,1.882,0,0,0,2.588.625l2.655-1.623a1.882,1.882,0,0,0-1.963-3.212l-2.656,1.623A1.882,1.882,0,0,0,240.116,359.777Zm0,0" transform="translate(-213.667 -316.52)" fill="#ffe7cf"/>
  <path id="Trazado_828627" data-name="Trazado 828627" d="M246.116,357.381a1.875,1.875,0,0,0-.885-.756,1.881,1.881,0,0,1-.884,1.843l-2.655,1.623a1.878,1.878,0,0,1-1.7.13,1.881,1.881,0,0,0,2.848,1.369l2.655-1.623A1.882,1.882,0,0,0,246.116,357.381Zm0,0" transform="translate(-213.799 -317.708)" fill="#efd5bd"/>
  <path id="Trazado_828628" data-name="Trazado 828628" d="M221.98,330.534a1.882,1.882,0,0,0,2.588.625l2.655-1.623a1.882,1.882,0,1,0-1.963-3.212l-2.655,1.623A1.882,1.882,0,0,0,221.98,330.534Zm0,0" transform="translate(-197.511 -290.468)" fill="#ffe7cf"/>
  <path id="Trazado_828629" data-name="Trazado 828629" d="M227.959,328.208a1.874,1.874,0,0,0-.864-.747,1.881,1.881,0,0,1-.888,1.815l-2.655,1.623a1.878,1.878,0,0,1-1.724.122,1.879,1.879,0,0,0,2.85,1.4l2.655-1.623A1.883,1.883,0,0,0,227.959,328.208Zm0,0" transform="translate(-197.621 -291.727)" fill="#efd5bd"/>
  <path id="Trazado_828630" data-name="Trazado 828630" d="M204.884,300.542a1.883,1.883,0,0,0,2.588.625l2.655-1.623a1.882,1.882,0,1,0-1.963-3.212l-2.655,1.623A1.883,1.883,0,0,0,204.884,300.542Zm0,0" transform="translate(-182.28 -263.749)" fill="#ffe7cf"/>
  <path id="Trazado_828631" data-name="Trazado 828631" d="M211.1,297.652a1.872,1.872,0,0,0-1.054-.816,1.882,1.882,0,0,1-.858,2l-2.655,1.623a1.877,1.877,0,0,1-1.534.191,1.879,1.879,0,0,0,2.821,1.214l2.656-1.623A1.883,1.883,0,0,0,211.1,297.652Zm0,0" transform="translate(-182.633 -264.444)" fill="#efd5bd"/>
  <path id="Trazado_828632" data-name="Trazado 828632" d="M136.287,299.689l-.492.3a1.623,1.623,0,0,1-2.237-.507l-.816-1.334a1.4,1.4,0,0,0-1.937-.432c-.671,4.923-7.668,4.478-7.668,4.478l4.336-6.531a3.49,3.49,0,0,1,1.181-1.216l2.447-1.517a2.492,2.492,0,0,1,3.448.769l2.306,3.764A1.624,1.624,0,0,1,136.287,299.689Zm0,0" transform="translate(-109.7 -260.619)" fill="#ffe7cf"/>
  <path id="Trazado_828633" data-name="Trazado 828633" d="M175.347,323.951l-.019-.031a1.677,1.677,0,0,1-.549.545l-.493.3a1.623,1.623,0,0,1-2.237-.507l-.816-1.334a1.4,1.4,0,0,0-1.937-.432,9.741,9.741,0,0,1-2.953,5.4A4.6,4.6,0,0,0,169.3,324.2a1.4,1.4,0,0,1,1.937.432l.816,1.334a1.622,1.622,0,0,0,2.237.507l.493-.3A1.624,1.624,0,0,0,175.347,323.951Zm0,0" transform="translate(-148.192 -287.106)" fill="#efd5bd"/>
  <path id="Trazado_828634" data-name="Trazado 828634" d="M93.772,395.646l-6.9-8.2,2.271-1.911a.17.17,0,0,1,.239.021l6.678,7.936a.169.169,0,0,1-.02.239Zm0,0" transform="translate(-77.395 -343.431)" fill="#cdd6df"/>
  <path id="Trazado_828635" data-name="Trazado 828635" d="M122.47,424.308l-3.553-4.222-2.4,2.02,3.662,4.352,2.271-1.911A.17.17,0,0,0,122.47,424.308Zm0,0" transform="translate(-103.801 -374.244)" fill="#96a4aa"/>
  <path id="Trazado_828636" data-name="Trazado 828636" d="M23.551,405.877,16.1,397.133a.179.179,0,0,0-.237-.032L7.92,403.368a1.1,1.1,0,0,0-.42.867v2.549a1.1,1.1,0,0,0,1.1,1.1H21.591a1.105,1.105,0,0,0,.861-.413l1.091-1.358A.18.18,0,0,0,23.551,405.877Zm0,0" transform="translate(-6.682 -353.74)" fill="#3c5666"/>
  <path id="Trazado_828637" data-name="Trazado 828637" d="M83.25,443.927l-3.535-4.146-5.2,6.158H81.29a1.105,1.105,0,0,0,.861-.413l1.091-1.358A.179.179,0,0,0,83.25,443.927Zm0,0" transform="translate(-66.381 -391.79)" fill="#194451"/>
  <path id="Trazado_828638" data-name="Trazado 828638" d="M403.416,90.214a.819.819,0,0,0,1.126.268l4.437-2.729a.818.818,0,1,0-.858-1.394l-4.436,2.729A.819.819,0,0,0,403.416,90.214Zm0,0" transform="translate(-359.285 -76.827)"/>
  <path id="Trazado_828639" data-name="Trazado 828639" d="M444.8,167.318l-6.5-.632a.818.818,0,1,0-.158,1.629l6.5.632c.027,0,.054,0,.08,0a.818.818,0,0,0,.078-1.633Zm0,0" transform="translate(-389.668 -148.493)"/>
  <path id="Trazado_828640" data-name="Trazado 828640" d="M369.714,7.671a.816.816,0,0,0,1.059-.466l2.369-6.09a.818.818,0,0,0-1.525-.593l-2.369,6.09A.818.818,0,0,0,369.714,7.671Zm0,0" transform="translate(-328.904 0)"/>
  <path id="Trazado_828641" data-name="Trazado 828641" d="M35.03,21.606a1.9,1.9,0,0,0-2.612-.619l-.979.6a1.9,1.9,0,0,0-.619,2.612l.563.912L18.513,41.048l-2.718,1.677a.819.819,0,0,0,.86,1.393L18.8,42.8l4.171,6.76a3.344,3.344,0,0,0-1.75.366l-.029.015c-.073.039-.146.079-.217.123L18.523,51.58a4.391,4.391,0,0,0-1.445,1.479l-.6.91-.444.668-.012,0L16,54.624c-.034-.015-.069-.032-.1-.051l-.021-.011a1.226,1.226,0,0,1-.105-.07l-.021-.016c-.031-.024-.061-.049-.089-.077l-.011-.01a1.254,1.254,0,0,1-.087-.1l-.017-.022a1.241,1.241,0,0,1-.077-.109l-3.537-5.732a1.19,1.19,0,0,1,.388-1.637l1.059-.653a.818.818,0,0,0-.859-1.393l-1.059.653a2.828,2.828,0,0,0-1.238,3.169l-.787.486a2.248,2.248,0,0,0-.731,3.09l2,3.238a2.23,2.23,0,0,0,1.393,1.006,2.266,2.266,0,0,0,.522.061,2.228,2.228,0,0,0,1.174-.335l.789-.486a2.826,2.826,0,0,0,.538.385l-2.272,3.423-.536.366a.988.988,0,0,0-1.084.125l-1.41,1.187a1,1,0,0,0-1.1.017c-.016.011-.032.022-.046.034L.731,67.431A1.912,1.912,0,0,0,0,68.941V71.49a1.925,1.925,0,0,0,1.923,1.923H14.91a1.914,1.914,0,0,0,1.5-.719l1.077-1.34a.993.993,0,0,0,.24-.76l1.449-1.22a.982.982,0,0,0,.3-.442l3.34.685a.8.8,0,0,0,.15.017l.292,0a4.352,4.352,0,0,0,2.4-.58l3.365-2c.056,0,.113.005.168.005a2.654,2.654,0,0,0,1.389-.393l2.7-1.652a2.67,2.67,0,0,0-.184-4.661,2.7,2.7,0,0,0-1.734-3.871,2.691,2.691,0,0,0-1.891-3.166,2.693,2.693,0,0,0-.306-2.088,2.737,2.737,0,0,0-.357-.462l16.217-3.53.563.912a1.9,1.9,0,0,0,2.612.619l.979-.6A1.9,1.9,0,0,0,49.8,45.55ZM12.93,54.721a.609.609,0,0,1-.837-.2l-2-3.237a.61.61,0,0,1,.2-.837l.694-.428,2.636,4.272Zm2.2,16.948a.284.284,0,0,1-.223.107H1.923a.286.286,0,0,1-.286-.286V68.941a.285.285,0,0,1,.109-.225l7.446-5.878L15.9,70.711ZM16.8,69.237,10.91,62.33l.872-.734,5.843,6.944Zm8.022-1.583a2.982,2.982,0,0,1-1.75.345l-4.193-.86a.816.816,0,0,0-.3-.006l-5.147-6.116L13.9,60.7h0l.023-.018c.017-.013.035-.026.051-.04L14,60.617c.017-.015.032-.031.047-.048l.018-.02c.018-.022.036-.045.052-.068l0-.006,0-.005,0-.006,4.328-6.519.027-.043a2.677,2.677,0,0,1,.9-.93l2.447-1.517c.045-.028.091-.053.138-.077l.063-.029c.025-.011.049-.022.074-.032s.057-.022.087-.032l.046-.015c.036-.011.072-.022.108-.031h0a1.738,1.738,0,0,1,.4-.049h.009c.039,0,.078,0,.117,0l.037,0c.035,0,.069.007.1.012l.061.011a1.58,1.58,0,0,1,.154.037l.059.017.077.029.06.024c.025.011.05.023.075.035l.055.029.074.042.049.032c.024.016.049.032.072.05l.042.033c.024.019.048.038.071.059a1.569,1.569,0,0,1,.29.347l.06.1.873,1.424,1.1,1.787.278.455a.716.716,0,0,1,.065.134.764.764,0,0,1,.023.443.842.842,0,0,1-.385.523l-.492.3h0a.864.864,0,0,1-.1.053l-.023.01a.847.847,0,0,1-.107.036l-.013,0a.858.858,0,0,1-.1.018l-.02,0a.945.945,0,0,1-.11,0h-.02a.843.843,0,0,1-.11-.014h0a.8.8,0,0,1-.113-.033l-.01,0a.768.768,0,0,1-.212-.122h0a.789.789,0,0,1-.088-.084l-.007-.008a.715.715,0,0,1-.07-.094l-.816-1.334a2.164,2.164,0,0,0-1.358-.981,2.236,2.236,0,0,0-1.708.28.819.819,0,0,0-.38.585c-.009.07-.021.139-.033.206-.009.049-.02.1-.031.147,0,.016-.007.033-.011.049-.015.061-.03.122-.048.182l0,.007a3.468,3.468,0,0,1-.386.87h0a3.843,3.843,0,0,1-1.3,1.245.818.818,0,1,0,.85,1.4,5.988,5.988,0,0,0,1.061-.814l3.418,5.39a3.392,3.392,0,0,0,2.844,1.543c.06,0,.119,0,.179-.006.023.043.047.085.073.127a2.7,2.7,0,0,0,.33.434Zm.694-6.017h0c.014.038.028.076.044.114l.006.014c.014.034.029.068.045.1,0,.007.007.015.011.023.015.032.032.063.048.094l.015.028c.022.04.045.08.069.119.041.067.086.132.132.194l.051.066c.03.038.061.076.093.112s.045.052.068.077.037.036.055.054a2.7,2.7,0,0,0,.208.187l.023.018a2.658,2.658,0,0,0,.452.29,2.7,2.7,0,0,0-.289.891,1.738,1.738,0,0,1-1.351-.785L21.429,57.3a5.267,5.267,0,0,0,.4-1.154A.611.611,0,0,1,22,56.16a.541.541,0,0,1,.34.243l.816,1.334,0,.005a2.274,2.274,0,0,0,.13.189c.034.045.071.087.107.128.013.014.024.03.037.045l.006.022q.019.085.043.169c.005.016.01.032.015.049.02.063.041.126.066.187,0,.006.005.012.008.018.023.056.048.111.075.166.008.016.015.032.023.047.031.06.063.119.1.176a2.682,2.682,0,0,0,1.645,1.21A2.69,2.69,0,0,0,25.514,61.636Zm.522-9.741.275-.168a1.064,1.064,0,1,1,1.11,1.815l-.273.167-.809-1.32Zm6.1,9.831a1.036,1.036,0,0,1,.3,1.89l-2.7,1.652a1.028,1.028,0,0,1-.718.136l-.043-.009-.022,0a1.029,1.029,0,0,1-.771-.8.063.063,0,0,0,0-.009,1.042,1.042,0,0,1,.274-.919l.019-.019.037-.034c.012-.011.025-.022.039-.032l.029-.023c.024-.018.049-.035.075-.051h0l.537-.328a2.79,2.79,0,0,0,.278-.147l2.068-1.264A1.031,1.031,0,0,1,32.135,61.726Zm-1.883-3.587a1.064,1.064,0,0,1,1.013,1.867l-.487.3a2.735,2.735,0,0,0-.28.149L28.441,61.71a1.067,1.067,0,0,1-1.11-.209h0c-.023-.021-.045-.043-.066-.066l-.016-.02c-.015-.018-.031-.036-.045-.055s-.039-.055-.057-.083-.034-.06-.049-.09l-.013-.03c-.009-.021-.019-.042-.027-.064s-.008-.023-.011-.034-.013-.041-.019-.062-.006-.023-.009-.035-.009-.042-.013-.064L27,60.864c0-.022-.005-.044-.006-.066s0-.021,0-.032,0-.046,0-.069,0-.02,0-.03,0-.046.006-.069,0-.02,0-.029.007-.041.012-.061a1.061,1.061,0,0,1,.341-.582l.021-.02.031-.026c.026-.015.052-.028.077-.043l2.656-1.623Q30.2,58.177,30.252,58.139Zm-1.272-3.265a1.064,1.064,0,0,1,.4,1.875l-.081.046-2.05,1.253.02-.017c.039-.031.078-.063.115-.1s.045-.042.067-.064.067-.065.1-.1.042-.047.063-.071.058-.07.086-.106.038-.051.057-.077.051-.075.075-.114.033-.053.049-.081.045-.083.066-.125c.013-.027.027-.053.039-.08.021-.047.04-.1.059-.145.009-.023.019-.046.027-.07.025-.074.048-.148.066-.225s.031-.146.042-.219c0-.023.005-.047.008-.07.006-.05.011-.1.014-.15,0-.027,0-.055,0-.082,0-.047,0-.093,0-.14,0-.028,0-.055,0-.083,0-.047-.009-.094-.015-.14,0-.026-.006-.052-.011-.078-.009-.053-.02-.1-.033-.157,0-.019-.008-.038-.012-.057-.019-.07-.04-.14-.065-.208-.005-.013-.011-.026-.017-.04-.018-.046-.035-.093-.056-.138L28.176,55A1.057,1.057,0,0,1,28.981,54.874Zm19.461-8.267a.261.261,0,0,1-.117.162l-.979.6a.262.262,0,0,1-.36-.085L36.677,30.581a.818.818,0,1,0-1.393.859l8.834,14.318L25.1,49.9l-5.037-8.164L32.294,26.593l.988,1.6a.819.819,0,1,0,1.393-.86l-2.463-3.991a.261.261,0,0,1,.085-.36l.979-.6a.262.262,0,0,1,.36.085L48.41,46.41A.26.26,0,0,1,48.442,46.607Zm0,0" transform="translate(0 -18.446)"/>
</svg>
