<svg xmlns="http://www.w3.org/2000/svg" width="84.945" height="84.945" viewBox="0 0 84.945 84.945">
  <g id="Grupo_1097880" data-name="Grupo 1097880" transform="translate(-185.986 -2772.87)">
    <path id="Trazado_861606" data-name="Trazado 861606" d="M42.473,0A42.473,42.473,0,1,1,0,42.473,42.473,42.473,0,0,1,42.473,0Z" transform="translate(185.986 2772.87)" fill="#ffb6c8"/>
    <g id="pareja_2_" data-name="pareja (2)" transform="translate(202.945 2789.923)">
      <path id="Trazado_875785" data-name="Trazado 875785" d="M34.887,256.546l-.922-8.241-.689-6.157a5.7,5.7,0,0,0-1.062-3.268h0a5.236,5.236,0,0,0-1.166-1.012l-.036-.009c-1.212-.726-2.233-.756-4.483-1.376l-1.515-.725a1.386,1.386,0,0,1-.787-1.25v-1.579a7.464,7.464,0,0,1-6,0v1.486a1.533,1.533,0,0,1-.871,1.383l-1.431.685c-2.24.616-3.269.648-4.483,1.376l-.036.009a5.15,5.15,0,0,0-1.166,1.012h0a5.815,5.815,0,0,0-1.062,3.268l-.689,6.157c-.97,8.807-.941,8.1-.941,8.782a2.661,2.661,0,0,0,2.715,2.806h0c.026,0,21.881,0,21.932,0h0C34.059,259.873,35.053,258.461,34.887,256.546Z" transform="translate(-6.728 -209.8)" fill="#eab883"/>
      <path id="Trazado_875786" data-name="Trazado 875786" d="M12.744,296.827a2.661,2.661,0,0,1-2.715-2.806c0-.681-.025-.007.941-8.782l.689-7.051a5.647,5.647,0,0,1,1.062-3.268h0a5.131,5.131,0,0,1,1.124-.985,8.1,8.1,0,0,0-2.4.858l-.036.009a5.151,5.151,0,0,0-1.166,1.012h0a5.815,5.815,0,0,0-1.062,3.268l-.689,6.157c-.97,8.807-.941,8.1-.941,8.782a2.661,2.661,0,0,0,2.715,2.806h0c.055,0,.8,0,2.522,0h-.039Z" transform="translate(-6.73 -246.735)" fill="#d8a373"/>
      <path id="Trazado_875787" data-name="Trazado 875787" d="M96.791,235.7a7.843,7.843,0,0,0,5.351-1.91l-1.562-.737a1.386,1.386,0,0,1-.787-1.25v-1.877a7.465,7.465,0,0,1-6,0v1.784a1.533,1.533,0,0,1-.871,1.383l-1.478.7A7.843,7.843,0,0,0,96.791,235.7Z" transform="translate(-82.294 -207.097)" fill="#eab883"/>
      <path id="Trazado_875788" data-name="Trazado 875788" d="M42.506,280.566l0-.02-.689-6.157a5.7,5.7,0,0,0-1.062-3.268h0a5.237,5.237,0,0,0-1.166-1.012l-.036-.009c-1.214-.727-2.256-.763-4.437-1.364l-.03.027h0a7.86,7.86,0,0,1-5.321,1.884,7.843,7.843,0,0,1-5.351-1.91l.047-.012c-2.24.616-3.269.648-4.483,1.376l-.036.009a5.15,5.15,0,0,0-1.166,1.012h0a5.814,5.814,0,0,0-1.062,3.268l-.689,6.157,4.537.473a.832.832,0,0,1,.744.872l-.553,10.243h16.03l-.567-10.39a.689.689,0,0,1,.622-.724Z" transform="translate(-15.267 -242.04)" fill="#70bbef"/>
      <path id="Trazado_875789" data-name="Trazado 875789" d="M19.507,285.24l.689-7.051a5.647,5.647,0,0,1,1.062-3.268h0a5.131,5.131,0,0,1,1.124-.985,8.1,8.1,0,0,0-2.4.858l-.036.009a5.151,5.151,0,0,0-1.166,1.012h0a5.815,5.815,0,0,0-1.062,3.268l-.689,6.157,2.454.256Z" transform="translate(-15.269 -246.735)" fill="#4caee5"/>
      <path id="Trazado_875790" data-name="Trazado 875790" d="M96.279,232.986v-2.447a7.438,7.438,0,0,1-2.49-.611v1.784a1.533,1.533,0,0,1-.871,1.383c-2.643,1.265-.668.324-1.478.7a6.984,6.984,0,0,0,2.92,1.581l1.308-1.085A1.691,1.691,0,0,0,96.279,232.986Z" transform="translate(-82.294 -207.097)" fill="#d8a373"/>
      <path id="Trazado_875791" data-name="Trazado 875791" d="M66.651,10.333c-3.07-3.635-10.055-3.975-13.88.581a9.454,9.454,0,0,0-2.143,4.993c-.11.989-.032,1.617-.059,3.6h18.9C70.983,11.463,66.651,10.333,66.651,10.333Z" transform="translate(-45.48 -6.802)" fill="#4c4846"/>
      <path id="Trazado_875792" data-name="Trazado 875792" d="M52.611,15.81a9.41,9.41,0,0,1,8.416-8.242,9.438,9.438,0,0,0-10.348,7.914,28.629,28.629,0,0,0-.111,4h1.976A34.985,34.985,0,0,1,52.611,15.81Z" transform="translate(-45.479 -6.772)" fill="#3f3b39"/>
      <g id="Grupo_1097857" data-name="Grupo 1097857" transform="translate(4.621 11.627)">
        <path id="Trazado_875793" data-name="Trazado 875793" d="M222.666,119.067a2.279,2.279,0,0,1-2.444,1.964V117.1A2.28,2.28,0,0,1,222.666,119.067Z" transform="translate(-202.909 -117.104)" fill="#eab883"/>
        <path id="Trazado_875794" data-name="Trazado 875794" d="M45.869,119.067a2.279,2.279,0,0,0,2.444,1.964V117.1A2.28,2.28,0,0,0,45.869,119.067Z" transform="translate(-45.869 -117.104)" fill="#eab883"/>
      </g>
      <g id="Grupo_1097858" data-name="Grupo 1097858" transform="translate(4.618 12.796)">
        <path id="Trazado_875795" data-name="Trazado 875795" d="M220.222,130.046v1.589a2.28,2.28,0,0,0,2.444-1.964,1.6,1.6,0,0,0-.217-.794A2.575,2.575,0,0,1,220.222,130.046Z" transform="translate(-202.906 -128.877)" fill="#d8a373"/>
        <path id="Trazado_875796" data-name="Trazado 875796" d="M46.064,128.878c-.758,1.33.558,2.758,2.227,2.758v-1.589A2.575,2.575,0,0,1,46.064,128.878Z" transform="translate(-45.844 -128.878)" fill="#d8a373"/>
      </g>
      <path id="Trazado_875797" data-name="Trazado 875797" d="M70.291,91.425a.751.751,0,0,0-.83.745c0,4.307-.015,4.383.032,4.9.84,9.276,15.036,9.115,15.036-.688,0-1.3,0-4.563-.006-4.567h0a.92.92,0,0,0-.612-.637,11.231,11.231,0,0,1-3.473-1.873,1.425,1.425,0,0,0-1.713-.054A11.962,11.962,0,0,1,70.291,91.425Z" transform="translate(-62.496 -80.157)" fill="#f7cf9c"/>
      <g id="Grupo_1097859" data-name="Grupo 1097859" transform="translate(6.964 11.264)">
        <path id="Trazado_875798" data-name="Trazado 875798" d="M74.759,124.271c-3.453-2.8-2.8-6.271-2.8-10.753a13.868,13.868,0,0,1-1.652-.068.751.751,0,0,0-.83.745c.016,4.059-.028,4.237.032,4.9a7.527,7.527,0,0,0,8.743,6.741A10.748,10.748,0,0,1,74.759,124.271Z" transform="translate(-69.472 -113.446)" fill="#eab883"/>
        <path id="Trazado_875799" data-name="Trazado 875799" d="M256.247,256.546l-.922-8.241-.689-6.157a5.7,5.7,0,0,0-1.062-3.268h0a5.236,5.236,0,0,0-1.166-1.012l-.036-.009c-1.212-.726-2.233-.756-4.483-1.376l-1.515-.725a1.386,1.386,0,0,1-.787-1.25v-1.579a7.464,7.464,0,0,1-6,0v1.486a1.533,1.533,0,0,1-.871,1.383l-1.431.685c-2.24.616-3.269.648-4.483,1.376l-.036.009a5.15,5.15,0,0,0-1.166,1.012h0a5.815,5.815,0,0,0-1.062,3.268l-.689,6.157c-.97,8.807-.941,8.1-.941,8.782a2.661,2.661,0,0,0,2.715,2.806h0c.026,0,21.881,0,21.932,0h0C255.419,259.873,256.413,258.461,256.247,256.546Z" transform="translate(-213.071 -221.064)" fill="#eab883"/>
      </g>
      <path id="Trazado_875800" data-name="Trazado 875800" d="M234.1,296.827a2.661,2.661,0,0,1-2.715-2.806c0-.681-.025-.007.941-8.782l.689-7.051a5.647,5.647,0,0,1,1.062-3.268h0a5.133,5.133,0,0,1,1.124-.985,8.1,8.1,0,0,0-2.4.858l-.036.009a5.151,5.151,0,0,0-1.166,1.012h0a5.813,5.813,0,0,0-1.062,3.268l-.689,6.157c-.97,8.807-.941,8.1-.941,8.782a2.661,2.661,0,0,0,2.715,2.806h0c.055,0,.8,0,2.522,0H234.1Z" transform="translate(-206.109 -246.735)" fill="#d8a373"/>
      <path id="Trazado_875801" data-name="Trazado 875801" d="M318.149,235.7a7.843,7.843,0,0,0,5.351-1.91l-1.562-.737a1.386,1.386,0,0,1-.787-1.25v-1.877a7.465,7.465,0,0,1-6,0v1.784a1.533,1.533,0,0,1-.871,1.383l-1.478.7A7.843,7.843,0,0,0,318.149,235.7Z" transform="translate(-281.671 -207.097)" fill="#eab883"/>
      <path id="Trazado_875802" data-name="Trazado 875802" d="M263.866,280.566l0-.02-.689-6.157a5.7,5.7,0,0,0-1.062-3.268h0a5.236,5.236,0,0,0-1.166-1.012l-.036-.009c-1.214-.727-2.256-.763-4.437-1.364l-.03.027h0a8.453,8.453,0,0,1-10.672-.027l.047-.012c-2.24.616-3.269.648-4.483,1.376l-.036.009a5.15,5.15,0,0,0-1.166,1.012h0a5.814,5.814,0,0,0-1.062,3.268l-.689,6.157,4.537.473a.832.832,0,0,1,.744.872l-.553,10.243h16.03l-.567-10.39a.689.689,0,0,1,.622-.724Z" transform="translate(-214.646 -242.04)" fill="#7f7369"/>
      <path id="Trazado_875803" data-name="Trazado 875803" d="M240.867,285.24l.689-7.051a5.647,5.647,0,0,1,1.062-3.268h0a5.133,5.133,0,0,1,1.124-.985,8.1,8.1,0,0,0-2.4.858l-.036.009a5.15,5.15,0,0,0-1.166,1.012h0a5.813,5.813,0,0,0-1.062,3.268l-.689,6.157,2.454.256Z" transform="translate(-214.648 -246.735)" fill="#72655a"/>
      <path id="Trazado_875804" data-name="Trazado 875804" d="M317.638,232.986v-2.447a7.438,7.438,0,0,1-2.49-.611v1.784a1.533,1.533,0,0,1-.871,1.383c-2.643,1.265-.668.324-1.478.7a6.984,6.984,0,0,0,2.92,1.581l1.308-1.085A1.691,1.691,0,0,0,317.638,232.986Z" transform="translate(-281.672 -207.097)" fill="#d8a373"/>
      <path id="Trazado_875805" data-name="Trazado 875805" d="M288.009,10.333c-3.07-3.635-10.055-3.975-13.88.581a9.455,9.455,0,0,0-2.143,4.993c-.11.989-.032,1.617-.059,3.6h18.9C292.341,11.463,288.009,10.333,288.009,10.333Z" transform="translate(-244.857 -6.802)" fill="#4c4846"/>
      <path id="Trazado_875806" data-name="Trazado 875806" d="M273.971,15.81a9.41,9.41,0,0,1,8.416-8.242,9.438,9.438,0,0,0-10.348,7.914,28.622,28.622,0,0,0-.111,4H273.9A34.946,34.946,0,0,1,273.971,15.81Z" transform="translate(-244.858 -6.772)" fill="#3f3b39"/>
      <g id="Grupo_1097860" data-name="Grupo 1097860" transform="translate(26.601 11.627)">
        <path id="Trazado_875807" data-name="Trazado 875807" d="M444.024,119.067a2.279,2.279,0,0,1-2.444,1.964V117.1A2.28,2.28,0,0,1,444.024,119.067Z" transform="translate(-424.267 -117.104)" fill="#eab883"/>
        <path id="Trazado_875808" data-name="Trazado 875808" d="M267.228,119.067a2.28,2.28,0,0,0,2.444,1.964V117.1A2.28,2.28,0,0,0,267.228,119.067Z" transform="translate(-267.228 -117.104)" fill="#eab883"/>
      </g>
      <g id="Grupo_1097861" data-name="Grupo 1097861" transform="translate(26.599 12.796)">
        <path id="Trazado_875809" data-name="Trazado 875809" d="M441.58,130.046v1.589a2.28,2.28,0,0,0,2.444-1.964,1.6,1.6,0,0,0-.217-.794A2.575,2.575,0,0,1,441.58,130.046Z" transform="translate(-424.264 -128.877)" fill="#d8a373"/>
        <path id="Trazado_875810" data-name="Trazado 875810" d="M267.423,128.878c-.758,1.33.558,2.758,2.227,2.758v-1.589A2.575,2.575,0,0,1,267.423,128.878Z" transform="translate(-267.203 -128.878)" fill="#d8a373"/>
      </g>
      <path id="Trazado_875811" data-name="Trazado 875811" d="M291.649,91.425a.751.751,0,0,0-.83.745c0,4.307-.015,4.383.032,4.9.84,9.276,15.036,9.115,15.036-.688,0-1.3,0-4.563-.006-4.567h0a.92.92,0,0,0-.612-.637,11.232,11.232,0,0,1-3.473-1.873,1.425,1.425,0,0,0-1.713-.054A11.961,11.961,0,0,1,291.649,91.425Z" transform="translate(-261.873 -80.157)" fill="#f7cf9c"/>
      <path id="Trazado_875812" data-name="Trazado 875812" d="M296.118,124.271c-3.453-2.8-2.8-6.271-2.8-10.753a13.866,13.866,0,0,1-1.652-.068.751.751,0,0,0-.83.745c.016,4.059-.029,4.237.032,4.9a7.527,7.527,0,0,0,8.743,6.741A10.748,10.748,0,0,1,296.118,124.271Z" transform="translate(-261.886 -102.182)" fill="#eab883"/>
      <path id="Trazado_875813" data-name="Trazado 875813" d="M3.572,50.84H9.665a.745.745,0,1,0,0-1.489H7.284l.738-13.967a.745.745,0,0,0-1.487-.079l-.156,2.944-3.8-.384c.664-5.755.662-6.432.885-7.154a3.969,3.969,0,0,1,2.893-2.553l2.578-.642a9.292,9.292,0,0,0,11.1-.007c1.807.514,3,.547,4.169,1.386l0,0a3.906,3.906,0,0,1,.325.262c-.887,1.446-.684,2.355-1.5,9.044l-.405.041-.155-2.934a.744.744,0,0,0-.743-.705h-.04a.745.745,0,0,0-.7.783l.738,13.967H13.14a.745.745,0,1,0,0,1.489c35.648,0,34.267,0,34.321,0a3.385,3.385,0,0,0,2.444-.982c1.425-1.46.952-3.248.781-4.913a.744.744,0,0,0-.823-.657c-1.624.182.474,2.994-1.024,4.529-.8.815-1.892.435-3.657.534l-.508-9.616,3.887-.393.259,2.314a.745.745,0,1,0,1.48-.166c-1.126-9.807-1.069-10.255-1.366-11.217-1.06-3.439-4.572-3.649-6.9-4.293l-1.447-.693a.644.644,0,0,1-.364-.578v-1.1A8.363,8.363,0,0,0,44.607,17.8a8.17,8.17,0,0,0,.151-1.577A2.809,2.809,0,0,0,47.1,13.592a2.428,2.428,0,0,0-.346-1.243c.593-3.4.248-6.017-1.025-7.782a4.583,4.583,0,0,0-2.16-1.687C40-1.107,32.572-1.052,28.7,3.64A10.21,10.21,0,0,0,26.5,8.252a19.012,19.012,0,0,0-.18,3.908c-1.107,1.552-.162,3.616,1.876,4.06a8.3,8.3,0,0,0,4.529,7.389v1.007a.793.793,0,0,1-.448.711l-1.363.652c-1.994.6-3.777.6-5.432,2.039-1.66-1.443-3.417-1.434-5.432-2.039-1.45-.694-1.377-.655-1.449-.7-.551-.37-.3-1-.362-1.675l.046-.023h0a8.357,8.357,0,0,0,4.468-7.358,2.643,2.643,0,0,0,2-3.871c.593-3.4.248-6.017-1.025-7.782a4.583,4.583,0,0,0-2.16-1.687C18.962-.032,13.945-.894,10,1.049a.738.738,0,0,0-.338.992.751.751,0,0,0,1,.341C13.857.809,18.3,1.311,20.583,4.013a.668.668,0,0,0,.4.246c.139.034,3.206.857,2.441,6.927a3.375,3.375,0,0,0-.967-.273,1.642,1.642,0,0,0-.878-.61A10.588,10.588,0,0,1,18.39,8.571a2.178,2.178,0,0,0-2.608-.082,11.249,11.249,0,0,1-7.931,2.04,1.5,1.5,0,0,0-1.138.364,3.429,3.429,0,0,0-.9.181,11.158,11.158,0,0,1,.3-3.179A8.659,8.659,0,0,1,8,4.405H8l.086-.093A.745.745,0,0,0,6.994,3.3,10.21,10.21,0,0,0,4.678,7.5a15.806,15.806,0,0,0-.353,4.659c-1.108,1.553-.16,3.616,1.876,4.06v.007a8.269,8.269,0,0,0,4.55,7.392v1.059a.694.694,0,0,1-.392.622L8.94,25.98c-1.79.511-6.2.81-7.023,4.771C1.784,31.4.094,46.673.093,46.683-.112,49.053,1.251,50.84,3.572,50.84Zm24.2-1.489H25.519a1.911,1.911,0,0,1-1.4-.533,2.454,2.454,0,0,1-.558-2l.837-7.482,3.887.393Zm-4.919-9.639-.107.96-.05-.944ZM40.394,26.846a8.066,8.066,0,0,1-7.835,0,2.44,2.44,0,0,0,1.66-2.23v-.424a8.4,8.4,0,0,0,4.515,0v.516A2.364,2.364,0,0,0,40.394,26.846Zm4.364-12.18c0-.97,0-1.234,0-2.147a1.242,1.242,0,0,1,.855,1.074A1.241,1.241,0,0,1,44.758,14.666ZM30.01,4.4C33.55.431,39.843.769,42.582,4.013a.668.668,0,0,0,.4.246c.139.034,3.206.857,2.441,6.927a3.376,3.376,0,0,0-.967-.273,1.642,1.642,0,0,0-.878-.61,10.591,10.591,0,0,1-3.192-1.732,2.178,2.178,0,0,0-2.608-.082,11.249,11.249,0,0,1-7.931,2.04,1.506,1.506,0,0,0-1.138.364,3.433,3.433,0,0,0-.9.18A9.039,9.039,0,0,1,30.01,4.4ZM28.2,12.519v2.147A1.1,1.1,0,0,1,28.2,12.519Zm1.489-.5a12.893,12.893,0,0,0,8.949-2.308.682.682,0,0,1,.817.025A11.969,11.969,0,0,0,43.2,11.743a.254.254,0,0,1,.066.06c0,.31.019,4.33-.026,5.047A6.782,6.782,0,0,1,39.6,22.258h0l-.01.005h0l-.015.008a8.214,8.214,0,0,1-1.021.416,6.586,6.586,0,0,1-4.9-.284C29,20.317,29.69,15.855,29.69,12.014ZM28.335,28.158l2.592-.645a9.292,9.292,0,0,0,11.1,0c2.86.79,5.265.794,5.684,4.22l.686,6.129-3.8.384-.156-2.94a.745.745,0,0,0-1.487.079l.738,13.967H29.262L30,35.384a.745.745,0,0,0-1.487-.079l-.155,2.937-3.8-.384c.692-6.066.658-6.136.8-6.806A3.889,3.889,0,0,1,28.335,28.158ZM10.571,26.851,11,26.644A2.4,2.4,0,0,0,12.24,24.2a8.314,8.314,0,0,0,4.515-.01,2.471,2.471,0,0,0,1.309,2.49l.342.164A8.067,8.067,0,0,1,10.571,26.851ZM22.759,14.666c0-.97,0-1.234,0-2.147A1.1,1.1,0,0,1,22.759,14.666ZM6.2,12.519v2.147A1.1,1.1,0,0,1,6.2,12.519Zm3.313,8.339c-2.246-2.465-1.809-4.648-1.824-8.843A12.765,12.765,0,0,0,16.64,9.706a.682.682,0,0,1,.817.025A11.969,11.969,0,0,0,21.2,11.743a.251.251,0,0,1,.066.06c0,.353.008,4.347,0,4.732v0A6.689,6.689,0,0,1,17.6,22.258h0l-.01.005h0l-.4.187h0a6.707,6.707,0,0,1-5.4,0h0a1.9,1.9,0,0,1-.432-.187h0A6.676,6.676,0,0,1,9.515,20.857ZM6.3,39.738l-.508,9.612H3.54c-1.243-.013-2.106-.843-1.963-2.529l.836-7.475Z" transform="translate(0 0)"/>
    </g>
  </g>
</svg>
