<svg xmlns="http://www.w3.org/2000/svg" width="84.945" height="84.945" viewBox="0 0 84.945 84.945">
  <g id="Grupo_1097879" data-name="Grupo 1097879" transform="translate(-185.986 -2874)">
    <path id="Trazado_861606" data-name="Trazado 861606" d="M42.473,0A42.473,42.473,0,1,1,0,42.473,42.473,42.473,0,0,1,42.473,0Z" transform="translate(185.986 2874)" fill="#ffb6c8"/>
    <g id="bisexual" transform="translate(205.515 2888)">
      <path id="Trazado_875814" data-name="Trazado 875814" d="M332.034,151.5H327.18v23.228h1.3V188.1a1.825,1.825,0,0,0,1.732,1.839,1.8,1.8,0,0,0,1.863-1.8V158.063a.978.978,0,1,1,1.956,0v10.984a1.825,1.825,0,0,0,1.732,1.839,1.8,1.8,0,0,0,1.863-1.8V157.085A5.586,5.586,0,0,0,332.034,151.5Zm0,0" transform="translate(-291.551 -135.002)" fill="#8bcaff"/>
      <path id="Trazado_875815" data-name="Trazado 875815" d="M327.18,52.945V61.33a4.192,4.192,0,1,0,0-8.385Zm0,0" transform="translate(-291.552 -47.18)" fill="#8bcaff"/>
      <path id="Trazado_875816" data-name="Trazado 875816" d="M319.146,52.945a4.2,4.2,0,0,0-.982.117,4.192,4.192,0,0,1,0,8.151,4.192,4.192,0,1,0,.982-8.268Zm0,0" transform="translate(-283.518 -47.18)" fill="#60b8ff"/>
      <path id="Trazado_875817" data-name="Trazado 875817" d="M347.631,235.644a1.832,1.832,0,0,0,1.711-1.848V203.771a.978.978,0,0,1,.978-.978h-1.305a1.636,1.636,0,0,0-1.636,1.636v29.42a1.8,1.8,0,0,1-.815,1.5,1.788,1.788,0,0,0,1.068.291Zm0,0" transform="translate(-308.823 -180.709)" fill="#60b8ff"/>
      <path id="Trazado_875818" data-name="Trazado 875818" d="M355.686,151.5h-1.964a5.586,5.586,0,0,1,5.586,5.586v12.006a1.8,1.8,0,0,1-.815,1.5,1.8,1.8,0,0,0,2.779-1.5V157.086A5.586,5.586,0,0,0,355.686,151.5Zm0,0" transform="translate(-315.204 -135.002)" fill="#60b8ff"/>
      <path id="Trazado_875819" data-name="Trazado 875819" d="M292.872,52.945V61.33a4.192,4.192,0,0,1,0-8.385Zm0,0" transform="translate(-257.244 -47.18)" fill="#ff94d4"/>
      <path id="Trazado_875820" data-name="Trazado 875820" d="M319.146,125.461a4.18,4.18,0,0,1-.982.372,4.388,4.388,0,0,0,.982.117Zm0,0" transform="translate(-283.518 -111.799)" fill="#ff73c6"/>
      <path id="Trazado_875821" data-name="Trazado 875821" d="M319.146,52.945a4.36,4.36,0,0,0-.982.117,4.179,4.179,0,0,1,.982.371Zm0,0" transform="translate(-283.518 -47.18)" fill="#ff73c6"/>
      <path id="Trazado_875822" data-name="Trazado 875822" d="M202.973,155.494h0l-3.654,13.115a1.8,1.8,0,0,0,3.463.965l3.276-11.762a.992.992,0,0,1,1.917.514l-4.219,16.4h4.538V188.1a1.825,1.825,0,0,0,1.732,1.839,1.8,1.8,0,0,0,1.863-1.8V174.727h1.3V151.5h-4.854a5.588,5.588,0,0,0-5.355,3.994Zm0,0" transform="translate(-177.553 -135.002)" fill="#ff94d4"/>
      <path id="Trazado_875823" data-name="Trazado 875823" d="M209.449,215.281l3.276-11.762a.992.992,0,0,1,.956-.726h-1.963a.992.992,0,0,0-.956.726l-3.276,11.762a1.79,1.79,0,0,1-.751,1.022,1.8,1.8,0,0,0,2.715-1.022Zm0,0" transform="translate(-184.222 -180.71)" fill="#ff73c6"/>
      <path id="Trazado_875824" data-name="Trazado 875824" d="M290.649,378.211a1.794,1.794,0,0,1-.809,1.5,1.744,1.744,0,0,0,.909.3,1.8,1.8,0,0,0,1.863-1.8V364.8h-1.418a.545.545,0,0,0-.545.545Zm0,0" transform="translate(-258.278 -325.071)" fill="#ff73c6"/>
      <path id="Trazado_875825" data-name="Trazado 875825" d="M73.268,57.138a4.192,4.192,0,1,1-4.192-4.192A4.193,4.193,0,0,1,73.268,57.138Zm0,0" transform="translate(-57.817 -47.18)" fill="#8bcaff"/>
      <path id="Trazado_875826" data-name="Trazado 875826" d="M22.806,151.5H13.1a5.586,5.586,0,0,0-5.586,5.586v11.962a1.826,1.826,0,0,0,1.732,1.839,1.8,1.8,0,0,0,1.863-1.8V158.063a.978.978,0,1,1,1.956,0V188.1a1.825,1.825,0,0,0,1.732,1.839,1.8,1.8,0,0,0,1.863-1.8V175.13a1.3,1.3,0,1,1,2.591,0v13.011a1.8,1.8,0,0,0,3.594,0V158.063a.978.978,0,1,1,1.955,0v11.028a1.8,1.8,0,0,0,3.595,0V157.085a5.586,5.586,0,0,0-5.586-5.586Zm0,0" transform="translate(-6.694 -135.002)" fill="#8bcaff"/>
      <g id="Grupo_1097862" data-name="Grupo 1097862" transform="translate(1.641 5.766)">
        <path id="Trazado_875827" data-name="Trazado 875827" d="M95.349,52.945a4.2,4.2,0,0,0-.982.117,4.192,4.192,0,0,1,0,8.151,4.192,4.192,0,1,0,.982-8.268Zm0,0" transform="translate(-85.732 -52.945)" fill="#60b8ff"/>
        <path id="Trazado_875828" data-name="Trazado 875828" d="M123.834,235.644a1.832,1.832,0,0,0,1.711-1.848V203.771a.978.978,0,0,1,.978-.978h-1.305a1.636,1.636,0,0,0-1.636,1.636v29.42a1.8,1.8,0,0,1-.815,1.5,1.788,1.788,0,0,0,1.068.291Zm0,0" transform="translate(-111.037 -186.475)" fill="#60b8ff"/>
        <path id="Trazado_875829" data-name="Trazado 875829" d="M66.84,358.243v12.67a1.794,1.794,0,0,1-.809,1.5,1.744,1.744,0,0,0,.909.3,1.8,1.8,0,0,0,1.863-1.8V357.9a1.3,1.3,0,0,1,1.3-1.3H68.476a1.636,1.636,0,0,0-1.636,1.636Zm0,0" transform="translate(-60.481 -323.539)" fill="#60b8ff"/>
        <path id="Trazado_875830" data-name="Trazado 875830" d="M131.889,151.5h-1.964a5.586,5.586,0,0,1,5.586,5.586v12.006a1.794,1.794,0,0,1-.816,1.5,1.8,1.8,0,0,0,2.779-1.5V157.086A5.585,5.585,0,0,0,131.889,151.5Zm0,0" transform="translate(-117.418 -140.768)" fill="#60b8ff"/>
        <path id="Trazado_875831" data-name="Trazado 875831" d="M17.511,202.793a1.636,1.636,0,0,0-1.636,1.636V214.8a1.8,1.8,0,0,1-.808,1.5,1.741,1.741,0,0,0,.909.3,1.8,1.8,0,0,0,1.863-1.8V203.77a.978.978,0,0,1,.978-.978Zm0,0" transform="translate(-15.066 -186.475)" fill="#60b8ff"/>
      </g>
      <path id="Trazado_875832" data-name="Trazado 875832" d="M175.121,8.892a2.422,2.422,0,0,0-4.6.873c-.465,3.4,4.6,5.861,4.6,5.861s5.064-2.462,4.6-5.861A2.422,2.422,0,0,0,175.121,8.892Zm0,0" transform="translate(-151.927 -6.7)" fill="#ff646f"/>
      <path id="Trazado_875833" data-name="Trazado 875833" d="M209.564,9.773a2.438,2.438,0,0,0-3.417-2.056A2.438,2.438,0,0,1,207.6,9.773c.333,2.434-2.169,4.388-3.617,5.3.574.362.982.56.982.56s5.064-2.462,4.6-5.861Zm0,0" transform="translate(-181.771 -6.708)" fill="#ff4755"/>
      <path id="Trazado_875834" data-name="Trazado 875834" d="M286.179,55.455a5.01,5.01,0,1,1,5.01-5.01A5.016,5.016,0,0,1,286.179,55.455Zm0-8.385a3.374,3.374,0,1,0,3.375,3.374A3.378,3.378,0,0,0,286.179,47.07Zm0,0" transform="translate(-250.55 -40.486)"/>
      <path id="Trazado_875835" data-name="Trazado 875835" d="M165.42,7.89a13.681,13.681,0,0,0,2.65,1.772.824.824,0,0,0,.715,0,13.693,13.693,0,0,0,2.65-1.772c1.8-1.551,2.631-3.258,2.4-4.936A3.192,3.192,0,0,0,170.893.013a3.338,3.338,0,0,0-2.465.764,3.342,3.342,0,0,0-2.465-.764,3.192,3.192,0,0,0-2.945,2.941c-.229,1.678.6,3.385,2.4,4.936Zm-.781-4.714A1.564,1.564,0,0,1,166.1,1.643c.053,0,.106-.007.159-.007a1.419,1.419,0,0,1,1.388.8.818.818,0,0,0,1.561,0,1.466,1.466,0,0,1,1.547-.794,1.564,1.564,0,0,1,1.46,1.533c.288,2.1-2.37,4.043-3.788,4.828C167.01,7.218,164.352,5.279,164.64,3.176Zm0,0" transform="translate(-145.233 0)"/>
      <path id="Trazado_875836" data-name="Trazado 875836" d="M62.382,55.455a5.01,5.01,0,1,0-5.01-5.01A5.016,5.016,0,0,0,62.382,55.455Zm0-8.385a3.374,3.374,0,1,1-3.374,3.374A3.378,3.378,0,0,1,62.382,47.07Zm0,0" transform="translate(-51.124 -40.486)"/>
      <path id="Trazado_875837" data-name="Trazado 875837" d="M40.482,143.984H30.775a6.442,6.442,0,0,0-6.117,4.509.863.863,0,0,0-.028.083l-2.113,7.588v-5.776a6.411,6.411,0,0,0-6.4-6.4H6.4a6.411,6.411,0,0,0-6.4,6.4v4.59a.818.818,0,1,0,1.636,0v-4.59A4.773,4.773,0,0,1,6.4,145.62h9.708a4.773,4.773,0,0,1,4.768,4.768v12.006a.979.979,0,0,1-1.958,0V151.366a1.8,1.8,0,0,0-3.592,0v30.078a.979.979,0,0,1-1.958,0V168.432a2.113,2.113,0,1,0-4.226,0v13.011a.989.989,0,0,1-1.016.978,1.01,1.01,0,0,1-.943-1.022V151.366a1.8,1.8,0,1,0-3.592,0v11.028a.989.989,0,0,1-1.016.978,1.01,1.01,0,0,1-.943-1.022v-4.1a.818.818,0,1,0-1.636,0v4.1a2.628,2.628,0,0,0,2.521,2.657,2.639,2.639,0,0,0,2.71-2.613V151.366a.16.16,0,0,1,.32,0V181.4a2.615,2.615,0,1,0,5.23.043V168.432a.477.477,0,0,1,.954,0v13.011a2.615,2.615,0,0,0,5.231,0V151.366a.16.16,0,0,1,.319,0v11.028a2.613,2.613,0,0,0,4.411,1.9,2.616,2.616,0,0,0,4.319-1.2l3.276-11.762a.175.175,0,0,1,.337.09l-1.456,5.662a.818.818,0,0,0,1.585.408l1.456-5.662a1.81,1.81,0,0,0-3.5-.937l-3.276,11.762a.979.979,0,0,1-1.887-.525l3.635-13.05c.006-.017.012-.034.017-.052a4.8,4.8,0,0,1,4.57-3.409h9.708a4.773,4.773,0,0,1,4.768,4.768v12.005a.988.988,0,0,1-1.015.978,1.01,1.01,0,0,1-.943-1.021V151.366a1.8,1.8,0,0,0-3.592,0v19.991a.818.818,0,1,0,1.636,0V151.366a.16.16,0,0,1,.319,0V162.35a2.616,2.616,0,1,0,5.231.043V150.388a6.411,6.411,0,0,0-6.4-6.4Zm0,0" transform="translate(0 -128.304)"/>
      <path id="Trazado_875838" data-name="Trazado 875838" d="M246.433,312.143l-.1,0a2.628,2.628,0,0,1-2.521-2.656V296.932h-.954v12.6a2.616,2.616,0,1,1-5.231-.043V296.932h-3.72a.827.827,0,0,1-.792-1.022l1.949-7.575a.818.818,0,1,1,1.585.408l-1.686,6.553h3.483a.818.818,0,0,1,.818.818v13.372a1.01,1.01,0,0,0,.943,1.021.988.988,0,0,0,1.016-.978V296.113a.818.818,0,0,1,.818-.818h2.591a.818.818,0,0,1,.818.818v13.372a1.01,1.01,0,0,0,.943,1.021.988.988,0,0,0,1.015-.978v-6.815a.818.818,0,0,1,1.636,0v6.815a2.639,2.639,0,0,1-2.613,2.615Zm0,0" transform="translate(-207.711 -256.389)"/>
    </g>
  </g>
</svg>
