<svg xmlns="http://www.w3.org/2000/svg" width="84.945" height="84.945" viewBox="0 0 84.945 84.945">
  <g id="Grupo_1097877" data-name="Grupo 1097877" transform="translate(-185.986 -2974)">
    <path id="Trazado_861606" data-name="Trazado 861606" d="M42.473,0A42.473,42.473,0,1,1,0,42.473,42.473,42.473,0,0,1,42.473,0Z" transform="translate(185.986 2974)" fill="#ffb6c8"/>
    <g id="hombre" transform="translate(206.97 2993.146)">
      <path id="Trazado_875913" data-name="Trazado 875913" d="M123.4,22.717c-.011-.741.016-1.2.016-1.2a18.291,18.291,0,0,0,5.345-7.264s3.3,5.015,11.028,7.21c0,0,.032.484.023,1.269a1.881,1.881,0,0,1,2.255.193c3.759-12.12-7.109-15.185-9.917-15.357a5.916,5.916,0,0,0-4.725,2.169c-2.646-2.033-5.576.407-6.615,4.2-.636,2.323-.189,6.339.254,9.1a1.858,1.858,0,0,1,2.337-.329Zm0,0" transform="translate(-109.638 -6.881)" fill="#945b44"/>
      <path id="Trazado_875914" data-name="Trazado 875914" d="M326.575,173.678a1.881,1.881,0,0,0-2.607-.594,21.622,21.622,0,0,1-1.081,6.722C326.747,181.1,327.924,175.553,326.575,173.678Zm0,0" transform="translate(-293.793 -157.228)" fill="#ffbd86"/>
      <path id="Trazado_875915" data-name="Trazado 875915" d="M121.382,173.063a1.873,1.873,0,0,0-2.57.613c-1.348,1.874-.174,7.415,3.681,6.13a21.766,21.766,0,0,1-1.111-6.744Zm0,0" transform="translate(-107.618 -157.227)" fill="#ffbd86"/>
      <path id="Trazado_875916" data-name="Trazado 875916" d="M323.34,200.005a15.758,15.758,0,0,1-.453,1.512c3.183,1.068,4.542-2.515,4.164-4.857C326.773,198.573,325.548,200.466,323.34,200.005Zm0,0" transform="translate(-293.793 -178.94)" fill="#ffa664"/>
      <path id="Trazado_875917" data-name="Trazado 875917" d="M118.338,196.66c-.377,2.34.979,5.919,4.157,4.86-.18-.5-.332-1.007-.459-1.512-2.2.45-3.42-1.439-3.7-3.348Zm0,0" transform="translate(-107.62 -178.94)" fill="#ffa664"/>
      <path id="Trazado_875918" data-name="Trazado 875918" d="M199.138,297.313a6.743,6.743,0,0,1-4.471-1.511v3.9a4.448,4.448,0,0,0,8.9,0v-3.9A6.75,6.75,0,0,1,199.138,297.313Zm0,0" transform="translate(-177.127 -269.147)" fill="#ffbd86"/>
      <path id="Trazado_875919" data-name="Trazado 875919" d="M169.119,89.084s.9,13.549-8.141,13.579-8.231-13.525-8.231-13.525a18.291,18.291,0,0,0,5.345-7.264s3.3,5.015,11.027,7.21Zm0,0" transform="translate(-138.967 -74.498)" fill="#fed2a4"/>
      <path id="Trazado_875920" data-name="Trazado 875920" d="M160.976,174.979c-7.04.023-8.107-8.2-8.234-11.83-.044.953-.46,13.494,8.234,13.465,8.392-.028,8.218-11.712,8.151-13.38-.126,3.7-1.2,11.722-8.151,11.745Zm0,0" transform="translate(-138.965 -148.449)" fill="#ffbd86"/>
      <path id="Trazado_875921" data-name="Trazado 875921" d="M194.668,295.8v1.633a7.293,7.293,0,0,0,8.9,0V295.8a7.3,7.3,0,0,1-8.9,0Zm0,0" transform="translate(-177.128 -269.148)" fill="#ffa664"/>
      <path id="Trazado_875922" data-name="Trazado 875922" d="M47.417,347.135c-2.446-1.978-14.1-8.085-14.1-8.085a4.448,4.448,0,0,1-8.9,0s-11.656,6.107-14.1,8.085-2.758,6.818-2.758,6.818H50.175s-.312-4.84-2.758-6.818Zm0,0" transform="translate(-6.879 -308.5)" fill="#8bcaff"/>
      <path id="Trazado_875923" data-name="Trazado 875923" d="M7.786,486.3a14.563,14.563,0,0,0-.228,1.635H50.174a14.5,14.5,0,0,0-.227-1.635Zm0,0" transform="translate(-6.878 -442.478)" fill="#60b8ff"/>
      <path id="Trazado_875928" data-name="Trazado 875928" d="M9.022,44.772H1.441A15.63,15.63,0,0,1,1.8,42.96a7.438,7.438,0,0,1,2.066-3.794c1.979-1.6,10.349-6.083,13.105-7.544a5.129,5.129,0,0,0,10.032,0c1.031.547,2.846,1.515,4.807,2.591a.681.681,0,0,0,.656-1.195c-2.364-1.3-4.517-2.439-5.349-2.878V26.962c.162-.146.319-.3.472-.462a10.138,10.138,0,0,0,1.928-3.113,3.835,3.835,0,0,0,.671.061,3.343,3.343,0,0,0,2.75-1.442c1.24-1.682,1.429-4.52.4-5.954-.046-.064-.093-.124-.141-.183,1.218-4.2.849-7.75-1.1-10.57C29.316,1.271,24.266.116,22.555.011a6.419,6.419,0,0,0-4.877,1.956,3.629,3.629,0,0,0-3.061-.327c-1.811.609-3.382,2.617-4.1,5.241a9.977,9.977,0,0,0-.3,1.915.681.681,0,1,0,1.359.1,8.683,8.683,0,0,1,.254-1.65c.591-2.159,1.856-3.851,3.221-4.31a2.4,2.4,0,0,1,2.322.468.683.683,0,0,0,.956-.126,5.277,5.277,0,0,1,4.142-1.9c1.425.088,6.045,1.14,8.5,4.7,1.631,2.363,1.979,5.368,1.041,8.942a2.408,2.408,0,0,0-1.168-.094c-.007-.226-.015-.36-.017-.38a.681.681,0,0,0-.493-.61A19.784,19.784,0,0,1,19.694,7a.681.681,0,0,0-1.2.128A17.761,17.761,0,0,1,13.368,14.1a.682.682,0,0,0-.269.5c0,.018-.007.128-.012.315a2.393,2.393,0,0,0-1.143.107c-.186-1.312-.31-2.525-.368-3.612a.681.681,0,0,0-1.361.073c.071,1.332.237,2.839.491,4.481-.022.029-.044.058-.065.088C9.61,17.485,9.8,20.322,11.036,22a3.343,3.343,0,0,0,2.753,1.446,3.852,3.852,0,0,0,.663-.06,10.165,10.165,0,0,0,1.969,3.149c.141.15.288.29.438.425v3.177c-2.029,1.07-11.6,6.146-13.848,7.967C.362,40.247.014,45.2,0,45.409a.688.688,0,0,0,.68.725H9.021a.681.681,0,1,0,0-1.363Zm21.612-25.8a25.814,25.814,0,0,0,.214-2.652,1.153,1.153,0,0,1,1.382.531,4.378,4.378,0,0,1-.388,4.35,1.974,1.974,0,0,1-1.864.879,19.954,19.954,0,0,0,.656-3.108ZM25.755,30.551a3.767,3.767,0,1,1-7.533,0V27.939a7.7,7.7,0,0,0,3.759.908h.032a7.721,7.721,0,0,0,3.742-.91ZM12.133,21.2a4.382,4.382,0,0,1-.386-4.348,1.147,1.147,0,0,1,1.346-.542,25.774,25.774,0,0,0,.234,2.721,20,20,0,0,0,.661,3.052,1.976,1.976,0,0,1-1.855-.882Zm2.316-6.218A19.182,19.182,0,0,0,19.295,8.7a21.758,21.758,0,0,0,10.195,6.4c.035,1.68-.067,7.44-2.9,10.472a6.041,6.041,0,0,1-4.582,1.911,6.037,6.037,0,0,1-4.595-1.88c-2.961-3.128-3-9.217-2.964-10.627Zm0,0" transform="translate(0 0)"/>
      <path id="Trazado_875929" data-name="Trazado 875929" d="M155.723,391.318c-.014-.21-.362-5.163-3.01-7.3a55.747,55.747,0,0,0-6.113-3.763.681.681,0,1,0-.668,1.187,51.6,51.6,0,0,1,5.924,3.635c1.65,1.334,2.237,4.247,2.426,5.607H123.493a.681.681,0,0,0,0,1.363h31.549a.688.688,0,0,0,.68-.725Zm0,0" transform="translate(-111.747 -345.909)"/>
    </g>
  </g>
</svg>
