<svg xmlns="http://www.w3.org/2000/svg" width="84.945" height="84.945" viewBox="0 0 84.945 84.945">
  <g id="Grupo_1097878" data-name="Grupo 1097878" transform="translate(-186 -3073.398)">
    <path id="Trazado_861608" data-name="Trazado 861608" d="M42.473,0A42.473,42.473,0,1,1,0,42.473,42.473,42.473,0,0,1,42.473,0Z" transform="translate(186 3073.398)" fill="#ffb6c8"/>
    <g id="Layer_27" data-name="Layer 27" transform="translate(202.001 3088.996)">
      <path id="Trazado_875857" data-name="Trazado 875857" d="M27.677,23l-.88.11A6.618,6.618,0,0,0,21,29.677v6.677H39.363V29.677a6.618,6.618,0,0,0-5.8-6.567l-.88-.11Z" transform="translate(-3.307 -3.637)" fill="#4e8c41"/>
      <path id="Trazado_875858" data-name="Trazado 875858" d="M33.9,23.11l-.88-.11H28.008l-.88.11a6.586,6.586,0,0,0-2.944,1.129A6.594,6.594,0,0,0,23,28.008a6.677,6.677,0,0,0,6.677,6.677H39.693V29.677a6.618,6.618,0,0,0-5.8-6.567Z" transform="translate(-3.638 -3.637)" fill="#5a9d4d"/>
      <path id="Trazado_875859" data-name="Trazado 875859" d="M58.363,58.595V44.406A5.008,5.008,0,0,0,53.355,39.4H51.685l-.573-3.042H47.255L46.681,39.4H45.008A5.008,5.008,0,0,0,40,44.406V58.595Z" transform="translate(-6.448 -5.846)" fill="#c43d32"/>
      <path id="Trazado_875860" data-name="Trazado 875860" d="M53.685,39.4H52.016l-.573-3.042H47.586L47.012,39.4H45.339A4.983,4.983,0,0,0,42.2,40.505a5.008,5.008,0,0,0-.2,1.4A14.189,14.189,0,0,0,56.189,56.091h2.5V44.406A5.008,5.008,0,0,0,53.685,39.4Z" transform="translate(-6.779 -5.846)" fill="#e2513a"/>
      <path id="Trazado_875861" data-name="Trazado 875861" d="M53.008,39.4l-2.5,1.669L48,39.4l.576-3.038h3.856Z" transform="translate(-7.771 -5.846)" fill="#eeb7a9"/>
      <path id="Trazado_875862" data-name="Trazado 875862" d="M49.995,41.669l-1.669,2.5-3.405-4.09a4.585,4.585,0,0,1,.9-.083h1.669Z" transform="translate(-7.262 -6.448)" fill="#a92d1f"/>
      <path id="Trazado_875863" data-name="Trazado 875863" d="M56.075,40.083l-3.405,4.09L51,41.669,53.5,40h1.669A4.585,4.585,0,0,1,56.075,40.083Z" transform="translate(-8.267 -6.448)" fill="#a92d1f"/>
      <path id="Trazado_875864" data-name="Trazado 875864" d="M48.316,38,48,39.669l2.5,1.669,2.5-1.669L52.692,38Z" transform="translate(-7.771 -6.117)" fill="#ffe0d1"/>
      <path id="Trazado_875865" data-name="Trazado 875865" d="M2,52H20.363v9.181H2Z" transform="translate(-0.166 -8.432)" fill="#ffe0d1"/>
      <path id="Trazado_875866" data-name="Trazado 875866" d="M17.448,39.656a7.363,7.363,0,0,0,2.557-2.546l.357-.6a2.5,2.5,0,0,1-2.5-2.5V24.677a6.677,6.677,0,1,0-13.355,0v9.334a2.5,2.5,0,0,1-2.5,2.5l.357.6a7.353,7.353,0,0,0,2.551,2.542Z" transform="translate(-0.166 -2.811)" fill="#efab38"/>
      <path id="Trazado_875867" data-name="Trazado 875867" d="M18.945,44.111a11.372,11.372,0,0,1-7.136,2.512h-.568A11.372,11.372,0,0,1,4.1,44.111,5.817,5.817,0,0,1,8.187,42.45h.835L9.6,39.562h3.856l.576,2.888h.835a5.817,5.817,0,0,1,4.082,1.661Z" transform="translate(-0.514 -6.376)" fill="#ffe0d1"/>
      <path id="Trazado_875868" data-name="Trazado 875868" d="M14.494,39.562H10.638l-.24,1.2h4.335Z" transform="translate(-1.554 -6.376)" fill="#eeb7a9"/>
      <path id="Trazado_875869" data-name="Trazado 875869" d="M18.689,34.011V24.677A6.668,6.668,0,0,0,7.023,20.254,18.363,18.363,0,0,0,20.629,37.412c.068-.1.144-.2.207-.3l.357-.6A2.5,2.5,0,0,1,18.689,34.011Z" transform="translate(-0.996 -2.811)" fill="#f3c343"/>
      <path id="Trazado_875870" data-name="Trazado 875870" d="M17.016,27.5v5.008A5.008,5.008,0,1,1,7,32.512V27.5h.326A5.623,5.623,0,0,0,12.008,25a5.624,5.624,0,0,0,4.674,2.5Z" transform="translate(-0.992 -3.968)" fill="#eeb7a9"/>
      <path id="Trazado_875871" data-name="Trazado 875871" d="M12.008,26a5.623,5.623,0,0,1-4.674,2.5H7v4.173a5.008,5.008,0,1,0,10.016,0V28.5h-.334A5.624,5.624,0,0,1,12.008,26Z" transform="translate(-0.992 -4.133)" fill="#ffe0d1"/>
      <path id="Trazado_875872" data-name="Trazado 875872" d="M6.339,29H5.087a2.087,2.087,0,1,0,0,4.173H6.339" transform="translate(-0.331 -4.629)" fill="#eeb7a9"/>
      <path id="Trazado_875873" data-name="Trazado 875873" d="M19,29h1.252a2.087,2.087,0,1,1,0,4.173H19" transform="translate(-2.976 -4.629)" fill="#eeb7a9"/>
      <path id="Trazado_875874" data-name="Trazado 875874" d="M20.363,49.172v1.669H17.024a13.653,13.653,0,0,1-.417,3.339,13.654,13.654,0,0,0-.417,3.389v2.454H6.173V57.568a14.057,14.057,0,0,0-.417-3.389,13.26,13.26,0,0,1-.417-3.339H2V49.172A5.8,5.8,0,0,1,3.761,45a11.425,11.425,0,0,0,7.128,2.5h.576A11.407,11.407,0,0,0,18.6,44.99l.05.05a5.808,5.808,0,0,1,1.711,4.132Z" transform="translate(-0.166 -7.273)" fill="#56a2f0"/>
      <path id="Trazado_875875" data-name="Trazado 875875" d="M12.355,37.429a3.513,3.513,0,0,1-3.162-1.955L9.1,35.3l1.492-.751.088.176a1.865,1.865,0,0,0,3.339,0l.088-.176L15.6,35.3l-.088.176a3.515,3.515,0,0,1-3.157,1.958Z" transform="translate(-1.339 -5.547)" fill="#e2513a"/>
      <path id="Trazado_875876" data-name="Trazado 875876" d="M7.5,60.685H5.835V58.233a13.13,13.13,0,0,0-.393-3.19A14.816,14.816,0,0,1,5,51.456V49H6.669v2.452a13.156,13.156,0,0,0,.392,3.188A14.779,14.779,0,0,1,7.5,58.23Z" transform="translate(-0.662 -7.936)" fill="#3985e0"/>
      <path id="Trazado_875877" data-name="Trazado 875877" d="M19.669,60.685H18V58.233a14.8,14.8,0,0,1,.442-3.586,13.137,13.137,0,0,0,.393-3.191V49H20.5v2.452a14.8,14.8,0,0,1-.443,3.6,13.145,13.145,0,0,0-.392,3.185Z" transform="translate(-2.811 -7.936)" fill="#3985e0"/>
      <path id="Trazado_875878" data-name="Trazado 875878" d="M43.005,30.792v5.051H56.36l0-5.843Z" transform="translate(-6.945 -4.795)" fill="#694d41"/>
      <path id="Trazado_875879" data-name="Trazado 875879" d="M57,26h1.252a2.087,2.087,0,1,1,0,4.173H57" transform="translate(-9.259 -4.133)" fill="#eeb7a9"/>
      <path id="Trazado_875880" data-name="Trazado 875880" d="M53.016,20.087A2.057,2.057,0,0,1,51.9,21.9a2.552,2.552,0,0,1-1.16.275,12.744,12.744,0,0,0-3.881.609,9.628,9.628,0,0,0-2.187,1.06v.835H43.417a2.282,2.282,0,0,0-.417.042V23.375a4.647,4.647,0,0,1,2.579-4.157A11.518,11.518,0,0,1,50.737,18a2.552,2.552,0,0,1,1.16.275,1.874,1.874,0,0,1,.684.559h.008a2.027,2.027,0,0,1,.426,1.252Z" transform="translate(-6.944 -2.811)" fill="#694d41"/>
      <path id="Trazado_875881" data-name="Trazado 875881" d="M58.254,22.773v2.112a2.282,2.282,0,0,0-.417-.042H56.585v-.835l-.225-.91a3.2,3.2,0,0,0-1.6-2.053h-.008a1.957,1.957,0,0,0,.167-.793A2.027,2.027,0,0,0,54.49,19a3.767,3.767,0,0,1,3.764,3.773Z" transform="translate(-8.844 -2.976)" fill="#886f64"/>
      <path id="Trazado_875882" data-name="Trazado 875882" d="M55.016,24.413v4.858a5.008,5.008,0,1,1-10.016,0V24.413a9.628,9.628,0,0,1,2.187-1.06,12.744,12.744,0,0,1,3.881-.609,2.552,2.552,0,0,0,1.16-.275,1.95,1.95,0,0,0,.952-1.018h.008a3.2,3.2,0,0,1,1.6,2.053Z" transform="translate(-7.275 -3.381)" fill="#eeb7a9"/>
      <path id="Trazado_875883" data-name="Trazado 875883" d="M53.188,22.63H53.18a1.95,1.95,0,0,1-.952,1.018,2.552,2.552,0,0,1-1.16.275,12.744,12.744,0,0,0-3.881.609A9.628,9.628,0,0,0,45,25.593v3.873a5.008,5.008,0,0,0,10.016,0V25.593l-.225-.91A3.2,3.2,0,0,0,53.188,22.63Z" transform="translate(-7.275 -3.576)" fill="#ffe0d1"/>
      <path id="Trazado_875884" data-name="Trazado 875884" d="M50.356,34.245a3.516,3.516,0,0,1-3.163-1.954l-.088-.176,1.494-.751.083.176a1.866,1.866,0,0,0,3.339,0l.083-.176,1.494.751-.088.176A3.516,3.516,0,0,1,50.356,34.245Z" transform="translate(-7.623 -5.02)" fill="#eeb7a9"/>
      <path id="Trazado_875885" data-name="Trazado 875885" d="M56.005,47h1.669V60.355H56.005Z" transform="translate(-9.094 -7.605)" fill="#a92d1f"/>
      <path id="Trazado_875886" data-name="Trazado 875886" d="M44.005,47h1.669V60.355H44.005Z" transform="translate(-7.11 -7.605)" fill="#a92d1f"/>
      <path id="Trazado_875887" data-name="Trazado 875887" d="M44.339,26H43.087a2.087,2.087,0,1,0,0,4.173h1.252" transform="translate(-6.614 -4.133)" fill="#eeb7a9"/>
      <path id="Trazado_875888" data-name="Trazado 875888" d="M24,9.554V7.008A5.008,5.008,0,0,1,29.008,2h3.339a2.5,2.5,0,0,1,2.5,2.5,2.5,2.5,0,0,1,2.5,2.5V9.555Z" transform="translate(-3.803 -0.165)" fill="#747574"/>
      <path id="Trazado_875889" data-name="Trazado 875889" d="M38.142,7.008a2.5,2.5,0,0,0-2.5-2.5,2.5,2.5,0,0,0-2.5-2.5H29.8a5.038,5.038,0,0,0-.939.091,4.082,4.082,0,0,0,3.96,4.959h5.325Z" transform="translate(-4.59 -0.165)" fill="#9c9d9c"/>
      <path id="Trazado_875890" data-name="Trazado 875890" d="M29,21.2v1.5a2.5,2.5,0,1,0,5.008,0V21.2" transform="translate(-4.63 -3.34)" fill="#755748"/>
      <path id="Trazado_875891" data-name="Trazado 875891" d="M31.5,25.5a2.5,2.5,0,0,0,2.5-2.5H29A2.5,2.5,0,0,0,31.5,25.5Z" transform="translate(-4.63 -3.637)" fill="#886f64"/>
      <path id="Trazado_875892" data-name="Trazado 875892" d="M36.016,9.5v5.008a5.008,5.008,0,1,1-10.016,0V9.5h3.2A3.662,3.662,0,0,0,32.677,7Z" transform="translate(-4.134 -0.992)" fill="#755748"/>
      <path id="Trazado_875893" data-name="Trazado 875893" d="M29.2,10.5H26v4.173a5.008,5.008,0,0,0,10.016,0V10.5L32.677,8A3.662,3.662,0,0,1,29.2,10.5Z" transform="translate(-4.134 -1.157)" fill="#886f64"/>
      <path id="Trazado_875894" data-name="Trazado 875894" d="M37,30h1.669v7.512H37Z" transform="translate(-5.952 -4.795)" fill="#2e5c24"/>
      <path id="Trazado_875895" data-name="Trazado 875895" d="M25,30h1.669v7.512H25Z" transform="translate(-3.968 -4.795)" fill="#2e5c24"/>
      <path id="Trazado_875896" data-name="Trazado 875896" d="M26.669,34.942V30H25v3.572a6.7,6.7,0,0,0,1.669,1.371Z" transform="translate(-3.968 -4.795)" fill="#427c38"/>
      <path id="Trazado_875897" data-name="Trazado 875897" d="M37,30h1.669v5.843H37Z" transform="translate(-5.952 -4.795)" fill="#427c38"/>
      <g id="Grupo_1097863" data-name="Grupo 1097863" transform="translate(18.528 9.347)">
        <path id="Trazado_875898" data-name="Trazado 875898" d="M25.339,11H24.087a2.087,2.087,0,1,0,0,4.173h1.252" transform="translate(-22 -11)" fill="#755748"/>
        <path id="Trazado_875899" data-name="Trazado 875899" d="M38,11h1.252a2.087,2.087,0,0,1,0,4.173H38" transform="translate(-24.645 -11)" fill="#755748"/>
        <path id="Trazado_875900" data-name="Trazado 875900" d="M31.356,19.43a3.516,3.516,0,0,1-3.163-1.955L28.1,17.3l1.494-.746.088.176a1.866,1.866,0,0,0,3.339,0l.083-.176L34.6,17.3l-.088.176A3.516,3.516,0,0,1,31.356,19.43Z" transform="translate(-23.009 -11.918)" fill="#755748"/>
      </g>
      <path id="Trazado_875901" data-name="Trazado 875901" d="M44.005,50.344A14.19,14.19,0,0,0,45.674,52.8V47H44.005Z" transform="translate(-7.11 -7.605)" fill="#c43d32"/>
      <path id="Trazado_875902" data-name="Trazado 875902" d="M56.005,57.617a14.242,14.242,0,0,0,1.669.192V47H56.005Z" transform="translate(-9.094 -7.605)" fill="#c43d32"/>
      <ellipse id="Elipse_5567" data-name="Elipse 5567" cx="10.376" cy="10.952" rx="10.376" ry="10.952" transform="translate(16.498 28.028)" fill="#e2513a"/>
      <path id="Trazado_875903" data-name="Trazado 875903" d="M37.555,56A10.836,10.836,0,0,1,23.7,56Z" transform="translate(-3.753 -9.093)" fill="#822ca4"/>
      <path id="Trazado_875904" data-name="Trazado 875904" d="M40.032,51a10.923,10.923,0,0,1-3.08,4.173H23.08A10.923,10.923,0,0,1,20,51Z" transform="translate(-3.142 -8.267)" fill="#3f92ed"/>
      <path id="Trazado_875905" data-name="Trazado 875905" d="M40.7,46a10.855,10.855,0,0,1-.834,4.172H19.835A10.857,10.857,0,0,1,19,46Z" transform="translate(-2.976 -7.44)" fill="#4e8c41"/>
      <path id="Trazado_875906" data-name="Trazado 875906" d="M40.7,45.173H19A10.855,10.855,0,0,1,19.834,41H39.867a10.857,10.857,0,0,1,.835,4.173Z" transform="translate(-2.976 -6.613)" fill="#fcea52"/>
      <path id="Trazado_875907" data-name="Trazado 875907" d="M40.032,40.173H20A10.923,10.923,0,0,1,23.08,36H36.952A10.923,10.923,0,0,1,40.032,40.173Z" transform="translate(-3.142 -5.787)" fill="#ed642c"/>
      <path id="Trazado_875908" data-name="Trazado 875908" d="M15.515,35.475,15.6,35.3l-1.494-.746-.083.176a1.865,1.865,0,0,1-3.339,0l-.088-.176L9.107,35.3l.088.174a3.535,3.535,0,0,0,6.324,0Z" transform="translate(-1.341 -5.548)"/>
      <path id="Trazado_875909" data-name="Trazado 875909" d="M46.072,32.564h-.15l-.136-.681h3.629a.835.835,0,0,0,.835-.835V26.582a2.9,2.9,0,0,0,0-5.258V19.8a4.611,4.611,0,0,0-4.224-4.591,2.878,2.878,0,0,0-.7-.491,3.45,3.45,0,0,0-1.537-.361,12.436,12.436,0,0,0-5.534,1.306,5.455,5.455,0,0,0-3.033,4.907v.757l-.012.007a7.429,7.429,0,0,0-4.852-2.687l-.149-.019v-.318a5.843,5.843,0,0,0,2.437-3.953h.484A2.915,2.915,0,0,0,34.386,8.8V6.843A3.345,3.345,0,0,0,31.8,3.587,3.344,3.344,0,0,0,28.544,1H25.205a5.849,5.849,0,0,0-5.843,5.843V8.8a2.915,2.915,0,0,0,1.252,5.55H21.1a5.843,5.843,0,0,0,2.437,3.953v.318l-.149.019A7.474,7.474,0,0,0,18.5,21.4a7.508,7.508,0,0,0-15,.467v1.962a2.9,2.9,0,0,0,0,5.258V31.2A1.669,1.669,0,0,1,1.834,32.87a.835.835,0,0,0-.715,1.266l.356.594a8.215,8.215,0,0,0,1.844,2.118A6.659,6.659,0,0,0,1,41.9V52.749H2.669V44.364l1.7.026a14.831,14.831,0,0,0,.417,2.719A13.125,13.125,0,0,1,5.173,50.3v2.452H6.842V50.3A14.78,14.78,0,0,0,6.4,46.708a13.157,13.157,0,0,1-.392-3.192V41.064H4.338V42.72l-1.669-.025v-.8a4.981,4.981,0,0,1,1.043-3.054,12.27,12.27,0,0,0,7.013,2.219H11.3a12.127,12.127,0,0,0,4.046-.7,11.562,11.562,0,0,0,.68,2.495v.655a13.141,13.141,0,0,1-.393,3.19,14.8,14.8,0,0,0-.442,3.587v2.456h1.669V50.3a13.146,13.146,0,0,1,.392-3.188,14.705,14.705,0,0,0,.3-1.547,11.751,11.751,0,0,0,1.816,1.929v5.258h1.669v-4.09a11.587,11.587,0,0,0,11.689,0v4.09h1.669V47.5A11.75,11.75,0,0,0,36.9,44.541v8.208h1.669V39.395h-.047c.02-.277.043-.553.043-.835a11.624,11.624,0,0,0-.417-3.037l2.282,2.738a.835.835,0,0,0,.641.3h.044a.835.835,0,0,0,.65-.371l.973-1.466.975,1.462a.835.835,0,0,0,.65.371h.044a.835.835,0,0,0,.641-.3l3.011-3.614a5.015,5.015,0,0,1,3.021,4.6V52.749h1.669V39.241a6.685,6.685,0,0,0-6.677-6.677ZM42.716,34.2,41.13,33.147l.313-1.566a5.7,5.7,0,0,0,2.579,0l.291,1.458ZM6.842,28.544V24.351a6.444,6.444,0,0,0,4.173-1.987,6.444,6.444,0,0,0,4.173,1.987v4.193a4.173,4.173,0,1,1-8.347,0Zm9.949.835h.067V31.2a3.372,3.372,0,0,0,.181,1.073,11.621,11.621,0,0,0-1.394,3.088,6.733,6.733,0,0,0-1.291-.141H14.2l-.319-1.594a5.843,5.843,0,0,0,2.9-4.248Zm3.484,1.669h13.2a10.073,10.073,0,0,1,2.057,2.5H18.214a10.073,10.073,0,0,1,2.057-2.5Zm2.612-1.669a9.961,9.961,0,0,1,7.983,0Zm-6.029-4.173h.417a1.252,1.252,0,1,1,0,2.5h-.417Zm.047,14.189H36.854a9.9,9.9,0,0,1-.542,2.5H17.443a9.9,9.9,0,0,1-.542-2.5Zm0-1.669a9.9,9.9,0,0,1,.542-2.5H36.306a9.9,9.9,0,0,1,.542,2.5Zm20.227-4.763a11.9,11.9,0,0,0-.682-1.08h3.231l-.137.681h-.15a6.709,6.709,0,0,0-2.266.4Zm-.238-6.088h.083a5.833,5.833,0,0,0,1.836,3.339h-1.92Zm0-1.669h-.417a1.252,1.252,0,0,1,0-2.5h.413Zm9.755,5.008a5.833,5.833,0,0,0,1.836-3.339h.094v3.339ZM49,25.205h-.425V22.7h.417a1.252,1.252,0,0,1,0,2.5ZM48.583,19.8v1.235a.821.821,0,0,0-.025-.2l-.233-.911A4.05,4.05,0,0,0,46.876,17.7a2.906,2.906,0,0,0,.032-.428c0-.041-.007-.083-.008-.122A2.933,2.933,0,0,1,48.58,19.8Zm-2.463-.54a2.38,2.38,0,0,1,.591,1.068l.2.81-.008,4.752a4.173,4.173,0,0,1-8.347,0V21.5a8.263,8.263,0,0,1,1.6-.731,11.727,11.727,0,0,1,3.628-.572,3.444,3.444,0,0,0,1.537-.363,2.877,2.877,0,0,0,.788-.578Zm-9.226,1.311A3.794,3.794,0,0,1,39,17.154a10.767,10.767,0,0,1,4.788-1.13,1.767,1.767,0,0,1,.79.187,1.19,1.19,0,0,1,0,2.13,1.761,1.761,0,0,1-.79.187,13.424,13.424,0,0,0-4.139.654,10.324,10.324,0,0,0-2.371,1.146.835.835,0,0,0-.387.7ZM25.205,19.116a5.782,5.782,0,0,0,3.339,0v.246a1.669,1.669,0,0,1-3.339,0Zm7.929-6.431h-.417v-2.5h.417a1.252,1.252,0,1,1,0,2.5ZM19.362,11.433a1.252,1.252,0,0,1,1.252-1.252h.417v2.5h-.417A1.252,1.252,0,0,1,19.362,11.433Zm1.669-2.921V6.843a4.178,4.178,0,0,1,4.173-4.173h3.339a1.669,1.669,0,0,1,1.669,1.669.835.835,0,0,0,.835.835,1.669,1.669,0,0,1,1.669,1.669V8.512a.835.835,0,0,0-.334-.668l-3.339-2.5a.835.835,0,0,0-1.293.4A2.823,2.823,0,0,1,25.07,7.677h-3.2A.835.835,0,0,0,21.032,8.512ZM22.7,13.52V9.347H25.07a4.49,4.49,0,0,0,3.783-2.064l2.2,1.647V13.52a4.173,4.173,0,0,1-8.347,0Zm.893,6.781.088-.011a3.318,3.318,0,0,0,6.384,0l.088.011a5.768,5.768,0,0,1,3.824,2.163,2.884,2.884,0,0,0,1.247,4.118V30.4a11.783,11.783,0,0,0-2.508-1.946v-3.25H31.048v2.453a11.5,11.5,0,0,0-8.347,0V25.205H21.032v3.25a11.769,11.769,0,0,0-2.5,1.942V29.083a2.91,2.91,0,0,0,.372-5.05A5.809,5.809,0,0,1,23.594,20.3ZM5.173,21.867a5.843,5.843,0,1,1,11.685,0v1.669a.835.835,0,0,0-.835-.835H15.69a4.779,4.779,0,0,1-3.985-2.133.867.867,0,0,0-1.389,0A4.778,4.778,0,0,1,6.333,22.7H6.008a.835.835,0,0,0-.835.835Zm-.417,3.339h.417v2.5H4.756a1.252,1.252,0,1,1,0-2.5ZM3.17,34.264a3.344,3.344,0,0,0,2-3.062V29.379h.063a5.852,5.852,0,0,0,2.906,4.249l-.319,1.593h-.15a6.617,6.617,0,0,0-2.87.658,6.556,6.556,0,0,1-1.64-1.615ZM11.3,39.395h-.573a10.6,10.6,0,0,1-5.749-1.709,4.972,4.972,0,0,1,2.7-.795h.835a.835.835,0,0,0,.819-.668l.4-1.981a5.682,5.682,0,0,0,2.578,0l.4,1.981a.835.835,0,0,0,.822.667h.835a5.02,5.02,0,0,1,.957.1,11.7,11.7,0,0,0-.122,1.568v.075a10.5,10.5,0,0,1-3.891.76Zm11.585,8.347h7.983a9.961,9.961,0,0,1-7.983,0Zm10.594-1.669H20.271a10.073,10.073,0,0,1-2.057-2.5H35.535A10.073,10.073,0,0,1,33.477,46.072Zm7.512-9.74-1.743-2.091c.048,0,.1-.008.144-.008h.385l-.009.013,1.81,1.206Zm3.487,0-.605-.908L45.5,34.233h.568c.051,0,.1.007.152.008Z" transform="translate(0 0)"/>
      <path id="Trazado_875910" data-name="Trazado 875910" d="M48.688,31.545l-.083-.176-1.494.751.088.176a3.536,3.536,0,0,0,6.325,0l.088-.176-1.494-.751-.083.176a1.866,1.866,0,0,1-3.339,0Z" transform="translate(-7.624 -5.021)"/>
      <path id="Trazado_875911" data-name="Trazado 875911" d="M56.005,47h1.669V60.355H56.005Z" transform="translate(-9.094 -7.605)"/>
      <path id="Trazado_875912" data-name="Trazado 875912" d="M31.357,19.43a3.516,3.516,0,0,0,3.163-1.955l.088-.176-1.494-.746-.083.176a1.866,1.866,0,0,1-3.339,0l-.088-.176L28.11,17.3l.088.176A3.516,3.516,0,0,0,31.357,19.43Z" transform="translate(-4.482 -2.571)"/>
    </g>
  </g>
</svg>
