<svg xmlns="http://www.w3.org/2000/svg" width="187.153" height="567.76" viewBox="0 0 187.153 567.76">
  <g id="Grupo_1104729" data-name="Grupo 1104729" transform="translate(-1140.158 -2560.598)">
    <g id="Grupo_1104728" data-name="Grupo 1104728" transform="translate(-82.989 223.358)">
      <g id="Grupo_1104320" data-name="Grupo 1104320" transform="translate(1223.147 2337.24)">
        <path id="Trazado_906481" data-name="Trazado 906481" d="M427.125,1761.975c.731-.467,1.2-.762,1.649-1.058-.4-.544-.529-.918-.731-.964a7.263,7.263,0,0,1-4.324-2.956c-1.1-1.415-2.442-2.66-3.64-4-1.26-1.415-2.567-2.6-5.009-1.6-.467-2.162-1.027-4.044-1.244-5.973a120.219,120.219,0,0,1-1.182-13.315c-.016-3.08-.84-6.035-.684-9.115.171-3.22-.031-6.456-.047-9.691-.016-3.142-.078-6.269-.016-9.411.124-6.175.249-12.351.529-18.511a145.193,145.193,0,0,0-2.4-33.739c-.9-4.76-1.727-9.52-2.644-14.28-.918-4.744-1.867-9.489-2.924-14.2a36.167,36.167,0,0,1-.249-12.475,239.2,239.2,0,0,0,1.447-24.733c.342-13.579.56-27.159.84-40.738a20.8,20.8,0,0,1,.747-5.647c.124,1.509.249,3,.358,4.433,1.384.513,1.929-.4,2.5-1.12a10.017,10.017,0,0,0,2.224-7.435,14.4,14.4,0,0,1,1.9-9.068c.28,1.291.482,2.053.591,2.815.4,2.909.9,5.818,1.1,8.742a29.756,29.756,0,0,1-.171,7.062c-.669,3.811-1.773,7.56-2.66,11.324-.28,1.167-.451,2.364-.684,3.547a2.065,2.065,0,0,0,2.987-.326,11.424,11.424,0,0,0,1.416-2.115c1.462-2.66,2.8-5.4,4.324-8.011a13.884,13.884,0,0,0,2.007-7.311q-.163-10.406-.4-20.8a10.792,10.792,0,0,0-.482-2.8c-2.224-7.233-2.115-14.684-1.369-22.042a203.606,203.606,0,0,0,1.089-34.688,62.484,62.484,0,0,0-1.54-8.353c-.513-2.489-1.151-4.962-1.664-7.467-.436-2.131-.84-4.278-1.12-6.44-.964-7.715-2.131-15.415-2.707-23.161-1.027-13.751-2.489-27.392-6.3-40.723-1.042-3.655-1.96-7.311-3.9-10.64a14.772,14.772,0,0,0-8.306-6.984c-5.584-1.82-11.231-3.438-16.831-5.242-2.52-.809-4.962-1.851-7.4-2.878a4.007,4.007,0,0,1-2.551-3.749c-.373-5.009-.98-10.017-1.4-15.026a4.84,4.84,0,0,1,.513-2.955c4.418-6.455,8.135-13.237,10.22-21.03,2.209.544,3.142-.762,3.966-2.427a20.058,20.058,0,0,0,1.571-12.506c-.42-2.489-1.415-3.189-4.107-3.2,0-.654-.047-1.291.016-1.945.373-4.153,1.073-8.306,1.12-12.459.078-6.564-1.882-12.4-7.606-16.3-2.411-1.649-4.993-3.033-8.089-4.869a10.643,10.643,0,0,0,1.975-1.338c3.811-4.06,6.393-8.695,6.689-14.4a10.456,10.456,0,0,0-5.211-10.049,43.982,43.982,0,0,0-15.617-5.88c-3.173-.591-6.362-1.027-9.566-1.369a14.589,14.589,0,0,0-8.773,1.882,27.278,27.278,0,0,0-8.633,6.875c-4.635,5.9-5.584,12.35-2.567,19.241,1.758,4.029,4.215,7.591,8.571,9.675-.871.887-1.571,1.618-2.287,2.349a25.264,25.264,0,0,0-7.731,16.411c-.389,6.5-.047,13.066,2.209,19.32.218.622.4,1.26.669,2.069-1.182-.062-2.255-.109-3.578-.187a11.194,11.194,0,0,0,.031,2.909,29.151,29.151,0,0,0,7.078,12.195c1.431,1.431,3.033,2.6,5.289,2.224,2.255,4.449,5.786,7.777,9.271,11.122a5.792,5.792,0,0,1,1.7,3.127,58.544,58.544,0,0,1,.964,14.731c-.109,3.967-2.1,6.642-5.973,7.622-4.044,1.027-8.166,1.664-12.242,2.52-3.329.7-6.7,1.276-9.955,2.255-3.858,1.167-6.284,3.92-7.871,7.669-2.209,5.2-2.66,10.655-3.08,16.146-.7,9.286-1.384,18.573-1.8,27.859-.3,6.642-.016,13.3-.264,19.941-.2,5.491-.669,10.982-1.244,16.457-.467,4.324-1.4,8.6-1.944,12.926-1.12,8.711-.684,17.453.078,26.164.7,7.949,1.322,15.882.607,23.861-.327,3.593-.5,7.186-.607,10.8a32.543,32.543,0,0,0,2.6,14.388c2.955,6.766,5.1,13.875,7.638,20.828.513,1.4,1.276,2.706,1.82,4.107a6.055,6.055,0,0,1,.436,2.4c-.5,11.2-.887,22.384-2.6,33.49-.622,4.122-1.089,8.275-1.4,12.428a77.194,77.194,0,0,0-.062,9.1,21.03,21.03,0,0,1-1,7.28c-3.127,9.971-5.989,20.019-7.155,30.426-.716,6.409-1.244,12.864-1.353,19.3-.187,12.538.016,25.075.016,37.612,0,8.82-.187,17.655-.124,26.475.016,3.282.716,6.564-.031,9.862-.124.545-.187,1.1-.3,1.773-1.322.3-2.6.591-3.873.84a3.262,3.262,0,0,0-2.769,2.52c-.311,1.2-.7,2.364-1.011,3.562a11.95,11.95,0,0,1-3.9,6.471c-4.558,3.8-9.084,7.606-14.777,9.816-2.955,1.151-5.6,3.157-8.26,4.977a4.351,4.351,0,0,0-.14,6.906,23.124,23.124,0,0,0,9.411,4.526,20.694,20.694,0,0,0,9.846-.389c3.671-.917,7.42-1.54,11.091-2.442a51.482,51.482,0,0,0,6.206-2.007,9.637,9.637,0,0,0,5.242-4.6c1.633-3.126,4.371-4.511,7.638-5.4a25.109,25.109,0,0,0,5.942-2.551,4.917,4.917,0,0,0,2.4-5.382c-.264-1.587-.544-3.173-.855-4.76-.778-3.811-1.649-7.591-2.333-11.417a49.029,49.029,0,0,1-.249-13.331c1.2-13.471,3.92-26.646,6.984-39.774,1.353-5.818,3.158-11.573,4.06-17.453a110.971,110.971,0,0,0,1.244-26.677c-.4-4.433-.638-8.9-.824-13.346a16.191,16.191,0,0,1,1.6-7.7,41.531,41.531,0,0,0,3.422-12.879,22.2,22.2,0,0,1,1.369-5.491,341.331,341.331,0,0,0,17.577-61.162c1.229-6.72,2.722-13.393,3.655-20.16.809-5.817,1.136-11.713,1.384-17.593a66.4,66.4,0,0,0-.684-8.6c.5-.031.933-.047,1.416-.062.3,4.822.467,9.535.918,14.233.716,7.466,1.649,14.9,2.458,22.352.778,7.078,1.4,14.171,2.287,21.233,1.835,14.777,2.815,29.679,5.678,44.332.949,4.838,2.287,9.6,3.578,14.342a40.78,40.78,0,0,1,1.664,9.784,24.378,24.378,0,0,0,2.473,9.878,11.963,11.963,0,0,1,1,6.828c-.855,7.342-1.415,14.746-1.727,22.135-.311,7.451,1.136,14.746,2.971,21.948,2.769,10.842,5.709,21.637,8.446,32.495a75.321,75.321,0,0,1,1.975,22.617,34.711,34.711,0,0,1-3.142,12.351,14.706,14.706,0,0,0-1.415,7.187c.218,3.375,1.8,5.755,5.086,6.813,1.26.4,2.551.7,3.842,1.011a5.894,5.894,0,0,1,4.091,2.815c1.509,2.8,4.044,4.184,6.953,5.04a58.2,58.2,0,0,0,22.259,2.1c3.967-.373,7.933-.809,11.853-1.54a37.764,37.764,0,0,0,6.7-2.255,3.01,3.01,0,0,0,2.007-3.391,12.5,12.5,0,0,1-.062-1.711,3.121,3.121,0,0,0-2.613-3.5c-2.38-.607-4.729-1.384-7.093-2.069a25.966,25.966,0,0,1-9.489-4.355,29.334,29.334,0,0,0-2.691-1.416A14.632,14.632,0,0,1,427.125,1761.975Zm-97.157-454.829-.062.063a15.124,15.124,0,0,0-.311,2.489c.016.327.56.622.855.933.28-.326.544-.653,1.089-1.275.809,1.478,1.54,2.784,2.442,4.417-4.806-.949-10.406-8.586-11.091-14.513,3.282-.015,7.637,4.4,9.069,9.177C331.291,1308,330.637,1307.582,329.968,1307.146Zm83.468,451.049c1.758-.015,3.484-1.2,5.771-.047-1.027.265-1.633.389-2.209.576-2.287.731-4.62,1.369-6.175,3.422,1.618-.653,3.235-1.291,5.4-2.162-1.7,2.582-4.262,3.764-4.807,7.078,1.073-.56,1.664-.9,2.271-1.2,2.66-1.214,5.258-2.582,8-3.562,2.038-.731,2.815-.14,3.655,2.007-1.913.793-3.9,1.462-5.74,2.427-1.68.871-4.122.856-4.791,3.842,1.2-.513,2.022-.886,2.862-1.213,2.722-1.058,5.475-2.069,8.2-3.127a3.329,3.329,0,0,1,3.686.871c-3.1,1.4-6,2.738-8.929,4.044-.327.156-.871.373-1.042.233-.933-.762-1.182-.109-1.12.591.031.249.871.653,1.276.591a12.692,12.692,0,0,0,2.411-.84c2.38-.949,4.822-1.773,7.109-2.893,2.473-1.213,4.433-.591,6.658,1.213-3.344.716-6.378,1.369-9.691,2.084a9.131,9.131,0,0,0,7.373-.436c2.613-1.555,4.978-1.12,7.544-.326,1.9.575,3.858,1,5.771,1.509.887.233,1.742.56,2.582.824v4.791a35.577,35.577,0,0,1-5.926,1.835c-5.258.669-10.562,1.276-15.851,1.478a58.956,58.956,0,0,1-19.1-2.489,8.336,8.336,0,0,1-5.18-3.687,8.35,8.35,0,0,0-5.475-3.764c-1.369-.342-2.753-.7-4.091-1.151a4.487,4.487,0,0,1-3.111-3.733c-.576-3.158.467-5.9,1.929-8.6,3.873,1.929,7.855,1.447,11.682,1.944a7.414,7.414,0,0,0,6.766-2.924c.855-1.011,1.571-2.147,2.458-3.127,1.664-1.835,3.142-1.8,4.76.016.669.747,1.244,1.555,2.007,2.52C415.35,1757.091,415.35,1757.091,413.437,1758.195ZM291.283,1770.7v2.209c-2.567-1.338-4.993-2.613-7.42-3.873,2.5-1.664,3.889-1.6,5.926.28.529.5,1.058.98,1.6,1.478-.14-.576-.3-1.151-.529-2.1,1.711.933,3.08,1.664,4.573,2.473.109-.56.3-.965.2-1.058-1.742-1.7-3.515-3.345-5.662-5.382,2.084.7,3.733,1.322,5.444,1.8,1.7.467,3.08,1.96,5.211,1.353-2.3-1.711-4.589-3.422-6.891-5.149,3.9-.233,7.264,2.224,11.277,1.587-.109-.622-.047-1.151-.249-1.307-2.535-1.789-5.1-3.531-7.653-5.273-.047.047.062-.094.171-.2.062-.062.187-.078.249-.14.047-.047.031-.14.047-.343-.84-.264-1.7-.529-2.629-.824.047-2.115-.389-4.231,1.7-5.506,2.053-1.26,4.278-.715,6.3-.016,1.633.576,1.711,2.318,1.758,3.889.031,1.1-.016,2.333,1.555,2.707v-1.4c4.075,2.146,8.415.747,12.973,1.073.5,2.131,1.1,4.293,1.509,6.5.747,4.044-.576,6-4.6,7.046-.451.124-.933.14-1.4.233-3.842.871-7.109,2.629-9.177,6.144a7.96,7.96,0,0,1-4.044,3.438c-1.587.622-3.173,1.26-4.807,1.726-3.547,1-7.186,1.742-10.7,2.862-6.8,2.162-12.911.373-18.79-2.956-1.867-1.058-1.944-2.722-.389-4.231a7.351,7.351,0,0,1,1.867-1.276c3.842-1.836,7.731-3.562,11.542-5.46a4.489,4.489,0,0,1,4.06-.265c2.053.949,4.029,2.1,6.035,3.142.716.373,1.353,1.182,2.567.109C292.372,1772.988,291.827,1771.853,291.283,1770.7Zm44.41-413.857c-.047-.544-.078-1.073-.124-1.664a52.519,52.519,0,0,0,5.04-1.524,50.526,50.526,0,0,0,4.527-2.411c-.2,1.6-.2,1.6.747,2.924,3.718-7.824,1.867-15.866,1.789-24.095a24.858,24.858,0,0,0,2.66,1.633c2.411,1.073,4.807,2.209,7.3,3.049,2.784.933,5.211.031,7.2-2.1.544-.591,1.182-1.089,1.96-1.789.28,3.266.4,6.191.824,9.068.622,4.293,1.447,8.571,2.24,12.833.093.513.591.949.887,1.431.171-.062.342-.125.513-.2-.233-1.229-.467-2.458-.731-3.873,2.209,1.291,4.215,2.458,6.175,3.593.031,5.787-2.644,13.253-6.378,17.344-3.531,3.889-8.011,5.491-13.113,4.184a30.053,30.053,0,0,1-20.066-15.881c-.467-.9-1.027-1.742-1.556-2.613.731,1.836,1.353,3.718,2.209,5.491,1.711,3.5,4.791,5.817,7.591,8.384a23.524,23.524,0,0,0,11.542,5.818c5.926,1.167,11.184-.125,15.011-5.118a25.758,25.758,0,0,0,5.351-12.1c.249-1.742.436-3.484.669-5.413,2.007.544,3.78,1.042,5.647,1.555-.264,1.68-.56,3.064-.7,4.464-.622,5.709,1.353,10.857,3.655,15.881a12.474,12.474,0,0,0,6.8,6.813c.809,3.951,1.633,7.638,2.287,11.371a8.5,8.5,0,0,1-.14,3.858c-1.571,5.164-3.391,10.251-5.009,15.415a36.7,36.7,0,0,0-2.147,11.713c.031,1.758.187,3.515.3,5.382-19.226,3.251-38.312,2.769-57.709,1.291,0-1.4.078-2.909-.016-4.4a85.377,85.377,0,0,0-.918-10.764,169.228,169.228,0,0,0-4.215-16.815,9.309,9.309,0,0,1,1.136-8.368,20.139,20.139,0,0,0,2.847-7.047c1.711-7.824,3.033-15.664,1.867-23.706-.218-1.478-.513-2.925-.809-4.6C332.722,1355.771,334.557,1354.371,335.693,1356.844Zm59.218,374.72c-1.1-4.635-2.131-9.162-3.267-13.657q-3.337-13.253-6.751-26.459a88.928,88.928,0,0,1-2.753-29.632c.4-5.071.187-10.157,1.416-15.166.544-2.24-.218-4.464-1.058-6.611a30.441,30.441,0,0,1-2.5-10.173,38.131,38.131,0,0,0-.887-7.031c-1.089-4.806-2.582-9.535-3.593-14.357-2.878-13.766-4.044-27.781-5.709-41.734-.918-7.638-1.727-15.275-2.691-22.9-.793-6.206-1.836-12.4-2.582-18.6-.653-5.366-1.042-10.764-1.571-16.146-.14-1.462-.327-2.924-.529-4.651h4.34c-.156-.684-.264-1.1-.358-1.509-7.715-.933-9.784-.886-11.557.28.093.155.171.4.3.451,1.151.373,2.333.715,3.655,1.1.062,1.4.2,2.8.187,4.215-.047,12.677-1.9,25.121-4.464,37.519a434.062,434.062,0,0,1-19.071,64.6,48.762,48.762,0,0,0-1.618,6.891c-.482,2.224-.793,4.48-1.416,6.658-1,3.547-2.209,7.046-3.282,10.593a8.906,8.906,0,0,0-.529,2.753c.233,6.067.249,12.133,1.167,18.168a38.649,38.649,0,0,1,.389,9.924c-.653,5.833-1.711,11.635-2.878,17.406-2.535,12.553-5.242,25.075-7.871,37.6-.358,1.727-.669,3.484-.964,5.04a42.679,42.679,0,0,1-4.806.327,64.192,64.192,0,0,1-7.918-.622c-2.38-.389-2.411-.638-2.411-3.033.016-4.464.078-8.928.016-13.393-.062-4.651-.42-9.3-.358-13.937.078-7.218.28-14.435.669-21.637.436-8.151.716-16.333,1.835-24.406,1.1-7.964,3.158-15.8,4.838-23.691.124-.575.513-1.431.933-1.524,1.587-.358,1.509-1.509,1.509-2.644-.016-1.9.031-3.811-.156-5.693a61.091,61.091,0,0,1,.451-14.2c.249-1.96,1.042-3.858,1.2-5.8q.84-9.8,1.369-19.6c.28-5.3.342-10.624.544-15.944.031-.933.358-1.835.467-2.769a41.487,41.487,0,0,0,.327-4.153c0-1.509-.171-3-.249-4.48.809-.187,1.4-.327,2.349-.529-.778-1.929-1.462-3.655-2.053-5.118a12.507,12.507,0,0,0,.871-2.52c.311-2.442.482-4.916.747-7.357.093-.778.327-1.54.513-2.442,1.042.576,1.758,1.027,2.535,1.369.856.389,1.789.9,2.629.031.887-.933.5-1.976-.062-2.878-.7-1.12-1.509-2.178-2.3-3.251a4.781,4.781,0,0,1-.809-4.806,24.772,24.772,0,0,0,.855-4.169c1.944-11.511,3.562-23.084,5.911-34.5,1.291-6.284,3.889-12.288,5.662-18.479,1.633-5.709,4.744-10.686,7.218-16.115,1.447.482,2.753,1.042,4.107,1.369a81.735,81.735,0,0,0,30.55.964c3.158-.451,6.3-1.042,9.286-1.54,3.282,7.233,6.486,14.093,9.52,21.03,2.489,5.678,3.375,11.838,4.962,17.795a164.885,164.885,0,0,1,5.444,48.485c-.653,18.324-.871,36.648-1.369,54.971-.14,5.118-.684,10.235-.933,15.353-.2,4.448-.9,9.006-.218,13.33,1.307,8.213,2.551,16.457,4.091,24.639.933,4.947,1.882,9.878,2.613,14.855.887,6.1,2.193,12.148,1.835,18.386-.653,11.573-1.073,23.146-.793,34.734.062,2.66.156,5.32.171,7.98.031,3.018,0,6.051,0,9.286C405.27,1731.969,400.028,1732.016,394.911,1731.565ZM329.673,1356.1a28.827,28.827,0,0,1,.778,3.873c.513,10.562-.591,20.812-5.631,30.379a11.289,11.289,0,0,0-.933,9.084c1.7,4.682,1.384,9.348.607,14.031-1.353,8.229-2.847,16.426-4.309,24.623a97.362,97.362,0,0,0-1.089,17.017,107.465,107.465,0,0,1-3.733,28.979c-1.493,5.366-2.287,10.935-3.251,16.441a7.905,7.905,0,0,0,1.96,7.155c2.318,2.225,2.847,4.807,2.815,7.731a20.759,20.759,0,0,0,4.915,13.906,9,9,0,0,1,.653,1.042c-3.764-1.369-5.538-5.024-8.726-7.062a10.088,10.088,0,0,0-1.416,2.707c-.731,4.293-1.524,8.571-1,12.988a54.9,54.9,0,0,0,3.282,12.631,6.263,6.263,0,0,1,.093,4.76c-.28-.622-.467-.949-.591-1.291-2.193-6.564-4.324-13.129-6.58-19.662-.84-2.411-2.4-4.651-2.831-7.109a59.652,59.652,0,0,1-.716-10.935c.047-4.449.793-8.9.684-13.331-.264-10.344-.887-20.673-1.338-31.016a88.693,88.693,0,0,1,1.291-20.688,89.463,89.463,0,0,0,1.835-11.775c.436-7.575.3-15.166.653-22.757.684-14.124,1.509-28.248,2.364-42.356a31.507,31.507,0,0,1,2.924-11.231,9.85,9.85,0,0,1,5.009-5.2C321.226,1357.327,325.224,1356.72,329.673,1356.1Zm55-.575c4.355,1.773,8.54,3.3,12.568,5.164a12.524,12.524,0,0,1,4.138,3.375,23.478,23.478,0,0,1,4.76,9.613c1.307,5.537,2.691,11.059,3.92,16.613a64.247,64.247,0,0,1,1.338,8.431c.871,10.593,1.571,21.2,2.427,31.794a69.257,69.257,0,0,0,1.26,9.3c1.073,4.993,2.489,9.908,3.671,14.871a50.216,50.216,0,0,1,1.2,6.424c1.182,10.733.311,21.4-.7,32.105-.824,8.773-1.711,17.608,1.136,26.241a6.113,6.113,0,0,1,.264,1.68c.28,7.482.653,14.979.762,22.477a11.751,11.751,0,0,1-1.447,4.822c-1.369,2.909-2.955,5.724-4.464,8.571-.389.731-.856,1.4-1.291,2.1-.187-.078-.358-.156-.544-.233.5-1.384.98-2.785,1.524-4.153a34.921,34.921,0,0,0,2.458-14.2c-.249-4.993-1.322-9.94-2.084-14.917a10.542,10.542,0,0,0-.809-2.007,10.352,10.352,0,0,0-3.842,9.053c-.031,1.618.062,3.22.047,4.838a6.117,6.117,0,0,1-1.975,4.526c-.3-2.131-.373-3.826-.778-5.444a37.389,37.389,0,0,1-.576-11.62,16.925,16.925,0,0,1,1.322-5.2,15.817,15.817,0,0,0,1.431-7.186c-.436-6.144-.747-12.32-1.524-18.417-1.353-10.64-2.94-21.233-2.535-32.012a72.39,72.39,0,0,0-2.613-23.115c-2.5-8.587-3.842-17.391-5.631-26.117-.622-3.064-.7-6.238-1.431-9.271a8.037,8.037,0,0,1,.28-4.884,8.826,8.826,0,0,0,.544-4.138c-.638-4.013-1.54-8-2.427-11.977a2.636,2.636,0,0,0-1.151-1.742,8.817,8.817,0,0,1-4.449-3.811C385.453,1370.642,382.871,1363.813,384.675,1355.522Zm-23.659-61.784c1.073-.591,1.649-.871,2.193-1.213a39.548,39.548,0,0,1,3.827-2.427c3.22-1.556,5.989-.778,8.182,1.991a32.061,32.061,0,0,0,2.489,2.535v2.94c-.031,3.313.607,6.8-.233,9.909-2.364,8.82-6.969,16.535-12.864,23.534-2.4,2.847-5.2,3.2-8.431,2.115a24.459,24.459,0,0,1-2.862-1.244c-5.164-2.473-8.9-6.673-12.864-10.624-4.48-4.449-6.16-10.126-7.669-15.928a2.049,2.049,0,0,1-.016-1.1c1.042-3.547.342-7.015-.716-10.36-.653-2.1-.42-3.531,1.213-5.04,5.226-4.806,7.28-10.951,7.093-17.935-.016-.591,0-1.182,0-1.773.669.062.809.311.949.56a17.294,17.294,0,0,0,11.822,8.166c2.955.638,5.973,1.058,8.991,1.416,4.138.5,7.2,2.753,9.815,5.771a10.1,10.1,0,0,1,1.135,2.613A10.193,10.193,0,0,0,361.016,1293.738Zm-29.555,10.8c-1.836-2.24-3.967-3.8-4.527-6.626-.747-3.811-1.851-7.544-2.52-11.355-1.664-9.5.887-17.842,7.42-24.95.264-.28.513-.56.762-.856.669-.793,1.353-1.6,2.007-2.411a10.66,10.66,0,0,1,7.933-4.122,159.989,159.989,0,0,1,17.033.809,36.551,36.551,0,0,1,8.073,1.586c8.182,2.6,13.408,9.022,12.584,19.179q-.653,7.933-1.369,15.851a11.355,11.355,0,0,1-.638,1.975c-2.364-1.788-3.329-4.106-4.231-6.5a9.957,9.957,0,0,0-1.835-3.453,18.818,18.818,0,0,0-9.177-5.444c-1.851-.42-3.687-.886-5.569-1.167-6.969-1.073-12.911-3.718-16.566-10.188a11.706,11.706,0,0,0-2.069-2.053c.249,2.94.669,5.475.622,8.011a20.34,20.34,0,0,1-6.471,14.435c-1.96,1.929-2.784,4-1.742,6.642a6.7,6.7,0,0,1,.358,1.384C331.928,1298.233,332.535,1301.2,331.462,1304.533Zm3.08-48.283c-4.511-1.151-6.58-4.418-8.524-7.824a15.363,15.363,0,0,1,.762-17.219c4.542-6.611,11.029-10.3,19.444-9.458,1.136.109,2.255.311,3.375.5,6.564,1.1,13,2.629,18.713,6.3,4.169,2.691,5.833,6.393,4.744,11.184a26.535,26.535,0,0,1-5.864,11.558c-2.287,2.629-5.055,2.473-7.342-.249a3.851,3.851,0,0,0-1.322-1.011c-5.335-2.489-10.671-2.1-15.959.109a3.721,3.721,0,0,0-1.649,1.073C339.3,1253.683,336.75,1254.928,334.542,1256.25Zm-15.057,261.775c-.2,0-.4.016-.607.016-.124-1.478-.233-2.955-.389-4.433-.218-2.1-.389-4.309-2.147-5.709-2.427-1.913-2.893-4.371-2.4-7.124.793-4.48,1.509-8.991,2.644-13.393,1.9-7.357,3.967-14.668,4.309-22.306.233-5.6.28-11.2.358-16.8a20.191,20.191,0,0,1,.809-7,21.277,21.277,0,0,0,.98-4.433c.84-5.724,1.571-11.464,2.411-17.188.373-2.613.887-5.211,1.322-7.824.218,0,.42-.016.638-.016.482,3.251,1.073,6.5,1.4,9.768.311,3.2.327,6.44.5,9.675.124,2.162.3,2.333,2.271,2.349,1.7.016,3.391,0,5.211,0a28.866,28.866,0,0,1,1.058,3.733c.436,2.909.607,5.849,1.089,8.757a7.531,7.531,0,0,1-1.276,5.646,47.959,47.959,0,0,0-6.206,14.3,28.7,28.7,0,0,1-1.353,4.044c-3.313,7.84-4.962,16.115-6.471,24.421C322.237,1502.346,320.869,1510.186,319.484,1518.025Zm75.162-109.258c2.007,10.733,3.764,20.781,6.564,30.643,2.489,8.789,3.08,17.9,3.3,27.035.124,5.584.56,11.169,1.151,16.722.933,8.757,2.162,17.483,3.111,26.241a32.1,32.1,0,0,1-.2,6.8,3.737,3.737,0,0,1-1.882,3.2c-.42-4.107-.56-8.027-1.276-11.822-1.789-9.4-3.749-18.775-5.818-28.108a101.841,101.841,0,0,0-11.4-29.274,7.245,7.245,0,0,1-1.011-4.884c.28-1.867.264-3.78.389-5.678.171-2.535.342-5.055.513-7.467,1.073-.451,1.913-.809,2.831-1.2-.638-3.78-1.587-7.467-.4-11.091C391.644,1416.342,393.091,1412.873,394.646,1408.767Zm-10.857,38.592c-14.264,2.691-28.279,3.624-42.263-.4-.809-4.262-1.649-8.618-2.442-12.771,7.575,0,15.337.2,23.084-.062,7.793-.265,15.571-.98,23.535-1.493C385.049,1437.7,384.442,1442.381,383.789,1447.359Zm10.951,285.808c6.144,1.136,6.144,1.136,15.944-1.649.949,6.735.373,13.626,2.364,19.926-1.073,1.447-1.976,2.66-2.878,3.874a6.485,6.485,0,0,1-6.066,2.955c-2.271-.171-4.558-.124-6.829-.265-1.478-.093-3.033-.078-4.2-1.524C395.751,1749,395.486,1741.24,394.74,1733.167Zm-76.3,21.948a35.118,35.118,0,0,1-9.4-.2,3.477,3.477,0,0,1-2.629-1.929,11.173,11.173,0,0,0-2.069-3.018,3.878,3.878,0,0,1-1.307-3.251c.047-5.6.016-11.2.031-16.8,0-.809.124-1.633.171-2.271a49.6,49.6,0,0,0,7.373,1.182,52.022,52.022,0,0,0,7.544-1c-.28,4.511-.824,8.929-.778,13.362C317.447,1745.673,318.053,1750.184,318.442,1755.115Zm60.6-448.545c0-1.866-.047-3.282.031-4.667.016-.358.451-.7.7-1.042.327.233.638.467.964.7.2.14.4.249,1.151.715a20.439,20.439,0,0,1-.513-2.427,2.728,2.728,0,0,1,.249-1.727c1.4-1.727,1.493-2.209.373-4.246-1.509.389-1.136,1.711-1.447,2.753-.311,1.058-.109,2.427-1.416,3.189-.311-2.738,1.462-8.058,3.142-9.582C384.893,1293.769,383.244,1303.6,379.044,1306.571Zm-75.3,456.571c-.078.187-.171.373-.249.56-3.313-.825-6.626-1.665-10.111-2.535.467-1.229.871-2.318,1.322-3.516C297.847,1759.657,301.238,1760.715,303.743,1763.141Zm37.643-510.749c4.06-3.531,13.455-3.78,17.888-.311-3.391-.373-6.269-1-9.115-.933A71.582,71.582,0,0,0,341.386,1252.392Zm-27.672,273.1c3.687,3.5,3.935,5.569,1.431,9.177C314.678,1531.7,314.242,1528.93,313.713,1525.492Zm.171,14.933c.778,1.431,1.556,2.862,2.489,4.573C314.133,1544.469,314.133,1544.469,313.884,1540.425ZM294.6,1765.086c-1.276-.373-2.193-.638-3.189-.918C292.59,1762.8,292.59,1762.8,294.6,1765.086Z" transform="translate(-264.154 -1220.296)" fill="#311d47"/>
        <path id="Trazado_906482" data-name="Trazado 906482" d="M382.1,1650.2c5.118.467,10.36.4,15.182-1.8,0-3.251.031-6.269,0-9.286-.031-2.66-.109-5.32-.171-7.979-.28-11.589.14-23.161.793-34.735.358-6.237-.949-12.288-1.836-18.386-.731-4.978-1.68-9.909-2.613-14.855-1.54-8.182-2.784-16.426-4.091-24.639-.684-4.324,0-8.882.218-13.331.233-5.118.793-10.235.933-15.353.5-18.324.731-36.663,1.369-54.972a165.409,165.409,0,0,0-5.444-48.485c-1.571-5.958-2.458-12.1-4.962-17.795-3.033-6.937-6.238-13.8-9.52-21.03-2.987.5-6.129,1.089-9.286,1.54a81.724,81.724,0,0,1-30.55-.964c-1.353-.327-2.66-.871-4.107-1.369-2.473,5.429-5.6,10.406-7.218,16.115-1.773,6.191-4.371,12.2-5.662,18.479-2.333,11.417-3.966,22.99-5.911,34.5a24.781,24.781,0,0,1-.856,4.169,4.8,4.8,0,0,0,.809,4.807c.793,1.058,1.6,2.131,2.3,3.251.56.9.964,1.944.062,2.878-.84.871-1.773.358-2.629-.031-.778-.342-1.493-.809-2.535-1.369-.187.9-.436,1.664-.513,2.442-.264,2.458-.436,4.916-.747,7.358a13.57,13.57,0,0,1-.871,2.52c.591,1.462,1.276,3.189,2.053,5.118-.949.218-1.54.358-2.349.529.093,1.462.264,2.971.249,4.48a37.336,37.336,0,0,1-.327,4.153c-.109.933-.42,1.836-.467,2.769-.2,5.32-.264,10.64-.544,15.944-.358,6.533-.809,13.082-1.369,19.6-.171,1.96-.949,3.858-1.2,5.8a60.25,60.25,0,0,0-.451,14.2,53.426,53.426,0,0,1,.156,5.693c.016,1.136.093,2.287-1.509,2.644-.4.093-.809.949-.933,1.524-1.68,7.886-3.733,15.726-4.838,23.69-1.12,8.058-1.4,16.255-1.835,24.406-.389,7.2-.576,14.435-.669,21.637-.062,4.651.3,9.286.358,13.937.062,4.465-.016,8.929-.016,13.393,0,2.38.031,2.644,2.411,3.033a63.905,63.905,0,0,0,7.917.622c1.493.047,3-.2,4.807-.327.3-1.555.591-3.3.964-5.04,2.629-12.537,5.335-25.044,7.871-37.6,1.167-5.755,2.224-11.573,2.878-17.406a37.916,37.916,0,0,0-.389-9.924c-.918-6.035-.933-12.1-1.167-18.168a8.472,8.472,0,0,1,.529-2.753c1.073-3.531,2.271-7.031,3.282-10.593.607-2.178.933-4.449,1.416-6.658a48.777,48.777,0,0,1,1.618-6.891,434.045,434.045,0,0,0,19.07-64.6c2.567-12.4,4.418-24.841,4.464-37.519,0-1.415-.124-2.831-.187-4.215-1.322-.389-2.5-.731-3.655-1.1-.14-.047-.2-.3-.3-.451,1.773-1.167,3.842-1.229,11.557-.28.093.4.2.824.358,1.509h-4.34c.2,1.726.389,3.189.529,4.651.529,5.382.918,10.78,1.571,16.146.747,6.222,1.789,12.4,2.582,18.6.964,7.622,1.773,15.275,2.691,22.9,1.68,13.937,2.831,27.952,5.709,41.734,1.011,4.822,2.5,9.551,3.593,14.357a37.006,37.006,0,0,1,.887,7.031,30.917,30.917,0,0,0,2.5,10.173c.84,2.147,1.6,4.371,1.058,6.611-1.229,5.009-1.011,10.111-1.415,15.166a88.929,88.929,0,0,0,2.753,29.632q3.43,13.206,6.751,26.459C379.971,1641.042,381,1645.552,382.1,1650.2Zm.14-83.453c-1.587,1.245-2.815,1.135-3.966.094.031-.233.047-.467.078-.7C379.566,1566.331,380.779,1566.518,382.242,1566.751Z" transform="translate(-251.345 -1138.934)" fill="#2b2320"/>
        <path id="Trazado_906483" data-name="Trazado 906483" d="M310.237,1309.169c-1.136-2.458-2.971-1.058-4.853-1.011.3,1.68.607,3.142.809,4.6,1.167,8.042-.156,15.882-1.867,23.706a20.313,20.313,0,0,1-2.847,7.046,9.262,9.262,0,0,0-1.136,8.369,169.2,169.2,0,0,1,4.215,16.815,82.572,82.572,0,0,1,.918,10.764c.093,1.493.016,3,.016,4.4,19.4,1.478,38.483,1.976,57.709-1.291-.109-1.866-.249-3.624-.3-5.382a36.7,36.7,0,0,1,2.147-11.713c1.618-5.149,3.422-10.251,5.009-15.415a8.494,8.494,0,0,0,.14-3.857c-.638-3.733-1.478-7.42-2.287-11.371a12.424,12.424,0,0,1-6.8-6.813c-2.3-5.04-4.262-10.173-3.655-15.882.156-1.4.436-2.784.7-4.464-1.851-.513-3.64-1.011-5.646-1.556-.233,1.929-.42,3.671-.669,5.413a25.692,25.692,0,0,1-5.351,12.1c-3.827,5.009-9.069,6.285-15.011,5.118a23.655,23.655,0,0,1-11.542-5.818c-2.8-2.551-5.88-4.869-7.591-8.384-.871-1.773-1.478-3.655-2.209-5.491Zm-2.955,44.518c1.12.622,2.255,1.245,3.36,1.882a58.129,58.129,0,0,0,17.095,6.829c2.131.436,4.324,1.089,7.171.326-1.416-1.011-2.38-1.726-3.36-2.411-1.649-1.12-3.329-2.193-4.947-3.36-.809-.591-1.773-1.229-1.229-2.862a10.589,10.589,0,0,1,2.878.373,42.976,42.976,0,0,0,11.324,2.614,28.258,28.258,0,0,1,2.784.544c.9.187,1.8.4,3.173.7a33.049,33.049,0,0,1-16.893-2.364c1.773,1.571,3.671,2.8,5.444,4.184,1.136.887,3.018,1.649,2.224,3.484-.7,1.634-2.582,1.384-4.06,1.229a35.682,35.682,0,0,1-5.584-1.042A54.964,54.964,0,0,1,307.282,1353.687Z" transform="translate(-238.698 -1172.62)" fill="#fcea10"/>
        <path id="Trazado_906484" data-name="Trazado 906484" d="M368.159,1307.6c-4.449.622-8.462,1.229-12.226,2.924a9.9,9.9,0,0,0-5.009,5.2A31.835,31.835,0,0,0,348,1326.95c-.855,14.109-1.7,28.233-2.364,42.357-.358,7.575-.233,15.182-.653,22.757a89.468,89.468,0,0,1-1.835,11.775,88.69,88.69,0,0,0-1.291,20.688c.451,10.344,1.073,20.673,1.338,31.017.109,4.433-.638,8.882-.684,13.331a59.738,59.738,0,0,0,.716,10.935c.436,2.458,2.007,4.7,2.831,7.109,2.255,6.533,4.387,13.113,6.58,19.662a12.244,12.244,0,0,0,.591,1.291,6.263,6.263,0,0,0-.093-4.76,54.116,54.116,0,0,1-3.282-12.631c-.529-4.433.28-8.7,1-12.988a10.083,10.083,0,0,1,1.416-2.706c3.189,2.038,4.962,5.693,8.726,7.062a7.841,7.841,0,0,0-.653-1.042,20.652,20.652,0,0,1-4.915-13.906c.016-2.925-.513-5.491-2.815-7.731a7.822,7.822,0,0,1-1.96-7.155c.964-5.507,1.758-11.075,3.251-16.442a106.165,106.165,0,0,0,3.733-28.979,97.253,97.253,0,0,1,1.089-17.017c1.462-8.2,2.955-16.411,4.309-24.624.778-4.7,1.089-9.349-.607-14.031a11.288,11.288,0,0,1,.933-9.084c5.04-9.567,6.144-19.817,5.631-30.379C368.875,1310.291,368.47,1309.109,368.159,1307.6Z" transform="translate(-302.64 -1171.798)" fill="#d18941"/>
        <path id="Trazado_906485" data-name="Trazado 906485" d="M283.964,1307.23c-1.82,8.291.762,15.1,4.775,21.528a8.746,8.746,0,0,0,4.449,3.811,2.6,2.6,0,0,1,1.151,1.742c.887,3.982,1.773,7.964,2.427,11.977a8.633,8.633,0,0,1-.544,4.138,8.051,8.051,0,0,0-.28,4.884c.716,3.033.793,6.207,1.431,9.271,1.789,8.726,3.127,17.531,5.631,26.117a72.389,72.389,0,0,1,2.613,23.115c-.42,10.795,1.182,21.388,2.535,32.012.778,6.113,1.089,12.273,1.524,18.417a15.818,15.818,0,0,1-1.431,7.187,16.814,16.814,0,0,0-1.322,5.2,37.914,37.914,0,0,0,.576,11.62c.4,1.618.482,3.313.778,5.444a6.036,6.036,0,0,0,1.975-4.526c.016-1.618-.078-3.235-.047-4.838a13.312,13.312,0,0,1,2.287-7.513,12.115,12.115,0,0,1,1.556-1.54,10.534,10.534,0,0,1,.809,2.007c.762,4.962,1.836,9.924,2.084,14.917a34.407,34.407,0,0,1-2.458,14.2c-.529,1.369-1.011,2.769-1.524,4.153.187.078.358.155.544.233.436-.7.9-1.369,1.291-2.1,1.509-2.847,3.1-5.662,4.464-8.571a11.752,11.752,0,0,0,1.447-4.822c-.109-7.5-.467-14.979-.762-22.477a6.112,6.112,0,0,0-.264-1.68c-2.847-8.633-1.96-17.468-1.136-26.241,1.011-10.7,1.882-21.373.7-32.105a50.211,50.211,0,0,0-1.2-6.424c-1.2-4.962-2.6-9.877-3.671-14.871a71.494,71.494,0,0,1-1.26-9.3c-.856-10.593-1.556-21.2-2.427-31.795a64.663,64.663,0,0,0-1.338-8.431c-1.213-5.553-2.6-11.075-3.92-16.613a23.287,23.287,0,0,0-4.76-9.613,12.533,12.533,0,0,0-4.138-3.375C292.5,1310.543,288.335,1309,283.964,1307.23Z" transform="translate(-163.442 -1172.004)" fill="#d18941"/>
        <path id="Unión_35" data-name="Unión 35" d="M4939.305,9227.409a24.381,24.381,0,0,1-2.86-1.241c-5.165-2.479-8.9-6.677-12.867-10.626-4.46-4.451-6.14-10.127-7.668-15.929a2.227,2.227,0,0,1-.014-1.1c1.044-3.548.327-7.016-.713-10.357-.655-2.1-.419-3.531,1.209-5.041,5.229-4.806,7.284-10.95,7.094-17.935-.012-.6,0-1.184,0-1.772.669.079.811.309.95.557a17.251,17.251,0,0,0,11.823,8.166c2.974.641,5.989,1.058,8.99,1.417,4.152.5,7.219,2.756,9.815,5.769a10.406,10.406,0,0,1,1.137,2.615,10.235,10.235,0,0,0-12.024,6.128,22.366,22.366,0,0,0,2.163-1.244,38.9,38.9,0,0,1,3.826-2.425c3.217-1.556,5.989-.778,8.18,1.987a32.048,32.048,0,0,0,2.489,2.538c0,1.072.014,2.006,0,2.941-.032,3.314.591,6.813-.234,9.905-2.362,8.821-6.985,16.552-12.862,23.534a6.673,6.673,0,0,1-5.308,2.693A9.778,9.778,0,0,1,4939.305,9227.409Zm-3.983-19.255c-2.019.711-4.027,1.464-6.749,2.457,2.068,1.807,3.97,3.36,5.723,5.056a6.8,6.8,0,0,0,4.25,2.066,18.135,18.135,0,0,0,9.159-1.445,6.344,6.344,0,0,0,3.5-4.572,24.9,24.9,0,0,1,1.151-3.126c-5.088-2.68-8.8-3.053-14.229-1.325l.1-.092C4937.251,9207.5,4936.276,9207.813,4935.322,9208.154Zm-.882-7.128a9.262,9.262,0,0,0,7.075.856c2.052-.653,4.653-.15,6.549-2.131-.516-.264-.8-.544-.965-.483-1.8.657-3.564,1.417-5.382,2.026a2.5,2.5,0,0,1-1.9-.015,2.889,2.889,0,0,0-1.73-.306c-.9.021-1.8.044-2.3-1.065C4935.419,9200.223,4935.028,9200.53,4934.439,9201.026Zm6.61-8.956v5.412c.28-.032.621-.046.76-.061-.139-1.836-.276-3.594-.4-5.365C4941.278,9192.057,4941.172,9192.07,4941.049,9192.07Zm-15.6-4.574c4.435.7,6.274,1.612,7.406,4.454a.056.056,0,0,0,.012.009c-1.132-2.86-2.971-3.779-7.418-4.479-3.1-.484-5.445,1.618-8.682,1.883,2.9-.225,5.086-1.942,7.735-1.942A5.97,5.97,0,0,1,4925.447,9187.5Zm19.708,3.3a4.991,4.991,0,0,0,1.663-.437,2.86,2.86,0,0,1,1.942-.779,2.886,2.886,0,0,0-1.956.781,4.942,4.942,0,0,1-1.646.432Zm6.884-1.363a1.344,1.344,0,0,1-1.512.7A1.334,1.334,0,0,0,4952.039,9189.431Zm-34.76.483s0,0,0,0S4917.276,9189.914,4917.279,9189.914Zm-.062-.061a.068.068,0,0,1-.017-.014A.068.068,0,0,0,4917.216,9189.854Zm-.065-.06-.025-.025Zm-.062-.065a.423.423,0,0,1-.033-.034A.423.423,0,0,0,4917.089,9189.729Zm-.062-.064-.035-.037Zm-.065-.072-.042-.048Zm-.065-.073-.132-.155Zm40.049-1.661a5.9,5.9,0,0,0-4-1.473,5.908,5.908,0,0,1,3.986,1.47Zm-23.069-.312c-.093-2.976-1.584-4.669-4.572-5.618-4.046-1.293-7.638-.079-10.377,3.84a10.8,10.8,0,0,1,5.938-1.895C4927.987,9183.872,4930.954,9185.382,4933.877,9187.545Z" transform="translate(-4847.313 -9114.614)" fill="#d18941"/>
        <path id="Trazado_906487" data-name="Trazado 906487" d="M317.413,1292.435c1.073-3.344.467-6.3.031-9.271a6.249,6.249,0,0,0-.358-1.384c-1.027-2.644-.2-4.713,1.742-6.642A20.25,20.25,0,0,0,325.3,1260.7c.031-2.536-.373-5.071-.622-8.011a11.73,11.73,0,0,1,2.069,2.053c3.655,6.471,9.613,9.115,16.566,10.189,1.867.28,3.718.747,5.569,1.167a18.517,18.517,0,0,1,9.177,5.444,9.688,9.688,0,0,1,1.836,3.453c.9,2.4,1.867,4.729,4.231,6.5a10.166,10.166,0,0,0,.638-1.976c.482-5.289.949-10.562,1.369-15.85.824-10.158-4.4-16.566-12.584-19.179a37.458,37.458,0,0,0-8.073-1.587,159.889,159.889,0,0,0-17.033-.809,10.765,10.765,0,0,0-7.933,4.122c-.669.809-1.338,1.6-2.007,2.411-.249.3-.5.576-.762.856-6.533,7.109-9.084,15.43-7.42,24.95.669,3.811,1.773,7.544,2.52,11.355C313.447,1288.64,315.593,1290.195,317.413,1292.435Z" transform="translate(-250.105 -1208.198)" fill="#683c11"/>
        <path id="Trazado_906488" data-name="Trazado 906488" d="M325.052,1255.773c2.209-1.322,4.76-2.567,6.378-5.04a3.633,3.633,0,0,1,1.649-1.073c5.3-2.209,10.64-2.6,15.959-.109a4,4,0,0,1,1.322,1.011c2.287,2.722,5.071,2.878,7.342.249a26.119,26.119,0,0,0,5.864-11.557c1.089-4.791-.575-8.493-4.744-11.184-5.709-3.671-12.148-5.2-18.713-6.3-1.12-.187-2.24-.389-3.375-.5-8.415-.84-14.886,2.847-19.444,9.458a15.363,15.363,0,0,0-.762,17.219C318.473,1251.355,320.541,1254.622,325.052,1255.773Z" transform="translate(-254.665 -1219.819)" fill="#683c11"/>
        <path id="Trazado_906489" data-name="Trazado 906489" d="M312.115,1317.537c.513.871,1.089,1.711,1.556,2.613a30.02,30.02,0,0,0,20.066,15.882c5.1,1.307,9.582-.3,13.113-4.184,3.733-4.091,6.409-11.542,6.378-17.344-1.96-1.135-3.966-2.318-6.175-3.593.264,1.416.5,2.644.731,3.873-.171.062-.342.124-.513.2-.311-.482-.793-.918-.887-1.431-.793-4.278-1.618-8.54-2.24-12.833-.42-2.878-.544-5.8-.824-9.069-.778.716-1.416,1.214-1.96,1.789-1.991,2.131-4.418,3.033-7.2,2.1-2.489-.84-4.884-1.975-7.3-3.049a23.866,23.866,0,0,1-2.66-1.634c.093,8.229,1.929,16.271-1.789,24.095-.949-1.322-.949-1.322-.747-2.924a48.747,48.747,0,0,1-4.527,2.411,48.374,48.374,0,0,1-5.04,1.525c.047.591.093,1.12.124,1.664C312.193,1317.646,312.115,1317.537,312.115,1317.537Z" transform="translate(-240.654 -1181.097)" fill="#d18941"/>
        <path id="Trazado_906490" data-name="Trazado 906490" d="M373.561,1581.547c.544,1.136,1.089,2.271,1.587,3.313-1.213,1.073-1.867.249-2.567-.109-2.007-1.058-3.982-2.193-6.035-3.142a4.44,4.44,0,0,0-4.06.265c-3.811,1.913-7.7,3.624-11.542,5.46a7.352,7.352,0,0,0-1.867,1.275c-1.556,1.509-1.478,3.158.389,4.231,5.864,3.329,11.993,5.118,18.79,2.956,3.516-1.12,7.14-1.851,10.7-2.862a49.227,49.227,0,0,0,4.806-1.726,8.034,8.034,0,0,0,4.044-3.437c2.069-3.531,5.32-5.289,9.177-6.144.467-.109.949-.124,1.4-.233,4.029-1.042,5.351-3,4.6-7.046-.4-2.209-1.011-4.371-1.509-6.5-4.573-.327-8.9,1.058-12.973-1.073v1.4c-1.587-.373-1.524-1.618-1.555-2.707-.062-1.571-.124-3.313-1.758-3.889-2.022-.7-4.247-1.244-6.3.016-2.084,1.276-1.664,3.391-1.7,5.507.933.3,1.789.56,2.629.824a1.688,1.688,0,0,1-.047.342c-.062.062-.171.078-.249.14a1.133,1.133,0,0,0-.171.2c2.551,1.742,5.118,3.469,7.653,5.273.2.14.14.684.249,1.307-4.013.638-7.357-1.8-11.277-1.586,2.3,1.711,4.589,3.422,6.891,5.149-2.131.607-3.515-.871-5.211-1.353s-3.344-1.1-5.444-1.8c2.162,2.038,3.935,3.686,5.662,5.382.109.093-.078.5-.2,1.058-1.493-.809-2.847-1.54-4.573-2.473.233.949.389,1.524.529,2.1Z" transform="translate(-346.432 -1031.125)" fill="#e62450"/>
        <path id="Trazado_906491" data-name="Trazado 906491" d="M288.21,1568c1.913-1.1,1.913-1.1,6.891-1.416-.762-.964-1.353-1.773-2.007-2.52-1.618-1.82-3.1-1.851-4.76-.016-.887.98-1.6,2.115-2.458,3.127a7.4,7.4,0,0,1-6.766,2.924c-3.827-.5-7.809-.015-11.682-1.944-1.447,2.706-2.5,5.429-1.929,8.6a4.507,4.507,0,0,0,3.111,3.734c1.338.451,2.722.809,4.091,1.151a8.348,8.348,0,0,1,5.475,3.765,8.278,8.278,0,0,0,5.18,3.686,58.95,58.95,0,0,0,19.1,2.489c5.3-.2,10.593-.809,15.851-1.478a34.222,34.222,0,0,0,5.926-1.836v-4.791c-.84-.265-1.7-.591-2.582-.825-1.913-.513-3.873-.933-5.771-1.509-2.567-.778-4.931-1.229-7.544.327a9.259,9.259,0,0,1-7.373.436c3.313-.715,6.362-1.369,9.691-2.084-2.209-1.8-4.184-2.427-6.658-1.213-2.287,1.12-4.729,1.944-7.109,2.893a11.4,11.4,0,0,1-2.411.84c-.4.062-1.26-.342-1.276-.591-.062-.7.187-1.338,1.12-.591.171.14.716-.094,1.042-.234,2.924-1.307,5.849-2.644,8.929-4.044a3.328,3.328,0,0,0-3.687-.871c-2.722,1.058-5.475,2.069-8.2,3.127-.84.327-1.664.7-2.862,1.213.669-2.987,3.127-2.955,4.791-3.842,1.836-.964,3.811-1.633,5.74-2.427-.84-2.131-1.6-2.738-3.655-2.007-2.738,1-5.351,2.349-8,3.562-.622.28-1.213.622-2.271,1.2.56-3.313,3.111-4.5,4.807-7.078-2.178.871-3.78,1.524-5.4,2.162l.109-.109c-.482.918-1.2,1.182-2.442.84l.98-1.415C285.566,1570.176,286.888,1569.087,288.21,1568Z" transform="translate(-138.927 -1030.098)" fill="#e62450"/>
        <path id="Trazado_906492" data-name="Trazado 906492" d="M351.035,1371.53c.653-4.962,1.26-9.659,1.913-14.73-7.949.529-15.726,1.244-23.535,1.493-7.746.264-15.508.062-23.084.062.793,4.153,1.633,8.509,2.442,12.771C322.756,1375.155,336.771,1374.206,351.035,1371.53Z" transform="translate(-231.4 -1144.467)" fill="#d18941"/>
        <path id="Trazado_906493" data-name="Trazado 906493" d="M290.414,1550.6c.762,8.073,1.011,15.819-1.664,23.317,1.167,1.447,2.738,1.431,4.2,1.524,2.271.14,4.558.094,6.829.265a6.484,6.484,0,0,0,6.066-2.955c.887-1.213,1.8-2.427,2.878-3.873-1.991-6.3-1.4-13.191-2.364-19.926C296.559,1551.734,296.559,1551.734,290.414,1550.6Z" transform="translate(-159.829 -1037.727)" fill="#d18941"/>
        <path id="Trazado_906494" data-name="Trazado 906494" d="M364.954,1573.941c-.389-4.931-1-9.442-1.042-13.953-.047-4.417.5-8.851.778-13.362a49.944,49.944,0,0,1-7.544,1,45.911,45.911,0,0,1-7.373-1.182c-.047.653-.171,1.462-.171,2.271-.016,5.6,0,11.2-.031,16.8a3.906,3.906,0,0,0,1.307,3.251,11.166,11.166,0,0,1,2.069,3.017,3.45,3.45,0,0,0,2.629,1.929A33.77,33.77,0,0,0,364.954,1573.941Z" transform="translate(-310.666 -1039.121)" fill="#d18941"/>
        <path id="Trazado_906495" data-name="Trazado 906495" d="M346.658,1278.946c.653.42,1.322.855,1.991,1.291-1.431-4.775-5.8-9.193-9.069-9.177.684,5.927,6.284,13.564,11.091,14.513-.9-1.618-1.633-2.94-2.442-4.418-.529.622-.809.949-1.089,1.275-.3-.311-.84-.622-.856-.933a13.622,13.622,0,0,1,.311-2.489c-.731.156-1.462.311-2.255.482a11.79,11.79,0,0,1-2.38-5.133C344.884,1274.871,345.475,1277.22,346.658,1278.946Z" transform="translate(-280.843 -1192.096)" fill="#d18941"/>
        <path id="Trazado_906496" data-name="Trazado 906496" d="M307.736,1281.6c4.2-2.971,5.849-12.8,3.235-16.364-1.664,1.524-3.453,6.844-3.142,9.582,1.307-.762,1.1-2.131,1.415-3.189.311-1.042-.062-2.364,1.447-2.753,1.136,2.038,1.042,2.52-.373,4.246a2.836,2.836,0,0,0-.249,1.727,20.452,20.452,0,0,0,.513,2.427c-.747-.451-.949-.575-1.151-.715-.327-.233-.653-.467-.964-.7-.249.342-.669.684-.7,1.042C307.69,1278.322,307.736,1279.722,307.736,1281.6Z" transform="translate(-192.846 -1195.329)" fill="#d18941"/>
        <path id="Trazado_906497" data-name="Trazado 906497" d="M369.38,1571.241c-2.52-2.442-5.9-3.484-9.038-5.491-.451,1.2-.855,2.286-1.322,3.516,3.484.871,6.8,1.711,10.111,2.536A4.647,4.647,0,0,0,369.38,1571.241Z" transform="translate(-329.791 -1028.395)" fill="#e62450"/>
        <path id="Trazado_906498" data-name="Trazado 906498" d="M323.33,1241.925a70.982,70.982,0,0,1,8.757-1.245c2.862-.047,5.724.56,9.115.933C336.785,1238.145,327.405,1238.393,323.33,1241.925Z" transform="translate(-246.098 -1209.828)" fill="#ffed00"/>
        <path id="Trazado_906499" data-name="Trazado 906499" d="M374.5,1575.254c-.529-.5-1.058-.98-1.6-1.478-2.038-1.882-3.422-1.944-5.926-.28,2.427,1.275,4.869,2.535,7.435,3.873v-2.193Z" transform="translate(-347.276 -1024.755)" fill="#e62450"/>
        <path id="Trazado_906500" data-name="Trazado 906500" d="M289.066,1566.3c-1.322,1.089-2.644,2.178-3.982,3.266-.264.5-.638,1.042.436.778.342-.078.684-.14,1.027-.2l-.109.109c1.556-2.038,3.9-2.675,6.175-3.422.576-.186,1.167-.311,2.209-.575C292.551,1565.1,290.824,1566.281,289.066,1566.3Z" transform="translate(-139.783 -1028.397)" fill="#e62450"/>
        <path id="Trazado_906501" data-name="Trazado 906501" d="M350.9,1426.1c.249,4.044.249,4.044,2.489,4.573C352.456,1428.962,351.678,1427.531,350.9,1426.1Z" transform="translate(-301.169 -1105.971)" fill="#d18941"/>
        <path id="Trazado_906502" data-name="Trazado 906502" d="M368.089,1571.187c-2.007-2.271-2.007-2.271-3.189-.918C365.9,1570.549,366.813,1570.814,368.089,1571.187Z" transform="translate(-337.646 -1026.397)" fill="#e62450"/>
        <path id="Trazado_906503" data-name="Trazado 906503" d="M304.287,1495.547c-1.447-.233-2.675-.42-3.889-.607-.031.233-.047.467-.078.7C301.456,1496.682,302.684,1496.791,304.287,1495.547Z" transform="translate(-173.39 -1067.73)"/>
        <path id="Trazado_906504" data-name="Trazado 906504" d="M315.78,1336.7a54.665,54.665,0,0,0,19.4,10.126,33.975,33.975,0,0,0,5.584,1.042c1.478.156,3.36.4,4.06-1.229.793-1.836-1.1-2.613-2.224-3.484-1.789-1.384-3.687-2.629-5.444-4.184a33,33,0,0,0,16.893,2.365c-1.353-.3-2.255-.513-3.173-.7-.933-.187-1.851-.436-2.784-.544a42.952,42.952,0,0,1-11.324-2.613,11.243,11.243,0,0,0-2.878-.373c-.544,1.649.42,2.271,1.229,2.862,1.6,1.182,3.3,2.24,4.946,3.36.98.684,1.944,1.384,3.36,2.411-2.847.747-5.024.109-7.171-.327a58.136,58.136,0,0,1-17.1-6.829C318.02,1337.944,316.9,1337.322,315.78,1336.7Z" transform="translate(-247.197 -1155.633)" fill="#311d47"/>
        <path id="Trazado_906505" data-name="Trazado 906505" d="M326.625,1280.142c-.98.327-1.96.638-2.924.98-2.022.716-4.029,1.462-6.751,2.458,2.069,1.8,3.966,3.36,5.724,5.055a6.807,6.807,0,0,0,4.247,2.069,18.159,18.159,0,0,0,9.162-1.447,6.279,6.279,0,0,0,3.5-4.573,31.7,31.7,0,0,1,1.151-3.127c-5.087-2.675-8.8-3.049-14.233-1.322,1.633-.264,3.282.84,4.915-.218,1.8-1.167,3.189-.124,4.682.918-4.231.451-8.26.887-12.491,1.338C324.712,1281.5,325.676,1280.827,326.625,1280.142Zm12.382,2.286c-.093,3.22-1.26,5.242-3.78,6.207a34.377,34.377,0,0,1-5.211,1.245c-4.5.949-7.14-1.649-9.442-5.071C327.061,1287.531,333.252,1288.044,339.007,1282.429Zm-2.084.078c-2.769,3.826-10.873,4.449-14.031,1.275C327.543,1283.346,331.914,1281.838,336.923,1282.506Z" transform="translate(-235.705 -1187.583)" fill="#311d47"/>
        <path id="Trazado_906506" data-name="Trazado 906506" d="M328.83,1267.59c5.413-3.5,10.235-1.711,14.933,1.758-.093-2.971-1.587-4.667-4.573-5.615C335.161,1262.457,331.568,1263.686,328.83,1267.59Z" transform="translate(-257.213 -1196.435)" fill="#311d47"/>
        <path id="Trazado_906509" data-name="Trazado 906509" d="M319.7,1276.481a9.276,9.276,0,0,0,7.078.856c2.053-.654,4.667-.156,6.549-2.131-.529-.264-.809-.544-.964-.482-1.8.653-3.562,1.416-5.382,2.022a2.5,2.5,0,0,1-1.9-.016c-1.244-.824-3.2.5-4.029-1.369C320.68,1275.672,320.307,1276,319.7,1276.481Z" transform="translate(-232.575 -1190.066)" fill="#311d47"/>
        <path id="Trazado_906510" data-name="Trazado 906510" d="M323.746,1275.509c.264-.016.622-.047.747-.062-.14-1.836-.264-3.609-.4-5.366-.124,0-.233.016-.358.016C323.746,1271.869,323.746,1273.657,323.746,1275.509Z" transform="translate(-230.01 -1192.64)" fill="#311d47"/>
        <path id="Trazado_906511" data-name="Trazado 906511" d="M292.552,1568.776c-.342.062-.684.109-1.027.2-1.073.265-.716-.28-.436-.778l-.98,1.416C291.339,1569.958,292.054,1569.694,292.552,1568.776Z" transform="translate(-145.774 -1027.034)"/>
        <path id="Trazado_906512" data-name="Trazado 906512" d="M346.858,1277.769c-1.182-1.742-1.773-4.075-4.7-4.589a11.873,11.873,0,0,0,2.38,5.133c.793-.171,1.524-.326,2.255-.482Z" transform="translate(-281.043 -1190.918)" fill="#311d47"/>
        <path id="Trazado_906513" data-name="Trazado 906513" d="M336.493,1281.27c-5.755,5.615-11.962,5.1-18.433,2.4,2.318,3.422,4.946,6.02,9.442,5.071a36.842,36.842,0,0,0,5.211-1.245C335.248,1286.528,336.4,1284.49,336.493,1281.27Z" transform="translate(-233.191 -1186.424)" fill="#db5930"/>
        <path id="Trazado_906514" data-name="Trazado 906514" d="M333.431,1281.38c-5.009-.669-9.38.84-14.031,1.275C322.558,1285.814,330.646,1285.207,333.431,1281.38Z" transform="translate(-232.213 -1186.457)" fill="#fff"/>
        <path id="Trazado_906515" data-name="Trazado 906515" d="M322.9,1280.028c-.949.684-1.9,1.353-2.987,2.131,4.231-.451,8.26-.886,12.491-1.338-1.493-1.042-2.893-2.084-4.682-.917-1.633,1.058-3.3-.031-4.915.218C322.788,1280.121,322.9,1280.028,322.9,1280.028Z" transform="translate(-231.976 -1187.469)" fill="#db5930"/>
      </g>
    </g>
    <g id="Grupo_1104621" data-name="Grupo 1104621" transform="translate(2727.38 3156.915) rotate(-14)">
      <g id="Grupo_1104618" data-name="Grupo 1104618">
        <path id="Trazado_909114" data-name="Trazado 909114" d="M-1332.96-867.83s2.16,1.63-1.68,1.45a19.421,19.421,0,0,1-9.11-3.02c-.98-.86,2.1-4.05,2.81-3.97S-1334.78-871.13-1332.96-867.83Z" fill="#fff"/>
        <path id="Trazado_909115" data-name="Trazado 909115" d="M-1332.77-865.89c-1.17-1.11-1.15-2.83-2.45-3.7-.8.94-1.32,2.23-2.84,2.44,1.19.27,2.38.54,3.76.86a13.553,13.553,0,0,1-7.49-1.95c.54.07,1,.13,1.58.2a2.758,2.758,0,0,1-.31-3.8c-.06-.05-.12-.1-.17-.15a16.352,16.352,0,0,0-1.47,1.13,6.57,6.57,0,0,0-.95,1.27,1.678,1.678,0,0,1-2.03.73,2.809,2.809,0,0,1-1.83-1.37c-.11-.19,0-.5.01-.76a1.824,1.824,0,0,1,.75.09c.43.26.8.6,1.32.99.44-.72.84-1.35,1.21-2a3.73,3.73,0,0,1,3.12-2.24,7.632,7.632,0,0,1,2.33.45c.47.15.84.6,1.31.76,2.01.68,2.89,2.47,4.05,4.01C-1332.15-867.97-1332.56-866.99-1332.77-865.89Zm-6.88-3.68c.96-.2,1.47-.6,1.3-1.06a.86.86,0,0,0-.69-.45C-1339.59-871.06-1339.83-870.42-1339.65-869.57Z" fill="#311d47"/>
      </g>
      <path id="Trazado_909116" data-name="Trazado 909116" d="M-1307.69-865.31s.58,1.07-.98,1.5-2.64,1.83-8.08.35,0-3.97,0-3.97,4.06-2.42,6.79-.94,2.16,3.65,2.16,3.65Z" fill="#fff"/>
      <path id="Trazado_909117" data-name="Trazado 909117" d="M-1311.08-868a4.389,4.389,0,0,0,.41.59,1.5,1.5,0,0,1,.18,1.86,5.451,5.451,0,0,1-2.52,2.41,11.241,11.241,0,0,0,4.34-.66c-.43.64-2.32,1.19-4.13,1.07a23.948,23.948,0,0,1-4.33-.82c.66.04,1.32.09,2.14.14-1.07-1.14-1.7-2.3-.77-3.76a1.335,1.335,0,0,1-.18-.07,8.5,8.5,0,0,0-1.12.59c-.57.41-1.09.89-1.65,1.33-.11.08-.32.16-.4.11a.478.478,0,0,1-.15-.41,1.188,1.188,0,0,1,.2-.51,3.035,3.035,0,0,1,.65-.8c2.65-1.74,5.38-3.2,8.72-2.07.63.21,1.28.39,1.9.64.45.18.83.45.5,1.06a5.458,5.458,0,0,0,1.22,2.48c.53.18,1.05.38,1.6.58a1.33,1.33,0,0,1-1.72.67,7.256,7.256,0,0,1-1.64-.49,2.652,2.652,0,0,1-.92-1.11,9.9,9.9,0,0,1-.38-1.47A1.886,1.886,0,0,0-1311.08-868Zm-3.99,2.64c1.12.2,1.82-.23,1.82-1a1.073,1.073,0,0,0-.44-.75.727.727,0,0,0-.7.17A12.27,12.27,0,0,0-1315.07-865.36Z" fill="#311d47"/>
    </g>
  </g>
</svg>
