<svg xmlns="http://www.w3.org/2000/svg" xmlns:xlink="http://www.w3.org/1999/xlink" width="505" height="278" viewBox="0 0 505 278">
  <defs>
    <clipPath id="clip-path">
      <rect id="Rectángulo_396490" data-name="Rectángulo 396490" width="505" height="278" transform="translate(-10752 -576.926)" fill="#f7df3f" opacity="0.59"/>
    </clipPath>
  </defs>
  <g id="Enmascarar_grupo_1078998" data-name="Enmascarar grupo 1078998" transform="translate(10752 576.926)" clip-path="url(#clip-path)">
    <g id="Grupo_1101709" data-name="Grupo 1101709" transform="translate(-10871 -11701)">
      <g id="Grupo_1101660" data-name="Grupo 1101660" transform="translate(10793.155 11664.474)">
        <g id="Grupo_1101501" data-name="Grupo 1101501" transform="translate(-10528.75 -493.956)">
          <path id="Trazado_883343" data-name="Trazado 883343" d="M142.03,150.26Z" transform="translate(-30.36 -145.195)" fill="#fff"/>
          <path id="Trazado_883344" data-name="Trazado 883344" d="M93.407,194.308a9.013,9.013,0,0,1,1.369,1.038c-.513.627-1.084.16-1.586.034-.878-.217-1.723-.536-2.692-.844.114.194.137.285.205.331,3.354,2.555,6.662,5.19,10.107,7.632a17.1,17.1,0,0,0,4.746,2.361,38.162,38.162,0,0,0,7.039,1.529c13.1,1.506,23.774-3.046,31.976-13.29,2.418-3.023,4.392-6.388,6.594-9.594a2.906,2.906,0,0,1,.57-.468,3.261,3.261,0,0,1,.445.7,1.3,1.3,0,0,1-.057.719c-1.232,3.639-2.441,7.3-3.742,10.917a13.741,13.741,0,0,1-1.54,2.806,5.848,5.848,0,0,1-1.3,1.015c2.019-3.023,3-6.183,4.107-9.3a49.413,49.413,0,0,1-8.875,10.586c1.038.091,1.905.171,2.783.251.068-.262.125-.513.148-.616a3.236,3.236,0,0,0,1.084-.194,41.789,41.789,0,0,0,5.339-3.685,38.534,38.534,0,0,0,11.5-19.45c.479-1.916.285-4,.422-6.012a3.063,3.063,0,0,1,.16-.616c.183.125.5.24.513.376.285,2.669,2.4,4.6,3.034,7.2.091-1.061.217-2.122.285-3.183a26.839,26.839,0,0,0-6.605-19.838,18.986,18.986,0,0,0-2.533-2.236,2.1,2.1,0,0,0-2.088-.593c-.274.091-.65-.1-.958-.205-1.05-.331-2.1-.673-3.217-1.027h0c.011-.023.08-.228.205-.6-2.053-.593-4.107-1.289-6.206-1.768a35.632,35.632,0,0,0-5.168-.707c-1.745-.125-3.5-.091-5.259-.068-3.388.046-6.788-.011-10.164.251a47.652,47.652,0,0,0-14.305,3.73,3.844,3.844,0,0,1-1.1.125c-.046-.125-.1-.251-.148-.388-2.145,1.768-4.3,3.514-6.423,5.3a41.261,41.261,0,0,0-8.8,10.86c-1.061,1.825-2.224,3.582-3.32,5.384a5.479,5.479,0,0,1-8.156,1.278,1.321,1.321,0,0,0-.776-.3,24.162,24.162,0,0,0,1.175,2.521,20.077,20.077,0,0,0,8.932,7.643c.285.137.445.525.65.8a2.555,2.555,0,0,1-.97.205c-1.186-.24-2.361-.559-3.536-.844-.057.068-.125.125-.183.194a21.448,21.448,0,0,0,1.825,2.544,21.593,21.593,0,0,0,11.328,6.057c1.905.422,4.073-.148,6.092-.445,3.628-.536,6.993-1.951,10.4-3.217a21.171,21.171,0,0,1,3.6-1.061c-.753.411-1.494.856-2.282,1.221a51.224,51.224,0,0,1-12.891,4.392,34.869,34.869,0,0,1-13.1-.4,8.858,8.858,0,0,1-2.042-.81c0,.034.011.068.011.091C91.149,193.213,92.289,193.738,93.407,194.308Zm2.11-22.838a3.839,3.839,0,0,1,.525-1.061,89.663,89.663,0,0,1,10.073-12,17.591,17.591,0,0,1,11.419-5.019c.24-.011.491-.023.73-.023a.8.8,0,0,1,.228.091c-4.882.753-8.613,3.536-11.989,6.753-3.251,3.091-6.263,6.445-9.331,9.731a23.85,23.85,0,0,0-1.8,2.533A4.96,4.96,0,0,1,95.518,171.47Zm8.5,11.67a47.631,47.631,0,0,1-6.833,2.031,3.709,3.709,0,0,1-2.806-.228c6.525-.16,11.784-3.32,16.792-7.039a76.294,76.294,0,0,0,11.989-11.362c-.251.171-.513.331-.764.5-3.114,2.167-6.217,4.346-9.331,6.5a9.944,9.944,0,0,1-1.517.856,1.914,1.914,0,0,1-.764,0c.011-.262-.057-.582.068-.764a12.007,12.007,0,0,1,1.369-1.837c1.392-1.46,2.852-2.863,4.266-4.3.719-.73,1.415-1.483,2.122-2.213-.046-.068-.1-.125-.148-.194-.376.228-.753.468-1.129.7-3.559,2.088-7.1,4.2-10.7,6.217a16.4,16.4,0,0,1-3.582,1.38,6.267,6.267,0,0,1-2.4,0c2.852-.388,5.282-1.791,7.712-3.114,3.137-1.7,6.194-3.571,9.309-5.327a6.925,6.925,0,0,1,1.654-.456,5.445,5.445,0,0,1-.707,1.54c-1.574,1.666-3.24,3.251-4.837,4.894-.878.913-1.688,1.882-2.533,2.829.068.08.125.16.194.24a16.64,16.64,0,0,0,1.723-.947q7.649-5.544,15.263-11.122c.867-.627,1.643-1.369,2.5-2.019.194-.148.525-.1.787-.16a2.162,2.162,0,0,1-.183.8,7.553,7.553,0,0,1-.878.935c-2.966,2.955-5.989,5.864-8.909,8.864C116.576,175.645,110.861,180.2,104.016,183.14Zm11.168,16.769a17.566,17.566,0,0,0,3.844-1.666c8.738-6.057,16.119-13.4,21.036-22.975a2.86,2.86,0,0,0,.365-1.243,14.427,14.427,0,0,0-1.62.7c-1.985,1.141-3.947,2.339-5.932,3.479-1.221.7-2.464,1.358-3.719,1.985a3.809,3.809,0,0,1-1.232.342c-.992.137-1.483-.342-1.278-1.323s.548-1.939.776-2.92a8.189,8.189,0,0,0,.228-1.894c-.011-.9-.548-1.278-1.335-.844-1.061.582-2.008,1.38-3.046,2.019a15.092,15.092,0,0,1-1.734.821c-.057-.114-.125-.228-.183-.342,1.346-.878,2.681-1.791,4.05-2.635.627-.388,1.483-.753,2.031-.137a2.8,2.8,0,0,1,.456,1.916c-.1,1.084-.468,2.145-.662,3.228a7.442,7.442,0,0,0,0,1.426,4.314,4.314,0,0,0,1.46-.183c2.008-1.038,3.981-2.156,5.955-3.24,1.688-.924,3.354-1.882,5.088-2.738a4.627,4.627,0,0,1,1.608-.16,5.381,5.381,0,0,1,.023,1.654,31.538,31.538,0,0,1-5.761,10.05,63.739,63.739,0,0,1-12.845,11.989,18,18,0,0,1-6.548,3.206,3.9,3.9,0,0,1-1.449.1c-.365-.068-.673-.411-1.107-.7A4.944,4.944,0,0,0,115.185,199.91Z" transform="translate(-38.947 -145.586)" fill="#e7276a"/>
          <path id="Trazado_883345" data-name="Trazado 883345" d="M247.16,274.35c-.388-1.711-.958-3.422-.662-5.248a8.9,8.9,0,0,0,.057-2.27,22.179,22.179,0,0,0-6.229-13.472,10.045,10.045,0,0,0-2.692-1.837,1.383,1.383,0,0,1-.9-1.1c-.559-3.628-1.243-7.232-1.688-10.872a22.952,22.952,0,0,1-.183-6.662c1.415-7.894,2.92-15.788,4.746-23.591,1.745-7.461,2.533-14.887.764-22.416a43.676,43.676,0,0,0-4.62-12.651,66.343,66.343,0,0,0-3.662-5.7,15.546,15.546,0,0,0-6.685-5.7c-.981-.376-2.053-.479-3.069-.776a57.888,57.888,0,0,0-14.214-2.5,41.331,41.331,0,0,0-14.59,2.361c-4.289,1.437-8.156,3.536-10.974,7.175a40.847,40.847,0,0,0-7.312,14.476,39.448,39.448,0,0,0-.776,7.906,3.574,3.574,0,0,0,1.243,3.046c.582.479,1.209.9,1.768,1.312-.456.684-.844,1.266-1.255,1.871-.228-.16-.468-.331-.764-.548-.08.183-.1.411-.194.434-1.175.376-.57,1.015-.137,1.46s.262.776.1,1.221q-1.711,4.979-3.4,9.959c-.057.171-.125.342-.285.787a23.71,23.71,0,0,0-5.122-9.845c2.772-2.5,2.772-2.5,2.213-3.251-.639,1.175-1.723.867-2.795.878-.057-1.1-.1-2.156-.148-3.114.445-.148.81-.285,1.175-.411-.285-.331-.559-.662-.844-.981-.08-.08-.274-.1-.308-.183a.991.991,0,0,1-.08-.616c.73-1.7,1.631-3.342,2.213-5.088a14.634,14.634,0,0,0,.376-8.761,4.4,4.4,0,0,1,.274-2.715,25.605,25.605,0,0,1,.662,3.81c.068.7,0,1.415.091,2.11a.871.871,0,0,0,.525.627.861.861,0,0,0,.719-.388,5.359,5.359,0,0,0,.513-1.266,33.721,33.721,0,0,0,1.164-11.351,27.139,27.139,0,0,0-6.719-16.61,9.459,9.459,0,0,0-7.712-3.8,2.115,2.115,0,0,1-.947-.285,25.711,25.711,0,0,0-7.426-2.555c-2.053-.342-4.13-.536-6.206-.707-3.342-.285-6.7-.684-10.05-.7a43.664,43.664,0,0,0-12.8,2.122c-2.841.867-5.761,1.517-8.316,3.228-6.628,4.415-12.526,9.491-16.381,16.632a48.321,48.321,0,0,1-2.955,4.643,8.081,8.081,0,0,1-1.426,1.278c-.057-.046-.1-.1-.16-.148-.034.262-.057.525-.091.764a6.6,6.6,0,0,1-4.882-2.361c-.08-.148-.068-.354-.148-.513-.114-.274-.262-.525-.4-.787-.183.285-.513.582-.5.867a17.494,17.494,0,0,0,.331,3.639,13.279,13.279,0,0,0,5.362,7.221c.228.171.445.354.559.433-.411.251-.787.479-1.152.707.354.274.707.548.935.73A11.165,11.165,0,0,0,92.2,187a18.673,18.673,0,0,0,3.16,3.274,2.2,2.2,0,0,1,.856,2.167c-.65-.137-1.266-.262-1.871-.4-.046.125-.08.262-.125.388a15.93,15.93,0,0,0,2.795,1.164,34.869,34.869,0,0,0,13.1.4A51.836,51.836,0,0,0,123,189.6c.776-.365,1.517-.81,2.282-1.221a21.171,21.171,0,0,0-3.6,1.061c-3.411,1.266-6.776,2.681-10.4,3.217-2.019.3-4.187.867-6.092.445a21.673,21.673,0,0,1-11.328-6.057,22.834,22.834,0,0,1-1.825-2.544c.057-.068.125-.125.183-.194,1.175.285,2.35.6,3.536.844a2.793,2.793,0,0,0,.97-.205c-.217-.274-.376-.662-.65-.8a20.076,20.076,0,0,1-8.932-7.643,24.163,24.163,0,0,1-1.175-2.521,1.222,1.222,0,0,1,.776.3A5.478,5.478,0,0,0,94.89,173c1.107-1.8,2.259-3.559,3.32-5.384a41.078,41.078,0,0,1,8.8-10.86c2.122-1.791,4.278-3.536,6.423-5.3.046.125.1.251.148.388a3.843,3.843,0,0,0,1.1-.125,47.991,47.991,0,0,1,14.305-3.73c3.377-.262,6.776-.194,10.164-.251,1.757-.023,3.514-.057,5.259.068a35.631,35.631,0,0,1,5.168.707c2.1.479,4.141,1.164,6.206,1.768-.125.376-.194.582-.205.6,1.129.365,2.167.707,3.217,1.027a1.944,1.944,0,0,0,.958.205,2.089,2.089,0,0,1,2.088.593,18.984,18.984,0,0,1,2.533,2.236,26.839,26.839,0,0,1,6.605,19.838c-.068,1.061-.194,2.122-.285,3.183-.639-2.6-2.749-4.529-3.034-7.2-.011-.148-.342-.251-.513-.376a3.063,3.063,0,0,0-.16.616,33.85,33.85,0,0,1-.422,6.012,38.614,38.614,0,0,1-11.5,19.45,41.791,41.791,0,0,1-5.339,3.685,2.972,2.972,0,0,1-1.084.194c-.023.1-.091.354-.148.616-.878-.08-1.745-.16-2.783-.251a49.413,49.413,0,0,0,8.875-10.586c-1.107,3.114-2.088,6.274-4.107,9.3.559-.422,1.061-.639,1.3-1.015a13.742,13.742,0,0,0,1.54-2.806c1.3-3.616,2.51-7.267,3.742-10.917a1.206,1.206,0,0,0,.057-.719,2.871,2.871,0,0,0-.445-.7,2.319,2.319,0,0,0-.57.468c-2.19,3.206-4.175,6.571-6.594,9.594-8.191,10.244-18.868,14.8-31.976,13.29a38.164,38.164,0,0,1-7.039-1.529,17.259,17.259,0,0,1-4.746-2.361c-3.445-2.441-6.753-5.065-10.107-7.632a1.552,1.552,0,0,1-.205-.331c.97.308,1.814.627,2.692.844.513.125,1.084.593,1.586-.034a9.83,9.83,0,0,0-1.369-1.038c-1.54-.787-3.126-1.483-4.677-2.247-.548-.274-1.027-.684-1.574-.924-.285-.114-.89-.091-.97.068a1.2,1.2,0,0,0,.034,1.061,8.986,8.986,0,0,0,1.574,1.78q4.227,3.611,8.51,7.141a1.963,1.963,0,0,1,.742,1.266,6.775,6.775,0,0,0,.913,2.35,22.9,22.9,0,0,0,2.316,2.841,2.17,2.17,0,0,1,.742,1.939,4.384,4.384,0,0,0,.251,1.985,13.62,13.62,0,0,0,8.9,8.944,3.58,3.58,0,0,1,2.43,1.974,4.632,4.632,0,0,0,2.829,2.6,2.882,2.882,0,0,0,3.662-1.506c.171.251.319.479.479.7,1.175,1.563,2.35,3.114,3.514,4.689a8.994,8.994,0,0,1,1.084,1.757c.342.81.548,1.677.833,2.51.673,2,1.369,3.981,2.031,5.978a.8.8,0,0,1-.148.707,4.369,4.369,0,0,0-1.6,4.164c.011.217,0,.548-.137.65a25.233,25.233,0,0,1-2.167,1.494c-1.529.958-3.046,1.916-4.609,2.806a9.378,9.378,0,0,1-2.886,1.312,44.032,44.032,0,0,1-7.016.7,12.029,12.029,0,0,0-7.278,2.339,22.245,22.245,0,0,0-9.138,14.716c-.65,3.7-.958,7.3.331,10.94a9.062,9.062,0,0,1,.24,3.6c-.16,2.156-.513,4.3-.753,6.457-.08.719,0,1.472-.125,2.19-.319,1.859-.844,3.7-1.038,5.567a22.041,22.041,0,0,1-3.046,9.7,9.392,9.392,0,0,1-4.86,4.141,16.1,16.1,0,0,1-2.852.627c-1.335.205-1.723.9-1.152,2.122.285.6.593,1.209.867,1.825,1.118,2.612.742,4.209-1.483,5.966-1.2.947-2.521,1.745-3.673,2.738a24.252,24.252,0,0,0-3.388,3.457,4.419,4.419,0,0,0-.593,4.369c.559,1.437.627,1.574-.65,2.464a137.108,137.108,0,0,0-13.518,10.7c-5.67,5.156-10.221,11.282-14.9,17.305a5.317,5.317,0,0,0-.7,1.175,1.257,1.257,0,0,0,.445,1.7c.616.388,7.734-5.533,5.293-4.6,6.867-9.537,15.583-17.477,24.595-25.017.445,1.312.844,2.692,1.38,4.015a3.121,3.121,0,0,0,1.118,1.1c.342.251.856.308,1.152.593A36.8,36.8,0,0,0,89,348.055a99.738,99.738,0,0,1,13.929,8.3c1.312.913,2.692,1.734,4.038,2.6a6.854,6.854,0,0,1,.6.5c-.5-1.084-.947-2.031-1.392-2.966l.308-.183c.445.365.913.7,1.323,1.1,1.517,1.472,3,2.955,4.495,4.449.1.1.24.285.205.365-.308.65.217.81.6,1.015a10.082,10.082,0,0,0,1.745.81c6.982,2.27,14.088,3.73,21.458,2.6a23.521,23.521,0,0,0,11.59-5.133,7.542,7.542,0,0,0,3.046-6.194,3.782,3.782,0,0,1,1.1-2.407.656.656,0,0,1,.456-.205c1.278.08,2.555.171,3.833.285a40.255,40.255,0,0,0,8.693.068,26.767,26.767,0,0,1,6.753-.046c4.107.536,7.814,2.339,11.488,4.164,6.491,3.228,13.062,6.229,19.827,8.841,8.59,3.32,17.385,5.133,26.626,4.3,1.358-.125,2.7-.319,4.141-.491-.125.9-.228,1.734-.342,2.612-.433-.148-.764-.251-1.061-.354.1.137.194.274.3.422.821-.023,1.643-.034,2.464-.046a18.966,18.966,0,0,0,.308-1.962c.091-1.038,1.209-2.133-.068-3.171-.08-.068.011-.354.023-.536a37.929,37.929,0,0,0-2.327-16.746,41.856,41.856,0,0,1-3.023-13.906,1.991,1.991,0,0,1,.57-1.62,30.508,30.508,0,0,0,2.612-3.183,69.806,69.806,0,0,0,12.605-31.884c.684-5.076,1.164-10.2,1.631-15.3A31.462,31.462,0,0,0,247.16,274.35ZM99.875,192.842c-1.768.319-2.373.046-2.578-1.209C98.2,192.055,99.02,192.443,99.875,192.842Zm77.253,1.072a2.587,2.587,0,0,1-1.015-2.852c.342-1.631.228-3.365.593-5a44.031,44.031,0,0,1,2.236-7.894,15.16,15.16,0,0,1,3.582-4.7,70.56,70.56,0,0,1,7.153-5.864,24.966,24.966,0,0,1,13.575-4.495c4.266-.24,8.556-.376,12.834-.262a22.962,22.962,0,0,1,9.274,2.213c2.555,1.209,4.312,3.32,5.989,5.441,5.829,7.392,8.214,15.948,8.316,25.268.057,5.259-1.243,10.278-2.384,15.343-1.426,6.308-2.92,12.605-4.209,18.937-.593,2.92-.821,5.921-1.129,8.9-.217,2.042.684,3.879,1.232,5.784s1.027,3.822,1.574,5.921c-.582-.148-.981-.251-1.369-.342a29,29,0,0,1-11.6-5.875c-.559-.468-1.266-.741-1.426-1.654-.057-.342-.764-.684-1.232-.821-1.141-.331-2.316-.525-3.479-.787-.445-.1-.878-.217-1.392-.342.125-.308.205-.559.319-.81a68.233,68.233,0,0,0,4.05-12.548c.183-.833.183-1.768,1.506-1.7.285.011.616-.73.856-1.05,1.289-.365,2.555-.73,3.753-1.084-.148,2.624-.388,5.362-.422,8.1-.046,3.365.046,6.731.171,10.084a5.438,5.438,0,0,0,.719,1.723,2.085,2.085,0,0,1,.285-.091c.034-.479.1-.958.1-1.437q-.034-8.812-.091-17.625a3.849,3.849,0,0,1,.97-2.624,16.177,16.177,0,0,0,3.993-11.67,8.759,8.759,0,0,0-.81-2.977,3.72,3.72,0,0,0-4.882-2.1,13.652,13.652,0,0,0-3.434,2.179c-.388.3-.433,1.027-.719,1.78.958-.958,1.643-1.745,2.441-2.4a5.854,5.854,0,0,1,1.825-1.015,2.992,2.992,0,0,1,4.038,1.962,8.743,8.743,0,0,1,.217,5.156,17.131,17.131,0,0,1-4.574,8.328,8.619,8.619,0,0,1-1.768,1.3c-.627.365-1.38.536-1.974.947-.57.388-1,.97-1.608,1.483,1.734-8.909,1.084-17.739-.787-26.523.023.513.034,1.027.08,1.54.046.548.137,1.1.205,1.643a86.673,86.673,0,0,1,.16,15.674,72.411,72.411,0,0,1-4.609,21.891,5.9,5.9,0,0,1-.57,1.346c-.217.308-.753.411-.924.719-.125.217.274.719.16.97a38.394,38.394,0,0,1-7.472,11.259,3.03,3.03,0,0,1-.342.183c.16-.319.251-.491.342-.673a100.059,100.059,0,0,0,12.377-37.508,74.306,74.306,0,0,0-.365-20.123,20.558,20.558,0,0,0-.9-3.65A96.737,96.737,0,0,1,215.9,211c-2.042-.764-3.913-1.46-5.772-2.167-.582-.217-.673-.7-.719-1.255a128.247,128.247,0,0,0-2.51-17.8c-.6-2.647-1.346-5.27-2.019-7.906a6.52,6.52,0,0,0-.468-1.426c.376,7.848.742,15.708,1.118,23.625a27.911,27.911,0,0,1-7.769-3.536.762.762,0,0,1-.274-.513,66.62,66.62,0,0,1-.935-8.2c0-3.308.5-6.628.787-9.936.057-.684.137-1.38.228-2.213-1.141.536-3.411,6-4.107,9.4a29.929,29.929,0,0,0-.217,10.29,30.452,30.452,0,0,1-7.073-2.053,6.438,6.438,0,0,0-1.882-.4,1.281,1.281,0,0,1-.935-1.437,81.556,81.556,0,0,1,1.312-8.214c.821-3.24,2.053-6.388,3.1-9.571.1-.3.205-.582.308-.878-.091-.068-.183-.125-.274-.194-.274.274-.639.491-.8.821-1.061,2.133-2.19,4.232-3.069,6.434a37.277,37.277,0,0,0-1.791,5.955,55.452,55.452,0,0,0-.662,5.544A6.626,6.626,0,0,1,177.128,193.915Zm16.895,54.278c-.411-2.59-.913-5.168-1.38-7.746-.034-.171-.057-.354-.114-.65,7.084-1.529,14.066-3.24,19.815-8.248-.137.456-.24.81-.354,1.152a129.306,129.306,0,0,1-9.8,22.074c-.262.456-.867,1.049-.16,1.517.684.456,1.061-.262,1.483-.684.627-.616,1.323-1.164,1.894-1.825,1.654-1.951,3.377-3.867,4.86-5.955,1.289-1.8,2.293-3.822,3.445-5.772.593.262,1.255.559,2.008.9a38.921,38.921,0,0,1-6.685,9.183,35.045,35.045,0,0,1-11.18,7.347,9.69,9.69,0,0,1-5.35.046,1.292,1.292,0,0,1-.8-.9c-.1-2.59-.148-5.179-.114-7.78a6.431,6.431,0,0,1,.513-1.814c.593.183,1.152.525,1.392.376A1.454,1.454,0,0,0,194.023,248.193Zm-1.186,12.628a9.243,9.243,0,0,0,7.632-.719c2.875-1.734,5.613-3.685,8.4-5.556a3.189,3.189,0,0,0,.662-.639c2.35-2.977,4.8-5.875,6.388-9.366.662-1.46.662-1.46,2.179-1.107.3.068.582.148.924.24a3.654,3.654,0,0,1-.183.536c-1.631,3.1-3.411,6.092-6.354,8.179a7.518,7.518,0,0,0-2.521,2.977,8.563,8.563,0,0,1-3.149,3.388,32.094,32.094,0,0,1-10.929,4.3c-1.278.3-2.59.468-3.879.662a1.341,1.341,0,0,1-1.734-1.141c-.57-2.247-1.278-4.449-1.848-6.7a2.419,2.419,0,0,1,.171-1.472c.525-1.129,1.164-2.213,1.723-3.228.068,2.247.091,4.574.217,6.879C190.635,259.748,191.216,260.342,192.836,260.821ZM173.8,208.414a30.7,30.7,0,0,1,1.3-4.278c.319-1.107.57-2.236.867-3.354.16-.57.376-1.118.616-1.837,1.483,3.114,5.088,4.54,6.9,2.932a17.346,17.346,0,0,1-3.525-.992,17.183,17.183,0,0,1-2.852-2.3c.194-.308.331-.5.456-.7v.011c.1-.559.205-1.118.331-1.757a8.021,8.021,0,0,0,4.768.639c.205-.046.5.16.707.331a19.209,19.209,0,0,0,9.263,3.7,4.884,4.884,0,0,0,.913.023c.958-.034,1.072-.24.97-1.175a23.458,23.458,0,0,1,.81-9.936c.262,3,.536,6.092.81,9.183.023.274.057.548.08.821a2.766,2.766,0,0,0,1.745,2.555c2,.833,3.97,1.723,5.943,2.6.627.285,1.266.57,1.871.9s1.118.217,1.289-.445a3.857,3.857,0,0,0,.023-1.255c-.148-1.517-.376-3.023-.479-4.54-.148-2.225-.228-4.46-.331-6.685a2.217,2.217,0,0,1,.274-.023c.365,2.795.764,5.59,1.084,8.4.251,2.19.434,4.381.582,6.582a2.588,2.588,0,0,0,1.38,2.133,13.47,13.47,0,0,0,5.43,1.837c.89.114,1.415-.125,1.517-1.072a1.2,1.2,0,0,1,.365-.764c-.091.992-.16,2-.285,2.989a88.842,88.842,0,0,1-2.943,14.237,2.346,2.346,0,0,1-.833,1.061c-.981.73-2.019,1.38-3.023,2.076a46.389,46.389,0,0,1-7.814,4.369,44,44,0,0,1-9.776,3.274c-5.362.97-10.062-.331-13.792-4.483-.947-1.049-1.084-2.418-1.46-3.707a9.945,9.945,0,0,0-1.369-3.354c-2.065-2.658-2.487-5.715-2.59-8.9-.011-.24.023-.491,0-.73C172.747,213.924,173.409,211.175,173.8,208.414Zm17.043,31.679a14.909,14.909,0,0,1-5.59,2.3c-2.224.4-4.483.559-6.719.9a21.513,21.513,0,0,0-2.361.627c.787-2.567,1.586-5.191,2.441-7.985a11.949,11.949,0,0,0,5.67,3.331A18.965,18.965,0,0,0,190.84,240.093ZM171.846,221.6c.1.011.217.034.319.046.068.262.114.548.205.8a17.292,17.292,0,0,0,1.358,3.457,14.422,14.422,0,0,1,2.076,5.419,23.135,23.135,0,0,0,.981,2.738,2.054,2.054,0,0,1,.125,1.186c-.6,2.019-1.209,4.027-1.939,6.012-.308.833-.935,1.551-1.323,2.361a8.459,8.459,0,0,0-.445,1.688c-.981.525-2.122,1.141-3.3,1.768.011-.137.011-.308.034-.479.251-1.905-.935-2.909-2.783-2.3a5.325,5.325,0,0,0-1.494.867c-1.494,1.107-2.966,2.236-4.449,3.354-1.061-1.358-2.692-1.734-4.141-2.19a1.66,1.66,0,0,1-1.323-1.8c-.057-1.745-.068-3.479-.023-5.225.034-1.118.194-2.224.3-3.331a16.154,16.154,0,0,0,10.278-3.445,9.988,9.988,0,0,0,3.879-5.807C170.626,224.966,171.287,223.3,171.846,221.6ZM163.29,260.33c.125.137.4.285.536.24a2.242,2.242,0,0,0,.924-.548c.673-.707,1.278-1.483,1.928-2.213a7.917,7.917,0,0,1,1.4-1.426,74.458,74.458,0,0,1,7.4-4.723c1.3-.662,3.023-.468,4.563-.639.1-.011.24.16.513.354-.924.354-1.734.582-2.475.947-1.221.6-2.407,1.289-3.593,1.974a16.854,16.854,0,0,0-1.6,1.061,12.969,12.969,0,0,0-1.837,1.494c-1.289,1.38-2.521,2.829-3.765,4.255a3.935,3.935,0,0,0-.627.89,3.225,3.225,0,0,0-.114.89c.3-.1.684-.114.89-.308,1.415-1.38,2.806-2.795,4.2-4.2a5.326,5.326,0,0,1,.684-.741q3.046-2.019,6.126-3.97c.57-.354,1.186-.616,1.791-.913a1.667,1.667,0,0,1,2.042.388A13.139,13.139,0,0,1,180.8,254.4c-1.392.89-2.829,1.7-4.209,2.59a11.043,11.043,0,0,0-1.848,1.494c-1.209,1.209-2.373,2.475-3.559,3.707a5.136,5.136,0,0,0-1.289,3.32c-.456,5.339-2.213,10.016-6.48,13.564a14.668,14.668,0,0,0-5.008,8.02c-.468,1.939-1.358,3.776-2.019,5.681-.9,2.567-1.757,5.133-2.635,7.712-.171.491-.262,1-.468,1.483-2.726,6.308-4.848,12.891-8.259,18.868a63.056,63.056,0,0,1-16.016,18.834,41.673,41.673,0,0,1-5.886,3.3c-2.327,1.278-4.654,2.533-6.982,3.8a7.811,7.811,0,0,1-.958.525c-1.506.57-2.544.114-2.818-1.426-.742-4.175-2.989-7.791-4.187-11.8-1.54-5.179-3.365-10.29-4.517-15.549a55.817,55.817,0,0,1-.947-11.316c-.057-4.552.365-9.1.376-13.655q.017-7.392-.354-14.773a48.153,48.153,0,0,1,.776-12.868,14.834,14.834,0,0,1,4.6-7.791c2.122-1.928,4.643-3,7.575-1.711a8.86,8.86,0,0,1,5.19,6.023,51.706,51.706,0,0,1,1.78,15.526,60.213,60.213,0,0,0,1.084,12.3c.9,4.882,1.221,9.879,1.916,14.819a6.676,6.676,0,0,1-1.951,6.069c-2.053,2.213-3.331,5.156-4.882,7.814-.251.422-.65,1.05.011,1.551.3-.411.627-.8.9-1.221.684-1.072,1.312-2.179,2.008-3.24.217-.331.582-.559.8-.878,3.81-5.556,9.012-9.788,13.78-14.419a73.332,73.332,0,0,0,7.712-8.476,8.368,8.368,0,0,0,1.175-1.962,43.752,43.752,0,0,0,3.217-12.64,31.831,31.831,0,0,1,4.084-14.214c2.27-3.856,4.746-7.552,7.381-11.157.468-.639.9-1.289,1.323-1.951,1.323-2.053,3.411-3.217,5.327-4.563a5.04,5.04,0,0,1,1.848-.741c.741-.16,1.141.262.81.935a11.109,11.109,0,0,1-1.6,2.282c-.753.878-1.974,1.529-2.339,2.521-.627,1.7-2.019,2.3-3.308,3.183a8.274,8.274,0,0,0-1.939,1.666,7.229,7.229,0,0,0-.8,1.951c.251.068.6.285.741.194a6.792,6.792,0,0,0,.867-.935,10.519,10.519,0,0,1,1.506-1.437q3.833-2.481,7.734-4.86a10.315,10.315,0,0,1,5.054-1.118,6.8,6.8,0,0,1,1.586.331,32.743,32.743,0,0,0-7.255,3.65c-1.7,1.186-3.514,2.224-4.586,4.13-.445.8-1.061,1.517-1.563,2.282A.49.49,0,0,0,163.29,260.33ZM212.138,321.5c-.764-3.046-1.529-6.092-2.27-9.035,1-.878,2.088-1.768,3.091-2.726,1.415-1.358,2.761-2.783,4.175-4.13a1.224,1.224,0,0,1,.992-.228,5.263,5.263,0,0,1,2.521,1.711c4.6,4.905,6.981,10.917,8.738,17.237a17.168,17.168,0,0,1,.525,6.879c-.764.068-.764.068-1.608,2.247l-5.2-1.916c1.939-2.761,4.8-4.94,5.613-8.533-.57.559-1.175,1.1-1.7,1.7-3.171,3.685-6.32,7.4-9.5,11.088a14.35,14.35,0,0,1-6.582,4.335c-.376.125-.787.125-1.152.262a2.469,2.469,0,0,0-1.107.639,1.381,1.381,0,0,1-1.825.513c-3.228-1.015-5.419-3.365-7.632-5.727a49.291,49.291,0,0,1-8.271-12.389c-2.156-4.449-4.369-8.989-5.35-13.872-1.232-6.069-1.985-12.24-2.966-18.366a93.177,93.177,0,0,0-3.7-14.26c-.422-1.3-.81-2.624-1.186-3.947a2.5,2.5,0,0,1-.046-.776c.011-.24.183-.639.091-.707-.411-.319-1-.844-1.346-.741a2.481,2.481,0,0,1-2.145-.388,35.407,35.407,0,0,1-3.114-2.1.8.8,0,0,1-.3-.6c.171-1.483.331-2.943,1.563-4.061a15.794,15.794,0,0,0,2.122-2.407,15.158,15.158,0,0,1,5.464-4.6c1.027,1.415,1.962,2.886,3.091,4.187a8.5,8.5,0,0,1,2.019,4.6,37.822,37.822,0,0,0,1.666,8.054c1.837,4.7,3.16,9.651,5.9,13.974s5.533,8.647,8.293,12.971c3.844,6.023,7.153,12.275,8.773,19.325.559,2.418,1.46,4.757,2.293,7.381A10.248,10.248,0,0,0,212.138,321.5ZM167.329,250.28c.741-.764,1.312-1.346,1.882-1.939C169.69,249.2,169.428,249.5,167.329,250.28Zm-32.2-6.183a4.467,4.467,0,0,0-.365-1.415,2.106,2.106,0,0,1,.194-2,1.2,1.2,0,0,0,.251-.764c-.16-.616.148-.913.57-1.266.228-.194.24-.662.411-1.221a3.608,3.608,0,0,0,.742-.331,1.894,1.894,0,0,0,.433-.582,6.109,6.109,0,0,0-.627-.125.459.459,0,0,1-.4-.137,10.109,10.109,0,0,1,2.43-.65c3.445-.057,6.89,0,10.324.011,1.472.011,2.932.011,4.4.034.479.011.97.046,1.358.068-.319,1.916-.73,3.753-.89,5.613a25.271,25.271,0,0,0,.114,4.643c.046.445.662.821,1,1.243.251.3.616.593.684.924.046.228-.274.673-.536.81a12.458,12.458,0,0,1-6.32,1.186A35.639,35.639,0,0,1,137,247.132a17.834,17.834,0,0,1-2.418-1.415c.114-.057.217-.125.331-.183A6.457,6.457,0,0,0,135.125,244.1Zm29.5-57.016q1.2-2.5,2.418-4.974c.354,2.076-.662,7.164-1.723,9.035-.262-1.164-.525-2.3-.764-3.457A.933.933,0,0,1,164.625,187.082Zm-58.282,20.306c-1.038-1.323-2.019-2.681-3.023-4.027a4.915,4.915,0,0,1-.274-.639c6.126,4.244,12.959,5.453,19.861,6.388-.491.331-1.038.65-1.54,1.038-.9.719-.844,1.061.205,1.506.183.08.365.194.513.274-.513.707-.992,1.369-1.608,2.224a22.981,22.981,0,0,1-1.859-1.563,19.835,19.835,0,0,0-7.358-4.837,6.707,6.707,0,0,0-4.152-.171A.87.87,0,0,1,106.343,207.387Zm21.629,18.549a17.727,17.727,0,0,1-3.924-5.27c-.354-.9-.753-1.791-1.049-2.715-.24-.742-.194-.753-1.38-.924.5,1.586.97,3.023,1.415,4.472a3.34,3.34,0,0,1,.262.958c-.034,1.483-.513,1.859-1.951,1.654a4.04,4.04,0,0,1-3-2.053,5.294,5.294,0,0,0-2.761-2.259,14.2,14.2,0,0,1-8.3-8.761,3.171,3.171,0,0,1-.137-.434c-.491-2.19-.217-2.989,2.521-2.567A9.389,9.389,0,0,1,115.139,211c.274.285.593.536.9.8.08-.057.148-.1.228-.16-.068-.285-.148-.57-.251-.97.947.947,1.757,1.848,2.669,2.647a8.8,8.8,0,0,0,2,1.255c.468.228.787.046.81-.593a1.713,1.713,0,0,1,.468-.992c.958-1,.924-1.232-.365-1.734-.137-.057-.274-.125-.536-.251a5.7,5.7,0,0,1,.684-.639,7.687,7.687,0,0,1,4.118-1.517,30.312,30.312,0,0,0,9.982-2.145c.251-.091.513-.171,1.015-.342a11.887,11.887,0,0,1-1.643,2.373c-.627.548-1.529.764-2.35,1.346a3.826,3.826,0,0,0,1.472.068,11.557,11.557,0,0,0,2.829-1.426c1.141-.856,2.11-1.951,3.183-2.9a13.056,13.056,0,0,1,6.4-3.4,8.1,8.1,0,0,1,4.711.5c-.525-.65-1.05-1.289-1.506-1.859,6.115-1.757,9.925-6.537,13.541-11.91.183,1.745.331,3.285.491,4.86a8.06,8.06,0,0,0-5.419,4.289,1.618,1.618,0,0,0-.011.935,9.56,9.56,0,0,1,5.362-3.616c.3,1.1.582,2.133.867,3.16-2.521.331-3.856,2.2-4.882,4.381a3.017,3.017,0,0,0-.24,1.152,2,2,0,0,0,.285.7,2.634,2.634,0,0,0,.7-.422,20.322,20.322,0,0,1,2.647-3c.627-.479,1.723-.331,2.612-.445.068-.011.183.217.251.342.491.81.913,1.666,1.46,2.418,1.255,1.7,1.631,3.742,2.293,5.67a24.791,24.791,0,0,1,1.6,8.784,8.418,8.418,0,0,1-.764,3.445c-.753,1.631-1.289,3.354-1.962,5.008-1.1,2.715-2.681,4.962-5.521,6.16a16.209,16.209,0,0,1-8.727,1.392c-3.685-.525-7.449-.479-11.122-1.061a32.653,32.653,0,0,1-11-3.6A18.838,18.838,0,0,1,127.972,225.936Zm10.438,23.431a33.826,33.826,0,0,0,9.925,2.43,15.332,15.332,0,0,0,6.217-.878,4.259,4.259,0,0,0,2.669-2.088l.308.1a2.837,2.837,0,0,1-.171.787c-1.027,1.8-2.783,2.282-4.666,2.669-3.97.833-7.791-.011-11.59-.867-3.365-.753-5.955-2.943-8.293-5.339a6.511,6.511,0,0,1-1.152-2.909C132.729,246.652,135.353,248.272,138.41,249.367Zm-19.541,2.726a7.4,7.4,0,0,0,5.145-1.2c1.586-1.084,3.228-2.1,4.8-3.206a17.6,17.6,0,0,0,1.745-1.574c.878.73,1.825,1.563,2.829,2.327,3.8,2.875,8.214,4.073,12.868,4.666a15.848,15.848,0,0,0,5.909.137,3.136,3.136,0,0,1,.73.011,5.624,5.624,0,0,0,5.27-2.738c.5-.844.981-1.129,1.962-.73-.217.24-.4.491-.627.707a39.628,39.628,0,0,0-6.742,9.229,71.7,71.7,0,0,0-3.913,8.179,38.029,38.029,0,0,0-2.27,10.712c-.217,2.088-.684,4.141-1.072,6.206-.091.479-.354.913-.468,1.392-1.084,4.381-3.936,7.6-7.027,10.643-3.4,3.354-6.867,6.628-10.3,9.947-.125.125-.262.251-.548.525-.046-.958-.1-1.711-.114-2.464a73.76,73.76,0,0,0-2.4-17.5c-.125-.479-.217-.958-.3-1.437a.948.948,0,0,1,.068-.5,8.03,8.03,0,0,0,.742-1.551,49.706,49.706,0,0,0,1.335-11.533c-.148-6.411-1.563-12.366-6.263-17.123-1.118-1.129-2.224-2.259-3.217-3.274C117.443,251.98,118.162,252.025,118.869,252.094ZM98.324,269.582a21.958,21.958,0,0,1,8.4-14.83,11.621,11.621,0,0,1,7.906-2.316,1.641,1.641,0,0,1,.924.319c4.061,3.137,7.118,7.016,8.214,12.1a40.807,40.807,0,0,1,.8,7.734c.057,3.228-.194,6.468-.319,9.7-.023.011-.057.011-.08.023-.1-2.167-.228-4.335-.308-6.5a53.566,53.566,0,0,0-2.384-14.887,8.822,8.822,0,0,0-6.628-5.864,6.435,6.435,0,0,0-3.308.217,11.368,11.368,0,0,0-5.681,4c-2.761,3.457-3.8,7.529-4.495,11.761a51.45,51.45,0,0,0-.023,12.355,76.716,76.716,0,0,1-.194,15.423,6.052,6.052,0,0,1-.582-.684,13.864,13.864,0,0,1-2.11-8.658c.3-2.361.673-4.711.867-7.084a7.671,7.671,0,0,0-.354-3.228A18.509,18.509,0,0,1,98.324,269.582Zm48.232,90.178a22.321,22.321,0,0,1-10.415,3.958c-4.46.548-8.83-.308-13.2-1.084-1.472-.262-2.943-.536-4.415-.81-.935-.171-1.859-.445-2.795-.548-1.426-.148-2.27-1.175-3.228-2-.81-.684-1.426-1.6-2.224-2.316a37.665,37.665,0,0,0-3-2.384c-.684-.491-1.437-.776-1.916.274-1.243-.935-2.418-1.848-3.628-2.726a45.16,45.16,0,0,0-9.012-5.076,57.305,57.305,0,0,1-12.161-6.924,4.372,4.372,0,0,1-2-3.114c-.217-1.711-.4-3.434-.6-5.145a1.361,1.361,0,0,0-.1-.536,2.492,2.492,0,0,1,.445-3.263,37.5,37.5,0,0,1,3.331-3.126c.947-.81,2.031-1.483,2.966-2.3,2.35-2.053,2.795-4.358,1.472-7.175-.3-.627-.616-1.243-.97-1.974a8.745,8.745,0,0,0,6.753-2.567,11.441,11.441,0,0,0,2.031-2.59,22.583,22.583,0,0,0,3.023-10.906c0-1.164.057-2.316.091-3.73.183.376.251.548.342.707a31.962,31.962,0,0,0,2.841,4.757,2.565,2.565,0,0,1,.8,2.11,85.112,85.112,0,0,0,.319,14.568,36.8,36.8,0,0,0,2.031,8.339c1.392,4.232,2.7,8.487,4.107,12.72a18.526,18.526,0,0,0,1.323,2.909c.958,1.768,2,3.491,2.008,5.6a4.034,4.034,0,0,0,.24,1.072,3.647,3.647,0,0,0,5.4,2.407c2.932-1.426,5.864-2.875,8.8-4.3,3.5-1.7,6.251-4.358,9.012-7a70.834,70.834,0,0,0,11.624-14.613c1.038-1.723,1.825-3.593,2.738-5.4.684-1.358,1.38-2.7,2.076-4.05.57-1.7,1.027-3.445,1.757-5.076a69.435,69.435,0,0,0,3.856-11.624c.456-1.825,1.255-3.571,1.871-5.35.285-.833.559-1.665.8-2.521a17.022,17.022,0,0,1,3.879-7.483,2.436,2.436,0,0,1,.57-.365,2.875,2.875,0,0,0,.707-.331c.764-.741,1.494-1.517,2.247-2.282.205.205.274.24.274.285-.114,5.122,1.323,9.982,2.681,14.819a11.72,11.72,0,0,1-2.167,10.929c-2.544,3.354-5.921,5.7-9.468,7.86a.922.922,0,0,1-.285.034c.468-1.027.947-2.008,1.346-3.012a3.319,3.319,0,0,0,.023-1.118c-.4.046-.878-.034-1.175.171-1.164.776-2.293,1.608-3.4,2.464-1.129.878-2.2,1.814-3.308,2.715,2.475-1.426,5.145-2.544,7.118-4.746l.262.228c-.559.947-1.118,1.905-1.688,2.852a4.822,4.822,0,0,1-2.624,2.3,1.722,1.722,0,0,0-.319.171c-.491.3-1.164.536-.913,1.278s.924.5,1.494.4c.205-.034.422-.046.742-.091a6.012,6.012,0,0,1-.262.582c-1.643,3.1-3.32,6.194-4.928,9.32-1.734,3.377-2.282,7.05-2.635,10.78-.445,4.8.456,9.434,1.483,14.066a31.651,31.651,0,0,1,.468,3.445A5.594,5.594,0,0,1,146.555,359.76Zm4.392-8.875c-.091-.034-.171-.057-.262-.091a50.618,50.618,0,0,1-1.449-14.123,32.214,32.214,0,0,1,3.742-13.1c1.107-2.076,2.053-4.232,3.091-6.343a6.49,6.49,0,0,1,2.772-2.795c2.031-1.152,3.913-2.59,5.852-3.913a10.8,10.8,0,0,0,1-.833,51.168,51.168,0,0,1-6.331,24.538c-1.962,3.548-3.6,7.267-5.419,10.906C152.978,347.074,151.951,348.968,150.947,350.884Zm79.512-.331a36.126,36.126,0,0,1,2.5,12.058c.011,1.62-.034,3.24-.057,5.008-1.939.171-3.81.4-5.692.5-8.236.422-16.062-1.358-23.694-4.335a206.061,206.061,0,0,1-18.777-8.727c-4.084-2.1-8.236-4.107-12.811-4.791a41.8,41.8,0,0,0-6.662-.171c-2.224.023-4.46.137-6.685.228-1.551.057-3.1.148-4.746.228a2.652,2.652,0,0,1,.08-.4c3.012-5.772,6.1-11.5,9.012-17.317a40.535,40.535,0,0,0,4.586-20.522c-.068-1.369-.023-2.749.034-4.118a1.65,1.65,0,0,1,.445-.844,16.438,16.438,0,0,0,3.924-8.156c.308-2.316-.434-4.472-1.027-6.651-1-3.707-2.008-7.426-2.9-11.168a19.381,19.381,0,0,1-.274-3.559,1.56,1.56,0,0,1,.171-.787c.582-1.072,1.3-2.076,1.791-3.194a30.961,30.961,0,0,0,1.072-3.468,8.109,8.109,0,0,0,5.419,2.11c.707,2.578,1.369,5.145,2.133,7.677,2,6.594,2.829,13.37,3.571,20.192.456,4.244.707,8.59,2.259,12.605,2.5,6.457,5,12.948,9,18.674,1.768,2.521,3.879,4.8,5.875,7.153.331.4.924.57,1.358.89a9.929,9.929,0,0,1,1.62,1.289,4.9,4.9,0,0,0,3.3,1.791,5.378,5.378,0,0,1,1.129.354,2.97,2.97,0,0,0,3.16-.616,1.628,1.628,0,0,1,.662-.434,15.075,15.075,0,0,0,7.7-4.54c1.6-1.723,3.091-3.559,4.632-5.339.091-.114.205-.205.513-.513.023,1.312.878,1.677,1.654,2.076.981.5,2,.924,2.966,1.437a.963.963,0,0,1,.445.753A36.193,36.193,0,0,0,230.459,350.554Zm14.807-62.742c-.741,4.734-1.266,9.5-1.939,14.237a69.549,69.549,0,0,1-10.632,28.337c-.194.3-.422.582-.6.844a37.892,37.892,0,0,0-.684-5.749,78.349,78.349,0,0,0-3.149-9.263,80.015,80.015,0,0,0-4.164-8.339,13.726,13.726,0,0,0-5.419-5.225c-1.1-.616-2.11-1.392-3.274-2.167.023.376.034.627.046.89-.559.4-1.141.821-1.882,1.346a5.233,5.233,0,0,1,2.4-3.285,12.518,12.518,0,0,1,9.309-1.289,25.747,25.747,0,0,1,9.639,4.324,4.457,4.457,0,0,0,1.209.422,5.688,5.688,0,0,0,.274-1.278,5.264,5.264,0,0,0-2.35-4.164,24.328,24.328,0,0,0-10.21-4.1c-.593-.114-1.2-.194-1.985-.319l1.711-1.152a34.475,34.475,0,0,0,7.461-6.331c.114-.137.228-.285.342-.434,1.643-2.167,1.494-3.206-.7-4.757-1.916-1.358-1.928-2.145-.046-3.616.411-.319.833-.616,1.255-.924-.034-.068-.08-.125-.114-.194a22.181,22.181,0,0,0-2.966,1.894,1.655,1.655,0,0,0,.262,2.692,16.952,16.952,0,0,0,1.837,1.038c1.4.764,1.711,1.688.73,2.977a14.886,14.886,0,0,1-2.806,2.989c-2.122,1.6-4.381,3-6.594,4.472a13.271,13.271,0,0,0-1.175.7,6.3,6.3,0,0,0-.8,1,4.808,4.808,0,0,0,1.118.593c1.164.24,2.361.331,3.525.582a22.27,22.27,0,0,1,8.658,3.593,4.126,4.126,0,0,1,1.939,3.536c-5.362-3.206-10.837-5.7-17.408-4.2a4.835,4.835,0,0,1,.148-.947c.81-2.259,1.608-4.54,2.5-6.765.536-1.358,1.255-2.658,1.871-3.981,1.221-2.624,2.361-5.3,3.673-7.883,1.015-2.008,2.247-3.913,3.388-5.864,1.107-1.894,2.316-3.753,3.308-5.7a4.355,4.355,0,0,1,2.418-2.2,4.789,4.789,0,0,0-4.027,2.327c-1.392,2.27-3,4.4-4.335,6.7a48.567,48.567,0,0,0-2.441,5.3c-.616,1.426-1.049,2.932-1.723,4.335-1.4,2.92-2.92,5.784-4.369,8.681-.274.548-.445,1.141-.662,1.7-.468,1.175-.878,2.384-1.426,3.514-.16.331-.707.513-1.107.7-2.989,1.335-4.814,4.974-3.787,7.985a2.355,2.355,0,0,1-.513,2.658,31.924,31.924,0,0,0-1.974,2.84c-.958-1.791-1.814-3.6-2.863-5.3-2.35-3.822-4.666-7.677-7.232-11.351-4.221-6.046-8.02-12.309-10.107-19.416-1.015-3.479-1.586-7.1-2.27-10.655a6.627,6.627,0,0,0-1.335-3.16c-1.415-1.677-2.818-3.365-4.2-5.031.639-.662,1.232-1.232,1.768-1.848.856-.992.719-1.791-.468-2.316a4.694,4.694,0,0,1-1.848-1.243c-.433-.5-1.437-.513-2.179-.776-.376-.125-.707-.365-1.1-.468-1.141-.308-2.282-.627-3.434-.821a11.848,11.848,0,0,0-2.1.068c-.034-.08-.068-.171-.1-.251.821-.388,1.654-.776,2.475-1.175a15.528,15.528,0,0,0,1.951-.97,9.206,9.206,0,0,1,4.381-1.164c1.677-.171,3.354-.285,5.008-.536,2.019-.3,3.673-1.449,5.384-2.441.125-.068.262-.125.525-.251.091,1.164.559,2.167-.057,3.308-1.1,2.008-1.962,4.152-3.1,6.137a9.444,9.444,0,0,0-.73,8.442c.434,1.175.764,2.384,1.175,3.559.627,1.814,1.392,2.339,3.3,2.179a37.621,37.621,0,0,0,10.529-2.681,44.047,44.047,0,0,0,5.921-3.057,9.466,9.466,0,0,0,3.4-3.776,5.591,5.591,0,0,1,1.62-1.939,17.331,17.331,0,0,0,6.742-9.126c.023-.08.091-.16.046-.08,1.8,1.38,3.548,2.875,5.441,4.141a27.507,27.507,0,0,0,8.841,3.445c.947.228,1.894.445,2.829.684a4.437,4.437,0,0,1,2.487,1.768,27.22,27.22,0,0,1,5.236,12.355c.16,1.084.24,2.179.342,3.274.228,2.316.479,4.62.684,6.936A42.156,42.156,0,0,1,245.266,287.811Z" transform="translate(-43.943 -145.82)" fill="#311d48"/>
          <path id="Trazado_883346" data-name="Trazado 883346" d="M109.786,172.468a16.639,16.639,0,0,0,1.723-.947q7.649-5.544,15.263-11.122c.867-.627,1.643-1.369,2.5-2.019.194-.148.525-.1.787-.16a2.162,2.162,0,0,1-.183.8,7.553,7.553,0,0,1-.878.935c-2.966,2.955-5.989,5.864-8.909,8.864-5.156,5.316-10.883,9.879-17.728,12.811a47.632,47.632,0,0,1-6.833,2.031,3.709,3.709,0,0,1-2.806-.228c6.525-.16,11.784-3.32,16.792-7.039A76.293,76.293,0,0,0,121.5,165.03c-.251.171-.513.331-.764.5-3.114,2.167-6.217,4.346-9.331,6.5a9.944,9.944,0,0,1-1.517.856,1.914,1.914,0,0,1-.764,0c.011-.262-.057-.582.068-.764a12.008,12.008,0,0,1,1.369-1.837c1.392-1.46,2.852-2.863,4.266-4.3.719-.73,1.415-1.483,2.122-2.213-.046-.068-.1-.125-.148-.194-.376.228-.753.468-1.129.7-3.559,2.088-7.1,4.2-10.7,6.217a16.4,16.4,0,0,1-3.582,1.38,6.267,6.267,0,0,1-2.4,0c2.852-.388,5.282-1.791,7.712-3.114,3.137-1.7,6.194-3.571,9.309-5.327a6.925,6.925,0,0,1,1.654-.456,5.445,5.445,0,0,1-.707,1.54c-1.574,1.666-3.24,3.251-4.837,4.894-.878.913-1.688,1.882-2.533,2.829A1.861,1.861,0,0,1,109.786,172.468Z" transform="translate(-37.302 -144.074)" fill="#311d48"/>
          <path id="Trazado_883347" data-name="Trazado 883347" d="M109.63,196.678a4.627,4.627,0,0,0,1.529.08A17.566,17.566,0,0,0,115,195.092c8.738-6.057,16.119-13.4,21.036-22.975a2.86,2.86,0,0,0,.365-1.243,14.427,14.427,0,0,0-1.62.7c-1.985,1.141-3.947,2.339-5.932,3.479-1.221.7-2.464,1.358-3.719,1.985a3.809,3.809,0,0,1-1.232.342c-.992.137-1.483-.342-1.278-1.323s.548-1.939.776-2.92a8.189,8.189,0,0,0,.228-1.894c-.011-.9-.548-1.278-1.335-.844-1.061.582-2.008,1.38-3.046,2.019a15.1,15.1,0,0,1-1.734.821c-.057-.114-.125-.228-.183-.342,1.346-.878,2.681-1.791,4.05-2.635.627-.388,1.483-.753,2.031-.137a2.8,2.8,0,0,1,.456,1.916c-.1,1.084-.468,2.145-.662,3.228a7.442,7.442,0,0,0,0,1.426,4.314,4.314,0,0,0,1.46-.183c2.008-1.038,3.981-2.156,5.955-3.24,1.688-.924,3.354-1.882,5.088-2.738a4.627,4.627,0,0,1,1.608-.16,5.381,5.381,0,0,1,.023,1.654,31.538,31.538,0,0,1-5.761,10.05,63.74,63.74,0,0,1-12.845,11.989,18,18,0,0,1-6.548,3.206,3.9,3.9,0,0,1-1.449.1C110.372,197.305,110.063,196.963,109.63,196.678Z" transform="translate(-34.921 -142.446)" fill="#311d48"/>
          <path id="Trazado_883348" data-name="Trazado 883348" d="M93.6,171.758a4.845,4.845,0,0,1,.148-1,3.838,3.838,0,0,1,.525-1.061,89.662,89.662,0,0,1,10.073-12,17.591,17.591,0,0,1,11.419-5.019c.24-.011.491-.023.73-.023a.8.8,0,0,1,.228.091c-4.882.753-8.613,3.536-11.989,6.753-3.251,3.091-6.263,6.445-9.331,9.731A22.744,22.744,0,0,0,93.6,171.758Z" transform="translate(-37.178 -144.858)" fill="#311d48"/>
          <path id="Trazado_883349" data-name="Trazado 883349" d="M169.637,237.538a32.742,32.742,0,0,0-7.255,3.65c-1.7,1.186-3.514,2.224-4.586,4.13-.445.8-1.061,1.517-1.563,2.282a.5.5,0,0,0,.011.491c.125.137.4.285.536.24a2.241,2.241,0,0,0,.924-.548c.673-.707,1.278-1.483,1.928-2.213a7.915,7.915,0,0,1,1.4-1.426,74.458,74.458,0,0,1,7.4-4.723c1.3-.662,3.023-.468,4.563-.639.1-.011.24.16.513.354-.924.354-1.734.582-2.475.947-1.221.6-2.407,1.289-3.593,1.974a16.86,16.86,0,0,0-1.6,1.061,12.965,12.965,0,0,0-1.837,1.494c-1.289,1.38-2.521,2.829-3.765,4.255a3.937,3.937,0,0,0-.627.89,3.225,3.225,0,0,0-.114.89c.3-.1.684-.114.89-.308,1.415-1.38,2.806-2.795,4.2-4.2a5.328,5.328,0,0,1,.684-.741q3.046-2.019,6.126-3.97c.57-.354,1.186-.616,1.791-.913a1.667,1.667,0,0,1,2.042.388,13.136,13.136,0,0,1-1.483,1.255c-1.392.89-2.829,1.7-4.209,2.59a11.041,11.041,0,0,0-1.848,1.494c-1.209,1.209-2.373,2.475-3.559,3.707a5.136,5.136,0,0,0-1.289,3.32c-.456,5.339-2.213,10.016-6.48,13.564a14.668,14.668,0,0,0-5.008,8.02c-.468,1.939-1.358,3.776-2.019,5.681-.9,2.567-1.757,5.133-2.635,7.712-.171.491-.262,1-.468,1.483-2.726,6.308-4.848,12.891-8.259,18.868a63.056,63.056,0,0,1-16.016,18.834,41.673,41.673,0,0,1-5.886,3.3c-2.327,1.278-4.654,2.533-6.982,3.8a7.811,7.811,0,0,1-.958.525c-1.506.57-2.544.114-2.818-1.426-.742-4.175-2.989-7.791-4.187-11.8-1.54-5.179-3.365-10.29-4.517-15.549a55.818,55.818,0,0,1-.947-11.316c-.057-4.552.365-9.1.376-13.655q.017-7.392-.354-14.773a48.153,48.153,0,0,1,.776-12.868,14.834,14.834,0,0,1,4.6-7.791c2.122-1.928,4.643-3,7.575-1.711a8.86,8.86,0,0,1,5.19,6.023,51.706,51.706,0,0,1,1.78,15.526,60.213,60.213,0,0,0,1.084,12.3c.9,4.882,1.221,9.879,1.916,14.819a6.676,6.676,0,0,1-1.951,6.069c-2.053,2.213-3.331,5.156-4.882,7.814-.251.422-.65,1.05.011,1.551.3-.411.627-.8.9-1.221.684-1.072,1.312-2.179,2.008-3.24.217-.331.582-.559.8-.878,3.81-5.556,9.012-9.788,13.78-14.419a73.332,73.332,0,0,0,7.712-8.476,8.368,8.368,0,0,0,1.175-1.962,43.752,43.752,0,0,0,3.217-12.64,31.831,31.831,0,0,1,4.084-14.214c2.27-3.856,4.746-7.552,7.381-11.157.468-.639.9-1.289,1.323-1.951,1.323-2.053,3.411-3.217,5.327-4.563a5.04,5.04,0,0,1,1.848-.741c.741-.16,1.141.262.81.935a11.109,11.109,0,0,1-1.6,2.282c-.753.878-1.974,1.529-2.339,2.521-.627,1.7-2.019,2.3-3.308,3.183a8.274,8.274,0,0,0-1.939,1.666,7.229,7.229,0,0,0-.8,1.951c.251.068.6.285.741.194a6.792,6.792,0,0,0,.867-.935,10.519,10.519,0,0,1,1.506-1.437q3.833-2.481,7.734-4.86a10.315,10.315,0,0,1,5.054-1.118A8.661,8.661,0,0,1,169.637,237.538Z" transform="translate(-36.898 -133.58)" fill="#fd9"/>
          <path id="Trazado_883350" data-name="Trazado 883350" d="M206.3,281.2l1.711-1.152a34.475,34.475,0,0,0,7.461-6.331c.114-.137.228-.285.342-.434,1.643-2.167,1.494-3.206-.7-4.757-1.916-1.358-1.928-2.145-.046-3.616.411-.319.833-.616,1.255-.924-.034-.068-.08-.125-.114-.194a22.18,22.18,0,0,0-2.966,1.894,1.655,1.655,0,0,0,.262,2.692,16.952,16.952,0,0,0,1.837,1.038c1.4.764,1.711,1.688.73,2.977a14.886,14.886,0,0,1-2.806,2.989c-2.122,1.6-4.381,3-6.594,4.472a13.267,13.267,0,0,0-1.175.7,6.3,6.3,0,0,0-.8,1,4.809,4.809,0,0,0,1.118.593c1.164.24,2.361.331,3.525.582A22.27,22.27,0,0,1,218,286.327a4.126,4.126,0,0,1,1.939,3.536c-5.362-3.206-10.837-5.7-17.408-4.2a4.835,4.835,0,0,1,.148-.947c.81-2.259,1.608-4.54,2.5-6.765.536-1.358,1.255-2.658,1.871-3.981,1.221-2.624,2.361-5.3,3.673-7.883,1.015-2.008,2.247-3.913,3.388-5.864,1.107-1.894,2.316-3.753,3.308-5.7a4.355,4.355,0,0,1,2.418-2.2,4.789,4.789,0,0,0-4.027,2.327c-1.392,2.27-3,4.4-4.335,6.7a48.57,48.57,0,0,0-2.441,5.3c-.616,1.426-1.049,2.932-1.723,4.335-1.4,2.92-2.92,5.784-4.369,8.681-.274.548-.445,1.141-.662,1.7-.468,1.175-.878,2.384-1.426,3.514-.16.331-.707.513-1.107.7-2.989,1.335-4.814,4.974-3.787,7.985a2.355,2.355,0,0,1-.513,2.658,31.927,31.927,0,0,0-1.974,2.84c-.958-1.791-1.814-3.6-2.863-5.3-2.35-3.822-4.666-7.677-7.232-11.351-4.221-6.046-8.02-12.309-10.107-19.416-1.015-3.479-1.586-7.1-2.27-10.655a6.627,6.627,0,0,0-1.335-3.16c-1.415-1.677-2.818-3.365-4.2-5.031.639-.662,1.232-1.232,1.768-1.848.856-.992.719-1.791-.468-2.316a4.694,4.694,0,0,1-1.848-1.243c-.434-.5-1.437-.513-2.179-.776-.376-.125-.707-.365-1.1-.468-1.141-.308-2.282-.627-3.434-.821a11.848,11.848,0,0,0-2.1.068c-.034-.08-.068-.171-.1-.251.821-.388,1.654-.776,2.475-1.175a15.528,15.528,0,0,0,1.951-.97,9.206,9.206,0,0,1,4.381-1.164c1.677-.171,3.354-.285,5.008-.536,2.019-.3,3.673-1.449,5.384-2.441.125-.068.262-.125.525-.251.091,1.164.559,2.167-.057,3.308-1.1,2.008-1.962,4.152-3.1,6.137a9.444,9.444,0,0,0-.73,8.442c.434,1.175.764,2.384,1.175,3.559.627,1.814,1.392,2.339,3.3,2.179a37.621,37.621,0,0,0,10.529-2.681,44.047,44.047,0,0,0,5.921-3.057,9.466,9.466,0,0,0,3.4-3.776,5.591,5.591,0,0,1,1.62-1.939A17.33,17.33,0,0,0,204.527,233c.023-.08.091-.16.046-.08,1.8,1.38,3.548,2.875,5.441,4.141a27.507,27.507,0,0,0,8.841,3.445c.947.228,1.894.445,2.829.684a4.437,4.437,0,0,1,2.487,1.768,27.22,27.22,0,0,1,5.236,12.355c.16,1.084.24,2.179.342,3.274.228,2.316.479,4.62.684,6.936a41.847,41.847,0,0,1-.742,10.392c-.741,4.734-1.266,9.5-1.939,14.237a69.549,69.549,0,0,1-10.632,28.337c-.194.3-.422.582-.6.844a37.891,37.891,0,0,0-.684-5.749,78.352,78.352,0,0,0-3.149-9.263,80.015,80.015,0,0,0-4.164-8.339,13.726,13.726,0,0,0-5.419-5.225c-1.1-.616-2.11-1.392-3.274-2.167.023.376.034.627.046.89-.559.4-1.141.821-1.882,1.346a5.233,5.233,0,0,1,2.4-3.285,12.518,12.518,0,0,1,9.309-1.289,25.746,25.746,0,0,1,9.639,4.324,4.457,4.457,0,0,0,1.209.422,5.686,5.686,0,0,0,.274-1.278,5.264,5.264,0,0,0-2.35-4.164,24.327,24.327,0,0,0-10.21-4.1C207.675,281.41,207.071,281.33,206.3,281.2Z" transform="translate(-28.392 -133.977)" fill="#f9bc14"/>
          <path id="Trazado_883351" data-name="Trazado 883351" d="M216.949,227.958c1.289-6.331,2.783-12.628,4.209-18.937,1.141-5.065,2.441-10.084,2.384-15.343-.1-9.32-2.475-17.864-8.316-25.268-1.677-2.122-3.434-4.232-5.989-5.441a22.961,22.961,0,0,0-9.274-2.213c-4.278-.125-8.567.023-12.834.262a25.06,25.06,0,0,0-13.575,4.495,71.842,71.842,0,0,0-7.153,5.864,14.86,14.86,0,0,0-3.582,4.7,44.3,44.3,0,0,0-2.236,7.894c-.365,1.631-.251,3.365-.593,5a2.6,2.6,0,0,0,1.015,2.852,6.535,6.535,0,0,0,4.335,1.449,55.048,55.048,0,0,1,.662-5.544,37.632,37.632,0,0,1,1.791-5.955c.878-2.2,2.008-4.312,3.069-6.434.16-.331.525-.548.8-.821.091.068.183.125.274.194-.1.3-.217.582-.308.878-1.049,3.183-2.282,6.32-3.1,9.571-.684,2.681-.89,5.476-1.312,8.214a1.271,1.271,0,0,0,.935,1.437,6.829,6.829,0,0,1,1.882.4,29.91,29.91,0,0,0,7.073,2.053,29.649,29.649,0,0,1,.217-10.29c.7-3.4,2.955-8.875,4.107-9.4-.091.833-.171,1.517-.228,2.213-.285,3.308-.787,6.628-.787,9.936a66.87,66.87,0,0,0,.935,8.2.842.842,0,0,0,.274.513,28.061,28.061,0,0,0,7.769,3.536c-.376-7.917-.753-15.777-1.118-23.625a5.965,5.965,0,0,1,.468,1.426c.673,2.635,1.415,5.248,2.019,7.906a124.671,124.671,0,0,1,2.51,17.8c.046.559.137,1.038.719,1.255,1.871.707,3.73,1.4,5.772,2.167a96.738,96.738,0,0,0,.662-19.507,20.8,20.8,0,0,1,.9,3.65,74.324,74.324,0,0,1,.365,20.123,100.533,100.533,0,0,1-12.377,37.508c-.1.171-.183.354-.342.673.217-.114.3-.125.342-.183A38.4,38.4,0,0,0,196.78,239.9c.114-.24-.285-.741-.16-.97.183-.308.707-.411.924-.719a5.9,5.9,0,0,0,.57-1.346,72.409,72.409,0,0,0,4.609-21.891,86.682,86.682,0,0,0-.16-15.674c-.068-.548-.16-1.1-.205-1.643-.046-.513-.057-1.027-.08-1.54a82.03,82.03,0,0,1,1.586,10.826,3.514,3.514,0,0,0,.719-.422c.046-.137.08-.274.125-.4a.686.686,0,0,0-.183-.262.783.783,0,0,1,.183.262,1.924,1.924,0,0,1,.479-1,13.858,13.858,0,0,1,3.434-2.179,3.738,3.738,0,0,1,4.882,2.1,8.83,8.83,0,0,1,.81,2.977,16.177,16.177,0,0,1-3.993,11.67,3.829,3.829,0,0,0-.97,2.624q.051,8.812.091,17.625c0,.479-.068.958-.1,1.437a2.085,2.085,0,0,1-.285.091,5.187,5.187,0,0,1-.719-1.723c-.125-3.365-.217-6.731-.171-10.084.034-2.738.285-5.487.422-8.1-1.209.342-2.464.707-3.753,1.084-.24.308-.57,1.061-.856,1.05-1.323-.068-1.323.867-1.506,1.7a68.23,68.23,0,0,1-4.05,12.548c-.1.24-.194.491-.319.81.5.125.947.251,1.392.342,1.164.262,2.339.456,3.479.787.468.137,1.164.479,1.232.821.16.913.867,1.186,1.426,1.654a28.92,28.92,0,0,0,11.6,5.875c.4.1.787.194,1.369.342-.559-2.1-1.027-4.027-1.574-5.921s-1.449-3.742-1.232-5.784C216.139,233.879,216.356,230.879,216.949,227.958Z" transform="translate(-27.844 -143.724)" fill="#1d71b8"/>
          <path id="Trazado_883352" data-name="Trazado 883352" d="M197.76,217.392c.6-.513,1.038-1.1,1.608-1.483.593-.411,1.346-.57,1.974-.947a8.621,8.621,0,0,0,1.768-1.3,17.131,17.131,0,0,0,4.574-8.328,8.746,8.746,0,0,0-.217-5.156,3.007,3.007,0,0,0-4.038-1.962,5.984,5.984,0,0,0-1.825,1.015c-.8.662-1.483,1.449-2.441,2.4.046-.125.08-.251.125-.376a3.513,3.513,0,0,1-.719.422A58.8,58.8,0,0,1,197.76,217.392ZM199.6,205.95a3.125,3.125,0,0,0,1.791-1.837,3.362,3.362,0,0,1,2.076-1.939c1.118-.388,1.894.057,1.894,1.232a18.447,18.447,0,0,1-.411,3.434c-.057.274-.5.479-.764.707-.08-.342-.183-.673-.228-1.015-.046-.468.137-1.107-.1-1.38-.5-.582-1.141-.411-1.631.251-.274.365-.525.741-.867,1.232,1.506,1.437.068,2.441-.57,3.5-.046-.935-.091-1.962-.148-3.1-.376.114-.559.24-.684.194-.274-.091-.73-.251-.741-.422A.953.953,0,0,1,199.6,205.95Z" transform="translate(-22.515 -138.474)" fill="#f7cd65"/>
          <path id="Trazado_883353" data-name="Trazado 883353" d="M209.693,316.259c.023,1.312.878,1.677,1.654,2.076.981.5,2,.924,2.966,1.437a.963.963,0,0,1,.445.753,36.7,36.7,0,0,0,2.327,14.659,36.125,36.125,0,0,1,2.5,12.058c.011,1.62-.034,3.24-.057,5.008-1.939.171-3.81.4-5.692.5-8.236.422-16.062-1.358-23.694-4.335a206.061,206.061,0,0,1-18.777-8.727c-4.084-2.1-8.236-4.107-12.811-4.791a41.8,41.8,0,0,0-6.662-.171c-2.225.023-4.46.137-6.685.228-1.551.057-3.1.148-4.746.228a2.653,2.653,0,0,1,.08-.4c3.012-5.772,6.1-11.5,9.012-17.317a40.535,40.535,0,0,0,4.586-20.522c-.068-1.369-.023-2.749.034-4.118a1.65,1.65,0,0,1,.445-.844,16.439,16.439,0,0,0,3.924-8.156c.308-2.316-.434-4.472-1.027-6.651-1-3.707-2.008-7.426-2.9-11.168a19.381,19.381,0,0,1-.274-3.559,1.56,1.56,0,0,1,.171-.787c.582-1.072,1.3-2.076,1.791-3.194A30.966,30.966,0,0,0,157.378,255a8.109,8.109,0,0,0,5.419,2.11c.719,2.578,1.369,5.145,2.133,7.677,2,6.594,2.829,13.37,3.571,20.192.456,4.244.707,8.59,2.259,12.605,2.5,6.457,5,12.948,9,18.674,1.768,2.521,3.879,4.8,5.875,7.153.331.4.924.57,1.358.89a9.931,9.931,0,0,1,1.62,1.289,4.9,4.9,0,0,0,3.3,1.791,5.377,5.377,0,0,1,1.129.354,2.97,2.97,0,0,0,3.16-.616,1.628,1.628,0,0,1,.662-.433,15.075,15.075,0,0,0,7.7-4.54c1.6-1.723,3.091-3.559,4.632-5.339A3.369,3.369,0,0,1,209.693,316.259Z" transform="translate(-30.581 -130.451)" fill="#f9bc14"/>
          <path id="Trazado_883354" data-name="Trazado 883354" d="M146.955,295.451c2.475-1.426,5.145-2.544,7.118-4.746l.262.228c-.559.947-1.118,1.905-1.688,2.852a4.822,4.822,0,0,1-2.624,2.3,1.72,1.72,0,0,0-.319.171c-.491.3-1.164.536-.913,1.278s.924.5,1.494.4c.205-.034.422-.046.741-.091a6.008,6.008,0,0,1-.262.582c-1.643,3.1-3.32,6.194-4.928,9.32-1.734,3.377-2.282,7.05-2.635,10.78-.445,4.8.456,9.434,1.483,14.066a31.645,31.645,0,0,1,.468,3.445,5.614,5.614,0,0,1-2.533,5.453A22.32,22.32,0,0,1,132.2,345.45c-4.46.548-8.83-.308-13.2-1.084-1.472-.262-2.943-.536-4.415-.81-.935-.171-1.859-.445-2.795-.548-1.426-.148-2.27-1.175-3.228-2-.81-.684-1.426-1.6-2.224-2.316a37.665,37.665,0,0,0-3-2.384c-.684-.491-1.437-.776-1.916.274-1.243-.935-2.418-1.848-3.628-2.726a45.16,45.16,0,0,0-9.012-5.076,57.305,57.305,0,0,1-12.161-6.924,4.372,4.372,0,0,1-2-3.114c-.217-1.711-.4-3.434-.6-5.145a1.361,1.361,0,0,0-.1-.536,2.492,2.492,0,0,1,.445-3.263,37.5,37.5,0,0,1,3.331-3.126c.947-.81,2.031-1.483,2.966-2.3,2.35-2.053,2.795-4.358,1.472-7.175-.3-.627-.616-1.243-.97-1.974a8.745,8.745,0,0,0,6.753-2.567,11.442,11.442,0,0,0,2.031-2.59,22.583,22.583,0,0,0,3.023-10.906c0-1.164.057-2.316.091-3.73.183.376.251.548.342.707a31.962,31.962,0,0,0,2.841,4.757,2.565,2.565,0,0,1,.8,2.11,85.112,85.112,0,0,0,.319,14.568,36.8,36.8,0,0,0,2.031,8.339c1.392,4.232,2.7,8.487,4.107,12.72a18.527,18.527,0,0,0,1.323,2.909c.958,1.768,2,3.491,2.008,5.6a4.034,4.034,0,0,0,.24,1.072,3.647,3.647,0,0,0,5.4,2.407c2.932-1.426,5.864-2.875,8.8-4.3,3.5-1.7,6.251-4.358,9.012-7A70.834,70.834,0,0,0,141.9,304.7c1.038-1.723,1.825-3.593,2.738-5.4.684-1.358,1.38-2.7,2.076-4.05A.686.686,0,0,0,146.955,295.451Z" transform="translate(-40.008 -127.575)" fill="#dedc00"/>
          <path id="Trazado_883355" data-name="Trazado 883355" d="M205.179,293.409a5.317,5.317,0,0,0-2.521-1.711,1.224,1.224,0,0,0-.992.228c-1.415,1.346-2.761,2.784-4.175,4.13-1,.97-2.088,1.848-3.091,2.726.742,2.943,1.506,5.989,2.27,9.035a10.393,10.393,0,0,1-.057,5.6c-.821-2.612-1.734-4.951-2.293-7.381-1.62-7.05-4.928-13.3-8.773-19.325-2.761-4.324-5.544-8.636-8.293-12.971s-4.061-9.274-5.9-13.974a37.134,37.134,0,0,1-1.666-8.054,8.538,8.538,0,0,0-2.019-4.6c-1.141-1.289-2.065-2.772-3.091-4.187a15.389,15.389,0,0,0-5.464,4.6,15.794,15.794,0,0,1-2.122,2.407c-1.221,1.118-1.392,2.578-1.563,4.061a.815.815,0,0,0,.3.6c1.015.73,2.031,1.472,3.114,2.1a2.488,2.488,0,0,0,2.145.388c.342-.114.924.422,1.346.741.091.068-.08.456-.091.707a2.54,2.54,0,0,0,.046.776c.376,1.323.764,2.635,1.186,3.947a93.181,93.181,0,0,1,3.7,14.26c.981,6.126,1.734,12.3,2.966,18.366.992,4.882,3.206,9.423,5.35,13.872a49.29,49.29,0,0,0,8.271,12.389c2.213,2.361,4.4,4.723,7.632,5.727a1.381,1.381,0,0,0,1.825-.513,2.314,2.314,0,0,1,1.107-.639c.365-.148.776-.148,1.152-.262a14.41,14.41,0,0,0,6.582-4.335c3.183-3.685,6.32-7.392,9.5-11.088.205-.24.445-.468.673-.7.114-.867.707-1.015,1.221-1.3C211.727,303.311,209.389,297.892,205.179,293.409Z" transform="translate(-28.474 -132.15)" fill="#f7cd65"/>
          <path id="Trazado_883356" data-name="Trazado 883356" d="M201.325,308.48a1.538,1.538,0,0,1-.125.16c.171.068.354.125.525.194C201.691,308.594,201.588,308.5,201.325,308.48Z" transform="translate(-22.031 -122.923)" fill="#fff"/>
          <path id="Trazado_883357" data-name="Trazado 883357" d="M207.472,302.488c-.148-.536-.319-1.072-.479-1.608-.513.285-1.1.434-1.221,1.3.342-.331.684-.662,1.027-1-.8,3.514-3.559,5.681-5.5,8.362.262.023.365.114.4.354,1.551.57,3.114,1.141,4.677,1.723.833-2.179.833-2.179,1.608-2.247A17.182,17.182,0,0,0,207.472,302.488Z" transform="translate(-22.017 -123.992)" fill="#d3840d"/>
          <path id="Trazado_883358" data-name="Trazado 883358" d="M114.041,211.689c.5,1.586.97,3.023,1.415,4.472a3.34,3.34,0,0,1,.262.958c-.034,1.483-.513,1.859-1.951,1.654a4.04,4.04,0,0,1-3-2.053,5.3,5.3,0,0,0-2.761-2.259,14.2,14.2,0,0,1-8.3-8.761,3.171,3.171,0,0,1-.137-.433c-.491-2.19-.217-2.989,2.521-2.567a9.389,9.389,0,0,1,5.476,2.966c.274.285.593.536.9.8.08-.057.148-.1.228-.16-.068-.285-.148-.57-.251-.97.947.947,1.757,1.848,2.669,2.647a8.8,8.8,0,0,0,2,1.255c.468.228.787.046.81-.593a1.713,1.713,0,0,1,.468-.992c.958-1,.924-1.232-.365-1.734-.137-.057-.274-.125-.536-.251a5.7,5.7,0,0,1,.684-.639,7.687,7.687,0,0,1,4.118-1.517,30.312,30.312,0,0,0,9.982-2.145c.251-.091.513-.171,1.015-.342a11.886,11.886,0,0,1-1.643,2.373c-.627.548-1.529.764-2.35,1.346a3.826,3.826,0,0,0,1.472.068,11.557,11.557,0,0,0,2.829-1.426c1.141-.856,2.11-1.951,3.183-2.9a13.056,13.056,0,0,1,6.4-3.4,8.1,8.1,0,0,1,4.711.5c-.525-.65-1.05-1.289-1.506-1.859,6.115-1.757,9.925-6.537,13.541-11.91.183,1.745.331,3.285.491,4.86a8.06,8.06,0,0,0-5.419,4.289,1.618,1.618,0,0,0-.011.935,9.56,9.56,0,0,1,5.362-3.616c.3,1.1.582,2.133.867,3.16-2.521.331-3.856,2.2-4.882,4.381a3.017,3.017,0,0,0-.24,1.152,2,2,0,0,0,.285.7,2.634,2.634,0,0,0,.7-.422,20.323,20.323,0,0,1,2.647-3c.627-.479,1.723-.331,2.612-.445.068-.011.183.217.251.342.491.81.913,1.666,1.46,2.418,1.255,1.7,1.631,3.742,2.293,5.67a24.791,24.791,0,0,1,1.6,8.784,8.418,8.418,0,0,1-.764,3.445c-.753,1.631-1.289,3.354-1.962,5.008-1.1,2.715-2.681,4.962-5.521,6.16a16.21,16.21,0,0,1-8.727,1.392c-3.685-.525-7.449-.479-11.122-1.061a32.653,32.653,0,0,1-11-3.6,19.533,19.533,0,0,1-4.415-3.776,17.727,17.727,0,0,1-3.924-5.27c-.354-.9-.753-1.791-1.049-2.715C115.182,211.871,115.227,211.86,114.041,211.689Zm-4.517-1.255c-.662-.947-1.221-1.837-1.859-2.669a4.85,4.85,0,0,0-3.685-1.951c-1.289-.091-1.8.5-1.472,1.78.217.821.491,1.631.764,2.441a3.277,3.277,0,0,0,1.962,2.053.793.793,0,0,0,.719-.148.7.7,0,0,0-.091-.7,2.516,2.516,0,0,1-.844-2.339,2.426,2.426,0,0,1,2.692,1.164,1.92,1.92,0,0,0-.365,2.555c.251.365.9.456,1.369.673C107.824,211.084,107.824,211.039,109.523,210.434Zm21.31-4.825a1.588,1.588,0,0,0,2.042,1.141,5.11,5.11,0,0,0,2-1.209,8.188,8.188,0,0,1,6.616-2.955,11.251,11.251,0,0,1,1.974.468c.217.046.525.148.639.046.137-.125.251-.548.16-.639-.468-.479-.947-1.175-1.517-1.289a9.965,9.965,0,0,0-3.342-.046c-1.916.308-3.331,1.6-4.711,2.863C133.594,204.993,132.567,206.065,130.833,205.609Zm19.519-7.974-.137.034a17.745,17.745,0,0,0,.616,1.859c.319.684.856,1.289,1.141,1.985a7.233,7.233,0,0,0,3.65,3.685c.376.194.764.4,1.118.627a1.985,1.985,0,0,1,.821,2.841,6.607,6.607,0,0,1-3.32,3.285,9.06,9.06,0,0,1-4.666.684,4.036,4.036,0,0,0,1.038.57c3.149.981,7.358-1.472,8.031-4.689a2.474,2.474,0,0,0-1.038-2.818,14.286,14.286,0,0,0-1.928-1.038,5.906,5.906,0,0,1-2.977-2.715C151.949,200.487,151.139,199.072,150.351,197.635Zm7.552,14.83c-.148.776.023,1.289.924,1.928.536.388.684.707.24,1.243a1.263,1.263,0,0,0-.057,1.666,1.727,1.727,0,0,1-.046,1.323,8.688,8.688,0,0,1-1.038,1.506c2.122-.411,2.9-1.506,2.167-3.046a1.279,1.279,0,0,1-.023-1.4,1.135,1.135,0,0,0-.262-1.563C159.147,213.56,158.508,212.989,157.9,212.465Z" transform="translate(-36.366 -140.471)" fill="#fd9"/>
          <path id="Trazado_883359" data-name="Trazado 883359" d="M161.858,192.479c.1-.559.205-1.118.331-1.757a8.021,8.021,0,0,0,4.768.639c.205-.046.5.16.707.331a19.209,19.209,0,0,0,9.263,3.7,4.884,4.884,0,0,0,.913.023c.958-.034,1.072-.24.97-1.175a23.458,23.458,0,0,1,.81-9.936c.262,3,.536,6.092.81,9.183.023.274.057.548.08.821a2.766,2.766,0,0,0,1.745,2.555c2,.833,3.97,1.723,5.943,2.6.627.285,1.266.57,1.871.9s1.118.217,1.289-.445a3.856,3.856,0,0,0,.023-1.255c-.148-1.517-.376-3.023-.479-4.54-.148-2.225-.228-4.46-.331-6.685a2.217,2.217,0,0,1,.274-.023c.365,2.795.764,5.59,1.084,8.4.251,2.19.434,4.381.582,6.582a2.588,2.588,0,0,0,1.38,2.133,13.47,13.47,0,0,0,5.43,1.837c.89.114,1.415-.125,1.517-1.072a1.2,1.2,0,0,1,.365-.764c-.091.992-.16,2-.285,2.989a88.84,88.84,0,0,1-2.943,14.237,2.346,2.346,0,0,1-.833,1.061c-.981.73-2.019,1.38-3.023,2.076a46.389,46.389,0,0,1-7.814,4.369,44,44,0,0,1-9.776,3.274c-5.362.97-10.062-.331-13.792-4.483-.947-1.049-1.084-2.418-1.46-3.707a9.945,9.945,0,0,0-1.369-3.354c-2.065-2.658-2.487-5.715-2.59-8.9-.011-.24.023-.491,0-.73-.274-2.829.388-5.578.776-8.339a30.7,30.7,0,0,1,1.3-4.278c.319-1.107.57-2.236.867-3.354.16-.57.376-1.118.616-1.837,1.483,3.114,5.088,4.54,6.9,2.932a17.347,17.347,0,0,1-3.525-.992,17.184,17.184,0,0,1-2.852-2.3c.194-.308.331-.5.456-.7a2.263,2.263,0,0,0,.627-.046,3.265,3.265,0,0,1,3.639.981c.491.5.97,1,1.494,1.551a4.468,4.468,0,0,0-3.65-3.023A6.9,6.9,0,0,0,161.858,192.479Zm-.285,16.758c.114-.034.228-.057.342-.091-.114-.662-.194-1.323-.365-1.974-.673-2.612-.616-3.673,2.008-4.426,3.251-.935,4.917-3.422,6.274-6.24a6.116,6.116,0,0,0,.228-1.05c-.331.274-.468.331-.513.434-1.369,2.966-3.217,5.339-6.685,6.046a3.011,3.011,0,0,0-2.51,2.715c-.091.753-.183,1.506-.3,2.247-.148.935-.023,1.084.913,1.118C161.174,208.439,161.368,208.838,161.573,209.237Zm12.742-10c1.4,1.049,2.795,2.19,4.289,3.183a9.108,9.108,0,0,0,6.867,1.118,2.373,2.373,0,0,0,.707-.411,3.033,3.033,0,0,0-.821-.354,14.992,14.992,0,0,1-3.24-.376,45.92,45.92,0,0,1-5.179-2.487,24.963,24.963,0,0,1-2.3-1.574C174.521,198.639,174.441,198.868,174.315,199.233Zm-13.085,18.321c.684.08,1.312.16,2.1.251a23.281,23.281,0,0,1-1.859-1.688c-1.209-1.4-1.152-1.54.365-2.5a3.215,3.215,0,0,0,1.62-2.053c-.251.023-.4,0-.468.057a24.043,24.043,0,0,0-2.43,2c-.4.411-.89,1.209-.741,1.608a8.79,8.79,0,0,1,.354,3.844c-.08,1.027.764,1.346,1.688.764C161.06,219.2,160.626,218.466,161.231,217.553Zm4.711-7.8a2.365,2.365,0,0,0,.559-.388c.068-.068.011-.388-.091-.479-.833-.707-1.677-1.415-2.555-2.053-.183-.137-.582-.057-.844.034-.125.046-.24.354-.217.536A3.429,3.429,0,0,0,165.942,209.751Zm10.233-12.195c1.506-.068,3.342-.6,4.814-.1s2.555,2.053,3.673,3.023A6.115,6.115,0,0,0,176.175,197.556ZM166.159,210c.89.764,1.859.57,2.167-.251C167.665,209.842,166.992,209.91,166.159,210Z" transform="translate(-28.217 -140.403)" fill="#f7cd65"/>
          <path id="Trazado_883360" data-name="Trazado 883360" d="M118.341,294.954c-.046-.958-.1-1.711-.114-2.464a73.76,73.76,0,0,0-2.4-17.5c-.125-.479-.217-.958-.3-1.437a.947.947,0,0,1,.068-.5,8.031,8.031,0,0,0,.742-1.551,49.706,49.706,0,0,0,1.335-11.533c-.148-6.411-1.563-12.366-6.263-17.123-1.118-1.129-2.224-2.259-3.217-3.274.422.034,1.129.068,1.837.148a7.4,7.4,0,0,0,5.145-1.2c1.586-1.084,3.228-2.1,4.8-3.206a17.6,17.6,0,0,0,1.745-1.574c.878.73,1.825,1.563,2.829,2.327,3.8,2.875,8.214,4.073,12.868,4.666a15.848,15.848,0,0,0,5.909.137,3.134,3.134,0,0,1,.73.011,5.624,5.624,0,0,0,5.27-2.738c.5-.844.981-1.129,1.962-.73-.217.24-.4.491-.627.707a39.627,39.627,0,0,0-6.742,9.229,71.7,71.7,0,0,0-3.913,8.179,38.029,38.029,0,0,0-2.27,10.712c-.217,2.088-.684,4.141-1.072,6.206-.091.479-.354.913-.468,1.392-1.084,4.381-3.936,7.6-7.027,10.643-3.4,3.354-6.867,6.628-10.3,9.947C118.764,294.543,118.638,294.668,118.341,294.954Z" transform="translate(-35.122 -133.444)" fill="#dedc00"/>
          <path id="Trazado_883361" data-name="Trazado 883361" d="M174.1,238.447c.593.183,1.152.525,1.392.376a1.41,1.41,0,0,0,.513-1.209c-.411-2.59-.913-5.168-1.38-7.746-.034-.171-.057-.354-.114-.65,7.084-1.529,14.066-3.24,19.815-8.248-.137.456-.24.81-.354,1.152a129.306,129.306,0,0,1-9.8,22.074c-.262.456-.867,1.049-.16,1.517.684.456,1.061-.262,1.483-.684.627-.616,1.323-1.164,1.894-1.825,1.654-1.951,3.377-3.867,4.86-5.955,1.289-1.8,2.293-3.822,3.445-5.772.593.262,1.255.559,2.008.9a38.921,38.921,0,0,1-6.685,9.183,35.045,35.045,0,0,1-11.18,7.347,9.69,9.69,0,0,1-5.35.046,1.292,1.292,0,0,1-.8-.9c-.1-2.59-.148-5.179-.114-7.78A7.041,7.041,0,0,1,174.1,238.447Z" transform="translate(-25.922 -135.241)" fill="#f7cd65"/>
          <path id="Trazado_883362" data-name="Trazado 883362" d="M137.917,297.318c-.068-.046-.148-.08-.217-.125.57-1.7,1.027-3.445,1.757-5.076a69.438,69.438,0,0,0,3.856-11.624c.456-1.825,1.255-3.571,1.871-5.35.285-.833.559-1.665.8-2.521a17.021,17.021,0,0,1,3.879-7.483,2.436,2.436,0,0,1,.57-.365,2.875,2.875,0,0,0,.707-.331c.764-.741,1.494-1.517,2.247-2.282.205.205.274.24.274.285-.114,5.122,1.323,9.982,2.681,14.819a11.72,11.72,0,0,1-2.167,10.929c-2.544,3.354-5.921,5.7-9.468,7.86a.922.922,0,0,1-.285.034c.468-1.027.947-2.008,1.346-3.012a3.319,3.319,0,0,0,.023-1.118c-.4.046-.878-.034-1.175.171-1.164.776-2.293,1.608-3.4,2.464C140.1,295.47,139.012,296.406,137.917,297.318Z" transform="translate(-30.97 -129.443)" fill="#dedc00"/>
          <path id="Trazado_883363" data-name="Trazado 883363" d="M123.932,234.448a6.933,6.933,0,0,0,.205-1.437,4.466,4.466,0,0,0-.365-1.415,2.106,2.106,0,0,1,.194-2,1.2,1.2,0,0,0,.251-.764c-.16-.616.148-.913.57-1.266.228-.194.24-.662.411-1.221a3.6,3.6,0,0,0,.742-.331,1.894,1.894,0,0,0,.433-.582,6.109,6.109,0,0,0-.627-.125.459.459,0,0,1-.4-.137,10.111,10.111,0,0,1,2.43-.65c3.445-.057,6.89,0,10.324.011,1.472.011,2.932.011,4.4.034.479.011.97.046,1.358.068-.319,1.916-.73,3.753-.89,5.613a25.271,25.271,0,0,0,.114,4.643c.046.445.662.821,1,1.243.251.3.616.593.684.924.046.228-.274.673-.536.81a12.457,12.457,0,0,1-6.32,1.186,35.639,35.639,0,0,1-11.91-3.012,17.831,17.831,0,0,1-2.418-1.415C123.7,234.573,123.818,234.516,123.932,234.448Z" transform="translate(-32.956 -134.745)" fill="#fd9"/>
          <path id="Trazado_883364" data-name="Trazado 883364" d="M117.7,269.144c-.1-2.167-.228-4.335-.308-6.5a53.567,53.567,0,0,0-2.384-14.887,8.822,8.822,0,0,0-6.628-5.864,6.434,6.434,0,0,0-3.308.217,11.368,11.368,0,0,0-5.681,4c-2.761,3.457-3.8,7.529-4.495,11.761a51.45,51.45,0,0,0-.023,12.355,76.717,76.717,0,0,1-.194,15.423,6.052,6.052,0,0,1-.582-.684,13.864,13.864,0,0,1-2.11-8.658c.3-2.361.673-4.711.867-7.084A7.671,7.671,0,0,0,92.5,266a18.359,18.359,0,0,1-.65-9.548,21.958,21.958,0,0,1,8.4-14.83,11.621,11.621,0,0,1,7.906-2.316,1.641,1.641,0,0,1,.924.319c4.061,3.137,7.118,7.016,8.214,12.1a40.807,40.807,0,0,1,.8,7.734c.057,3.228-.194,6.468-.319,9.7C117.746,269.133,117.723,269.144,117.7,269.144Z" transform="translate(-37.47 -132.663)" fill="#3aaa35"/>
          <path id="Trazado_883365" data-name="Trazado 883365" d="M172.69,239.15c.068,2.247.091,4.574.217,6.879.091,1.688.673,2.293,2.3,2.761a9.243,9.243,0,0,0,7.632-.719c2.875-1.734,5.613-3.685,8.4-5.556a3.189,3.189,0,0,0,.662-.639c2.35-2.977,4.8-5.875,6.388-9.366.662-1.46.662-1.46,2.179-1.107.3.068.582.148.924.24a3.654,3.654,0,0,1-.183.536c-1.631,3.1-3.411,6.092-6.354,8.179a7.518,7.518,0,0,0-2.521,2.977,8.563,8.563,0,0,1-3.149,3.388,32.094,32.094,0,0,1-10.929,4.3c-1.278.3-2.59.468-3.879.662a1.341,1.341,0,0,1-1.734-1.141c-.57-2.247-1.278-4.449-1.848-6.7a2.419,2.419,0,0,1,.171-1.472C171.492,241.26,172.131,240.177,172.69,239.15Z" transform="translate(-26.318 -133.8)" fill="#fff"/>
          <path id="Trazado_883366" data-name="Trazado 883366" d="M174.72,228.972a14.908,14.908,0,0,1-5.59,2.3c-2.224.4-4.483.559-6.719.9a21.512,21.512,0,0,0-2.361.627c.787-2.567,1.586-5.191,2.441-7.985a11.949,11.949,0,0,0,5.67,3.331A18.966,18.966,0,0,0,174.72,228.972Z" transform="translate(-27.824 -134.699)" fill="#1d71b8"/>
          <path id="Trazado_883367" data-name="Trazado 883367" d="M115.822,202.1c-.491.331-1.038.65-1.54,1.038-.9.719-.844,1.061.205,1.506.183.08.365.194.513.274-.513.707-.992,1.369-1.608,2.225a22.981,22.981,0,0,1-1.859-1.563,19.835,19.835,0,0,0-7.358-4.837,6.707,6.707,0,0,0-4.152-.171.884.884,0,0,1-.776-.194c-1.038-1.323-2.019-2.681-3.023-4.027a4.918,4.918,0,0,1-.274-.639C102.087,199.942,108.921,201.151,115.822,202.1Z" transform="translate(-36.847 -138.797)" fill="#e2c5c7"/>
          <path id="Trazado_883368" data-name="Trazado 883368" d="M146.9,236.908a2.837,2.837,0,0,1-.171.787c-1.027,1.8-2.783,2.282-4.666,2.669-3.97.833-7.791-.011-11.59-.867-3.365-.753-5.955-2.943-8.293-5.339a6.511,6.511,0,0,1-1.152-2.909c1.084,3.354,3.7,4.974,6.753,6.08a33.826,33.826,0,0,0,9.925,2.43,15.332,15.332,0,0,0,6.217-.878,4.259,4.259,0,0,0,2.669-2.088C146.7,236.84,146.8,236.874,146.9,236.908Z" transform="translate(-33.316 -133.794)" fill="#3aaa35"/>
          <path id="Trazado_883369" data-name="Trazado 883369" d="M150.626,186.665c-.262-1.164-.525-2.3-.764-3.457a.994.994,0,0,1,.068-.6q1.2-2.5,2.418-4.974C152.714,179.706,151.687,184.794,150.626,186.665Z" transform="translate(-29.26 -141.342)" fill="#e7276a"/>
          <path id="Trazado_883370" data-name="Trazado 883370" d="M90.91,185.98c.9.422,1.723.81,2.578,1.209C91.72,187.509,91.115,187.235,90.91,185.98Z" transform="translate(-37.556 -140.167)" fill="#fff"/>
          <path id="Trazado_883371" data-name="Trazado 883371" d="M152.3,237.629c.741-.764,1.312-1.346,1.882-1.939C154.661,236.546,154.4,236.854,152.3,237.629Z" transform="translate(-28.915 -133.169)" fill="#fff"/>
          <path id="Trazado_883372" data-name="Trazado 883372" d="M200.594,209.617c-.046-.935-.091-1.962-.148-3.1-.376.114-.559.24-.684.194-.274-.091-.73-.251-.742-.422-.023-.274.171-.753.4-.833a3.125,3.125,0,0,0,1.791-1.837,3.362,3.362,0,0,1,2.076-1.939c1.118-.388,1.894.057,1.894,1.232a18.448,18.448,0,0,1-.411,3.434c-.057.274-.5.479-.764.707-.08-.342-.183-.673-.228-1.015-.046-.468.137-1.107-.1-1.38-.5-.582-1.141-.411-1.631.251-.274.365-.525.741-.867,1.232C202.671,207.552,201.233,208.567,200.594,209.617Z" transform="translate(-22.338 -137.976)" fill="#311d48"/>
          <path id="Trazado_883373" data-name="Trazado 883373" d="M109.149,207.721c-1.7.6-1.7.662-.821,2.863-.468-.217-1.107-.308-1.369-.673a1.9,1.9,0,0,1,.365-2.555,2.433,2.433,0,0,0-2.692-1.164c.023.878,0,1.734.844,2.339a.728.728,0,0,1,.091.7.793.793,0,0,1-.719.148,3.277,3.277,0,0,1-1.962-2.053c-.274-.81-.559-1.62-.764-2.441-.331-1.278.183-1.871,1.472-1.78a4.832,4.832,0,0,1,3.685,1.951C107.929,205.885,108.488,206.774,109.149,207.721Z" transform="translate(-35.992 -137.758)" fill="#311d48"/>
          <path id="Trazado_883374" data-name="Trazado 883374" d="M126.95,203.487c1.734.456,2.761-.616,3.856-1.608,1.38-1.255,2.795-2.555,4.711-2.863a9.673,9.673,0,0,1,3.342.046c.57.114,1.049.81,1.517,1.289.091.091-.011.513-.16.639-.114.1-.422,0-.639-.046a12.371,12.371,0,0,0-1.974-.468,8.188,8.188,0,0,0-6.616,2.955,5.03,5.03,0,0,1-2,1.209A1.6,1.6,0,0,1,126.95,203.487Z" transform="translate(-32.483 -138.349)" fill="#311d48"/>
          <path id="Trazado_883375" data-name="Trazado 883375" d="M144.154,195.93c.787,1.426,1.608,2.852,2.361,4.289a6,6,0,0,0,2.977,2.715,13.628,13.628,0,0,1,1.928,1.038,2.486,2.486,0,0,1,1.038,2.818c-.684,3.217-4.882,5.658-8.031,4.689a4.037,4.037,0,0,1-1.038-.57,8.943,8.943,0,0,0,4.666-.684,6.607,6.607,0,0,0,3.32-3.285,1.987,1.987,0,0,0-.821-2.841,10.757,10.757,0,0,0-1.118-.627,7.191,7.191,0,0,1-3.65-3.685c-.285-.7-.81-1.3-1.141-1.985a14.2,14.2,0,0,1-.616-1.859A.246.246,0,0,0,144.154,195.93Z" transform="translate(-30.169 -138.766)" fill="#311d48"/>
          <path id="Trazado_883376" data-name="Trazado 883376" d="M150.686,208.93c.6.525,1.243,1.084,1.894,1.643a1.148,1.148,0,0,1,.262,1.563,1.28,1.28,0,0,0,.023,1.4c.742,1.54-.046,2.647-2.167,3.046a9.649,9.649,0,0,0,1.038-1.506,1.677,1.677,0,0,0,.046-1.323,1.251,1.251,0,0,1,.057-1.666c.445-.525.308-.856-.24-1.243C150.709,210.219,150.538,209.717,150.686,208.93Z" transform="translate(-29.148 -136.936)" fill="#311d48"/>
          <path id="Trazado_883377" data-name="Trazado 883377" d="M161.235,207.859c-.205-.4-.4-.8-.616-1.209-.935-.034-1.061-.183-.913-1.118.114-.742.217-1.494.3-2.247a3.011,3.011,0,0,1,2.51-2.715c3.468-.707,5.316-3.08,6.685-6.046.046-.1.194-.16.513-.434a6.121,6.121,0,0,1-.228,1.05c-1.358,2.818-3.023,5.3-6.274,6.24-2.624.753-2.681,1.814-2.008,4.426.171.65.251,1.312.365,1.974C161.463,207.8,161.349,207.825,161.235,207.859Z" transform="translate(-27.879 -139.025)" fill="#311d48"/>
          <path id="Trazado_883378" data-name="Trazado 883378" d="M172.21,197.5c.125-.354.205-.593.308-.9a24.958,24.958,0,0,0,2.3,1.574A47.889,47.889,0,0,0,180,200.661a14.312,14.312,0,0,0,3.24.376,3.033,3.033,0,0,1,.821.354,2.647,2.647,0,0,1-.707.411,9.108,9.108,0,0,1-6.867-1.118C175.016,199.691,173.625,198.551,172.21,197.5Z" transform="translate(-26.112 -138.672)" fill="#311d48"/>
          <path id="Trazado_883379" data-name="Trazado 883379" d="M160.918,214.189c-.6.924-.171,1.643.627,2.282-.913.582-1.768.262-1.688-.764a8.79,8.79,0,0,0-.354-3.844c-.148-.411.342-1.2.741-1.608a25.692,25.692,0,0,1,2.43-2c.068-.057.217-.034.468-.057a3.215,3.215,0,0,1-1.62,2.053c-1.517.958-1.563,1.1-.365,2.5a23.278,23.278,0,0,0,1.859,1.688C162.23,214.337,161.6,214.269,160.918,214.189Z" transform="translate(-27.904 -137.039)" fill="#311d48"/>
          <path id="Trazado_883380" data-name="Trazado 883380" d="M165.26,206.979a3.457,3.457,0,0,1-3.16-2.35c-.023-.171.091-.491.217-.536.262-.091.662-.171.844-.034.878.639,1.723,1.346,2.555,2.053.1.091.16.411.091.479A2.142,2.142,0,0,1,165.26,206.979Z" transform="translate(-27.535 -137.632)" fill="#311d48"/>
          <path id="Trazado_883381" data-name="Trazado 883381" d="M173.84,196.014a6.106,6.106,0,0,1,8.487,2.92c-1.118-.97-2.213-2.521-3.673-3.023S175.346,195.945,173.84,196.014Z" transform="translate(-25.882 -138.861)" fill="#311d48"/>
          <path id="Trazado_883382" data-name="Trazado 883382" d="M161.29,191.539a8.591,8.591,0,0,1,2.122-.559,4.468,4.468,0,0,1,3.65,3.023c-.525-.548-1-1.049-1.494-1.551a3.265,3.265,0,0,0-3.639-.981,2.3,2.3,0,0,1-.627.046A.035.035,0,0,0,161.29,191.539Z" transform="translate(-27.649 -139.463)" fill="#311d48"/>
          <path id="Trazado_883383" data-name="Trazado 883383" d="M165.06,206.861c.833-.091,1.506-.171,2.167-.251C166.919,207.443,165.95,207.625,165.06,206.861Z" transform="translate(-27.118 -137.263)" fill="#311d48"/>
          <path id="Trazado_883384" data-name="Trazado 883384" d="M44.14,354.59H233.781a34.4,34.4,0,0,1-.068-5.6c.114-.878.228-1.711.342-2.612-1.437.171-2.795.365-4.141.491-9.24.844-18.036-.981-26.626-4.3-6.765-2.612-13.336-5.624-19.827-8.841-3.673-1.825-7.392-3.628-11.488-4.164a27.87,27.87,0,0,0-6.753.046,40.994,40.994,0,0,1-8.693-.068c-1.278-.114-2.555-.205-3.833-.285a.591.591,0,0,0-.456.205,3.782,3.782,0,0,0-1.1,2.407,7.526,7.526,0,0,1-3.046,6.194,23.42,23.42,0,0,1-11.59,5.133c-7.369,1.129-14.476-.331-21.458-2.6a10.491,10.491,0,0,1-1.745-.81c-.376-.205-.9-.365-.593-1.015.034-.08-.1-.262-.205-.365-1.494-1.483-2.989-2.977-4.495-4.449-.422-.411-.9-.753-1.358-1.129-.148.114-.125.091-.262.205.445.947.878,1.882,1.392,2.966a5.94,5.94,0,0,0-.662-.536c-1.369-.787-3.514-2.236-4.814-3.137A95.705,95.705,0,0,0,89.2,324.587a37.092,37.092,0,0,1-9.331-6.594c-.308-.285-.81-.342-1.152-.593a3.122,3.122,0,0,1-1.118-1.1c-.548-1.323-.947-2.7-1.38-4.015-9.012,7.54-17.716,15.48-24.595,25.017-2.2,2.053-1.962,2.076-3.411,3.034a8.558,8.558,0,0,0-1.563,1.164c-.1.091,1.118.262,1,.331C47.779,342.007,45.806,348.772,44.14,354.59Z" transform="translate(-44.14 -122.386)" fill="#130e3d"/>
          <path id="Trazado_883385" data-name="Trazado 883385" d="M204.269,269.853c.365-.73.741-1.46,1.1-2.19.673-1.392,1.118-2.909,1.723-4.335.125-.285.251-.582.365-.878L169.92,253.7c.388,2.008.81,4,1.38,5.955.148.513.331,1.015.5,1.529l33.584,5.282Z" transform="translate(-26.434 -130.634)" fill="#fff"/>
          <path id="Trazado_883386" data-name="Trazado 883386" d="M171.827,249.633c-.411-1.186-.742-2.4-1.175-3.559a11,11,0,0,1-.57-2.225c-1.871-.365-3.7-.707-5.441-1.049,1.266,1.517,2.533,3.046,3.822,4.574a6.387,6.387,0,0,1,1.289,2.955c.833.125,1.688.251,2.555.376A5.269,5.269,0,0,1,171.827,249.633Z" transform="translate(-27.177 -132.168)" fill="#fff"/>
          <path id="Trazado_883387" data-name="Trazado 883387" d="M158.222,236.289a31.983,31.983,0,0,1,3.434.821c.034.011.057.023.091.034,3.411.525,7.107,1.084,10.974,1.666.821-1.46,1.517-3.012,2.259-4.517-3.593-.513-7-1.015-10.141-1.483h-.011a9.276,9.276,0,0,0-4.381,1.164,15.52,15.52,0,0,1-1.951.97c-.821.4-1.654.787-2.475,1.175.023.057.046.114.068.16.125.023.251.034.388.057A8.141,8.141,0,0,1,158.222,236.289Z" transform="translate(-28.391 -133.575)" fill="#fff"/>
          <path id="Trazado_883388" data-name="Trazado 883388" d="M199.79,276.37c.228-.57.388-1.164.662-1.7q.838-1.677,1.711-3.354L173.78,265.67a74.558,74.558,0,0,0,4.928,8.51c7.985.992,17.545,2.236,20.9,2.681C199.664,276.69,199.721,276.53,199.79,276.37Z" transform="translate(-25.891 -128.949)" fill="#fff"/>
          <path id="Trazado_883389" data-name="Trazado 883389" d="M192.552,287.425a4.1,4.1,0,0,0-.137-.57c-.981-2.863.627-6.274,3.342-7.757L181.27,277.82c1.985,2.989,3.856,6.057,5.738,9.115Z" transform="translate(-24.837 -127.239)" fill="#fff"/>
          <path id="Trazado_883390" data-name="Trazado 883390" d="M213.191,252.005c-7.666-1.529-16.712-3.308-25.77-5.065a31.767,31.767,0,0,1-3.388,1.62,40.357,40.357,0,0,1-7.963,2.339c14.83,2.122,31.36,4.381,34.657,4.837.764-1.141,1.54-2.27,2.259-3.445C213.065,252.188,213.122,252.1,213.191,252.005Z" transform="translate(-25.569 -131.585)" fill="#fff"/>
          <path id="Trazado_883391" data-name="Trazado 883391" d="M192.734,241.119a4.339,4.339,0,0,0-.684.616c11.134,1.574,21.72,2.966,29.318,3.753a29.757,29.757,0,0,0-2.247-3.536,4.437,4.437,0,0,0-2.487-1.768c-.3-.08-.593-.148-.878-.217-5.624-.73-12.206-1.62-19.1-2.567A16.951,16.951,0,0,1,192.734,241.119Z" transform="translate(-23.319 -132.928)" fill="#fff"/>
          <g id="Grupo_1101499" data-name="Grupo 1101499" transform="translate(170.237 117.597)">
            <path id="Trazado_883392" data-name="Trazado 883392" d="M212.516,249.675a4.242,4.242,0,0,0-2.418,2.2c-.616,1.2-1.3,2.361-2.008,3.514a64.415,64.415,0,0,1,14.214-.9c-.057-.6-.114-1.209-.205-1.8a28.623,28.623,0,0,0-.833-3.707c-3.616-.171-7.495-.1-9.868.878A7.627,7.627,0,0,1,212.516,249.675Z" transform="translate(-191.298 -248.906)" fill="#fff"/>
            <path id="Trazado_883393" data-name="Trazado 883393" d="M208.768,268.374a29.359,29.359,0,0,1-5.088,4.654c5.179,2.339,13.29,6.035,17.887,8.134.342-2.647.684-5.3,1.061-7.951l-13.575-5.19C208.962,268.123,208.859,268.248,208.768,268.374Z" transform="translate(-191.919 -246.215)" fill="#fff"/>
            <path id="Trazado_883394" data-name="Trazado 883394" d="M211.885,311.368c1.038-1.6,1.974-3.228,2.863-4.871-.548-2.418-1.038-4.586-1.186-5.316-.411-1.928-6.753-12.263-11.716-16.393a16.543,16.543,0,0,0-7.392-3.879,4.524,4.524,0,0,0-1.084,1.323c.137.228.3.456.456.684.274-.194.536-.376.787-.559-.011-.274-.023-.513-.046-.89,1.164.776,2.179,1.551,3.274,2.167a13.726,13.726,0,0,1,5.419,5.225,80.012,80.012,0,0,1,4.164,8.339,77.658,77.658,0,0,1,3.149,9.263,36.5,36.5,0,0,1,.684,5.749A10.146,10.146,0,0,0,211.885,311.368Z" transform="translate(-193.37 -244.401)" fill="#fff"/>
            <path id="Trazado_883395" data-name="Trazado 883395" d="M203.971,262.227a.04.04,0,0,1-.011.023c.536.137,1.209.308,2,.525a1.63,1.63,0,0,1,.548-.947,24.728,24.728,0,0,1,2.966-1.894c.034.068.08.125.114.194-.422.308-.844.6-1.255.924-1.027.8-1.472,1.4-1.38,2,4.574,1.221,11.784,3.251,16.575,5.054a30.758,30.758,0,0,0,.171-6.4.145.145,0,0,0-.011-.068c-5.909-1.745-13.963-3.958-17.032-4.084C205.74,259.079,204.793,260.619,203.971,262.227Z" transform="translate(-191.879 -247.689)" fill="#fff"/>
            <path id="Trazado_883396" data-name="Trazado 883396" d="M202.82,261.732c.4-.958.81-1.917,1.255-2.852a8.013,8.013,0,0,0-1.255,2.852Z" transform="translate(-192.04 -247.502)" fill="#fff"/>
            <path id="Trazado_883397" data-name="Trazado 883397" d="M215.108,282.792c0,.023.011.046.011.08a5.825,5.825,0,0,1-.274,1.278,4.457,4.457,0,0,1-1.209-.422A25.392,25.392,0,0,0,204,279.4a13.044,13.044,0,0,0-7.347.365c2.772,1.027,12.126,5.464,16.313,9.286,2.555,2.339,4.255,6.092,5.282,9.115a68.631,68.631,0,0,0,2.464-8.02A34.124,34.124,0,0,0,215.108,282.792Z" transform="translate(-192.908 -244.663)" fill="#fff"/>
            <path id="Trazado_883398" data-name="Trazado 883398" d="M200.918,275.977c-.285-.046-.559-.091-.833-.148a3.054,3.054,0,0,1-.9-.456c-.422-.148-.764-.251-1.027-.342-.411,1.118-.81,2.247-1.209,3.365a4.836,4.836,0,0,0-.148.947c6.571-1.517,12.047.992,17.408,4.2a3.883,3.883,0,0,0-.114-1.061c-.376-.308-.753-.593-1.141-.856A61.386,61.386,0,0,0,200.918,275.977Z" transform="translate(-192.887 -245.229)" fill="#fff"/>
            <path id="Trazado_883399" data-name="Trazado 883399" d="M207.121,270.391a12.571,12.571,0,0,0,2.167-2.167l-6.856-2.624c-.513,1.129-1.015,2.259-1.54,3.377-.376.8-.776,1.586-1.152,2.384.559.24,1.871.821,3.65,1.62C204.645,272.148,205.912,271.3,207.121,270.391Z" transform="translate(-192.473 -246.556)" fill="#fff"/>
          </g>
          <g id="Grupo_1101500" data-name="Grupo 1101500" transform="translate(111.145 124.526)">
            <path id="Trazado_883400" data-name="Trazado 883400" d="M163.557,265.012c-3.411-.935-7.529-2.27-10.917-3.422a18.4,18.4,0,0,0,.274,3.468q.719,3.029,1.529,6.035a78.464,78.464,0,0,0,11.008,2.521A83.3,83.3,0,0,0,163.557,265.012Z" transform="translate(-140.012 -254.049)" fill="#fff"/>
            <path id="Trazado_883401" data-name="Trazado 883401" d="M169.084,293.105a22.01,22.01,0,0,1-.741-2.327c-5.054-1.38-10.564-2.92-14.727-4.118-.217.285-.434.57-.662.856a1.693,1.693,0,0,0-.445.844c-.057,1.369-.1,2.749-.034,4.118.011.274,0,.536.011.8,5.556,1.734,12.446,3.32,18.435,4.517C170.293,296.231,169.688,294.668,169.084,293.105Z" transform="translate(-140.04 -250.52)" fill="#fff"/>
            <path id="Trazado_883402" data-name="Trazado 883402" d="M195.342,319.429a3.011,3.011,0,0,1-3.16.616,5.177,5.177,0,0,0-1.129-.354,4.9,4.9,0,0,1-3.3-1.791,2.771,2.771,0,0,0-.342-.3c-13.792-2.92-28.656-6.092-38.535-8.214-.068.137-.125.274-.194.4-.707,1.415-1.415,2.818-2.145,4.221,17.26,5.658,53.011,12.423,70.363,15.549-.217-.673-.445-1.358-.684-2.031-.491-1.38-.913-2.772-1.266-4.187-4.882-.981-11.784-2.418-19.473-4.038A.716.716,0,0,1,195.342,319.429Z" transform="translate(-140.87 -247.321)" fill="#fff"/>
            <path id="Trazado_883403" data-name="Trazado 883403" d="M155.888,283.276a100.535,100.535,0,0,0,10.917,3c-.16-1.38-.285-2.761-.434-4.141-.205-1.928-.434-3.844-.673-5.761L155.58,275.04a14.606,14.606,0,0,1,.833,5.943A12.648,12.648,0,0,1,155.888,283.276Z" transform="translate(-139.598 -252.156)" fill="#fff"/>
            <path id="Trazado_883404" data-name="Trazado 883404" d="M178.372,309.881a50.193,50.193,0,0,1-2.7-4.346c-7.655-1.551-16.632-3.662-23.671-5.384a41.968,41.968,0,0,1-1.6,5.7c9.411,2.088,21.253,3.936,28.7,5.019C178.862,310.531,178.611,310.212,178.372,309.881Z" transform="translate(-140.327 -248.622)" fill="#fff"/>
            <path id="Trazado_883405" data-name="Trazado 883405" d="M160.823,257.09a8.087,8.087,0,0,1-5.419-2.11c-.3.992-.513,1.939-.844,2.84a55.6,55.6,0,0,0,6.913,1.654C161.256,258.688,161.04,257.889,160.823,257.09Z" transform="translate(-139.741 -254.98)" fill="#fff"/>
            <path id="Trazado_883406" data-name="Trazado 883406" d="M178.816,331.231a172.257,172.257,0,0,0,40.6,9.548c.011-.833.023-1.643.011-2.453,0-.719-.046-1.437-.114-2.145-13.792-1.563-39-8.465-43.212-9.446-3.24-.764-19.792-5.282-31.77-8.4-.924,1.745-1.837,3.491-2.761,5.236A128.339,128.339,0,0,1,178.816,331.231Z" transform="translate(-141.57 -246.061)" fill="#fff"/>
            <path id="Trazado_883407" data-name="Trazado 883407" d="M206.909,312.85a1.012,1.012,0,0,0-.023-.171c-1.7-.913-3.924-2.11-5.932-3.148-1.4,1.643-2.783,3.32-4.244,4.894l-.411.411c3.057.935,7.609,2.316,10.735,3.217A30.38,30.38,0,0,1,206.909,312.85Z" transform="translate(-133.866 -247.301)" fill="#fff"/>
          </g>
        </g>
      </g>
      <g id="Grupo_1087053" data-name="Grupo 1087053" transform="translate(-58.545 2602.364)">
        <g id="Grupo_1087048" data-name="Grupo 1087048" transform="translate(289.982 8562.74) rotate(-30)">
          <path id="Trazado_860050" data-name="Trazado 860050" d="M143.041,152.077s-.02-.061-.034-.094a2.267,2.267,0,0,1-.182-.72.423.423,0,0,0-.4-.4,20.549,20.549,0,0,0-5.28.518c-.437.061-.881.1-1.325.121l-.626.02h-.41v-.081c-.007-.114-.02-.229-.034-.343-.027-.229-.054-.457-.081-.679-.061-.451-.128-.9-.208-1.352-.148-.847-.343-1.688-.572-2.515a20.444,20.444,0,1,0-10.27,1.117c.2,1.829.33,3.659.39,5.495a71.143,71.143,0,0,0-7.715,1.251.414.414,0,0,0-.282.491q.545,3.107,1.09,6.2c.081.457.094,1.043.646,1.17a1.855,1.855,0,0,0,.693-.04c.262-.04.525-.074.787-.114l3.1-.444c1.1-.155,2.193-.316,3.289-.471q.636,3.733,1.278,7.459l.161.942a1.687,1.687,0,0,0,.242.767c.383.531,1.09.323,1.628.235l3.76-.626,4.231-.706a.4.4,0,0,0,.3-.383q-.5-4.106-1.016-8.219a68.774,68.774,0,0,0,7.486-1.278.41.41,0,0,0,.3-.383,29.527,29.527,0,0,0-.841-6.733.422.422,0,0,0-.108-.2Zm-16.411-10.64a14.01,14.01,0,1,1,14.01-14.01A14.026,14.026,0,0,1,126.63,141.436Z" transform="translate(-103.48 -106.98)" fill="#ffe9e9"/>
          <path id="Trazado_860051" data-name="Trazado 860051" d="M139.041,158.077s-.02-.061-.034-.094a2.267,2.267,0,0,1-.182-.72.423.423,0,0,0-.4-.4,20.549,20.549,0,0,0-5.28.518c-.437.061-.881.1-1.325.121l-.626.02h-.41v-.081c-.007-.114-.02-.229-.034-.343-.027-.229-.054-.457-.081-.679-.061-.451-.128-.9-.208-1.352-.148-.847-.343-1.688-.572-2.515a20.444,20.444,0,1,0-10.27,1.117c.2,1.829.33,3.659.39,5.495a71.143,71.143,0,0,0-7.715,1.251.414.414,0,0,0-.282.491q.545,3.107,1.09,6.2c.081.457.094,1.043.646,1.17a1.855,1.855,0,0,0,.693-.04c.262-.04.525-.074.787-.114l3.1-.444c1.1-.155,2.193-.316,3.289-.471q.636,3.733,1.278,7.459l.161.942a1.687,1.687,0,0,0,.242.767c.383.531,1.09.323,1.628.235l3.76-.626,4.231-.706a.4.4,0,0,0,.3-.383q-.5-4.106-1.016-8.219a68.771,68.771,0,0,0,7.486-1.278.41.41,0,0,0,.3-.383,29.527,29.527,0,0,0-.841-6.733.422.422,0,0,0-.108-.2Zm-16.411-10.64a14.01,14.01,0,1,1,14.01-14.01A14.026,14.026,0,0,1,122.63,147.436Z" transform="translate(-102.17 -108.944)" fill="#f3c012"/>
          <path id="Trazado_860052" data-name="Trazado 860052" d="M143.041,152.077s-.02-.061-.034-.094a2.267,2.267,0,0,1-.182-.72.423.423,0,0,0-.4-.4,20.549,20.549,0,0,0-5.28.518c-.437.061-.881.1-1.325.121l-.626.02h-.41v-.081c-.007-.114-.02-.229-.034-.343-.027-.229-.054-.457-.081-.679-.061-.451-.128-.9-.208-1.352-.148-.847-.343-1.688-.572-2.515a20.444,20.444,0,1,0-10.27,1.117c.2,1.829.33,3.659.39,5.495a71.143,71.143,0,0,0-7.715,1.251.414.414,0,0,0-.282.491q.545,3.107,1.09,6.2c.081.457.094,1.043.646,1.17a1.855,1.855,0,0,0,.693-.04c.262-.04.525-.074.787-.114l3.1-.444c1.1-.155,2.193-.316,3.289-.471q.636,3.733,1.278,7.459l.161.942a1.687,1.687,0,0,0,.242.767c.383.531,1.09.323,1.628.235l3.76-.626,4.231-.706a.4.4,0,0,0,.3-.383q-.5-4.106-1.016-8.219a68.774,68.774,0,0,0,7.486-1.278.41.41,0,0,0,.3-.383,29.527,29.527,0,0,0-.841-6.733.422.422,0,0,0-.108-.2Zm-7.277,7.842c-.2.02-.43.168-.4.4q.5,4.116,1.016,8.239c-2.28.377-4.56.76-6.84,1.137-.276.047-.552.094-.821.135a3.291,3.291,0,0,1-.72.087.085.085,0,0,1-.04-.007.343.343,0,0,1-.047-.114,2.83,2.83,0,0,1-.061-.33c-.054-.316-.108-.626-.161-.942-.2-1.19-.4-2.374-.612-3.565l-.693-4.036a.378.378,0,0,0-.289-.276.42.42,0,0,0-.484-.256l-5.8.834c-.5.074-1,.141-1.493.215l-.262.04h-.061a.125.125,0,0,0-.013-.047,1.5,1.5,0,0,1-.027-.155c-.02-.128-.047-.262-.067-.39l-.511-2.906c-.168-.962-.336-1.924-.5-2.879a68.363,68.363,0,0,1,7.567-1.2.414.414,0,0,0,.4-.4c-.061-2.152-.222-4.3-.464-6.437a.419.419,0,0,0-.4-.4.358.358,0,0,0-.161.04,19.482,19.482,0,1,1,9.537-.982v.161a.372.372,0,0,0-.323.484,27.226,27.226,0,0,1,.646,2.751c.081.437.148.881.208,1.325.027.229.054.457.081.679a3.3,3.3,0,0,0,.087.679c.155.484.652.518,1.09.511.471,0,.935-.027,1.4-.067.942-.087,1.87-.269,2.8-.43a11.523,11.523,0,0,1,2.758-.2,3.483,3.483,0,0,0,.235.753.184.184,0,0,0,.061.081v.013a28.748,28.748,0,0,1,.8,6.2,69.248,69.248,0,0,1-7.412,1.238Z" transform="translate(-103.48 -106.98)" fill="#433600"/>
          <path id="Trazado_860053" data-name="Trazado 860053" d="M129.77,144.57a14.01,14.01,0,1,1,14.01-14.01A14.026,14.026,0,0,1,129.77,144.57Zm0-27.058a13.048,13.048,0,1,0,13.048,13.048A13.06,13.06,0,0,0,129.77,117.512Z" transform="translate(-106.62 -110.113)" fill="#433600"/>
        </g>
        <g id="Grupo_1087049" data-name="Grupo 1087049" transform="translate(562.145 8696.188)">
          <path id="Trazado_860054" data-name="Trazado 860054" d="M53.6,161.58a5.662,5.662,0,0,0-3.309.928c-2.327,1.628-2.583,5.152-.693,9.436,4.506,10.19,20.447,20.373,23.325,22.155a91.186,91.186,0,0,0,6.121-17.958c1.729-7.674,1.8-13.579.208-16.64a4.362,4.362,0,0,0-3.343-2.5,7.033,7.033,0,0,0-5.9,1.392c-3.4,2.906-3.444,9.066-3.444,9.127v1.13l-.814-.78a23.453,23.453,0,0,0-9.12-5.8,10.64,10.64,0,0,0-3.033-.484Z" transform="translate(-45.654 -155.923)" fill="#ffe9e9"/>
          <path id="Trazado_860055" data-name="Trazado 860055" d="M49.6,166.58a5.662,5.662,0,0,0-3.309.928c-2.327,1.628-2.583,5.152-.693,9.436,4.506,10.19,20.447,20.373,23.325,22.155a91.186,91.186,0,0,0,6.121-17.958c1.729-7.674,1.8-13.579.208-16.64a4.362,4.362,0,0,0-3.343-2.5,7.033,7.033,0,0,0-5.9,1.392c-3.4,2.906-3.444,9.066-3.444,9.127v1.13l-.814-.78a23.453,23.453,0,0,0-9.12-5.8,10.64,10.64,0,0,0-3.033-.484Z" transform="translate(-44.344 -157.56)" fill="#f3c012"/>
          <path id="Trazado_860056" data-name="Trazado 860056" d="M72.86,194.994l-.451-.262a103.767,103.767,0,0,1-10.136-7.069C55.1,182,50.382,176.686,48.25,171.87c-2.092-4.728-1.708-8.7,1.022-10.607,3.06-2.139,9.107-1.453,15.92,4.742a19.151,19.151,0,0,1,.41-2.637,11.261,11.261,0,0,1,3.316-6.161,7.941,7.941,0,0,1,6.672-1.614,5.313,5.313,0,0,1,4.042,3.006c2.179,4.177,1.137,11.71-.128,17.3a91.091,91.091,0,0,1-6.423,18.644l-.229.464ZM53.133,161.116a5.662,5.662,0,0,0-3.309.928c-2.327,1.628-2.583,5.152-.693,9.436,4.506,10.19,20.447,20.373,23.325,22.155a91.186,91.186,0,0,0,6.121-17.958c1.729-7.674,1.8-13.579.209-16.64a4.362,4.362,0,0,0-3.343-2.5,7.033,7.033,0,0,0-5.9,1.392c-3.4,2.906-3.444,9.066-3.444,9.127v1.13l-.814-.78a23.453,23.453,0,0,0-9.12-5.8,10.64,10.64,0,0,0-3.033-.484Z" transform="translate(-45.186 -155.458)" fill="#433600"/>
        </g>
        <g id="Grupo_1087051" data-name="Grupo 1087051" transform="translate(538.61 8561.541)">
          <path id="Trazado_860057" data-name="Trazado 860057" d="M106.817,264.461s.027-.054.04-.087a2.144,2.144,0,0,1,.343-.619.4.4,0,0,0-.02-.538,19.847,19.847,0,0,0-4.036-3.08c-.35-.242-.679-.5-1.009-.78-.155-.128-.3-.262-.451-.4-.074-.067-.148-.135-.215-.2a.631.631,0,0,1-.067-.067h0c.013-.02.034-.04.047-.061l.2-.262c.135-.175.262-.35.39-.531.256-.356.5-.713.74-1.083.451-.693.861-1.406,1.244-2.132a19.55,19.55,0,1,0-7.91-5.9c-1.056,1.406-2.159,2.778-3.309,4.1a66.236,66.236,0,0,0-6.221-4.15.4.4,0,0,0-.518.161q-1.644,2.532-3.282,5.058c-.242.37-.619.794-.309,1.238a1.953,1.953,0,0,0,.511.424c.209.141.417.289.626.43.821.572,1.641,1.137,2.462,1.708.874.605,1.742,1.211,2.616,1.816q-1.977,3.027-3.962,6.053c-.646-.43-1.3-.861-1.944-1.285a.308.308,0,0,0-.3-.02.4.4,0,0,0-.289-.034.393.393,0,0,0-.256.478q.726,4.066,1.338,8.145c.114.767.229,1.54.336,2.307a.382.382,0,0,0,.047.148.357.357,0,0,0,.37.471,45.872,45.872,0,0,0,8.69-1.486c.794-.215,1.587-.457,2.367-.72a.377.377,0,0,0,.215-.545.362.362,0,0,0,.047-.087.351.351,0,0,0,.027-.141.313.313,0,0,0-.034-.141.394.394,0,0,0-.087-.128l-.081-.061-.047-.02a.389.389,0,0,0-.141-.135,12.959,12.959,0,0,1-2.065-1.4q1.766-2.441,3.531-4.876a66.064,66.064,0,0,0,6.08,3.982.39.39,0,0,0,.457-.081,28.676,28.676,0,0,0,3.8-5.26.35.35,0,0,0,.047-.208ZM96.446,235.392a13.089,13.089,0,0,1,14.266-12.059,2.59,2.59,0,0,1,.33.047,5.49,5.49,0,0,1,4.479,2.28,10.648,10.648,0,0,1,4.533,4.789,12.716,12.716,0,0,1-9.631,18.261c-7.634,1-14.494-5.757-13.976-13.317Z" transform="translate(-76.837 -215.88)" fill="#fffdfd"/>
          <path id="Trazado_860058" data-name="Trazado 860058" d="M99.237,262.871s.027-.054.04-.087a2.144,2.144,0,0,1,.343-.619.4.4,0,0,0-.02-.538,19.847,19.847,0,0,0-4.036-3.08c-.35-.242-.679-.5-1.009-.78-.155-.128-.3-.262-.451-.4-.074-.067-.148-.135-.215-.2a.64.64,0,0,1-.067-.067h0c.013-.02.034-.04.047-.061l.2-.262c.135-.175.262-.35.39-.531.256-.356.5-.713.74-1.083.451-.693.861-1.406,1.244-2.132a19.55,19.55,0,1,0-7.91-5.9c-1.056,1.406-2.159,2.778-3.309,4.1a66.235,66.235,0,0,0-6.221-4.15.4.4,0,0,0-.518.161q-1.644,2.532-3.282,5.058c-.242.37-.619.794-.309,1.238a1.954,1.954,0,0,0,.511.424c.209.141.417.289.626.43.821.572,1.641,1.137,2.462,1.708.874.605,1.742,1.211,2.616,1.816q-1.977,3.027-3.962,6.053c-.646-.43-1.3-.861-1.944-1.285a.308.308,0,0,0-.3-.02.4.4,0,0,0-.289-.034.393.393,0,0,0-.256.478q.726,4.066,1.338,8.145c.114.767.229,1.54.336,2.307a.382.382,0,0,0,.047.148.357.357,0,0,0,.37.471,45.867,45.867,0,0,0,8.69-1.486c.794-.215,1.587-.457,2.367-.72a.377.377,0,0,0,.215-.545.362.362,0,0,0,.047-.087.351.351,0,0,0,.027-.141.312.312,0,0,0-.034-.141.394.394,0,0,0-.087-.128l-.081-.061-.047-.02a.389.389,0,0,0-.141-.135,12.959,12.959,0,0,1-2.065-1.4q1.766-2.441,3.531-4.876a66.058,66.058,0,0,0,6.08,3.982.39.39,0,0,0,.457-.081,28.676,28.676,0,0,0,3.8-5.26.35.35,0,0,0,.047-.208Zm-5.273-28a13.089,13.089,0,0,1,14.266-12.059,2.588,2.588,0,0,1,.33.047,5.49,5.49,0,0,1,4.479,2.28,10.648,10.648,0,0,1,4.533,4.789,12.716,12.716,0,0,1-9.631,18.261c-7.634,1-14.494-5.757-13.976-13.317Z" transform="translate(-74.355 -215.36)" fill="#f3c012"/>
          <g id="Grupo_1087050" data-name="Grupo 1087050" transform="translate(5.098 1.069)">
            <path id="Trazado_860059" data-name="Trazado 860059" d="M106.817,264.461s.027-.054.04-.087a2.144,2.144,0,0,1,.343-.619.4.4,0,0,0-.02-.538,19.847,19.847,0,0,0-4.036-3.08c-.35-.242-.679-.5-1.009-.78-.155-.128-.3-.262-.451-.4-.074-.067-.148-.135-.215-.2a.631.631,0,0,1-.067-.067h0c.013-.02.034-.04.047-.061l.2-.262c.135-.175.262-.35.39-.531.256-.356.5-.713.74-1.083.451-.693.861-1.406,1.244-2.132a19.55,19.55,0,1,0-7.91-5.9c-1.056,1.406-2.159,2.778-3.309,4.1a66.236,66.236,0,0,0-6.221-4.15.4.4,0,0,0-.518.161q-1.644,2.532-3.282,5.058c-.242.37-.619.794-.309,1.238a1.953,1.953,0,0,0,.511.424c.209.141.417.289.626.43.821.572,1.641,1.137,2.462,1.708.874.605,1.742,1.211,2.616,1.816q-1.977,3.027-3.962,6.053c-.646-.43-1.3-.861-1.944-1.285a.308.308,0,0,0-.3-.02.4.4,0,0,0-.289-.034.393.393,0,0,0-.256.478q.726,4.066,1.338,8.145c.114.767.229,1.54.336,2.307a.382.382,0,0,0,.047.148.357.357,0,0,0,.37.471,45.872,45.872,0,0,0,8.69-1.486c.794-.215,1.587-.457,2.367-.72a.377.377,0,0,0,.215-.545.362.362,0,0,0,.047-.087.351.351,0,0,0,.027-.141.313.313,0,0,0-.034-.141.394.394,0,0,0-.087-.128l-.081-.061-.047-.02a.389.389,0,0,0-.141-.135,12.959,12.959,0,0,1-2.065-1.4q1.766-2.441,3.531-4.876a66.064,66.064,0,0,0,6.08,3.982.39.39,0,0,0,.457-.081,28.676,28.676,0,0,0,3.8-5.26.35.35,0,0,0,.047-.208Zm-10.2.753a.382.382,0,0,0-.538.02q-2.028,2.795-4.056,5.6c.02.02.047.04.067.061a.377.377,0,0,0,.1.41,13.681,13.681,0,0,0,2.334,1.628,44.769,44.769,0,0,1-8.071,1.816c-.7.087-1.4.161-2.105.215q-.585-4.086-1.278-8.158l-.282-1.614,1.8,1.19a.292.292,0,0,0,.2.047l.2.121.37-.565c.632-.962,1.264-1.93,1.9-2.892l2.146-3.275a.36.36,0,0,0-.02-.383.388.388,0,0,0-.175-.491l-4.614-3.2-1.184-.821c-.067-.047-.141-.094-.209-.141a.489.489,0,0,0-.047-.04.14.14,0,0,1,.027-.04c.027-.04.054-.087.081-.128.067-.108.141-.215.208-.323L85,251.877c.511-.78,1.016-1.567,1.527-2.347a64.838,64.838,0,0,1,6.073,4.1.388.388,0,0,0,.538-.02q2.038-2.32,3.867-4.816a.394.394,0,0,0-.02-.538.484.484,0,0,0-.141-.081,18.645,18.645,0,1,1,7.318,5.522c-.034.04-.074.074-.108.114a.362.362,0,0,0-.545.128c-.4.8-.854,1.587-1.338,2.347-.229.363-.471.72-.72,1.063-.128.175-.256.356-.39.531a3.334,3.334,0,0,0-.383.531c-.209.444.121.787.424,1.069.33.3.673.592,1.022.868.72.552,1.486,1.029,2.24,1.527a11.138,11.138,0,0,1,2.058,1.661,3.4,3.4,0,0,0-.33.686.229.229,0,0,0-.013.094v.007a27.834,27.834,0,0,1-3.477,4.863,64.7,64.7,0,0,1-6-3.968Z" transform="translate(-81.935 -216.95)" fill="#433600"/>
            <path id="Trazado_860060" data-name="Trazado 860060" d="M110.072,249.309a13.406,13.406,0,1,1,18.947-.679,13.417,13.417,0,0,1-18.947.679Zm17.635-18.953A12.487,12.487,0,1,0,128.34,248a12.507,12.507,0,0,0-.632-17.649Z" transform="translate(-89.75 -219.944)" fill="#433600"/>
          </g>
          <path id="Trazado_860061" data-name="Trazado 860061" d="M110.072,249.309a13.406,13.406,0,1,1,18.947-.679,13.417,13.417,0,0,1-18.947.679Zm17.635-18.953A12.487,12.487,0,1,0,128.34,248a12.507,12.507,0,0,0-.632-17.649Z" transform="translate(-84.652 -218.874)" fill="#433600"/>
        </g>
        <g id="Grupo_1101209" data-name="Grupo 1101209" transform="translate(298.791 8693.805) rotate(-25)">
          <path id="Trazado_860046" data-name="Trazado 860046" d="M54.753,291.729a89.6,89.6,0,0,1-13.512-6.094,1.238,1.238,0,0,0-1.675.3c0,.007-.013.02-.013.027a1.324,1.324,0,0,0-.229.3q-3.027,5.3-6.053,10.586a1.258,1.258,0,0,0-.168.525,4.248,4.248,0,0,0-.5.531c-.948,1.224,1.029,2.589,1.971,1.372.552-.713,1.924-.915,2.731-1.184.5-.168.989-.336,1.486-.5a90.046,90.046,0,0,1,4.755,18.449c-6.517,4.681-10.291,12.94-8.569,20.951,1.809,8.421,8.939,15.12,17.669,15.537a19.448,19.448,0,0,0,5.334-.478,1.341,1.341,0,0,0,.464,0,19.342,19.342,0,0,0,1.426-37.766,14.779,14.779,0,0,0-5.186-.915h-.087q-2.462-9-4.923-18.005a41.6,41.6,0,0,1,4.372-1,1.143,1.143,0,0,0,.673-.356,1.217,1.217,0,0,0,.04-2.273ZM40.729,331.082a1.29,1.29,0,0,0,.652-1.278c-.2-2.764,1.816-5.192,3.74-6.934.787-.706,1.607-1.379,2.428-2.058a1.113,1.113,0,0,0,.874-.047,13.585,13.585,0,1,1-3.275,22.525A13.709,13.709,0,0,1,40.729,331.082Z" transform="translate(-31.055 -284.778)" fill="#ffe9e9"/>
          <path id="Trazado_860047" data-name="Trazado 860047" d="M52.833,297.239a89.6,89.6,0,0,1-13.512-6.094,1.238,1.238,0,0,0-1.675.3c0,.007-.013.02-.013.027a1.324,1.324,0,0,0-.229.3q-3.027,5.3-6.053,10.586a1.259,1.259,0,0,0-.168.525,4.248,4.248,0,0,0-.5.531c-.948,1.224,1.029,2.589,1.971,1.372.552-.706,1.924-.915,2.731-1.184.5-.168.989-.336,1.486-.5a90.046,90.046,0,0,1,4.755,18.449c-6.517,4.681-10.291,12.94-8.569,20.951,1.809,8.421,8.939,15.12,17.669,15.537a19.448,19.448,0,0,0,5.334-.478,1.341,1.341,0,0,0,.464,0A19.342,19.342,0,0,0,57.944,319.8a14.779,14.779,0,0,0-5.186-.915h-.087q-2.462-9-4.923-18.005a41.6,41.6,0,0,1,4.372-1,1.143,1.143,0,0,0,.673-.356,1.217,1.217,0,0,0,.04-2.273ZM38.809,336.592a1.29,1.29,0,0,0,.652-1.278c-.2-2.764,1.816-5.192,3.74-6.934.787-.713,1.607-1.379,2.428-2.058a1.113,1.113,0,0,0,.874-.047A13.585,13.585,0,1,1,43.228,348.8a13.709,13.709,0,0,1-4.419-12.207Z" transform="translate(-30.427 -286.582)" fill="#f3c012"/>
          <path id="Trazado_860048" data-name="Trazado 860048" d="M55.323,291.991c-.282-.168-.565-.33-.847-.491-1.137-.659-2.294-1.3-3.457-1.91-2.334-1.231-4.722-2.381-7.143-3.43-1.359-.585-2.724-1.15-4.109-1.675a.359.359,0,0,0-.41.087.346.346,0,0,0-.424.155,108.371,108.371,0,0,0-6.39,11.373c-.538,1.1-1.049,2.22-1.547,3.343a.4.4,0,0,0,.444.531,43.1,43.1,0,0,0,6.625-2.105l3.592,13.943.969,3.753a21.81,21.81,0,0,0-1.829,1.359A20.472,20.472,0,1,0,54.2,312.2l-3.457-13.324c-.309-1.177-.612-2.361-.921-3.538l4.9-1.412a.435.435,0,0,0,.336-.37.706.706,0,0,0,.915-.794,1.192,1.192,0,0,0-.659-.76Zm-.531,1.143a.36.36,0,0,0-.188-.013c-1.675.484-3.343.962-5.017,1.446a.5.5,0,0,0-.2.108H49.3a.4.4,0,0,0-.33.464l3.545,13.66c.336,1.285.666,2.576,1,3.861a.422.422,0,0,0,.309.323c.007.054.02.108.027.161a19.48,19.48,0,1,1-12.429,4.513c.525-.437,1.069-.841,1.621-1.217a.848.848,0,0,1-.074-.087.346.346,0,0,0,.262.047.4.4,0,0,0,.33-.464l-3.888-15.113c-.282-1.1-.565-2.2-.847-3.3a.409.409,0,0,0-.471-.632,42.178,42.178,0,0,1-6.255,2.1,105.208,105.208,0,0,1,5.6-10.714c.605-1.016,1.238-2.025,1.877-3.027a102.017,102.017,0,0,1,12.867,5.993c.572.316,1.137.639,1.7.962.282.161.565.323.841.491l.121.081a.44.44,0,0,0-.289.35Z" transform="translate(-30.604 -284.456)" fill="#433600"/>
          <path id="Trazado_860049" data-name="Trazado 860049" d="M67.2,360.015a14.011,14.011,0,1,1,1.789-19.734A14.026,14.026,0,0,1,67.2,360.015Zm-17.326-20.79a13.051,13.051,0,1,0,18.382,1.668A13.066,13.066,0,0,0,49.879,339.225Z" transform="translate(-34.945 -301.087)" fill="#433600"/>
        </g>
      </g>
      <g id="Grupo_1101708" data-name="Grupo 1101708" transform="translate(191.808 11131.597)">
        <path id="Trazado_887592" data-name="Trazado 887592" d="M149.172,320.265" transform="translate(-18.533 -38.141)" fill="#eba58e"/>
        <path id="Trazado_887597" data-name="Trazado 887597" d="M28.449,209.389a18.7,18.7,0,0,1-8.907,12.94,18.7,18.7,0,0,1,8.907,12.94,18.7,18.7,0,0,1,8.907-12.94,18.7,18.7,0,0,1-8.907-12.94" transform="translate(264.603 -65.116)" fill="#fff"/>
        <path id="Trazado_887599" data-name="Trazado 887599" d="M297.761,0a24.325,24.325,0,0,1-11.587,16.834,24.325,24.325,0,0,1,11.587,16.834,24.324,24.324,0,0,1,11.587-16.834A24.324,24.324,0,0,1,297.761,0" transform="translate(-42.911 10.919)" fill="#fff"/>
        <path id="Trazado_887600" data-name="Trazado 887600" d="M57.629,14.557A24.325,24.325,0,0,1,46.042,31.391,24.325,24.325,0,0,1,57.629,48.226,24.325,24.325,0,0,1,69.217,31.391,24.325,24.325,0,0,1,57.629,14.557" transform="translate(17.706 76.173)" fill="#fff"/>
        <path id="Trazado_887601" data-name="Trazado 887601" d="M62.336,247.889a12.162,12.162,0,0,1-5.794,8.417,12.162,12.162,0,0,1,5.794,8.417,12.162,12.162,0,0,1,5.794-8.417,12.162,12.162,0,0,1-5.794-8.417" transform="translate(24.587 -94.57)" fill="#fff"/>
        <path id="Trazado_887602" data-name="Trazado 887602" d="M25.3,87.734a12.162,12.162,0,0,1-5.794,8.417,12.162,12.162,0,0,1,5.794,8.417A12.162,12.162,0,0,1,31.1,96.151,12.162,12.162,0,0,1,25.3,87.734" transform="translate(-2.448 -11.009)" fill="#fff"/>
        <path id="Trazado_887603" data-name="Trazado 887603" d="M365.453,205.11a15.775,15.775,0,0,1-7.516,10.918,15.779,15.779,0,0,1,7.516,10.919,15.778,15.778,0,0,1,7.516-10.919,15.775,15.775,0,0,1-7.516-10.918" transform="translate(-79.916 6.669)" fill="#fff"/>
        <path id="Trazado_887604" data-name="Trazado 887604" d="M351.341,28.086A15.775,15.775,0,0,1,343.825,39a15.779,15.779,0,0,1,7.516,10.919A15.778,15.778,0,0,1,358.856,39a15.775,15.775,0,0,1-7.516-10.918" transform="translate(-43.145 -3.524)" fill="#fff"/>
        <path id="Trazado_887605" data-name="Trazado 887605" d="M412.163,148.844a10.273,10.273,0,0,1-4.893,7.107,10.273,10.273,0,0,1,4.893,7.107,10.265,10.265,0,0,1,4.891-7.107,10.265,10.265,0,0,1-4.891-7.107" transform="translate(-85.107 -11.678)" fill="#fff"/>
        <path id="Trazado_887606" data-name="Trazado 887606" d="M98.318,6.765A15.775,15.775,0,0,1,90.8,17.683,15.778,15.778,0,0,1,98.318,28.6a15.778,15.778,0,0,1,7.516-10.919A15.775,15.775,0,0,1,98.318,6.765" transform="translate(-11.394 -0.849)" fill="#fff"/>
      </g>
    </g>
  </g>
</svg>
