<svg xmlns="http://www.w3.org/2000/svg" xmlns:xlink="http://www.w3.org/1999/xlink" width="400" height="407.157" viewBox="0 0 400 407.157">
  <defs>
    <clipPath id="clip-path">
      <rect id="Rect치ngulo_401928" data-name="Rect치ngulo 401928" width="386.158" height="380.157" fill="none"/>
    </clipPath>
  </defs>
  <g id="Grupo_1102010" data-name="Grupo 1102010" transform="translate(7340 -1297)">
    <g id="Rect치ngulo_401926" data-name="Rect치ngulo 401926" transform="translate(-7340 1297)" fill="#420b4c" stroke="#707070" stroke-width="1">
      <rect width="400" height="407" rx="21" stroke="none"/>
      <rect x="0.5" y="0.5" width="399" height="406" rx="20.5" fill="none"/>
    </g>
    <g id="Grupo_1097227" data-name="Grupo 1097227" transform="translate(-7340 1324)" clip-path="url(#clip-path)">
      <g id="Grupo_1097223" data-name="Grupo 1097223" transform="translate(15.754 -36.341)">
        <path id="Trazado_873610" data-name="Trazado 873610" d="M305.16,56.6,310.8,83.054l1.407,6.615,1.46,6.6c1.026,4.387,2.038,8.782,3.171,13.146l.053-.015c-.814-4.44-1.741-8.85-2.661-13.26l-1.46-6.6-1.513-6.592L305.221,56.58l-.053.015Z" transform="translate(-150.124 -13.561)" fill="#fff"/>
        <path id="Trazado_873611" data-name="Trazado 873611" d="M383.71,141.948l22.7,14.72,5.672,3.68,5.7,3.642c3.832,2.38,7.649,4.767,11.542,7.056l.03-.046c-3.71-2.562-7.489-5.026-11.26-7.489l-5.7-3.634-5.733-3.589L383.748,141.91l-.03.046Z" transform="translate(-322.307 -34.014)" fill="#fff"/>
        <path id="Trazado_873612" data-name="Trazado 873612" d="M401.043,285.692l26.451-5.642,6.615-1.407,6.6-1.46c4.387-1.026,8.782-2.038,13.146-3.171l-.015-.053c-4.44.814-8.85,1.741-13.26,2.661l-6.6,1.46-6.592,1.513-26.368,6.037.015.053Z" transform="translate(-359.971 -65.664)" fill="#fff"/>
        <path id="Trazado_873613" data-name="Trazado 873613" d="M346.9,398.152l14.72-22.7,3.68-5.672,3.642-5.7c2.38-3.832,4.767-7.649,7.056-11.542l-.046-.03c-2.562,3.71-5.026,7.489-7.489,11.26l-3.634,5.7-3.589,5.733L346.86,398.114l.046.03Z" transform="translate(-240.933 -84.492)" fill="#fff"/>
        <path id="Trazado_873614" data-name="Trazado 873614" d="M249.432,422.621,243.79,396.17l-1.407-6.615-1.46-6.6c-1.026-4.387-2.038-8.782-3.171-13.146l-.053.015c.814,4.44,1.741,8.85,2.661,13.26l1.46,6.6,1.513,6.592,6.037,26.368.053-.015Z" transform="translate(-31.373 -88.638)" fill="#fff"/>
        <path id="Trazado_873615" data-name="Trazado 873615" d="M160.192,344.747l-22.7-14.72-5.672-3.68-5.7-3.642c-3.832-2.38-7.649-4.767-11.542-7.056l-.03.046c3.71,2.562,7.489,5.026,11.26,7.489l5.7,3.634,5.733,3.589,22.908,14.378.03-.046Z" transform="translate(151.499 -75.657)" fill="#fff"/>
        <path id="Trazado_873616" data-name="Trazado 873616" d="M140.6,206.49l-26.451,5.642-6.615,1.407-6.6,1.46c-4.387,1.026-8.782,2.038-13.146,3.171l.015.053c4.44-.814,8.85-1.741,13.26-2.661l6.6-1.46,6.592-1.513,26.368-6.037-.015-.053Z" transform="translate(191.413 -49.493)" fill="#fff"/>
        <path id="Trazado_873617" data-name="Trazado 873617" d="M202.207,83.34l-14.72,22.7-3.68,5.672-3.642,5.7c-2.38,3.832-4.767,7.649-7.056,11.542l.046.03c2.562-3.71,5.026-7.489,7.489-11.26l3.634-5.7,3.589-5.733,14.378-22.908-.046-.03Z" transform="translate(64.922 -19.975)" fill="#fff"/>
        <path id="Trazado_873618" data-name="Trazado 873618" d="M251.086,55.97l-5.391,26.5L244.342,89.1l-1.3,6.638c-.814,4.433-1.635,8.865-2.342,13.321h.053c1.026-4.379,1.931-8.8,2.851-13.214L244.9,89.2l1.247-6.645,5-26.581h-.053Z" transform="translate(-35.362 -13.415)" fill="#fff"/>
        <path id="Trazado_873619" data-name="Trazado 873619" d="M347.97,85.048,362.9,107.6l3.733,5.642,3.771,5.611c2.562,3.71,5.109,7.428,7.763,11.078l.046-.03c-2.38-3.832-4.858-7.6-7.337-11.367l-3.779-5.611-3.817-5.581L348.016,85.01l-.046.03Z" transform="translate(-243.997 -20.376)" fill="#fff"/>
        <path id="Trazado_873620" data-name="Trazado 873620" d="M401.3,209.553l26.5,5.391,6.622,1.353,6.638,1.3c4.433.814,8.865,1.635,13.321,2.342v-.053c-4.379-1.026-8.8-1.931-13.214-2.851l-6.638-1.293-6.645-1.247-26.581-5v.053Z" transform="translate(-360.714 -50.214)" fill="#fff"/>
        <path id="Trazado_873621" data-name="Trazado 873621" d="M383.028,347.015l22.551-14.933,5.642-3.733,5.611-3.771c3.71-2.562,7.428-5.109,11.078-7.763l-.03-.046c-3.832,2.38-7.6,4.858-11.367,7.337l-5.611,3.779-5.581,3.824-22.33,15.267.03.046Z" transform="translate(-320.317 -75.925)" fill="#fff"/>
        <path id="Trazado_873622" data-name="Trazado 873622" d="M303.913,423.175l5.391-26.5,1.353-6.622,1.3-6.638c.814-4.433,1.635-8.865,2.342-13.321h-.053c-1.026,4.379-1.931,8.8-2.851,13.214l-1.293,6.638-1.247,6.645-5,26.581h.053Z" transform="translate(-146.543 -88.705)" fill="#fff"/>
        <path id="Trazado_873623" data-name="Trazado 873623" d="M200.785,396.671,185.853,374.12l-3.733-5.642-3.771-5.611c-2.562-3.71-5.109-7.428-7.763-11.078l-.046.03c2.38,3.832,4.858,7.6,7.337,11.367l3.779,5.611,3.817,5.581,15.267,22.33.046-.03Z" transform="translate(68.336 -84.319)" fill="#fff"/>
        <path id="Trazado_873624" data-name="Trazado 873624" d="M140.265,283.046l-26.5-5.391-6.622-1.353L100.5,275c-4.433-.814-8.865-1.635-13.321-2.342v.053c4.379,1.026,8.8,1.931,13.214,2.851l6.638,1.293,6.645,1.247,26.581,5v-.053Z" transform="translate(192.236 -65.353)" fill="#fff"/>
        <path id="Trazado_873625" data-name="Trazado 873625" d="M161.1,139.33,138.55,154.263,132.909,158l-5.611,3.771c-3.71,2.562-7.428,5.109-11.078,7.763l.03.046c3.832-2.38,7.6-4.858,11.367-7.337l5.611-3.779,5.581-3.817,22.33-15.267-.03-.046Z" transform="translate(149.282 -33.395)" fill="#fff"/>
        <path id="Trazado_873626" data-name="Trazado 873626" d="M278.158,0l-.205,76.472-.053,38.236.1,19.114.053,9.557.106,9.565h.053l.106-9.565.053-9.557.106-19.114-.061-38.236L278.212,0Z" transform="translate(-90.984)" fill="#fff"/>
        <path id="Trazado_873627" data-name="Trazado 873627" d="M310.42,72.848l53.929,54.218,27,27.075,13.587,13.442,6.8,6.721L418.567,181l.038-.038-6.683-6.835-6.721-6.8L391.758,153.73l-27.082-26.991L310.458,72.81Z" transform="translate(-255.837 -17.452)" fill="#fff"/>
        <path id="Trazado_873628" data-name="Trazado 873628" d="M323.34,247.589l76.473.205,38.236.053,19.114-.1,9.557-.053,9.565-.106v-.053l-9.565-.106-9.557-.053-19.114-.106-38.236.061-76.473.205Z" transform="translate(-323.34 -59.267)" fill="#fff"/>
        <path id="Trazado_873629" data-name="Trazado 873629" d="M309.438,387.975l54.218-53.929,27.075-27,13.442-13.587,6.721-6.8,6.691-6.835-.038-.038-6.835,6.683-6.8,6.721L390.32,306.637l-26.991,27.082L309.4,387.937Z" transform="translate(-254.041 -67.062)" fill="#fff"/>
        <path id="Trazado_873630" data-name="Trazado 873630" d="M276.789,445.655l.205-76.472.053-38.236-.1-19.114-.053-9.557-.106-9.565h-.053l-.106,9.565-.053,9.557-.106,19.114.061,38.236.205,76.472Z" transform="translate(-88.467 -70.158)" fill="#fff"/>
        <path id="Trazado_873631" data-name="Trazado 873631" d="M210.605,386.917,156.676,332.7l-27-27.075L116.09,292.182l-6.8-6.729-6.835-6.683-.038.038,6.683,6.835,6.721,6.8,13.442,13.594,27.082,26.991,54.218,53.929Z" transform="translate(110.309 -66.817)" fill="#fff"/>
        <path id="Trazado_873632" data-name="Trazado 873632" d="M183.575,246.1l-76.473-.205-38.236-.053-19.114.1-9.557.053-9.565.106v.053l9.565.106,9.557.053,19.114.106,38.236-.061,76.473-.205Z" transform="translate(191.922 -58.924)" fill="#fff"/>
        <path id="Trazado_873633" data-name="Trazado 873633" d="M211.587,71.79l-54.218,53.929-27.075,27L116.852,166.3l-6.729,6.8-6.683,6.835.038.038,6.835-6.683,6.8-6.721L130.7,153.128,157.7,126.046l53.929-54.218Z" transform="translate(108.513 -17.207)" fill="#fff"/>
        <path id="Trazado_873634" data-name="Trazado 873634" d="M295.53,18.673,324.3,89.526l14.431,35.408,7.337,17.654,3.665,8.827,3.718,8.8.053-.023-3.528-8.88-3.566-8.873-7.147-17.731-14.53-35.37L295.583,18.65Z" transform="translate(-179.415 -4.47)" fill="#fff"/>
        <path id="Trazado_873635" data-name="Trazado 873635" d="M320.05,152.133,390.5,181.892l35.233,14.834,17.677,7.3,8.835,3.642,8.85,3.6.023-.053-8.774-3.786-8.8-3.748-17.586-7.489-35.286-14.727-70.6-29.386Z" transform="translate(-305.672 -36.451)" fill="#fff"/>
        <path id="Trazado_873636" data-name="Trazado 873636" d="M319.673,322.874l70.854-28.77,35.408-14.431,17.655-7.337,8.827-3.665,8.8-3.718-.023-.053-8.88,3.528-8.873,3.566-17.731,7.147-35.362,14.53-70.7,29.15Z" transform="translate(-305.47 -63.493)" fill="#fff"/>
        <path id="Trazado_873637" data-name="Trazado 873637" d="M294.623,430.489l29.759-70.451,14.834-35.233,7.3-17.677,3.642-8.835,3.6-8.85-.053-.023-3.786,8.774-3.748,8.8-7.489,17.586-14.727,35.286-29.386,70.6Z" transform="translate(-178.941 -69.37)" fill="#fff"/>
        <path id="Trazado_873638" data-name="Trazado 873638" d="M241.324,430.568l-28.77-70.854-14.431-35.408-7.337-17.654-3.665-8.827-3.718-8.8-.053.023,3.528,8.88,3.566,8.873,7.147,17.731,14.53,35.362,29.15,70.7Z" transform="translate(18.057 -69.274)" fill="#fff"/>
        <path id="Trazado_873639" data-name="Trazado 873639" d="M190.609,323.077l-70.451-29.759L84.925,278.485l-17.677-7.3-8.835-3.649-8.85-3.6-.023.053,8.774,3.786,8.8,3.748L84.7,279.017l35.286,14.727,70.6,29.386Z" transform="translate(170.51 -63.263)" fill="#fff"/>
        <path id="Trazado_873640" data-name="Trazado 873640" d="M190.828,152.72l-70.854,28.77L84.566,195.921l-17.655,7.337-8.827,3.665-8.8,3.718.023.053,8.88-3.528,8.873-3.566,17.731-7.147,35.362-14.53,70.7-29.15Z" transform="translate(170.466 -36.605)" fill="#fff"/>
        <path id="Trazado_873641" data-name="Trazado 873641" d="M241.847,18.91,212.089,89.361l-14.834,35.233-7.3,17.677-3.65,8.835-3.6,8.85.053.023,3.786-8.774,3.748-8.8,7.489-17.586,14.727-35.286,29.386-70.6Z" transform="translate(17.968 -4.532)" fill="#fff"/>
      </g>
    </g>
    <g id="Grupo_1097229" data-name="Grupo 1097229" transform="translate(-7276.818 1330.172)">
      <path id="Trazado_873685" data-name="Trazado 873685" d="M114.78,162.617a3.307,3.307,0,1,0,3.307-3.307A3.31,3.31,0,0,0,114.78,162.617Z" transform="translate(142.693 -77.698)" fill="#fff"/>
      <path id="Trazado_873686" data-name="Trazado 873686" d="M133.29,177.689a1.369,1.369,0,1,0,1.369-1.369A1.368,1.368,0,0,0,133.29,177.689Z" transform="translate(113.987 -81.775)" fill="#fff"/>
      <path id="Trazado_873687" data-name="Trazado 873687" d="M114.79,257.525a2.585,2.585,0,1,0,2.585-2.585A2.583,2.583,0,0,0,114.79,257.525Z" transform="translate(144.12 -100.619)" fill="#fff"/>
      <path id="Trazado_873688" data-name="Trazado 873688" d="M114.79,297.205a2.585,2.585,0,1,0,2.585-2.585A2.583,2.583,0,0,0,114.79,297.205Z" transform="translate(144.12 -110.13)" fill="#fff"/>
      <ellipse id="Elipse_5543" data-name="Elipse 5543" cx="2.874" cy="2.874" rx="2.874" ry="2.874" transform="translate(177.017 10.059)" fill="#fff"/>
      <path id="Trazado_873689" data-name="Trazado 873689" d="M259.55,78.425a1.505,1.505,0,1,0,1.505-1.505A1.5,1.5,0,0,0,259.55,78.425Z" transform="translate(-108.544 -57.95)" fill="#fff"/>
      <path id="Trazado_873690" data-name="Trazado 873690" d="M296.95,55.277a3.307,3.307,0,1,0,3.307-3.307A3.31,3.31,0,0,0,296.95,55.277Z" transform="translate(-177.983 -51.97)" fill="#fff"/>
      <ellipse id="Elipse_5544" data-name="Elipse 5544" cx="1.87" cy="1.87" rx="1.87" ry="1.87" transform="translate(49.42 39.08)" fill="#fff"/>
      <ellipse id="Elipse_5545" data-name="Elipse 5545" cx="1.369" cy="1.369" rx="1.369" ry="1.369" transform="translate(29.447 64.368)" fill="#fff"/>
      <path id="Trazado_873691" data-name="Trazado 873691" d="M449.65,115.265a.935.935,0,1,0,.935-.935A.935.935,0,0,0,449.65,115.265Z" transform="translate(-442.039 -66.917)" fill="#fff"/>
      <path id="Trazado_873692" data-name="Trazado 873692" d="M441.33,193.843a3.163,3.163,0,1,0,3.163-3.163A3.16,3.16,0,0,0,441.33,193.843Z" transform="translate(-431.849 -85.217)" fill="#fff"/>
      <path id="Trazado_873693" data-name="Trazado 873693" d="M456.82,226.7a2.015,2.015,0,1,0,2.015-2.015A2.013,2.013,0,0,0,456.82,226.7Z" transform="translate(-456.82 -93.369)" fill="#fff"/>
      <path id="Trazado_873694" data-name="Trazado 873694" d="M445.49,268.991a1.581,1.581,0,1,0,1.581-1.581A1.58,1.58,0,0,0,445.49,268.991Z" transform="translate(-436.009 -103.608)" fill="#fff"/>
      <ellipse id="Elipse_5546" data-name="Elipse 5546" cx="2.015" cy="2.015" rx="2.015" ry="2.015" transform="translate(107.182 241.962)" fill="#fff"/>
      <path id="Trazado_873695" data-name="Trazado 873695" d="M313.59,385.059a.859.859,0,1,0,.859-.859A.858.858,0,0,0,313.59,385.059Z" transform="translate(-202.379 -131.601)" fill="#fff"/>
      <ellipse id="Elipse_5547" data-name="Elipse 5547" cx="1.08" cy="1.08" rx="1.08" ry="1.08" transform="translate(83.186 248.281)" fill="#fff"/>
      <path id="Trazado_873696" data-name="Trazado 873696" d="M288.83,393.141a1.581,1.581,0,1,0,1.581-1.581A1.58,1.58,0,0,0,288.83,393.141Z" transform="translate(-160.238 -133.365)" fill="#fff"/>
      <path id="Trazado_873697" data-name="Trazado 873697" d="M416.66,291.9a.973.973,0,1,0,.973-.973A.975.975,0,0,0,416.66,291.9Z" transform="translate(-384.042 -109.245)" fill="#fff"/>
      <path id="Trazado_873698" data-name="Trazado 873698" d="M405.62,310.9a1.543,1.543,0,1,0,1.543-1.543A1.545,1.545,0,0,0,405.62,310.9Z" transform="translate(-365.749 -113.663)" fill="#fff"/>
      <path id="Trazado_873699" data-name="Trazado 873699" d="M90.59,228.921a1.581,1.581,0,1,0,1.581-1.581A1.58,1.58,0,0,0,90.59,228.921Z" transform="translate(188.727 -94.004)" fill="#fff"/>
    </g>
    <g id="Grupo_1102004" data-name="Grupo 1102004" transform="translate(-7862.166 1263.111)">
      <path id="Trazado_890558" data-name="Trazado 890558" d="M725.94,247.46h0Z" transform="translate(15.495 31.546)" fill="#fff"/>
      <g id="Grupo_1101762" data-name="Grupo 1101762" transform="translate(647.202 120.666)">
        <path id="Trazado_890559" data-name="Trazado 890559" d="M725.94,247.46h0Z" transform="translate(-631.707 -89.119)" fill="none"/>
        <path id="Trazado_890560" data-name="Trazado 890560" d="M688.175,178.326a30.634,30.634,0,0,0,.482-9.947,5.182,5.182,0,0,0-2.881-4.027,8.168,8.168,0,0,0-3.484-.94c-4.292-.229-8.91,2.532-9.452,7.294-.277,2.4-.313,4.823-.35,7.234a10.507,10.507,0,0,0,.567,2.423,15.164,15.164,0,0,1,6.764-.2c1.652.253,3.279.579,4.931.832a10.257,10.257,0,0,0,1.519.012c-.3-.326-.386-.494-.494-.518a43.269,43.269,0,0,0-11.984-1.254c0-1.567-.048-3,.012-4.449a42.88,42.88,0,0,1,.362-5.136,5.3,5.3,0,0,1,3.219-4.172,13.32,13.32,0,0,1,2.568-.916,6.753,6.753,0,0,1,2.64-.072,8.246,8.246,0,0,1,3.943,1.9,3.563,3.563,0,0,1,1.1,2.086c.591,3.882.7,7.764-.711,11.526a.223.223,0,0,0-.024.084c-.036.108.036.265.072.482a.661.661,0,0,0,.1-.072A3,3,0,0,0,688.175,178.326Z" transform="translate(-641.541 -106.406)" fill="none"/>
        <path id="Trazado_890561" data-name="Trazado 890561" d="M721.253,249.371c.711.06,1.435.109,2.146.157,1.374.1,2.737.2,4.111.3a3.8,3.8,0,0,0-1-.386c-1.013-.1-2.038-.169-3.05-.253-1.664-.133-3.328-.253-4.991-.434l-6.884-.76q-5.226-.579-10.429-1.242-.832-.108-1.664-.253c-1.748-.3-3.484-.711-5.233-1.049a1.608,1.608,0,0,1,1.157-.289c1.447.06,2.906.1,4.352.121,4.123.072,8.235.024,12.358-.157,1.809-.072,3.617-.181,5.425-.3,2.291-.157,4.581-.374,6.848-.663a69.737,69.737,0,0,0,10.176-2.038c.952-.265,1.9-.591,2.833-.952,1.23-.47,2.435-.989,3.593-1.567a13.1,13.1,0,0,0,3.05-2.58c.2-.193.06-.76.072-1.145a6.056,6.056,0,0,0-1.049.06c-.193.036-.338.277-.518.362-1.459.723-2.869,1.579-4.377,2.17-.181.072-.35.145-.53.217a56.475,56.475,0,0,1-12.611,2.58c-1.133.109-2.267.2-3.4.277-2.93.193-5.859.313-8.8.41-3.412.121-6.836.193-10.26.313-.687.024-1.374.036-2.062.06-3.943.121-7.9.2-11.839.326-.482.012-.965.06-1.459.109s-.965.121-1.435.2a.579.579,0,0,0-.084,1.121,9.508,9.508,0,0,0,1,.289c.181.036.374.084.555.121,1.531.3,3.074.506,4.594.88,2.484.615,4.991,1.194,7.5,1.676a86.24,86.24,0,0,0,9.971,1.4c.711.048,1.423.109,2.134.169Q716.37,248.985,721.253,249.371Z" transform="translate(-638.907 -91.501)" fill="none"/>
        <path id="Trazado_890562" data-name="Trazado 890562" d="M668.279,122.721a3.453,3.453,0,0,0,.9-.555.989.989,0,0,0-1.423-.506c-1.616.567-3.207,1.218-4.823,1.772a12.328,12.328,0,0,0-2.134.989,25.956,25.956,0,0,0-5.269,4.569,2.409,2.409,0,0,0-.2.627,11.784,11.784,0,0,0,1.242-.567c1.133-.723,2.242-1.483,3.364-2.23.121-.084.241-.157.374-.241A24.2,24.2,0,0,1,668.279,122.721Z" transform="translate(-645.07 -115.014)" fill="none"/>
        <path id="Trazado_890563" data-name="Trazado 890563" d="M732.585,247.59v.326h5.076a.548.548,0,0,1-.4.338c-1.652.241-3.3.494-4.955.735q-2.315.344-4.63.651c-2.532.326-5.076.639-7.608.952-3.34.41-6.667.82-10.007,1.242-.76.1-1.507.193-2.267.3q-3.6.47-7.174.977a13.9,13.9,0,0,0-1.6.482c.856.506,4.521,1.073,8.476,1.483,4.437.458,9.247.711,10.851.458-3.581-.3-7.186-.615-10.8-.916-2.026-.169-4.063-.35-6.1-.518,0-.133-.012-.253-.012-.386q3.129-.271,6.257-.579,6.131-.615,12.237-1.411c4.087-.543,8.174-1.157,12.237-1.869,3.6-.627,7.186-1.338,10.766-2.122.193-.048.4-.084.591-.121h-.567C739.506,247.59,736.045,247.59,732.585,247.59Z" transform="translate(-636.085 -89.093)" fill="none"/>
        <path id="Trazado_890564" data-name="Trazado 890564" d="M675.547,236.963a22.818,22.818,0,0,0-.748,4.3,16.665,16.665,0,0,0,.808-4.557C675.584,236.794,675.572,236.879,675.547,236.963Z" transform="translate(-641.066 -91.33)" fill="none"/>
        <path id="Trazado_890565" data-name="Trazado 890565" d="M671.767,226.058c.422.555.808,1.121,1.194,1.688-1.169-1.929-2.52-3.87-3.93-5.9A48.342,48.342,0,0,0,671.767,226.058Z" transform="translate(-642.253 -94.386)" fill="none"/>
        <path id="Trazado_890566" data-name="Trazado 890566" d="M687.547,328.744c2.52-20.424.482-40.257,7.089-59.824a5.917,5.917,0,0,1-1-.289.579.579,0,0,1,.084-1.121c.482-.072.952-.145,1.435-.2,4.545-14.625-5.7-26.9-11.562-41.016-6.908-16.65-15.071-35.977-19.616-55.412a34.509,34.509,0,0,1,.169,6.7,20.644,20.644,0,0,1-.494,2.689,2.322,2.322,0,0,1-1.712,1.8c-.1-1.845-.241-3.593-.277-5.329a47.2,47.2,0,0,0-4.147-18.3,3.029,3.029,0,0,0-.277-.4c-.422.53-.8,1.061-1.242,1.519a1.053,1.053,0,0,1-1.447.289,1.076,1.076,0,0,1-.265-1.567c.567-.977,1.169-1.941,1.821-2.857a3.587,3.587,0,0,0,.543-3.062,11.46,11.46,0,0,1-.253-2.568c-.036-3.93-.036-7.873-.024-11.8a6.007,6.007,0,0,1,.181-1.6c.217-.8.627-.88,1.387-.494.157,5.088.241,10.079.482,15.071a10.936,10.936,0,0,0,2.146,5.679c.313.458.651.892.989,1.326-1.447-10.381-1.531-20.629.506-30.334-.121.084-.241.157-.374.241-1.121.747-2.23,1.5-3.364,2.23a8.914,8.914,0,0,1-1.242.567c.109-.362.109-.53.2-.627a25.638,25.638,0,0,1,5.269-4.569,61.568,61.568,0,0,1,2.881-8.922c-2.013.35-4,.82-5.992,1.266a11.3,11.3,0,0,0-5.269,2.918,27.717,27.717,0,0,0-6.715,9.778,10.726,10.726,0,0,0-.265,6.51c.386,2.013.94,3.991,1.218,6.016.735,5.269,2.23,10.417,2.279,15.794a17.011,17.011,0,0,0,1.013,5.534c1.736,4.8,2.459,9.8,3.46,14.757,1.411,6.981,2.291,14.022,3.243,21.063a14.093,14.093,0,0,0,.326,1.579c1.254,4.955,2.616,9.886,3.75,14.854a61.8,61.8,0,0,0,3.846,11.454c2.062,4.618,3.846,9.368,6.318,13.781.313.555.627,1.109.94,1.652,1.411,2.025,2.761,3.967,3.93,5.9a25.748,25.748,0,0,1,3.629,7.716,8.207,8.207,0,0,1,.193,4.3,17.221,17.221,0,0,1-.808,4.557c-.157,1.652-.229,3.328-.434,4.979-.711,5.775-1.338,11.55-2.1,17.325-.772,5.823-1.7,11.61-2.508,17.422-1.326,9.657-2.5,19.327-3.942,28.96Q669.125,350.7,666.3,366.7c-2.146,12.249-4.449,24.475-6.7,36.7-1.519,8.259-3.086,16.505-4.63,24.764-.41,2.17-.772,4.34-1.169,6.523-.072.422-.193.82-.3,1.29h-2.134a2.336,2.336,0,0,1,.024.289H674.14C674.309,399.974,683.122,364.624,687.547,328.744Z" transform="translate(-646.82 -116.041)" fill="#e30613"/>
        <path id="Trazado_890567" data-name="Trazado 890567" d="M659.7,154.65a4.76,4.76,0,0,0-.567-.41c.2.6.338,1.037.494,1.459.229.615.446,1.23.639,1.857-.193-.952-.362-1.9-.531-2.869Z" transform="translate(-644.289 -108.29)" fill="#e30613"/>
        <path id="Trazado_890568" data-name="Trazado 890568" d="M702.621,245.607c-2.508-.494-5-1.061-7.5-1.676-1.507-.374-3.062-.579-4.594-.88-.181-.036-.374-.072-.555-.121-6.607,19.568-4.569,39.4-7.089,59.824-4.425,35.88-13.238,71.23-13.395,107.508h16.951c.446-36.4,8.066-72.1,12.093-108.183C700.68,282.873,698.558,264.186,702.621,245.607Z" transform="translate(-642.158 -90.051)" fill="#f9b233"/>
        <path id="Trazado_890569" data-name="Trazado 890569" d="M693.887,243.58a1.719,1.719,0,0,0-1.157.289c1.748.338,3.484.735,5.233,1.049.1-.41.181-.808.277-1.218C696.793,243.677,695.334,243.641,693.887,243.58Z" transform="translate(-637.379 -89.918)" fill="#f9b233"/>
        <path id="Trazado_890570" data-name="Trazado 890570" d="M692.53,259.477a14.573,14.573,0,0,1,1.459-.108c3.943-.121,7.9-.217,11.839-.326.217-.772.434-1.543.675-2.315a38.916,38.916,0,0,0,.868-19.085c-.133.048-.277.109-.422.157.12-.241.217-.47.326-.687-1.857-9.6-6.257-19-9.428-29.068-2.279-7.21-4.726-14.649-7.065-22.208a12.493,12.493,0,0,1-2.93,2.46,7.873,7.873,0,0,1-8.415.362,37.635,37.635,0,0,1-3.894-2.592,10.27,10.27,0,0,1-2.954-3.581,32.6,32.6,0,0,1-3.2-10.791c-.374-2.556-.591-5.136-.82-7.7a1.705,1.705,0,0,0-.832-1.6,6.238,6.238,0,0,1-1.218-1.049c-2.3-2.243-4.581-4.485-6.884-6.728.169.952.338,1.9.531,2.869a31.892,31.892,0,0,1,1.206,5.57c4.545,19.435,12.708,38.774,19.616,55.412C686.827,232.591,697.075,244.853,692.53,259.477Z" transform="translate(-644.184 -108.214)" fill="#f9b233"/>
        <path id="Trazado_890571" data-name="Trazado 890571" d="M662.344,124.546c1.616-.555,3.207-1.206,4.823-1.772a.985.985,0,0,1,1.423.506,3.662,3.662,0,0,1-.9.555,23.991,23.991,0,0,0-7.969,3.87c-2.025,9.705-1.941,19.953-.506,30.334a47.776,47.776,0,0,0,5.57,5.8c.868.784,1.772,1.519,2.689,2.23a4.179,4.179,0,0,0,.952.422c.265-3.34.518-6.583.808-10.176.579.313.964.4,1.085.627a2.724,2.724,0,0,1,.157,1.1c.048,2.628.012,5.269.133,7.9.133,2.906.253,5.823.627,8.7.651,5.016,1.411,10.019,3.593,14.685,1.423,3.05,4.051,4.738,6.932,5.98a4.7,4.7,0,0,0,4.461-.506c1.35-.856,2.869-1.4,4.015-2.616.084-.1.169-.193.241-.289-.169-.555-.338-1.1-.506-1.652-.036.024-.06.048-.1.072-.036-.217-.121-.374-.072-.482a.223.223,0,0,0,.024-.084c-1.543-5.136-3.014-10.308-4.328-15.5a7.253,7.253,0,0,0-2.64.072,13.041,13.041,0,0,0-2.568.916,5.321,5.321,0,0,0-3.219,4.172,45.565,45.565,0,0,0-.362,5.136c-.06,1.435-.012,2.882-.012,4.449a43.223,43.223,0,0,1,11.984,1.254c.121.024.2.2.494.518a10.259,10.259,0,0,1-1.519-.012c-1.64-.253-3.279-.579-4.931-.832a14.83,14.83,0,0,0-6.764.2,10.5,10.5,0,0,1-.567-2.423c.036-2.411.084-4.847.35-7.234.543-4.762,5.148-7.523,9.452-7.294-3.508-14.215-5.751-28.55-4.919-42.391q-2.586-4.25-5.2-8.5a51.583,51.583,0,0,0-3.135-4.3,4.653,4.653,0,0,0-4.087-1.845,33.745,33.745,0,0,0-4.81.531,61.544,61.544,0,0,0-2.882,8.922A11.607,11.607,0,0,1,662.344,124.546Z" transform="translate(-644.488 -116.128)" fill="#f9b233"/>
        <path id="Trazado_890572" data-name="Trazado 890572" d="M710.677,255.581c-3.955-.41-7.62-.977-8.476-1.483a10.322,10.322,0,0,1,1.6-.482c2.387-.338,4.786-.663,7.174-.977.229-1.977.506-3.955.844-5.932-.711-.06-1.423-.108-2.134-.169a83.706,83.706,0,0,1-9.971-1.4c-4.063,18.591-1.929,37.267-4.075,56.473C691.616,337.7,684,373.4,683.55,409.8h10.923c1.893-36.8,9.127-73,13.768-109.509C710.183,285.155,709.3,270.29,710.677,255.581Z" transform="translate(-639.267 -89.597)" fill="#fcea10"/>
        <path id="Trazado_890573" data-name="Trazado 890573" d="M697.347,243.7c-.1.41-.193.808-.277,1.218q.832.145,1.664.253c3.472.446,6.945.844,10.429,1.242q.253-1.429.543-2.857Q703.538,243.831,697.347,243.7Z" transform="translate(-636.486 -89.921)" fill="#fcea10"/>
        <path id="Trazado_890574" data-name="Trazado 890574" d="M685.89,168.291a3.564,3.564,0,0,0-1.1-2.086,8.358,8.358,0,0,0-3.943-1.9c1.3,5.2,2.773,10.381,4.328,15.5C686.589,176.055,686.48,172.173,685.89,168.291Z" transform="translate(-639.822 -106.221)" fill="#fcea10"/>
        <path id="Trazado_890575" data-name="Trazado 890575" d="M701.042,253.144c2.038.169,4.063.35,6.1.518l.145-1.483q-3.129.307-6.257.579C701.03,252.891,701.03,253.024,701.042,253.144Z" transform="translate(-635.672 -88.149)" fill="#fcea10"/>
        <path id="Trazado_890576" data-name="Trazado 890576" d="M698.615,251.176c-.241.772-.47,1.543-.675,2.315.687-.024,1.375-.036,2.062-.06,3.412-.109,6.836-.193,10.26-.314.6-2.447,1.314-4.895,2.17-7.342,3.5-10.007,3.34-19.423,1.736-28.911a40.765,40.765,0,0,0-.965,12.093c.048.76.193,1.507.3,2.291-.868.084-1.121-.35-1.218-.82a14.036,14.036,0,0,1-.338-2.23,38.7,38.7,0,0,1,1.676-14.311c-1.483-7.535-3.725-15.155-5.618-23.233-.711-3-1.447-6.028-2.194-9.042l-.289.543a73.333,73.333,0,0,1,2.954,19.182,59.793,59.793,0,0,1-4,24.053,34.5,34.5,0,0,1-2.676,4.955,3.618,3.618,0,0,1-2.291,1.748A39.073,39.073,0,0,1,698.615,251.176Z" transform="translate(-636.307 -102.661)" fill="#fcea10"/>
        <path id="Trazado_890577" data-name="Trazado 890577" d="M681.489,170.639a8.344,8.344,0,0,1,3.484.94,5.137,5.137,0,0,1,2.882,4.027,30.62,30.62,0,0,1-.482,9.947,2.919,2.919,0,0,1-1.145,2.17c.169.555.338,1.1.506,1.652a5.191,5.191,0,0,0,1.169-2.182,58,58,0,0,0,1.447-17c-.265-4.2-.518-8.391-.8-12.575a25.858,25.858,0,0,0-.338-2.725c-.47-2.652-.844-5.329-1.507-7.921a21.19,21.19,0,0,0-2.122-5.377q-3.961-6.709-8.018-13.334C675.738,142.089,677.98,156.424,681.489,170.639Z" transform="translate(-640.738 -113.633)" fill="#fcea10"/>
        <path id="Trazado_890578" data-name="Trazado 890578" d="M701.953,234.3a11.085,11.085,0,0,1,.615-1.194c3.364-5.413,4.919-11.442,6.016-17.615,1.724-9.705.94-19.314-1.206-28.863-.1-.41-.253-.8-.386-1.194-4.461,2.182-8.644,1.6-12.732-.723a5.723,5.723,0,0,1-2.8-3.581,58.893,58.893,0,0,1-1.555-9.718c-.109-1.013-.277-2.013-.446-3.183-.531,2.93-1.025,5.667-1.519,8.4-.084.47-.253.94-.313,1.423a9.051,9.051,0,0,1-2.17,4.979c2.339,7.559,4.786,15,7.065,22.208C695.7,215.311,700.1,224.715,701.953,234.3Z" transform="translate(-638.874 -105.413)" fill="#fcea10"/>
        <path id="Trazado_890579" data-name="Trazado 890579" d="M715.107,143.692a7.36,7.36,0,0,0,.048,1.929,27.946,27.946,0,0,0,2.363,7.1q-.995-5.407-1.76-10.742A2.8,2.8,0,0,0,715.107,143.692Z" transform="translate(-632.785 -110.811)" fill="#95c11f"/>
        <path id="Trazado_890580" data-name="Trazado 890580" d="M721.254,251.01q-6.113.814-12.237,1.411l-.145,1.483c3.617.314,7.234.615,10.8.916-1.616.253-6.414,0-10.851-.458-1.374,14.709-.506,29.575-2.435,44.73-4.642,36.507-11.876,72.7-13.768,109.509h8.7c3.689-38.038,10.851-75.594,16.336-113.391C719.856,280.03,719.47,265.442,721.254,251.01Z" transform="translate(-637.401 -88.389)" fill="#95c11f"/>
        <path id="Trazado_890581" data-name="Trazado 890581" d="M708.574,252.07c3.34-.422,6.667-.832,10.007-1.242.157-1.157.313-2.315.506-3.472-.711-.048-1.435-.108-2.146-.157l-9.778-.76c-.338,1.977-.615,3.955-.844,5.932C707.067,252.275,707.815,252.167,708.574,252.07Z" transform="translate(-634.584 -89.329)" fill="#95c11f"/>
        <path id="Trazado_890582" data-name="Trazado 890582" d="M713.058,243.425c-1.808.121-3.617.229-5.425.3q-.289,1.429-.543,2.857c2.291.253,4.594.518,6.884.76,1.664.181,3.328.3,4.991.434.277-1.676.579-3.352.928-5.028C717.639,243.051,715.361,243.268,713.058,243.425Z" transform="translate(-634.426 -90.088)" fill="#95c11f"/>
        <path id="Trazado_890583" data-name="Trazado 890583" d="M712.272,215.559a37.836,37.836,0,0,1,2.882-6.7,80.141,80.141,0,0,1,13.142-18c-.675-4.015-1.447-8.114-2.218-12.322-.169-.892-.326-1.784-.494-2.664a15.072,15.072,0,0,1-8.343,2.845c-5.3.241-6.5-1.845-7.487-5.245-1.772,3.291-3.508,6.486-5.293,9.814q1.121,4.539,2.194,9.042C708.547,200.392,710.79,208.024,712.272,215.559Z" transform="translate(-634.966 -104.335)" fill="#95c11f"/>
        <path id="Trazado_890584" data-name="Trazado 890584" d="M710.32,244.1c-.856,2.447-1.567,4.895-2.17,7.342,2.93-.1,5.871-.217,8.8-.41,1.133-.072,2.267-.169,3.4-.277a84.676,84.676,0,0,1,4.159-12.768c6.908-16.493,6.052-31.733,3.4-48.226a70.977,70.977,0,0,0-6.535,7.716,105.835,105.835,0,0,0-5.992,9.392,31.645,31.645,0,0,0-3.34,8.319C713.66,224.688,713.816,234.092,710.32,244.1Z" transform="translate(-634.208 -100.985)" fill="#95c11f"/>
        <path id="Trazado_890585" data-name="Trazado 890585" d="M717.975,243.268c-.35,1.676-.663,3.352-.928,5.028,1.013.072,2.038.157,3.05.253a4.277,4.277,0,0,1,1,.386h0c-1.375-.1-2.737-.2-4.111-.3q-.271,1.736-.506,3.472c2.532-.313,5.076-.627,7.608-.952q2.315-.307,4.63-.651c.6-3.412,1.338-6.812,2.267-10.212-.94.35-1.881.675-2.833.952A74.858,74.858,0,0,1,717.975,243.268Z" transform="translate(-632.495 -90.594)" fill="#36a9e1"/>
        <path id="Trazado_890586" data-name="Trazado 890586" d="M732.007,249.46c-4.063.711-8.15,1.326-12.237,1.869-1.784,14.432-1.4,29.02-3.593,44.2-5.474,37.8-12.647,75.353-16.336,113.391h10.369c4.823-39.364,11.273-78.488,17.024-117.72C729.4,276.322,729.74,262.794,732.007,249.46Z" transform="translate(-635.917 -88.708)" fill="#36a9e1"/>
        <path id="Trazado_890587" data-name="Trazado 890587" d="M737.076,150.786a23.943,23.943,0,0,1-11.755-1.278,2.273,2.273,0,0,1-1.507-1.772c-.241-1.109-.386-2.23-.687-3.316-.338-1.218-.8-2.411-1.278-3.81-1.748.326-3.34.579-4.895.928a2.466,2.466,0,0,0-1.314.735c.506,3.569,1.109,7.149,1.76,10.742a14.639,14.639,0,0,0,3.533,4.473c2.459,2.1,4.895,4.232,7.318,6.366a15.913,15.913,0,0,0,2.375,1.157c.663.422,1.145,1.182,1.941,1.591a31.542,31.542,0,0,0,9.054,2.785,26.693,26.693,0,0,0,3.388.362c-1.242-7.125-2.7-14.034-4.051-20.809A7.26,7.26,0,0,1,737.076,150.786Z" transform="translate(-632.667 -111.093)" fill="#36a9e1"/>
        <path id="Trazado_890588" data-name="Trazado 890588" d="M724.691,192.034c.253-.253.494-.518.747-.76a59.3,59.3,0,0,1,18.085-11.96c.531-.229,1.061-.482,1.411-.627.181-1.133.338-2.158.506-3.207-.048-.374-.1-.735-.145-1.109-.217.133-.434.277-.651.41a12.779,12.779,0,0,1-9.127,1.833c-3.2-.579-6.776-3.3-7.053-7.427a3.8,3.8,0,0,0-.4-1.507c-.241.663-.482,1.314-.711,1.977a15.25,15.25,0,0,1-5.365,7.4c.169.892.338,1.772.494,2.665C723.244,183.932,724.015,188.019,724.691,192.034Z" transform="translate(-631.361 -105.526)" fill="#36a9e1"/>
        <path id="Trazado_890589" data-name="Trazado 890589" d="M722.429,240.318a83.788,83.788,0,0,0-4.159,12.768,56.476,56.476,0,0,0,12.611-2.58c.181-.06.35-.145.53-.217a90.358,90.358,0,0,1,6.426-15.722c10.055-19.206,11.237-35.844,9.006-56.147-1.688.675-3.364,1.4-5,2.182a55.773,55.773,0,0,0-16,11.478C728.482,208.573,729.338,223.813,722.429,240.318Z" transform="translate(-632.126 -103.317)" fill="#36a9e1"/>
        <path id="Trazado_890590" data-name="Trazado 890590" d="M741.007,247.7q-5.371,1.175-10.766,2.122c-2.267,13.334-2.6,26.874-4.786,41.752-5.751,39.232-12.2,78.355-17.024,117.719h15.951q5.95-57.781,12.322-115.513C738.33,278.9,737.607,262.3,741.007,247.7Z" transform="translate(-634.15 -89.07)" fill="#2d2e83"/>
        <path id="Trazado_890591" data-name="Trazado 890591" d="M736.1,242.736a90.359,90.359,0,0,0-6.426,15.722c1.507-.591,2.918-1.447,4.377-2.17.193-.1.338-.326.518-.362a7.553,7.553,0,0,1,1.049-.06c-.012.4.133.952-.072,1.145a13.394,13.394,0,0,1-3.05,2.58c-1.169.579-2.375,1.109-3.593,1.567-.928,3.412-1.664,6.8-2.267,10.212,1.652-.241,3.3-.494,4.955-.735a.522.522,0,0,0,.4-.338h-5.076v-.326H737.3c.084-.374.169-.747.253-1.109,2.833-11.273,9.573-21,15.987-30.467,14.781-21.8,19.712-40.7,15.312-67.275-1.8-10.887-4.871-20.749-7.632-30.406-1.652-.458-3.3-.916-4.931-1.447a9.885,9.885,0,0,0-5.7-.169c-2.845.76-5.739,1.4-8.669,2.1-.1.892-.133,1.953-.338,2.978a9.817,9.817,0,0,1-2.652,4.907c-.072.072-.145.145-.217.2,1.338,6.776,2.8,13.684,4.051,20.809a57.677,57.677,0,0,0,6.125-.1c2.074-.121,4.135-.422,6.2-.687a2.3,2.3,0,0,0,.952-.567c2.676-2.146,5.835-3.412,8.946-4.738.072-.036.193.024.35.06-3.412,2.652-6.812,5.269-10.188,7.933a37.843,37.843,0,0,0-7.463,7.8,8.375,8.375,0,0,0-1.652,3.677c.651.4,1.169-.1,1.664-.277a49.4,49.4,0,0,1,10.369-2.954,18.018,18.018,0,0,1,4.027-.133,6.287,6.287,0,0,1,3.52,1.9c-3.472-.615-6.547.241-9.6,1a86.672,86.672,0,0,0-10.911,3.557C747.341,206.88,746.147,223.53,736.1,242.736Z" transform="translate(-630.405 -111.474)" fill="#2d2e83"/>
        <path id="Trazado_890592" data-name="Trazado 890592" d="M741.672,173.03c-.121.072-.241.145-.362.229.048.374.1.747.145,1.109C741.539,173.934,741.6,173.488,741.672,173.03Z" transform="translate(-627.388 -104.426)" fill="#2d2e83"/>
        <path id="Trazado_890593" data-name="Trazado 890593" d="M782.738,210.559c.579-1.736,1.061-3.508,1.724-5.208a78.076,78.076,0,0,0,4.437-17.819,75.4,75.4,0,0,0,.084-19.978,56.443,56.443,0,0,0-4.34-15.987,24.776,24.776,0,0,0-2.05-4.027c-.868-1.242-2.5-1.567-3.762-2.315-2.773-1.64-5.92-2.23-9.006-2.954a2.134,2.134,0,0,0-1.194.241c-1.254.543-1.531.47-2.448-.627a2.164,2.164,0,0,0-1-.651c-.977-.289-1.965-.567-2.954-.844,2.761,9.657,5.835,19.519,7.632,30.406,4.4,26.572-.543,45.477-15.312,67.275-6.414,9.464-13.166,19.194-15.987,30.467-.1.362-.169.735-.253,1.109h.567c-.193.048-.4.084-.591.121-3.4,14.6-2.676,31.2-4.3,46.08q-6.33,57.726-12.322,115.513h23.679V431.1H742.6c-.084-.663-.2-1.338-.241-2.013-1.483-26.259-2.508-52.542-1.977-78.861.265-12.828.591-25.644.88-38.472.253-11.321.434-22.63.747-33.951.109-3.979.555-7.945.82-11.924a6.14,6.14,0,0,0-.012-1.76,6.56,6.56,0,0,1,.675-4.377,11.119,11.119,0,0,0,.675-1.965c.277-1.1.458-2.206.711-3.316a12.127,12.127,0,0,1,2.966-5.474,78.411,78.411,0,0,1,14.986-12.744c3.822-2.532,6.872-5.871,10.091-9.042a1.97,1.97,0,0,0,.2-.241c3.026-4.642,6.281-9.151,8.765-14.13A15.542,15.542,0,0,0,782.738,210.559Z" transform="translate(-631.429 -111.138)" fill="#951b81"/>
      </g>
      <path id="Trazado_890594" data-name="Trazado 890594" d="M748.253,165.23c-.06.072-.121.133-.193.2A.446.446,0,0,0,748.253,165.23Z" transform="translate(21.202 14.636)"/>
      <path id="Trazado_890595" data-name="Trazado 890595" d="M807.867,182.3a112.378,112.378,0,0,0-2.628-16.891,66.548,66.548,0,0,0-1.9-6.655,9.659,9.659,0,0,0-3.352-4.847,25.947,25.947,0,0,0-9.778-4.449c-1.447-.289-2.881-.7-4.111-1.013.313-3.123.748-6.052.892-9.006.289-5.92.434-11.827-.772-17.711a45.349,45.349,0,0,0-5.172-14.516c-.989-1.652-1.736-3.46-2.616-5.2-.386-.772-.772-1.543-1.23-2.279a11.151,11.151,0,0,0-8.886-5.474,60.042,60.042,0,0,0-18.772,1.374c-3.171.76-4.859,2.52-5.377,5.606-.048.265-.084.53-.145.8-.1.374-.217.735-.386,1.266-.3-.41-.458-.627-.615-.844-1.145-1.495-2.23-3.038-3.46-4.473A6.719,6.719,0,0,0,734.37,95.4c-3.171-.012-6.366-.06-9.525.157a37.948,37.948,0,0,0-12.213,2.773,7.155,7.155,0,0,0-4.352,4.437c-.362,1.049-.82,2.062-1.23,3.074a19.287,19.287,0,0,0-2.218-.3,42.094,42.094,0,0,0-22.714,5.727,9.466,9.466,0,0,0-4.594,5.582c-.446,1.459-.977,2.881-1.519,4.449-.434-.41-.747-.7-1.049-1a4.793,4.793,0,0,0-3.1-1.567,23.637,23.637,0,0,0-3.689-.121,54.025,54.025,0,0,0-10.875,2.279,9.619,9.619,0,0,0-2.833,1.471c-4.3,3.1-6.993,7.4-8.813,12.286a11.2,11.2,0,0,0-.6,5.245c.506,4.654,2.026,9.139,2.218,13.853.121,2.845.663,5.667.784,8.512a29.186,29.186,0,0,0,1.555,8.7,47.142,47.142,0,0,1,2.568,10.152c.41,3.279,1.664,6.474,1.194,9.862a1.656,1.656,0,0,0,.06.482c.313,3.219.651,6.426.928,9.645a45.294,45.294,0,0,0,.9,7.523c1.628,6.306,3.316,12.587,5.281,18.808a69.58,69.58,0,0,0,5.281,12.466c1.3,2.363,2.58,4.726,3.713,7.162a49.192,49.192,0,0,0,6.052,9.705c1.266,1.6,2.291,3.388,3.448,5.064a3,3,0,0,1,.41,2.592c-1.845,7.6-2.592,15.384-3.846,23.088-.964,5.956-1.688,11.948-2.725,17.88-1.652,9.392-2.857,18.844-4.051,28.3a187.942,187.942,0,0,1-3.8,21.786,203.577,203.577,0,0,0-4.3,21.858c-.989,7.306-2.182,14.588-3.725,21.81-1.374,6.426-2.665,12.864-3.786,19.327-.977,5.618-1.688,11.285-2.52,16.939-.253,1.688-.518,3.376-.8,5.208h1.881a3.828,3.828,0,0,0-.579-1.652,3.827,3.827,0,0,1,.579,1.652h2.134c.109-.47.229-.868.3-1.29.4-2.17.76-4.352,1.169-6.523q2.315-12.388,4.63-24.764c2.255-12.225,4.569-24.451,6.7-36.7,1.857-10.658,3.629-21.34,5.245-32.034,1.447-9.633,2.616-19.314,3.943-28.96.8-5.811,1.736-11.61,2.508-17.422.76-5.763,1.4-11.55,2.1-17.325.374-3.1.3-6.245,1.182-9.283a8.166,8.166,0,0,0-.133-4.557,27.435,27.435,0,0,0-4.823-9.4,51.566,51.566,0,0,1-3.677-5.871c-2.484-4.425-4.256-9.175-6.318-13.781a61.8,61.8,0,0,1-3.846-11.454c-1.145-4.979-2.5-9.91-3.75-14.854a14.121,14.121,0,0,1-.326-1.579c-.965-7.041-1.845-14.094-3.243-21.063-1-4.955-1.712-9.959-3.46-14.757a17.014,17.014,0,0,1-1.013-5.534c-.048-5.377-1.555-10.525-2.279-15.794-.277-2.025-.832-4-1.218-6.016a10.724,10.724,0,0,1,.265-6.51,27.719,27.719,0,0,1,6.715-9.778,11.4,11.4,0,0,1,5.269-2.918,57.425,57.425,0,0,1,10.8-1.8,4.653,4.653,0,0,1,4.087,1.845,51.541,51.541,0,0,1,3.135,4.3c4.449,7.246,8.886,14.516,13.214,21.834A21.186,21.186,0,0,1,693.209,154c.675,2.6,1.037,5.281,1.507,7.921a25.906,25.906,0,0,1,.338,2.725c.277,4.2.53,8.379.8,12.575a57.191,57.191,0,0,1-1.447,17,5.314,5.314,0,0,1-1.411,2.472c-1.145,1.23-2.677,1.76-4.015,2.616a4.7,4.7,0,0,1-4.461.506c-2.882-1.242-5.51-2.93-6.932-5.98-2.182-4.666-2.942-9.669-3.593-14.685-.374-2.882-.494-5.8-.627-8.7-.121-2.628-.084-5.269-.133-7.9a2.726,2.726,0,0,0-.157-1.1c-.121-.229-.506-.3-1.085-.627-.289,3.593-.543,6.836-.808,10.176a3.956,3.956,0,0,1-.952-.422c-.916-.711-1.821-1.447-2.689-2.23a42.184,42.184,0,0,1-6.559-7.113,10.9,10.9,0,0,1-2.146-5.679c-.253-4.991-.326-9.995-.482-15.071-.76-.374-1.169-.289-1.386.494a5.9,5.9,0,0,0-.181,1.6c-.012,3.93,0,7.873.024,11.8a13.06,13.06,0,0,0,.253,2.568,3.594,3.594,0,0,1-.542,3.062c-.651.928-1.254,1.881-1.821,2.857a1.058,1.058,0,0,0,.265,1.567,1.076,1.076,0,0,0,1.447-.289c.446-.458.82-.989,1.242-1.519a3.032,3.032,0,0,1,.277.4,47.3,47.3,0,0,1,4.147,18.3c.036,1.748.181,3.484.277,5.329a2.341,2.341,0,0,0,1.712-1.8,18.815,18.815,0,0,0,.494-2.689,32.4,32.4,0,0,0-2-14.118c-.157-.422-.289-.856-.494-1.459a6.785,6.785,0,0,1,.567.41q3.454,3.382,6.92,6.764a6.24,6.24,0,0,0,1.218,1.049,1.694,1.694,0,0,1,.832,1.6c.229,2.568.446,5.148.82,7.7a32.114,32.114,0,0,0,3.195,10.791,10.038,10.038,0,0,0,2.954,3.581,39.7,39.7,0,0,0,3.894,2.592,7.848,7.848,0,0,0,8.415-.362,9.869,9.869,0,0,0,5.112-7.439c.06-.482.229-.94.313-1.423.494-2.737.989-5.474,1.519-8.4.169,1.169.338,2.182.446,3.183a58.9,58.9,0,0,0,1.555,9.718,5.723,5.723,0,0,0,2.8,3.581c4.087,2.327,8.271,2.906,12.732.723.133.4.289.784.386,1.194,2.158,9.549,2.93,19.158,1.206,28.863-1.1,6.173-2.652,12.2-6.016,17.615-.362.579-.615,1.218-.94,1.881,1.555-.567,2.038-.8,2.725-1.9a33.338,33.338,0,0,0,2.676-4.955,60,60,0,0,0,4-24.053,73.329,73.329,0,0,0-2.954-19.182c1.9-3.52,3.713-6.884,5.594-10.357.989,3.4,2.182,5.474,7.487,5.245a14.835,14.835,0,0,0,13.708-10.248c.229-.663.482-1.314.711-1.977a3.748,3.748,0,0,1,.4,1.507c.265,4.123,3.846,6.848,7.053,7.427a12.707,12.707,0,0,0,9.127-1.833c.326-.2.663-.41,1.013-.639-.241,1.531-.458,2.942-.711,4.545-.338.157-.868.4-1.411.627a59.3,59.3,0,0,0-18.085,11.96,79.119,79.119,0,0,0-13.889,18.772,37.672,37.672,0,0,0-4.557,21.014,15.551,15.551,0,0,0,.338,2.23.97.97,0,0,0,1.218.82c-.109-.784-.253-1.531-.3-2.291-.422-7.2.627-14.106,4.292-20.412a105.857,105.857,0,0,1,5.992-9.392c5.98-8.162,13.286-14.829,22.522-19.194a87.043,87.043,0,0,1,15.915-5.727c3.05-.772,6.125-1.628,9.6-1a6.4,6.4,0,0,0-3.521-1.9,18.019,18.019,0,0,0-4.027.133,49.4,49.4,0,0,0-10.369,2.954c-.494.181-1.013.675-1.664.277a8.376,8.376,0,0,1,1.652-3.677,37.844,37.844,0,0,1,7.463-7.8c3.376-2.652,6.764-5.269,10.188-7.933-.157-.024-.265-.1-.35-.06-3.111,1.326-6.269,2.58-8.946,4.738a2.305,2.305,0,0,1-.952.567c-2.062.277-4.123.579-6.2.687a41.206,41.206,0,0,1-9.513-.277,32.072,32.072,0,0,1-9.054-2.785c-.8-.4-1.278-1.157-1.941-1.591a15.9,15.9,0,0,1-2.375-1.157c-2.423-2.134-4.859-4.268-7.318-6.366-3.581-3.038-4.943-7.21-5.9-11.574a7.362,7.362,0,0,1-.048-1.929,2.43,2.43,0,0,1,1.965-2.447c1.555-.35,3.147-.6,4.895-.928.482,1.4.94,2.592,1.278,3.81.3,1.085.446,2.218.687,3.316a2.252,2.252,0,0,0,1.507,1.772,23.8,23.8,0,0,0,11.755,1.278,7.039,7.039,0,0,0,4.111-2.062,9.867,9.867,0,0,0,2.652-4.907c.193-1.037.241-2.1.338-2.978,2.93-.7,5.823-1.338,8.669-2.1a9.686,9.686,0,0,1,5.7.169c2.6.844,5.269,1.507,7.9,2.291a2.074,2.074,0,0,1,1,.651c.916,1.1,1.194,1.182,2.448.627a2.153,2.153,0,0,1,1.193-.241c3.086.723,6.233,1.314,9.006,2.954,1.278.748,2.894,1.073,3.762,2.315a24.777,24.777,0,0,1,2.05,4.027,56.445,56.445,0,0,1,4.34,15.987,75.39,75.39,0,0,1-.084,19.978,77.93,77.93,0,0,1-4.437,17.819c-.663,1.7-1.145,3.472-1.724,5.208a16.431,16.431,0,0,1-.832,2.267c-2.484,4.979-5.739,9.476-8.765,14.13a1.963,1.963,0,0,1-.2.241c-3.219,3.171-6.269,6.51-10.091,9.042a78.413,78.413,0,0,0-14.986,12.744,12.127,12.127,0,0,0-2.966,5.474c-.253,1.1-.446,2.218-.711,3.316a10.223,10.223,0,0,1-.675,1.965,6.56,6.56,0,0,0-.675,4.376,6.148,6.148,0,0,1,.012,1.76c-.277,3.979-.711,7.945-.82,11.924-.326,11.309-.506,22.63-.747,33.951-.289,12.828-.615,25.644-.88,38.472-.531,26.319.482,52.59,1.977,78.861.036.675.157,1.35.241,2.013h2.737v0h3.086c-.1-2.484-.217-4.738-.277-6.993-.265-10.127-.386-20.267-.82-30.382-.615-14-1.471-27.983-2.218-41.969-.7-12.985-.639-25.97-.4-38.955q.325-17.94.53-35.892a97.717,97.717,0,0,1,.615-13.551c.386-2.6.241-5.245.892-7.849a10.577,10.577,0,0,1,3.267-5.787c2.785-2.375,5.486-4.859,8.367-7.113,4.75-3.713,9.922-6.848,14.2-11.176a36.51,36.51,0,0,0,5.329-6.245,15.863,15.863,0,0,1,1.386-1.76c2.062-2.5,4.16-4.943,5.377-8.006,1.013-2.556,2.086-5.076,3.062-7.644a70.277,70.277,0,0,0,4.3-18.832A101.5,101.5,0,0,0,807.867,182.3Zm-42.439.4c.241-2.11,1.808-2.363,3.448-2.532a1.058,1.058,0,0,0,.374-.1c.06-.072.121-.133.193-.2a.324.324,0,0,1-.193.2c-1.724,1.857-3.448,3.7-5.184,5.558-.072-.06-.145-.109-.229-.169.422-.735.844-1.471,1.254-2.194A1.567,1.567,0,0,0,765.428,182.7Zm-.9-1.881c-.506.747-.868,1.3-1.471,2.182-.048-.82-.072-1.242-.1-1.881C763.462,181.035,763.872,180.951,764.523,180.818Zm-2.11.313a10.831,10.831,0,0,0-.579,1.073c-1.591,4.135-4.473,4.449-8.946,3.786a3.939,3.939,0,0,1-3.291-3.352,30.1,30.1,0,0,1-.241-3.195A46.113,46.113,0,0,0,762.414,181.132ZM746.1,178.045c.675.277,1.242.506,1.8.735.145,1.326.193,2.556.41,3.762a6.126,6.126,0,0,0,5.992,5.088,13.99,13.99,0,0,0,6.776-1.3,5.218,5.218,0,0,1-2.556,2.5,12.5,12.5,0,0,1-5.618,1.194,7.433,7.433,0,0,1-5.956-3.34,4.59,4.59,0,0,1-.8-1.9A23.68,23.68,0,0,1,746.1,178.045Zm-26.416,11.538c-1.157,4.244-3.713,7.391-8.186,8.56a10.081,10.081,0,0,1-6.8-.41,5.052,5.052,0,0,1-2.664-2.664,23.837,23.837,0,0,1-1.507-6.257c-.687-4.461-1.182-8.982-2.242-13.371-1.049-4.316-1.037-8.717-1.712-13.057a87.885,87.885,0,0,0-1.688-8.874,21.79,21.79,0,0,0-2.363-5.63c-4.389-7.415-8.91-14.745-13.395-22.1-.591-.965-1.242-1.881-1.929-2.918.856-1.917,1.688-3.713,2.459-5.558a7.571,7.571,0,0,1,3.424-3.725,43.617,43.617,0,0,1,16.964-5.835c1.121-.121,2.23-.338,3.352-.53a5.191,5.191,0,0,1,4.871,1.5,33.609,33.609,0,0,1,8.572,13.322c1.712,5.208,3.943,10.26,5.124,15.637,1.145,5.2,2.182,10.429,3.207,15.649a22.115,22.115,0,0,1-.133,7.559c-.747,5.064-1.338,10.152-2.255,15.179C721.952,180.613,720.9,185.122,719.685,189.583Zm21.461-9.259a13.121,13.121,0,0,1-3.641,7.74,2.436,2.436,0,0,1-.555.313c-.543-1.109-1.567-1.037-2.6-1.037-2.1.012-4.2.012-6.293-.024-1.266-.024-1.35-.109-1.459-1.386a22.581,22.581,0,0,1,1.652-10.091,3.4,3.4,0,0,1,2.857-2.3,15.239,15.239,0,0,1,3.508-.374C737.9,173.512,741.556,175.815,741.146,180.324Zm-4.5-31.419a27.77,27.77,0,0,0-5.2,1.049c-2.3.6-3.279,2.339-3.412,4.557a14.472,14.472,0,0,0,.241,3.05,17.907,17.907,0,0,0,6.221,11.695c2.906,2.4,5.727,4.883,8.777,7.487a10.439,10.439,0,0,1-1.4,4.4v-1.7c0-4.642-4.955-7.9-8.223-7.306-.9.157-1.821.2-2.713.386a4.325,4.325,0,0,0-3.291,2.351,22.051,22.051,0,0,0-2.218,11.6c.109,1.278.711,1.784,2.025,1.8,2.423.024,4.847.012,7.27.012.47.723.856,1.326,1.29,2.013a14.338,14.338,0,0,1-9.018,2.17,2.757,2.757,0,0,1-2.351-1.748c-.53-1.23-1.049-2.484-1.471-3.75a2.613,2.613,0,0,1,.06-1.423c1.953-6.993,2.628-14.166,3.111-21.376a28.369,28.369,0,0,1,.362-3.207,29.314,29.314,0,0,0-.458-11.225,189.6,189.6,0,0,0-8.717-29.876,35.805,35.805,0,0,0-8.174-12.274c-.265-.265-.579-.482-.964-.808.76-1.857,1.459-3.653,2.218-5.413a3.075,3.075,0,0,1,1.857-1.459,39.87,39.87,0,0,1,11.237-2.773c3.05-.3,6.125-.253,9.2-.4a7.018,7.018,0,0,1,5.92,2.749,37.543,37.543,0,0,1,7.21,12.527c1.736,5.317,3.243,10.706,4.8,16.083a17.662,17.662,0,0,1,.651,6.4c-.374,4.606-.784,9.211-1.181,13.9-.543.048-.965.109-1.374.121C744.835,148.639,740.736,148.652,736.649,148.9Zm13.793,10.6a25.517,25.517,0,0,1-10.031-1.182,1.668,1.668,0,0,1-1.278-1.29c-.145-.627-.265-1.266-.4-1.893-.35-1.567-.687-3.135-1.061-4.811H757.3C758,155.162,755.047,158.984,750.441,159.5Zm33.421-22.28a32.6,32.6,0,0,1-2.182,10.706c-.1.241-.229.47-.458.977-2.423-.735-4.762-1.35-7.029-2.158a12.669,12.669,0,0,0-7.764-.326,58.92,58.92,0,0,1-13.045,2.025c-.482.024-.952,0-1.543,0,.253-1.845.567-3.629.748-5.425.265-2.785.326-5.594.687-8.367a20.866,20.866,0,0,0-1.194-9.03c-1.121-3.653-2.23-7.306-3.3-10.971a38.026,38.026,0,0,0-3.123-7.764,1.809,1.809,0,0,1-.193-1.652c.506-1.411.856-2.881,1.314-4.3a2.661,2.661,0,0,1,2.1-1.784A55.2,55.2,0,0,1,764.716,97.6c1.447.06,2.894.277,4.328.446a6.642,6.642,0,0,1,5.293,3.291c3.147,5.618,6.74,11.044,7.776,17.6C783.066,125,784.127,131.037,783.862,137.222Z" transform="translate(0 0)"/>
      <path id="Trazado_890596" data-name="Trazado 890596" d="M727.9,249.829c-2.086-.157-4.172-.3-6.269-.47-3.967-.3-7.945-.627-11.912-.916a104.98,104.98,0,0,1-17.47-3.074c-1.507-.374-3.062-.579-4.594-.88a9.507,9.507,0,0,1-1.555-.41.579.579,0,0,1,.084-1.121,25.568,25.568,0,0,1,2.894-.313c4.63-.145,9.259-.241,13.9-.386,6.354-.2,12.707-.313,19.049-.711a61.7,61.7,0,0,0,16-2.857,39.172,39.172,0,0,0,4.907-2.387c.193-.1.338-.326.518-.362a7.544,7.544,0,0,1,1.049-.06c-.012.4.133.952-.072,1.145a13.4,13.4,0,0,1-3.05,2.58,37.337,37.337,0,0,1-6.438,2.52,82.818,82.818,0,0,1-17.024,2.7,202.333,202.333,0,0,1-22.136.326,1.719,1.719,0,0,0-1.157.289c2.3.446,4.581,1,6.9,1.3,5.763.735,11.538,1.374,17.313,2,2.676.289,5.365.434,8.042.687a4.624,4.624,0,0,1,1.025.4Z" transform="translate(8.377 29.165)"/>
      <path id="Trazado_890597" data-name="Trazado 890597" d="M743.922,247.59a315.994,315.994,0,0,1-42.1,6.113c0,.133.012.253.012.386,5.667.482,11.321.965,16.9,1.435-3.05.482-17.506-.856-19.327-1.941a10.322,10.322,0,0,1,1.6-.482q4.72-.669,9.44-1.266c5.872-.747,11.743-1.435,17.615-2.194,3.2-.41,6.39-.916,9.585-1.387a.522.522,0,0,0,.4-.338h-5.076v-.326Z" transform="translate(11.197 31.573)"/>
      <path id="Trazado_890598" data-name="Trazado 890598" d="M673.8,179.24a43.222,43.222,0,0,1,11.984,1.254c.121.024.205.2.494.518a10.258,10.258,0,0,1-1.519-.012c-1.64-.253-3.279-.579-4.931-.832a14.83,14.83,0,0,0-6.764.2,10.5,10.5,0,0,1-.567-2.423c.036-2.411.084-4.847.35-7.234.7-6.113,8.1-8.934,12.937-6.342a5.137,5.137,0,0,1,2.882,4.027,30.618,30.618,0,0,1-.482,9.947,2.888,2.888,0,0,1-1.242,2.243c-.036-.217-.12-.374-.072-.482,1.459-3.8,1.35-7.7.747-11.61a3.564,3.564,0,0,0-1.1-2.086,7.533,7.533,0,0,0-6.583-1.821,13.039,13.039,0,0,0-2.568.916,5.321,5.321,0,0,0-3.219,4.172,45.536,45.536,0,0,0-.362,5.136C673.766,176.226,673.8,177.672,673.8,179.24Z" transform="translate(5.663 14.262)"/>
      <path id="Trazado_890599" data-name="Trazado 890599" d="M655.71,129.628c.109-.362.109-.53.2-.627,2.17-2.243,4.328-4.509,7.4-5.558,1.616-.555,3.207-1.206,4.823-1.772a.985.985,0,0,1,1.423.506,3.661,3.661,0,0,1-.9.555c-3.123.687-5.739,2.375-8.331,4.111-1.121.748-2.23,1.5-3.364,2.23C656.626,129.266,656.241,129.387,655.71,129.628Z" transform="translate(2.21 5.653)"/>
      <path id="Trazado_890600" data-name="Trazado 890600" d="M720.7,247.461h0Z" transform="translate(15.575 31.545)"/>
      <g id="Grupo_1101763" data-name="Grupo 1101763" transform="translate(677.271 107.166)">
        <path id="Trazado_890601" data-name="Trazado 890601" d="M701.278,152.346a42.326,42.326,0,0,0,9.561-3.81,7.606,7.606,0,0,0,1.423-1.049c.41-.41.446-.856-.193-1.1a33.949,33.949,0,0,1-9.235,4.063,41.083,41.083,0,0,1-4.907,1.218c-1.688.326-3.412.555-5.136.76a3.55,3.55,0,0,0,1.628.579,24.159,24.159,0,0,0,3.737-.06A18.047,18.047,0,0,0,701.278,152.346Z" transform="translate(-667.435 -96.405)" fill="none"/>
        <path id="Trazado_890602" data-name="Trazado 890602" d="M707.46,178.835a11.475,11.475,0,0,0,.965-1.664,14.088,14.088,0,0,0,.747-8.066c-.7-4.449-2.363-6.209-6.74-7.342a5.55,5.55,0,0,0-1.917-.169,4.987,4.987,0,0,0-2.242.8,9.935,9.935,0,0,0-4.654,6.137,36.572,36.572,0,0,0-.579,4.437c.193,2.062.289,3.617.494,5.16.241,1.833.856,2.206,2.616,1.736.253-.072.518-.157.772-.253a16.357,16.357,0,0,1,6.981-.856c.253.024.518.06.772.109a10.534,10.534,0,0,1,1.374.386A1.1,1.1,0,0,0,707.46,178.835Z" transform="translate(-667.384 -93.283)" fill="none"/>
        <path id="Trazado_890603" data-name="Trazado 890603" d="M708.192,150.49a29.41,29.41,0,0,1-8.452,1.808C702.706,152.407,705.636,152.323,708.192,150.49Z" transform="translate(-666.006 -95.562)" fill="none"/>
        <path id="Trazado_890604" data-name="Trazado 890604" d="M676.61,118.478a.869.869,0,0,0,1.411.289.012.012,0,0,0,.012-.012,15.544,15.544,0,0,0,1.579-1.374c5.618-5.365,12.189-8.5,20.243-8.524a11.793,11.793,0,0,0-6.281-.277,25.8,25.8,0,0,0-15.107,8.343c-.1.121-.2.229-.3.35A8.624,8.624,0,0,1,676.61,118.478Z" transform="translate(-670.763 -104.241)" fill="none"/>
        <path id="Trazado_890605" data-name="Trazado 890605" d="M680.7,119.446c2.508-2.025,4.847-4.328,7.873-5.546,2.99-1.194,6.089-2.086,8.789-2.99C691.551,110.922,682.629,115.311,680.7,119.446Z" transform="translate(-669.921 -103.701)" fill="none"/>
        <path id="Trazado_890606" data-name="Trazado 890606" d="M677.607,118.467a9.3,9.3,0,0,0,1.555-1.194c.1-.121.2-.229.3-.35a71.788,71.788,0,0,1,2.761-8.584c-1.555.7-3.086,1.483-4.581,2.339a7.571,7.571,0,0,0-3.424,3.725c-.76,1.833-1.6,3.641-2.459,5.558.687,1.037,1.35,1.953,1.929,2.918l3.689,6.04a82.6,82.6,0,0,1,1.64-10.164A.869.869,0,0,1,677.607,118.467Z" transform="translate(-671.76 -104.23)" fill="#f9b233"/>
        <path id="Trazado_890607" data-name="Trazado 890607" d="M678.5,117.637a25.737,25.737,0,0,1,15.107-8.343,11.789,11.789,0,0,1,6.281.277c-8.054.024-14.625,3.159-20.243,8.524a15.544,15.544,0,0,1-1.579,1.374.012.012,0,0,0-.012.012,82.611,82.611,0,0,0-1.64,10.164c3.255,5.341,6.511,10.682,9.706,16.059a21.8,21.8,0,0,1,2.363,5.63,87.919,87.919,0,0,1,1.688,8.874c.663,4.328.663,8.729,1.712,13.057,1.061,4.377,1.555,8.9,2.242,13.371a23.372,23.372,0,0,0,1.507,6.257,5.011,5.011,0,0,0,2.665,2.664,10.077,10.077,0,0,0,6.8.41A11.165,11.165,0,0,0,709,194.124c-.3-1.194-.6-2.387-.892-3.593a5.66,5.66,0,0,0-.772-.108,16.357,16.357,0,0,0-6.981.856c-.253.1-.506.181-.772.253-1.772.47-2.375.1-2.616-1.736-.2-1.543-.3-3.1-.494-5.16a36.308,36.308,0,0,1,.579-4.437,9.978,9.978,0,0,1,4.654-6.137,5.189,5.189,0,0,1,2.242-.8c-.88-3.93-1.7-7.849-2.423-11.767a24.157,24.157,0,0,1-3.737.06,3.5,3.5,0,0,1-1.628-.579c1.736-.2,3.448-.446,5.136-.76-3.207-18.049-4.135-35.916,1.158-53.061-.205-.2-.4-.422-.591-.627a5.162,5.162,0,0,0-4.871-1.5c-1.109.193-2.218.41-3.352.53a40.747,40.747,0,0,0-12.382,3.5A73.068,73.068,0,0,0,678.5,117.637Zm10.971-2.508c-3.038,1.206-5.377,3.52-7.873,5.546,1.929-4.123,10.851-8.524,16.662-8.536C695.556,113.044,692.445,113.936,689.467,115.13Z" transform="translate(-670.804 -104.931)" fill="#fcea10"/>
        <path id="Trazado_890608" data-name="Trazado 890608" d="M697.485,159.821a41.08,41.08,0,0,0,4.907-1.218,33.949,33.949,0,0,0,9.235-4.063c.639.229.615.687.193,1.1a7.6,7.6,0,0,1-1.423,1.049,41.772,41.772,0,0,1-9.561,3.81,17.621,17.621,0,0,1-3.123.6c.723,3.918,1.543,7.837,2.423,11.767a5.294,5.294,0,0,1,1.917.169c4.376,1.145,6.04,2.894,6.74,7.342a14.079,14.079,0,0,1-.748,8.066,10.463,10.463,0,0,1-.964,1.664,1.1,1.1,0,0,1-1.411.41,10.532,10.532,0,0,0-1.374-.386c.3,1.194.6,2.4.892,3.593a11.971,11.971,0,0,0,4.268-6.715c1.218-4.461,2.267-8.982,3.1-13.527.916-5.028,1.507-10.115,2.255-15.179a22.117,22.117,0,0,0,.133-7.559c-1.037-5.22-2.074-10.453-3.207-15.649-1.182-5.377-3.412-10.429-5.124-15.637a33.016,33.016,0,0,0-7.981-12.7C693.35,123.9,694.278,141.772,697.485,159.821Zm3.255,1.471a29.409,29.409,0,0,0,8.452-1.808C706.636,161.316,703.706,161.4,700.741,161.291Z" transform="translate(-667.006 -104.555)" fill="#95c11f"/>
      </g>
      <g id="Grupo_1101764" data-name="Grupo 1101764" transform="translate(708.376 96.726)">
        <path id="Trazado_890609" data-name="Trazado 890609" d="M724.267,103.676a37.713,37.713,0,0,0-5.281-.1c-5.221.313-8.693,2.11-12.466,5.787a11.855,11.855,0,0,0,4.159-1.965,16.25,16.25,0,0,1,7.282-2.894c.265-.036.53-.072.784-.109C720.626,104.122,722.495,103.9,724.267,103.676Z" transform="translate(-695.717 -94.78)" fill="none"/>
        <path id="Trazado_890610" data-name="Trazado 890610" d="M724.309,104.72a28.374,28.374,0,0,0-7.511,1.423,13.978,13.978,0,0,0-3.448,1.833c1.1-.338,2.182-.723,3.267-1.1.711-.241,1.411-.482,2.134-.7C720.584,105.612,722.453,105.2,724.309,104.72Z" transform="translate(-694.313 -94.534)" fill="none"/>
        <path id="Trazado_890611" data-name="Trazado 890611" d="M727.833,131.1a24.53,24.53,0,0,0,3.147-2.99,1.432,1.432,0,0,0,.422-1.772,1.323,1.323,0,0,0-1.495.88,2.482,2.482,0,0,1-.47.8c-3.5,3.05-7.391,5.184-12.165,5.184-.916,0-1.833-.06-2.785-.133-.6-.048-1.218-.084-1.857-.121a14.849,14.849,0,0,0,1.929,1.157,6.89,6.89,0,0,0,2.7.711C721.286,134.941,724.7,133.374,727.833,131.1Z" transform="translate(-694.461 -90.093)" fill="none"/>
        <path id="Trazado_890612" data-name="Trazado 890612" d="M701.635,98.91a3.066,3.066,0,0,0-1.857,1.459c-.76,1.76-1.459,3.557-2.218,5.413.386.326.7.53.965.808l.06.06a76.861,76.861,0,0,1,3.05-7.74Z" transform="translate(-697.56 -95.729)" fill="#fcea10"/>
        <path id="Trazado_890613" data-name="Trazado 890613" d="M712.7,96.692a39.465,39.465,0,0,0-11.237,2.773,77.471,77.471,0,0,0-3.05,7.74,35.836,35.836,0,0,1,8.126,12.213,189.217,189.217,0,0,1,8.717,29.876,28.853,28.853,0,0,1,.458,11.225,26.09,26.09,0,0,0-.362,3.207c-.47,7.21-1.145,14.383-3.111,21.376a2.609,2.609,0,0,0-.06,1.423c.422,1.278.94,2.52,1.471,3.75A2.756,2.756,0,0,0,716,192.022a14.357,14.357,0,0,0,9.018-2.17c-.446-.687-.832-1.29-1.29-2.013-2.423,0-4.847.024-7.27-.012-1.326-.012-1.929-.506-2.025-1.8a22.05,22.05,0,0,1,2.218-11.6,4.325,4.325,0,0,1,3.291-2.351c.8-.157,1.6-.217,2.4-.338-.338-1.7-.675-3.4-1.013-5.088a18.6,18.6,0,0,1-4.051-9.537,15.321,15.321,0,0,1-.241-3.05,5.016,5.016,0,0,1,1.543-3.593c-.47-3.412-.844-6.812-1.1-10.2a14.845,14.845,0,0,1-1.929-1.157c.639.036,1.254.084,1.857.121a97.864,97.864,0,0,1,2.291-30.623c-1.085.374-2.17.76-3.267,1.1a14.419,14.419,0,0,1,3.448-1.833c.169-.663.362-1.326.543-2-.265.036-.531.072-.784.109a16.25,16.25,0,0,0-7.282,2.894,11.958,11.958,0,0,1-4.16,1.965c3.786-3.677,7.246-5.462,12.466-5.787a79.7,79.7,0,0,1,3.111-8.62,6.8,6.8,0,0,0-1.881-.157C718.834,96.439,715.747,96.378,712.7,96.692Z" transform="translate(-697.385 -96.271)" fill="#95c11f"/>
        <path id="Trazado_890614" data-name="Trazado 890614" d="M718.736,159.678c3.267-.591,8.223,2.664,8.223,7.306v1.7a10.438,10.438,0,0,0,1.4-4.4c-3.038-2.6-5.872-5.088-8.777-7.487a17.4,17.4,0,0,1-2.17-2.146c.326,1.688.663,3.388,1.013,5.088C718.531,159.714,718.628,159.7,718.736,159.678Z" transform="translate(-693.478 -84.266)" fill="#36a9e1"/>
        <path id="Trazado_890615" data-name="Trazado 890615" d="M722.744,105.137c-1.772.229-3.641.446-5.51.711-.193.663-.374,1.326-.543,2a28.373,28.373,0,0,1,7.511-1.423c-1.857.482-3.726.892-5.558,1.459-.711.217-1.423.458-2.134.7a97.867,97.867,0,0,0-2.291,30.623c.952.072,1.869.121,2.785.133,4.786,0,8.681-2.134,12.165-5.184a2.485,2.485,0,0,0,.47-.8,1.323,1.323,0,0,1,1.495-.88,1.432,1.432,0,0,1-.422,1.772,24.534,24.534,0,0,1-3.147,2.99c-3.135,2.291-6.559,3.858-10.586,3.7a6.6,6.6,0,0,1-2.7-.711c.253,3.388.639,6.788,1.1,10.2a4.37,4.37,0,0,1,1.869-.965,26.835,26.835,0,0,1,5.2-1.049c4.087-.241,8.186-.265,12.273-.374.422-.012.832-.072,1.374-.121.374-4.377.748-8.681,1.1-13-.2-2.243-.362-4.485-.434-6.728-.048-.193-.084-.386-.145-.579-1.555-5.377-3.062-10.766-4.8-16.083a37.426,37.426,0,0,0-7.21-12.527,7.311,7.311,0,0,0-4.039-2.592,78.768,78.768,0,0,0-3.111,8.62A34.491,34.491,0,0,1,722.744,105.137Z" transform="translate(-694.194 -96.241)" fill="#36a9e1"/>
        <path id="Trazado_890616" data-name="Trazado 890616" d="M733.388,128.6a17.547,17.547,0,0,0-.518-5.823c.072,2.243.229,4.485.434,6.728C733.34,129.206,733.364,128.9,733.388,128.6Z" transform="translate(-690.298 -90.82)" fill="#2d2e83"/>
      </g>
      <g id="Grupo_1101765" data-name="Grupo 1101765" transform="translate(745.804 97.509)">
        <path id="Trazado_890617" data-name="Trazado 890617" d="M743.5,134.228c3.689-.53,7.439-.639,11-1.941-2.194.193-4.377.506-6.547.844-2.11.326-4.292.35-6.366,1.206a4.9,4.9,0,0,0,1.9.76,25.133,25.133,0,0,0,12.189-1.567c.157-.06.3-.108.458-.157a20.421,20.421,0,0,0,3.979-2.4,5.012,5.012,0,0,0,.989-1.314c-.1-.06-.193-.121-.289-.169a13.388,13.388,0,0,1-5.377,3.1C751.43,134.035,746.366,134.879,743.5,134.228Z" transform="translate(-725.935 -90.223)" fill="none"/>
        <path id="Trazado_890618" data-name="Trazado 890618" d="M739.96,103.452c2.339.723,4.762.326,7.15.506,2.05.157,4.087.362,6.245.579.277.024.555.06.844.084-.277-.1-.543-.181-.82-.265C748.906,102.969,744.433,103.211,739.96,103.452Z" transform="translate(-726.268 -95.616)" fill="none"/>
        <path id="Trazado_890619" data-name="Trazado 890619" d="M732.132,98.476a2.646,2.646,0,0,0-2.1,1.784c-.458,1.435-.808,2.894-1.314,4.3a1.85,1.85,0,0,0,.193,1.652,38.314,38.314,0,0,1,3.123,7.764q1.067,3.671,2.194,7.306a79.966,79.966,0,0,1,4.437-24.017A55.089,55.089,0,0,0,732.132,98.476Z" transform="translate(-728.603 -96.849)" fill="#36a9e1"/>
        <path id="Trazado_890620" data-name="Trazado 890620" d="M733.99,139.913c.506,0,.928.012,1.338,0-.253-1.471-.482-2.942-.7-4.413C734.436,136.959,734.195,138.418,733.99,139.913Z" transform="translate(-727.496 -88.987)" fill="#36a9e1"/>
        <path id="Trazado_890621" data-name="Trazado 890621" d="M745.2,141.782a4.9,4.9,0,0,1-1.9-.76c2.074-.856,4.244-.868,6.366-1.206,2.17-.338,4.352-.651,6.547-.844-3.545,1.3-7.306,1.4-11,1.941,2.87.663,7.933-.181,11.936-1.64C754.528,128.58,753,117.8,754.72,105.83c-2.158-.2-4.2-.422-6.245-.579-2.387-.181-4.81.217-7.15-.506,4.473-.241,8.946-.494,13.419.892.289-1.953.663-3.942,1.133-5.968a6.887,6.887,0,0,0-4.545-2.243c-1.447-.157-2.882-.374-4.328-.446a55.722,55.722,0,0,0-9.308.35,80.028,80.028,0,0,0-4.437,24.017c.374,1.218.735,2.435,1.121,3.653a21.048,21.048,0,0,1,1.194,9.03c-.362,2.773-.422,5.582-.687,8.367-.036.338-.072.675-.121,1.013.217,1.471.458,2.93.7,4.413h.2a58.226,58.226,0,0,0,13.045-2.025,12.669,12.669,0,0,1,7.764.326c.892.313,1.8.6,2.713.88-.639-2.267-1.254-4.533-1.821-6.8A24.931,24.931,0,0,1,745.2,141.782Z" transform="translate(-727.646 -96.921)" fill="#2d2e83"/>
        <path id="Trazado_890622" data-name="Trazado 890622" d="M753.1,100.269a5.554,5.554,0,0,0-.76-1.049q-.705,3.038-1.133,5.968c.277.084.542.169.82.265-.289-.024-.555-.048-.844-.084-1.736,11.972-.193,22.751,2.423,33.445a13.529,13.529,0,0,0,5.377-3.1c.1.06.193.121.289.169a5.524,5.524,0,0,1-.989,1.314,20.075,20.075,0,0,1-3.979,2.4c-.157.06-.3.109-.458.157.567,2.267,1.182,4.533,1.821,6.8,1.411.434,2.845.832,4.316,1.278.241-.494.362-.723.458-.977a32.6,32.6,0,0,0,2.182-10.706c.265-6.173-.8-12.225-1.748-18.29C759.842,111.313,756.249,105.875,753.1,100.269Z" transform="translate(-724.111 -96.448)" fill="#951b81"/>
      </g>
      <path id="Trazado_890623" data-name="Trazado 890623" d="M722.987,174.82c-.543-1.109-1.567-1.037-2.6-1.037-2.1.012-4.2.012-6.293-.024-1.266-.024-1.35-.109-1.459-1.386a22.581,22.581,0,0,1,1.652-10.091,3.4,3.4,0,0,1,2.857-2.3,15.238,15.238,0,0,1,3.508-.374c3.279.35,6.933,2.652,6.523,7.149a13.12,13.12,0,0,1-3.641,7.74C723.445,174.615,723.276,174.663,722.987,174.82Z" transform="translate(13.903 13.474)" fill="#95c11f"/>
      <path id="Trazado_890624" data-name="Trazado 890624" d="M741.88,140.74c.7,4.835-2.267,8.644-6.872,9.175a25.516,25.516,0,0,1-10.031-1.182,1.668,1.668,0,0,1-1.278-1.29c-.145-.627-.265-1.266-.4-1.893-.35-1.567-.687-3.135-1.061-4.811Z" transform="translate(15.892 9.599)" fill="#36a9e1"/>
      <path id="Trazado_890625" data-name="Trazado 890625" d="M744.6,166.558a10.833,10.833,0,0,0-.579,1.073c-1.591,4.135-4.473,4.449-8.946,3.786a3.939,3.939,0,0,1-3.291-3.352,30.116,30.116,0,0,1-.241-3.195A46,46,0,0,0,744.6,166.558Z" transform="translate(17.804 14.562)" fill="#36a9e1"/>
      <path id="Trazado_890626" data-name="Trazado 890626" d="M728.907,163.75c.675.277,1.242.506,1.8.735.145,1.326.193,2.556.41,3.762a6.126,6.126,0,0,0,5.992,5.088,13.991,13.991,0,0,0,6.776-1.3,5.218,5.218,0,0,1-2.556,2.5,12.5,12.5,0,0,1-5.618,1.194,7.433,7.433,0,0,1-5.956-3.34,4.591,4.591,0,0,1-.8-1.9A23.246,23.246,0,0,1,728.907,163.75Z" transform="translate(17.218 14.331)" fill="#36a9e1"/>
      <path id="Trazado_890627" data-name="Trazado 890627" d="M743.57,170.864c.422-.735.844-1.471,1.254-2.194.109-.193.289-.362.313-.567.241-2.11,1.809-2.363,3.448-2.532.253-.024.506-.1.567-.3l-5.365,5.763C743.715,170.973,743.642,170.924,743.57,170.864Z" transform="translate(20.278 14.644)" fill="#2d2e83"/>
      <path id="Trazado_890628" data-name="Trazado 890628" d="M742.86,166.3c.518-.1.916-.181,1.567-.313-.506.748-.868,1.3-1.471,2.182C742.92,167.364,742.9,166.942,742.86,166.3Z" transform="translate(20.132 14.792)" fill="#2d2e83"/>
      <path id="Trazado_890629" data-name="Trazado 890629" d="M693.04,172.954a36.272,36.272,0,0,1,.579-4.437,9.978,9.978,0,0,1,4.654-6.137,5.039,5.039,0,0,1,4.159-.627c4.376,1.145,6.04,2.894,6.74,7.342a14.079,14.079,0,0,1-.747,8.066,10.468,10.468,0,0,1-.965,1.664,1.1,1.1,0,0,1-1.411.41,8.28,8.28,0,0,0-2.146-.494,16.357,16.357,0,0,0-6.981.856c-.253.1-.506.181-.772.253-1.772.47-2.375.1-2.616-1.736C693.329,176.583,693.233,175.015,693.04,172.954Zm13.756,4.859a14.446,14.446,0,0,0,.181-12.129c-.856-2.013-4.967-3.569-6.655-3.159a5.379,5.379,0,0,0-1.628.687,7.873,7.873,0,0,0-3.846,5.148,26.623,26.623,0,0,0-.289,5.281c.036,1.748.289,3.5.458,5.341,2.038-.41,3.894-.928,5.787-1.121C702.721,177.668,704.662,177.812,706.8,177.812Z" transform="translate(9.887 13.881)"/>
      <path id="Trazado_890630" data-name="Trazado 890630" d="M700.2,108.847c-8.054.024-14.625,3.159-20.243,8.524a15.549,15.549,0,0,1-1.579,1.374.873.873,0,0,1-1.423-.289,9.291,9.291,0,0,0,1.555-1.194,25.7,25.7,0,0,1,15.408-8.693A11.792,11.792,0,0,1,700.2,108.847Z" transform="translate(6.58 2.923)"/>
      <path id="Trazado_890631" data-name="Trazado 890631" d="M712.408,146.36c.639.229.615.687.193,1.1a7.6,7.6,0,0,1-1.423,1.049,41.77,41.77,0,0,1-9.561,3.81,20.024,20.024,0,0,1-6.86.663,3.5,3.5,0,0,1-1.628-.579,54.038,54.038,0,0,0,10.043-1.977A33.948,33.948,0,0,0,712.408,146.36Z" transform="translate(9.905 10.755)"/>
      <path id="Trazado_890632" data-name="Trazado 890632" d="M681.05,119.416c1.929-4.123,10.851-8.524,16.662-8.536-2.7.9-5.8,1.8-8.789,2.99C685.9,115.088,683.546,117.39,681.05,119.416Z" transform="translate(7.421 3.459)"/>
      <path id="Trazado_890633" data-name="Trazado 890633" d="M708.542,150.46c-2.556,1.833-5.486,1.929-8.452,1.808A29.582,29.582,0,0,0,708.542,150.46Z" transform="translate(11.337 11.598)"/>
      <path id="Trazado_890634" data-name="Trazado 890634" d="M713.02,132.93c1.664.1,3.147.253,4.642.253,4.786,0,8.681-2.134,12.165-5.184a2.485,2.485,0,0,0,.47-.8,1.323,1.323,0,0,1,1.495-.88,1.432,1.432,0,0,1-.422,1.772,24.537,24.537,0,0,1-3.147,2.99c-3.135,2.291-6.559,3.858-10.586,3.7A8.456,8.456,0,0,1,713.02,132.93Z" transform="translate(13.996 6.631)"/>
      <path id="Trazado_890635" data-name="Trazado 890635" d="M706.92,109.355c4.919-4.786,9.3-6.378,17.747-5.679-2.026.265-4.172.506-6.305.832a16.25,16.25,0,0,0-7.282,2.894A12.053,12.053,0,0,1,706.92,109.355Z" transform="translate(12.741 1.945)"/>
      <path id="Trazado_890636" data-name="Trazado 890636" d="M724.709,104.72c-1.857.482-3.726.892-5.558,1.459s-3.593,1.242-5.4,1.8C717.017,105.588,720.839,105.046,724.709,104.72Z" transform="translate(14.146 2.192)"/>
      <path id="Trazado_890637" data-name="Trazado 890637" d="M761.1,129.659a5.521,5.521,0,0,1-.989,1.314,20.072,20.072,0,0,1-3.979,2.4,25.448,25.448,0,0,1-12.647,1.724,4.9,4.9,0,0,1-1.9-.76c2.074-.856,4.244-.868,6.366-1.206,2.17-.338,4.352-.651,6.547-.844-3.545,1.3-7.306,1.4-11,1.941,4.594,1.061,14.817-1.748,17.313-4.738C760.906,129.538,761,129.6,761.1,129.659Z" transform="translate(19.869 7.286)"/>
      <path id="Trazado_890638" data-name="Trazado 890638" d="M739.96,103.453c4.75-.265,9.489-.518,14.239,1.157-2.471-.229-4.774-.482-7.089-.663C744.722,103.778,742.3,104.176,739.96,103.453Z" transform="translate(19.536 1.892)"/>
      <path id="Trazado_890639" data-name="Trazado 890639" d="M706.508,177.571c-2.134,0-4.075-.145-5.98.036a58.019,58.019,0,0,0-5.787,1.121c-.169-1.845-.422-3.593-.458-5.341a26.618,26.618,0,0,1,.289-5.281,7.817,7.817,0,0,1,3.846-5.148,5.7,5.7,0,0,1,1.628-.687c1.676-.41,5.787,1.145,6.655,3.159A14.429,14.429,0,0,1,706.508,177.571Z" transform="translate(10.139 14.014)" fill="#fcea10"/>
    </g>
  </g>
</svg>
