<svg id="_6" data-name="6" xmlns="http://www.w3.org/2000/svg" width="53.054" height="53.054" viewBox="0 0 53.054 53.054">
  <g id="Grupo_1083160" data-name="Grupo 1083160" transform="translate(0.777 0.77)">
    <g id="Grupo_1083157" data-name="Grupo 1083157" transform="translate(0 14.505)">
      <g id="Grupo_1083156" data-name="Grupo 1083156">
        <g id="Grupo_1083154" data-name="Grupo 1083154">
          <path id="Trazado_853600" data-name="Trazado 853600" d="M30.971,184.414H21.512a28.775,28.775,0,0,1,0-5.159A91.78,91.78,0,0,1,7.5,166.858c.6-10.019.61-10.113.018-19.179-.006-.088-.011-.177-.018-.267,5.606,0,5.609,3.524,5.609,15.205l2.872,2.621h0c3.338-2.493,6.062.543,14.931,8.263A69.072,69.072,0,0,1,30.971,184.414Z" transform="translate(-7.5 -147.412)" fill="#ffe6c7"/>
          <path id="Trazado_853601" data-name="Trazado 853601" d="M92.543,331.237H89.676a81.175,81.175,0,0,0-.264-9.7c-5.617-6.338-9.049-8.6-13.222-8.207l1.364-1.272h0c3.338-2.493,6.062.543,14.931,8.263a69.074,69.074,0,0,1,.058,10.913Z" transform="translate(-69.072 -294.235)" fill="#ffd5b0"/>
          <path id="Trazado_853602" data-name="Trazado 853602" d="M42.376,193.75c.328-6.05,1.343-13.952-4.383-13.952H36v13.928Z" transform="translate(-33.049 -176.442)" fill="#ffe6c7"/>
          <path id="Trazado_853603" data-name="Trazado 853603" d="M15.981,165.238c-6.49.485-5.542-4.335-5.542-7.517,0-6.076-.67-9.067-2.922-10.042-.006-.088-.011-.177-.018-.267,5.606,0,5.609,3.524,5.609,15.205Z" transform="translate(-7.5 -147.412)" fill="#ffd5b0"/>
        </g>
        <g id="Grupo_1083155" data-name="Grupo 1083155" transform="translate(27.842)">
          <path id="Trazado_853604" data-name="Trazado 853604" d="M276.379,184.414h9.46a28.779,28.779,0,0,0,0-5.159,91.786,91.786,0,0,0,14.012-12.4c-.6-10.019-.61-10.113-.018-19.179.006-.088.011-.177.018-.267-5.606,0-5.609,3.524-5.609,15.205l-2.872,2.621h0c-3.338-2.493-6.062.543-14.931,8.263A69.075,69.075,0,0,0,276.379,184.414Z" transform="translate(-276.193 -147.412)" fill="#ffe6c7"/>
          <path id="Trazado_853605" data-name="Trazado 853605" d="M276.379,331.237h2.867a81.177,81.177,0,0,1,.264-9.7c5.617-6.338,9.049-8.6,13.222-8.207l-1.364-1.272h0c-3.338-2.493-6.062.543-14.931,8.263a69.077,69.077,0,0,0-.058,10.913Z" transform="translate(-276.193 -294.235)" fill="#ffd5b0"/>
          <path id="Trazado_853606" data-name="Trazado 853606" d="M412.037,193.75c-.328-6.05-1.343-13.952,4.383-13.952h1.991v13.928Z" transform="translate(-397.708 -176.442)" fill="#ffe6c7"/>
          <path id="Trazado_853607" data-name="Trazado 853607" d="M422.647,165.238c6.49.485,5.542-4.335,5.542-7.517,0-6.076.67-9.067,2.922-10.042.006-.088.011-.177.018-.267-5.606,0-5.609,3.524-5.609,15.205Z" transform="translate(-407.471 -147.412)" fill="#ffd5b0"/>
        </g>
      </g>
    </g>
    <g id="Grupo_1083159" data-name="Grupo 1083159" transform="translate(11.518)">
      <g id="Grupo_1083158" data-name="Grupo 1083158">
        <path id="Trazado_853608" data-name="Trazado 853608" d="M147.221,21.706A14.28,14.28,0,0,1,132.94,35.984q-.654,0-1.3-.058a14.279,14.279,0,0,1,0-28.441q.64-.058,1.3-.058A14.28,14.28,0,0,1,147.221,21.706Z" transform="translate(-118.659 -7.427)" fill="#fff18d"/>
        <path id="Trazado_853609" data-name="Trazado 853609" d="M259.555,21.706a14.28,14.28,0,0,1-14.281,14.278q-.654,0-1.3-.058a14.279,14.279,0,0,0,0-28.441q.64-.058,1.3-.058A14.28,14.28,0,0,1,259.555,21.706Z" transform="translate(-230.993 -7.427)" fill="#ffd366"/>
      </g>
      <path id="Trazado_853610" data-name="Trazado 853610" d="M180.1,58.879a9.988,9.988,0,1,1-9.984-9.982A9.983,9.983,0,0,1,180.1,58.879Z" transform="translate(-155.832 -44.6)" fill="#ffd366"/>
      <path id="Trazado_853611" data-name="Trazado 853611" d="M253.465,58.879a9.988,9.988,0,0,1-11.486,9.869,9.982,9.982,0,0,0,0-19.738,9.988,9.988,0,0,1,11.486,9.869Z" transform="translate(-229.201 -44.6)" fill="#ffaf5f"/>
    </g>
  </g>
  <g id="Grupo_1083161" data-name="Grupo 1083161" transform="translate(0 0)">
    <path id="Trazado_853612" data-name="Trazado 853612" d="M364.981,426.652c-.963.749-1.93,1.466-2.875,2.131a.777.777,0,0,0-.326.712,28.01,28.01,0,0,1,0,4.99.777.777,0,0,0,.686.858.8.8,0,0,0,.087,0,.777.777,0,0,0,.771-.691,28.39,28.39,0,0,0,.039-4.861c.849-.605,1.712-1.249,2.571-1.917a.777.777,0,1,0-.954-1.227Z" transform="translate(-324.289 -382.295)"/>
    <path id="Trazado_853613" data-name="Trazado 853613" d="M293.894,160.515a175.526,175.526,0,0,1,0-19.324.777.777,0,0,0-.776-.828c-3.005,0-4.68,1.015-5.522,3.377a4.545,4.545,0,0,0-3.012,1.4c-2.266,2.41-1.958,7.408-1.687,11.817q.012.2.024.393a4.682,4.682,0,0,0-2.509.389c-2.094.869-4.544,3.02-8.6,6.583-.825.724-1.678,1.473-2.615,2.288a.778.778,0,0,0-.263.508,69.01,69.01,0,0,0-.06,11.037.777.777,0,0,0,.774.718l.06,0a.777.777,0,0,0,.716-.834,69.782,69.782,0,0,1,.03-10.46c.848-.738,1.628-1.423,2.385-2.088,7.572-6.648,9.287-8,12.045-5.316-1.078.958-3.492,3.075-6.229,5.294a.777.777,0,0,0,.979,1.207c3.726-3.02,6.86-5.856,6.891-5.884a.777.777,0,0,0,.052-1.1q-.385-.422-.757-.767l2.216-2.023a.777.777,0,0,0,.253-.574c0-5.728,0-9.513.67-11.745a3.261,3.261,0,0,1,3.339-2.634,178.957,178.957,0,0,0,.029,18.334,93,93,0,0,1-7.939,7.576.777.777,0,1,0,1.006,1.185,92.292,92.292,0,0,0,8.309-7.964A.777.777,0,0,0,293.894,160.515Zm-7.162-4.531-2.167,1.978-.051-.031c-.02-.352-.042-.71-.065-1.071-.252-4.1-.538-8.737,1.268-10.657a2.842,2.842,0,0,1,1.459-.827A68.649,68.649,0,0,0,286.732,155.984Z" transform="translate(-240.842 -125.819)"/>
    <path id="Trazado_853614" data-name="Trazado 853614" d="M179.906,350.672c-.937-.815-1.79-1.564-2.615-2.288-1.026-.9-2-1.752-2.86-2.493a.777.777,0,0,0-1.012,1.18c.857.735,1.779,1.545,2.846,2.482.756.664,1.536,1.349,2.384,2.087a69.786,69.786,0,0,1,.03,10.46.777.777,0,0,0,.716.834l.06,0a.777.777,0,0,0,.774-.718,68.989,68.989,0,0,0-.06-11.037A.777.777,0,0,0,179.906,350.672Z" transform="translate(-155.206 -309.882)"/>
    <path id="Trazado_853615" data-name="Trazado 853615" d="M16.164,159.345c-2.1-1.546-3.718-2.215-5.218-1.991l.027-.435c.273-4.4.583-9.383-1.674-11.785a4.528,4.528,0,0,0-3-1.395c-.841-2.362-2.517-3.377-5.522-3.377a.777.777,0,0,0-.777.777c0,.018,0,.035,0,.052.607,9.268.607,9.268,0,19.322a.778.778,0,0,0,.2.564,93.685,93.685,0,0,0,13.781,12.241,28.386,28.386,0,0,0,.039,4.861.777.777,0,0,0,.771.691.8.8,0,0,0,.087,0,.777.777,0,0,0,.686-.859,28.073,28.073,0,0,1,0-4.99.778.778,0,0,0-.326-.712A92.228,92.228,0,0,1,1.573,160.281c.575-9.512.587-9.909.036-18.333a3.259,3.259,0,0,1,3.331,2.634c.67,2.232.67,6.016.67,11.745a.777.777,0,0,0,.253.574l2.215,2.022q-.373.346-.757.767a.777.777,0,0,0,.052,1.1c.031.028,3.166,2.863,6.891,5.884a.777.777,0,0,0,.979-1.207c-2.736-2.218-5.149-4.334-6.228-5.293a3.74,3.74,0,0,1,2.469-1.306c.947-.023,2.1.511,3.758,1.729a.777.777,0,0,0,.922-1.251Zm-6.742-2.523c-.024.378-.047.753-.068,1.122l-.025.015-2.165-1.976a68.643,68.643,0,0,0-.444-10.607,2.825,2.825,0,0,1,1.447.822C9.963,148.11,9.676,152.739,9.422,156.822Z" transform="translate(0 -125.818)"/>
    <path id="Trazado_853616" data-name="Trazado 853616" d="M154.808,55.526a.777.777,0,0,0-1.449.563,10.759,10.759,0,1,0-.726-3.89.777.777,0,1,0,1.554,0,9.178,9.178,0,1,1,.62,3.328Z" transform="translate(-136.817 -37.15)"/>
    <path id="Trazado_853617" data-name="Trazado 853617" d="M141.276,15.048a14.933,14.933,0,0,0-2.846-8.806.777.777,0,1,0-1.259.911,13.507,13.507,0,1,1-10.953-5.6,13.527,13.527,0,0,1,8.618,3.1.777.777,0,0,0,.992-1.2,15.047,15.047,0,1,0,5.448,11.586Z" transform="translate(-99.641 0)"/>
    <path id="Trazado_853618" data-name="Trazado 853618" d="M229.674,87.173a1.546,1.546,0,0,1-1.545-1.543.777.777,0,1,0-1.554,0,3.1,3.1,0,0,0,2.322,3V89.69a.777.777,0,0,0,1.554,0V88.628a3.1,3.1,0,0,0-.777-6.1,1.543,1.543,0,1,1,1.545-1.543.777.777,0,1,0,1.554,0,3.1,3.1,0,0,0-2.322-3V76.929a.777.777,0,0,0-1.554,0v1.062a3.1,3.1,0,0,0,.777,6.1,1.543,1.543,0,1,1,0,3.086Z" transform="translate(-203.097 -68.261)"/>
  </g>
</svg>
