<svg xmlns="http://www.w3.org/2000/svg" xmlns:xlink="http://www.w3.org/1999/xlink" width="103" height="103" viewBox="0 0 103 103">
  <defs>
    <filter id="Trazado_842289" x="0" y="0" width="103" height="103" filterUnits="userSpaceOnUse">
      <feOffset dy="3" input="SourceAlpha"/>
      <feGaussianBlur stdDeviation="3" result="blur"/>
      <feFlood flood-opacity="0.161"/>
      <feComposite operator="in" in2="blur"/>
      <feComposite in="SourceGraphic"/>
    </filter>
  </defs>
  <g id="Grupo_1097294" data-name="Grupo 1097294" transform="translate(-275.5 -20433.543)">
    <g id="Grupo_1097314" data-name="Grupo 1097314">
      <g transform="matrix(1, 0, 0, 1, 275.5, 20433.54)" filter="url(#Trazado_842289)">
        <path id="Trazado_842289-2" data-name="Trazado 842289" d="M42.5,0A42.5,42.5,0,1,1,0,42.5,42.5,42.5,0,0,1,42.5,0Z" transform="translate(9 6)" fill="#3c1c74"/>
      </g>
      <g id="vision_1_" data-name="vision (1)" transform="translate(302.058 20458.752)">
        <g id="Grupo_1081809" data-name="Grupo 1081809" transform="translate(0.727 0.757)">
          <g id="Grupo_1081808" data-name="Grupo 1081808">
            <path id="Trazado_850023" data-name="Trazado 850023" d="M119.5,65.323c1.259.581,4.365,8.968,4.365,8.968,1.1,3.331.233,7.728-1.129,11.534a.29.29,0,0,0,.274.387l1.287.095h14.79a.29.29,0,0,0,.285-.232c.6-2.92,1.559-6.967,6.028-6.361a25.425,25.425,0,0,0,5.207.472c1.433-.235,2.862-.864,3.281-2.567a2.715,2.715,0,0,0-.419-2.253.656.656,0,0,1,.21-.812,2.917,2.917,0,0,1,.687-.337.766.766,0,0,0,.515-.771,1.369,1.369,0,0,0-.6-.979.1.1,0,0,1-.015-.141,7.524,7.524,0,0,1,1-.942l.02-.016a.776.776,0,0,0-.034-1.214c-.627-.473-2.056-1.742-.22-2.307,1.19-.366,1.745-.945,1.747-1.831,0-.76-.482-1.2-1.115-1.683a9.667,9.667,0,0,1-2.721-3,1.2,1.2,0,0,1-.062-1.056c.349-.82,1.235-1.673,1.042-2.5a10.185,10.185,0,0,1-.968-3.1c-.447-6.851-5.522-10.977-11.838-12.237a17.1,17.1,0,0,0-2.132-.281l-.529-.038-1.092.4L129.863,41.5Z" transform="translate(-108.655 -38.238)" fill="#f5c395"/>
            <path id="Trazado_850024" data-name="Trazado 850024" d="M143.428,54.657a18.286,18.286,0,0,0-4.968-12.544l-8.6-.612L119.5,65.323c.929.429,2.436,5.107,3.163,7.53h0c.258.861.418,1.437.418,1.437,1.1,3.331.783,7.822-.578,11.628a.29.29,0,0,0,.274.386H124.3a19.288,19.288,0,0,0,.6-12.552.579.579,0,0,1,.546-.746A18.392,18.392,0,0,0,143.428,54.657Z" transform="translate(-108.655 -38.238)" fill="#d6995c"/>
            <path id="Trazado_850025" data-name="Trazado 850025" d="M44.614,24.236a16.418,16.418,0,0,0-28.329-11.3s-.523.679-.809,1.036a16.062,16.062,0,0,0-3.24,10.265c0,9.067,6.888,15.785,15.956,15.785,4.916,0,9.22-1.591,12.229-5.015.21-.239.581-.608.827-.865.153-.159.251-.282.251-.282A16.345,16.345,0,0,0,44.614,24.236Z" transform="translate(-11.777 -7.818)" fill="#f9f8f9"/>
            <path id="Trazado_850026" data-name="Trazado 850026" d="M37.236,81.124A16.419,16.419,0,1,1,12.055,60.17a16.418,16.418,0,0,0,25.18,20.954Z" transform="translate(-7.501 -55.1)" fill="#e8e8e8"/>
          </g>
          <path id="Trazado_850027" data-name="Trazado 850027" d="M91,127.617a.387.387,0,0,0,0-.582C89.733,125.923,84.926,122,80.037,122c-4.937.464-9,3.923-10.265,5.035a.387.387,0,0,0,0,.582c1.265,1.112,5.427,4.6,10.265,5.035C84.926,132.652,89.733,128.73,91,127.617Z" transform="translate(-63.623 -110.943)" fill="#e8e8e8"/>
          <path id="Trazado_850028" data-name="Trazado 850028" d="M64.525,127.733c1.057.981,4.594,4.035,8.584,5.009-4.734-.222-9.294-3.945-10.521-5.025a.385.385,0,0,1,0-.581c1.227-1.08,5.787-4.8,10.521-5.025-3.99.973-7.526,4.028-8.584,5.009A.423.423,0,0,0,64.525,127.733Z" transform="translate(-57.134 -111.042)" fill="#dcdbdd"/>
          <path id="Trazado_850029" data-name="Trazado 850029" d="M135.209,127.326a5.327,5.327,0,0,0-8.421-4.335l-.53.505a5.051,5.051,0,0,0-1.427,3.83,4.894,4.894,0,0,0,5.052,5.081,5.085,5.085,0,0,0,3.99-1.629c.114-.131.353-.368.353-.368A5.3,5.3,0,0,0,135.209,127.326Z" transform="translate(-113.469 -110.943)" fill="#91dafa"/>
          <path id="Trazado_850030" data-name="Trazado 850030" d="M131.67,139.58a5.327,5.327,0,1,1-7.427-7.428,5.327,5.327,0,0,0,7.427,7.428Z" transform="translate(-110.913 -120.112)" fill="#75cff9"/>
          <path id="Trazado_850031" data-name="Trazado 850031" d="M158.515,154.421a2.422,2.422,0,0,0-3.472-2.182s-.159.105-.241.158a2.259,2.259,0,0,0-.95,2.024,2.091,2.091,0,0,0,2.242,2.2,2.142,2.142,0,0,0,2.149-1.255,1.186,1.186,0,0,1,.16-.212A2.421,2.421,0,0,0,158.515,154.421Z" transform="translate(-139.679 -138.037)" fill="#857e87"/>
          <path id="Trazado_850032" data-name="Trazado 850032" d="M156.73,157.382a2.421,2.421,0,1,1-3.36-2.911,2.447,2.447,0,0,0-.111.729,2.422,2.422,0,0,0,3.471,2.182Z" transform="translate(-138.007 -140.269)" fill="#766e7a"/>
        </g>
        <g id="Grupo_1081810" data-name="Grupo 1081810" transform="translate(0.001)">
          <path id="Trazado_850033" data-name="Trazado 850033" d="M333.589,67.144c.553-.186,2.235-.753,2.239-2.524a2.849,2.849,0,0,0-1.4-2.265,9.261,9.261,0,0,1-2.273-2.368,1.279,1.279,0,0,1-.008-1.354l.128-.2a2.986,2.986,0,0,0,.677-2.248,4.514,4.514,0,0,0-.346-.888,5.325,5.325,0,0,1-.6-2.105,13.078,13.078,0,0,0-4.428-9.176A17.566,17.566,0,0,0,318.167,40a.726.726,0,0,0-.189,1.44c5.759.755,12.088,4.26,12.58,11.836a6.743,6.743,0,0,0,.739,2.63,3.559,3.559,0,0,1,.245.6c.062.267-.232.735-.491,1.148-.045.072-.091.144-.135.216a2.739,2.739,0,0,0,.023,2.9,10.612,10.612,0,0,0,2.606,2.732c.654.506.833.745.832,1.113,0,.273,0,.73-1.25,1.15a1.715,1.715,0,0,0-1.288,1.336,2.632,2.632,0,0,0,1.106,2.245.2.2,0,0,1,.082.125.42.42,0,0,1-.11.278,1.355,1.355,0,0,1-.7.5.706.706,0,0,0-.6.575.734.734,0,0,0,.369.771c.136.077.454.274.473.428a.189.189,0,0,1-.11.171,3.643,3.643,0,0,0-.765.391,1.349,1.349,0,0,0-.429,1.764,2.146,2.146,0,0,1,.348,1.734c-.277,1.13-1.132,1.776-2.689,2.032a19.132,19.132,0,0,1-4-.338c-.326-.046-.656-.093-.988-.138a4.952,4.952,0,0,0-5.24,2.3,14.634,14.634,0,0,0-1.637,4.892.726.726,0,1,0,1.424.287c.725-3.6,1.621-6.536,5.258-6.04.329.045.657.091.981.137a18.365,18.365,0,0,0,4.435.333c2.143-.353,3.443-1.4,3.864-3.12a3.366,3.366,0,0,0-.437-2.693,4.352,4.352,0,0,1,.458-.214,1.634,1.634,0,0,0,.965-1.674,1.612,1.612,0,0,0-.285-.745,3.024,3.024,0,0,0,.452-.476,1.8,1.8,0,0,0,.4-1.355,1.636,1.636,0,0,0-.643-1.088,1.348,1.348,0,0,1-.55-.853c.006-.035.1-.119.318-.193Z" transform="translate(-286.247 -36.124)"/>
          <path id="Trazado_850034" data-name="Trazado 850034" d="M143.219,372.53a.726.726,0,0,0-.463.917c1.039,3.156.76,7.7-.71,11.572a.726.726,0,1,0,1.358.515c1.6-4.23,1.885-9.036.731-12.542A.726.726,0,0,0,143.219,372.53Z" transform="translate(-128.248 -336.421)"/>
          <path id="Trazado_850035" data-name="Trazado 850035" d="M267.12,102.795a16.974,16.974,0,0,0-1.748-7.55.726.726,0,0,0-1.3.641,15.7,15.7,0,0,1-5.916,20.3.726.726,0,1,0,.758,1.239,17.131,17.131,0,0,0,8.21-14.633Z" transform="translate(-232.839 -85.654)"/>
          <path id="Trazado_850036" data-name="Trazado 850036" d="M22.393,31.928A15.69,15.69,0,1,1,29.5,7.478a.726.726,0,1,0,1.144-.9A17.134,17.134,0,1,0,22.879,33.3a.726.726,0,1,0-.486-1.369Z" transform="translate(-0.001)"/>
          <path id="Trazado_850037" data-name="Trazado 850037" d="M147.648,150.795a3.147,3.147,0,1,0-3.147-3.147A3.151,3.151,0,0,0,147.648,150.795Zm0-4.842a1.695,1.695,0,1,1-1.695,1.695A1.7,1.7,0,0,1,147.648,145.953Z" transform="translate(-130.508 -130.507)"/>
          <path id="Trazado_850038" data-name="Trazado 850038" d="M77.017,120.552a.726.726,0,0,0-.225-.526c-.237-.226-5.864-5.527-11.783-5.527s-11.546,5.3-11.783,5.527a.726.726,0,0,0,0,1.051c.237.226,5.864,5.527,11.783,5.527s11.546-5.3,11.783-5.527A.726.726,0,0,0,77.017,120.552Zm-17.059-3.33a5.974,5.974,0,0,0-.761,1.635.726.726,0,1,0,1.395.406,4.663,4.663,0,0,1,4.417-3.311,4.6,4.6,0,0,1,0,9.2,4.671,4.671,0,0,1-4.32-3.014.726.726,0,0,0-1.364.5,6,6,0,0,0,.628,1.242,24.277,24.277,0,0,1-5.128-3.328A24.276,24.276,0,0,1,59.959,117.222Zm10.1,6.661a6.035,6.035,0,0,0,0-6.661,24.278,24.278,0,0,1,5.133,3.331A24.275,24.275,0,0,1,70.059,123.883Z" transform="translate(-47.869 -103.412)"/>
          <path id="Trazado_850039" data-name="Trazado 850039" d="M231.516,80.712a.725.725,0,0,0,.557-.259l1.547-1.844a.726.726,0,1,0-1.113-.934l-1.547,1.844a.726.726,0,0,0,.556,1.193Z" transform="translate(-208.44 -69.918)"/>
          <path id="Trazado_850040" data-name="Trazado 850040" d="M93.95,242.8,92.4,244.645a.726.726,0,1,0,1.113.934l1.547-1.844a.726.726,0,1,0-1.113-.934Z" transform="translate(-83.301 -219.054)"/>
          <path id="Trazado_850041" data-name="Trazado 850041" d="M170.954,58.334V55.726a.726.726,0,1,0-1.453,0v2.608a.726.726,0,1,0,1.453,0Z" transform="translate(-153.087 -49.674)"/>
          <path id="Trazado_850042" data-name="Trazado 850042" d="M169.5,257.8v2.608a.726.726,0,1,0,1.453,0V257.8a.726.726,0,0,0-1.453,0Z" transform="translate(-153.087 -232.176)"/>
          <path id="Trazado_850043" data-name="Trazado 850043" d="M94.507,80.713a.726.726,0,0,0,.556-1.193l-1.547-1.844a.726.726,0,1,0-1.113.934l1.547,1.844A.725.725,0,0,0,94.507,80.713Z" transform="translate(-83.301 -69.919)"/>
          <path id="Trazado_850044" data-name="Trazado 850044" d="M233.621,244.645l-1.547-1.844a.726.726,0,1,0-1.113.934l1.547,1.844a.726.726,0,1,0,1.113-.934Z" transform="translate(-208.441 -219.053)"/>
        </g>
      </g>
      <path id="Trazado_873920" data-name="Trazado 873920" d="M72.688,163.4a.808.808,0,0,0,.808-.808v-.717h.717a.808.808,0,1,0,0-1.616H73.5v-.717a.808.808,0,0,0-1.617,0v.717h-.717a.808.808,0,1,0,0,1.616h.717v.717A.808.808,0,0,0,72.688,163.4Z" transform="translate(282.142 20323.832)" fill="#f7df3f"/>
      <path id="Trazado_873921" data-name="Trazado 873921" d="M72.688,163.4a.808.808,0,0,0,.808-.808v-.717h.717a.808.808,0,1,0,0-1.616H73.5v-.717a.808.808,0,0,0-1.617,0v.717h-.717a.808.808,0,1,0,0,1.616h.717v.717A.808.808,0,0,0,72.688,163.4Z" transform="translate(227.037 20307.398)" fill="#f7df3f"/>
      <path id="Trazado_873922" data-name="Trazado 873922" d="M72.688,163.4a.808.808,0,0,0,.808-.808v-.717h.717a.808.808,0,1,0,0-1.616H73.5v-.717a.808.808,0,0,0-1.617,0v.717h-.717a.808.808,0,1,0,0,1.616h.717v.717A.808.808,0,0,0,72.688,163.4Z" transform="translate(267.707 20349.602)" fill="#f7df3f"/>
    </g>
  </g>
</svg>
