<svg xmlns="http://www.w3.org/2000/svg" xmlns:xlink="http://www.w3.org/1999/xlink" width="103" height="103" viewBox="0 0 103 103">
  <defs>
    <filter id="Elipse_5246" x="0" y="0" width="103" height="103" filterUnits="userSpaceOnUse">
      <feOffset dy="3" input="SourceAlpha"/>
      <feGaussianBlur stdDeviation="3" result="blur"/>
      <feFlood flood-opacity="0.161"/>
      <feComposite operator="in" in2="blur"/>
      <feComposite in="SourceGraphic"/>
    </filter>
  </defs>
  <g id="Grupo_1097313" data-name="Grupo 1097313" transform="translate(-275.5 -17197.816)">
    <g id="Grupo_1097295" data-name="Grupo 1097295" transform="translate(0 -3381.543)">
      <g transform="matrix(1, 0, 0, 1, 275.5, 20579.36)" filter="url(#Elipse_5246)">
        <circle id="Elipse_5246-2" data-name="Elipse 5246" cx="42.5" cy="42.5" r="42.5" transform="translate(9 6)" fill="#3c1c74"/>
      </g>
    </g>
    <g id="Grupo_1097312" data-name="Grupo 1097312" transform="translate(-0.66 -1.991)">
      <g id="empleados" transform="translate(300.56 17223.188)">
        <path id="Trazado_873898" data-name="Trazado 873898" d="M239.3,271.482l-4.581-1.8H218.46l-4.581,1.8a4.435,4.435,0,0,0-2.807,4.3l.613,15.3H241.5l.613-15.3A4.435,4.435,0,0,0,239.3,271.482Z" transform="translate(-188.724 -244.526)" fill="#f6f6f6"/>
        <rect id="Rectángulo_401947" data-name="Rectángulo 401947" width="10.348" height="8.869" transform="translate(32.692 19.219)" fill="#b48764"/>
        <path id="Trazado_873899" data-name="Trazado 873899" d="M282.781,39.085a9.56,9.56,0,0,0-5.79,2.217s-3.08,0-3.08,3.7a27.611,27.611,0,0,0,.739,5.89h17C293.128,42.757,289.618,38.715,282.781,39.085Z" transform="translate(-244.916 -38.321)" fill="#5c414b"/>
        <path id="Trazado_873900" data-name="Trazado 873900" d="M278.347,66.762a6.64,6.64,0,0,1-1.355-6.535s-3.08,0-3.08,3.7a27.611,27.611,0,0,0,.739,5.89h3.7Z" transform="translate(-244.916 -57.246)" fill="#503441"/>
        <path id="Trazado_873901" data-name="Trazado 873901" d="M284.668,116.432h-.739l-1.45-1.752c-6.652,1.386-10.138-1.487-10.138-1.487a7.48,7.48,0,0,1-2.591,4.033l-1.367-.794h0a1.448,1.448,0,0,0-.247.026,1.562,1.562,0,0,0-1.205,1.56v.535a1.552,1.552,0,0,0,1.182,1.544,1.455,1.455,0,0,0,.411.026.715.715,0,0,1,.752.591,7.382,7.382,0,0,0,14.526.01.718.718,0,0,1,.716-.6h.152a1.478,1.478,0,0,0,1.478-1.478v-.739A1.478,1.478,0,0,0,284.668,116.432Z" transform="translate(-238.673 -104.605)" fill="#c39772"/>
        <path id="Trazado_873902" data-name="Trazado 873902" d="M456.738,307.051l3.216-3.216a4.419,4.419,0,0,1,.657,2.491L460,321.63h-4.558V310.186A4.434,4.434,0,0,1,456.738,307.051Z" transform="translate(-407.226 -275.065)" fill="#edebed"/>
        <path id="Trazado_873904" data-name="Trazado 873904" d="M344.366,300.893l-.149-3.186h-2.971v3.1Z" transform="translate(-304.977 -269.586)" fill="#4b3f4e"/>
        <g id="Grupo_1097309" data-name="Grupo 1097309" transform="translate(29.736 22.937)">
          <path id="Trazado_873905" data-name="Trazado 873905" d="M289.024,253.909l-5.913-5.174-2.217,2.217,3.434,5.152a1.478,1.478,0,0,0,2.275.225Z" transform="translate(-280.894 -248.735)" fill="#edebed"/>
          <path id="Trazado_873906" data-name="Trazado 873906" d="M357.693,253.909l5.913-5.174,2.217,2.217-3.434,5.152a1.478,1.478,0,0,1-2.275.225Z" transform="translate(-349.563 -248.735)" fill="#edebed"/>
        </g>
        <path id="Trazado_873907" data-name="Trazado 873907" d="M278,134.141a7.394,7.394,0,0,1-5.9-7.24V121.6a8.169,8.169,0,0,1-2.353,3.143l-1.368-.794h0a1.447,1.447,0,0,0-.247.026,1.562,1.562,0,0,0-1.205,1.56v.535a1.552,1.552,0,0,0,1.182,1.544,1.459,1.459,0,0,0,.41.026.715.715,0,0,1,.752.591A7.363,7.363,0,0,0,278,134.141Z" transform="translate(-238.674 -112.117)" fill="#b48764"/>
        <path id="Trazado_873908" data-name="Trazado 873908" d="M31.527,313.093l-3.987-1.741H14.228l-3.987,1.741a4.434,4.434,0,0,0-2.656,4.252l.467,11.007H33.717l.467-11.007A4.435,4.435,0,0,0,31.527,313.093Z" transform="translate(-6.778 -281.786)" fill="#1caf1c"/>
        <path id="Trazado_914933" data-name="Trazado 914933" d="M0,0H7.391V7.391H0Z" transform="translate(10.41 24.392)" fill="#b48764"/>
        <circle id="Elipse_5548" data-name="Elipse 5548" cx="4.435" cy="4.435" r="4.435" transform="translate(9.671 0.741)" fill="#deaf73"/>
        <ellipse id="Elipse_5549" data-name="Elipse 5549" cx="8.869" cy="8.5" rx="8.869" ry="8.5" transform="translate(5.237 4.436)" fill="#d59f63"/>
        <path id="Trazado_873909" data-name="Trazado 873909" d="M55.384,104.725c-2.956-2.956-3.4-5.505-3.328-7.1a8.3,8.3,0,0,0-2.584,6,8.171,8.171,0,0,0,1.271,4.377Z" transform="translate(-44.234 -90.68)" fill="#cd915a"/>
        <path id="Trazado_873910" data-name="Trazado 873910" d="M60.524,151.234a3.983,3.983,0,0,0-.424-.031,1.478,1.478,0,0,1-1.045-.433L58.037,150a14.318,14.318,0,0,1-9.971-2.051,8.922,8.922,0,0,1-2.723,3.713l-1.4-.457h0a1.442,1.442,0,0,0-.248.026,1.562,1.562,0,0,0-1.2,1.559v.535a1.552,1.552,0,0,0,1.181,1.544,1.458,1.458,0,0,0,.412.026.714.714,0,0,1,.751.59,7.382,7.382,0,0,0,14.525.02.724.724,0,0,1,.755-.607,1.488,1.488,0,0,0,.481-.035,1.531,1.531,0,0,0,1.12-1.546c-.008-.336-.008-.664-.008-.664A1.543,1.543,0,0,0,60.524,151.234Z" transform="translate(-37.991 -135.68)" fill="#c39772"/>
        <g id="Grupo_1097310" data-name="Grupo 1097310" transform="translate(0.802 32.277)">
          <path id="Trazado_873911" data-name="Trazado 873911" d="M11.554,340.2l-2.7-3.241a4.423,4.423,0,0,0-1.27,3.281l.467,11.007h4.7v-7.735A5.174,5.174,0,0,0,11.554,340.2Z" transform="translate(-7.58 -336.964)" fill="#1caf1c"/>
          <path id="Trazado_873912" data-name="Trazado 873912" d="M211.251,340.2l2.7-3.241a4.423,4.423,0,0,1,1.27,3.281l-.467,11.007h-4.7v-7.735A5.174,5.174,0,0,1,211.251,340.2Z" transform="translate(-188.618 -336.964)" fill="#1caf1c"/>
        </g>
        <path id="Trazado_873913" data-name="Trazado 873913" d="M47.664,162.046v-5.278a10.67,10.67,0,0,1-2.319,2.779l-1.4-.457h0a1.445,1.445,0,0,0-.248.026,1.562,1.562,0,0,0-1.2,1.559v.535a1.552,1.552,0,0,0,1.181,1.544,1.458,1.458,0,0,0,.412.026.713.713,0,0,1,.751.59,7.363,7.363,0,0,0,8.73,5.916A7.394,7.394,0,0,1,47.664,162.046Z" transform="translate(-37.992 -143.567)" fill="#b48764"/>
        <g id="Grupo_1097311" data-name="Grupo 1097311" transform="translate(7.214 27.252)">
          <path id="Trazado_873914" data-name="Trazado 873914" d="M74.83,293.953,70.373,289.5l-2.228,2.228,2.748,4.461a.743.743,0,0,0,1.115.175Z" transform="translate(-68.145 -289.496)" fill="#1caf1c"/>
          <path id="Trazado_873915" data-name="Trazado 873915" d="M131.3,293.953l4.457-4.457,2.228,2.228-2.748,4.461a.743.743,0,0,1-1.115.175Z" transform="translate(-124.611 -289.496)" fill="#1caf1c"/>
        </g>
        <path id="Trazado_873916" data-name="Trazado 873916" d="M283.244,361.686h-2.971a.794.794,0,0,0,0,1.588h2.971a.794.794,0,0,0,0-1.588Z" transform="translate(-249.893 -326.792)"/>
        <path id="Trazado_873917" data-name="Trazado 873917" d="M248.2,58.46l-4.323-1.668-2.2-2.2a.79.79,0,0,0-.51-.23V52.6a8.188,8.188,0,0,0,2.077-4.091,2.271,2.271,0,0,0,.557-.044,2.35,2.35,0,0,0,1.823-2.33v-.579a2.379,2.379,0,0,0-.7-1.689c.7-3.813.124-6.921-1.677-9-1.742-2.012-4.549-2.973-8.117-2.78a10.634,10.634,0,0,0-6.1,2.25,4.183,4.183,0,0,0-1.634.555,4.226,4.226,0,0,0-1.933,3.931,19.825,19.825,0,0,0,.55,4.612,2.353,2.353,0,0,0-1.293,2.131v.57a2.35,2.35,0,0,0,1.823,2.33,2.267,2.267,0,0,0,.557.044,8.189,8.189,0,0,0,2.077,4.091v1.754a.79.79,0,0,0-.51.23l-2.2,2.2-4.323,1.668a5.257,5.257,0,0,0-1.062.556.794.794,0,1,0,.892,1.313,3.673,3.673,0,0,1,.741-.388l4.012-1.548,3.068,4.6a2.271,2.271,0,0,0,1.672,1c.076.008.152.011.227.011.395,0,1.319-1.1,1.658-1.3l-1.2.934c-.019.438.32-.191.758-.172h.036c.422,0,.774.667.793.241l.611,1.138h1.648l.611-1.138c.019.426.37-.241.793-.241h.036c.438-.019.778.61.758.172l-1.244-.934c.339.192,1.308,1.3,1.7,1.3.075,0,.151,0,.227-.011a2.271,2.271,0,0,0,1.672-1l3.068-4.6,4.012,1.548a3.654,3.654,0,0,1,1.428,1l-2.745,2.745a5.216,5.216,0,0,0-1.538,3.713V78.683a.794.794,0,0,0,1.588,0V67.395a3.639,3.639,0,0,1,1.073-2.59l2.409-2.409a3.659,3.659,0,0,1,.127,1.11l-.615,15.146a.794.794,0,0,0,.761.826h.033a.794.794,0,0,0,.793-.762l.615-15.147A5.249,5.249,0,0,0,248.2,58.46Zm-13.032.834-4.406-3.855v-1.52a8.217,8.217,0,0,0,8.811,0v1.52Zm-8.124-12.368a.681.681,0,0,1-.185-.013.77.77,0,0,1-.554-.775v-.57a.753.753,0,0,1,.56-.755.69.69,0,0,1,.68.26,1.107,1.107,0,0,0,1.522.239,5.764,5.764,0,0,0,1.3-1.273.794.794,0,0,0-1.274-.947,4.215,4.215,0,0,1-.618.668,2.271,2.271,0,0,0-.861-.46,18.26,18.26,0,0,1-.567-4.475,2.782,2.782,0,0,1,1.114-2.539,2.577,2.577,0,0,1,1.187-.381.8.8,0,0,0,.548-.219,8.944,8.944,0,0,1,5.314-2.01c3.06-.165,5.422.607,6.83,2.234s1.893,4.157,1.38,7.308a3.441,3.441,0,0,0-.677.047L242,41.474a.8.8,0,0,0-.934-.463c-.074.019-7.406,1.878-10.48-1.95a.794.794,0,1,0-1.238.994c3.139,3.909,9.369,3.058,11.442,2.644l.577,1.385a1.305,1.305,0,0,0,1.508.773,1.714,1.714,0,0,1,.594-.044.749.749,0,0,1,.563.745v.579a.77.77,0,0,1-.554.775.673.673,0,0,1-.185.013,1.547,1.547,0,0,0-1.608,1.26,6.625,6.625,0,0,1-13.032,0A1.546,1.546,0,0,0,227.047,46.926Zm4.573,15.494a.682.682,0,0,1-.507-.3l-3.091-4.636,1.243-1.243,4.745,4.152-1.833,1.833A.682.682,0,0,1,231.619,62.419Zm2.8.85.048-1.091.706-.706.706.706.048,1.091Zm4.813-1.154a.692.692,0,0,1-1.065.105l-1.833-1.833,4.745-4.152,1.243,1.243Z" transform="translate(-197.363 -32.066)"/>
        <path id="Trazado_873918" data-name="Trazado 873918" d="M25.179,62.618,21.3,60.926l-2.119-2.119a.789.789,0,0,0-.51-.23V57.328a8.2,8.2,0,0,0,3.562-5.339,2.281,2.281,0,0,0,.627-.06,2.363,2.363,0,0,0,1.753-2.315v-.579A2.367,2.367,0,0,0,23.6,47.083a8.978,8.978,0,0,0,.275-2.2,9.257,9.257,0,0,0-4.458-7.85,5.148,5.148,0,0,0-5.249-4.97,5.148,5.148,0,0,0-5.249,4.97,9.257,9.257,0,0,0-4.458,7.85,8.978,8.978,0,0,0,.273,2.193,2.372,2.372,0,0,0-1.016,1.967v.57a2.363,2.363,0,0,0,1.753,2.315,2.277,2.277,0,0,0,.627.06,8.2,8.2,0,0,0,3.563,5.339v1.249a.789.789,0,0,0-.51.23L7.027,60.926,3.15,62.618A5.284,5.284,0,0,0,0,67.653L.474,78.715a.794.794,0,0,0,.793.76H1.3a.794.794,0,0,0,.76-.827L1.591,67.585a3.656,3.656,0,0,1,.5-2l2.084,2.5A4.414,4.414,0,0,1,5.2,70.907v7.774a.794.794,0,0,0,1.588,0V70.907A6.005,6.005,0,0,0,5.4,67.07L3.183,64.412a3.6,3.6,0,0,1,.6-.338L7.164,62.6l2.388,3.875a1.537,1.537,0,0,0,2.306.363l1.513-1.291V78.681a.794.794,0,1,0,1.588,0V65.546l1.513,1.291a1.537,1.537,0,0,0,2.306-.363L21.165,62.6l3.379,1.475a3.6,3.6,0,0,1,.6.338L22.931,67.07a6,6,0,0,0-1.389,3.837v7.774a.794.794,0,0,0,1.588,0V70.907a4.414,4.414,0,0,1,1.021-2.82l2.084-2.5a3.656,3.656,0,0,1,.5,2l-.469,11.062a.794.794,0,0,0,.76.827h.034a.794.794,0,0,0,.793-.76l.469-11.062A5.284,5.284,0,0,0,25.179,62.618ZM14.165,33.651A3.638,3.638,0,0,1,17.7,36.188a10.069,10.069,0,0,0-7.071,0A3.638,3.638,0,0,1,14.165,33.651ZM7.648,51.662A1.546,1.546,0,0,0,6.041,50.4a.686.686,0,0,1-.207-.018.775.775,0,0,1-.531-.77v-.57a.753.753,0,0,1,.56-.755.69.69,0,0,1,.679.26,1.107,1.107,0,0,0,1.522.239,5.759,5.759,0,0,0,1.285-1.25.794.794,0,0,0-1.27-.953,4.209,4.209,0,0,1-.606.651,2.275,2.275,0,0,0-1.2-.528,7.394,7.394,0,0,1-.23-1.825,7.95,7.95,0,0,1,8.12-7.748,7.949,7.949,0,0,1,8.12,7.748,7.392,7.392,0,0,1-.229,1.821,3.641,3.641,0,0,0-.618.1l-.6-.491a1.524,1.524,0,0,0-1.059-.347c-1.167.069-7.144.227-10.21-3.443a.794.794,0,0,0-1.218,1.018,11.347,11.347,0,0,0,6.593,3.638,19.433,19.433,0,0,0,4.9.374l.931.766a.792.792,0,0,0,.9.073,1.752,1.752,0,0,1,.782-.1.749.749,0,0,1,.563.745v.579a.775.775,0,0,1-.531.77.679.679,0,0,1-.207.018,1.548,1.548,0,0,0-1.608,1.26,6.626,6.626,0,0,1-13.033,0Zm6.516,7.015a8.2,8.2,0,0,0,2.92-.537v1.642l-2.92,2.92-2.92-2.92V58.139A8.194,8.194,0,0,0,14.165,58.676ZM10.872,65.59,8.484,61.714l1.223-1.223L13,63.779Zm6.584,0-2.123-1.812,3.288-3.288,1.223,1.223Z" transform="translate(0 -32.063)"/>
        <path id="Trazado_873919" data-name="Trazado 873919" d="M80.206,394.766H77.978a.794.794,0,1,0,0,1.588h2.228a.794.794,0,1,0,0-1.588Z" transform="translate(-69.013 -356.37)"/>
      </g>
    </g>
  </g>
</svg>
