<svg xmlns="http://www.w3.org/2000/svg" xmlns:xlink="http://www.w3.org/1999/xlink" width="103" height="103" viewBox="0 0 103 103">
  <defs>
    <filter id="Elipse_4743" x="0" y="0" width="103" height="103" filterUnits="userSpaceOnUse">
      <feOffset dy="3" input="SourceAlpha"/>
      <feGaussianBlur stdDeviation="3" result="blur"/>
      <feFlood flood-opacity="0.161"/>
      <feComposite operator="in" in2="blur"/>
      <feComposite in="SourceGraphic"/>
    </filter>
  </defs>
  <g id="Grupo_1097346" data-name="Grupo 1097346" transform="translate(-800.5 -17197.816)">
    <g transform="matrix(1, 0, 0, 1, 800.5, 17197.82)" filter="url(#Elipse_4743)">
      <circle id="Elipse_4743-2" data-name="Elipse 4743" cx="42.5" cy="42.5" r="42.5" transform="translate(9 6)" fill="#3c1c74"/>
    </g>
    <g id="Grupo_1097345" data-name="Grupo 1097345">
      <g id="analisis" transform="translate(826.623 17216.209)">
        <g id="Grupo_1097342" data-name="Grupo 1097342" transform="translate(0.802 7.36)">
          <g id="Grupo_1097340" data-name="Grupo 1097340">
            <path id="Trazado_873963" data-name="Trazado 873963" d="M7.5,49.082v33.09a1.467,1.467,0,0,0,1.467,1.467H52.2a1.467,1.467,0,0,0,1.467-1.467V49.082A1.467,1.467,0,0,0,52.2,47.615H8.967A1.467,1.467,0,0,0,7.5,49.082Z" transform="translate(-7.5 -44.026)" fill="#ebeef2"/>
            <path id="Trazado_873964" data-name="Trazado 873964" d="M403.345,47.616h-2.656a1.467,1.467,0,0,1,1.467,1.467v33.09a1.467,1.467,0,0,1-1.467,1.467h2.656a1.467,1.467,0,0,0,1.467-1.467V49.083A1.467,1.467,0,0,0,403.345,47.616Z" transform="translate(-358.641 -44.027)" fill="#d1d6de"/>
            <path id="Trazado_873965" data-name="Trazado 873965" d="M80.428,387.032v-2.567H111v2.567a1.022,1.022,0,0,1-1.022,1.022H81.45A1.022,1.022,0,0,1,80.428,387.032Z" transform="translate(-72.629 -344.853)" fill="#f2df33"/>
            <path id="Trazado_873966" data-name="Trazado 873966" d="M333.529,384.465v2.567a1.022,1.022,0,0,1-1.022,1.022H335.1a1.022,1.022,0,0,0,1.022-1.022v-2.567Z" transform="translate(-297.75 -344.853)" fill="#fcab29"/>
            <path id="Trazado_873967" data-name="Trazado 873967" d="M189.243,17.646V15.267a1.21,1.21,0,0,1,1.21-1.21h4.878a1.21,1.21,0,0,1,1.21,1.21v2.378h-7.3Z" transform="translate(-169.807 -14.057)" fill="#f2df33"/>
            <path id="Trazado_873968" data-name="Trazado 873968" d="M224.368,14.058h-2.612a1.21,1.21,0,0,1,1.21,1.21v2.378h2.612V15.268A1.21,1.21,0,0,0,224.368,14.058Z" transform="translate(-198.843 -14.058)" fill="#fcab29"/>
            <rect id="Rect치ngulo_401950" data-name="Rect치ngulo 401950" width="3.254" height="7.087" transform="translate(10.416 27.914)" fill="#48cfb7"/>
            <rect id="Rect치ngulo_401952" data-name="Rect치ngulo 401952" width="3.254" height="7.087" transform="translate(25.139 27.914)" fill="#48cfb7"/>
            <g id="Grupo_1097344" data-name="Grupo 1097344" transform="translate(3.173 6.035)">
              <path id="Trazado_873954" data-name="Trazado 873954" d="M13.14,31.476V27.738l.768.768a.8.8,0,0,0,1.133-1.132l-2.136-2.136a.8.8,0,0,0-1.133,0L9.637,27.374a.8.8,0,0,0,1.133,1.132l.768-.77v3.738a5.339,5.339,0,1,0,1.6,0Zm-.8,9.01a3.738,3.738,0,1,1,3.738-3.738A3.738,3.738,0,0,1,12.339,40.486Z" transform="translate(-6.597 -24.593)" fill="#abcdff"/>
              <path id="Trazado_873955" data-name="Trazado 873955" d="M47.678,30.334a5.339,5.339,0,1,0-6.14,5.273v3H39.669v1.6h1.869V42.08h1.6V40.212h1.869v-1.6H43.14v-3A5.336,5.336,0,0,0,47.678,30.334Zm-1.6,0A3.738,3.738,0,1,1,42.339,26.6,3.738,3.738,0,0,1,46.077,30.334Z" transform="translate(-20.578 -24.587)" fill="#fa5a69"/>
              <path id="Trazado_873957" data-name="Trazado 873957" d="M11.988,42.146a5.736,5.736,0,0,0,1.2-11.346V28.361l.085.085a1.2,1.2,0,0,0,1.7-1.7l-2.136-2.136a1.228,1.228,0,0,0-1.7,0L9,26.747a1.2,1.2,0,0,0,1.7,1.7l.085-.085V30.8a5.736,5.736,0,0,0,1.2,11.346Zm-.741-10.617a.4.4,0,0,0,.341-.4V27.4a.4.4,0,0,0-.683-.283l-.769.766a.4.4,0,1,1-.566-.566L11.7,25.178a.4.4,0,0,1,.566,0l2.136,2.136a.4.4,0,0,1-.566.566l-.769-.768a.4.4,0,0,0-.683.283v3.738a.4.4,0,0,0,.341.4,4.939,4.939,0,1,1-1.482,0Z" transform="translate(-6.246 -24.252)"/>
              <path id="Trazado_873958" data-name="Trazado 873958" d="M13.388,47.526A4.138,4.138,0,1,0,9.25,43.388,4.138,4.138,0,0,0,13.388,47.526Zm0-7.475a3.337,3.337,0,1,1-3.337,3.337A3.337,3.337,0,0,1,13.388,40.051Z" transform="translate(-7.646 -31.234)"/>
              <path id="Trazado_873959" data-name="Trazado 873959" d="M43.388,35.526a4.138,4.138,0,1,0-4.138-4.138A4.138,4.138,0,0,0,43.388,35.526Zm0-7.475a3.337,3.337,0,1,1-3.337,3.337A3.337,3.337,0,0,1,43.388,28.051Z" transform="translate(-21.628 -25.641)"/>
              <path id="Trazado_873960" data-name="Trazado 873960" d="M40.788,35.591V37.86H39.32a.4.4,0,0,0-.4.4v1.6a.4.4,0,0,0,.4.4h1.468v1.468a.4.4,0,0,0,.4.4h1.6a.4.4,0,0,0,.4-.4V40.263h1.468a.4.4,0,0,0,.4-.4v-1.6a.4.4,0,0,0-.4-.4H43.191V35.591a5.74,5.74,0,1,0-2.4,0Zm1.2-10.545a4.936,4.936,0,0,1,.741,9.816.4.4,0,0,0-.341.4v3a.4.4,0,0,0,.4.4h1.468v.8H42.79a.4.4,0,0,0-.4.4V41.33h-.8V39.862a.4.4,0,0,0-.4-.4H39.72v-.8h1.468a.4.4,0,0,0,.4-.4v-3a.4.4,0,0,0-.341-.4,4.936,4.936,0,0,1,.741-9.816Z" transform="translate(-20.229 -24.238)"/>
              <path id="Trazado_873961" data-name="Trazado 873961" d="M28.65,43.051h3.2a.4.4,0,1,0,0-.8h-3.2a.4.4,0,1,0,0,.8Z" transform="translate(-16.501 -32.631)"/>
              <path id="Trazado_873962" data-name="Trazado 873962" d="M28.65,39.051h3.2a.4.4,0,1,0,0-.8h-3.2a.4.4,0,0,0,0,.8Z" transform="translate(-16.501 -30.768)"/>
            </g>
          </g>
          <g id="Grupo_1097341" data-name="Grupo 1097341" transform="translate(31.603 14.747)">
            <path id="Trazado_873969" data-name="Trazado 873969" d="M409.456,293.308l5.971,10.342a2.247,2.247,0,0,0,3.069.823h0a2.247,2.247,0,0,0,.822-3.069l-5.971-10.342Z" transform="translate(-398.073 -276.185)" fill="#ed5575"/>
            <path id="Trazado_873970" data-name="Trazado 873970" d="M413.348,291.06l-3.892,2.247,2.327,4.031a12.237,12.237,0,0,0,3.892-2.247Z" transform="translate(-398.073 -276.184)" fill="#cc3a60"/>
            <circle id="Elipse_5557" data-name="Elipse 5557" cx="9.681" cy="9.681" r="9.681" fill="#f2df33"/>
            <circle id="Elipse_5558" data-name="Elipse 5558" cx="6.813" cy="6.813" r="6.813" transform="translate(2.868 2.868)" fill="#5c9cee"/>
          </g>
        </g>
        <g id="Grupo_1097343" data-name="Grupo 1097343" transform="translate(0 6.558)">
          <path id="Trazado_873972" data-name="Trazado 873972" d="M44.787,76.139H2.269a.665.665,0,0,1-.665-.665V42.385a.665.665,0,0,1,.665-.665H6.05a.8.8,0,1,0,0-1.6H2.269A2.271,2.271,0,0,0,0,42.385v33.09a2.271,2.271,0,0,0,2.269,2.269H7.8v1.765a1.826,1.826,0,0,0,1.824,1.824h8.029l-3.779,7.379a.8.8,0,1,0,1.428.731l4.154-8.11h8.868l4.154,8.11a.8.8,0,1,0,1.428-.731l-3.779-7.379h8.029a1.826,1.826,0,0,0,1.824-1.824V77.743h4.811a.8.8,0,0,0,0-1.6Zm-6.415,3.369a.22.22,0,0,1-.22.22H9.623a.22.22,0,0,1-.22-.22V77.743H38.372Z" transform="translate(0 -36.527)"/>
          <path id="Trazado_873973" data-name="Trazado 873973" d="M79.873,11.751h36.248a.665.665,0,0,1,.665.665v7.626a.8.8,0,0,0,1.6,0V12.416a2.271,2.271,0,0,0-2.269-2.269H98.954V8.57a2.015,2.015,0,0,0-2.012-2.012H92.063A2.015,2.015,0,0,0,90.051,8.57v1.577H79.873a.8.8,0,1,0,0,1.6ZM91.655,8.57a.409.409,0,0,1,.408-.408h4.878a.409.409,0,0,1,.408.408v1.577H91.655V8.57Z" transform="translate(-70.615 -6.558)"/>
          <path id="Trazado_873974" data-name="Trazado 873974" d="M98.2,267.576a.8.8,0,0,0-.8.8v7.087a.8.8,0,0,0,.8.8h3.254a.8.8,0,0,0,.8-.8v-7.087a.8.8,0,0,0-.8-.8Zm2.452,7.087h-1.65V269.18h1.65Z" transform="translate(-86.986 -239.662)"/>
          <path id="Trazado_873975" data-name="Trazado 873975" d="M167.039,229.248a.8.8,0,0,0-.8.8v11.186a.8.8,0,0,0,.8.8h3.254a.8.8,0,0,0,.8-.8V230.05a.8.8,0,0,0-.8-.8Zm2.452,11.186h-1.65v-9.582h1.65Z" transform="translate(-148.459 -205.433)"/>
          <path id="Trazado_873976" data-name="Trazado 873976" d="M235.875,267.576a.8.8,0,0,0-.8.8v7.087a.8.8,0,0,0,.8.8h3.254a.8.8,0,0,0,.8-.8v-7.087a.8.8,0,0,0-.8-.8Zm2.452,7.087h-1.65V269.18h1.65Z" transform="translate(-209.934 -239.662)"/>
          <path id="Trazado_873977" data-name="Trazado 873977" d="M304.711,311.832a.8.8,0,0,0-.8.8v2.355a.8.8,0,0,0,.8.8h3.254a.8.8,0,0,0,0-1.6h-2.452v-1.552A.8.8,0,0,0,304.711,311.832Z" transform="translate(-271.409 -279.186)"/>
          <path id="Trazado_873978" data-name="Trazado 873978" d="M318.273,170.092l-4.6-7.97a10.488,10.488,0,1,0-10.371,2.96,10.54,10.54,0,0,0,2.73.362,10.351,10.351,0,0,0,2.361-.273l4.6,7.97a3.049,3.049,0,1,0,5.281-3.049Zm-14.557-6.56a8.879,8.879,0,1,1,6.737-.887A8.822,8.822,0,0,1,303.716,163.532Zm12.64,9.335a1.446,1.446,0,0,1-1.974-.529l-4.426-7.668a10.528,10.528,0,0,0,2.5-1.446l4.427,7.668a1.443,1.443,0,0,1-.529,1.974Z" transform="translate(-263.928 -129.725)"/>
          <path id="Trazado_873979" data-name="Trazado 873979" d="M337.191,181.12a7.59,7.59,0,0,0-.38-5.5.8.8,0,1,0-1.451.684,6.007,6.007,0,1,1-1.811-2.238.8.8,0,1,0,.968-1.279,7.617,7.617,0,1,0,2.674,8.332Z" transform="translate(-287.833 -153.63)"/>
        </g>
      </g>
    </g>
  </g>
</svg>
