<svg xmlns="http://www.w3.org/2000/svg" xmlns:xlink="http://www.w3.org/1999/xlink" width="103" height="103" viewBox="0 0 103 103">
  <defs>
    <filter id="Elipse_5246" x="0" y="0" width="103" height="103" filterUnits="userSpaceOnUse">
      <feOffset dy="3" input="SourceAlpha"/>
      <feGaussianBlur stdDeviation="3" result="blur"/>
      <feFlood flood-opacity="0.161"/>
      <feComposite operator="in" in2="blur"/>
      <feComposite in="SourceGraphic"/>
    </filter>
  </defs>
  <g id="Grupo_1097334" data-name="Grupo 1097334" transform="translate(-275.5 -17335.156)">
    <g transform="matrix(1, 0, 0, 1, 275.5, 17335.16)" filter="url(#Elipse_5246)">
      <circle id="Elipse_5246-2" data-name="Elipse 5246" cx="42.5" cy="42.5" r="42.5" transform="translate(9 6)" fill="#3c1c74"/>
    </g>
    <g id="lista-de-quehaceres_4_" data-name="lista-de-quehaceres (4)" transform="translate(283.432 17357.748)">
      <g id="Grupo_1097315" data-name="Grupo 1097315" transform="translate(25.277 4.221)">
        <path id="Trazado_873923" data-name="Trazado 873923" d="M116.337,84.934H84.2a2.207,2.207,0,0,1-2.207-2.207V42.362A2.207,2.207,0,0,1,84.2,40.155h32.135a2.207,2.207,0,0,1,2.207,2.207V82.727A2.207,2.207,0,0,1,116.337,84.934Z" transform="translate(-81.995 -40.155)" fill="#c6865c"/>
      </g>
      <g id="Grupo_1097316" data-name="Grupo 1097316" transform="translate(25.277 4.221)">
        <path id="Trazado_873924" data-name="Trazado 873924" d="M116.36,40.155h-1.016V79.55a2.185,2.185,0,0,1-2.185,2.185H82V82.75a2.185,2.185,0,0,0,2.185,2.185h32.18a2.185,2.185,0,0,0,2.185-2.185V42.34a2.185,2.185,0,0,0-2.185-2.185Z" transform="translate(-81.995 -40.155)" fill="#b16e3d"/>
      </g>
      <g id="Grupo_1097317" data-name="Grupo 1097317" transform="translate(29.78 4.212)">
        <path id="Trazado_873925" data-name="Trazado 873925" d="M151.855,77.714H125.363a.526.526,0,0,1-.526-.526V40.6a.526.526,0,0,1,.526-.526h26.492a.526.526,0,0,1,.526.526V77.188A.526.526,0,0,1,151.855,77.714Z" transform="translate(-124.837 -40.073)" fill="#f9f6f9"/>
      </g>
      <g id="Grupo_1097318" data-name="Grupo 1097318" transform="translate(29.78 4.212)">
        <path id="Trazado_873926" data-name="Trazado 873926" d="M151.86,40.073h-2.176V74.5a.52.52,0,0,1-.52.52H124.837v2.176a.52.52,0,0,0,.52.52h26.5a.52.52,0,0,0,.52-.52v-36.6A.52.52,0,0,0,151.86,40.073Z" transform="translate(-124.837 -40.073)" fill="#dddaec"/>
      </g>
      <g id="Grupo_1097319" data-name="Grupo 1097319" transform="translate(27.889 26.033)">
        <circle id="Elipse_5550" data-name="Elipse 5550" cx="6.385" cy="6.385" r="6.385" fill="#b3e59f"/>
      </g>
      <g id="Grupo_1097320" data-name="Grupo 1097320" transform="translate(19.395 11.832)">
        <circle id="Elipse_5551" data-name="Elipse 5551" cx="6.385" cy="6.385" r="6.385" transform="translate(0)" fill="#b3e59f"/>
      </g>
      <g id="Grupo_1097321" data-name="Grupo 1097321" transform="translate(43.369 27.443)">
        <path id="Trazado_873927" data-name="Trazado 873927" d="M268.069,270.812H255.9a1.778,1.778,0,0,1-1.778-1.778v-6.173a1.778,1.778,0,0,1,1.778-1.778h12.174a1.778,1.778,0,0,1,1.778,1.778v6.173A1.778,1.778,0,0,1,268.069,270.812Z" transform="translate(-254.117 -261.083)" fill="#dddaec"/>
      </g>
      <g id="Grupo_1097322" data-name="Grupo 1097322" transform="translate(36.528 40.268)">
        <circle id="Elipse_5552" data-name="Elipse 5552" cx="6.385" cy="6.385" r="6.385" fill="#b3e59f"/>
      </g>
      <g id="Grupo_1097323" data-name="Grupo 1097323" transform="translate(28.592 26.736)">
        <path id="Trazado_873928" data-name="Trazado 873928" d="M122.128,254.359a6.384,6.384,0,0,1-8.593,8.593,6.384,6.384,0,1,0,8.593-8.593Z" transform="translate(-113.535 -254.359)" fill="#95d6a4"/>
      </g>
      <g id="Grupo_1097324" data-name="Grupo 1097324" transform="translate(20.098 12.536)">
        <path id="Trazado_873929" data-name="Trazado 873929" d="M41.321,119.262a6.384,6.384,0,0,1-8.593,8.593,6.384,6.384,0,1,0,8.593-8.593Z" transform="translate(-32.728 -119.262)" fill="#95d6a4"/>
      </g>
      <g id="Grupo_1097325" data-name="Grupo 1097325" transform="translate(37.232 40.972)">
        <path id="Trazado_873930" data-name="Trazado 873930" d="M204.319,389.789a6.384,6.384,0,0,1-8.593,8.593,6.384,6.384,0,1,0,8.593-8.593Z" transform="translate(-195.726 -389.789)" fill="#95d6a4"/>
      </g>
      <g id="Grupo_1097326" data-name="Grupo 1097326" transform="translate(52.008 41.47)">
        <path id="Trazado_873931" data-name="Trazado 873931" d="M350.26,404.264H338.085a1.778,1.778,0,0,1-1.778-1.778v-6.173a1.778,1.778,0,0,1,1.778-1.778H350.26a1.778,1.778,0,0,1,1.778,1.778v6.173A1.778,1.778,0,0,1,350.26,404.264Z" transform="translate(-336.307 -394.535)" fill="#dddaec"/>
      </g>
      <g id="Grupo_1097327" data-name="Grupo 1097327" transform="translate(34.875 13.352)">
        <path id="Trazado_873932" data-name="Trazado 873932" d="M187.262,136.759H175.088a1.778,1.778,0,0,1-1.778-1.778v-6.173a1.778,1.778,0,0,1,1.778-1.778h12.174a1.778,1.778,0,0,1,1.778,1.778v6.173A1.778,1.778,0,0,1,187.262,136.759Z" transform="translate(-173.31 -127.03)" fill="#dddaec"/>
      </g>
      <g id="Grupo_1097328" data-name="Grupo 1097328" transform="translate(43.369 27.443)">
        <path id="Trazado_873933" data-name="Trazado 873933" d="M268.088,261.083h0v7.108a.858.858,0,0,1-.858.858H254.117v0a1.76,1.76,0,0,0,1.76,1.76h12.211a1.76,1.76,0,0,0,1.76-1.76v-6.21A1.76,1.76,0,0,0,268.088,261.083Z" transform="translate(-254.117 -261.083)" fill="#d0cee7"/>
      </g>
      <g id="Grupo_1097329" data-name="Grupo 1097329" transform="translate(52.008 41.47)">
        <path id="Trazado_873934" data-name="Trazado 873934" d="M350.278,394.534h0v7.108a.858.858,0,0,1-.858.858H336.307v0a1.76,1.76,0,0,0,1.76,1.76h12.211a1.76,1.76,0,0,0,1.76-1.76v-6.21A1.76,1.76,0,0,0,350.278,394.534Z" transform="translate(-336.307 -394.534)" fill="#d0cee7"/>
      </g>
      <g id="Grupo_1097330" data-name="Grupo 1097330" transform="translate(34.875 13.352)">
        <path id="Trazado_873935" data-name="Trazado 873935" d="M187.28,127.029h0v7.108a.858.858,0,0,1-.858.858H173.309v0a1.76,1.76,0,0,0,1.76,1.76H187.28a1.76,1.76,0,0,0,1.76-1.76v-6.21A1.76,1.76,0,0,0,187.28,127.029Z" transform="translate(-173.309 -127.029)" fill="#d0cee7"/>
      </g>
      <g id="Grupo_1097331" data-name="Grupo 1097331" transform="translate(35.009 3.259)">
        <path id="Trazado_873936" data-name="Trazado 873936" d="M190.824,31h-15.4a.841.841,0,0,0-.841.841v2.044a.841.841,0,0,0,.841.841h15.4a.841.841,0,0,0,.841-.841V31.846A.841.841,0,0,0,190.824,31Z" transform="translate(-174.579 -31.005)" fill="#e28086"/>
      </g>
      <g id="Grupo_1097332" data-name="Grupo 1097332" transform="translate(35.009 3.259)">
        <path id="Trazado_873937" data-name="Trazado 873937" d="M190.833,31h-.7v1.363a.832.832,0,0,1-.832.832H174.579v.7a.832.832,0,0,0,.832.832h15.422a.832.832,0,0,0,.832-.832V31.837A.832.832,0,0,0,190.833,31Z" transform="translate(-174.579 -31.005)" fill="#dd636e"/>
      </g>
      <g id="Grupo_1097333" data-name="Grupo 1097333" transform="translate(18.615 0)">
        <path id="Trazado_873938" data-name="Trazado 873938" d="M293.55,283.7H285.9a.78.78,0,0,0,0,1.56h7.654a.78.78,0,0,0,0-1.56Z" transform="translate(-257.103 -253.88)"/>
        <path id="Trazado_873939" data-name="Trazado 873939" d="M288.47,316.29H285.9a.78.78,0,0,0,0,1.56h2.574a.78.78,0,0,0,0-1.56Z" transform="translate(-257.103 -283.044)"/>
        <path id="Trazado_873940" data-name="Trazado 873940" d="M65.979,40.69H62.607V19.484a.78.78,0,1,0-1.56,0V40.69H58.1V37.835a2.544,2.544,0,0,0,1.776-2.423V29.2A2.544,2.544,0,0,0,58.1,26.78V5h1.539a1.406,1.406,0,0,1,1.4,1.4v9.422a.78.78,0,1,0,1.56,0V6.405a2.968,2.968,0,0,0-2.965-2.965H52.737a1.614,1.614,0,0,0-1.474-.962H46.828a3.4,3.4,0,0,0-6.552,0H35.841a1.614,1.614,0,0,0-1.474.962H27.461A2.968,2.968,0,0,0,24.5,6.405V11.17a7.163,7.163,0,0,0,0,14.095V46.815a2.968,2.968,0,0,0,2.965,2.965h9.009A7.163,7.163,0,0,0,38,51.865a.78.78,0,1,0,1.071-1.135,5.553,5.553,0,0,1-1.759-4.077A5.6,5.6,0,1,1,41.9,52.165a.78.78,0,1,0-.281,1.535,7.172,7.172,0,0,0,7.743-3.92h1.894a2.543,2.543,0,0,0,2.516,2.2H65.979a2.543,2.543,0,0,0,2.54-2.54V43.23A2.542,2.542,0,0,0,65.979,40.69Zm-7.66-5.277a.981.981,0,0,1-.98.98H45.129a.981.981,0,0,1-.98-.98V29.2a.981.981,0,0,1,.98-.98H57.34a.981.981,0,0,1,.98.98v6.21ZM43.552,1.56a1.85,1.85,0,0,1,1.593.918H41.957a1.843,1.843,0,0,1,1.595-.918ZM35.789,4.091a.052.052,0,0,1,.052-.052H51.263a.052.052,0,0,1,.052.052V6.152a.052.052,0,0,1-.052.052H35.841a.052.052,0,0,1-.052-.052Zm2.357,3.673H48.957v.176a1.565,1.565,0,0,1-1.523,1.587,1.488,1.488,0,0,1-.708-.168A2.653,2.653,0,0,0,44.27,9.35a1.535,1.535,0,0,1-1.437,0,2.653,2.653,0,0,0-2.457.011,1.522,1.522,0,0,1-.708.168,1.565,1.565,0,0,1-1.523-1.587ZM20.175,18.217a5.6,5.6,0,1,1,5.6,5.6A5.611,5.611,0,0,1,20.175,18.217Zm8.494,14.2a5.6,5.6,0,1,1,5.6,5.6,5.611,5.611,0,0,1-5.6-5.6Zm-1.208,15.8a1.406,1.406,0,0,1-1.4-1.4V25.375A7.113,7.113,0,0,0,29,24.614v2.959a7.149,7.149,0,0,0,0,9.688v4.071a1.3,1.3,0,0,0,1.3,1.3h6.685a7.115,7.115,0,0,0-1.06,5.587H27.462Zm10.965-7.147H30.56v-2.53a7.165,7.165,0,1,0,0-12.251V23.548a7.159,7.159,0,0,0-4.5-12.489V6.405a1.406,1.406,0,0,1,1.4-1.4H29V9.039a.78.78,0,1,0,1.56,0V5h3.668V6.152a1.614,1.614,0,0,0,1.612,1.612h.745v.176a3.128,3.128,0,0,0,3.073,3.147,3.091,3.091,0,0,0,1.43-.34,1.094,1.094,0,0,1,1.011-.022,3.095,3.095,0,0,0,2.9,0,1.094,1.094,0,0,1,1.011.022,3.094,3.094,0,0,0,1.43.34,3.129,3.129,0,0,0,3.073-3.147V7.765h.745a1.614,1.614,0,0,0,1.612-1.612V5h3.668V26.663H45.129a2.543,2.543,0,0,0-2.54,2.54v6.21a2.543,2.543,0,0,0,2.54,2.54H56.543V40.69H53.768a2.525,2.525,0,0,0-1.338.382H47.4a7.144,7.144,0,0,0-8.973,0Zm10.414,1.56H51.3a2.537,2.537,0,0,0-.072.6v4.99H49.9a7.14,7.14,0,0,0-1.063-5.587ZM66.959,49.44a.981.981,0,0,1-.98.98H53.768a.981.981,0,0,1-.98-.98V43.23a.981.981,0,0,1,.98-.98H65.979a.981.981,0,0,1,.98.98v6.21Z" transform="translate(-18.615 0)"/>
        <path id="Trazado_873941" data-name="Trazado 873941" d="M375.741,417.153h-7.653a.78.78,0,1,0,0,1.56h7.653a.78.78,0,1,0,0-1.56Z" transform="translate(-330.655 -373.305)"/>
        <path id="Trazado_873942" data-name="Trazado 873942" d="M373.978,449.741h-5.891a.78.78,0,1,0,0,1.56h5.891a.78.78,0,0,0,0-1.56Z" transform="translate(-330.655 -402.468)"/>
        <path id="Trazado_873943" data-name="Trazado 873943" d="M183.178,128.357v-6.21a2.543,2.543,0,0,0-2.54-2.54H168.427a2.543,2.543,0,0,0-2.54,2.54v6.21a2.543,2.543,0,0,0,2.54,2.54h12.211A2.543,2.543,0,0,0,183.178,128.357Zm-15.731,0v-6.21a.981.981,0,0,1,.98-.98h12.211a.981.981,0,0,1,.98.98v6.21a.981.981,0,0,1-.98.98H168.427A.981.981,0,0,1,167.447,128.357Z" transform="translate(-150.407 -107.035)"/>
        <path id="Trazado_873944" data-name="Trazado 873944" d="M212.743,149.648h-7.653a.78.78,0,1,0,0,1.56h7.653a.78.78,0,1,0,0-1.56Z" transform="translate(-184.79 -133.918)"/>
        <path id="Trazado_873945" data-name="Trazado 873945" d="M212.743,182.236h-7.653a.78.78,0,1,0,0,1.56h7.653a.78.78,0,1,0,0-1.56Z" transform="translate(-184.79 -163.081)"/>
        <path id="Trazado_873946" data-name="Trazado 873946" d="M148.44,277.887a.78.78,0,0,0-.79-.77c-.57.007-1.173.012-1.693.014.338-.454.791-1.076,1.387-1.928a4.794,4.794,0,0,0,.781-1.62.742.742,0,0,0,.014-.077l.031-.24a.777.777,0,0,0,.006-.1,2.37,2.37,0,0,0-4.7-.458.78.78,0,0,0,1.531.3.81.81,0,0,1,1.6.116l-.018.14a3.435,3.435,0,0,1-.531,1.044c-.983,1.405-1.57,2.173-1.885,2.586-.393.515-.591.773-.459,1.2a.808.808,0,0,0,.525.532,5.1,5.1,0,0,0,1.415.066c.475,0,1.122,0,2.008-.016A.78.78,0,0,0,148.44,277.887Z" transform="translate(-130.343 -242.332)"/>
        <path id="Trazado_873947" data-name="Trazado 873947" d="M69.368,146.295v-6.213a.78.78,0,0,0-.78-.78H67.26a.78.78,0,1,0,0,1.56h.548v5.433a.78.78,0,0,0,1.56,0Z" transform="translate(-61.449 -124.659)"/>
        <path id="Trazado_873948" data-name="Trazado 873948" d="M229.14,415.021a4.17,4.17,0,1,0-2.326-6.008.78.78,0,0,0,1.531.3.81.81,0,1,1,.795.967.78.78,0,0,0,0,1.56.81.81,0,1,1-.8.924.824.824,0,0,1-.008-.114.78.78,0,0,0-1.56,0,2.368,2.368,0,0,0,2.37,2.37Z" transform="translate(-204.89 -364.31)"/>
      </g>
    </g>
  </g>
</svg>
