<svg xmlns="http://www.w3.org/2000/svg" width="51.628" height="51.621" viewBox="0 0 51.628 51.621">
  <g id="_8" data-name="8" transform="translate(0 -0.031)">
    <g id="Grupo_1083192" data-name="Grupo 1083192" transform="translate(0 0.031)">
      <g id="Grupo_1083170" data-name="Grupo 1083170" transform="translate(1.008 1.002)">
        <g id="Grupo_1083163" data-name="Grupo 1083163" transform="translate(13.109)">
          <path id="Trazado_853643" data-name="Trazado 853643" d="M162.822,25.3A11.7,11.7,0,1,0,151.7,33.363,11.686,11.686,0,0,0,162.822,25.3Z" transform="translate(-140.003 -9.97)" fill="#f7df3f" fill-rule="evenodd"/>
        </g>
        <g id="Grupo_1083164" data-name="Grupo 1083164" transform="translate(4.033 15.326)">
          <path id="Trazado_853644" data-name="Trazado 853644" d="M70.773,170.032a11.7,11.7,0,0,1-11.122-8.067H51.009A1.011,1.011,0,0,0,50,162.973v28.234a1.012,1.012,0,0,0,1.008,1.008H68.145a2.721,2.721,0,0,1,2.628,2.017Z" transform="translate(-50.001 -161.965)" fill="#fff" fill-rule="evenodd"/>
        </g>
        <g id="Grupo_1083165" data-name="Grupo 1083165" transform="translate(24.805 15.326)">
          <path id="Trazado_853645" data-name="Trazado 853645" d="M256,170.031v24.2a2.721,2.721,0,0,1,2.628-2.017h17.135a1.012,1.012,0,0,0,1.008-1.008V162.972a1.012,1.012,0,0,0-1.008-1.008h-8.641A11.7,11.7,0,0,1,256,170.031Z" transform="translate(-256.001 -161.964)" fill="#fff" fill-rule="evenodd"/>
        </g>
        <g id="Grupo_1083166" data-name="Grupo 1083166" transform="translate(4.033 44.569)">
          <path id="Trazado_853646" data-name="Trazado 853646" d="M68.145,452.978H51.009A1.012,1.012,0,0,1,50,451.97v5.042H91.545V451.97a1.012,1.012,0,0,1-1.008,1.008H73.4A2.721,2.721,0,0,0,70.773,455,2.721,2.721,0,0,0,68.145,452.978Z" transform="translate(-50.001 -451.97)" fill="#e2e9ee" fill-rule="evenodd"/>
        </g>
        <g id="Grupo_1083167" data-name="Grupo 1083167" transform="translate(0 19.36)">
          <path id="Trazado_853647" data-name="Trazado 853647" d="M14.034,227.175V201.966H11.008A1.011,1.011,0,0,0,10,202.974v28.235a1.012,1.012,0,0,0,1.008,1.008h3.025Z" transform="translate(-10 -201.966)" fill="#23dcff" fill-rule="evenodd"/>
        </g>
        <g id="Grupo_1083168" data-name="Grupo 1083168" transform="translate(45.577 19.36)">
          <path id="Trazado_853648" data-name="Trazado 853648" d="M462,210.981v21.236h3.025a1.012,1.012,0,0,0,1.008-1.008V202.974a1.012,1.012,0,0,0-1.008-1.008H462Z" transform="translate(-462 -201.966)" fill="#23dcff" fill-rule="evenodd"/>
        </g>
        <g id="Grupo_1083169" data-name="Grupo 1083169" transform="translate(18.755 5.647)">
          <path id="Trazado_853649" data-name="Trazado 853649" d="M196,73.279V70.759a1.011,1.011,0,0,1,1.008-1.008h2.773V66.977a1.011,1.011,0,0,1,1.008-1.008h2.521a1.011,1.011,0,0,1,1.008,1.008V69.75h2.773a1.011,1.011,0,0,1,1.008,1.008v2.521a1.011,1.011,0,0,1-1.008,1.008H204.32v2.773a1.011,1.011,0,0,1-1.008,1.008h-2.521a1.011,1.011,0,0,1-1.008-1.008V74.288h-2.773A1.011,1.011,0,0,1,196,73.279Z" transform="translate(-196.001 -65.969)" fill="#fff" fill-rule="evenodd"/>
        </g>
      </g>
      <g id="Grupo_1083191" data-name="Grupo 1083191" transform="translate(0 0)">
        <g id="Grupo_1083171" data-name="Grupo 1083171" transform="translate(4.033 15.32)">
          <path id="Trazado_853650" data-name="Trazado 853650" d="M61.781,186.249a1.009,1.009,0,0,1-.974-.747,1.715,1.715,0,0,0-1.654-1.269H42.018A2.019,2.019,0,0,1,40,182.216V168.1a1.008,1.008,0,0,1,2.017,0v14.117H59.153a3.729,3.729,0,0,1,2.628,1.085,3.73,3.73,0,0,1,2.628-1.085H81.545V153.982H72.986a1.008,1.008,0,1,1,0-2.017h8.559a2.019,2.019,0,0,1,2.017,2.017v28.234a2.019,2.019,0,0,1-2.017,2.017H64.409a1.715,1.715,0,0,0-1.654,1.269A1.009,1.009,0,0,1,61.781,186.249ZM41.009,160.032A1.008,1.008,0,0,1,40,159.024v-5.042a2.019,2.019,0,0,1,2.017-2.017h8.506a1.008,1.008,0,1,1,0,2.017H42.018v5.042a1.008,1.008,0,0,1-1.008,1.008Z" transform="translate(-40.001 -151.965)"/>
        </g>
        <g id="Grupo_1083172" data-name="Grupo 1083172" transform="translate(24.805 23.507)">
          <path id="Trazado_853651" data-name="Trazado 853651" d="M247.009,260.941A1.008,1.008,0,0,1,246,259.933V234.162a1.008,1.008,0,1,1,2.017,0v25.771A1.008,1.008,0,0,1,247.009,260.941Z" transform="translate(-246.001 -233.154)"/>
        </g>
        <g id="Grupo_1083173" data-name="Grupo 1083173" transform="translate(0 19.354)">
          <path id="Trazado_853652" data-name="Trazado 853652" d="M49.611,224.234H2.017A2.019,2.019,0,0,1,0,222.217V193.982a2.019,2.019,0,0,1,2.017-2.016H4.351a1.008,1.008,0,1,1,0,2.017H2.017v28.234H49.611V193.982H46.888a1.008,1.008,0,1,1,0-2.017h2.723a2.019,2.019,0,0,1,2.017,2.016v28.235A2.019,2.019,0,0,1,49.611,224.234Z" transform="translate(0 -191.966)"/>
        </g>
        <g id="Grupo_1083174" data-name="Grupo 1083174" transform="translate(4.034 44.563)">
          <path id="Trazado_853653" data-name="Trazado 853653" d="M41.01,448.7A1.008,1.008,0,0,1,40,447.694v-4.715a1.008,1.008,0,1,1,2.017,0v4.715A1.008,1.008,0,0,1,41.01,448.7Z" transform="translate(-40.002 -441.971)"/>
        </g>
        <g id="Grupo_1083175" data-name="Grupo 1083175" transform="translate(45.577 44.563)">
          <path id="Trazado_853654" data-name="Trazado 853654" d="M453.008,448.7A1.008,1.008,0,0,1,452,447.694v-4.715a1.008,1.008,0,1,1,2.017,0v4.715A1.008,1.008,0,0,1,453.008,448.7Z" transform="translate(-452 -441.971)"/>
        </g>
        <g id="Grupo_1083176" data-name="Grupo 1083176" transform="translate(8.067 19.354)">
          <path id="Trazado_853655" data-name="Trazado 853655" d="M84.188,193.983H81.011a1.008,1.008,0,1,1,0-2.017h3.176a1.008,1.008,0,1,1,0,2.017Z" transform="translate(-80.003 -191.966)"/>
        </g>
        <g id="Grupo_1083177" data-name="Grupo 1083177" transform="translate(8.067 23.613)">
          <path id="Trazado_853656" data-name="Trazado 853656" d="M87.364,236.224H81.011a1.008,1.008,0,1,1,0-2.017h6.352a1.008,1.008,0,1,1,0,2.017Z" transform="translate(-80.003 -234.207)"/>
        </g>
        <g id="Grupo_1083178" data-name="Grupo 1083178" transform="translate(8.067 27.872)">
          <path id="Trazado_853657" data-name="Trazado 853657" d="M93.716,278.465h-12.7a1.008,1.008,0,1,1,0-2.017h12.7a1.008,1.008,0,0,1,0,2.017Z" transform="translate(-80.003 -276.448)"/>
        </g>
        <g id="Grupo_1083179" data-name="Grupo 1083179" transform="translate(8.067 32.132)">
          <path id="Trazado_853658" data-name="Trazado 853658" d="M93.716,320.7h-12.7a1.008,1.008,0,1,1,0-2.017h12.7a1.008,1.008,0,0,1,0,2.017Z" transform="translate(-80.003 -318.688)"/>
        </g>
        <g id="Grupo_1083180" data-name="Grupo 1083180" transform="translate(38.368 19.354)">
          <path id="Trazado_853659" data-name="Trazado 853659" d="M384.685,193.983h-3.176a1.008,1.008,0,1,1,0-2.017h3.176a1.008,1.008,0,0,1,0,2.017Z" transform="translate(-380.5 -191.966)"/>
        </g>
        <g id="Grupo_1083181" data-name="Grupo 1083181" transform="translate(35.191 23.613)">
          <path id="Trazado_853660" data-name="Trazado 853660" d="M356.362,236.224h-6.352a1.008,1.008,0,0,1,0-2.017h6.352a1.008,1.008,0,1,1,0,2.017Z" transform="translate(-349.001 -234.207)"/>
        </g>
        <g id="Grupo_1083182" data-name="Grupo 1083182" transform="translate(28.839 27.872)">
          <path id="Trazado_853661" data-name="Trazado 853661" d="M299.715,278.465h-12.7a1.008,1.008,0,0,1,0-2.017h12.7a1.008,1.008,0,0,1,0,2.017Z" transform="translate(-286.002 -276.448)"/>
        </g>
        <g id="Grupo_1083183" data-name="Grupo 1083183" transform="translate(28.839 32.132)">
          <path id="Trazado_853662" data-name="Trazado 853662" d="M299.715,320.7h-12.7a1.008,1.008,0,0,1,0-2.017h12.7a1.008,1.008,0,0,1,0,2.017Z" transform="translate(-286.002 -318.688)"/>
        </g>
        <g id="Grupo_1083184" data-name="Grupo 1083184" transform="translate(8.067 36.391)">
          <path id="Trazado_853663" data-name="Trazado 853663" d="M93.716,362.946h-12.7a1.008,1.008,0,1,1,0-2.017h12.7a1.008,1.008,0,0,1,0,2.017Z" transform="translate(-80.003 -360.929)"/>
        </g>
        <g id="Grupo_1083185" data-name="Grupo 1083185" transform="translate(8.067 40.65)">
          <path id="Trazado_853664" data-name="Trazado 853664" d="M93.716,405.187h-12.7a1.008,1.008,0,1,1,0-2.017h12.7a1.008,1.008,0,0,1,0,2.017Z" transform="translate(-80.003 -403.17)"/>
        </g>
        <g id="Grupo_1083186" data-name="Grupo 1083186" transform="translate(28.839 36.391)">
          <path id="Trazado_853665" data-name="Trazado 853665" d="M299.715,362.946h-12.7a1.008,1.008,0,0,1,0-2.017h12.7a1.008,1.008,0,0,1,0,2.017Z" transform="translate(-286.002 -360.929)"/>
        </g>
        <g id="Grupo_1083187" data-name="Grupo 1083187" transform="translate(28.839 40.65)">
          <path id="Trazado_853666" data-name="Trazado 853666" d="M299.715,405.187h-12.7a1.008,1.008,0,0,1,0-2.017h12.7a1.008,1.008,0,0,1,0,2.017Z" transform="translate(-286.002 -403.17)"/>
        </g>
        <g id="Grupo_1083188" data-name="Grupo 1083188" transform="translate(13.115)">
          <path id="Trazado_853667" data-name="Trazado 853667" d="M142.759,25.434a12.705,12.705,0,1,1,8.984-3.721A12.622,12.622,0,0,1,142.759,25.434ZM134.489,4.459l.713.713a10.688,10.688,0,1,0,15.115,0,10.7,10.7,0,0,0-15.115,0Z" transform="translate(-130.06 -0.031)"/>
        </g>
        <g id="Grupo_1083189" data-name="Grupo 1083189" transform="translate(18.755 5.641)">
          <path id="Trazado_853668" data-name="Trazado 853668" d="M194.32,70.086H191.8a2.019,2.019,0,0,1-2.017-2.017V66.3h-1.765A2.019,2.019,0,0,1,186,64.288V61.767a2.019,2.019,0,0,1,2.017-2.017h1.765V57.986a2.019,2.019,0,0,1,2.017-2.017h2.521a2.019,2.019,0,0,1,2.017,2.017V59.75H198.1a2.019,2.019,0,0,1,2.017,2.017v2.521A2.019,2.019,0,0,1,198.1,66.3h-1.765v1.765A2.019,2.019,0,0,1,194.32,70.086Zm-3.529-5.8A1.008,1.008,0,0,1,191.8,65.3v2.773h2.521V65.3a1.008,1.008,0,0,1,1.008-1.008H198.1V61.767h-2.773a1.008,1.008,0,0,1-1.008-1.008V57.986H191.8v2.773a1.008,1.008,0,0,1-1.008,1.008h-2.773v2.521Z" transform="translate(-186.001 -55.969)"/>
        </g>
        <g id="Grupo_1083190" data-name="Grupo 1083190" transform="translate(4.034 25.908)">
          <path id="Trazado_853669" data-name="Trazado 853669" d="M41.01,258.984a1.008,1.008,0,1,1,1.008-1.009h0A1.008,1.008,0,0,1,41.01,258.984Z" transform="translate(-40.002 -256.967)"/>
        </g>
      </g>
    </g>
  </g>
</svg>
