<svg xmlns="http://www.w3.org/2000/svg" xmlns:xlink="http://www.w3.org/1999/xlink" width="1566.531" height="1760.157" viewBox="0 0 1566.531 1760.157">
  <defs>
    <clipPath id="clip-path">
      <path id="Placeholder" d="M0-650H1566.531V1110.157H0Z" transform="translate(-8160 -11123)" fill="#e8f0ff"/>
    </clipPath>
    <clipPath id="clip-path-2">
      <path id="Trazado_862578" data-name="Trazado 862578" d="M0-804H1566.531V686.3s-182.058,39.559-307.243,35.47c-123.714-4.088-361.583-50.563-480.476-71.1-117.419-20.541-312.146-47.241-393.859-47.589C303.239,604.179,105.6,612.7,0,670.055.381,654.982,0-804,0-804Z" transform="translate(0 804.001)" fill="#f2f6ff" clip-rule="evenodd"/>
    </clipPath>
    <linearGradient id="linear-gradient" x1="0.049" y1="0.524" x2="1" y2="0.485" gradientUnits="objectBoundingBox">
      <stop offset="0" stop-color="#a57af0"/>
      <stop offset="1" stop-color="aqua"/>
    </linearGradient>
    <linearGradient id="linear-gradient-2" x1="0.5" x2="0.5" y2="0.905" gradientUnits="objectBoundingBox">
      <stop offset="0" stop-color="#fff"/>
      <stop offset="1" stop-color="#fff" stop-opacity="0"/>
    </linearGradient>
  </defs>
  <g id="Grupo_1104408" data-name="Grupo 1104408" transform="translate(3001.531 2915.397)">
    <g id="Enmascarar_grupo_1078986" data-name="Enmascarar grupo 1078986" transform="translate(5158.469 8857.603)" clip-path="url(#clip-path)">
      <g id="Grupo_1097721" data-name="Grupo 1097721" transform="translate(-8160 -11773)">
        <g id="Enmascarar_grupo_1078948" data-name="Enmascarar grupo 1078948" transform="translate(0 0)" clip-path="url(#clip-path-2)">
          <path id="Placeholder-2" data-name="Placeholder" d="M0-650H1566.531V892.173H0Z" transform="translate(0 624.571)" opacity="0.13" fill="url(#linear-gradient)"/>
        </g>
        <rect id="Rectángulo_399061" data-name="Rectángulo 399061" width="1566.531" height="96.811" transform="translate(0 0.227)" fill="url(#linear-gradient-2)"/>
      </g>
      <path id="Trazado_877414" data-name="Trazado 877414" d="M428.258,76.729a57.765,57.765,0,0,1-8.45,4.29c-.63.277-1.225.484-1.855.727-.63.259-1.242.484-1.8.675-1.382.519-2.834,1.055-4.461,1.661l-4.566-.363c-7.383,3.166-2.834,2.595-7.908,5.328a123.32,123.32,0,0,0-13.192,3.823,101.572,101.572,0,0,1-10.008,2.872c-2.2-.4,2.292-1.592,3.184-2.4-1.977.675-3.342,1.107-4.514,1.626-1.155.432-2.064.865-3.062,1.3a21.163,21.163,0,0,1-8.888,1.54l-.14-.484a20.8,20.8,0,0,1-2.1.1l-1.067.035h-.49l-.245.035-1.032.052h-.7A2.515,2.515,0,0,1,354.5,96a3.62,3.62,0,0,1-.14-1.626,4.952,4.952,0,0,1,.14-.865c.035-.173.14-.432.192-.657a8.039,8.039,0,0,1,.262-.778,96.253,96.253,0,0,1,4.584-9.705c3.552-6.851,7.786-13.909,10.83-22.507.385-1.055.735-2.2,1.032-3.356.332-1.107.56-2.387.8-3.6A34.682,34.682,0,0,0,372.64,49a25.61,25.61,0,0,0-.21-4.29c-.122-.744-.21-1.54-.4-2.284-.21-.727-.455-1.471-.7-2.18A11.359,11.359,0,0,0,370.4,38.1a17.968,17.968,0,0,0-1-1.765,22.523,22.523,0,0,0-5.791-6.384c2.379,2.128,1.435,1.955,2.012,3.027a19.65,19.65,0,0,0-6.106-4.463,21.772,21.772,0,0,0-7.156-1.938A36.842,36.842,0,0,0,339.7,27.8c-7.663,1.989-14.329,5.086-20.785,8.044q-4.724,2.232-9.378,4.429c-3.534,1.592-4.811,2.266-7,3.131A21.365,21.365,0,0,1,295.8,45.07a8.008,8.008,0,0,1-3.5-.623,7.657,7.657,0,0,1-2.642-2.162,6.18,6.18,0,0,1-1.54-4.429,13.646,13.646,0,0,1,1.155-4.36,19.731,19.731,0,0,0-2.344,4.567,7.683,7.683,0,0,0,.35,5.657,7.564,7.564,0,0,0,3.762,4.117,11.742,11.742,0,0,0,5.861.744,47.229,47.229,0,0,0,12.212-3.322A179.011,179.011,0,0,0,331.507,34.31c3.342-.554,7.331-2.007,11.11-2.82,3.744-.848,7.348-.848,8.7.225a16.53,16.53,0,0,1,8.66,3.512,18.648,18.648,0,0,1,4.9,6.591,18.075,18.075,0,0,1,1.225,7.439,34.051,34.051,0,0,1-1.032,6.9C362.79,64.982,358.7,72.905,353.1,83.268c-1.837,2.82-1.872.986-3.1,1.47,0,0,1.942-4.273,4.129-8.529,1.067-2.128,2.135-4.273,2.939-5.882.787-1.609,1.312-2.7,1.312-2.7s-1.522,2.491-3.114,4.948l-3.167,4.9c.857-2.387,2.974-6.176,4.654-9.636,1.715-3.46,2.887-6.643,2.432-7.595a84.483,84.483,0,0,1-5.616,12.715c-2.327,4.5-4.986,9.169-7.1,14.047A33.544,33.544,0,0,0,344,94.6a11.109,11.109,0,0,0,.822,7.37A9.242,9.242,0,0,0,350.28,106c.525.138,1.032.277,1.54.415.507.121,1.032.138,1.522.208.49.052.962.1,1.435.156.472,0,.927,0,1.382-.017a20.237,20.237,0,0,1-2.414-.554,15.991,15.991,0,0,1-2.449-.761,10.225,10.225,0,0,1-4.461-2.924,7.685,7.685,0,0,1-1.715-5.207,18.111,18.111,0,0,1,1.1-5.536c1.5-2.941,4.444-7.646,5.056-6.9a68.582,68.582,0,0,0-2.4,7.352,12.716,12.716,0,0,0-.28,5.709A6.033,6.033,0,0,0,352.047,102a5.627,5.627,0,0,0,1.26.5,6.866,6.866,0,0,0,1.295.363l1.312.277,1.47.173c.857.138,2.274.19,3.464.294,1.242.121,2.467.035,3.727.069,1.242,0,2.519-.138,3.779-.208,1.277-.1,2.554-.294,3.849-.45a93.8,93.8,0,0,0,16.009-4c5.529-1.851,13.192-4.411,14.416-3.927-3.6,1.557-.577,1.263-3.482,2.7,7.768-3.443-.3-3.183,11.512-6.885l-.525,3.3a9.411,9.411,0,0,1,3.936-2.647c.84-.329,1.732-.623,2.694-.9.91-.26,1.855-.519,2.817-.8,3.919-1.107,8.4-2.578,12.055-5.138,3.377-.173-1.7,2.82-7.786,5.432,7.208-2.4,7.086-4.36,12.789-6.678l-4.321,4.584c4.969-4.792,10.987-4.083,14.661-4.394.1-.363-.8-.727-.77-1.315,0-.294.28-.623,1.032-1.038a15.606,15.606,0,0,1,4.042-1.349c3.569-.467,1.907.571,2.8.744a4.493,4.493,0,0,1,2.362-1.522,13.018,13.018,0,0,1,2.694-.761c.542-.087,1.12-.173,1.75-.242.63-.052,1.312-.035,2.03-.035.507.433-.455.727-1.557,1.021-1.085.329-2.309.761-2.449,1.194a35.4,35.4,0,0,1,5.021-.087h-.018a9.48,9.48,0,0,1-1.662,5.1c-1.05,3.356-.665,2.976-.07,2.526.577-.519,1.312-1.176.945.363-2.8,4.221-4.182,5.086-5,5.138-.822.087-1.575-.675-3.657,1.747a64.351,64.351,0,0,1,2.484-7.145c.612-1.453,1.26-3.01,1.855-4.55.192-.727.367-1.436.56-2.145-.035-.381-.052-.744-.052-1.107,1.487,1.574,2.957,3.166,4.269,4.55a26.273,26.273,0,0,0-7.733,1.3,34.9,34.9,0,0,1,7.7-.865l-4.671-4.982v1.038l-.63,2.093c-.665,1.505-1.347,3.01-2.064,4.481-.315-.536-2.747,3.149-4.129,5.4-.7,1.107-1.26,1.989-1.5,1.989-.14.017-.192-.19-.122-.709a12.49,12.49,0,0,1,.665-2.7,38.425,38.425,0,0,0-3.657,11.833,29.138,29.138,0,0,0-.262,6.366l.07.934c.035.294.192.259.28.415.227.208.437.415.665.657.455.433.91,1.021,1.382,1.557,7.086-2.059,14.311-4.135,21.38-6.47,3.482-1.124,6.946-2.232,10.06-3.149,1.19-.363,2.362-.709,3.534-1.055,1.015-.294,2.012-.571,2.992-.848-2.082.1-4.759.536-4.479-.173,7.313-2.318,6.736-.8,8.363-.415A10.806,10.806,0,0,0,496,99.1a10.274,10.274,0,0,1,3.1-2.4c.717.035,1.382.069,2.03.121.612.035,1.032.1,1.5.156.91.1,1.68.242,2.379.363a15.78,15.78,0,0,1,3.5,1.055,5.522,5.522,0,0,1,2.414,2.145,5.033,5.033,0,0,1,.105,4.187s.49-.225,1-.45c.49-.242.98-.5.98-.5-.28,1.384-.665,2.318-.857,3.114-.228.8-.333,1.47-.473,2.18a10.039,10.039,0,0,1-.77,2.335,15.219,15.219,0,0,1-2.484,3.408c-.262.069-.087-.554.262-1.436.175-.432.385-.951.612-1.488.192-.484.262-.8.385-1.194a11.605,11.605,0,0,1-1.732,2.716,16.451,16.451,0,0,1-1.785,1.73,17.811,17.811,0,0,0-4.076,4.723l.84-2.612.752-2.578c-2.922,4.031-7.488,10.414-7.016,7.283a65.4,65.4,0,0,1-4.374,7.006c-1.767,2.595-3.814,5.346-5.826,8.667a29.8,29.8,0,0,0-2.887,6.038,13.432,13.432,0,0,0-.682,5.121,8.79,8.79,0,0,0,.3,1.782,7.834,7.834,0,0,0,.717,1.886,9.582,9.582,0,0,0,2.519,3.166,11.671,11.671,0,0,0,5.126,2.353,19.312,19.312,0,0,0,3.639.346,28.887,28.887,0,0,0,5.564-.554l-.752,1.557c3.5-1.176,9.29-2.249,14.784-3.65.682-.173,1.365-.363,2.047-.536l1-.277c.35-.087.98-.294,1.312-.4,1.47-.519,2.659-1,3.779-1.505a19.477,19.477,0,0,0,4.986-2.958l1.05.242,10.48-6.159c5.144-1.73,4.2,1,4.391.277,10.935-4.463,19.788-7.4,27.031-8.408.227-1.055,2.362-2.3,5.739-3.2a21.794,21.794,0,0,1,5.616-.761,8.082,8.082,0,0,1,2.939.5,3.723,3.723,0,0,1,2.1,1.834,5.814,5.814,0,0,1-.122,3.322,15.552,15.552,0,0,1-1.312,3.1,27.394,27.394,0,0,1-1.732,2.837l-1.977,2.63-.98,1.315c-.35.467-.577.813-1.1,1.419l-2.817,3.356c-1.8,2.266-3.884,4.446-5.931,6.66a280.672,280.672,0,0,1-26.751,24.6c-18.808,15.414-38.631,29.306-56.389,43.042a63.428,63.428,0,0,0-6.193,5.276c-2.117,2.059-4.287,4.308-6.491,6.539l-1-2.976c1.855-.346,3.762-1.8,7-2.162a22.469,22.469,0,0,0-2.659.225c-.682.138-1.312.277-1.925.4-.49.086-1.05.259-1.4.277-.367.035-.7.087-1.015.138.595,1.747,1.172,3.495,1.68,5,3.587-2.733,5.319-4.706,11.145-8.754,6.491-3.91,9.99-3.771,16.1-6.4l-3.692.484c7.7-6.868,6.333-3.218,12.072-9.169l1.277,2.422c1.575-2.733,8.135-5.865,10.987-6.955l1.1-3.062c5.931-2.854,9.623-4.982,12.247-4.775l-1.54-1.021a20.391,20.391,0,0,0,4.2-2.439c1.925-1.367,4.234-2.993,6.281-4.429,4.111-2.872,7.3-4.93,5.144-1.349a23.486,23.486,0,0,1,5.476-5.709l1.592.917c2.187-2.128,4.566-4.308,6.578-6.09,1.995-1.816,3.709-3.131,4.689-3.356-2.2,2.526-2.537,3.823-2.852,5.121,2.467-2.145,4.321-3.892,5.7-5.311a23.172,23.172,0,0,0,2.834-3.529c1.155-1.851,1.067-2.768.91-3.633a4.1,4.1,0,0,1,.42-3.252c.77-1.661,2.554-4.065,6.369-8.39l.682.934,2.9-5.363s.315-.242.8-.623c.245-.19.525-.415.822-.64a6.928,6.928,0,0,0,1-.882l3.027-3.27a25.079,25.079,0,0,1,1.907-4.723,32.176,32.176,0,0,0,2.449-5.657,26.19,26.19,0,0,0,1.47-6.487,10.26,10.26,0,0,0-1.627-7.041,12.349,12.349,0,0,0-6.228-4.117,25.507,25.507,0,0,0-7.856-1.09,42.037,42.037,0,0,0-8.45.969c-1.365.277-2.712.64-3.971.986q-.945.285-1.837.571a12.21,12.21,0,0,0-1.347.519c-5.214,1.643-12.719,1.557-22.272,5.207l1.207,1.384c-4.164.519-13.489,3.252-22.674,5.778-2.292.623-4.584,1.228-6.683,1.713-.508.1-1.015.208-1.5.311a4.994,4.994,0,0,1-1.137.138,1.843,1.843,0,0,0-.577.035l-.752.069c-.507.035-1,.087-1.47.121-3.849.26-6.963.052-8.713-.64-5.984,2.249.647.294.857,1.574a23.185,23.185,0,0,1-6.771,1.384,3.2,3.2,0,0,1-.717-.087.5.5,0,0,1-.192-.069c-.035.069.087-.432-.175.761a13.292,13.292,0,0,1-2.117,5.449c-.595.727-.752.467.1.311a10.874,10.874,0,0,1,4.5.381,32.618,32.618,0,0,1,3.832,1.107c.07.052.192,0,.315-.052a4.9,4.9,0,0,0,.98-.882c.577-1.367.875-2.007.682-1.955a5.957,5.957,0,0,0-1.19,1.246c-1.05,1.315-1.47,1.8-1.75.779.7-.934,1.277-1.73,1.8-2.422.595-.83,1.155-1.626,1.627-2.37.962-1.488,1.627-2.768,2.379-4.135,1.5-2.8,3.359-5.761,9.378-12.456,1.872-.813-2.344,4.083-2.992,5.83,1.61-2.681,3.8-5.778,6.316-9.5.63-.951,1.277-1.938,1.924-2.941.367-.588.735-1.159,1.1-1.765.507-.83.962-1.661,1.452-2.491a31.251,31.251,0,0,0,3.832-10.778A20.894,20.894,0,0,0,525.8,94.686l-.647-1.28c-.262-.4-.542-.8-.822-1.176a17.177,17.177,0,0,0-1.872-2.18,28.06,28.06,0,0,0-2.169-1.886c-.8-.536-1.645-1.021-2.467-1.505a28.136,28.136,0,0,0-11.6-2.924,30.363,30.363,0,0,0-3.079-.087c-.962,0-2.2,0-2.8.052-1.382.087-2.712.208-3.971.363-3.149.173-6.368.536-9.658,1.038-1.627.26-3.307.536-4.969.865-.84.156-1.68.329-2.519.5l-1.137.225-.315.035a21.412,21.412,0,0,1-2.974.087.751.751,0,0,1-.3-.069s-.052,0-.052-.035l.052-.173a2.867,2.867,0,0,1,.14-.346,4.113,4.113,0,0,1,.84-1.073c.3-.294.56-.536.77-.709l.3-.242s.14-.311.193-.45a4.393,4.393,0,0,0,.087-.657l.105-.934.157-1.868.962-11.747-13-1.107a56.671,56.671,0,0,0-6.508-.277l-.56.657c-6.858-.277-13.122,1.54-18.878,3.668-5.686,2.18-11.057,4.792-16.358,6.66l5.564-1.4Z" transform="translate(-8616.132 -11424.04)" fill="#bad1ff"/>
      <path id="Trazado_877415" data-name="Trazado 877415" d="M-.122,21.644a5.174,5.174,0,0,0,5.211,5.208l11.175-.063L16.2,37.957a5.174,5.174,0,0,0,5.211,5.208A5.317,5.317,0,0,0,26.684,37.9l.063-11.168,11.172-.063a5.316,5.316,0,0,0,5.27-5.267,5.173,5.173,0,0,0-5.211-5.208l-11.172.063.063-11.168A5.174,5.174,0,0,0,21.657-.122a5.317,5.317,0,0,0-5.27,5.267l-.063,11.168-11.175.063A5.316,5.316,0,0,0-.122,21.644Zm17.309-3.589a.885.885,0,0,0,.879-.878l.068-12.041a3.544,3.544,0,0,1,3.513-3.511A3.449,3.449,0,0,1,25.122,5.1l-.068,12.041a.862.862,0,0,0,.869.868l12.045-.068a3.449,3.449,0,0,1,3.474,3.472,3.544,3.544,0,0,1-3.514,3.511l-12.045.068a.885.885,0,0,0-.879.878l-.068,12.041a3.544,3.544,0,0,1-3.514,3.511,3.449,3.449,0,0,1-3.474-3.472l.068-12.041a.862.862,0,0,0-.869-.868L5.1,25.106a3.449,3.449,0,0,1-3.474-3.472,3.544,3.544,0,0,1,3.514-3.511Z" transform="translate(-6671.309 -11578.066) rotate(45)" fill="#5b92fe" fill-rule="evenodd"/>
      <path id="Trazado_877416" data-name="Trazado 877416" d="M-.122,21.644a5.174,5.174,0,0,0,5.211,5.208l11.175-.063L16.2,37.957a5.174,5.174,0,0,0,5.211,5.208A5.317,5.317,0,0,0,26.684,37.9l.063-11.168,11.172-.063a5.316,5.316,0,0,0,5.27-5.267,5.173,5.173,0,0,0-5.211-5.208l-11.172.063.063-11.168A5.174,5.174,0,0,0,21.657-.122a5.317,5.317,0,0,0-5.27,5.267l-.063,11.168-11.175.063A5.316,5.316,0,0,0-.122,21.644Zm17.309-3.589a.885.885,0,0,0,.879-.878l.068-12.041a3.544,3.544,0,0,1,3.513-3.511A3.449,3.449,0,0,1,25.122,5.1l-.068,12.041a.862.862,0,0,0,.869.868l12.045-.068a3.449,3.449,0,0,1,3.474,3.472,3.544,3.544,0,0,1-3.514,3.511l-12.045.068a.885.885,0,0,0-.879.878l-.068,12.041a3.544,3.544,0,0,1-3.514,3.511,3.449,3.449,0,0,1-3.474-3.472l.068-12.041a.862.862,0,0,0-.869-.868L5.1,25.106a3.449,3.449,0,0,1-3.474-3.472,3.544,3.544,0,0,1,3.514-3.511Z" transform="translate(-8073.354 -11501.586) rotate(45)" fill="#5b92fe" fill-rule="evenodd"/>
      <path id="Trazado_877417" data-name="Trazado 877417" d="M456.592,189.023a57.762,57.762,0,0,1,8.45-4.29c.63-.277,1.225-.484,1.855-.727.63-.26,1.242-.484,1.8-.675,1.382-.519,2.834-1.055,4.461-1.661l4.566.363c7.383-3.166,2.834-2.595,7.908-5.328a123.324,123.324,0,0,0,13.192-3.823,101.565,101.565,0,0,1,10.008-2.872c2.2.4-2.292,1.592-3.184,2.4,1.977-.675,3.342-1.107,4.514-1.626,1.155-.432,2.064-.865,3.062-1.3a21.162,21.162,0,0,1,8.888-1.54l.14.484a20.8,20.8,0,0,1,2.1-.1l1.067-.035h.49l.245-.035,1.032-.052h.7a2.515,2.515,0,0,1,2.467,1.54,3.621,3.621,0,0,1,.14,1.626,4.955,4.955,0,0,1-.14.865c-.035.173-.14.432-.192.657a8.029,8.029,0,0,1-.262.778,96.246,96.246,0,0,1-4.584,9.705c-3.552,6.851-7.786,13.909-10.83,22.507-.385,1.055-.735,2.2-1.032,3.356-.332,1.107-.56,2.387-.8,3.6a34.689,34.689,0,0,0-.437,3.91,25.614,25.614,0,0,0,.21,4.29c.122.744.21,1.54.4,2.284.21.727.455,1.471.7,2.18a11.367,11.367,0,0,0,.927,2.145,17.961,17.961,0,0,0,1,1.765,22.524,22.524,0,0,0,5.791,6.384c-2.379-2.128-1.435-1.955-2.012-3.027a19.65,19.65,0,0,0,6.106,4.463,21.772,21.772,0,0,0,7.156,1.938,36.842,36.842,0,0,0,12.667-1.228c7.663-1.989,14.329-5.086,20.785-8.044q4.724-2.232,9.378-4.429c3.534-1.592,4.811-2.266,7-3.131a21.365,21.365,0,0,1,6.736-1.661,8.008,8.008,0,0,1,3.5.623,7.657,7.657,0,0,1,2.642,2.162,6.181,6.181,0,0,1,1.54,4.429,13.645,13.645,0,0,1-1.155,4.36,19.731,19.731,0,0,0,2.344-4.567,7.682,7.682,0,0,0-.35-5.657,7.564,7.564,0,0,0-3.762-4.117,11.742,11.742,0,0,0-5.861-.744,47.23,47.23,0,0,0-12.212,3.322,179.012,179.012,0,0,0-22.395,10.951c-3.342.554-7.331,2.007-11.11,2.82-3.744.848-7.348.848-8.7-.225a16.53,16.53,0,0,1-8.66-3.512,18.648,18.648,0,0,1-4.9-6.591,18.075,18.075,0,0,1-1.225-7.439,34.051,34.051,0,0,1,1.032-6.9c2.274-8.823,6.369-16.746,11.967-27.109,1.837-2.82,1.872-.986,3.1-1.47,0,0-1.942,4.273-4.129,8.529-1.067,2.128-2.135,4.273-2.939,5.882-.787,1.609-1.312,2.7-1.312,2.7s1.522-2.491,3.114-4.948l3.167-4.9c-.857,2.387-2.974,6.176-4.654,9.636-1.715,3.46-2.887,6.643-2.432,7.595a84.486,84.486,0,0,1,5.616-12.715c2.327-4.5,4.986-9.169,7.1-14.047a33.546,33.546,0,0,0,2.467-7.595,11.109,11.109,0,0,0-.822-7.37,9.242,9.242,0,0,0-5.459-4.031c-.525-.138-1.032-.277-1.54-.415-.508-.121-1.032-.138-1.522-.208-.49-.052-.962-.1-1.435-.156-.472,0-.927,0-1.382.017a20.234,20.234,0,0,1,2.414.554,15.991,15.991,0,0,1,2.449.761,10.225,10.225,0,0,1,4.461,2.924,7.685,7.685,0,0,1,1.715,5.207,18.112,18.112,0,0,1-1.1,5.536c-1.5,2.941-4.444,7.647-5.056,6.9a68.594,68.594,0,0,0,2.4-7.352,12.716,12.716,0,0,0,.28-5.709,6.034,6.034,0,0,0-3.447-4.065,5.626,5.626,0,0,0-1.26-.5,6.865,6.865,0,0,0-1.295-.363l-1.312-.277-1.47-.173c-.857-.138-2.274-.19-3.464-.294-1.242-.121-2.467-.035-3.727-.069-1.242,0-2.519.138-3.779.208-1.277.1-2.554.294-3.849.45a93.806,93.806,0,0,0-16.009,4c-5.529,1.851-13.192,4.411-14.416,3.927,3.6-1.557.577-1.263,3.482-2.7-7.768,3.443.3,3.183-11.512,6.885l.525-3.3a9.411,9.411,0,0,1-3.936,2.647c-.84.329-1.732.623-2.694.9-.91.26-1.855.519-2.817.8-3.919,1.107-8.4,2.578-12.055,5.138-3.377.173,1.7-2.82,7.786-5.432-7.208,2.4-7.086,4.36-12.789,6.678l4.321-4.584c-4.969,4.792-10.987,4.083-14.661,4.394-.1.363.8.727.77,1.315,0,.294-.28.623-1.032,1.038a15.605,15.605,0,0,1-4.042,1.349c-3.569.467-1.907-.571-2.8-.744a4.493,4.493,0,0,1-2.362,1.522,13.019,13.019,0,0,1-2.694.761c-.542.087-1.12.173-1.75.242-.63.052-1.312.035-2.03.035-.507-.432.455-.727,1.557-1.021,1.085-.329,2.309-.761,2.449-1.194a35.4,35.4,0,0,1-5.021.087h.018a9.48,9.48,0,0,1,1.662-5.1c1.05-3.356.665-2.976.07-2.526-.577.519-1.312,1.176-.945-.363,2.8-4.221,4.182-5.086,5-5.138.822-.087,1.575.675,3.657-1.747a64.352,64.352,0,0,1-2.484,7.145c-.612,1.453-1.26,3.01-1.855,4.55-.192.727-.367,1.436-.56,2.145.035.381.052.744.052,1.107-1.487-1.574-2.957-3.166-4.269-4.55a26.272,26.272,0,0,0,7.733-1.3,34.9,34.9,0,0,1-7.7.865l4.671,4.982v-1.038l.63-2.093c.665-1.505,1.347-3.01,2.064-4.481.315.536,2.747-3.149,4.129-5.4.7-1.107,1.26-1.989,1.5-1.989.14-.017.192.19.122.709a12.49,12.49,0,0,1-.665,2.7,38.423,38.423,0,0,0,3.657-11.833,29.138,29.138,0,0,0,.262-6.366l-.07-.934c-.035-.294-.192-.26-.28-.415-.227-.208-.437-.415-.665-.657-.455-.433-.91-1.021-1.382-1.557-7.086,2.059-14.311,4.135-21.38,6.47-3.482,1.124-6.946,2.232-10.06,3.149-1.19.363-2.362.709-3.534,1.055-1.015.294-2.012.571-2.992.848,2.082-.1,4.759-.536,4.479.173-7.313,2.318-6.736.8-8.363.415a10.806,10.806,0,0,0-4.584,2.37,10.274,10.274,0,0,1-3.1,2.4c-.717-.035-1.382-.069-2.03-.121-.612-.035-1.032-.1-1.5-.156-.91-.1-1.68-.242-2.379-.363a15.78,15.78,0,0,1-3.5-1.055,5.522,5.522,0,0,1-2.414-2.145,5.032,5.032,0,0,1-.1-4.187s-.49.225-1,.45c-.49.242-.98.5-.98.5.28-1.384.665-2.318.857-3.114.228-.8.332-1.47.472-2.18a10.043,10.043,0,0,1,.77-2.335,15.22,15.22,0,0,1,2.484-3.408c.262-.069.087.554-.262,1.436-.175.433-.385.951-.612,1.488-.192.484-.262.8-.385,1.194a11.605,11.605,0,0,1,1.732-2.716,16.455,16.455,0,0,1,1.785-1.73,17.811,17.811,0,0,0,4.077-4.723l-.84,2.612-.752,2.578c2.922-4.031,7.488-10.414,7.016-7.283a65.4,65.4,0,0,1,4.374-7.006c1.767-2.595,3.814-5.346,5.826-8.667a29.8,29.8,0,0,0,2.887-6.038,13.433,13.433,0,0,0,.682-5.121,8.788,8.788,0,0,0-.3-1.782,7.834,7.834,0,0,0-.717-1.886,9.582,9.582,0,0,0-2.519-3.166,11.671,11.671,0,0,0-5.126-2.353,19.312,19.312,0,0,0-3.639-.346,28.887,28.887,0,0,0-5.564.554l.752-1.557c-3.5,1.176-9.29,2.249-14.784,3.65-.682.173-1.365.363-2.047.536l-1,.277c-.35.087-.98.294-1.312.4-1.47.519-2.659,1-3.779,1.505a19.476,19.476,0,0,0-4.986,2.958l-1.05-.242-10.48,6.159c-5.144,1.73-4.2-1-4.391-.277-10.935,4.463-19.788,7.4-27.031,8.408-.227,1.055-2.362,2.3-5.739,3.2a21.792,21.792,0,0,1-5.616.761,8.082,8.082,0,0,1-2.939-.5,3.723,3.723,0,0,1-2.1-1.834,5.814,5.814,0,0,1,.122-3.322,15.552,15.552,0,0,1,1.312-3.1,27.394,27.394,0,0,1,1.732-2.837l1.977-2.63.98-1.315c.35-.467.577-.813,1.1-1.419l2.817-3.356c1.8-2.266,3.884-4.446,5.931-6.66a280.68,280.68,0,0,1,26.751-24.6c18.808-15.414,38.631-29.306,56.389-43.042a63.428,63.428,0,0,0,6.193-5.276c2.117-2.059,4.287-4.308,6.491-6.539l1,2.976c-1.855.346-3.762,1.8-7,2.162a22.468,22.468,0,0,0,2.659-.225c.682-.138,1.312-.277,1.924-.4.49-.086,1.05-.259,1.4-.277.367-.035.7-.087,1.015-.138-.595-1.747-1.172-3.495-1.68-5-3.587,2.733-5.319,4.706-11.145,8.754-6.491,3.91-9.99,3.771-16.1,6.4l3.692-.484c-7.7,6.868-6.333,3.218-12.072,9.169l-1.277-2.422c-1.575,2.733-8.136,5.865-10.987,6.955l-1.1,3.062c-5.931,2.854-9.623,4.982-12.247,4.775l1.54,1.021a20.392,20.392,0,0,0-4.2,2.439c-1.925,1.367-4.234,2.993-6.281,4.429-4.111,2.872-7.3,4.93-5.144,1.349A23.487,23.487,0,0,1,327.91,77.6l-1.592-.917c-2.187,2.128-4.566,4.308-6.578,6.09-1.995,1.816-3.709,3.131-4.689,3.356,2.2-2.526,2.537-3.823,2.852-5.121-2.467,2.145-4.321,3.892-5.7,5.311a23.177,23.177,0,0,0-2.834,3.529c-1.155,1.851-1.067,2.768-.91,3.633a4.1,4.1,0,0,1-.42,3.252c-.77,1.661-2.554,4.065-6.368,8.39l-.682-.934-2.9,5.363s-.315.242-.8.623c-.245.19-.525.415-.822.64a6.921,6.921,0,0,0-1,.882l-3.027,3.27a25.078,25.078,0,0,1-1.907,4.723,32.178,32.178,0,0,0-2.449,5.657,26.189,26.189,0,0,0-1.47,6.487,10.26,10.26,0,0,0,1.627,7.041,12.349,12.349,0,0,0,6.228,4.117,25.507,25.507,0,0,0,7.856,1.09,42.038,42.038,0,0,0,8.45-.969c1.365-.277,2.712-.64,3.972-.986q.945-.285,1.837-.571a12.209,12.209,0,0,0,1.347-.519c5.214-1.643,12.719-1.557,22.272-5.207l-1.207-1.384c4.164-.519,13.489-3.252,22.674-5.778,2.292-.623,4.584-1.228,6.683-1.713.507-.1,1.015-.208,1.5-.311a4.994,4.994,0,0,1,1.137-.138,1.843,1.843,0,0,0,.577-.035l.752-.069c.507-.035,1-.087,1.47-.121,3.849-.26,6.963-.052,8.713.64,5.984-2.249-.647-.294-.857-1.574a23.184,23.184,0,0,1,6.771-1.384,3.2,3.2,0,0,1,.717.087.5.5,0,0,1,.192.069c.035-.069-.087.432.175-.761a13.292,13.292,0,0,1,2.117-5.449c.595-.727.752-.467-.1-.311a10.874,10.874,0,0,1-4.5-.381,32.623,32.623,0,0,1-3.832-1.107c-.07-.052-.192,0-.315.052a4.9,4.9,0,0,0-.98.882c-.577,1.367-.875,2.007-.682,1.955a5.956,5.956,0,0,0,1.19-1.246c1.05-1.315,1.47-1.8,1.75-.778-.7.934-1.277,1.73-1.8,2.422-.595.83-1.155,1.626-1.627,2.37-.962,1.488-1.627,2.768-2.379,4.135-1.5,2.8-3.359,5.761-9.378,12.456-1.872.813,2.344-4.083,2.992-5.83-1.61,2.681-3.8,5.778-6.316,9.5-.63.951-1.277,1.938-1.925,2.941-.367.588-.735,1.159-1.1,1.765-.507.83-.962,1.661-1.452,2.491a31.249,31.249,0,0,0-3.832,10.778,20.9,20.9,0,0,0,1.732,11.072l.647,1.28c.262.4.542.8.822,1.176a17.168,17.168,0,0,0,1.872,2.18,28.069,28.069,0,0,0,2.169,1.886c.8.536,1.645,1.021,2.467,1.505a28.137,28.137,0,0,0,11.6,2.924,30.363,30.363,0,0,0,3.079.087c.962,0,2.2,0,2.8-.052,1.382-.087,2.712-.208,3.971-.363,3.149-.173,6.368-.536,9.658-1.038,1.627-.26,3.307-.536,4.969-.865.84-.156,1.68-.329,2.519-.5l1.137-.225.315-.035a21.412,21.412,0,0,1,2.974-.087.751.751,0,0,1,.3.069s.052,0,.052.035l-.052.173a2.877,2.877,0,0,1-.14.346,4.114,4.114,0,0,1-.84,1.073c-.3.294-.56.536-.77.709l-.3.242s-.14.311-.192.45a4.4,4.4,0,0,0-.087.657l-.105.934-.157,1.868-.962,11.747,13,1.107a56.676,56.676,0,0,0,6.508.277l.56-.657c6.858.277,13.122-1.54,18.878-3.668,5.686-2.18,11.057-4.792,16.359-6.66l-5.564,1.4Z" transform="translate(-7035.895 -11033.652)" fill="#ffb6c8"/>
    </g>
  </g>
</svg>
