<svg xmlns="http://www.w3.org/2000/svg" xmlns:xlink="http://www.w3.org/1999/xlink" width="1600" height="858" viewBox="0 0 1600 858">
  <defs>
    <clipPath id="clip-path">
      <rect id="Rectángulo_404339" data-name="Rectángulo 404339" width="1600" height="660.154" transform="translate(0 11816.776)" fill="#12263f" opacity="0.67"/>
    </clipPath>
  </defs>
  <g id="Grupo_1104400" data-name="Grupo 1104400" transform="translate(4974 -2581)">
    <g id="Enmascarar_grupo_1079053" data-name="Enmascarar grupo 1079053" transform="translate(-4974 -9118.666)" clip-path="url(#clip-path)">
      <path id="Trazado_906685" data-name="Trazado 906685" d="M1607.557,44.49s-67.644,30.955-154.729,43.28c-88.59,12.326-176.755,23.279-258.3,20.3C1111.48,106.4,982.205,94.873,898.613,79.1S592.667,25.879,524.121,15.588C455.576,6.6,390.545-1.988,259.515,2.871S22.4,20.892,0,35.024V627.515s98.6,23.491,163.84,31.792c63.739,8.3,245.108,10.892,400.405-13.006,127.791-19.857,312-58.767,425.744-73.4,16.511-2.124,303.5-11.889,380.919-2.466,75.911,9.423,205.795,36.76,230.8,47.039C1601.705,602.471,1607.557,44.49,1607.557,44.49Z" transform="translate(-4 11811.839)" fill="#f2f6ff" fill-rule="evenodd"/>
      <path id="Trazado_906686" data-name="Trazado 906686" d="M0,22.231a5.387,5.387,0,0,0,5.383,5.38H16.861V39.081a5.383,5.383,0,0,0,10.766,0V27.61H39.1a5.38,5.38,0,1,0,0-10.759H27.628V5.38a5.383,5.383,0,0,0-10.766,0V16.851H5.383A5.387,5.387,0,0,0,0,22.231Zm17.759-3.586a.9.9,0,0,0,.9-.9V5.38a3.589,3.589,0,0,1,7.177,0V17.747a.9.9,0,0,0,.9.9H39.1a3.586,3.586,0,1,1,0,7.173H26.73a.9.9,0,0,0-.9.9V39.081a3.589,3.589,0,0,1-7.177,0V26.714a.9.9,0,0,0-.9-.9H5.383a3.586,3.586,0,1,1,0-7.173Z" transform="translate(99.582 12312.726) rotate(45)" fill="#7ea7f9" fill-rule="evenodd"/>
      <path id="Trazado_906687" data-name="Trazado 906687" d="M0,22.252a5.387,5.387,0,0,0,5.383,5.38H16.86V39.1a5.383,5.383,0,0,0,10.766,0V27.631H39.1a5.38,5.38,0,1,0,0-10.759H27.627V5.4a5.383,5.383,0,0,0-10.766,0V16.872H5.382A5.387,5.387,0,0,0,0,22.252Zm17.759-3.586a.9.9,0,0,0,.9-.9V5.4a3.589,3.589,0,0,1,7.177,0V17.768a.9.9,0,0,0,.9.9H39.1a3.586,3.586,0,1,1,0,7.173H26.729a.9.9,0,0,0-.9.9V39.1a3.589,3.589,0,0,1-7.177,0V26.735a.9.9,0,0,0-.9-.9H5.382a3.586,3.586,0,1,1,0-7.173Z" transform="translate(1539.598 11993.184) rotate(45)" fill="#bad1ff" fill-rule="evenodd"/>
      <path id="Trazado_906688" data-name="Trazado 906688" d="M460.225,194.379a58.741,58.741,0,0,1,8.631-4.432c.643-.286,1.251-.5,1.894-.751.643-.268,1.269-.5,1.841-.7,1.412-.536,2.895-1.09,4.557-1.715l4.664.375c7.541-3.27,2.895-2.68,8.077-5.5a124.875,124.875,0,0,0,13.474-3.949,102.834,102.834,0,0,1,10.221-2.966c2.252.411-2.341,1.644-3.252,2.484,2.019-.7,3.413-1.144,4.61-1.68,1.179-.447,2.109-.893,3.127-1.34a21.4,21.4,0,0,1,9.078-1.59l.143.5a21.008,21.008,0,0,1,2.144-.107l1.09-.036h.5l.25-.036,1.054-.054h.715a2.567,2.567,0,0,1,2.52,1.59,3.78,3.78,0,0,1,.143,1.68,5.168,5.168,0,0,1-.143.893c-.036.179-.143.447-.2.679a8.367,8.367,0,0,1-.268.8,99.937,99.937,0,0,1-4.682,10.025c-3.627,7.076-7.952,14.367-11.061,23.248-.393,1.09-.75,2.269-1.054,3.467-.339,1.144-.572,2.466-.822,3.717a36.222,36.222,0,0,0-.447,4.039,26.752,26.752,0,0,0,.214,4.432c.125.768.214,1.59.411,2.359.214.751.465,1.519.715,2.252a11.8,11.8,0,0,0,.947,2.216,18.621,18.621,0,0,0,1.019,1.823,23.176,23.176,0,0,0,5.915,6.594c-2.43-2.2-1.465-2.019-2.055-3.127a20.083,20.083,0,0,0,6.236,4.61,22.042,22.042,0,0,0,7.309,2,37.226,37.226,0,0,0,12.938-1.269c7.827-2.055,14.635-5.254,21.229-8.309q4.825-2.305,9.578-4.575c3.61-1.644,4.914-2.341,7.148-3.234a21.623,21.623,0,0,1,6.88-1.715,8.1,8.1,0,0,1,3.574.643,7.839,7.839,0,0,1,2.7,2.234,6.429,6.429,0,0,1,1.573,4.575,14.222,14.222,0,0,1-1.179,4.5,20.466,20.466,0,0,0,2.395-4.718,8.018,8.018,0,0,0-.357-5.843,7.782,7.782,0,0,0-3.842-4.253,11.869,11.869,0,0,0-5.986-.768,47.814,47.814,0,0,0-12.473,3.431,181.988,181.988,0,0,0-22.873,11.311c-3.413.572-7.487,2.073-11.347,2.913-3.824.876-7.505.876-8.881-.232a16.781,16.781,0,0,1-8.845-3.628,19.249,19.249,0,0,1-5-6.808,18.861,18.861,0,0,1-1.251-7.684,35.543,35.543,0,0,1,1.054-7.13c2.323-9.113,6.5-17.3,12.223-28,1.876-2.913,1.912-1.019,3.163-1.519,0,0-1.984,4.414-4.217,8.81-1.09,2.2-2.18,4.414-3,6.076-.8,1.662-1.34,2.788-1.34,2.788s1.555-2.573,3.181-5.111l3.234-5.057c-.876,2.466-3.038,6.379-4.753,9.953-1.751,3.574-2.948,6.862-2.484,7.845a87.776,87.776,0,0,1,5.736-13.134c2.377-4.646,5.093-9.471,7.255-14.51a34.927,34.927,0,0,0,2.52-7.845,11.593,11.593,0,0,0-.84-7.612,9.448,9.448,0,0,0-5.575-4.164c-.536-.143-1.054-.286-1.573-.429-.518-.125-1.054-.143-1.555-.214-.5-.054-.983-.107-1.465-.161-.482,0-.947,0-1.412.018a20.472,20.472,0,0,1,2.466.572,16.2,16.2,0,0,1,2.5.786,10.434,10.434,0,0,1,4.557,3.02,8,8,0,0,1,1.751,5.379,18.893,18.893,0,0,1-1.126,5.718c-1.537,3.038-4.539,7.9-5.164,7.13a71.422,71.422,0,0,0,2.448-7.595,13.279,13.279,0,0,0,.286-5.9,6.214,6.214,0,0,0-3.52-4.2,5.71,5.71,0,0,0-1.287-.518,6.951,6.951,0,0,0-1.322-.375l-1.34-.286-1.5-.179c-.876-.143-2.323-.2-3.538-.3-1.269-.125-2.52-.036-3.806-.072-1.269,0-2.573.143-3.86.214-1.3.107-2.609.3-3.931.465a94.929,94.929,0,0,0-16.351,4.128c-5.647,1.912-13.474,4.557-14.724,4.056,3.681-1.608.59-1.3,3.556-2.788-7.934,3.556.3,3.288-11.758,7.112l.536-3.413a9.608,9.608,0,0,1-4.021,2.734c-.858.34-1.769.643-2.752.929-.929.268-1.894.536-2.877.822-4,1.144-8.577,2.663-12.312,5.307-3.449.179,1.733-2.913,7.952-5.611-7.362,2.484-7.237,4.5-13.063,6.9l4.414-4.735c-5.075,4.95-11.222,4.217-14.975,4.539-.107.375.822.75.786,1.358,0,.3-.286.643-1.054,1.072a15.819,15.819,0,0,1-4.128,1.394c-3.645.482-1.948-.59-2.859-.768a4.589,4.589,0,0,1-2.412,1.573,13.182,13.182,0,0,1-2.752.786c-.554.089-1.144.179-1.787.25-.643.054-1.34.036-2.073.036-.518-.447.465-.751,1.59-1.054,1.108-.34,2.359-.786,2.5-1.233a35.758,35.758,0,0,1-5.129.089h.018a9.868,9.868,0,0,1,1.7-5.272c1.072-3.467.679-3.074.071-2.609-.59.536-1.34,1.215-.965-.375,2.859-4.36,4.271-5.254,5.111-5.307.84-.089,1.608.7,3.735-1.8a66.982,66.982,0,0,1-2.537,7.38c-.625,1.5-1.287,3.109-1.894,4.7-.2.751-.375,1.483-.572,2.216.036.393.054.768.054,1.144-1.519-1.626-3.02-3.27-4.36-4.7a26.563,26.563,0,0,0,7.9-1.34,35.266,35.266,0,0,1-7.863.893l4.771,5.146V189.7l.643-2.162c.679-1.555,1.376-3.109,2.109-4.628.322.554,2.806-3.252,4.217-5.575.715-1.144,1.287-2.055,1.537-2.055.143-.018.2.2.125.733a13.025,13.025,0,0,1-.679,2.788,40.021,40.021,0,0,0,3.735-12.223,30.435,30.435,0,0,0,.268-6.576l-.071-.965c-.036-.3-.2-.268-.286-.429-.232-.214-.447-.429-.679-.679-.465-.447-.929-1.054-1.412-1.608-7.237,2.126-14.617,4.271-21.837,6.683-3.556,1.161-7.094,2.305-10.275,3.252-1.215.375-2.412.733-3.61,1.09-1.036.3-2.055.59-3.056.876,2.126-.107,4.861-.554,4.575.179-7.469,2.395-6.88.822-8.542.429a11,11,0,0,0-4.682,2.448,10.513,10.513,0,0,1-3.163,2.484c-.733-.036-1.412-.071-2.073-.125-.625-.036-1.054-.107-1.537-.161-.929-.107-1.715-.25-2.43-.375a15.983,15.983,0,0,1-3.574-1.09,5.662,5.662,0,0,1-2.466-2.216,5.252,5.252,0,0,1-.107-4.324s-.5.232-1.019.465c-.5.25-1,.518-1,.518.286-1.43.679-2.395.876-3.217.232-.822.34-1.519.482-2.252a10.457,10.457,0,0,1,.786-2.412,15.718,15.718,0,0,1,2.538-3.52c.268-.071.089.572-.268,1.483-.179.447-.393.983-.625,1.537-.2.5-.268.822-.393,1.233a12.006,12.006,0,0,1,1.769-2.806,16.89,16.89,0,0,1,1.823-1.787,18.334,18.334,0,0,0,4.164-4.878l-.858,2.7-.768,2.663c2.984-4.164,7.648-10.758,7.166-7.523a67.682,67.682,0,0,1,4.467-7.237c1.8-2.68,3.9-5.522,5.951-8.953a30.927,30.927,0,0,0,2.948-6.236,14.02,14.02,0,0,0,.7-5.289,9.172,9.172,0,0,0-.3-1.841,8.148,8.148,0,0,0-.733-1.948,9.879,9.879,0,0,0-2.573-3.27,11.856,11.856,0,0,0-5.236-2.43,19.51,19.51,0,0,0-3.717-.357,29.185,29.185,0,0,0-5.682.572l.768-1.608c-3.574,1.215-9.489,2.323-15.1,3.77-.7.179-1.394.375-2.091.554l-1.019.286c-.357.089-1,.3-1.34.411-1.5.536-2.716,1.036-3.86,1.555a19.851,19.851,0,0,0-5.093,3.056l-1.072-.25-10.7,6.362c-5.254,1.787-4.289-1.036-4.485-.286-11.168,4.61-20.21,7.648-27.609,8.685-.232,1.09-2.412,2.377-5.861,3.306a22.025,22.025,0,0,1-5.736.786,8.171,8.171,0,0,1-3-.518,3.816,3.816,0,0,1-2.144-1.894,6.071,6.071,0,0,1,.125-3.431,16.161,16.161,0,0,1,1.34-3.2,28.355,28.355,0,0,1,1.769-2.931l2.019-2.716,1-1.358c.357-.482.59-.84,1.126-1.465l2.877-3.467c1.841-2.341,3.967-4.592,6.058-6.88a287.92,287.92,0,0,1,27.323-25.411c19.21-15.922,39.456-30.271,57.594-44.46a64.98,64.98,0,0,0,6.326-5.45c2.162-2.126,4.378-4.45,6.63-6.755l1.019,3.074c-1.894.357-3.842,1.858-7.148,2.234a22.7,22.7,0,0,0,2.716-.232c.7-.143,1.34-.286,1.966-.411.5-.089,1.072-.268,1.43-.286.375-.036.715-.089,1.036-.143-.608-1.8-1.2-3.61-1.715-5.164-3.663,2.823-5.432,4.861-11.383,9.042-6.63,4.039-10.2,3.9-16.44,6.612l3.77-.5c-7.863,7.094-6.469,3.324-12.33,9.471l-1.3-2.5c-1.608,2.823-8.309,6.058-11.222,7.184l-1.126,3.163c-6.058,2.948-9.828,5.146-12.509,4.932l1.573,1.054a20.766,20.766,0,0,0-4.289,2.52c-1.966,1.412-4.324,3.091-6.415,4.575-4.2,2.966-7.452,5.093-5.254,1.394-1.287,1.555-2.144,3.342-5.593,5.9l-1.626-.947c-2.234,2.2-4.664,4.45-6.719,6.29-2.037,1.876-3.788,3.234-4.789,3.467,2.252-2.609,2.591-3.949,2.913-5.289-2.52,2.216-4.414,4.021-5.826,5.486a23.9,23.9,0,0,0-2.895,3.645c-1.179,1.912-1.09,2.859-.929,3.753a4.278,4.278,0,0,1-.429,3.359c-.786,1.715-2.609,4.2-6.5,8.667l-.7-.965-2.966,5.54s-.322.25-.822.643c-.25.2-.536.429-.84.661a7.1,7.1,0,0,0-1.019.911l-3.091,3.377a26.078,26.078,0,0,1-1.948,4.878,33.433,33.433,0,0,0-2.5,5.843,27.312,27.312,0,0,0-1.5,6.7,10.694,10.694,0,0,0,1.662,7.273,12.6,12.6,0,0,0,6.362,4.253,25.78,25.78,0,0,0,8.023,1.126,42.476,42.476,0,0,0,8.631-1c1.394-.286,2.77-.661,4.056-1.019q.965-.295,1.876-.59a12.385,12.385,0,0,0,1.376-.536c5.325-1.7,12.991-1.608,22.748-5.379L340.1,138c4.253-.536,13.777-3.359,23.159-5.968,2.341-.643,4.682-1.269,6.826-1.769.518-.107,1.036-.214,1.537-.322a5.046,5.046,0,0,1,1.161-.143,1.861,1.861,0,0,0,.59-.036l.768-.071c.518-.036,1.019-.089,1.5-.125,3.931-.268,7.112-.054,8.9.661,6.111-2.323-.661-.3-.876-1.626a23.446,23.446,0,0,1,6.915-1.43,3.234,3.234,0,0,1,.733.089.5.5,0,0,1,.2.071c.036-.071-.089.447.179-.786a13.816,13.816,0,0,1,2.162-5.629c.608-.751.768-.482-.107-.322a10.987,10.987,0,0,1-4.592-.393,33.033,33.033,0,0,1-3.913-1.144c-.071-.054-.2,0-.322.054a5.026,5.026,0,0,0-1,.911c-.59,1.412-.893,2.073-.7,2.019a6.121,6.121,0,0,0,1.215-1.287c1.072-1.358,1.5-1.858,1.787-.8-.715.965-1.3,1.787-1.841,2.5-.608.858-1.179,1.68-1.662,2.448-.983,1.537-1.662,2.859-2.43,4.271-1.537,2.895-3.431,5.951-9.578,12.866-1.912.84,2.394-4.217,3.056-6.022-1.644,2.77-3.878,5.968-6.451,9.81-.643.983-1.3,2-1.966,3.038-.375.608-.751,1.2-1.126,1.823-.518.858-.983,1.715-1.483,2.573a32.517,32.517,0,0,0-3.913,11.133A21.8,21.8,0,0,0,360.6,175.83l.661,1.322c.268.411.554.822.84,1.215a17.683,17.683,0,0,0,1.912,2.252,28.764,28.764,0,0,0,2.216,1.948c.822.554,1.68,1.054,2.52,1.555a28.481,28.481,0,0,0,11.848,3.02,30.666,30.666,0,0,0,3.145.089c.983,0,2.252,0,2.859-.054,1.412-.089,2.77-.214,4.056-.375,3.217-.179,6.5-.554,9.864-1.072,1.662-.268,3.377-.554,5.075-.894.858-.161,1.715-.34,2.573-.518l1.161-.232.322-.036a21.626,21.626,0,0,1,3.038-.089.76.76,0,0,1,.3.071s.054,0,.054.036l-.054.179a2.987,2.987,0,0,1-.143.357,4.242,4.242,0,0,1-.858,1.108c-.3.3-.572.554-.786.733l-.3.25s-.143.322-.2.465a4.588,4.588,0,0,0-.089.679l-.107.965-.161,1.93-.983,12.133,13.277,1.144a57.24,57.24,0,0,0,6.648.286l.572-.679c7,.286,13.4-1.59,19.281-3.788,5.808-2.252,11.294-4.95,16.708-6.88L460.17,194.4Z" transform="translate(1176.891 12129.297)" fill="#ffb6c8"/>
      <g id="Grupo_1104399" data-name="Grupo 1104399" transform="translate(-195.148 11883.853)">
        <path id="Trazado_906689" data-name="Trazado 906689" d="M481.845,157.089c-1.744-.456-1.434-.733-.179-.929a39.067,39.067,0,0,1,5.607-.163l3.227,2.624s-2.151-.407-4.3-.831c-2.151-.407-4.352-.717-4.352-.717Z" transform="translate(-480.63 55.147)" fill="#a7f7dd"/>
        <path id="Trazado_906690" data-name="Trazado 906690" d="M468.867,158.18s2.363.782,4.824,1.353a39.8,39.8,0,0,0,5.036.848s-1.858-.049-3.667-.293c-1.809-.228-3.569-.619-3.569-.619-3.993.228-3.83.733-2.216,1.385a27.853,27.853,0,0,0,6.307,1.3,22.828,22.828,0,0,1-6.47-.9c-1.076-.375-1.288-.75-1.157-1.076.261-.668,1.874-1.32.913-2Z" transform="translate(-448.143 56.534)" fill="#a7f7dd"/>
        <path id="Trazado_906691" data-name="Trazado 906691" d="M460.791,158.4c2.282-2.3,2.9-3.423,3.292-3.243.359.13.179,1.548-.668,2.868a2.909,2.909,0,0,0-.994.473c-.391.179-.815.424-1.288.619-.88.359-1.3.359-.342-.7Z" transform="translate(-421.162 54.618)" fill="#a7f7dd"/>
        <path id="Trazado_906692" data-name="Trazado 906692" d="M337.012,100.25l.424.456c.147.163.2.2.293.293.2.179.375.359.538.522.326.31.6.505.733.359.114.6.081.962-.179.8a2.791,2.791,0,0,1-.57-.652c-.13-.179-.277-.391-.473-.652-.228-.31-.473-.685-.766-1.108Z" transform="translate(-95.121 20.048)" fill="#a7f7dd"/>
        <path id="Trazado_906693" data-name="Trazado 906693" d="M337.169,101.559c-.049-.228-.1-.489-.179-.8a5.72,5.72,0,0,1,.277.7c0,.081-.065.065-.1.1Z" transform="translate(-93.29 20.369)" fill="#a7f7dd"/>
        <path id="Trazado_906694" data-name="Trazado 906694" d="M418.559,179.611a53.577,53.577,0,0,0-7.872-4.042c-.587-.261-1.141-.456-1.728-.685-.587-.244-1.157-.456-1.679-.636-1.288-.489-2.64-.994-4.156-1.565l-4.254.342c-6.878-2.983-2.64-2.445-7.367-5.02a113.9,113.9,0,0,1-12.289-3.6,93.792,93.792,0,0,0-9.322-2.706c-2.054.375,2.135,1.5,2.966,2.265-1.842-.636-3.113-1.043-4.2-1.532-1.076-.407-1.923-.815-2.852-1.222a19.52,19.52,0,0,0-8.28-1.451l-.13.456a19.157,19.157,0,0,0-1.956-.1l-.994-.033h-.456l-.228-.033L352.8,160h-.652a2.341,2.341,0,0,0-2.3,1.451,3.447,3.447,0,0,0-.13,1.532,4.712,4.712,0,0,0,.13.815c.033.163.13.407.179.619a7.623,7.623,0,0,0,.244.733,91.156,91.156,0,0,0,4.27,9.143c3.308,6.454,7.253,13.1,10.089,21.2.358.994.684,2.07.962,3.162.31,1.043.521,2.249.75,3.39a33.035,33.035,0,0,1,.407,3.683,24.4,24.4,0,0,1-.2,4.042c-.114.7-.2,1.451-.375,2.151-.2.685-.424,1.385-.652,2.054a10.767,10.767,0,0,1-.864,2.021,16.985,16.985,0,0,1-.929,1.662,21.138,21.138,0,0,1-5.395,6.014c2.216-2,1.336-1.842,1.874-2.852a18.318,18.318,0,0,1-5.688,4.2,20.1,20.1,0,0,1-6.666,1.825,33.953,33.953,0,0,1-11.8-1.157c-7.139-1.874-13.348-4.792-19.362-7.579q-4.4-2.1-8.736-4.172c-3.292-1.5-4.482-2.135-6.519-2.95a19.722,19.722,0,0,0-6.275-1.565,7.386,7.386,0,0,0-3.26.587,7.15,7.15,0,0,0-2.461,2.037,5.864,5.864,0,0,0-1.434,4.172,12.971,12.971,0,0,0,1.076,4.107,18.667,18.667,0,0,1-2.184-4.3,7.313,7.313,0,0,1,.326-5.33,7.1,7.1,0,0,1,3.5-3.879,10.826,10.826,0,0,1,5.46-.7,43.609,43.609,0,0,1,11.376,3.129,165.986,165.986,0,0,1,20.862,10.317c3.113.522,6.829,1.891,10.349,2.657,3.488.8,6.845.8,8.1-.212a15.306,15.306,0,0,0,8.068-3.309,17.557,17.557,0,0,0,4.563-6.21,17.2,17.2,0,0,0,1.141-7.008,32.417,32.417,0,0,0-.961-6.5c-2.119-8.312-5.933-15.777-11.148-25.539-1.711-2.657-1.744-.929-2.885-1.385,0,0,1.809,4.026,3.846,8.035.994,2,1.988,4.026,2.738,5.541.733,1.516,1.222,2.543,1.222,2.543s-1.418-2.347-2.9-4.661l-2.95-4.612c.8,2.249,2.771,5.818,4.335,9.078,1.6,3.26,2.689,6.259,2.266,7.155a80.06,80.06,0,0,0-5.232-11.979c-2.168-4.238-4.645-8.638-6.617-13.234a31.854,31.854,0,0,1-2.3-7.155,10.573,10.573,0,0,1,.766-6.943,8.617,8.617,0,0,1,5.085-3.8c.489-.13.962-.261,1.434-.391.473-.114.962-.13,1.418-.2.456-.049.9-.1,1.336-.147.44,0,.864,0,1.288.016a18.673,18.673,0,0,0-2.249.522,14.776,14.776,0,0,0-2.282.717,9.517,9.517,0,0,0-4.156,2.754,7.294,7.294,0,0,0-1.6,4.906,17.232,17.232,0,0,0,1.027,5.215c1.4,2.771,4.14,7.2,4.71,6.5a65.142,65.142,0,0,1-2.233-6.927,12.111,12.111,0,0,1-.261-5.378,5.667,5.667,0,0,1,3.211-3.83,5.207,5.207,0,0,1,1.173-.473,6.34,6.34,0,0,1,1.206-.342l1.222-.261,1.369-.163c.8-.13,2.119-.179,3.227-.277,1.157-.114,2.3-.033,3.472-.065,1.157,0,2.347.13,3.52.2,1.19.1,2.379.277,3.586.424a86.583,86.583,0,0,1,14.913,3.765c5.15,1.744,12.289,4.156,13.43,3.7-3.357-1.467-.538-1.19-3.243-2.543,7.236,3.243-.277,3,10.724,6.487l-.489-3.113a8.764,8.764,0,0,0,3.667,2.494c.782.31,1.614.587,2.51.847.847.244,1.728.489,2.624.75,3.651,1.043,7.823,2.428,11.23,4.841,3.146.163-1.581-2.657-7.253-5.118,6.715,2.265,6.6,4.107,11.914,6.291l-4.026-4.319c4.629,4.515,10.235,3.846,13.658,4.14.1.342-.75.685-.717,1.239,0,.277.261.587.962.978a14.428,14.428,0,0,0,3.765,1.271c3.325.44,1.777-.538,2.608-.7a4.185,4.185,0,0,0,2.2,1.434,12.022,12.022,0,0,0,2.51.717c.505.082,1.043.163,1.63.228.587.049,1.222.033,1.891.033.473-.407-.424-.685-1.451-.962-1.01-.31-2.151-.717-2.282-1.125a32.619,32.619,0,0,0,4.678.081h-.016a9,9,0,0,0-1.548-4.808c-.978-3.162-.619-2.8-.065-2.38.538.489,1.222,1.108.88-.342-2.608-3.977-3.9-4.792-4.661-4.841-.766-.081-1.467.636-3.406-1.646a61.078,61.078,0,0,0,2.314,6.731c.57,1.369,1.173,2.836,1.728,4.286.179.685.342,1.353.522,2.021-.033.359-.049.7-.049,1.043,1.385-1.483,2.754-2.983,3.977-4.286a24.227,24.227,0,0,1-7.2-1.222,32.165,32.165,0,0,0,7.171.815l-4.352,4.694v-.978l-.587-1.972c-.619-1.418-1.255-2.836-1.923-4.221-.293.505-2.559-2.966-3.846-5.085-.652-1.043-1.173-1.874-1.4-1.874-.13-.016-.179.179-.114.668a11.88,11.88,0,0,0,.619,2.543,36.5,36.5,0,0,1-3.406-11.148,27.76,27.76,0,0,1-.244-6l.065-.88c.033-.277.179-.244.261-.391.212-.2.407-.391.619-.619.424-.407.848-.962,1.288-1.467,6.6,1.939,13.332,3.9,19.916,6.1,3.243,1.059,6.47,2.1,9.371,2.966,1.108.342,2.2.668,3.292.994.945.277,1.874.538,2.787.8-1.939-.1-4.433-.505-4.172.163,6.813,2.184,6.275.75,7.791.391a10.033,10.033,0,0,1,4.27,2.233,9.588,9.588,0,0,0,2.885,2.265c.668-.033,1.288-.065,1.891-.114.57-.033.962-.1,1.4-.147.848-.1,1.565-.228,2.217-.342a14.576,14.576,0,0,0,3.26-.994,5.164,5.164,0,0,0,2.249-2.021,4.79,4.79,0,0,0,.1-3.944s.456.212.929.424c.456.228.913.473.913.473-.261-1.3-.619-2.184-.8-2.934-.212-.75-.31-1.385-.44-2.054a9.539,9.539,0,0,0-.717-2.2,14.337,14.337,0,0,0-2.314-3.211c-.244-.065-.081.522.244,1.353.163.407.359.9.57,1.4.179.456.244.75.359,1.125a10.951,10.951,0,0,0-1.613-2.559,15.405,15.405,0,0,0-1.662-1.63,16.722,16.722,0,0,1-3.8-4.449l.782,2.461.7,2.428c-2.722-3.8-6.976-9.812-6.536-6.862a61.728,61.728,0,0,0-4.075-6.6c-1.646-2.445-3.553-5.036-5.427-8.165a28.208,28.208,0,0,1-2.689-5.688,12.788,12.788,0,0,1-.636-4.824,8.367,8.367,0,0,1,.277-1.679,7.432,7.432,0,0,1,.668-1.777,9.01,9.01,0,0,1,2.347-2.983,10.814,10.814,0,0,1,4.775-2.217,17.794,17.794,0,0,1,3.39-.326,26.619,26.619,0,0,1,5.183.522l-.7-1.467c3.26,1.108,8.654,2.119,13.772,3.439.636.163,1.271.342,1.907.505l.929.261c.326.081.913.277,1.222.375,1.369.489,2.477.945,3.52,1.418a18.1,18.1,0,0,1,4.645,2.787l.978-.228,9.763,5.8c4.792,1.63,3.911-.945,4.091-.261,10.186,4.2,18.433,6.976,25.181,7.921.212.994,2.2,2.168,5.346,3.015a20.088,20.088,0,0,0,5.232.717,7.453,7.453,0,0,0,2.738-.473,3.48,3.48,0,0,0,1.956-1.728,5.536,5.536,0,0,0-.114-3.129,14.738,14.738,0,0,0-1.222-2.917,25.858,25.858,0,0,0-1.614-2.673l-1.842-2.477-.913-1.239c-.326-.44-.538-.766-1.027-1.336l-2.624-3.162c-1.679-2.135-3.618-4.189-5.525-6.275a262.6,262.6,0,0,0-24.92-23.176c-17.521-14.522-35.986-27.609-52.529-40.55a59.266,59.266,0,0,1-5.77-4.971c-1.972-1.94-3.993-4.058-6.047-6.161l-.929,2.8c1.728.326,3.5,1.7,6.519,2.037a20.7,20.7,0,0,1-2.477-.212c-.636-.13-1.222-.261-1.793-.375-.456-.081-.978-.244-1.3-.261-.342-.033-.652-.081-.945-.13.554-1.646,1.092-3.292,1.565-4.71,3.341,2.575,4.955,4.433,10.382,8.247,6.047,3.683,9.306,3.553,14.994,6.03l-3.439-.456c7.171,6.47,5.9,3.031,11.246,8.638l1.19-2.282c1.467,2.575,7.579,5.525,10.235,6.552l1.027,2.885c5.525,2.689,8.964,4.694,11.409,4.5l-1.434.962a18.941,18.941,0,0,1,3.912,2.3c1.793,1.288,3.944,2.82,5.851,4.172,3.83,2.706,6.8,4.645,4.792,1.271a22.03,22.03,0,0,0,5.1,5.378l1.483-.864c2.037,2,4.254,4.058,6.128,5.737,1.858,1.711,3.455,2.95,4.368,3.162a9.826,9.826,0,0,1-2.657-4.824c2.3,2.021,4.026,3.667,5.313,5a21.8,21.8,0,0,1,2.64,3.325c1.076,1.744.994,2.608.847,3.423a3.9,3.9,0,0,0,.391,3.064c.717,1.565,2.38,3.83,5.933,7.9l.636-.88,2.706,5.052s.293.228.75.587c.228.179.489.391.766.6a6.474,6.474,0,0,1,.929.831l2.82,3.08a23.785,23.785,0,0,0,1.777,4.449,30.489,30.489,0,0,1,2.282,5.33,24.909,24.909,0,0,1,1.369,6.112,9.754,9.754,0,0,1-1.516,6.633,11.5,11.5,0,0,1-5.8,3.879,23.512,23.512,0,0,1-7.318,1.027,38.74,38.74,0,0,1-7.872-.913c-1.271-.261-2.526-.6-3.7-.929q-.88-.269-1.711-.538a11.294,11.294,0,0,1-1.255-.489c-4.857-1.548-11.849-1.467-20.748-4.906l1.125-1.3c-3.879-.489-12.566-3.064-21.122-5.444-2.135-.587-4.27-1.157-6.226-1.614-.473-.1-.945-.2-1.4-.293a4.6,4.6,0,0,0-1.059-.13,1.7,1.7,0,0,1-.538-.033l-.7-.065c-.473-.033-.929-.081-1.369-.114-3.586-.244-6.487-.049-8.117.6-5.574-2.119.6-.277.8-1.483a21.384,21.384,0,0,0-6.307-1.3,2.95,2.95,0,0,0-.668.081.459.459,0,0,0-.179.065c-.033-.065.081.407-.163-.717a12.6,12.6,0,0,0-1.972-5.134c-.554-.685-.7-.44.1-.293a10.021,10.021,0,0,0,4.189-.359,30.127,30.127,0,0,0,3.569-1.043c.065-.049.179,0,.293.049a4.584,4.584,0,0,1,.913.831c.538,1.288.815,1.891.636,1.842a5.583,5.583,0,0,1-1.108-1.173c-.978-1.239-1.369-1.7-1.63-.733.652.88,1.19,1.63,1.679,2.282.554.782,1.076,1.532,1.516,2.233.9,1.4,1.516,2.608,2.217,3.9,1.4,2.64,3.129,5.427,8.736,11.735,1.744.766-2.184-3.846-2.787-5.493,1.5,2.526,3.537,5.444,5.884,8.948.587.9,1.19,1.825,1.793,2.771.342.554.685,1.092,1.027,1.662.473.782.9,1.565,1.353,2.347a29.657,29.657,0,0,1,3.569,10.154,19.885,19.885,0,0,1-1.614,10.431l-.6,1.206c-.245.375-.505.75-.766,1.108a16.128,16.128,0,0,1-1.744,2.054,26.239,26.239,0,0,1-2.021,1.777c-.75.505-1.532.962-2.3,1.418a25.976,25.976,0,0,1-10.806,2.754,27.966,27.966,0,0,1-2.868.081c-.9,0-2.054,0-2.608-.049-1.288-.081-2.526-.2-3.7-.342-2.934-.163-5.933-.505-9-.978-1.516-.244-3.08-.505-4.629-.815-.782-.147-1.565-.31-2.347-.473l-1.059-.212-.293-.033a19.726,19.726,0,0,0-2.771-.081.694.694,0,0,0-.277.065s-.049,0-.049.033l.049.163a2.722,2.722,0,0,0,.13.326,3.87,3.87,0,0,0,.782,1.011c.277.277.522.505.717.668l.277.228s.13.293.179.424a4.186,4.186,0,0,1,.081.619l.1.88.147,1.76.9,11.067-12.11,1.043a52.207,52.207,0,0,1-6.063.261l-.522-.619c-6.389.261-12.224-1.451-17.586-3.455-5.3-2.054-10.3-4.515-15.239-6.275l5.183,1.32Z" transform="translate(-250.776 -26.44)" fill="#a7f7dd"/>
        <path id="Trazado_906695" data-name="Trazado 906695" d="M428.28,137.059l-1.842-1.076s-.147-.57-.424-1.434c-.245-.864-.652-2-1.059-3.178-.848-2.314-1.825-4.661-1.825-4.661,2.836,3.113,3.064,5.427,5.167,10.333Z" transform="translate(-324.713 36.713)" fill="#a7f7dd"/>
        <path id="Trazado_906696" data-name="Trazado 906696" d="M422.339,132.038s.31,1.337.636,2.673c.114.668.228,1.353.326,1.858a6.59,6.59,0,0,1,.114.848,12.279,12.279,0,0,0-.342-1.32c-.212-.8-.538-1.842-.913-2.868-.733-2.07-1.63-4.058-1.63-4.058s.489.7.929,1.418c.456.733.9,1.451.9,1.451Z" transform="translate(-315.593 38.262)" fill="#a7f7dd"/>
        <path id="Trazado_906697" data-name="Trazado 906697" d="M400.7,115.917l-1.32-.342s-1.108-.554-2.754-1.385c-1.662-.831-3.9-1.923-6.21-2.934l-9.16-3.716s1.222.473,3.031,1.19c1.825.717,4.286,1.581,6.813,2.657,2.461,1.059,4.857,2.217,6.633,3.08S400.7,115.917,400.7,115.917Z" transform="translate(-228.879 24.639)" fill="#a7f7dd"/>
        <path id="Trazado_906698" data-name="Trazado 906698" d="M339.246,101.384a4.178,4.178,0,0,0,.326,1.646,2.337,2.337,0,0,1,.2,1.451,8.341,8.341,0,0,0-.342-1.662c-.13-.424-.31-.88-.424-1.19-.359-.668-.587-1.108-.587-1.108l.831.864Z" transform="translate(-98.171 20.218)" fill="#a7f7dd"/>
        <path id="Trazado_906699" data-name="Trazado 906699" d="M316.149,76.79c2.314,3.52,6.356,2.331,1.336,2.868C312.6,77.377,317.306,78.11,316.149,76.79Z" transform="translate(-40.423 5.272)" fill="#a7f7dd"/>
        <path id="Trazado_906700" data-name="Trazado 906700" d="M312.544,83.928a21.447,21.447,0,0,1-5.884-2.608C310.816,81.548,310.539,82.787,312.544,83.928Z" transform="translate(-19.134 8.125)" fill="#a7f7dd"/>
      </g>
    </g>
    <rect id="Rectángulo_404340" data-name="Rectángulo 404340" width="1600" height="162" transform="translate(-4974 2581)" fill="none"/>
    <rect id="Rectángulo_404341" data-name="Rectángulo 404341" width="1600" height="162" transform="translate(-4974 3277)" fill="none"/>
  </g>
</svg>
