<svg xmlns="http://www.w3.org/2000/svg" width="84.945" height="84.945" viewBox="0 0 84.945 84.945">
  <g id="Grupo_1088060" data-name="Grupo 1088060" transform="translate(-180 -12568)">
    <path id="Trazado_861607" data-name="Trazado 861607" d="M42.473,0A42.473,42.473,0,1,1,0,42.473,42.473,42.473,0,0,1,42.473,0Z" transform="translate(180 12568)" fill="#ffb6c8"/>
    <g id="opinion_1822040" transform="translate(192.062 12549.339)">
      <path id="Trazado_914891" data-name="Trazado 914891" d="M85.579,230.025l.3-4.112-.443-6.011a7.171,7.171,0,0,0-13.676,3.5l.488,6.621c.257,3.491,4.56,5.91,6.664,5.91s6.407-2.419,6.664-5.91Zm0,0" transform="translate(-63.221 -169.148)" fill="#f8c894"/>
      <path id="Trazado_914892" data-name="Trazado 914892" d="M71.764,223.4l.291,3.955a3.609,3.609,0,0,0,2.126-2.316.627.627,0,0,1,.683-.436,6.607,6.607,0,0,0,7.473-6.553,6.63,6.63,0,0,0-.189-1.576A7.172,7.172,0,0,0,71.764,223.4Zm0,0" transform="translate(-63.222 -169.148)" fill="#f76937"/>
      <path id="Trazado_914893" data-name="Trazado 914893" d="M100.2,222.023a7.192,7.192,0,0,0-4.515-3.909,7.208,7.208,0,0,1,.951,1.533l.443,6.011-.3,4.112c-.257,3.491-4.561,5.91-6.664,5.91a5,5,0,0,1-1.617-.329,8.17,8.17,0,0,0,5.181,2.7c2.1,0,6.407-2.419,6.664-5.91l.3-4.112Zm0,0" transform="translate(-77.987 -171.269)" fill="#eab67e"/>
      <path id="Trazado_914894" data-name="Trazado 914894" d="M156.081,227.843a1.765,1.765,0,0,1,1.7-1.281h1.387l-.07-.95a7.205,7.205,0,0,0-3.292-3.433,6.621,6.621,0,0,1-.474,4.467,6.621,6.621,0,0,0,.753,1.2Zm0,0" transform="translate(-136.876 -174.852)" fill="#d1462a"/>
      <path id="Trazado_914895" data-name="Trazado 914895" d="M321.545,230.025l-.3-4.112.443-6.011a7.171,7.171,0,0,1,13.676,3.5l-.488,6.621c-.257,3.491-4.56,5.91-6.664,5.91S321.8,233.515,321.545,230.025Zm0,0" transform="translate(-283.081 -169.148)" fill="#ffdecf"/>
      <path id="Trazado_914896" data-name="Trazado 914896" d="M52.486,295.668h.222l-.336-4.555H51.167a1.534,1.534,0,0,0-1.534,1.535v.168a2.853,2.853,0,0,0,2.853,2.853Zm0,0" transform="translate(-43.737 -235.597)" fill="#fcb19f"/>
      <path id="Trazado_914897" data-name="Trazado 914897" d="M321.384,264.316h-.255l.386-5.242H322.9a1.766,1.766,0,0,1,1.766,1.766v.193A3.284,3.284,0,0,1,321.384,264.316Zm0,0" transform="translate(-282.98 -207.364)" fill="#a16131"/>
      <path id="Trazado_914898" data-name="Trazado 914898" d="M164.369,264.316h.256l-.386-5.242h-1.387a1.766,1.766,0,0,0-1.766,1.766v.193a3.284,3.284,0,0,0,3.283,3.283Zm0,0" transform="translate(-141.95 -207.364)" fill="#a16131"/>
      <path id="Trazado_914899" data-name="Trazado 914899" d="M19.986,380.586a4.951,4.951,0,0,1,4.951-4.951h1.018v-1.248a7.233,7.233,0,0,1-3.652,1.377,7.235,7.235,0,0,1-3.652-1.377v2.48a.616.616,0,0,1-.616.616H11.8a4.3,4.3,0,0,0-4.3,4.3v8.058H19.985Zm0,0" transform="translate(-6.609 -308.977)" fill="#40c1fa"/>
      <path id="Trazado_914900" data-name="Trazado 914900" d="M436.707,295.668h-.222l.335-4.555h1.2a1.535,1.535,0,0,1,1.535,1.535v.168a2.853,2.853,0,0,1-2.853,2.853Zm0,0" transform="translate(-384.633 -235.597)" fill="#fcb19f"/>
      <path id="Trazado_914901" data-name="Trazado 914901" d="M355.118,380.586a4.951,4.951,0,0,0-4.951-4.951h-1.018v-1.248a5.53,5.53,0,0,0,7.3,0v2.48a.616.616,0,0,0,.616.616H363.3a4.3,4.3,0,0,1,4.3,4.3v8.058H355.118Zm0,0" transform="translate(-307.672 -308.977)" fill="#ffd508"/>
      <path id="Trazado_914902" data-name="Trazado 914902" d="M141.723,358.462h-7.172a.709.709,0,0,1-.709-.709V354.9a8.323,8.323,0,0,1-4.2,1.585,8.323,8.323,0,0,1-4.2-1.585v2.854a.709.709,0,0,1-.709.709h-7.172a4.951,4.951,0,0,0-4.951,4.951v9.258h34.069v-9.258A4.951,4.951,0,0,0,141.723,358.462Zm0,0" transform="translate(-99.229 -291.805)" fill="#72e4a0"/>
      <path id="Trazado_914903" data-name="Trazado 914903" d="M22.3,375.763a7.234,7.234,0,0,1-3.652-1.377v2.48a.616.616,0,0,1-.616.616H15.287a5,5,0,0,0-.053.727v3.506a5.751,5.751,0,0,1-5.751,5.751H7.5v2.376H19.986v-9.258a4.951,4.951,0,0,1,4.951-4.951h1.018v-1.248a7.233,7.233,0,0,1-3.652,1.377Zm0,0" transform="translate(-6.609 -308.977)" fill="#0691ce"/>
      <path id="Trazado_914904" data-name="Trazado 914904" d="M407.577,400.449h-.9a4.283,4.283,0,0,1,.456,1.927v2.307a5.751,5.751,0,0,1-5.751,5.751h-1.983v2.376H411.88v-8.058a4.3,4.3,0,0,0-4.3-4.3Zm0,0" transform="translate(-351.948 -331.944)" fill="#ddb907"/>
      <path id="Trazado_914905" data-name="Trazado 914905" d="M141.723,384.891H141.2a4.927,4.927,0,0,1,.722,2.575v3.507a5.751,5.751,0,0,1-5.751,5.751H112.605V399.1h34.069v-9.258a4.951,4.951,0,0,0-4.951-4.951Zm0,0" transform="translate(-99.229 -318.234)" fill="#62c389"/>
      <path id="Trazado_914906" data-name="Trazado 914906" d="M194.787,195.577c-2.421,0-7.373-2.784-7.668-6.8l-.561-7.618a8.252,8.252,0,1,1,16.459,0l-.561,7.618c-.3,4.017-5.247,6.8-7.668,6.8Zm0,0" transform="translate(-164.376 -130.898)" fill="#c17c46"/>
      <g id="Grupo_1104601" data-name="Grupo 1104601" transform="translate(10.814 41.831)">
        <path id="Trazado_914907" data-name="Trazado 914907" d="M343.465,218.129a7.137,7.137,0,0,1,1.577,5.034l-.488,6.621c-.257,3.491-4.56,5.91-6.664,5.91a5,5,0,0,1-1.618-.329,8.171,8.171,0,0,0,5.182,2.7c2.1,0,6.407-2.419,6.664-5.91l.488-6.621A7.173,7.173,0,0,0,343.465,218.129Zm0,0" transform="translate(-307.14 -213.114)" fill="#fcb19f"/>
        <path id="Trazado_914908" data-name="Trazado 914908" d="M216.051,175.914a8.214,8.214,0,0,1,2.034,6.053l-.561,7.619c-.3,4.017-5.247,6.8-7.668,6.8a6.156,6.156,0,0,1-2.176-.5,9.322,9.322,0,0,0,5.74,2.873c2.421,0,7.373-2.783,7.668-6.8l.561-7.619A8.254,8.254,0,0,0,216.051,175.914Zm0,0" transform="translate(-193.823 -175.914)" fill="#a16131"/>
        <path id="Trazado_914909" data-name="Trazado 914909" d="M93.6,380.586a4.951,4.951,0,0,1,4.951-4.951h1.018v-1.248a7.233,7.233,0,0,1-3.652,1.377,7.23,7.23,0,0,1-3.652-1.377v2.48a.616.616,0,0,1-.616.616h-.612a4.879,4.879,0,0,0,2.562,4.3Zm0,0" transform="translate(-91.035 -350.809)" fill="#f0c08c"/>
        <path id="Trazado_914910" data-name="Trazado 914910" d="M355.118,380.586a4.951,4.951,0,0,0-4.951-4.951h-1.018v-1.248a5.53,5.53,0,0,0,7.3,0v2.48a.616.616,0,0,0,.616.616h.612a4.879,4.879,0,0,1-2.562,4.3Zm0,0" transform="translate(-318.486 -350.809)" fill="#fcb19f"/>
        <path id="Trazado_914911" data-name="Trazado 914911" d="M214.346,364.086a5.615,5.615,0,0,0,5.615-5.625h-.7a.709.709,0,0,1-.709-.709V354.9a6.363,6.363,0,0,1-8.4,0v2.854a.709.709,0,0,1-.709.709h-.7A5.615,5.615,0,0,0,214.346,364.086Zm0,0" transform="translate(-194.749 -333.636)" fill="#a16131"/>
      </g>
      <path id="Trazado_914917" data-name="Trazado 914917" d="M204.381,172.3h-9.593a8.252,8.252,0,0,0-8.229,8.858l.4,5.481a2.915,2.915,0,0,0,2.21-2.883,13.683,13.683,0,0,1,.325-3.059l.293-1.4c.232-1.1,1.051-1.959,2.088-1.33a5.465,5.465,0,0,0,2.827.827h.166a5.464,5.464,0,0,0,2.826-.827c1.038-.629,1.857.226,2.089,1.33l.293,1.4a13.717,13.717,0,0,1,.325,3.059,2.914,2.914,0,0,0,2.21,2.883l.4-5.481a8.2,8.2,0,0,0-.659-3.892.255.255,0,0,1,.232-.358A2.708,2.708,0,0,0,205.3,174.2v-.982a.918.918,0,0,0-.918-.918Zm0,0" transform="translate(-164.376 -130.899)" fill="#365e7d"/>
      <path id="Trazado_914918" data-name="Trazado 914918" d="M286.337,172.3h-3.877a2.708,2.708,0,0,1-2.665,2.233.255.255,0,0,0-.233.357,8.19,8.19,0,0,1,.672,2.873c.755-.077,1.321.65,1.507,1.537l.293,1.4a13.689,13.689,0,0,1,.325,3.059,2.915,2.915,0,0,0,2.21,2.883l.4-5.481a8.2,8.2,0,0,0-.661-3.9.252.252,0,0,1,.235-.353,2.708,2.708,0,0,0,2.708-2.708v-.982A.918.918,0,0,0,286.337,172.3Zm0,0" transform="translate(-246.333 -130.899)" fill="#2b4d66"/>
      <path id="Trazado_914919" data-name="Trazado 914919" d="M336.617,185.214a1.725,1.725,0,0,1-.8-1.768,3.205,3.205,0,0,0-3.863-3.668,1.648,1.648,0,0,1-1.741-.728,4.028,4.028,0,0,0-6.8,0,1.66,1.66,0,0,1-1.246.76,2.707,2.707,0,0,1-2.373,1.4.255.255,0,0,0-.232.358,8.209,8.209,0,0,1,.659,3.892l-.107,1.451H321.5a1.755,1.755,0,0,1,1.043.343,1.607,1.607,0,0,1,1.418-.3,11.238,11.238,0,0,0,5.525-.024h0a1.612,1.612,0,0,1,1.955,1.228l.633,2.939a11.808,11.808,0,0,0,1.4,3.558l.176-2.393a1.69,1.69,0,0,1,1.594-1.555l.035,0a2.972,2.972,0,0,0,1.331-5.5Zm0,0" transform="translate(-281.583 -135.201)" fill="#909ba6"/>
      <path id="Trazado_914920" data-name="Trazado 914920" d="M421.608,203.874a1.725,1.725,0,0,1-.8-1.768,3.205,3.205,0,0,0-3.863-3.668,1.618,1.618,0,0,1-.952-.078,3.141,3.141,0,0,1,.1.6,3.23,3.23,0,0,1-.038.773,1.725,1.725,0,0,0,.8,1.768,2.969,2.969,0,0,1-.43,5.279c0,.015.009.031.013.046l.633,2.939a11.8,11.8,0,0,0,1.4,3.558l.176-2.393a1.69,1.69,0,0,1,1.594-1.555l.035,0a2.972,2.972,0,0,0,1.332-5.5Zm0,0" transform="translate(-366.575 -153.861)" fill="#5f6c75"/>
      <path id="Trazado_914921" data-name="Trazado 914921" d="M55.629,191.9H49.671v-1.742a6.952,6.952,0,0,0,3.012-4.96,3.749,3.749,0,0,0,3.134-3.693v-.168a2.409,2.409,0,0,0-.329-1.214,3.858,3.858,0,0,0,.013-6.582.831.831,0,0,1-.39-.861A4.1,4.1,0,0,0,50.175,168a.753.753,0,0,1-.794-.337,4.917,4.917,0,0,0-7.567-.9v-.154A1.811,1.811,0,0,0,40,164.8H35.747a.891.891,0,1,0,0,1.782H40a.027.027,0,0,1,.027.027v.982a1.819,1.819,0,0,1-1.817,1.817,1.146,1.146,0,0,0-1.049,1.6,7.272,7.272,0,0,1,.587,3.471l-.3,4.091a2.018,2.018,0,0,1-.533-1.411,19.462,19.462,0,0,0-.637-4.655c-.382-1.821-1.909-2.826-3.422-1.909a4.59,4.59,0,0,1-2.365.7h-.166a4.589,4.589,0,0,1-2.365-.7,2.054,2.054,0,0,0-1.921-.182,2.841,2.841,0,0,0-1.5,2.091,19.427,19.427,0,0,0-.637,4.655,2.018,2.018,0,0,1-.533,1.411l-.3-4.091a7.361,7.361,0,0,1,7.341-7.9h1.177a.891.891,0,1,0,0-1.782H30.411a9.141,9.141,0,0,0-9,7.543,8.059,8.059,0,0,0-13.759,6.267l.022.3H7.43A2.428,2.428,0,0,0,5,181.341v.168A3.749,3.749,0,0,0,8.139,185.2a6.951,6.951,0,0,0,3.012,4.96V191.9H9.711a.891.891,0,0,0,0,1.782h.281a5.764,5.764,0,0,0,2.494,3.914v6.665H6.957v-4.114a.891.891,0,1,0-1.782,0v4.114H1.781V197.1a3.416,3.416,0,0,1,3.412-3.412h.359a.891.891,0,0,0,0-1.782H5.194A5.2,5.2,0,0,0,0,197.1v8.058a.891.891,0,0,0,.891.891H59.932a.891.891,0,0,0,.891-.891V197.1a5.2,5.2,0,0,0-5.194-5.194ZM48.3,195.224a5.826,5.826,0,0,0-1.711-3.492,8.766,8.766,0,0,0,1.3-.5v.944a1.508,1.508,0,0,0,1.139,1.459A3.983,3.983,0,0,1,48.3,195.224Zm-35.771,0a3.986,3.986,0,0,1-.732-1.586,1.508,1.508,0,0,0,1.139-1.459v-.944a8.745,8.745,0,0,0,1.3.5,5.826,5.826,0,0,0-1.711,3.492Zm7.5-17.459a.876.876,0,0,1,.874-.875h.559c.074,1.01.207,2.815.247,3.352a2.4,2.4,0,0,1-1.68-2.284Zm3.161,7.944a9.879,9.879,0,0,0,2.13,2.131v2.215H20.374A7.1,7.1,0,0,0,23.188,185.709Zm3.912,4.529v-1.3a7.87,7.87,0,0,0,3.311.923,7.877,7.877,0,0,0,3.311-.923v1.3a1.6,1.6,0,0,0,1.335,1.576,4.725,4.725,0,0,1-9.292,0,1.6,1.6,0,0,0,1.335-1.575Zm8.4-.182V187.84a9.891,9.891,0,0,0,2.13-2.131,7.1,7.1,0,0,0,2.813,4.346Zm5.291-12.29v.193a2.4,2.4,0,0,1-1.681,2.284c.051-.688.189-2.561.247-3.352h.559a.876.876,0,0,1,.875.875Zm7.482,11.2a6.7,6.7,0,0,1-3.008,1.217,2.037,2.037,0,0,1-.282,0,6.7,6.7,0,0,1-3.008-1.217,5.532,5.532,0,0,1-2.627-3.862l-.223-3.033a4.18,4.18,0,0,0,3.447-4.11v-.193a2.646,2.646,0,0,0-.117-.781,12.294,12.294,0,0,0,5.659-.1.721.721,0,0,1,.875.549l.632,2.939a12.684,12.684,0,0,0,1.362,3.575L50.9,185.1a5.53,5.53,0,0,1-2.626,3.862Zm3.155-8.686.027.042-.012.023C51.441,180.32,51.437,180.3,51.432,180.276Zm2.6,1.232a1.964,1.964,0,0,1-1.214,1.813l.14-1.9a.788.788,0,0,1,.591-.7.644.644,0,0,1,.483.623ZM41.131,169.7a2.565,2.565,0,0,0,1.452-1.081,3.137,3.137,0,0,1,5.293,0,2.54,2.54,0,0,0,2.687,1.118,2.316,2.316,0,0,1,2.79,2.649,2.615,2.615,0,0,0,1.211,2.677,2.081,2.081,0,0,1-.926,3.848c-.079.006-.057,0-.132.012-.165-.008.175-.006-1.32-.006a.891.891,0,0,0-.884.786l-.568-2.637a2.5,2.5,0,0,0-3.038-1.905,10.388,10.388,0,0,1-5.086.029,2.511,2.511,0,0,0-1.657.132,2.638,2.638,0,0,0-1.034-.21h-.428l.037-.494a9.188,9.188,0,0,0-.434-3.533,3.609,3.609,0,0,0,2.036-1.385Zm-15.446,7.435a18.01,18.01,0,0,1,.6-4.256,1.2,1.2,0,0,1,.467-.823c.024-.011.1-.043.288.072a6.373,6.373,0,0,0,3.288.956h.166a6.373,6.373,0,0,0,3.289-.956c.189-.115.264-.083.288-.071a1.2,1.2,0,0,1,.467.823l.293,1.4a12.77,12.77,0,0,1,.306,2.859,3.782,3.782,0,0,0,2.162,3.5l-.108,1.466c-.25,3.391-4.665,5.975-6.78,5.975s-6.53-2.583-6.78-5.975l-.108-1.466a3.782,3.782,0,0,0,2.162-3.5Zm-4.429-2.023H20.9a2.639,2.639,0,0,0-1.23.3A7.472,7.472,0,0,0,20,173.454a6.27,6.27,0,0,1,1.257,1.655Zm-10.164-1.364a6.252,6.252,0,0,1,7.053-1.5,5.724,5.724,0,0,1-6.386,6.621,1.508,1.508,0,0,0-1.653,1.064,2.7,2.7,0,0,1-.5.936l-.175-2.383a6.217,6.217,0,0,1,1.662-4.736Zm-4.306,7.763v-.168a.644.644,0,0,1,.643-.644h.378L8,183.321a1.964,1.964,0,0,1-1.214-1.813ZM9.918,185.1l-.153-2.07a4.534,4.534,0,0,0,1.976-2.376,7.485,7.485,0,0,0,6.5-2.64,4.179,4.179,0,0,0,3.446,4.053l-.223,3.033a5.534,5.534,0,0,1-2.627,3.862,6.7,6.7,0,0,1-3.007,1.216,1.928,1.928,0,0,1-.284,0,6.7,6.7,0,0,1-3.007-1.216A5.532,5.532,0,0,1,9.918,185.1Zm4.349,10.8a4.065,4.065,0,0,1,4.06-4.06h5.637a6.506,6.506,0,0,0,12.893,0h5.637a4.065,4.065,0,0,1,4.06,4.06v8.367H42.381v-4.853a.891.891,0,0,0-1.782,0v4.853H20.223v-4.853a.891.891,0,0,0-1.782,0v4.853H14.268V195.9Zm44.773,8.367H55.647V200.15a.891.891,0,0,0-1.782,0v4.114H48.337V197.6a5.763,5.763,0,0,0,2.494-3.914h4.8a3.416,3.416,0,0,1,3.412,3.412Zm0,0" transform="translate(0 -124.289)"/>
    </g>
  </g>
</svg>
