<svg xmlns="http://www.w3.org/2000/svg" width="84.945" height="84.945" viewBox="0 0 84.945 84.945">
  <g id="c2" transform="translate(-180.027 -12667.536)">
    <path id="Trazado_861606" data-name="Trazado 861606" d="M42.473,0A42.473,42.473,0,1,1,0,42.473,42.473,42.473,0,0,1,42.473,0Z" transform="translate(180.027 12667.536)" fill="#ffb6c8"/>
    <g id="salud-publica" transform="translate(191.495 12670.671)">
      <path id="Trazado_862025" data-name="Trazado 862025" d="M196.489,187.77a3.872,3.872,0,0,0-2.5-3.416,2.632,2.632,0,0,0-2.91.828h0l-.865.983a.649.649,0,0,1-.975,0l-.865-.983a2.683,2.683,0,0,0-2.032-.975,2.77,2.77,0,0,0-.878.147,3.872,3.872,0,0,0-2.5,3.416c-.223,2.865,2.237,5.874,6.762,8.287,4.525-2.413,6.985-5.422,6.762-8.287Z" transform="translate(-158.722 -151.529)" fill="#e94444"/>
      <path id="Trazado_862026" data-name="Trazado 862026" d="M54.01,25.123V39.511a.647.647,0,0,1-.035.209,85.47,85.47,0,0,1-7.916,16.762l.562,4.275a.649.649,0,1,1-1.288.169l-.592-4.5A.65.65,0,0,1,44.831,56a84.376,84.376,0,0,0,7.88-16.6V25.123a.072.072,0,0,0-.071-.071,2.549,2.549,0,0,0-2.483,2.519L49.6,37.264a.649.649,0,0,1-.124.346l-4.582,6.261-.99,4.535a.649.649,0,1,1-1.269-.277l2.072-9.49a1.462,1.462,0,0,0-.745-1.787c-.629-.256-1.552-.085-2.089,1.234L37.333,49.225a11.219,11.219,0,0,0-.7,5.3L37.08,60.8a.649.649,0,0,1-1.3.091l-.442-6.271a12.429,12.429,0,0,1,.788-5.881L40.669,37.6c.836-2.054,2.546-2.449,3.78-1.947a2.735,2.735,0,0,1,1.526,3.266l-.4,1.821L48.313,37l.546-9.5a3.831,3.831,0,0,1,3.78-3.744,1.371,1.371,0,0,1,1.37,1.37ZM21.341,37.6c-.836-2.054-2.546-2.449-3.78-1.948a2.735,2.735,0,0,0-1.526,3.267l.4,1.821L13.7,37l-.546-9.5a3.831,3.831,0,0,0-3.78-3.744A1.371,1.371,0,0,0,8,25.123V39.511a.649.649,0,0,0,.034.209,85.331,85.331,0,0,0,7.916,16.762l-.562,4.275a.649.649,0,1,0,1.288.169l.592-4.5A.65.65,0,0,0,17.179,56,84.238,84.238,0,0,1,9.3,39.4V25.123a.072.072,0,0,1,.071-.071,2.549,2.549,0,0,1,2.483,2.52l.557,9.692a.649.649,0,0,0,.124.346l4.582,6.261.99,4.535a.649.649,0,1,0,1.269-.277L17.3,38.64a1.462,1.462,0,0,1,.746-1.787c.628-.255,1.552-.085,2.089,1.234l4.538,11.138a11.22,11.22,0,0,1,.7,5.3L24.93,60.8a.649.649,0,1,0,1.3.091l.442-6.272a12.429,12.429,0,0,0-.788-5.881L21.341,37.6ZM31.3,45.839a.649.649,0,0,1-.6,0,17.545,17.545,0,0,1-6.2-4.881,7.233,7.233,0,0,1-1.562-4.817,5.486,5.486,0,0,1,.358-1.565H16.8a.649.649,0,0,1-.649-.649V28.342a3.682,3.682,0,0,1,3.582-3.57,5.247,5.247,0,0,1-.966-3.1,3.465,3.465,0,1,1,6.931,0,5.247,5.247,0,0,1-.967,3.1,4,4,0,0,1,1.3.295,4.17,4.17,0,0,1,2.382-.829,5.553,5.553,0,0,1-1.086-3.377,3.676,3.676,0,0,1,7.352,0,5.553,5.553,0,0,1-1.086,3.377,4.17,4.17,0,0,1,2.383.83,3.974,3.974,0,0,1,1.3-.3,5.247,5.247,0,0,1-.967-3.1,3.465,3.465,0,1,1,6.931,0,5.247,5.247,0,0,1-.966,3.1,3.682,3.682,0,0,1,3.582,3.57v5.585a.649.649,0,0,1-.649.649H38.7a5.486,5.486,0,0,1,.358,1.565A7.233,7.233,0,0,1,37.5,40.958a17.545,17.545,0,0,1-6.2,4.881ZM42.061,26.064H37.5a2.692,2.692,0,0,0-.551.058,3.6,3.6,0,0,1,.549,1.906v4.694a5.161,5.161,0,0,1,.485.554h3.649V29.733a.649.649,0,1,1,1.3,0v3.545h1.636V28.342a2.4,2.4,0,0,0-2.5-2.277Zm-4.449-4.391c0,1.284.672,3.092,2.167,3.092s2.167-1.808,2.167-3.092a2.167,2.167,0,1,0-4.334,0Zm-8.985-.812c0,1.4.738,3.374,2.377,3.374s2.377-1.973,2.377-3.374a2.377,2.377,0,0,0-4.754,0Zm-2.814,7.168V31.8a4.48,4.48,0,0,1,.518-.21A4.153,4.153,0,0,1,27.2,31.4V28.586a.649.649,0,1,1,1.3,0v2.9A4.093,4.093,0,0,1,30.627,32.8l.377.429.377-.429a4.093,4.093,0,0,1,2.128-1.314v-2.9a.649.649,0,0,1,1.3,0V31.4a4.154,4.154,0,0,1,.869.191,4.478,4.478,0,0,1,.518.21V28.029a2.628,2.628,0,0,0-2.737-2.5H28.551a2.628,2.628,0,0,0-2.737,2.5Zm-5.751-6.355c0,1.284.672,3.092,2.167,3.092S24.4,22.957,24.4,21.673a2.167,2.167,0,1,0-4.334,0Zm3.967,11.6a5.169,5.169,0,0,1,.485-.554V28.029a3.6,3.6,0,0,1,.549-1.906,2.7,2.7,0,0,0-.551-.058H19.948a2.4,2.4,0,0,0-2.5,2.277v4.936h1.636V29.733a.649.649,0,1,1,1.3,0v3.545h3.649Zm13.736,2.964a3.872,3.872,0,0,0-2.5-3.416,2.632,2.632,0,0,0-2.91.828h0l-.865.983a.649.649,0,0,1-.975,0l-.865-.983a2.683,2.683,0,0,0-2.032-.975,2.77,2.77,0,0,0-.878.147,3.872,3.872,0,0,0-2.5,3.416c-.223,2.865,2.237,5.874,6.762,8.287,4.525-2.413,6.985-5.422,6.762-8.287Zm-3.16,1.34v2.127a.649.649,0,0,1-.649.649H32.716V41.6a.649.649,0,0,1-.649.649H29.942a.649.649,0,0,1-.649-.649V40.358H28.052a.649.649,0,0,1-.649-.649V37.581a.649.649,0,0,1,.649-.649h1.241V35.693a.649.649,0,0,1,.649-.649h2.125a.649.649,0,0,1,.649.649v1.239h1.241A.649.649,0,0,1,34.607,37.581Zm-1.3.649H32.067a.649.649,0,0,1-.649-.649V36.343h-.826v1.239a.649.649,0,0,1-.649.649H28.7v.829h1.241a.649.649,0,0,1,.649.649v1.239h.826V39.709a.649.649,0,0,1,.649-.649h1.241Z"/>
      <path id="Trazado_862027" data-name="Trazado 862027" d="M233.884,224.951v-1.239h-.826v1.239a.649.649,0,0,1-.649.649h-1.241v.829h1.241a.649.649,0,0,1,.649.649v1.239h.826v-1.239a.649.649,0,0,1,.649-.649h1.241V225.6h-1.241A.649.649,0,0,1,233.884,224.951Z" transform="translate(-202.467 -187.369)" fill="#ebebeb"/>
      <path id="Trazado_862028" data-name="Trazado 862028" d="M116.914,114.871a3.6,3.6,0,0,1,.549-1.906,2.7,2.7,0,0,0-.551-.058h-4.565a2.4,2.4,0,0,0-2.5,2.277v4.936h1.636v-3.545a.649.649,0,1,1,1.3,0v3.545h3.649a5.171,5.171,0,0,1,.485-.554v-4.694Z" transform="translate(-92.399 -86.843)" fill="#fec165"/>
      <path id="Trazado_862029" data-name="Trazado 862029" d="M140.217,47.47c1.495,0,2.167-1.808,2.167-3.092a2.167,2.167,0,0,0-4.334,0C138.05,45.662,138.722,47.47,140.217,47.47Z" transform="translate(-117.986 -22.705)" fill="#fdd7ad"/>
      <path id="Trazado_862030" data-name="Trazado 862030" d="M201.427,113.049v-2.816a.649.649,0,1,1,1.3,0v2.9a4.093,4.093,0,0,1,2.129,1.313l.377.429.377-.429a4.093,4.093,0,0,1,2.128-1.314v-2.9a.649.649,0,1,1,1.3,0v2.816a4.154,4.154,0,0,1,.869.191,4.479,4.479,0,0,1,.518.21v-3.774a2.628,2.628,0,0,0-2.737-2.5h-4.907a2.628,2.628,0,0,0-2.737,2.5v3.774a4.479,4.479,0,0,1,.518-.21,4.152,4.152,0,0,1,.869-.191Z" transform="translate(-174.227 -81.647)" fill="#0473ce"/>
      <path id="Trazado_862031" data-name="Trazado 862031" d="M329.4,47.47c1.495,0,2.167-1.808,2.167-3.092a2.167,2.167,0,1,0-4.334,0C327.233,45.662,327.905,47.47,329.4,47.47Z" transform="translate(-289.621 -22.705)" fill="#fdd7ad"/>
      <path id="Trazado_862032" data-name="Trazado 862032" d="M232.751,36.936c1.64,0,2.377-1.973,2.377-3.374a2.377,2.377,0,0,0-4.754,0C230.374,34.963,231.112,36.936,232.751,36.936Z" transform="translate(-201.746 -12.701)" fill="#fdd7ad"/>
      <path id="Trazado_862033" data-name="Trazado 862033" d="M325.159,112.907h-4.565a2.692,2.692,0,0,0-.551.058,3.6,3.6,0,0,1,.549,1.906v4.694a5.16,5.16,0,0,1,.485.554h3.649v-3.545a.649.649,0,1,1,1.3,0v3.545h1.636v-4.936a2.4,2.4,0,0,0-2.5-2.277Z" transform="translate(-283.098 -86.843)" fill="#22b27f"/>
      <g id="Grupo_1088061" data-name="Grupo 1088061" transform="translate(9.299 25.052)">
        <path id="Trazado_862034" data-name="Trazado 862034" d="M38.233,138.429a.649.649,0,0,1-.6-.693l.442-6.271a11.22,11.22,0,0,0-.7-5.3L32.84,115.027c-.537-1.32-1.461-1.489-2.089-1.234a1.462,1.462,0,0,0-.746,1.787l2.072,9.489a.649.649,0,0,1-1.269.277l-.99-4.535-4.582-6.261a.649.649,0,0,1-.124-.346l-.557-9.692a2.549,2.549,0,0,0-2.483-2.52.072.072,0,0,0-.071.071v14.281a84.238,84.238,0,0,0,7.88,16.6.65.65,0,0,1,.089.423l-.592,4.5a.65.65,0,0,1-.643.565h9.5Z" transform="translate(-22 -101.992)" fill="#fdd7ad"/>
        <path id="Trazado_862035" data-name="Trazado 862035" d="M323.854,137.867l-.592-4.5a.65.65,0,0,1,.089-.423,84.377,84.377,0,0,0,7.88-16.6V102.064a.072.072,0,0,0-.071-.071,2.549,2.549,0,0,0-2.483,2.519l-.557,9.693a.649.649,0,0,1-.124.346l-4.582,6.261-.99,4.535a.649.649,0,1,1-1.269-.277l2.072-9.49a1.462,1.462,0,0,0-.745-1.787c-.629-.256-1.552-.085-2.089,1.234l-4.539,11.139a11.219,11.219,0,0,0-.7,5.3l.442,6.271a.65.65,0,0,1-.6.693v0h9.5A.65.65,0,0,1,323.854,137.867Z" transform="translate(-287.82 -101.993)" fill="#fdd7ad"/>
      </g>
    </g>
  </g>
</svg>
