<svg xmlns="http://www.w3.org/2000/svg" xmlns:xlink="http://www.w3.org/1999/xlink" width="85" height="84.946" viewBox="0 0 85 84.946">
  <defs>
    <clipPath id="clip-path">
      <path id="Trazado_858073" data-name="Trazado 858073" d="M42.473,0A42.473,42.473,0,1,1,0,42.473,42.473,42.473,0,0,1,42.473,0Z" transform="translate(180.055 5965.795)" fill="#f7df3f"/>
    </clipPath>
  </defs>
  <g id="i1" transform="translate(-180 -5866.027)">
    <path id="Trazado_858072" data-name="Trazado 858072" d="M42.473,0A42.473,42.473,0,1,1,0,42.473,42.473,42.473,0,0,1,42.473,0Z" transform="translate(180 5866.027)" fill="#f7df3f"/>
    <g id="obediente_4_" data-name="obediente (4)" transform="translate(191.146 5882.597)">
      <g id="Grupo_1086013" data-name="Grupo 1086013" transform="translate(9.442 0.759)">
        <g id="Grupo_1086011" data-name="Grupo 1086011" transform="translate(0)">
          <g id="Grupo_1086008" data-name="Grupo 1086008" transform="translate(0 19.826)">
            <g id="Grupo_1086001" data-name="Grupo 1086001" transform="translate(0 0)">
              <path id="Trazado_858074" data-name="Trazado 858074" d="M39.2,203.9l1.823,3.157a.3.3,0,0,0,.263.152H53.775a.3.3,0,0,0,.263-.152l1.823-3.157a.3.3,0,0,0-.263-.455H39.464A.3.3,0,0,0,39.2,203.9Z" transform="translate(-39.16 -203.44)" fill="#fed402"/>
            </g>
            <g id="Grupo_1086007" data-name="Grupo 1086007">
              <g id="Grupo_1086002" data-name="Grupo 1086002" transform="translate(27.14 0)">
                <path id="Trazado_858075" data-name="Trazado 858075" d="M307.423,203.9l1.823,3.157a.3.3,0,0,0,.263.152H322a.3.3,0,0,0,.263-.152l1.823-3.157a.3.3,0,0,0-.263-.455H307.686A.3.3,0,0,0,307.423,203.9Z" transform="translate(-307.382 -203.44)" fill="#fed402"/>
              </g>
              <g id="Grupo_1086003" data-name="Grupo 1086003" transform="translate(0 0)">
                <path id="Trazado_858076" data-name="Trazado 858076" d="M39.2,203.9l1.823,3.157a.3.3,0,0,0,.263.152H53.775a.3.3,0,0,0,.263-.152l1.823-3.157a.3.3,0,0,0-.263-.455H39.464A.3.3,0,0,0,39.2,203.9Z" transform="translate(-39.16 -203.44)" fill="#ca6e59"/>
              </g>
              <g id="Grupo_1086004" data-name="Grupo 1086004" transform="translate(0)">
                <path id="Trazado_858077" data-name="Trazado 858077" d="M45.313,207.051l-1.823-3.157a.3.3,0,0,1,.263-.455H39.465a.3.3,0,0,0-.263.455l1.823,3.157a.3.3,0,0,0,.263.152h4.288A.3.3,0,0,1,45.313,207.051Z" transform="translate(-39.161 -203.439)" fill="#bb5d4c"/>
              </g>
              <g id="Grupo_1086005" data-name="Grupo 1086005" transform="translate(27.14 0)">
                <path id="Trazado_858078" data-name="Trazado 858078" d="M307.423,203.9l1.823,3.157a.3.3,0,0,0,.263.152H322a.3.3,0,0,0,.263-.152l1.823-3.157a.3.3,0,0,0-.263-.455H307.686A.3.3,0,0,0,307.423,203.9Z" transform="translate(-307.382 -203.44)" fill="#ca6e59"/>
              </g>
              <g id="Grupo_1086006" data-name="Grupo 1086006" transform="translate(27.14)">
                <path id="Trazado_858079" data-name="Trazado 858079" d="M314.065,207.051l-1.823-3.157a.3.3,0,0,1,.263-.455h-4.818a.3.3,0,0,0-.263.455l1.823,3.157a.3.3,0,0,0,.263.152h4.818A.3.3,0,0,1,314.065,207.051Z" transform="translate(-307.382 -203.439)" fill="#bb5d4c"/>
              </g>
            </g>
          </g>
          <path id="Trazado_858080" data-name="Trazado 858080" d="M240.02,122.182V103.629a.506.506,0,0,0-.506-.506h-3.042a.506.506,0,0,0-.506.506v18.553h4.054Z" transform="translate(-216.052 -93.447)" fill="#bb5d4c"/>
          <path id="Trazado_858081" data-name="Trazado 858081" d="M237.683,122.182V103.629a.506.506,0,0,1,.506-.506h-1.717a.506.506,0,0,0-.506.506v18.553h1.717Z" transform="translate(-216.052 -93.447)" fill="#a44f3e"/>
          <g id="Grupo_1086009" data-name="Grupo 1086009" transform="translate(19.108 0)">
            <circle id="Elipse_5493" data-name="Elipse 5493" cx="2.833" cy="2.833" r="2.833" fill="#883f2e"/>
          </g>
          <g id="Grupo_1086010" data-name="Grupo 1086010" transform="translate(19.108)">
            <path id="Trazado_858082" data-name="Trazado 858082" d="M230.535,10.333A2.832,2.832,0,0,1,232.1,7.8a2.833,2.833,0,1,0,0,5.069A2.832,2.832,0,0,1,230.535,10.333Z" transform="translate(-228.005 -7.5)" fill="#6d3326"/>
          </g>
        </g>
        <g id="Grupo_1086012" data-name="Grupo 1086012" transform="translate(3.9 28.735)">
          <path id="Trazado_858083" data-name="Trazado 858083" d="M218.716,295.833v-2.324a2.024,2.024,0,0,0-2.024-2.024H211.28a2.024,2.024,0,0,0-2.024,2.024v2.324Z" transform="translate(-195.945 -291.485)" fill="#883f2e"/>
          <path id="Trazado_858084" data-name="Trazado 858084" d="M212.67,295.833v-2.324a2.024,2.024,0,0,1,2.024-2.024h-3.414a2.024,2.024,0,0,0-2.024,2.024v2.324Z" transform="translate(-195.944 -291.485)" fill="#6d3326"/>
          <path id="Trazado_858085" data-name="Trazado 858085" d="M188.339,339.066v-2.875a1.734,1.734,0,0,0-1.734-1.734h-13.7a1.734,1.734,0,0,0-1.734,1.734v2.875Z" transform="translate(-161.714 -330.109)" fill="#bb5d4c"/>
          <path id="Trazado_858086" data-name="Trazado 858086" d="M175.44,339.066v-2.875a1.734,1.734,0,0,1,1.734-1.734h-4.267a1.734,1.734,0,0,0-1.734,1.734v2.875Z" transform="translate(-161.715 -330.109)" fill="#a44f3e"/>
          <path id="Trazado_858087" data-name="Trazado 858087" d="M80.406,379.006a2.7,2.7,0,0,0-2.7,2.7v5.135a2.7,2.7,0,0,0,2.7,2.7h1.1v-7.162h5.526v7.162h30.947V379.006Z" transform="translate(-77.703 -370.15)" fill="#fff3de"/>
        </g>
      </g>
      <g id="Grupo_1086022" data-name="Grupo 1086022" transform="translate(6.855 38.35)">
        <g id="Grupo_1086017" data-name="Grupo 1086017">
          <g id="Grupo_1086014" data-name="Grupo 1086014">
            <path id="Trazado_858088" data-name="Trazado 858088" d="M22.785,389.547a2.7,2.7,0,0,1-2.7-2.7v-5.135a2.7,2.7,0,0,1,2.7-2.7H18.866a5.27,5.27,0,1,0,0,10.541h3.919Z" transform="translate(-13.596 -379.006)" fill="#3675bb"/>
          </g>
          <g id="Grupo_1086015" data-name="Grupo 1086015">
            <path id="Trazado_858089" data-name="Trazado 858089" d="M16.156,384.276a5.27,5.27,0,0,1,5.27-5.27h-2.56a5.27,5.27,0,1,0,0,10.541h2.56A5.271,5.271,0,0,1,16.156,384.276Z" transform="translate(-13.596 -379.006)" fill="#2b68b6"/>
          </g>
          <g id="Grupo_1086016" data-name="Grupo 1086016" transform="translate(6.487 0.004)">
            <path id="Trazado_858090" data-name="Trazado 858090" d="M81.5,386.617a2.7,2.7,0,0,1-1.239-2.271V379.21c0-.057,0-.113.006-.169a2.7,2.7,0,0,0-2.565,2.7v5.135a2.7,2.7,0,0,0,2.7,2.7h1.1Z" transform="translate(-77.703 -379.041)" fill="#ffe5c2"/>
            <path id="Trazado_858091" data-name="Trazado 858091" d="M169.857,458.174H200.8v2.53H169.857Z" transform="translate(-160.532 -450.167)" fill="#ffe5c2"/>
          </g>
        </g>
        <g id="Grupo_1086021" data-name="Grupo 1086021" transform="translate(10.285 3.378)">
          <g id="Grupo_1086018" data-name="Grupo 1086018">
            <path id="Trazado_858092" data-name="Trazado 858092" d="M120.766,421.411V412.4H115.24v9.016a.3.3,0,0,0,.476.25L118,420.078l2.287,1.583A.3.3,0,0,0,120.766,421.411Z" transform="translate(-115.24 -412.395)" fill="#fb2b3a"/>
          </g>
          <g id="Grupo_1086020" data-name="Grupo 1086020" transform="translate(0)">
            <g id="Grupo_1086019" data-name="Grupo 1086019">
              <path id="Trazado_858093" data-name="Trazado 858093" d="M117.784,412.4H115.24v9.016a.3.3,0,0,0,.476.25l2.068-1.431Z" transform="translate(-115.24 -412.395)" fill="#e41f2d"/>
            </g>
          </g>
        </g>
      </g>
      <path id="Trazado_858094" data-name="Trazado 858094" d="M55.91,48.132H54.372V39.109H55.91a.759.759,0,1,0,0-1.518H40.725V35.576a2.5,2.5,0,0,0-2.493-2.493h-1.36V31.518a2.785,2.785,0,0,0-2.7-2.781V16.493a.759.759,0,1,0-1.518,0V28.735H30.114V11.193h2.536v1.758a.759.759,0,0,0,1.518,0V10.94A1.266,1.266,0,0,0,32.9,9.676h-.762V7.1a3.6,3.6,0,0,0,2.751-2.751h9.3V5.735l-7.42,14.1a1.061,1.061,0,0,0-.808,1.586l1.823,3.157a1.065,1.065,0,0,0,.92.531h7.144a.759.759,0,0,0,0-1.518H38.971l-1.3-2.246H52.231l-1.3,2.246H49.393a.759.759,0,0,0,0,1.518h1.8a1.065,1.065,0,0,0,.92-.531L53.94,21.42a1.061,1.061,0,0,0-.808-1.586l-7.42-14.1V4.35h2.841a.759.759,0,0,0,0-1.518H34.893a3.591,3.591,0,0,0-7.02,0H14.213a.759.759,0,0,0,0,1.518h2.841V5.735l-7.42,14.1a1.061,1.061,0,0,0-.808,1.586h0l1.823,3.157a1.065,1.065,0,0,0,.92.531H24.057a1.065,1.065,0,0,0,.92-.531L26.8,21.42a1.061,1.061,0,0,0-.808-1.586l-7.42-14.1V4.35h9.3A3.6,3.6,0,0,0,30.623,7.1V9.675h-.762A1.266,1.266,0,0,0,28.6,10.94v17.8a2.785,2.785,0,0,0-2.7,2.781v1.566h-1.36a2.5,2.5,0,0,0-2.493,2.493v2.014H12.125a6.029,6.029,0,1,0,0,12.059h4.256v1.094a1.062,1.062,0,0,0,1.667.874L19.9,50.333l1.855,1.284a1.062,1.062,0,0,0,1.667-.874V49.649H55.91a.759.759,0,1,0,0-1.518ZM44.194,19.826h-5.7l5.7-10.833ZM45.711,8.993l5.7,10.833h-5.7Zm-28.658,0V19.826h-5.7Zm6.74,14.6H11.831l-1.3-2.246H25.091Zm.479-3.764h-5.7V8.993ZM29.309,3.592a2.074,2.074,0,1,1,2.074,2.074A2.076,2.076,0,0,1,29.309,3.592Zm-1.9,27.926a1.266,1.266,0,0,1,1.265-1.265h5.412a1.266,1.266,0,0,1,1.265,1.265v1.566H27.411ZM12.125,48.132a4.511,4.511,0,1,1,0-9.023h1.056a3.442,3.442,0,0,0-.6,1.944v5.135a3.441,3.441,0,0,0,.6,1.944Zm9.782,1.743-1.572-1.088a.759.759,0,0,0-.864,0L17.9,49.875V42.487h4.009Zm30.947-8.906H36.45a.759.759,0,0,0,0,1.518h16.4v2.266H36.45a.759.759,0,0,0,0,1.518h16.4v1.861H23.425V42.487h6.4a.759.759,0,1,0,0-1.518H16.044a.759.759,0,0,0,0,1.518h.337v5.645h-.337A1.946,1.946,0,0,1,14.1,46.188V41.053a1.946,1.946,0,0,1,1.944-1.944h12.2a.759.759,0,1,0,0-1.518H23.558V35.576a.977.977,0,0,1,.975-.975h13.7a.977.977,0,0,1,.975.975v2.014h-7.42a.759.759,0,1,0,0,1.518H52.854Z"/>
    </g>
  </g>
</svg>
