<svg xmlns="http://www.w3.org/2000/svg" xmlns:xlink="http://www.w3.org/1999/xlink" width="85" height="84.946" viewBox="0 0 85 84.946">
  <defs>
    <clipPath id="clip-path">
      <path id="Trazado_858071" data-name="Trazado 858071" d="M42.473,0A42.473,42.473,0,1,1,0,42.473,42.473,42.473,0,0,1,42.473,0Z" transform="translate(180.055 5965.795)" fill="#f7df3f"/>
    </clipPath>
  </defs>
  <g id="i2" transform="translate(-180 -5965.527)">
    <path id="Trazado_858070" data-name="Trazado 858070" d="M42.473,0A42.473,42.473,0,1,1,0,42.473,42.473,42.473,0,0,1,42.473,0Z" transform="translate(180 5965.527)" fill="#f7df3f"/>
    <g id="obediente_3_" data-name="obediente (3)" transform="translate(184.271 5983.397)">
      <g id="Grupo_1085977" data-name="Grupo 1085977" transform="translate(24.818 0.722)">
        <path id="Trazado_858033" data-name="Trazado 858033" d="M147.435,7.5H116.8a.481.481,0,0,0-.481.481V21.319h3.155a2.358,2.358,0,0,1,.165,4.71v2.925h0a.961.961,0,0,1,.816.95v5.972a.961.961,0,0,1-.816.95h0V39.75a2.358,2.358,0,0,1-.165,4.71h-3.155v3.948h6.64a.962.962,0,0,1,.962.962v1.917h.733a.962.962,0,0,1,.962.962v3.069h22.3V7.981A.481.481,0,0,0,147.435,7.5Z" transform="translate(-116.315 -7.5)" fill="#fff3de"/>
      </g>
      <g id="Grupo_1085978" data-name="Grupo 1085978" transform="translate(24.818 0.722)">
        <path id="Trazado_858034" data-name="Trazado 858034" d="M119.47,21.319l.086,0V7.981a.481.481,0,0,1,.481-.481H116.8a.481.481,0,0,0-.481.481V21.319Z" transform="translate(-116.315 -7.5)" fill="#ffe5c2"/>
        <path id="Trazado_858035" data-name="Trazado 858035" d="M119.47,391.629h-3.155v3.948h3.241v-3.95Z" transform="translate(-116.315 -354.669)" fill="#ffe5c2"/>
      </g>
      <g id="Grupo_1085996" data-name="Grupo 1085996" transform="translate(15.8 14.54)">
        <g id="Grupo_1085979" data-name="Grupo 1085979" transform="translate(13.154 9.925)">
          <path id="Trazado_858036" data-name="Trazado 858036" d="M159.3,254.29h4.454v3.29H159.3Z" transform="translate(-159.296 -254.29)" fill="#883f2e"/>
          <path id="Trazado_858037" data-name="Trazado 858037" d="M237.5,254.29h6.361v3.29H237.5Z" transform="translate(-229.978 -254.29)" fill="#883f2e"/>
        </g>
        <g id="Grupo_1085980" data-name="Grupo 1085980" transform="translate(13.154 11.629)">
          <path id="Trazado_858038" data-name="Trazado 858038" d="M159.3,272h4.454v1.586H159.3Z" transform="translate(-159.296 -272)" fill="#6d3326"/>
          <path id="Trazado_858039" data-name="Trazado 858039" d="M237.5,272h6.361v1.586H237.5Z" transform="translate(-229.978 -272)" fill="#6d3326"/>
        </g>
        <g id="Grupo_1085981" data-name="Grupo 1085981" transform="translate(27.039 9.158)">
          <path id="Trazado_858040" data-name="Trazado 858040" d="M321.493,248.723a2.413,2.413,0,0,1-2.413,2.413H304.164a.548.548,0,0,1-.548-.548v-3.729a.548.548,0,0,1,.548-.548H319.08A2.413,2.413,0,0,1,321.493,248.723Z" transform="translate(-303.616 -246.31)" fill="#ca6e59"/>
        </g>
        <g id="Grupo_1085982" data-name="Grupo 1085982" transform="translate(27.039 9.158)">
          <path id="Trazado_858041" data-name="Trazado 858041" d="M306.9,249.07a.548.548,0,0,1-.548-.548V246.31h-2.182a.548.548,0,0,0-.548.548v3.729a.548.548,0,0,0,.548.548H319.08a2.413,2.413,0,0,0,2.388-2.065Z" transform="translate(-303.616 -246.31)" fill="#bb5d4c"/>
        </g>
        <g id="Grupo_1085983" data-name="Grupo 1085983" transform="translate(17.608 9.158)">
          <path id="Trazado_858042" data-name="Trazado 858042" d="M208.656,246.792v3.864a.481.481,0,0,1-.481.481h-2.109a.481.481,0,0,1-.481-.481v-3.864a.481.481,0,0,1,.481-.481h2.109a.481.481,0,0,1,.481.481Z" transform="translate(-205.585 -246.311)" fill="#ca6e59"/>
        </g>
        <g id="Grupo_1085984" data-name="Grupo 1085984" transform="translate(17.608 9.158)">
          <path id="Trazado_858043" data-name="Trazado 858043" d="M206.98,250.656v-3.864a.481.481,0,0,1,.481-.481h-1.395a.481.481,0,0,0-.481.481v3.864a.481.481,0,0,0,.481.481h1.395A.481.481,0,0,1,206.98,250.656Z" transform="translate(-205.585 -246.311)" fill="#bb5d4c"/>
        </g>
        <g id="Grupo_1085985" data-name="Grupo 1085985" transform="translate(5.977 4.71)">
          <path id="Trazado_858044" data-name="Trazado 858044" d="M90.918,312.309H84.849a.965.965,0,0,1-.146-.012v2.925c.054,0,.109-.006.165-.006H90.9c.055,0,.11,0,.165.006V312.3A.954.954,0,0,1,90.918,312.309Z" transform="translate(-84.703 -301.5)" fill="#883f2e"/>
          <path id="Trazado_858045" data-name="Trazado 858045" d="M84.849,312.309a.965.965,0,0,1-.146-.012v2.925c.054,0,.109-.006.165-.006h2.258v-2.906H84.849Z" transform="translate(-84.703 -301.5)" fill="#6d3326"/>
          <path id="Trazado_858046" data-name="Trazado 858046" d="M84.849,202.992h6.068a.965.965,0,0,1,.146.012v-2.925c-.054,0-.109.006-.165.006H84.868c-.055,0-.11,0-.165-.006V203A.965.965,0,0,1,84.849,202.992Z" transform="translate(-84.703 -200.079)" fill="#883f2e"/>
          <path id="Trazado_858047" data-name="Trazado 858047" d="M84.849,202.991h2.276v-2.906H84.868c-.055,0-.11,0-.165-.006V203A.979.979,0,0,1,84.849,202.991Z" transform="translate(-84.703 -200.078)" fill="#6d3326"/>
        </g>
        <g id="Grupo_1085986" data-name="Grupo 1085986" transform="translate(5.162 7.622)">
          <path id="Trazado_858048" data-name="Trazado 858048" d="M84.217,231.314v5.972a.962.962,0,0,1-.962.962H77.187a.962.962,0,0,1-.962-.962v-5.972a.962.962,0,0,1,.962-.962h6.068A.962.962,0,0,1,84.217,231.314Z" transform="translate(-76.225 -230.352)" fill="#ca6e59"/>
        </g>
        <g id="Grupo_1085987" data-name="Grupo 1085987" transform="translate(5.162 7.622)">
          <path id="Trazado_858049" data-name="Trazado 858049" d="M79.475,237.286v-5.972a.962.962,0,0,1,.962-.962h-3.25a.962.962,0,0,0-.962.962v5.972a.962.962,0,0,0,.962.962h3.25A.962.962,0,0,1,79.475,237.286Z" transform="translate(-76.225 -230.352)" fill="#bb5d4c"/>
        </g>
        <g id="Grupo_1085990" data-name="Grupo 1085990" transform="translate(0 27.089)">
          <path id="Trazado_858050" data-name="Trazado 858050" d="M55.115,435.66a.986.986,0,0,0,.005-.1v-1.914a.962.962,0,0,0-.962-.962h-13a.962.962,0,0,0-.962.962v1.914a.986.986,0,0,0,.005.1Z" transform="translate(-38.5 -432.685)" fill="#ca6e59"/>
          <path id="Trazado_858051" data-name="Trazado 858051" d="M43.452,435.66a.984.984,0,0,1-.005-.1v-1.914a.962.962,0,0,1,.962-.962H41.157a.962.962,0,0,0-.962.962v1.914a.984.984,0,0,0,.005.1Z" transform="translate(-38.5 -432.685)" fill="#bb5d4c"/>
          <g id="Grupo_1085988" data-name="Grupo 1085988" transform="translate(0 2.879)">
            <path id="Trazado_858052" data-name="Trazado 858052" d="M40.893,466.639H23.059a.481.481,0,0,1-.481-.481V463.57a.962.962,0,0,1,.962-.962H39.931a.962.962,0,0,1,.962.962Z" transform="translate(-22.578 -462.608)" fill="#883f2e"/>
          </g>
          <g id="Grupo_1085989" data-name="Grupo 1085989" transform="translate(0 2.879)">
            <path id="Trazado_858053" data-name="Trazado 858053" d="M25.794,466.157V463.57a.962.962,0,0,1,.962-.962H23.54a.962.962,0,0,0-.962.962v2.587a.481.481,0,0,0,.481.481h3.216A.481.481,0,0,1,25.794,466.157Z" transform="translate(-22.578 -462.608)" fill="#6d3326"/>
          </g>
        </g>
        <g id="Grupo_1085995" data-name="Grupo 1085995" transform="translate(3.784)">
          <g id="Grupo_1085991" data-name="Grupo 1085991" transform="translate(0 18.425)">
            <path id="Trazado_858054" data-name="Trazado 858054" d="M72.653,344.991a2.358,2.358,0,0,1-2.358,2.358H64.263a2.358,2.358,0,0,1,0-4.716H70.3A2.358,2.358,0,0,1,72.653,344.991Z" transform="translate(-61.905 -342.633)" fill="#ca6e59"/>
          </g>
          <g id="Grupo_1085992" data-name="Grupo 1085992" transform="translate(0 18.425)">
            <path id="Trazado_858055" data-name="Trazado 858055" d="M65.117,344.991a2.358,2.358,0,0,1,2.358-2.358H64.263a2.358,2.358,0,0,0,0,4.716h3.212A2.358,2.358,0,0,1,65.117,344.991Z" transform="translate(-61.905 -342.633)" fill="#bb5d4c"/>
          </g>
          <g id="Grupo_1085993" data-name="Grupo 1085993" transform="translate(0)">
            <path id="Trazado_858056" data-name="Trazado 858056" d="M72.653,153.486a2.358,2.358,0,0,1-2.358,2.358H64.263a2.358,2.358,0,0,1,0-4.716H70.3A2.358,2.358,0,0,1,72.653,153.486Z" transform="translate(-61.905 -151.128)" fill="#ca6e59"/>
          </g>
          <g id="Grupo_1085994" data-name="Grupo 1085994">
            <path id="Trazado_858057" data-name="Trazado 858057" d="M65.117,153.486a2.358,2.358,0,0,1,2.358-2.358H64.263a2.358,2.358,0,0,0,0,4.716h3.212A2.358,2.358,0,0,1,65.117,153.486Z" transform="translate(-61.905 -151.128)" fill="#bb5d4c"/>
          </g>
        </g>
      </g>
      <g id="Grupo_1085999" data-name="Grupo 1085999" transform="translate(33.868 5.206)">
        <g id="Grupo_1085997" data-name="Grupo 1085997">
          <circle id="Elipse_5492" data-name="Elipse 5492" cx="6.751" cy="6.751" r="6.751" fill="#4fc123"/>
        </g>
        <g id="Grupo_1085998" data-name="Grupo 1085998" transform="translate(0)">
          <path id="Trazado_858058" data-name="Trazado 858058" d="M213.607,60.858a6.753,6.753,0,0,1,5.133-6.555,6.751,6.751,0,1,0,0,13.109A6.753,6.753,0,0,1,213.607,60.858Z" transform="translate(-210.372 -54.107)" fill="#47a920"/>
        </g>
      </g>
      <g id="Grupo_1086000" data-name="Grupo 1086000" transform="translate(15.078 0)">
        <path id="Trazado_858059" data-name="Trazado 858059" d="M58.3,22.977H57.141V10.487a.722.722,0,0,0-.744-.721.742.742,0,0,0-.7.752V22.977H50.862a.722.722,0,1,0,0,1.443H58.3a1.691,1.691,0,0,1,0,3.382H43.561V24.42h3.933a.722.722,0,0,0,0-1.443H43.387a1.271,1.271,0,0,0-1.166.768h-5.1A1.2,1.2,0,0,0,36,22.977H33.888a1.2,1.2,0,0,0-1.12.768H29.675v-.619a1.683,1.683,0,0,0-.816-1.44V19.847a3.079,3.079,0,0,0-.886-6.029H25.54V1.443H55.7V7.12a.722.722,0,0,0,.744.721.742.742,0,0,0,.7-.752V1.2a1.2,1.2,0,0,0-1.2-1.2H25.3a1.2,1.2,0,0,0-1.2,1.2V13.819H21.941a3.079,3.079,0,0,0-.886,6.029v1.837a1.683,1.683,0,0,0-.816,1.44V29.1a1.683,1.683,0,0,0,.816,1.44v1.837a3.079,3.079,0,0,0,.886,6.029H24.1v2.505h-5.64a1.686,1.686,0,0,0-1.684,1.684v1.2h-.011a1.686,1.686,0,0,0-1.684,1.684v2.587a1.2,1.2,0,0,0,1.2,1.2H55.938a1.2,1.2,0,0,0,1.2-1.2V29.245H58.3a3.134,3.134,0,0,0,0-6.269ZM37.2,25.187h4.918v1.847H37.2Zm-3.071-.768h1.628V27.8H34.129Zm-4.454.768h3.01v1.847h-3.01ZM20.3,16.9a1.638,1.638,0,0,1,1.636-1.636h6.032a1.636,1.636,0,0,1,0,3.273H21.941A1.638,1.638,0,0,1,20.3,16.9Zm1.618,12.439a.241.241,0,0,1-.241-.241V23.125a.241.241,0,0,1,.241-.241h6.068a.241.241,0,0,1,.241.241V29.1a.241.241,0,0,1-.241.241Zm5.493,1.443v1.463H22.5V30.781ZM22.5,21.441V19.978h4.918v1.463ZM21.941,36.96a1.636,1.636,0,1,1,0-3.273h6.032a1.636,1.636,0,0,1,0,3.273ZM33.393,47.818H16.521V45.471a.241.241,0,0,1,.241-.241h4.466a.722.722,0,0,0,0-1.443H18.216v-1.2a.241.241,0,0,1,.241-.241h13a.241.241,0,0,1,.241.241v1.2H24.6a.722.722,0,0,0,0,1.443h8.557a.241.241,0,0,1,.241.241Zm22.3,0H34.837V45.471a1.686,1.686,0,0,0-1.684-1.684h-.011v-1.2a1.686,1.686,0,0,0-1.684-1.684H25.54V38.4h2.434a3.079,3.079,0,0,0,.886-6.029V30.537a1.683,1.683,0,0,0,.816-1.44v-.619h3.093a1.2,1.2,0,0,0,1.12.768H36a1.2,1.2,0,0,0,1.12-.768h5.1a1.271,1.271,0,0,0,1.166.768H55.7V47.818Z" transform="translate(-15.078 0)"/>
        <path id="Trazado_858060" data-name="Trazado 858060" d="M202.872,54.08a7.473,7.473,0,1,0,7.473-7.473A7.481,7.481,0,0,0,202.872,54.08Zm13.5,0a6.03,6.03,0,1,1-6.03-6.03A6.036,6.036,0,0,1,216.374,54.08Z" transform="translate(-184.804 -42.123)"/>
        <path id="Trazado_858061" data-name="Trazado 858061" d="M247.575,102.591a.722.722,0,1,0-1.021,1.02l2.22,2.22a.722.722,0,0,0,1.021,0l3.44-3.44a.722.722,0,1,0-1.021-1.02l-2.93,2.93Z" transform="translate(-224.093 -91.426)"/>
        <path id="Trazado_858062" data-name="Trazado 858062" d="M243.681,327.791a.722.722,0,0,0,.722.722h13.271a.722.722,0,0,0,0-1.443H244.4A.722.722,0,0,0,243.681,327.791Z" transform="translate(-221.687 -295.601)"/>
        <path id="Trazado_858063" data-name="Trazado 858063" d="M318.063,363.546h-6.842a.722.722,0,1,0,0,1.443h6.842a.722.722,0,1,0,0-1.443Z" transform="translate(-282.077 -328.568)"/>
        <path id="Trazado_858064" data-name="Trazado 858064" d="M244.4,364.989h3.927a.722.722,0,1,0,0-1.443H244.4a.722.722,0,1,0,0,1.443Z" transform="translate(-221.687 -328.568)"/>
        <path id="Trazado_858065" data-name="Trazado 858065" d="M257.672,400.023H244.4a.722.722,0,0,0,0,1.443h13.271a.722.722,0,0,0,0-1.443Z" transform="translate(-221.686 -361.536)"/>
        <path id="Trazado_858066" data-name="Trazado 858066" d="M349.7,436.5h-3.474a.722.722,0,0,0,0,1.443H349.7a.722.722,0,0,0,0-1.443Z" transform="translate(-313.709 -394.503)"/>
        <path id="Trazado_858067" data-name="Trazado 858067" d="M251.986,436.5H244.4a.722.722,0,0,0,0,1.443h7.583a.722.722,0,1,0,0-1.443Z" transform="translate(-221.687 -394.503)"/>
      </g>
    </g>
  </g>
</svg>
